<?xml version="1.0" encoding="UTF-8" standalone="no"?>
<!DOCTYPE svg PUBLIC "-//W3C//DTD SVG 1.1//EN"
 "http://www.w3.org/Graphics/SVG/1.1/DTD/svg11.dtd">
<!-- Generated by graphviz version 2.40.1 (20161225.0304)
 -->
<!-- Title: %3 Pages: 1 -->
<svg width="785pt" height="684pt"
 viewBox="0.00 0.00 785.00 683.50" xmlns="http://www.w3.org/2000/svg" xmlns:xlink="http://www.w3.org/1999/xlink">
<g id="graph0" class="graph" transform="scale(1 1) rotate(0) translate(4 679.5)">
<title>%3</title>
<polygon fill="#ffffff" stroke="transparent" points="-4,4 -4,-679.5 781,-679.5 781,4 -4,4"/>
<!-- Compartment -->
<g id="node1" class="node">
<title>Compartment</title>
<polygon fill="#ff8a5b" stroke="transparent" points="274.5,-78.5 274.5,-108.5 508.5,-108.5 508.5,-78.5 274.5,-78.5"/>
<polygon fill="none" stroke="#000000" points="274.5,-78.5 274.5,-108.5 508.5,-108.5 508.5,-78.5 274.5,-78.5"/>
<text text-anchor="start" x="337" y="-90.1" font-family="Times,serif" font-weight="bold" font-size="18.00" fill="#000000">Compartment</text>
<polygon fill="#bfffff" stroke="transparent" points="274.5,-53.5 274.5,-78.5 399.5,-78.5 399.5,-53.5 274.5,-53.5"/>
<polygon fill="none" stroke="#000000" points="274.5,-53.5 274.5,-78.5 399.5,-78.5 399.5,-53.5 274.5,-53.5"/>
<text text-anchor="start" x="331" y="-63.3" font-family="Times,serif" font-weight="bold" font-size="14.00" fill="#000000">id</text>
<polygon fill="#bfffff" stroke="transparent" points="399.5,-53.5 399.5,-78.5 508.5,-78.5 508.5,-53.5 399.5,-53.5"/>
<polygon fill="none" stroke="#000000" points="399.5,-53.5 399.5,-78.5 508.5,-78.5 508.5,-53.5 399.5,-53.5"/>
<text text-anchor="start" x="437" y="-62.3" font-family="Times,serif" font-size="14.00" fill="#000000">String</text>
<polygon fill="#ebffff" stroke="transparent" points="274.5,-28.5 274.5,-53.5 399.5,-53.5 399.5,-28.5 274.5,-28.5"/>
<polygon fill="none" stroke="#000000" points="274.5,-28.5 274.5,-53.5 399.5,-53.5 399.5,-28.5 274.5,-28.5"/>
<text text-anchor="start" x="320.5" y="-38.3" font-family="Times,serif" font-weight="bold" font-size="14.00" fill="#000000">name</text>
<polygon fill="#ebffff" stroke="transparent" points="399.5,-28.5 399.5,-53.5 508.5,-53.5 508.5,-28.5 399.5,-28.5"/>
<polygon fill="none" stroke="#000000" points="399.5,-28.5 399.5,-53.5 508.5,-53.5 508.5,-28.5 399.5,-28.5"/>
<text text-anchor="start" x="437" y="-37.3" font-family="Times,serif" font-size="14.00" fill="#000000">String</text>
<polygon fill="#bfffff" stroke="transparent" points="274.5,-3.5 274.5,-28.5 399.5,-28.5 399.5,-3.5 274.5,-3.5"/>
<polygon fill="none" stroke="#000000" points="274.5,-3.5 274.5,-28.5 399.5,-28.5 399.5,-3.5 274.5,-3.5"/>
<text text-anchor="start" x="279.5" y="-13.3" font-family="Times,serif" font-weight="bold" font-size="14.00" fill="#000000">regulated_reactions</text>
<polygon fill="#bfffff" stroke="transparent" points="399.5,-3.5 399.5,-28.5 508.5,-28.5 508.5,-3.5 399.5,-3.5"/>
<polygon fill="none" stroke="#000000" points="399.5,-3.5 399.5,-28.5 508.5,-28.5 508.5,-3.5 399.5,-3.5"/>
<text text-anchor="start" x="404.5" y="-13.3" font-family="Times,serif" font-style="italic" font-size="14.00" fill="#000000">list of </text>
<text text-anchor="start" x="439.5" y="-13.3" font-family="Times,serif" font-size="14.00" fill="#000000"> Regulation</text>
</g>
<!-- Kinetics -->
<g id="node2" class="node">
<title>Kinetics</title>
<polygon fill="#ff8a5b" stroke="transparent" points="546.5,-603.5 546.5,-633.5 777.5,-633.5 777.5,-603.5 546.5,-603.5"/>
<polygon fill="none" stroke="#000000" points="546.5,-603.5 546.5,-633.5 777.5,-633.5 777.5,-603.5 546.5,-603.5"/>
<text text-anchor="start" x="630" y="-615.1" font-family="Times,serif" font-weight="bold" font-size="18.00" fill="#000000">Kinetics</text>
<polygon fill="#bfffff" stroke="transparent" points="546.5,-578.5 546.5,-603.5 680.5,-603.5 680.5,-578.5 546.5,-578.5"/>
<polygon fill="none" stroke="#000000" points="546.5,-578.5 546.5,-603.5 680.5,-603.5 680.5,-578.5 546.5,-578.5"/>
<text text-anchor="start" x="598" y="-588.3" font-family="Times,serif" font-weight="bold" font-size="14.00" fill="#000000">value</text>
<polygon fill="#bfffff" stroke="transparent" points="680.5,-578.5 680.5,-603.5 777.5,-603.5 777.5,-578.5 680.5,-578.5"/>
<polygon fill="none" stroke="#000000" points="680.5,-578.5 680.5,-603.5 777.5,-603.5 777.5,-578.5 680.5,-578.5"/>
<text text-anchor="start" x="711.5" y="-587.3" font-family="Times,serif" font-size="14.00" fill="#000000">Range</text>
<polygon fill="#ebffff" stroke="transparent" points="546.5,-553.5 546.5,-578.5 680.5,-578.5 680.5,-553.5 546.5,-553.5"/>
<polygon fill="none" stroke="#000000" points="546.5,-553.5 546.5,-578.5 680.5,-578.5 680.5,-553.5 546.5,-553.5"/>
<text text-anchor="start" x="587.5" y="-563.3" font-family="Times,serif" font-weight="bold" font-size="14.00" fill="#000000">molecule</text>
<polygon fill="#ebffff" stroke="transparent" points="680.5,-553.5 680.5,-578.5 777.5,-578.5 777.5,-553.5 680.5,-553.5"/>
<polygon fill="none" stroke="#000000" points="680.5,-553.5 680.5,-578.5 777.5,-578.5 777.5,-553.5 680.5,-553.5"/>
<text text-anchor="start" x="712" y="-562.3" font-family="Times,serif" font-size="14.00" fill="#000000">String</text>
<polygon fill="#bfffff" stroke="transparent" points="546.5,-528.5 546.5,-553.5 680.5,-553.5 680.5,-528.5 546.5,-528.5"/>
<polygon fill="none" stroke="#000000" points="546.5,-528.5 546.5,-553.5 680.5,-553.5 680.5,-528.5 546.5,-528.5"/>
<text text-anchor="start" x="586" y="-538.3" font-family="Times,serif" font-weight="bold" font-size="14.00" fill="#000000">organism</text>
<polygon fill="#bfffff" stroke="transparent" points="680.5,-528.5 680.5,-553.5 777.5,-553.5 777.5,-528.5 680.5,-528.5"/>
<polygon fill="none" stroke="#000000" points="680.5,-528.5 680.5,-553.5 777.5,-553.5 777.5,-528.5 680.5,-528.5"/>
<text text-anchor="start" x="712" y="-537.3" font-family="Times,serif" font-size="14.00" fill="#000000">String</text>
<polygon fill="#ebffff" stroke="transparent" points="546.5,-503.5 546.5,-528.5 680.5,-528.5 680.5,-503.5 546.5,-503.5"/>
<polygon fill="none" stroke="#000000" points="546.5,-503.5 546.5,-528.5 680.5,-528.5 680.5,-503.5 546.5,-503.5"/>
<text text-anchor="start" x="580" y="-513.3" font-family="Times,serif" font-weight="bold" font-size="14.00" fill="#000000">uniprot_ids</text>
<polygon fill="#ebffff" stroke="transparent" points="680.5,-503.5 680.5,-528.5 777.5,-528.5 777.5,-503.5 680.5,-503.5"/>
<polygon fill="none" stroke="#000000" points="680.5,-503.5 680.5,-528.5 777.5,-528.5 777.5,-503.5 680.5,-503.5"/>
<text text-anchor="start" x="718" y="-512.3" font-family="Times,serif" font-size="14.00" fill="#000000">List</text>
<polygon fill="#bfffff" stroke="transparent" points="546.5,-478.5 546.5,-503.5 680.5,-503.5 680.5,-478.5 546.5,-478.5"/>
<polygon fill="none" stroke="#000000" points="546.5,-478.5 546.5,-503.5 680.5,-503.5 680.5,-478.5 546.5,-478.5"/>
<text text-anchor="start" x="583" y="-488.3" font-family="Times,serif" font-weight="bold" font-size="14.00" fill="#000000">comments</text>
<polygon fill="#bfffff" stroke="transparent" points="680.5,-478.5 680.5,-503.5 777.5,-503.5 777.5,-478.5 680.5,-478.5"/>
<polygon fill="none" stroke="#000000" points="680.5,-478.5 680.5,-503.5 777.5,-503.5 777.5,-478.5 680.5,-478.5"/>
<text text-anchor="start" x="698" y="-487.3" font-family="Times,serif" font-size="14.00" fill="#000000">LongString</text>
<polygon fill="#ebffff" stroke="transparent" points="546.5,-453.5 546.5,-478.5 680.5,-478.5 680.5,-453.5 546.5,-453.5"/>
<polygon fill="none" stroke="#000000" points="546.5,-453.5 546.5,-478.5 680.5,-478.5 680.5,-453.5 546.5,-453.5"/>
<text text-anchor="start" x="577.5" y="-463.3" font-family="Times,serif" font-weight="bold" font-size="14.00" fill="#000000">pubmed_ids</text>
<polygon fill="#ebffff" stroke="transparent" points="680.5,-453.5 680.5,-478.5 777.5,-478.5 777.5,-453.5 680.5,-453.5"/>
<polygon fill="none" stroke="#000000" points="680.5,-453.5 680.5,-478.5 777.5,-478.5 777.5,-453.5 680.5,-453.5"/>
<text text-anchor="start" x="718" y="-462.3" font-family="Times,serif" font-size="14.00" fill="#000000">List</text>
<polygon fill="#bfffff" stroke="transparent" points="546.5,-428.5 546.5,-453.5 680.5,-453.5 680.5,-428.5 546.5,-428.5"/>
<polygon fill="none" stroke="#000000" points="546.5,-428.5 546.5,-453.5 680.5,-453.5 680.5,-428.5 546.5,-428.5"/>
<text text-anchor="start" x="595.5" y="-438.3" font-family="Times,serif" font-weight="bold" font-size="14.00" fill="#000000">image</text>
<polygon fill="#bfffff" stroke="transparent" points="680.5,-428.5 680.5,-453.5 777.5,-453.5 777.5,-428.5 680.5,-428.5"/>
<polygon fill="none" stroke="#000000" points="680.5,-428.5 680.5,-453.5 777.5,-453.5 777.5,-428.5 680.5,-428.5"/>
<text text-anchor="start" x="712" y="-437.3" font-family="Times,serif" font-size="14.00" fill="#000000">Enum</text>
<polygon fill="#ebffff" stroke="transparent" points="546.5,-403.5 546.5,-428.5 680.5,-428.5 680.5,-403.5 546.5,-403.5"/>
<polygon fill="none" stroke="#000000" points="546.5,-403.5 546.5,-428.5 680.5,-428.5 680.5,-403.5 546.5,-403.5"/>
<text text-anchor="start" x="551.5" y="-413.3" font-family="Times,serif" font-weight="bold" font-size="14.00" fill="#000000">k_cat_k_m_reactions</text>
<polygon fill="#ebffff" stroke="transparent" points="680.5,-403.5 680.5,-428.5 777.5,-428.5 777.5,-403.5 680.5,-403.5"/>
<polygon fill="none" stroke="#000000" points="680.5,-403.5 680.5,-428.5 777.5,-428.5 777.5,-403.5 680.5,-403.5"/>
<text text-anchor="start" x="685.5" y="-413.3" font-family="Times,serif" font-style="italic" font-size="14.00" fill="#000000">list of </text>
<text text-anchor="start" x="720.5" y="-413.3" font-family="Times,serif" font-size="14.00" fill="#000000"> Reaction</text>
<polygon fill="#bfffff" stroke="transparent" points="546.5,-378.5 546.5,-403.5 680.5,-403.5 680.5,-378.5 546.5,-378.5"/>
<polygon fill="none" stroke="#000000" points="546.5,-378.5 546.5,-403.5 680.5,-403.5 680.5,-378.5 546.5,-378.5"/>
<text text-anchor="start" x="568" y="-388.3" font-family="Times,serif" font-weight="bold" font-size="14.00" fill="#000000">k_cat_reactions</text>
<polygon fill="#bfffff" stroke="transparent" points="680.5,-378.5 680.5,-403.5 777.5,-403.5 777.5,-378.5 680.5,-378.5"/>
<polygon fill="none" stroke="#000000" points="680.5,-378.5 680.5,-403.5 777.5,-403.5 777.5,-378.5 680.5,-378.5"/>
<text text-anchor="start" x="685.5" y="-388.3" font-family="Times,serif" font-style="italic" font-size="14.00" fill="#000000">list of </text>
<text text-anchor="start" x="720.5" y="-388.3" font-family="Times,serif" font-size="14.00" fill="#000000"> Reaction</text>
<polygon fill="#ebffff" stroke="transparent" points="546.5,-353.5 546.5,-378.5 680.5,-378.5 680.5,-353.5 546.5,-353.5"/>
<polygon fill="none" stroke="#000000" points="546.5,-353.5 546.5,-378.5 680.5,-378.5 680.5,-353.5 546.5,-353.5"/>
<text text-anchor="start" x="574.5" y="-363.3" font-family="Times,serif" font-weight="bold" font-size="14.00" fill="#000000">k_i_reactions</text>
<polygon fill="#ebffff" stroke="transparent" points="680.5,-353.5 680.5,-378.5 777.5,-378.5 777.5,-353.5 680.5,-353.5"/>
<polygon fill="none" stroke="#000000" points="680.5,-353.5 680.5,-378.5 777.5,-378.5 777.5,-353.5 680.5,-353.5"/>
<text text-anchor="start" x="685.5" y="-363.3" font-family="Times,serif" font-style="italic" font-size="14.00" fill="#000000">list of </text>
<text text-anchor="start" x="720.5" y="-363.3" font-family="Times,serif" font-size="14.00" fill="#000000"> Reaction</text>
<polygon fill="#bfffff" stroke="transparent" points="546.5,-328.5 546.5,-353.5 680.5,-353.5 680.5,-328.5 546.5,-328.5"/>
<polygon fill="none" stroke="#000000" points="546.5,-328.5 546.5,-353.5 680.5,-353.5 680.5,-328.5 546.5,-328.5"/>
<text text-anchor="start" x="570.5" y="-338.3" font-family="Times,serif" font-weight="bold" font-size="14.00" fill="#000000">k_m_reactions</text>
<polygon fill="#bfffff" stroke="transparent" points="680.5,-328.5 680.5,-353.5 777.5,-353.5 777.5,-328.5 680.5,-328.5"/>
<polygon fill="none" stroke="#000000" points="680.5,-328.5 680.5,-353.5 777.5,-353.5 777.5,-328.5 680.5,-328.5"/>
<text text-anchor="start" x="685.5" y="-338.3" font-family="Times,serif" font-style="italic" font-size="14.00" fill="#000000">list of </text>
<text text-anchor="start" x="720.5" y="-338.3" font-family="Times,serif" font-size="14.00" fill="#000000"> Reaction</text>
</g>
<!-- Metabolite -->
<g id="node3" class="node">
<title>Metabolite</title>
<polygon fill="#ff8a5b" stroke="transparent" points="274.5,-235.5 274.5,-265.5 509.5,-265.5 509.5,-235.5 274.5,-235.5"/>
<polygon fill="none" stroke="#000000" points="274.5,-235.5 274.5,-265.5 509.5,-265.5 509.5,-235.5 274.5,-235.5"/>
<text text-anchor="start" x="349.5" y="-247.1" font-family="Times,serif" font-weight="bold" font-size="18.00" fill="#000000">Metabolite</text>
<polygon fill="#bfffff" stroke="transparent" points="274.5,-210.5 274.5,-235.5 399.5,-235.5 399.5,-210.5 274.5,-210.5"/>
<polygon fill="none" stroke="#000000" points="274.5,-210.5 274.5,-235.5 399.5,-235.5 399.5,-210.5 274.5,-210.5"/>
<text text-anchor="start" x="331" y="-220.3" font-family="Times,serif" font-weight="bold" font-size="14.00" fill="#000000">id</text>
<polygon fill="#bfffff" stroke="transparent" points="399.5,-210.5 399.5,-235.5 509.5,-235.5 509.5,-210.5 399.5,-210.5"/>
<polygon fill="none" stroke="#000000" points="399.5,-210.5 399.5,-235.5 509.5,-235.5 509.5,-210.5 399.5,-210.5"/>
<text text-anchor="start" x="437.5" y="-219.3" font-family="Times,serif" font-size="14.00" fill="#000000">String</text>
<polygon fill="#ebffff" stroke="transparent" points="274.5,-185.5 274.5,-210.5 399.5,-210.5 399.5,-185.5 274.5,-185.5"/>
<polygon fill="none" stroke="#000000" points="274.5,-185.5 274.5,-210.5 399.5,-210.5 399.5,-185.5 274.5,-185.5"/>
<text text-anchor="start" x="320.5" y="-195.3" font-family="Times,serif" font-weight="bold" font-size="14.00" fill="#000000">name</text>
<polygon fill="#ebffff" stroke="transparent" points="399.5,-185.5 399.5,-210.5 509.5,-210.5 509.5,-185.5 399.5,-185.5"/>
<polygon fill="none" stroke="#000000" points="399.5,-185.5 399.5,-210.5 509.5,-210.5 509.5,-185.5 399.5,-185.5"/>
<text text-anchor="start" x="437.5" y="-194.3" font-family="Times,serif" font-size="14.00" fill="#000000">String</text>
<polygon fill="#bfffff" stroke="transparent" points="274.5,-160.5 274.5,-185.5 399.5,-185.5 399.5,-160.5 274.5,-160.5"/>
<polygon fill="none" stroke="#000000" points="274.5,-160.5 274.5,-185.5 399.5,-185.5 399.5,-160.5 274.5,-160.5"/>
<text text-anchor="start" x="313" y="-170.3" font-family="Times,serif" font-weight="bold" font-size="14.00" fill="#000000">formula</text>
<polygon fill="#bfffff" stroke="transparent" points="399.5,-160.5 399.5,-185.5 509.5,-185.5 509.5,-160.5 399.5,-160.5"/>
<polygon fill="none" stroke="#000000" points="399.5,-160.5 399.5,-185.5 509.5,-185.5 509.5,-160.5 399.5,-160.5"/>
<text text-anchor="start" x="404.5" y="-169.3" font-family="Times,serif" font-size="14.00" fill="#000000">ChemicalFormula</text>
<polygon fill="#ebffff" stroke="transparent" points="274.5,-135.5 274.5,-160.5 399.5,-160.5 399.5,-135.5 274.5,-135.5"/>
<polygon fill="none" stroke="#000000" points="274.5,-135.5 274.5,-160.5 399.5,-160.5 399.5,-135.5 274.5,-135.5"/>
<text text-anchor="start" x="279.5" y="-145.3" font-family="Times,serif" font-weight="bold" font-size="14.00" fill="#000000">regulated_reactions</text>
<polygon fill="#ebffff" stroke="transparent" points="399.5,-135.5 399.5,-160.5 509.5,-160.5 509.5,-135.5 399.5,-135.5"/>
<polygon fill="none" stroke="#000000" points="399.5,-135.5 399.5,-160.5 509.5,-160.5 509.5,-135.5 399.5,-135.5"/>
<text text-anchor="start" x="405" y="-145.3" font-family="Times,serif" font-style="italic" font-size="14.00" fill="#000000">list of </text>
<text text-anchor="start" x="440" y="-145.3" font-family="Times,serif" font-size="14.00" fill="#000000"> Regulation</text>
</g>
<!-- Reaction -->
<g id="node4" class="node">
<title>Reaction</title>
<polygon fill="#ff8a5b" stroke="transparent" points="273.5,-641.5 273.5,-671.5 510.5,-671.5 510.5,-641.5 273.5,-641.5"/>
<polygon fill="none" stroke="#000000" points="273.5,-641.5 273.5,-671.5 510.5,-671.5 510.5,-641.5 273.5,-641.5"/>
<text text-anchor="start" x="357.5" y="-653.1" font-family="Times,serif" font-weight="bold" font-size="18.00" fill="#000000">Reaction</text>
<polygon fill="#bfffff" stroke="transparent" points="273.5,-616.5 273.5,-641.5 401.5,-641.5 401.5,-616.5 273.5,-616.5"/>
<polygon fill="none" stroke="#000000" points="273.5,-616.5 273.5,-641.5 401.5,-641.5 401.5,-616.5 273.5,-616.5"/>
<text text-anchor="start" x="331.5" y="-626.3" font-family="Times,serif" font-weight="bold" font-size="14.00" fill="#000000">id</text>
<polygon fill="#bfffff" stroke="transparent" points="401.5,-616.5 401.5,-641.5 510.5,-641.5 510.5,-616.5 401.5,-616.5"/>
<polygon fill="none" stroke="#000000" points="401.5,-616.5 401.5,-641.5 510.5,-641.5 510.5,-616.5 401.5,-616.5"/>
<text text-anchor="start" x="439" y="-625.3" font-family="Times,serif" font-size="14.00" fill="#000000">String</text>
<polygon fill="#ebffff" stroke="transparent" points="273.5,-591.5 273.5,-616.5 401.5,-616.5 401.5,-591.5 273.5,-591.5"/>
<polygon fill="none" stroke="#000000" points="273.5,-591.5 273.5,-616.5 401.5,-616.5 401.5,-591.5 273.5,-591.5"/>
<text text-anchor="start" x="300.5" y="-601.3" font-family="Times,serif" font-weight="bold" font-size="14.00" fill="#000000">id_i_a_f1260</text>
<polygon fill="#ebffff" stroke="transparent" points="401.5,-591.5 401.5,-616.5 510.5,-616.5 510.5,-591.5 401.5,-591.5"/>
<polygon fill="none" stroke="#000000" points="401.5,-591.5 401.5,-616.5 510.5,-616.5 510.5,-591.5 401.5,-591.5"/>
<text text-anchor="start" x="439" y="-600.3" font-family="Times,serif" font-size="14.00" fill="#000000">String</text>
<polygon fill="#bfffff" stroke="transparent" points="273.5,-566.5 273.5,-591.5 401.5,-591.5 401.5,-566.5 273.5,-566.5"/>
<polygon fill="none" stroke="#000000" points="273.5,-566.5 273.5,-591.5 401.5,-591.5 401.5,-566.5 273.5,-566.5"/>
<text text-anchor="start" x="321" y="-576.3" font-family="Times,serif" font-weight="bold" font-size="14.00" fill="#000000">name</text>
<polygon fill="#bfffff" stroke="transparent" points="401.5,-566.5 401.5,-591.5 510.5,-591.5 510.5,-566.5 401.5,-566.5"/>
<polygon fill="none" stroke="#000000" points="401.5,-566.5 401.5,-591.5 510.5,-591.5 510.5,-566.5 401.5,-566.5"/>
<text text-anchor="start" x="439" y="-575.3" font-family="Times,serif" font-size="14.00" fill="#000000">String</text>
<polygon fill="#ebffff" stroke="transparent" points="273.5,-541.5 273.5,-566.5 401.5,-566.5 401.5,-541.5 273.5,-541.5"/>
<polygon fill="none" stroke="#000000" points="273.5,-541.5 273.5,-566.5 401.5,-566.5 401.5,-541.5 273.5,-541.5"/>
<text text-anchor="start" x="312" y="-551.3" font-family="Times,serif" font-weight="bold" font-size="14.00" fill="#000000">equation</text>
<polygon fill="#ebffff" stroke="transparent" points="401.5,-541.5 401.5,-566.5 510.5,-566.5 510.5,-541.5 401.5,-541.5"/>
<polygon fill="none" stroke="#000000" points="401.5,-541.5 401.5,-566.5 510.5,-566.5 510.5,-541.5 401.5,-541.5"/>
<text text-anchor="start" x="407.5" y="-550.3" font-family="Times,serif" font-size="14.00" fill="#000000">ReactionEquation</text>
<polygon fill="#bfffff" stroke="transparent" points="273.5,-516.5 273.5,-541.5 401.5,-541.5 401.5,-516.5 273.5,-516.5"/>
<polygon fill="none" stroke="#000000" points="273.5,-516.5 273.5,-541.5 401.5,-541.5 401.5,-516.5 273.5,-516.5"/>
<text text-anchor="start" x="308.5" y="-526.3" font-family="Times,serif" font-weight="bold" font-size="14.00" fill="#000000">reversible</text>
<polygon fill="#bfffff" stroke="transparent" points="401.5,-516.5 401.5,-541.5 510.5,-541.5 510.5,-516.5 401.5,-516.5"/>
<polygon fill="none" stroke="#000000" points="401.5,-516.5 401.5,-541.5 510.5,-541.5 510.5,-516.5 401.5,-516.5"/>
<text text-anchor="start" x="433" y="-525.3" font-family="Times,serif" font-size="14.00" fill="#000000">Boolean</text>
<polygon fill="#ebffff" stroke="transparent" points="273.5,-491.5 273.5,-516.5 401.5,-516.5 401.5,-491.5 273.5,-491.5"/>
<polygon fill="none" stroke="#000000" points="273.5,-491.5 273.5,-516.5 401.5,-516.5 401.5,-491.5 273.5,-491.5"/>
<text text-anchor="start" x="307" y="-501.3" font-family="Times,serif" font-weight="bold" font-size="14.00" fill="#000000">subsystem</text>
<polygon fill="#ebffff" stroke="transparent" points="401.5,-491.5 401.5,-516.5 510.5,-516.5 510.5,-491.5 401.5,-491.5"/>
<polygon fill="none" stroke="#000000" points="401.5,-491.5 401.5,-516.5 510.5,-516.5 510.5,-491.5 401.5,-491.5"/>
<text text-anchor="start" x="439" y="-500.3" font-family="Times,serif" font-size="14.00" fill="#000000">String</text>
<polygon fill="#bfffff" stroke="transparent" points="273.5,-466.5 273.5,-491.5 401.5,-491.5 401.5,-466.5 273.5,-466.5"/>
<polygon fill="none" stroke="#000000" points="273.5,-466.5 273.5,-491.5 401.5,-491.5 401.5,-466.5 273.5,-466.5"/>
<text text-anchor="start" x="304.5" y="-476.3" font-family="Times,serif" font-weight="bold" font-size="14.00" fill="#000000">ec_number</text>
<polygon fill="#bfffff" stroke="transparent" points="401.5,-466.5 401.5,-491.5 510.5,-491.5 510.5,-466.5 401.5,-466.5"/>
<polygon fill="none" stroke="#000000" points="401.5,-466.5 401.5,-491.5 510.5,-491.5 510.5,-466.5 401.5,-466.5"/>
<text text-anchor="start" x="438.5" y="-475.3" font-family="Times,serif" font-size="14.00" fill="#000000">Regex</text>
<polygon fill="#ebffff" stroke="transparent" points="273.5,-441.5 273.5,-466.5 401.5,-466.5 401.5,-441.5 273.5,-441.5"/>
<polygon fill="none" stroke="#000000" points="273.5,-441.5 273.5,-466.5 401.5,-466.5 401.5,-441.5 273.5,-441.5"/>
<text text-anchor="start" x="309" y="-451.3" font-family="Times,serif" font-weight="bold" font-size="14.00" fill="#000000">gene_rule</text>
<polygon fill="#ebffff" stroke="transparent" points="401.5,-441.5 401.5,-466.5 510.5,-466.5 510.5,-441.5 401.5,-441.5"/>
<polygon fill="none" stroke="#000000" points="401.5,-441.5 401.5,-466.5 510.5,-466.5 510.5,-441.5 401.5,-441.5"/>
<text text-anchor="start" x="439" y="-450.3" font-family="Times,serif" font-size="14.00" fill="#000000">String</text>
<polygon fill="#bfffff" stroke="transparent" points="273.5,-416.5 273.5,-441.5 401.5,-441.5 401.5,-416.5 273.5,-416.5"/>
<polygon fill="none" stroke="#000000" points="273.5,-416.5 273.5,-441.5 401.5,-441.5 401.5,-416.5 273.5,-416.5"/>
<text text-anchor="start" x="321.5" y="-426.3" font-family="Times,serif" font-weight="bold" font-size="14.00" fill="#000000">k_ms</text>
<polygon fill="#bfffff" stroke="transparent" points="401.5,-416.5 401.5,-441.5 510.5,-441.5 510.5,-416.5 401.5,-416.5"/>
<polygon fill="none" stroke="#000000" points="401.5,-416.5 401.5,-441.5 510.5,-441.5 510.5,-416.5 401.5,-416.5"/>
<text text-anchor="start" x="414" y="-426.3" font-family="Times,serif" font-style="italic" font-size="14.00" fill="#000000">list of </text>
<text text-anchor="start" x="449" y="-426.3" font-family="Times,serif" font-size="14.00" fill="#000000"> Kinetics</text>
<polygon fill="#ebffff" stroke="transparent" points="273.5,-391.5 273.5,-416.5 401.5,-416.5 401.5,-391.5 273.5,-391.5"/>
<polygon fill="none" stroke="#000000" points="273.5,-391.5 273.5,-416.5 401.5,-416.5 401.5,-391.5 273.5,-391.5"/>
<text text-anchor="start" x="319" y="-401.3" font-family="Times,serif" font-weight="bold" font-size="14.00" fill="#000000">k_cats</text>
<polygon fill="#ebffff" stroke="transparent" points="401.5,-391.5 401.5,-416.5 510.5,-416.5 510.5,-391.5 401.5,-391.5"/>
<polygon fill="none" stroke="#000000" points="401.5,-391.5 401.5,-416.5 510.5,-416.5 510.5,-391.5 401.5,-391.5"/>
<text text-anchor="start" x="414" y="-401.3" font-family="Times,serif" font-style="italic" font-size="14.00" fill="#000000">list of </text>
<text text-anchor="start" x="449" y="-401.3" font-family="Times,serif" font-size="14.00" fill="#000000"> Kinetics</text>
<polygon fill="#bfffff" stroke="transparent" points="273.5,-366.5 273.5,-391.5 401.5,-391.5 401.5,-366.5 273.5,-366.5"/>
<polygon fill="none" stroke="#000000" points="273.5,-366.5 273.5,-391.5 401.5,-391.5 401.5,-366.5 273.5,-366.5"/>
<text text-anchor="start" x="302.5" y="-376.3" font-family="Times,serif" font-weight="bold" font-size="14.00" fill="#000000">k_cat_k_ms</text>
<polygon fill="#bfffff" stroke="transparent" points="401.5,-366.5 401.5,-391.5 510.5,-391.5 510.5,-366.5 401.5,-366.5"/>
<polygon fill="none" stroke="#000000" points="401.5,-366.5 401.5,-391.5 510.5,-391.5 510.5,-366.5 401.5,-366.5"/>
<text text-anchor="start" x="414" y="-376.3" font-family="Times,serif" font-style="italic" font-size="14.00" fill="#000000">list of </text>
<text text-anchor="start" x="449" y="-376.3" font-family="Times,serif" font-size="14.00" fill="#000000"> Kinetics</text>
<polygon fill="#ebffff" stroke="transparent" points="273.5,-341.5 273.5,-366.5 401.5,-366.5 401.5,-341.5 273.5,-341.5"/>
<polygon fill="none" stroke="#000000" points="273.5,-341.5 273.5,-366.5 401.5,-366.5 401.5,-341.5 273.5,-341.5"/>
<text text-anchor="start" x="325.5" y="-351.3" font-family="Times,serif" font-weight="bold" font-size="14.00" fill="#000000">k_is</text>
<polygon fill="#ebffff" stroke="transparent" points="401.5,-341.5 401.5,-366.5 510.5,-366.5 510.5,-341.5 401.5,-341.5"/>
<polygon fill="none" stroke="#000000" points="401.5,-341.5 401.5,-366.5 510.5,-366.5 510.5,-341.5 401.5,-341.5"/>
<text text-anchor="start" x="414" y="-351.3" font-family="Times,serif" font-style="italic" font-size="14.00" fill="#000000">list of </text>
<text text-anchor="start" x="449" y="-351.3" font-family="Times,serif" font-size="14.00" fill="#000000"> Kinetics</text>
<polygon fill="#bfffff" stroke="transparent" points="273.5,-316.5 273.5,-341.5 401.5,-341.5 401.5,-316.5 273.5,-316.5"/>
<polygon fill="none" stroke="#000000" points="273.5,-316.5 273.5,-341.5 401.5,-341.5 401.5,-316.5 273.5,-316.5"/>
<text text-anchor="start" x="278.5" y="-326.3" font-family="Times,serif" font-weight="bold" font-size="14.00" fill="#000000">coupled_to_biomass</text>
<polygon fill="#bfffff" stroke="transparent" points="401.5,-316.5 401.5,-341.5 510.5,-341.5 510.5,-316.5 401.5,-316.5"/>
<polygon fill="none" stroke="#000000" points="401.5,-316.5 401.5,-341.5 510.5,-341.5 510.5,-316.5 401.5,-316.5"/>
<text text-anchor="start" x="433" y="-325.3" font-family="Times,serif" font-size="14.00" fill="#000000">Boolean</text>
<polygon fill="#ebffff" stroke="transparent" points="273.5,-291.5 273.5,-316.5 401.5,-316.5 401.5,-291.5 273.5,-291.5"/>
<polygon fill="none" stroke="#000000" points="273.5,-291.5 273.5,-316.5 401.5,-316.5 401.5,-291.5 273.5,-291.5"/>
<text text-anchor="start" x="305" y="-301.3" font-family="Times,serif" font-weight="bold" font-size="14.00" fill="#000000">regulations</text>
<polygon fill="#ebffff" stroke="transparent" points="401.5,-291.5 401.5,-316.5 510.5,-316.5 510.5,-291.5 401.5,-291.5"/>
<polygon fill="none" stroke="#000000" points="401.5,-291.5 401.5,-316.5 510.5,-316.5 510.5,-291.5 401.5,-291.5"/>
<text text-anchor="start" x="406.5" y="-301.3" font-family="Times,serif" font-style="italic" font-size="14.00" fill="#000000">list of </text>
<text text-anchor="start" x="441.5" y="-301.3" font-family="Times,serif" font-size="14.00" fill="#000000"> Regulation</text>
</g>
<!-- Reaction&#45;&gt;Kinetics -->
<g id="edge1" class="edge">
<title>Reaction:8&#45;&gt;Kinetics:10</title>
<path fill="none" stroke="#000000" d="M510,-428.5C548.207,-428.5 512.7057,-356.8483 536.5165,-342.8538"/>
<polygon fill="#000000" stroke="#000000" points="537.57,-346.2014 546.5,-340.5 535.9637,-339.3882 537.57,-346.2014"/>
<text text-anchor="middle" x="541.5" y="-329.3" font-family="Times,serif" font-size="14.00" fill="#000000">N</text>
<text text-anchor="middle" x="515" y="-417.3" font-family="Times,serif" font-size="14.00" fill="#000000">N</text>
</g>
<!-- Reaction&#45;&gt;Kinetics -->
<g id="edge2" class="edge">
<title>Reaction:9&#45;&gt;Kinetics:8</title>
<path fill="none" stroke="#000000" d="M510,-403.5C523.1844,-403.5 527.4815,-395.8796 536.5,-392.3076"/>
<polygon fill="#000000" stroke="#000000" points="537.2821,-395.723 546.5,-390.5 536.0369,-388.8347 537.2821,-395.723"/>
<text text-anchor="middle" x="541.5" y="-379.3" font-family="Times,serif" font-size="14.00" fill="#000000">N</text>
<text text-anchor="middle" x="515" y="-392.3" font-family="Times,serif" font-size="14.00" fill="#000000">N</text>
</g>
<!-- Reaction&#45;&gt;Kinetics -->
<g id="edge3" class="edge">
<title>Reaction:10&#45;&gt;Kinetics:7</title>
<path fill="none" stroke="#000000" d="M510,-378.5C528.9487,-378.5 525.8271,-403.3978 536.8443,-412.3454"/>
<polygon fill="#000000" stroke="#000000" points="535.9075,-415.7213 546.5,-415.5 538.0814,-409.0674 535.9075,-415.7213"/>
<text text-anchor="middle" x="541.5" y="-404.3" font-family="Times,serif" font-size="14.00" fill="#000000">N</text>
<text text-anchor="middle" x="515" y="-367.3" font-family="Times,serif" font-size="14.00" fill="#000000">N</text>
</g>
<!-- Reaction&#45;&gt;Kinetics -->
<g id="edge4" class="edge">
<title>Reaction:11&#45;&gt;Kinetics:9</title>
<path fill="none" stroke="#000000" d="M510,-353.5C523.0742,-353.5 527.5142,-360.5342 536.5412,-363.8315"/>
<polygon fill="#000000" stroke="#000000" points="536.0591,-367.2994 546.5,-365.5 537.2158,-360.3956 536.0591,-367.2994"/>
<text text-anchor="middle" x="541.5" y="-354.3" font-family="Times,serif" font-size="14.00" fill="#000000">N</text>
<text text-anchor="middle" x="515" y="-342.3" font-family="Times,serif" font-size="14.00" fill="#000000">N</text>
</g>
<!-- Reference -->
<g id="node5" class="node">
<title>Reference</title>
<polygon fill="#ff8a5b" stroke="transparent" points="34.5,-466.5 34.5,-496.5 203.5,-496.5 203.5,-466.5 34.5,-466.5"/>
<polygon fill="none" stroke="#000000" points="34.5,-466.5 34.5,-496.5 203.5,-496.5 203.5,-466.5 34.5,-466.5"/>
<text text-anchor="start" x="79.5" y="-478.1" font-family="Times,serif" font-weight="bold" font-size="18.00" fill="#000000">Reference</text>
<polygon fill="#bfffff" stroke="transparent" points="34.5,-441.5 34.5,-466.5 111.5,-466.5 111.5,-441.5 34.5,-441.5"/>
<polygon fill="none" stroke="#000000" points="34.5,-441.5 34.5,-466.5 111.5,-466.5 111.5,-441.5 34.5,-441.5"/>
<text text-anchor="start" x="67" y="-451.3" font-family="Times,serif" font-weight="bold" font-size="14.00" fill="#000000">id</text>
<polygon fill="#bfffff" stroke="transparent" points="111.5,-441.5 111.5,-466.5 203.5,-466.5 203.5,-441.5 111.5,-441.5"/>
<polygon fill="none" stroke="#000000" points="111.5,-441.5 111.5,-466.5 203.5,-466.5 203.5,-441.5 111.5,-441.5"/>
<text text-anchor="start" x="140.5" y="-450.3" font-family="Times,serif" font-size="14.00" fill="#000000">String</text>
<polygon fill="#ebffff" stroke="transparent" points="34.5,-416.5 34.5,-441.5 111.5,-441.5 111.5,-416.5 34.5,-416.5"/>
<polygon fill="none" stroke="#000000" points="34.5,-416.5 34.5,-441.5 111.5,-441.5 111.5,-416.5 34.5,-416.5"/>
<text text-anchor="start" x="61.5" y="-426.3" font-family="Times,serif" font-weight="bold" font-size="14.00" fill="#000000">title</text>
<polygon fill="#ebffff" stroke="transparent" points="111.5,-416.5 111.5,-441.5 203.5,-441.5 203.5,-416.5 111.5,-416.5"/>
<polygon fill="none" stroke="#000000" points="111.5,-416.5 111.5,-441.5 203.5,-441.5 203.5,-416.5 111.5,-416.5"/>
<text text-anchor="start" x="126.5" y="-425.3" font-family="Times,serif" font-size="14.00" fill="#000000">LongString</text>
<polygon fill="#bfffff" stroke="transparent" points="34.5,-391.5 34.5,-416.5 111.5,-416.5 111.5,-391.5 34.5,-391.5"/>
<polygon fill="none" stroke="#000000" points="34.5,-391.5 34.5,-416.5 111.5,-416.5 111.5,-391.5 34.5,-391.5"/>
<text text-anchor="start" x="50.5" y="-401.3" font-family="Times,serif" font-weight="bold" font-size="14.00" fill="#000000">authors</text>
<polygon fill="#bfffff" stroke="transparent" points="111.5,-391.5 111.5,-416.5 203.5,-416.5 203.5,-391.5 111.5,-391.5"/>
<polygon fill="none" stroke="#000000" points="111.5,-391.5 111.5,-416.5 203.5,-416.5 203.5,-391.5 111.5,-391.5"/>
<text text-anchor="start" x="126.5" y="-400.3" font-family="Times,serif" font-size="14.00" fill="#000000">LongString</text>
<polygon fill="#ebffff" stroke="transparent" points="34.5,-366.5 34.5,-391.5 111.5,-391.5 111.5,-366.5 34.5,-366.5"/>
<polygon fill="none" stroke="#000000" points="34.5,-366.5 34.5,-391.5 111.5,-391.5 111.5,-366.5 34.5,-366.5"/>
<text text-anchor="start" x="51.5" y="-376.3" font-family="Times,serif" font-weight="bold" font-size="14.00" fill="#000000">journal</text>
<polygon fill="#ebffff" stroke="transparent" points="111.5,-366.5 111.5,-391.5 203.5,-391.5 203.5,-366.5 111.5,-366.5"/>
<polygon fill="none" stroke="#000000" points="111.5,-366.5 111.5,-391.5 203.5,-391.5 203.5,-366.5 111.5,-366.5"/>
<text text-anchor="start" x="140.5" y="-375.3" font-family="Times,serif" font-size="14.00" fill="#000000">String</text>
<polygon fill="#bfffff" stroke="transparent" points="34.5,-341.5 34.5,-366.5 111.5,-366.5 111.5,-341.5 34.5,-341.5"/>
<polygon fill="none" stroke="#000000" points="34.5,-341.5 34.5,-366.5 111.5,-366.5 111.5,-341.5 34.5,-341.5"/>
<text text-anchor="start" x="51.5" y="-351.3" font-family="Times,serif" font-weight="bold" font-size="14.00" fill="#000000">volume</text>
<polygon fill="#bfffff" stroke="transparent" points="111.5,-341.5 111.5,-366.5 203.5,-366.5 203.5,-341.5 111.5,-341.5"/>
<polygon fill="none" stroke="#000000" points="111.5,-341.5 111.5,-366.5 203.5,-366.5 203.5,-341.5 111.5,-341.5"/>
<text text-anchor="start" x="116.5" y="-350.3" font-family="Times,serif" font-size="14.00" fill="#000000">PositiveInteger</text>
<polygon fill="#ebffff" stroke="transparent" points="34.5,-316.5 34.5,-341.5 111.5,-341.5 111.5,-316.5 34.5,-316.5"/>
<polygon fill="none" stroke="#000000" points="34.5,-316.5 34.5,-341.5 111.5,-341.5 111.5,-316.5 34.5,-316.5"/>
<text text-anchor="start" x="59" y="-326.3" font-family="Times,serif" font-weight="bold" font-size="14.00" fill="#000000">issue</text>
<polygon fill="#ebffff" stroke="transparent" points="111.5,-316.5 111.5,-341.5 203.5,-341.5 203.5,-316.5 111.5,-316.5"/>
<polygon fill="none" stroke="#000000" points="111.5,-316.5 111.5,-341.5 203.5,-341.5 203.5,-316.5 111.5,-316.5"/>
<text text-anchor="start" x="116.5" y="-325.3" font-family="Times,serif" font-size="14.00" fill="#000000">PositiveInteger</text>
<polygon fill="#bfffff" stroke="transparent" points="34.5,-291.5 34.5,-316.5 111.5,-316.5 111.5,-291.5 34.5,-291.5"/>
<polygon fill="none" stroke="#000000" points="34.5,-291.5 34.5,-316.5 111.5,-316.5 111.5,-291.5 34.5,-291.5"/>
<text text-anchor="start" x="42.5" y="-301.3" font-family="Times,serif" font-weight="bold" font-size="14.00" fill="#000000">start_page</text>
<polygon fill="#bfffff" stroke="transparent" points="111.5,-291.5 111.5,-316.5 203.5,-316.5 203.5,-291.5 111.5,-291.5"/>
<polygon fill="none" stroke="#000000" points="111.5,-291.5 111.5,-316.5 203.5,-316.5 203.5,-291.5 111.5,-291.5"/>
<text text-anchor="start" x="116.5" y="-300.3" font-family="Times,serif" font-size="14.00" fill="#000000">PositiveInteger</text>
<polygon fill="#ebffff" stroke="transparent" points="34.5,-266.5 34.5,-291.5 111.5,-291.5 111.5,-266.5 34.5,-266.5"/>
<polygon fill="none" stroke="#000000" points="34.5,-266.5 34.5,-291.5 111.5,-291.5 111.5,-266.5 34.5,-266.5"/>
<text text-anchor="start" x="45.5" y="-276.3" font-family="Times,serif" font-weight="bold" font-size="14.00" fill="#000000">end_page</text>
<polygon fill="#ebffff" stroke="transparent" points="111.5,-266.5 111.5,-291.5 203.5,-291.5 203.5,-266.5 111.5,-266.5"/>
<polygon fill="none" stroke="#000000" points="111.5,-266.5 111.5,-291.5 203.5,-291.5 203.5,-266.5 111.5,-266.5"/>
<text text-anchor="start" x="116.5" y="-275.3" font-family="Times,serif" font-size="14.00" fill="#000000">PositiveInteger</text>
<polygon fill="#bfffff" stroke="transparent" points="34.5,-241.5 34.5,-266.5 111.5,-266.5 111.5,-241.5 34.5,-241.5"/>
<polygon fill="none" stroke="#000000" points="34.5,-241.5 34.5,-266.5 111.5,-266.5 111.5,-241.5 34.5,-241.5"/>
<text text-anchor="start" x="39.5" y="-251.3" font-family="Times,serif" font-weight="bold" font-size="14.00" fill="#000000">pubmed_id</text>
<polygon fill="#bfffff" stroke="transparent" points="111.5,-241.5 111.5,-266.5 203.5,-266.5 203.5,-241.5 111.5,-241.5"/>
<polygon fill="none" stroke="#000000" points="111.5,-241.5 111.5,-266.5 203.5,-266.5 203.5,-241.5 111.5,-241.5"/>
<text text-anchor="start" x="116.5" y="-250.3" font-family="Times,serif" font-size="14.00" fill="#000000">PositiveInteger</text>
</g>
<!-- Regulation -->
<g id="node6" class="node">
<title>Regulation</title>
<polygon fill="#ff8a5b" stroke="transparent" points=".5,-185.5 .5,-215.5 237.5,-215.5 237.5,-185.5 .5,-185.5"/>
<polygon fill="none" stroke="#000000" points=".5,-185.5 .5,-215.5 237.5,-215.5 237.5,-185.5 .5,-185.5"/>
<text text-anchor="start" x="76.5" y="-197.1" font-family="Times,serif" font-weight="bold" font-size="18.00" fill="#000000">Regulation</text>
<polygon fill="#bfffff" stroke="transparent" points=".5,-160.5 .5,-185.5 151.5,-185.5 151.5,-160.5 .5,-160.5"/>
<polygon fill="none" stroke="#000000" points=".5,-160.5 .5,-185.5 151.5,-185.5 151.5,-160.5 .5,-160.5"/>
<text text-anchor="start" x="52" y="-170.3" font-family="Times,serif" font-weight="bold" font-size="14.00" fill="#000000">reaction</text>
<polygon fill="#bfffff" stroke="transparent" points="151.5,-160.5 151.5,-185.5 237.5,-185.5 237.5,-160.5 151.5,-160.5"/>
<polygon fill="none" stroke="#000000" points="151.5,-160.5 151.5,-185.5 237.5,-185.5 237.5,-160.5 151.5,-160.5"/>
<text text-anchor="start" x="170" y="-169.3" font-family="Times,serif" font-size="14.00" fill="#000000">Reaction</text>
<polygon fill="#ebffff" stroke="transparent" points=".5,-135.5 .5,-160.5 151.5,-160.5 151.5,-135.5 .5,-135.5"/>
<polygon fill="none" stroke="#000000" points=".5,-135.5 .5,-160.5 151.5,-160.5 151.5,-135.5 .5,-135.5"/>
<text text-anchor="start" x="48.5" y="-145.3" font-family="Times,serif" font-weight="bold" font-size="14.00" fill="#000000">regulator</text>
<polygon fill="#ebffff" stroke="transparent" points="151.5,-135.5 151.5,-160.5 237.5,-160.5 237.5,-135.5 151.5,-135.5"/>
<polygon fill="none" stroke="#000000" points="151.5,-135.5 151.5,-160.5 237.5,-160.5 237.5,-135.5 151.5,-135.5"/>
<text text-anchor="start" x="164.5" y="-144.3" font-family="Times,serif" font-size="14.00" fill="#000000">Metabolite</text>
<polygon fill="#bfffff" stroke="transparent" points=".5,-110.5 .5,-135.5 151.5,-135.5 151.5,-110.5 .5,-110.5"/>
<polygon fill="none" stroke="#000000" points=".5,-110.5 .5,-135.5 151.5,-135.5 151.5,-110.5 .5,-110.5"/>
<text text-anchor="start" x="5.5" y="-120.3" font-family="Times,serif" font-weight="bold" font-size="14.00" fill="#000000">regulator_compartment</text>
<polygon fill="#bfffff" stroke="transparent" points="151.5,-110.5 151.5,-135.5 237.5,-135.5 237.5,-110.5 151.5,-110.5"/>
<polygon fill="none" stroke="#000000" points="151.5,-110.5 151.5,-135.5 237.5,-135.5 237.5,-110.5 151.5,-110.5"/>
<text text-anchor="start" x="156.5" y="-119.3" font-family="Times,serif" font-size="14.00" fill="#000000">Compartment</text>
<polygon fill="#ebffff" stroke="transparent" points=".5,-85.5 .5,-110.5 151.5,-110.5 151.5,-85.5 .5,-85.5"/>
<polygon fill="none" stroke="#000000" points=".5,-85.5 .5,-110.5 151.5,-110.5 151.5,-85.5 .5,-85.5"/>
<text text-anchor="start" x="63.5" y="-95.3" font-family="Times,serif" font-weight="bold" font-size="14.00" fill="#000000">type</text>
<polygon fill="#ebffff" stroke="transparent" points="151.5,-85.5 151.5,-110.5 237.5,-110.5 237.5,-85.5 151.5,-85.5"/>
<polygon fill="none" stroke="#000000" points="151.5,-85.5 151.5,-110.5 237.5,-110.5 237.5,-85.5 151.5,-85.5"/>
<text text-anchor="start" x="177.5" y="-94.3" font-family="Times,serif" font-size="14.00" fill="#000000">Enum</text>
</g>
<!-- Regulation&#45;&gt;Compartment -->
<g id="edge7" class="edge">
<title>Regulation:2&#45;&gt;Compartment:2</title>
<path fill="none" stroke="#000000" d="M237,-122.5C283.4547,-122.5 233.3026,-31.5657 264.6625,-17.3572"/>
<polygon fill="#000000" stroke="#000000" points="265.3229,-20.7944 274.5,-15.5 264.0243,-13.9159 265.3229,-20.7944"/>
<text text-anchor="middle" x="269.5" y="-4.3" font-family="Times,serif" font-size="14.00" fill="#000000">N</text>
<text text-anchor="middle" x="240.5" y="-111.3" font-family="Times,serif" font-size="14.00" fill="#000000">1</text>
</g>
<!-- Regulation&#45;&gt;Metabolite -->
<g id="edge6" class="edge">
<title>Regulation:1&#45;&gt;Metabolite:3</title>
<path fill="none" stroke="#000000" d="M237,-147.5C249.6302,-147.5 255.0819,-147.5 264.235,-147.5"/>
<polygon fill="#000000" stroke="#000000" points="264.5,-151.0001 274.5,-147.5 264.5,-144.0001 264.5,-151.0001"/>
<text text-anchor="middle" x="269.5" y="-136.3" font-family="Times,serif" font-size="14.00" fill="#000000">N</text>
<text text-anchor="middle" x="240.5" y="-136.3" font-family="Times,serif" font-size="14.00" fill="#000000">1</text>
</g>
<!-- Regulation&#45;&gt;Reaction -->
<g id="edge5" class="edge">
<title>Regulation:0&#45;&gt;Reaction:13</title>
<path fill="none" stroke="#000000" d="M237,-173.5C293.0268,-173.5 223.9481,-286.8076 263.3593,-301.8563"/>
<polygon fill="#000000" stroke="#000000" points="263.0688,-305.3548 273.5,-303.5 264.1889,-298.445 263.0688,-305.3548"/>
<text text-anchor="middle" x="268.5" y="-292.3" font-family="Times,serif" font-size="14.00" fill="#000000">N</text>
<text text-anchor="middle" x="240.5" y="-162.3" font-family="Times,serif" font-size="14.00" fill="#000000">1</text>
</g>
</g>
</svg>
