<?xml version="1.0" encoding="UTF-8" standalone="no"?>
<!DOCTYPE svg PUBLIC "-//W3C//DTD SVG 1.1//EN"
 "http://www.w3.org/Graphics/SVG/1.1/DTD/svg11.dtd">
<!-- Generated by graphviz version 2.40.1 (20161225.0304)
 -->
<!-- Title: %3 Pages: 1 -->
<svg width="403pt" height="278pt"
 viewBox="0.00 0.00 403.00 277.50" xmlns="http://www.w3.org/2000/svg" xmlns:xlink="http://www.w3.org/1999/xlink">
<g id="graph0" class="graph" transform="scale(1 1) rotate(0) translate(4 273.5)">
<title>%3</title>
<polygon fill="#ffffff" stroke="transparent" points="-4,4 -4,-273.5 399,-273.5 399,4 -4,4"/>
<!-- Child -->
<g id="node1" class="node">
<title>Child</title>
<polygon fill="#ff8a5b" stroke="transparent" points=".5,-194 .5,-224 215.5,-224 215.5,-194 .5,-194"/>
<polygon fill="none" stroke="#000000" points=".5,-194 .5,-224 215.5,-224 215.5,-194 .5,-194"/>
<text text-anchor="start" x="86.5" y="-205.6" font-family="Times,serif" font-weight="bold" font-size="18.00" fill="#000000">Child</text>
<polygon fill="#bfffff" stroke="transparent" points=".5,-169 .5,-194 131.5,-194 131.5,-169 .5,-169"/>
<polygon fill="none" stroke="#000000" points=".5,-169 .5,-194 131.5,-194 131.5,-169 .5,-169"/>
<text text-anchor="start" x="60" y="-178.8" font-family="Times,serif" font-weight="bold" font-size="14.00" fill="#000000">id</text>
<polygon fill="#bfffff" stroke="transparent" points="131.5,-169 131.5,-194 215.5,-194 215.5,-169 131.5,-169"/>
<polygon fill="none" stroke="#000000" points="131.5,-169 131.5,-194 215.5,-194 215.5,-169 131.5,-169"/>
<text text-anchor="start" x="156.5" y="-177.8" font-family="Times,serif" font-size="14.00" fill="#000000">String</text>
<polygon fill="#ebffff" stroke="transparent" points=".5,-144 .5,-169 131.5,-169 131.5,-144 .5,-144"/>
<polygon fill="none" stroke="#000000" points=".5,-144 .5,-169 131.5,-169 131.5,-144 .5,-144"/>
<text text-anchor="start" x="49.5" y="-153.8" font-family="Times,serif" font-weight="bold" font-size="14.00" fill="#000000">name</text>
<polygon fill="#ebffff" stroke="transparent" points="131.5,-144 131.5,-169 215.5,-169 215.5,-144 131.5,-144"/>
<polygon fill="none" stroke="#000000" points="131.5,-144 131.5,-169 215.5,-169 215.5,-144 131.5,-144"/>
<text text-anchor="start" x="156.5" y="-152.8" font-family="Times,serif" font-size="14.00" fill="#000000">String</text>
<polygon fill="#bfffff" stroke="transparent" points=".5,-119 .5,-144 131.5,-144 131.5,-119 .5,-119"/>
<polygon fill="none" stroke="#000000" points=".5,-119 .5,-144 131.5,-144 131.5,-119 .5,-119"/>
<text text-anchor="start" x="46" y="-128.8" font-family="Times,serif" font-weight="bold" font-size="14.00" fill="#000000">gender</text>
<polygon fill="#bfffff" stroke="transparent" points="131.5,-119 131.5,-144 215.5,-144 215.5,-119 131.5,-119"/>
<polygon fill="none" stroke="#000000" points="131.5,-119 131.5,-144 215.5,-144 215.5,-119 131.5,-119"/>
<text text-anchor="start" x="156.5" y="-127.8" font-family="Times,serif" font-size="14.00" fill="#000000">Enum</text>
<polygon fill="#ebffff" stroke="transparent" points=".5,-94 .5,-119 131.5,-119 131.5,-94 .5,-94"/>
<polygon fill="none" stroke="#000000" points=".5,-94 .5,-119 131.5,-119 131.5,-94 .5,-94"/>
<text text-anchor="start" x="44" y="-103.8" font-family="Times,serif" font-weight="bold" font-size="14.00" fill="#000000">parents</text>
<polygon fill="#ebffff" stroke="transparent" points="131.5,-94 131.5,-119 215.5,-119 215.5,-94 131.5,-94"/>
<polygon fill="none" stroke="#000000" points="131.5,-94 131.5,-119 215.5,-119 215.5,-94 131.5,-94"/>
<text text-anchor="start" x="136.5" y="-103.8" font-family="Times,serif" font-style="italic" font-size="14.00" fill="#000000">list of </text>
<text text-anchor="start" x="171.5" y="-103.8" font-family="Times,serif" font-size="14.00" fill="#000000"> Parent</text>
<polygon fill="#bfffff" stroke="transparent" points=".5,-69 .5,-94 131.5,-94 131.5,-69 .5,-69"/>
<polygon fill="none" stroke="#000000" points=".5,-69 .5,-94 131.5,-94 131.5,-69 .5,-69"/>
<text text-anchor="start" x="5.5" y="-78.8" font-family="Times,serif" font-weight="bold" font-size="14.00" fill="#000000">favorite_video_game</text>
<polygon fill="#bfffff" stroke="transparent" points="131.5,-69 131.5,-94 215.5,-94 215.5,-69 131.5,-69"/>
<polygon fill="none" stroke="#000000" points="131.5,-69 131.5,-94 215.5,-94 215.5,-69 131.5,-69"/>
<text text-anchor="start" x="156.5" y="-77.8" font-family="Times,serif" font-size="14.00" fill="#000000">Game</text>
</g>
<!-- Parent -->
<g id="node2" class="node">
<title>Parent</title>
<polygon fill="#ff8a5b" stroke="transparent" points="254,-235 254,-265 392,-265 392,-235 254,-235"/>
<polygon fill="none" stroke="#000000" points="254,-235 254,-265 392,-265 392,-235 254,-235"/>
<text text-anchor="start" x="296.5" y="-246.6" font-family="Times,serif" font-weight="bold" font-size="18.00" fill="#000000">Parent</text>
<polygon fill="#bfffff" stroke="transparent" points="254,-210 254,-235 313,-235 313,-210 254,-210"/>
<polygon fill="none" stroke="#000000" points="254,-210 254,-235 313,-235 313,-210 254,-210"/>
<text text-anchor="start" x="277.5" y="-219.8" font-family="Times,serif" font-weight="bold" font-size="14.00" fill="#000000">id</text>
<polygon fill="#bfffff" stroke="transparent" points="313,-210 313,-235 392,-235 392,-210 313,-210"/>
<polygon fill="none" stroke="#000000" points="313,-210 313,-235 392,-235 392,-210 313,-210"/>
<text text-anchor="start" x="335.5" y="-218.8" font-family="Times,serif" font-size="14.00" fill="#000000">String</text>
<polygon fill="#ebffff" stroke="transparent" points="254,-185 254,-210 313,-210 313,-185 254,-185"/>
<polygon fill="none" stroke="#000000" points="254,-185 254,-210 313,-210 313,-185 254,-185"/>
<text text-anchor="start" x="267" y="-194.8" font-family="Times,serif" font-weight="bold" font-size="14.00" fill="#000000">name</text>
<polygon fill="#ebffff" stroke="transparent" points="313,-185 313,-210 392,-210 392,-185 313,-185"/>
<polygon fill="none" stroke="#000000" points="313,-185 313,-210 392,-210 392,-185 313,-185"/>
<text text-anchor="start" x="335.5" y="-193.8" font-family="Times,serif" font-size="14.00" fill="#000000">String</text>
<polygon fill="#bfffff" stroke="transparent" points="254,-160 254,-185 313,-185 313,-160 254,-160"/>
<polygon fill="none" stroke="#000000" points="254,-160 254,-185 313,-185 313,-160 254,-160"/>
<text text-anchor="start" x="259" y="-169.8" font-family="Times,serif" font-weight="bold" font-size="14.00" fill="#000000">children</text>
<polygon fill="#bfffff" stroke="transparent" points="313,-160 313,-185 392,-185 392,-160 313,-160"/>
<polygon fill="none" stroke="#000000" points="313,-160 313,-185 392,-185 392,-160 313,-160"/>
<text text-anchor="start" x="318" y="-169.8" font-family="Times,serif" font-style="italic" font-size="14.00" fill="#000000">list of </text>
<text text-anchor="start" x="353" y="-169.8" font-family="Times,serif" font-size="14.00" fill="#000000"> Child</text>
</g>
<!-- Child&#45;&gt;Parent -->
<g id="edge1" class="edge">
<title>Child:3&#45;&gt;Parent:2</title>
<path fill="none" stroke="#000000" d="M215,-106C244.9459,-106 226.0594,-156.9834 244.1788,-169.331"/>
<polygon fill="#000000" stroke="#000000" points="243.4321,-172.7549 254,-172 245.2679,-165.9999 243.4321,-172.7549"/>
<text text-anchor="middle" x="249" y="-160.8" font-family="Times,serif" font-size="14.00" fill="#000000">N</text>
<text text-anchor="middle" x="220" y="-94.8" font-family="Times,serif" font-size="14.00" fill="#000000">N</text>
</g>
<!-- Game -->
<g id="node3" class="node">
<title>Game</title>
<polygon fill="#ff8a5b" stroke="transparent" points="251,-104 251,-134 395,-134 395,-104 251,-104"/>
<polygon fill="none" stroke="#000000" points="251,-104 251,-134 395,-134 395,-104 251,-104"/>
<text text-anchor="start" x="299.5" y="-115.6" font-family="Times,serif" font-weight="bold" font-size="18.00" fill="#000000">Game</text>
<polygon fill="#bfffff" stroke="transparent" points="251,-79 251,-104 316,-104 316,-79 251,-79"/>
<polygon fill="none" stroke="#000000" points="251,-79 251,-104 316,-104 316,-79 251,-79"/>
<text text-anchor="start" x="267" y="-88.8" font-family="Times,serif" font-weight="bold" font-size="14.00" fill="#000000">name</text>
<polygon fill="#bfffff" stroke="transparent" points="316,-79 316,-104 395,-104 395,-79 316,-79"/>
<polygon fill="none" stroke="#000000" points="316,-79 316,-104 395,-104 395,-79 316,-79"/>
<text text-anchor="start" x="338.5" y="-87.8" font-family="Times,serif" font-size="14.00" fill="#000000">String</text>
<polygon fill="#ebffff" stroke="transparent" points="251,-54 251,-79 316,-79 316,-54 251,-54"/>
<polygon fill="none" stroke="#000000" points="251,-54 251,-79 316,-79 316,-54 251,-54"/>
<text text-anchor="start" x="256" y="-63.8" font-family="Times,serif" font-weight="bold" font-size="14.00" fill="#000000">publisher</text>
<polygon fill="#ebffff" stroke="transparent" points="316,-54 316,-79 395,-79 395,-54 316,-54"/>
<polygon fill="none" stroke="#000000" points="316,-54 316,-79 395,-79 395,-54 316,-54"/>
<text text-anchor="start" x="338.5" y="-62.8" font-family="Times,serif" font-size="14.00" fill="#000000">String</text>
<polygon fill="#bfffff" stroke="transparent" points="251,-29 251,-54 316,-54 316,-29 251,-29"/>
<polygon fill="none" stroke="#000000" points="251,-29 251,-54 316,-54 316,-29 251,-29"/>
<text text-anchor="start" x="270.5" y="-38.8" font-family="Times,serif" font-weight="bold" font-size="14.00" fill="#000000">year</text>
<polygon fill="#bfffff" stroke="transparent" points="316,-29 316,-54 395,-54 395,-29 316,-29"/>
<polygon fill="none" stroke="#000000" points="316,-29 316,-54 395,-54 395,-29 316,-29"/>
<text text-anchor="start" x="336" y="-37.8" font-family="Times,serif" font-size="14.00" fill="#000000">Integer</text>
<polygon fill="#ebffff" stroke="transparent" points="251,-4 251,-29 316,-29 316,-4 251,-4"/>
<polygon fill="none" stroke="#000000" points="251,-4 251,-29 316,-29 316,-4 251,-4"/>
<text text-anchor="start" x="259" y="-13.8" font-family="Times,serif" font-weight="bold" font-size="14.00" fill="#000000">children</text>
<polygon fill="#ebffff" stroke="transparent" points="316,-4 316,-29 395,-29 395,-4 316,-4"/>
<polygon fill="none" stroke="#000000" points="316,-4 316,-29 395,-29 395,-4 316,-4"/>
<text text-anchor="start" x="321" y="-13.8" font-family="Times,serif" font-style="italic" font-size="14.00" fill="#000000">list of </text>
<text text-anchor="start" x="356" y="-13.8" font-family="Times,serif" font-size="14.00" fill="#000000"> Child</text>
</g>
<!-- Child&#45;&gt;Game -->
<g id="edge2" class="edge">
<title>Child:4&#45;&gt;Game:3</title>
<path fill="none" stroke="#000000" d="M215,-81C243.8958,-81 224.5026,-31.2344 241.3262,-18.793"/>
<polygon fill="#000000" stroke="#000000" points="242.3633,-22.1366 251,-16 240.4215,-15.4113 242.3633,-22.1366"/>
<text text-anchor="middle" x="246" y="-4.8" font-family="Times,serif" font-size="14.00" fill="#000000">N</text>
<text text-anchor="middle" x="218.5" y="-69.8" font-family="Times,serif" font-size="14.00" fill="#000000">1</text>
</g>
</g>
</svg>
