<?xml version="1.0" encoding="UTF-8" standalone="no"?>
<!DOCTYPE svg PUBLIC "-//W3C//DTD SVG 1.1//EN"
 "http://www.w3.org/Graphics/SVG/1.1/DTD/svg11.dtd">
<!-- Generated by graphviz version 2.40.1 (20161225.0304)
 -->
<!-- Title: %3 Pages: 1 -->
<svg width="552pt" height="184pt"
 viewBox="0.00 0.00 552.00 184.00" xmlns="http://www.w3.org/2000/svg" xmlns:xlink="http://www.w3.org/1999/xlink">
<g id="graph0" class="graph" transform="scale(1 1) rotate(0) translate(4 180)">
<title>%3</title>
<polygon fill="#ffffff" stroke="transparent" points="-4,4 -4,-180 548,-180 548,4 -4,4"/>
<!-- Gene -->
<g id="node1" class="node">
<title>Gene</title>
<polygon fill="#ff8a5b" stroke="transparent" points="151.5,-138.5 151.5,-168.5 330.5,-168.5 330.5,-138.5 151.5,-138.5"/>
<polygon fill="none" stroke="#000000" points="151.5,-138.5 151.5,-168.5 330.5,-168.5 330.5,-138.5 151.5,-138.5"/>
<text text-anchor="start" x="220.5" y="-150.1" font-family="Times,serif" font-weight="bold" font-size="18.00" fill="#000000">Gene</text>
<polygon fill="#bfffff" stroke="transparent" points="151.5,-113.5 151.5,-138.5 225.5,-138.5 225.5,-113.5 151.5,-113.5"/>
<polygon fill="none" stroke="#000000" points="151.5,-113.5 151.5,-138.5 225.5,-138.5 225.5,-113.5 151.5,-113.5"/>
<text text-anchor="start" x="182.5" y="-123.3" font-family="Times,serif" font-weight="bold" font-size="14.00" fill="#000000">id</text>
<polygon fill="#bfffff" stroke="transparent" points="225.5,-113.5 225.5,-138.5 330.5,-138.5 330.5,-113.5 225.5,-113.5"/>
<polygon fill="none" stroke="#000000" points="225.5,-113.5 225.5,-138.5 330.5,-138.5 330.5,-113.5 225.5,-113.5"/>
<text text-anchor="start" x="261" y="-122.3" font-family="Times,serif" font-size="14.00" fill="#000000">String</text>
<polygon fill="#ebffff" stroke="transparent" points="151.5,-88.5 151.5,-113.5 225.5,-113.5 225.5,-88.5 151.5,-88.5"/>
<polygon fill="none" stroke="#000000" points="151.5,-88.5 151.5,-113.5 225.5,-113.5 225.5,-88.5 151.5,-88.5"/>
<text text-anchor="start" x="167" y="-98.3" font-family="Times,serif" font-weight="bold" font-size="14.00" fill="#000000">symbol</text>
<polygon fill="#ebffff" stroke="transparent" points="225.5,-88.5 225.5,-113.5 330.5,-113.5 330.5,-88.5 225.5,-88.5"/>
<polygon fill="none" stroke="#000000" points="225.5,-88.5 225.5,-113.5 330.5,-113.5 330.5,-88.5 225.5,-88.5"/>
<text text-anchor="start" x="261" y="-97.3" font-family="Times,serif" font-size="14.00" fill="#000000">String</text>
<polygon fill="#bfffff" stroke="transparent" points="151.5,-63.5 151.5,-88.5 225.5,-88.5 225.5,-63.5 151.5,-63.5"/>
<polygon fill="none" stroke="#000000" points="151.5,-63.5 151.5,-88.5 225.5,-88.5 225.5,-63.5 151.5,-63.5"/>
<text text-anchor="start" x="165.5" y="-73.3" font-family="Times,serif" font-weight="bold" font-size="14.00" fill="#000000">location</text>
<polygon fill="#bfffff" stroke="transparent" points="225.5,-63.5 225.5,-88.5 330.5,-88.5 330.5,-63.5 225.5,-63.5"/>
<polygon fill="none" stroke="#000000" points="225.5,-63.5 225.5,-88.5 330.5,-88.5 330.5,-63.5 225.5,-63.5"/>
<text text-anchor="start" x="253.5" y="-72.3" font-family="Times,serif" font-size="14.00" fill="#000000">Location</text>
<polygon fill="#ebffff" stroke="transparent" points="151.5,-38.5 151.5,-63.5 225.5,-63.5 225.5,-38.5 151.5,-38.5"/>
<polygon fill="none" stroke="#000000" points="151.5,-38.5 151.5,-63.5 225.5,-63.5 225.5,-38.5 151.5,-38.5"/>
<text text-anchor="start" x="156.5" y="-48.3" font-family="Times,serif" font-weight="bold" font-size="14.00" fill="#000000">transcripts</text>
<polygon fill="#ebffff" stroke="transparent" points="225.5,-38.5 225.5,-63.5 330.5,-63.5 330.5,-38.5 225.5,-38.5"/>
<polygon fill="none" stroke="#000000" points="225.5,-38.5 225.5,-63.5 330.5,-63.5 330.5,-38.5 225.5,-38.5"/>
<text text-anchor="start" x="230.5" y="-48.3" font-family="Times,serif" font-style="italic" font-size="14.00" fill="#000000">list of </text>
<text text-anchor="start" x="265.5" y="-48.3" font-family="Times,serif" font-size="14.00" fill="#000000"> Transcript</text>
</g>
<!-- Location -->
<g id="node2" class="node">
<title>Location</title>
<polygon fill="#ff8a5b" stroke="transparent" points="366,-141.5 366,-171.5 544,-171.5 544,-141.5 366,-141.5"/>
<polygon fill="none" stroke="#000000" points="366,-141.5 366,-171.5 544,-171.5 544,-141.5 366,-141.5"/>
<text text-anchor="start" x="420.5" y="-153.1" font-family="Times,serif" font-weight="bold" font-size="18.00" fill="#000000">Location</text>
<polygon fill="#bfffff" stroke="transparent" points="366,-116.5 366,-141.5 452,-141.5 452,-116.5 366,-116.5"/>
<polygon fill="none" stroke="#000000" points="366,-116.5 366,-141.5 452,-141.5 452,-116.5 366,-116.5"/>
<text text-anchor="start" x="371" y="-126.3" font-family="Times,serif" font-weight="bold" font-size="14.00" fill="#000000">chromosome</text>
<polygon fill="#bfffff" stroke="transparent" points="452,-116.5 452,-141.5 544,-141.5 544,-116.5 452,-116.5"/>
<polygon fill="none" stroke="#000000" points="452,-116.5 452,-141.5 544,-141.5 544,-116.5 452,-116.5"/>
<text text-anchor="start" x="481" y="-125.3" font-family="Times,serif" font-size="14.00" fill="#000000">String</text>
<polygon fill="#ebffff" stroke="transparent" points="366,-91.5 366,-116.5 452,-116.5 452,-91.5 366,-91.5"/>
<polygon fill="none" stroke="#000000" points="366,-91.5 366,-116.5 452,-116.5 452,-91.5 366,-91.5"/>
<text text-anchor="start" x="377" y="-101.3" font-family="Times,serif" font-weight="bold" font-size="14.00" fill="#000000">five_prime</text>
<polygon fill="#ebffff" stroke="transparent" points="452,-91.5 452,-116.5 544,-116.5 544,-91.5 452,-91.5"/>
<polygon fill="none" stroke="#000000" points="452,-91.5 452,-116.5 544,-116.5 544,-91.5 452,-91.5"/>
<text text-anchor="start" x="457" y="-100.3" font-family="Times,serif" font-size="14.00" fill="#000000">PositiveInteger</text>
<polygon fill="#bfffff" stroke="transparent" points="366,-66.5 366,-91.5 452,-91.5 452,-66.5 366,-66.5"/>
<polygon fill="none" stroke="#000000" points="366,-66.5 366,-91.5 452,-91.5 452,-66.5 366,-66.5"/>
<text text-anchor="start" x="372.5" y="-76.3" font-family="Times,serif" font-weight="bold" font-size="14.00" fill="#000000">three_prime</text>
<polygon fill="#bfffff" stroke="transparent" points="452,-66.5 452,-91.5 544,-91.5 544,-66.5 452,-66.5"/>
<polygon fill="none" stroke="#000000" points="452,-66.5 452,-91.5 544,-91.5 544,-66.5 452,-66.5"/>
<text text-anchor="start" x="457" y="-75.3" font-family="Times,serif" font-size="14.00" fill="#000000">PositiveInteger</text>
<polygon fill="#ebffff" stroke="transparent" points="366,-41.5 366,-66.5 452,-66.5 452,-41.5 366,-41.5"/>
<polygon fill="none" stroke="#000000" points="366,-41.5 366,-66.5 452,-66.5 452,-41.5 366,-41.5"/>
<text text-anchor="start" x="393" y="-51.3" font-family="Times,serif" font-weight="bold" font-size="14.00" fill="#000000">genes</text>
<polygon fill="#ebffff" stroke="transparent" points="452,-41.5 452,-66.5 544,-66.5 544,-41.5 452,-41.5"/>
<polygon fill="none" stroke="#000000" points="452,-41.5 452,-66.5 544,-66.5 544,-41.5 452,-41.5"/>
<text text-anchor="start" x="483.5" y="-50.3" font-family="Times,serif" font-size="14.00" fill="#000000">Gene</text>
<polygon fill="#bfffff" stroke="transparent" points="366,-16.5 366,-41.5 452,-41.5 452,-16.5 366,-16.5"/>
<polygon fill="none" stroke="#000000" points="366,-16.5 366,-41.5 452,-41.5 452,-16.5 366,-16.5"/>
<text text-anchor="start" x="377" y="-26.3" font-family="Times,serif" font-weight="bold" font-size="14.00" fill="#000000">transcripts</text>
<polygon fill="#bfffff" stroke="transparent" points="452,-16.5 452,-41.5 544,-41.5 544,-16.5 452,-16.5"/>
<polygon fill="none" stroke="#000000" points="452,-16.5 452,-41.5 544,-41.5 544,-16.5 452,-16.5"/>
<text text-anchor="start" x="470" y="-25.3" font-family="Times,serif" font-size="14.00" fill="#000000">Transcript</text>
</g>
<!-- Gene&#45;&gt;Location -->
<g id="edge1" class="edge">
<title>Gene:2&#45;&gt;Location:3</title>
<path fill="none" stroke="#000000" d="M330,-75.5C344.6493,-75.5 346.937,-62.0723 356.178,-56.1976"/>
<polygon fill="#000000" stroke="#000000" points="357.2841,-59.5235 366,-53.5 355.4301,-52.7735 357.2841,-59.5235"/>
<text text-anchor="middle" x="362.5" y="-42.3" font-family="Times,serif" font-size="14.00" fill="#000000">1</text>
<text text-anchor="middle" x="333.5" y="-64.3" font-family="Times,serif" font-size="14.00" fill="#000000">1</text>
</g>
<!-- Transcript -->
<g id="node3" class="node">
<title>Transcript</title>
<polygon fill="#ff8a5b" stroke="transparent" points=".5,-78.5 .5,-108.5 115.5,-108.5 115.5,-78.5 .5,-78.5"/>
<polygon fill="none" stroke="#000000" points=".5,-78.5 .5,-108.5 115.5,-108.5 115.5,-78.5 .5,-78.5"/>
<text text-anchor="start" x="16" y="-90.1" font-family="Times,serif" font-weight="bold" font-size="18.00" fill="#000000">Transcript</text>
<polygon fill="#bfffff" stroke="transparent" points=".5,-53.5 .5,-78.5 56.5,-78.5 56.5,-53.5 .5,-53.5"/>
<polygon fill="none" stroke="#000000" points=".5,-53.5 .5,-78.5 56.5,-78.5 56.5,-53.5 .5,-53.5"/>
<text text-anchor="start" x="22.5" y="-63.3" font-family="Times,serif" font-weight="bold" font-size="14.00" fill="#000000">id</text>
<polygon fill="#bfffff" stroke="transparent" points="56.5,-53.5 56.5,-78.5 115.5,-78.5 115.5,-53.5 56.5,-53.5"/>
<polygon fill="none" stroke="#000000" points="56.5,-53.5 56.5,-78.5 115.5,-78.5 115.5,-53.5 56.5,-53.5"/>
<text text-anchor="start" x="69" y="-62.3" font-family="Times,serif" font-size="14.00" fill="#000000">String</text>
<polygon fill="#ebffff" stroke="transparent" points=".5,-28.5 .5,-53.5 56.5,-53.5 56.5,-28.5 .5,-28.5"/>
<polygon fill="none" stroke="#000000" points=".5,-28.5 .5,-53.5 56.5,-53.5 56.5,-28.5 .5,-28.5"/>
<text text-anchor="start" x="15" y="-38.3" font-family="Times,serif" font-weight="bold" font-size="14.00" fill="#000000">gene</text>
<polygon fill="#ebffff" stroke="transparent" points="56.5,-28.5 56.5,-53.5 115.5,-53.5 115.5,-28.5 56.5,-28.5"/>
<polygon fill="none" stroke="#000000" points="56.5,-28.5 56.5,-53.5 115.5,-53.5 115.5,-28.5 56.5,-28.5"/>
<text text-anchor="start" x="71.5" y="-37.3" font-family="Times,serif" font-size="14.00" fill="#000000">Gene</text>
<polygon fill="#bfffff" stroke="transparent" points=".5,-3.5 .5,-28.5 56.5,-28.5 56.5,-3.5 .5,-3.5"/>
<polygon fill="none" stroke="#000000" points=".5,-3.5 .5,-28.5 56.5,-28.5 56.5,-3.5 .5,-3.5"/>
<text text-anchor="start" x="5.5" y="-13.3" font-family="Times,serif" font-weight="bold" font-size="14.00" fill="#000000">location</text>
<polygon fill="#bfffff" stroke="transparent" points="56.5,-3.5 56.5,-28.5 115.5,-28.5 115.5,-3.5 56.5,-3.5"/>
<polygon fill="none" stroke="#000000" points="56.5,-3.5 56.5,-28.5 115.5,-28.5 115.5,-3.5 56.5,-3.5"/>
<text text-anchor="start" x="61.5" y="-12.3" font-family="Times,serif" font-size="14.00" fill="#000000">Location</text>
</g>
<!-- Transcript&#45;&gt;Gene -->
<g id="edge2" class="edge">
<title>Transcript:1&#45;&gt;Gene:3</title>
<path fill="none" stroke="#000000" d="M115,-40.5C127.7464,-40.5 132.4759,-46.2428 141.3391,-49.0245"/>
<polygon fill="#000000" stroke="#000000" points="141.1008,-52.5265 151.5,-50.5 142.1068,-45.5992 141.1008,-52.5265"/>
<text text-anchor="middle" x="146.5" y="-39.3" font-family="Times,serif" font-size="14.00" fill="#000000">N</text>
<text text-anchor="middle" x="118.5" y="-29.3" font-family="Times,serif" font-size="14.00" fill="#000000">1</text>
</g>
<!-- Transcript&#45;&gt;Location -->
<g id="edge3" class="edge">
<title>Transcript:2&#45;&gt;Location:4</title>
<path fill="none" stroke="#000000" d="M115,-15.5C210.6589,-15.5 234.542,-19.3047 330,-25.5 342.0163,-26.2799 347.227,-27.5774 355.8547,-28.1775"/>
<polygon fill="#000000" stroke="#000000" points="355.8938,-31.6804 366,-28.5 356.1163,-24.6839 355.8938,-31.6804"/>
<text text-anchor="middle" x="362.5" y="-17.3" font-family="Times,serif" font-size="14.00" fill="#000000">1</text>
<text text-anchor="middle" x="118.5" y="-4.3" font-family="Times,serif" font-size="14.00" fill="#000000">1</text>
</g>
</g>
</svg>
