<?xml version="1.0" encoding="UTF-8" standalone="no"?>
<!DOCTYPE svg PUBLIC "-//W3C//DTD SVG 1.1//EN"
 "http://www.w3.org/Graphics/SVG/1.1/DTD/svg11.dtd">
<!-- Generated by graphviz version 2.40.1 (20161225.0304)
 -->
<!-- Title: %3 Pages: 1 -->
<svg width="303pt" height="1590pt"
 viewBox="0.00 0.00 303.00 1589.50" xmlns="http://www.w3.org/2000/svg" xmlns:xlink="http://www.w3.org/1999/xlink">
<g id="graph0" class="graph" transform="scale(1 1) rotate(0) translate(4 1585.5)">
<title>%3</title>
<polygon fill="#ffffff" stroke="transparent" points="-4,4 -4,-1585.5 299,-1585.5 299,4 -4,4"/>
<!-- Compartment -->
<g id="node1" class="node">
<title>Compartment</title>
<polygon fill="#ff8a5b" stroke="transparent" points="88.5,-54 88.5,-84 207.5,-84 207.5,-54 88.5,-54"/>
<polygon fill="none" stroke="#000000" points="88.5,-54 88.5,-84 207.5,-84 207.5,-54 88.5,-54"/>
<text text-anchor="start" x="93.5" y="-65.6" font-family="Times,serif" font-weight="bold" font-size="18.00" fill="#000000">Compartment</text>
<polygon fill="#bfffff" stroke="transparent" points="88.5,-29 88.5,-54 147.5,-54 147.5,-29 88.5,-29"/>
<polygon fill="none" stroke="#000000" points="88.5,-29 88.5,-54 147.5,-54 147.5,-29 88.5,-29"/>
<text text-anchor="start" x="112" y="-38.8" font-family="Times,serif" font-weight="bold" font-size="14.00" fill="#000000">id</text>
<polygon fill="#bfffff" stroke="transparent" points="147.5,-29 147.5,-54 207.5,-54 207.5,-29 147.5,-29"/>
<polygon fill="none" stroke="#000000" points="147.5,-29 147.5,-54 207.5,-54 207.5,-29 147.5,-29"/>
<text text-anchor="start" x="160.5" y="-37.8" font-family="Times,serif" font-size="14.00" fill="#000000">String</text>
<polygon fill="#ebffff" stroke="transparent" points="88.5,-4 88.5,-29 147.5,-29 147.5,-4 88.5,-4"/>
<polygon fill="none" stroke="#000000" points="88.5,-4 88.5,-29 147.5,-29 147.5,-4 88.5,-4"/>
<text text-anchor="start" x="101.5" y="-13.8" font-family="Times,serif" font-weight="bold" font-size="14.00" fill="#000000">name</text>
<polygon fill="#ebffff" stroke="transparent" points="147.5,-4 147.5,-29 207.5,-29 207.5,-4 147.5,-4"/>
<polygon fill="none" stroke="#000000" points="147.5,-4 147.5,-29 207.5,-29 207.5,-4 147.5,-4"/>
<text text-anchor="start" x="160.5" y="-12.8" font-family="Times,serif" font-size="14.00" fill="#000000">String</text>
</g>
<!-- Metabolite -->
<g id="node2" class="node">
<title>Metabolite</title>
<polygon fill="#ff8a5b" stroke="transparent" points="63.5,-185 63.5,-215 231.5,-215 231.5,-185 63.5,-185"/>
<polygon fill="none" stroke="#000000" points="63.5,-185 63.5,-215 231.5,-215 231.5,-185 63.5,-185"/>
<text text-anchor="start" x="105" y="-196.6" font-family="Times,serif" font-weight="bold" font-size="18.00" fill="#000000">Metabolite</text>
<polygon fill="#bfffff" stroke="transparent" points="63.5,-160 63.5,-185 121.5,-185 121.5,-160 63.5,-160"/>
<polygon fill="none" stroke="#000000" points="63.5,-160 63.5,-185 121.5,-185 121.5,-160 63.5,-160"/>
<text text-anchor="start" x="86.5" y="-169.8" font-family="Times,serif" font-weight="bold" font-size="14.00" fill="#000000">id</text>
<polygon fill="#bfffff" stroke="transparent" points="121.5,-160 121.5,-185 231.5,-185 231.5,-160 121.5,-160"/>
<polygon fill="none" stroke="#000000" points="121.5,-160 121.5,-185 231.5,-185 231.5,-160 121.5,-160"/>
<text text-anchor="start" x="159.5" y="-168.8" font-family="Times,serif" font-size="14.00" fill="#000000">String</text>
<polygon fill="#ebffff" stroke="transparent" points="63.5,-135 63.5,-160 121.5,-160 121.5,-135 63.5,-135"/>
<polygon fill="none" stroke="#000000" points="63.5,-135 63.5,-160 121.5,-160 121.5,-135 63.5,-135"/>
<text text-anchor="start" x="76" y="-144.8" font-family="Times,serif" font-weight="bold" font-size="14.00" fill="#000000">name</text>
<polygon fill="#ebffff" stroke="transparent" points="121.5,-135 121.5,-160 231.5,-160 231.5,-135 121.5,-135"/>
<polygon fill="none" stroke="#000000" points="121.5,-135 121.5,-160 231.5,-160 231.5,-135 121.5,-135"/>
<text text-anchor="start" x="159.5" y="-143.8" font-family="Times,serif" font-size="14.00" fill="#000000">String</text>
<polygon fill="#bfffff" stroke="transparent" points="63.5,-110 63.5,-135 121.5,-135 121.5,-110 63.5,-110"/>
<polygon fill="none" stroke="#000000" points="63.5,-110 63.5,-135 121.5,-135 121.5,-110 63.5,-110"/>
<text text-anchor="start" x="68.5" y="-119.8" font-family="Times,serif" font-weight="bold" font-size="14.00" fill="#000000">formula</text>
<polygon fill="#bfffff" stroke="transparent" points="121.5,-110 121.5,-135 231.5,-135 231.5,-110 121.5,-110"/>
<polygon fill="none" stroke="#000000" points="121.5,-110 121.5,-135 231.5,-135 231.5,-110 121.5,-110"/>
<text text-anchor="start" x="126.5" y="-118.8" font-family="Times,serif" font-size="14.00" fill="#000000">ChemicalFormula</text>
</g>
<!-- Reaction -->
<g id="node3" class="node">
<title>Reaction</title>
<polygon fill="#ff8a5b" stroke="transparent" points=".5,-1266 .5,-1296 295.5,-1296 295.5,-1266 .5,-1266"/>
<polygon fill="none" stroke="#000000" points=".5,-1266 .5,-1296 295.5,-1296 295.5,-1266 .5,-1266"/>
<text text-anchor="start" x="113.5" y="-1277.6" font-family="Times,serif" font-weight="bold" font-size="18.00" fill="#000000">Reaction</text>
<polygon fill="#bfffff" stroke="transparent" points=".5,-1241 .5,-1266 188.5,-1266 188.5,-1241 .5,-1241"/>
<polygon fill="none" stroke="#000000" points=".5,-1241 .5,-1266 188.5,-1266 188.5,-1241 .5,-1241"/>
<text text-anchor="start" x="88.5" y="-1250.8" font-family="Times,serif" font-weight="bold" font-size="14.00" fill="#000000">id</text>
<polygon fill="#bfffff" stroke="transparent" points="188.5,-1241 188.5,-1266 295.5,-1266 295.5,-1241 188.5,-1241"/>
<polygon fill="none" stroke="#000000" points="188.5,-1241 188.5,-1266 295.5,-1266 295.5,-1241 188.5,-1241"/>
<text text-anchor="start" x="225" y="-1249.8" font-family="Times,serif" font-size="14.00" fill="#000000">String</text>
<polygon fill="#ebffff" stroke="transparent" points=".5,-1216 .5,-1241 188.5,-1241 188.5,-1216 .5,-1216"/>
<polygon fill="none" stroke="#000000" points=".5,-1216 .5,-1241 188.5,-1241 188.5,-1216 .5,-1216"/>
<text text-anchor="start" x="57.5" y="-1225.8" font-family="Times,serif" font-weight="bold" font-size="14.00" fill="#000000">id_i_a_f1260</text>
<polygon fill="#ebffff" stroke="transparent" points="188.5,-1216 188.5,-1241 295.5,-1241 295.5,-1216 188.5,-1216"/>
<polygon fill="none" stroke="#000000" points="188.5,-1216 188.5,-1241 295.5,-1241 295.5,-1216 188.5,-1216"/>
<text text-anchor="start" x="225" y="-1224.8" font-family="Times,serif" font-size="14.00" fill="#000000">String</text>
<polygon fill="#bfffff" stroke="transparent" points=".5,-1191 .5,-1216 188.5,-1216 188.5,-1191 .5,-1191"/>
<polygon fill="none" stroke="#000000" points=".5,-1191 .5,-1216 188.5,-1216 188.5,-1191 .5,-1191"/>
<text text-anchor="start" x="78" y="-1200.8" font-family="Times,serif" font-weight="bold" font-size="14.00" fill="#000000">name</text>
<polygon fill="#bfffff" stroke="transparent" points="188.5,-1191 188.5,-1216 295.5,-1216 295.5,-1191 188.5,-1191"/>
<polygon fill="none" stroke="#000000" points="188.5,-1191 188.5,-1216 295.5,-1216 295.5,-1191 188.5,-1191"/>
<text text-anchor="start" x="225" y="-1199.8" font-family="Times,serif" font-size="14.00" fill="#000000">String</text>
<polygon fill="#ebffff" stroke="transparent" points=".5,-1166 .5,-1191 188.5,-1191 188.5,-1166 .5,-1166"/>
<polygon fill="none" stroke="#000000" points=".5,-1166 .5,-1191 188.5,-1191 188.5,-1166 .5,-1166"/>
<text text-anchor="start" x="69" y="-1175.8" font-family="Times,serif" font-weight="bold" font-size="14.00" fill="#000000">equation</text>
<polygon fill="#ebffff" stroke="transparent" points="188.5,-1166 188.5,-1191 295.5,-1191 295.5,-1166 188.5,-1166"/>
<polygon fill="none" stroke="#000000" points="188.5,-1166 188.5,-1191 295.5,-1191 295.5,-1166 188.5,-1166"/>
<text text-anchor="start" x="193.5" y="-1174.8" font-family="Times,serif" font-size="14.00" fill="#000000">ReactionEquation</text>
<polygon fill="#bfffff" stroke="transparent" points=".5,-1141 .5,-1166 188.5,-1166 188.5,-1141 .5,-1141"/>
<polygon fill="none" stroke="#000000" points=".5,-1141 .5,-1166 188.5,-1166 188.5,-1141 .5,-1141"/>
<text text-anchor="start" x="65.5" y="-1150.8" font-family="Times,serif" font-weight="bold" font-size="14.00" fill="#000000">reversible</text>
<polygon fill="#bfffff" stroke="transparent" points="188.5,-1141 188.5,-1166 295.5,-1166 295.5,-1141 188.5,-1141"/>
<polygon fill="none" stroke="#000000" points="188.5,-1141 188.5,-1166 295.5,-1166 295.5,-1141 188.5,-1141"/>
<text text-anchor="start" x="219" y="-1149.8" font-family="Times,serif" font-size="14.00" fill="#000000">Boolean</text>
<polygon fill="#ebffff" stroke="transparent" points=".5,-1116 .5,-1141 188.5,-1141 188.5,-1116 .5,-1116"/>
<polygon fill="none" stroke="#000000" points=".5,-1116 .5,-1141 188.5,-1141 188.5,-1116 .5,-1116"/>
<text text-anchor="start" x="64" y="-1125.8" font-family="Times,serif" font-weight="bold" font-size="14.00" fill="#000000">subsystem</text>
<polygon fill="#ebffff" stroke="transparent" points="188.5,-1116 188.5,-1141 295.5,-1141 295.5,-1116 188.5,-1116"/>
<polygon fill="none" stroke="#000000" points="188.5,-1116 188.5,-1141 295.5,-1141 295.5,-1116 188.5,-1116"/>
<text text-anchor="start" x="225" y="-1124.8" font-family="Times,serif" font-size="14.00" fill="#000000">String</text>
<polygon fill="#bfffff" stroke="transparent" points=".5,-1091 .5,-1116 188.5,-1116 188.5,-1091 .5,-1091"/>
<polygon fill="none" stroke="#000000" points=".5,-1091 .5,-1116 188.5,-1116 188.5,-1091 .5,-1091"/>
<text text-anchor="start" x="61.5" y="-1100.8" font-family="Times,serif" font-weight="bold" font-size="14.00" fill="#000000">ec_number</text>
<polygon fill="#bfffff" stroke="transparent" points="188.5,-1091 188.5,-1116 295.5,-1116 295.5,-1091 188.5,-1091"/>
<polygon fill="none" stroke="#000000" points="188.5,-1091 188.5,-1116 295.5,-1116 295.5,-1091 188.5,-1091"/>
<text text-anchor="start" x="224.5" y="-1099.8" font-family="Times,serif" font-size="14.00" fill="#000000">Regex</text>
<polygon fill="#ebffff" stroke="transparent" points=".5,-1066 .5,-1091 188.5,-1091 188.5,-1066 .5,-1066"/>
<polygon fill="none" stroke="#000000" points=".5,-1066 .5,-1091 188.5,-1091 188.5,-1066 .5,-1066"/>
<text text-anchor="start" x="56.5" y="-1075.8" font-family="Times,serif" font-weight="bold" font-size="14.00" fill="#000000">lower_bound</text>
<polygon fill="#ebffff" stroke="transparent" points="188.5,-1066 188.5,-1091 295.5,-1091 295.5,-1066 188.5,-1066"/>
<polygon fill="none" stroke="#000000" points="188.5,-1066 188.5,-1091 295.5,-1091 295.5,-1066 188.5,-1066"/>
<text text-anchor="start" x="228" y="-1074.8" font-family="Times,serif" font-size="14.00" fill="#000000">Float</text>
<polygon fill="#bfffff" stroke="transparent" points=".5,-1041 .5,-1066 188.5,-1066 188.5,-1041 .5,-1041"/>
<polygon fill="none" stroke="#000000" points=".5,-1041 .5,-1066 188.5,-1066 188.5,-1041 .5,-1041"/>
<text text-anchor="start" x="55" y="-1050.8" font-family="Times,serif" font-weight="bold" font-size="14.00" fill="#000000">upper_bound</text>
<polygon fill="#bfffff" stroke="transparent" points="188.5,-1041 188.5,-1066 295.5,-1066 295.5,-1041 188.5,-1041"/>
<polygon fill="none" stroke="#000000" points="188.5,-1041 188.5,-1066 295.5,-1066 295.5,-1041 188.5,-1041"/>
<text text-anchor="start" x="228" y="-1049.8" font-family="Times,serif" font-size="14.00" fill="#000000">Float</text>
<polygon fill="#ebffff" stroke="transparent" points=".5,-1016 .5,-1041 188.5,-1041 188.5,-1016 .5,-1016"/>
<polygon fill="none" stroke="#000000" points=".5,-1016 .5,-1041 188.5,-1041 188.5,-1016 .5,-1016"/>
<text text-anchor="start" x="59.5" y="-1025.8" font-family="Times,serif" font-weight="bold" font-size="14.00" fill="#000000">flux_acetate</text>
<polygon fill="#ebffff" stroke="transparent" points="188.5,-1016 188.5,-1041 295.5,-1041 295.5,-1016 188.5,-1016"/>
<polygon fill="none" stroke="#000000" points="188.5,-1016 188.5,-1041 295.5,-1041 295.5,-1016 188.5,-1016"/>
<text text-anchor="start" x="228" y="-1024.8" font-family="Times,serif" font-size="14.00" fill="#000000">Float</text>
<polygon fill="#bfffff" stroke="transparent" points=".5,-991 .5,-1016 188.5,-1016 188.5,-991 .5,-991"/>
<polygon fill="none" stroke="#000000" points=".5,-991 .5,-1016 188.5,-1016 188.5,-991 .5,-991"/>
<text text-anchor="start" x="22.5" y="-1000.8" font-family="Times,serif" font-weight="bold" font-size="14.00" fill="#000000">flux_acetate_uncertainty</text>
<polygon fill="#bfffff" stroke="transparent" points="188.5,-991 188.5,-1016 295.5,-1016 295.5,-991 188.5,-991"/>
<polygon fill="none" stroke="#000000" points="188.5,-991 188.5,-1016 295.5,-1016 295.5,-991 188.5,-991"/>
<text text-anchor="start" x="228" y="-999.8" font-family="Times,serif" font-size="14.00" fill="#000000">Float</text>
<polygon fill="#ebffff" stroke="transparent" points=".5,-966 .5,-991 188.5,-991 188.5,-966 .5,-966"/>
<polygon fill="none" stroke="#000000" points=".5,-966 .5,-991 188.5,-991 188.5,-966 .5,-966"/>
<text text-anchor="start" x="56.5" y="-975.8" font-family="Times,serif" font-weight="bold" font-size="14.00" fill="#000000">flux_fructose</text>
<polygon fill="#ebffff" stroke="transparent" points="188.5,-966 188.5,-991 295.5,-991 295.5,-966 188.5,-966"/>
<polygon fill="none" stroke="#000000" points="188.5,-966 188.5,-991 295.5,-991 295.5,-966 188.5,-966"/>
<text text-anchor="start" x="228" y="-974.8" font-family="Times,serif" font-size="14.00" fill="#000000">Float</text>
<polygon fill="#bfffff" stroke="transparent" points=".5,-941 .5,-966 188.5,-966 188.5,-941 .5,-941"/>
<polygon fill="none" stroke="#000000" points=".5,-941 .5,-966 188.5,-966 188.5,-941 .5,-941"/>
<text text-anchor="start" x="19.5" y="-950.8" font-family="Times,serif" font-weight="bold" font-size="14.00" fill="#000000">flux_fructose_uncertainty</text>
<polygon fill="#bfffff" stroke="transparent" points="188.5,-941 188.5,-966 295.5,-966 295.5,-941 188.5,-941"/>
<polygon fill="none" stroke="#000000" points="188.5,-941 188.5,-966 295.5,-966 295.5,-941 188.5,-941"/>
<text text-anchor="start" x="228" y="-949.8" font-family="Times,serif" font-size="14.00" fill="#000000">Float</text>
<polygon fill="#ebffff" stroke="transparent" points=".5,-916 .5,-941 188.5,-941 188.5,-916 .5,-916"/>
<polygon fill="none" stroke="#000000" points=".5,-916 .5,-941 188.5,-941 188.5,-916 .5,-916"/>
<text text-anchor="start" x="53.5" y="-925.8" font-family="Times,serif" font-weight="bold" font-size="14.00" fill="#000000">flux_galactose</text>
<polygon fill="#ebffff" stroke="transparent" points="188.5,-916 188.5,-941 295.5,-941 295.5,-916 188.5,-916"/>
<polygon fill="none" stroke="#000000" points="188.5,-916 188.5,-941 295.5,-941 295.5,-916 188.5,-916"/>
<text text-anchor="start" x="228" y="-924.8" font-family="Times,serif" font-size="14.00" fill="#000000">Float</text>
<polygon fill="#bfffff" stroke="transparent" points=".5,-891 .5,-916 188.5,-916 188.5,-891 .5,-891"/>
<polygon fill="none" stroke="#000000" points=".5,-891 .5,-916 188.5,-916 188.5,-891 .5,-891"/>
<text text-anchor="start" x="16.5" y="-900.8" font-family="Times,serif" font-weight="bold" font-size="14.00" fill="#000000">flux_galactose_uncertainty</text>
<polygon fill="#bfffff" stroke="transparent" points="188.5,-891 188.5,-916 295.5,-916 295.5,-891 188.5,-891"/>
<polygon fill="none" stroke="#000000" points="188.5,-891 188.5,-916 295.5,-916 295.5,-891 188.5,-891"/>
<text text-anchor="start" x="228" y="-899.8" font-family="Times,serif" font-size="14.00" fill="#000000">Float</text>
<polygon fill="#ebffff" stroke="transparent" points=".5,-866 .5,-891 188.5,-891 188.5,-866 .5,-866"/>
<polygon fill="none" stroke="#000000" points=".5,-866 .5,-891 188.5,-891 188.5,-866 .5,-866"/>
<text text-anchor="start" x="58.5" y="-875.8" font-family="Times,serif" font-weight="bold" font-size="14.00" fill="#000000">flux_glucose</text>
<polygon fill="#ebffff" stroke="transparent" points="188.5,-866 188.5,-891 295.5,-891 295.5,-866 188.5,-866"/>
<polygon fill="none" stroke="#000000" points="188.5,-866 188.5,-891 295.5,-891 295.5,-866 188.5,-866"/>
<text text-anchor="start" x="228" y="-874.8" font-family="Times,serif" font-size="14.00" fill="#000000">Float</text>
<polygon fill="#bfffff" stroke="transparent" points=".5,-841 .5,-866 188.5,-866 188.5,-841 .5,-841"/>
<polygon fill="none" stroke="#000000" points=".5,-841 .5,-866 188.5,-866 188.5,-841 .5,-841"/>
<text text-anchor="start" x="22" y="-850.8" font-family="Times,serif" font-weight="bold" font-size="14.00" fill="#000000">flux_glucose_uncertainty</text>
<polygon fill="#bfffff" stroke="transparent" points="188.5,-841 188.5,-866 295.5,-866 295.5,-841 188.5,-841"/>
<polygon fill="none" stroke="#000000" points="188.5,-841 188.5,-866 295.5,-866 295.5,-841 188.5,-841"/>
<text text-anchor="start" x="228" y="-849.8" font-family="Times,serif" font-size="14.00" fill="#000000">Float</text>
<polygon fill="#ebffff" stroke="transparent" points=".5,-816 .5,-841 188.5,-841 188.5,-816 .5,-816"/>
<polygon fill="none" stroke="#000000" points=".5,-816 .5,-841 188.5,-841 188.5,-816 .5,-816"/>
<text text-anchor="start" x="56.5" y="-825.8" font-family="Times,serif" font-weight="bold" font-size="14.00" fill="#000000">flux_glycerol</text>
<polygon fill="#ebffff" stroke="transparent" points="188.5,-816 188.5,-841 295.5,-841 295.5,-816 188.5,-816"/>
<polygon fill="none" stroke="#000000" points="188.5,-816 188.5,-841 295.5,-841 295.5,-816 188.5,-816"/>
<text text-anchor="start" x="228" y="-824.8" font-family="Times,serif" font-size="14.00" fill="#000000">Float</text>
<polygon fill="#bfffff" stroke="transparent" points=".5,-791 .5,-816 188.5,-816 188.5,-791 .5,-791"/>
<polygon fill="none" stroke="#000000" points=".5,-791 .5,-816 188.5,-816 188.5,-791 .5,-791"/>
<text text-anchor="start" x="20" y="-800.8" font-family="Times,serif" font-weight="bold" font-size="14.00" fill="#000000">flux_glycerol_uncertainty</text>
<polygon fill="#bfffff" stroke="transparent" points="188.5,-791 188.5,-816 295.5,-816 295.5,-791 188.5,-791"/>
<polygon fill="none" stroke="#000000" points="188.5,-791 188.5,-816 295.5,-816 295.5,-791 188.5,-791"/>
<text text-anchor="start" x="228" y="-799.8" font-family="Times,serif" font-size="14.00" fill="#000000">Float</text>
<polygon fill="#ebffff" stroke="transparent" points=".5,-766 .5,-791 188.5,-791 188.5,-766 .5,-766"/>
<polygon fill="none" stroke="#000000" points=".5,-766 .5,-791 188.5,-791 188.5,-766 .5,-766"/>
<text text-anchor="start" x="52" y="-775.8" font-family="Times,serif" font-weight="bold" font-size="14.00" fill="#000000">flux_gluconate</text>
<polygon fill="#ebffff" stroke="transparent" points="188.5,-766 188.5,-791 295.5,-791 295.5,-766 188.5,-766"/>
<polygon fill="none" stroke="#000000" points="188.5,-766 188.5,-791 295.5,-791 295.5,-766 188.5,-766"/>
<text text-anchor="start" x="228" y="-774.8" font-family="Times,serif" font-size="14.00" fill="#000000">Float</text>
<polygon fill="#bfffff" stroke="transparent" points=".5,-741 .5,-766 188.5,-766 188.5,-741 .5,-741"/>
<polygon fill="none" stroke="#000000" points=".5,-741 .5,-766 188.5,-766 188.5,-741 .5,-741"/>
<text text-anchor="start" x="15" y="-750.8" font-family="Times,serif" font-weight="bold" font-size="14.00" fill="#000000">flux_gluconate_uncertainty</text>
<polygon fill="#bfffff" stroke="transparent" points="188.5,-741 188.5,-766 295.5,-766 295.5,-741 188.5,-741"/>
<polygon fill="none" stroke="#000000" points="188.5,-741 188.5,-766 295.5,-766 295.5,-741 188.5,-741"/>
<text text-anchor="start" x="228" y="-749.8" font-family="Times,serif" font-size="14.00" fill="#000000">Float</text>
<polygon fill="#ebffff" stroke="transparent" points=".5,-716 .5,-741 188.5,-741 188.5,-716 .5,-716"/>
<polygon fill="none" stroke="#000000" points=".5,-716 .5,-741 188.5,-741 188.5,-716 .5,-716"/>
<text text-anchor="start" x="53.5" y="-725.8" font-family="Times,serif" font-weight="bold" font-size="14.00" fill="#000000">flux_pyruvate</text>
<polygon fill="#ebffff" stroke="transparent" points="188.5,-716 188.5,-741 295.5,-741 295.5,-716 188.5,-716"/>
<polygon fill="none" stroke="#000000" points="188.5,-716 188.5,-741 295.5,-741 295.5,-716 188.5,-716"/>
<text text-anchor="start" x="228" y="-724.8" font-family="Times,serif" font-size="14.00" fill="#000000">Float</text>
<polygon fill="#bfffff" stroke="transparent" points=".5,-691 .5,-716 188.5,-716 188.5,-691 .5,-691"/>
<polygon fill="none" stroke="#000000" points=".5,-691 .5,-716 188.5,-716 188.5,-691 .5,-691"/>
<text text-anchor="start" x="17" y="-700.8" font-family="Times,serif" font-weight="bold" font-size="14.00" fill="#000000">flux_pyruvate_uncertainty</text>
<polygon fill="#bfffff" stroke="transparent" points="188.5,-691 188.5,-716 295.5,-716 295.5,-691 188.5,-691"/>
<polygon fill="none" stroke="#000000" points="188.5,-691 188.5,-716 295.5,-716 295.5,-691 188.5,-691"/>
<text text-anchor="start" x="228" y="-699.8" font-family="Times,serif" font-size="14.00" fill="#000000">Float</text>
<polygon fill="#ebffff" stroke="transparent" points=".5,-666 .5,-691 188.5,-691 188.5,-666 .5,-666"/>
<polygon fill="none" stroke="#000000" points=".5,-666 .5,-691 188.5,-691 188.5,-666 .5,-666"/>
<text text-anchor="start" x="53" y="-675.8" font-family="Times,serif" font-weight="bold" font-size="14.00" fill="#000000">flux_succinate</text>
<polygon fill="#ebffff" stroke="transparent" points="188.5,-666 188.5,-691 295.5,-691 295.5,-666 188.5,-666"/>
<polygon fill="none" stroke="#000000" points="188.5,-666 188.5,-691 295.5,-691 295.5,-666 188.5,-666"/>
<text text-anchor="start" x="228" y="-674.8" font-family="Times,serif" font-size="14.00" fill="#000000">Float</text>
<polygon fill="#bfffff" stroke="transparent" points=".5,-641 .5,-666 188.5,-666 188.5,-641 .5,-641"/>
<polygon fill="none" stroke="#000000" points=".5,-641 .5,-666 188.5,-666 188.5,-641 .5,-641"/>
<text text-anchor="start" x="16" y="-650.8" font-family="Times,serif" font-weight="bold" font-size="14.00" fill="#000000">flux_succinate_uncertainty</text>
<polygon fill="#bfffff" stroke="transparent" points="188.5,-641 188.5,-666 295.5,-666 295.5,-641 188.5,-641"/>
<polygon fill="none" stroke="#000000" points="188.5,-641 188.5,-666 295.5,-666 295.5,-641 188.5,-641"/>
<text text-anchor="start" x="228" y="-649.8" font-family="Times,serif" font-size="14.00" fill="#000000">Float</text>
<polygon fill="#ebffff" stroke="transparent" points=".5,-616 .5,-641 188.5,-641 188.5,-616 .5,-616"/>
<polygon fill="none" stroke="#000000" points=".5,-616 .5,-641 188.5,-641 188.5,-616 .5,-616"/>
<text text-anchor="start" x="49.5" y="-625.8" font-family="Times,serif" font-weight="bold" font-size="14.00" fill="#000000">delta_g_acetate</text>
<polygon fill="#ebffff" stroke="transparent" points="188.5,-616 188.5,-641 295.5,-641 295.5,-616 188.5,-616"/>
<polygon fill="none" stroke="#000000" points="188.5,-616 188.5,-641 295.5,-641 295.5,-616 188.5,-616"/>
<text text-anchor="start" x="228" y="-624.8" font-family="Times,serif" font-size="14.00" fill="#000000">Float</text>
<polygon fill="#bfffff" stroke="transparent" points=".5,-591 .5,-616 188.5,-616 188.5,-591 .5,-591"/>
<polygon fill="none" stroke="#000000" points=".5,-591 .5,-616 188.5,-616 188.5,-591 .5,-591"/>
<text text-anchor="start" x="13" y="-600.8" font-family="Times,serif" font-weight="bold" font-size="14.00" fill="#000000">delta_g_acetate_uncertainty</text>
<polygon fill="#bfffff" stroke="transparent" points="188.5,-591 188.5,-616 295.5,-616 295.5,-591 188.5,-591"/>
<polygon fill="none" stroke="#000000" points="188.5,-591 188.5,-616 295.5,-616 295.5,-591 188.5,-591"/>
<text text-anchor="start" x="228" y="-599.8" font-family="Times,serif" font-size="14.00" fill="#000000">Float</text>
<polygon fill="#ebffff" stroke="transparent" points=".5,-566 .5,-591 188.5,-591 188.5,-566 .5,-566"/>
<polygon fill="none" stroke="#000000" points=".5,-566 .5,-591 188.5,-591 188.5,-566 .5,-566"/>
<text text-anchor="start" x="46.5" y="-575.8" font-family="Times,serif" font-weight="bold" font-size="14.00" fill="#000000">delta_g_fructose</text>
<polygon fill="#ebffff" stroke="transparent" points="188.5,-566 188.5,-591 295.5,-591 295.5,-566 188.5,-566"/>
<polygon fill="none" stroke="#000000" points="188.5,-566 188.5,-591 295.5,-591 295.5,-566 188.5,-566"/>
<text text-anchor="start" x="228" y="-574.8" font-family="Times,serif" font-size="14.00" fill="#000000">Float</text>
<polygon fill="#bfffff" stroke="transparent" points=".5,-541 .5,-566 188.5,-566 188.5,-541 .5,-541"/>
<polygon fill="none" stroke="#000000" points=".5,-541 .5,-566 188.5,-566 188.5,-541 .5,-541"/>
<text text-anchor="start" x="10" y="-550.8" font-family="Times,serif" font-weight="bold" font-size="14.00" fill="#000000">delta_g_fructose_uncertainty</text>
<polygon fill="#bfffff" stroke="transparent" points="188.5,-541 188.5,-566 295.5,-566 295.5,-541 188.5,-541"/>
<polygon fill="none" stroke="#000000" points="188.5,-541 188.5,-566 295.5,-566 295.5,-541 188.5,-541"/>
<text text-anchor="start" x="228" y="-549.8" font-family="Times,serif" font-size="14.00" fill="#000000">Float</text>
<polygon fill="#ebffff" stroke="transparent" points=".5,-516 .5,-541 188.5,-541 188.5,-516 .5,-516"/>
<polygon fill="none" stroke="#000000" points=".5,-516 .5,-541 188.5,-541 188.5,-516 .5,-516"/>
<text text-anchor="start" x="43.5" y="-525.8" font-family="Times,serif" font-weight="bold" font-size="14.00" fill="#000000">delta_g_galactose</text>
<polygon fill="#ebffff" stroke="transparent" points="188.5,-516 188.5,-541 295.5,-541 295.5,-516 188.5,-516"/>
<polygon fill="none" stroke="#000000" points="188.5,-516 188.5,-541 295.5,-541 295.5,-516 188.5,-516"/>
<text text-anchor="start" x="228" y="-524.8" font-family="Times,serif" font-size="14.00" fill="#000000">Float</text>
<polygon fill="#bfffff" stroke="transparent" points=".5,-491 .5,-516 188.5,-516 188.5,-491 .5,-491"/>
<polygon fill="none" stroke="#000000" points=".5,-491 .5,-516 188.5,-516 188.5,-491 .5,-491"/>
<text text-anchor="start" x="7" y="-500.8" font-family="Times,serif" font-weight="bold" font-size="14.00" fill="#000000">delta_g_galactose_uncertainty</text>
<polygon fill="#bfffff" stroke="transparent" points="188.5,-491 188.5,-516 295.5,-516 295.5,-491 188.5,-491"/>
<polygon fill="none" stroke="#000000" points="188.5,-491 188.5,-516 295.5,-516 295.5,-491 188.5,-491"/>
<text text-anchor="start" x="228" y="-499.8" font-family="Times,serif" font-size="14.00" fill="#000000">Float</text>
<polygon fill="#ebffff" stroke="transparent" points=".5,-466 .5,-491 188.5,-491 188.5,-466 .5,-466"/>
<polygon fill="none" stroke="#000000" points=".5,-466 .5,-491 188.5,-491 188.5,-466 .5,-466"/>
<text text-anchor="start" x="49" y="-475.8" font-family="Times,serif" font-weight="bold" font-size="14.00" fill="#000000">delta_g_glucose</text>
<polygon fill="#ebffff" stroke="transparent" points="188.5,-466 188.5,-491 295.5,-491 295.5,-466 188.5,-466"/>
<polygon fill="none" stroke="#000000" points="188.5,-466 188.5,-491 295.5,-491 295.5,-466 188.5,-466"/>
<text text-anchor="start" x="228" y="-474.8" font-family="Times,serif" font-size="14.00" fill="#000000">Float</text>
<polygon fill="#bfffff" stroke="transparent" points=".5,-441 .5,-466 188.5,-466 188.5,-441 .5,-441"/>
<polygon fill="none" stroke="#000000" points=".5,-441 .5,-466 188.5,-466 188.5,-441 .5,-441"/>
<text text-anchor="start" x="12" y="-450.8" font-family="Times,serif" font-weight="bold" font-size="14.00" fill="#000000">delta_g_glucose_uncertainty</text>
<polygon fill="#bfffff" stroke="transparent" points="188.5,-441 188.5,-466 295.5,-466 295.5,-441 188.5,-441"/>
<polygon fill="none" stroke="#000000" points="188.5,-441 188.5,-466 295.5,-466 295.5,-441 188.5,-441"/>
<text text-anchor="start" x="228" y="-449.8" font-family="Times,serif" font-size="14.00" fill="#000000">Float</text>
<polygon fill="#ebffff" stroke="transparent" points=".5,-416 .5,-441 188.5,-441 188.5,-416 .5,-416"/>
<polygon fill="none" stroke="#000000" points=".5,-416 .5,-441 188.5,-441 188.5,-416 .5,-416"/>
<text text-anchor="start" x="47" y="-425.8" font-family="Times,serif" font-weight="bold" font-size="14.00" fill="#000000">delta_g_glycerol</text>
<polygon fill="#ebffff" stroke="transparent" points="188.5,-416 188.5,-441 295.5,-441 295.5,-416 188.5,-416"/>
<polygon fill="none" stroke="#000000" points="188.5,-416 188.5,-441 295.5,-441 295.5,-416 188.5,-416"/>
<text text-anchor="start" x="228" y="-424.8" font-family="Times,serif" font-size="14.00" fill="#000000">Float</text>
<polygon fill="#bfffff" stroke="transparent" points=".5,-391 .5,-416 188.5,-416 188.5,-391 .5,-391"/>
<polygon fill="none" stroke="#000000" points=".5,-391 .5,-416 188.5,-416 188.5,-391 .5,-391"/>
<text text-anchor="start" x="10" y="-400.8" font-family="Times,serif" font-weight="bold" font-size="14.00" fill="#000000">delta_g_glycerol_uncertainty</text>
<polygon fill="#bfffff" stroke="transparent" points="188.5,-391 188.5,-416 295.5,-416 295.5,-391 188.5,-391"/>
<polygon fill="none" stroke="#000000" points="188.5,-391 188.5,-416 295.5,-416 295.5,-391 188.5,-391"/>
<text text-anchor="start" x="228" y="-399.8" font-family="Times,serif" font-size="14.00" fill="#000000">Float</text>
<polygon fill="#ebffff" stroke="transparent" points=".5,-366 .5,-391 188.5,-391 188.5,-366 .5,-366"/>
<polygon fill="none" stroke="#000000" points=".5,-366 .5,-391 188.5,-391 188.5,-366 .5,-366"/>
<text text-anchor="start" x="42" y="-375.8" font-family="Times,serif" font-weight="bold" font-size="14.00" fill="#000000">delta_g_gluconate</text>
<polygon fill="#ebffff" stroke="transparent" points="188.5,-366 188.5,-391 295.5,-391 295.5,-366 188.5,-366"/>
<polygon fill="none" stroke="#000000" points="188.5,-366 188.5,-391 295.5,-391 295.5,-366 188.5,-366"/>
<text text-anchor="start" x="228" y="-374.8" font-family="Times,serif" font-size="14.00" fill="#000000">Float</text>
<polygon fill="#bfffff" stroke="transparent" points=".5,-341 .5,-366 188.5,-366 188.5,-341 .5,-341"/>
<polygon fill="none" stroke="#000000" points=".5,-341 .5,-366 188.5,-366 188.5,-341 .5,-341"/>
<text text-anchor="start" x="5.5" y="-350.8" font-family="Times,serif" font-weight="bold" font-size="14.00" fill="#000000">delta_g_gluconate_uncertainty</text>
<polygon fill="#bfffff" stroke="transparent" points="188.5,-341 188.5,-366 295.5,-366 295.5,-341 188.5,-341"/>
<polygon fill="none" stroke="#000000" points="188.5,-341 188.5,-366 295.5,-366 295.5,-341 188.5,-341"/>
<text text-anchor="start" x="228" y="-349.8" font-family="Times,serif" font-size="14.00" fill="#000000">Float</text>
<polygon fill="#ebffff" stroke="transparent" points=".5,-316 .5,-341 188.5,-341 188.5,-316 .5,-316"/>
<polygon fill="none" stroke="#000000" points=".5,-316 .5,-341 188.5,-341 188.5,-316 .5,-316"/>
<text text-anchor="start" x="44" y="-325.8" font-family="Times,serif" font-weight="bold" font-size="14.00" fill="#000000">delta_g_pyruvate</text>
<polygon fill="#ebffff" stroke="transparent" points="188.5,-316 188.5,-341 295.5,-341 295.5,-316 188.5,-316"/>
<polygon fill="none" stroke="#000000" points="188.5,-316 188.5,-341 295.5,-341 295.5,-316 188.5,-316"/>
<text text-anchor="start" x="228" y="-324.8" font-family="Times,serif" font-size="14.00" fill="#000000">Float</text>
<polygon fill="#bfffff" stroke="transparent" points=".5,-291 .5,-316 188.5,-316 188.5,-291 .5,-291"/>
<polygon fill="none" stroke="#000000" points=".5,-291 .5,-316 188.5,-316 188.5,-291 .5,-291"/>
<text text-anchor="start" x="7" y="-300.8" font-family="Times,serif" font-weight="bold" font-size="14.00" fill="#000000">delta_g_pyruvate_uncertainty</text>
<polygon fill="#bfffff" stroke="transparent" points="188.5,-291 188.5,-316 295.5,-316 295.5,-291 188.5,-291"/>
<polygon fill="none" stroke="#000000" points="188.5,-291 188.5,-316 295.5,-316 295.5,-291 188.5,-291"/>
<text text-anchor="start" x="228" y="-299.8" font-family="Times,serif" font-size="14.00" fill="#000000">Float</text>
<polygon fill="#ebffff" stroke="transparent" points=".5,-266 .5,-291 188.5,-291 188.5,-266 .5,-266"/>
<polygon fill="none" stroke="#000000" points=".5,-266 .5,-291 188.5,-291 188.5,-266 .5,-266"/>
<text text-anchor="start" x="43" y="-275.8" font-family="Times,serif" font-weight="bold" font-size="14.00" fill="#000000">delta_g_succinate</text>
<polygon fill="#ebffff" stroke="transparent" points="188.5,-266 188.5,-291 295.5,-291 295.5,-266 188.5,-266"/>
<polygon fill="none" stroke="#000000" points="188.5,-266 188.5,-291 295.5,-291 295.5,-266 188.5,-266"/>
<text text-anchor="start" x="228" y="-274.8" font-family="Times,serif" font-size="14.00" fill="#000000">Float</text>
<polygon fill="#bfffff" stroke="transparent" points=".5,-241 .5,-266 188.5,-266 188.5,-241 .5,-241"/>
<polygon fill="none" stroke="#000000" points=".5,-241 .5,-266 188.5,-266 188.5,-241 .5,-241"/>
<text text-anchor="start" x="6.5" y="-250.8" font-family="Times,serif" font-weight="bold" font-size="14.00" fill="#000000">delta_g_succinate_uncertainty</text>
<polygon fill="#bfffff" stroke="transparent" points="188.5,-241 188.5,-266 295.5,-266 295.5,-241 188.5,-241"/>
<polygon fill="none" stroke="#000000" points="188.5,-241 188.5,-266 295.5,-266 295.5,-241 188.5,-241"/>
<text text-anchor="start" x="228" y="-249.8" font-family="Times,serif" font-size="14.00" fill="#000000">Float</text>
</g>
<!-- Reference -->
<g id="node4" class="node">
<title>Reference</title>
<polygon fill="#ff8a5b" stroke="transparent" points="63.5,-1547 63.5,-1577 232.5,-1577 232.5,-1547 63.5,-1547"/>
<polygon fill="none" stroke="#000000" points="63.5,-1547 63.5,-1577 232.5,-1577 232.5,-1547 63.5,-1547"/>
<text text-anchor="start" x="108.5" y="-1558.6" font-family="Times,serif" font-weight="bold" font-size="18.00" fill="#000000">Reference</text>
<polygon fill="#bfffff" stroke="transparent" points="63.5,-1522 63.5,-1547 140.5,-1547 140.5,-1522 63.5,-1522"/>
<polygon fill="none" stroke="#000000" points="63.5,-1522 63.5,-1547 140.5,-1547 140.5,-1522 63.5,-1522"/>
<text text-anchor="start" x="96" y="-1531.8" font-family="Times,serif" font-weight="bold" font-size="14.00" fill="#000000">id</text>
<polygon fill="#bfffff" stroke="transparent" points="140.5,-1522 140.5,-1547 232.5,-1547 232.5,-1522 140.5,-1522"/>
<polygon fill="none" stroke="#000000" points="140.5,-1522 140.5,-1547 232.5,-1547 232.5,-1522 140.5,-1522"/>
<text text-anchor="start" x="169.5" y="-1530.8" font-family="Times,serif" font-size="14.00" fill="#000000">String</text>
<polygon fill="#ebffff" stroke="transparent" points="63.5,-1497 63.5,-1522 140.5,-1522 140.5,-1497 63.5,-1497"/>
<polygon fill="none" stroke="#000000" points="63.5,-1497 63.5,-1522 140.5,-1522 140.5,-1497 63.5,-1497"/>
<text text-anchor="start" x="90.5" y="-1506.8" font-family="Times,serif" font-weight="bold" font-size="14.00" fill="#000000">title</text>
<polygon fill="#ebffff" stroke="transparent" points="140.5,-1497 140.5,-1522 232.5,-1522 232.5,-1497 140.5,-1497"/>
<polygon fill="none" stroke="#000000" points="140.5,-1497 140.5,-1522 232.5,-1522 232.5,-1497 140.5,-1497"/>
<text text-anchor="start" x="155.5" y="-1505.8" font-family="Times,serif" font-size="14.00" fill="#000000">LongString</text>
<polygon fill="#bfffff" stroke="transparent" points="63.5,-1472 63.5,-1497 140.5,-1497 140.5,-1472 63.5,-1472"/>
<polygon fill="none" stroke="#000000" points="63.5,-1472 63.5,-1497 140.5,-1497 140.5,-1472 63.5,-1472"/>
<text text-anchor="start" x="79.5" y="-1481.8" font-family="Times,serif" font-weight="bold" font-size="14.00" fill="#000000">authors</text>
<polygon fill="#bfffff" stroke="transparent" points="140.5,-1472 140.5,-1497 232.5,-1497 232.5,-1472 140.5,-1472"/>
<polygon fill="none" stroke="#000000" points="140.5,-1472 140.5,-1497 232.5,-1497 232.5,-1472 140.5,-1472"/>
<text text-anchor="start" x="155.5" y="-1480.8" font-family="Times,serif" font-size="14.00" fill="#000000">LongString</text>
<polygon fill="#ebffff" stroke="transparent" points="63.5,-1447 63.5,-1472 140.5,-1472 140.5,-1447 63.5,-1447"/>
<polygon fill="none" stroke="#000000" points="63.5,-1447 63.5,-1472 140.5,-1472 140.5,-1447 63.5,-1447"/>
<text text-anchor="start" x="80.5" y="-1456.8" font-family="Times,serif" font-weight="bold" font-size="14.00" fill="#000000">journal</text>
<polygon fill="#ebffff" stroke="transparent" points="140.5,-1447 140.5,-1472 232.5,-1472 232.5,-1447 140.5,-1447"/>
<polygon fill="none" stroke="#000000" points="140.5,-1447 140.5,-1472 232.5,-1472 232.5,-1447 140.5,-1447"/>
<text text-anchor="start" x="169.5" y="-1455.8" font-family="Times,serif" font-size="14.00" fill="#000000">String</text>
<polygon fill="#bfffff" stroke="transparent" points="63.5,-1422 63.5,-1447 140.5,-1447 140.5,-1422 63.5,-1422"/>
<polygon fill="none" stroke="#000000" points="63.5,-1422 63.5,-1447 140.5,-1447 140.5,-1422 63.5,-1422"/>
<text text-anchor="start" x="80.5" y="-1431.8" font-family="Times,serif" font-weight="bold" font-size="14.00" fill="#000000">volume</text>
<polygon fill="#bfffff" stroke="transparent" points="140.5,-1422 140.5,-1447 232.5,-1447 232.5,-1422 140.5,-1422"/>
<polygon fill="none" stroke="#000000" points="140.5,-1422 140.5,-1447 232.5,-1447 232.5,-1422 140.5,-1422"/>
<text text-anchor="start" x="145.5" y="-1430.8" font-family="Times,serif" font-size="14.00" fill="#000000">PositiveInteger</text>
<polygon fill="#ebffff" stroke="transparent" points="63.5,-1397 63.5,-1422 140.5,-1422 140.5,-1397 63.5,-1397"/>
<polygon fill="none" stroke="#000000" points="63.5,-1397 63.5,-1422 140.5,-1422 140.5,-1397 63.5,-1397"/>
<text text-anchor="start" x="88" y="-1406.8" font-family="Times,serif" font-weight="bold" font-size="14.00" fill="#000000">issue</text>
<polygon fill="#ebffff" stroke="transparent" points="140.5,-1397 140.5,-1422 232.5,-1422 232.5,-1397 140.5,-1397"/>
<polygon fill="none" stroke="#000000" points="140.5,-1397 140.5,-1422 232.5,-1422 232.5,-1397 140.5,-1397"/>
<text text-anchor="start" x="145.5" y="-1405.8" font-family="Times,serif" font-size="14.00" fill="#000000">PositiveInteger</text>
<polygon fill="#bfffff" stroke="transparent" points="63.5,-1372 63.5,-1397 140.5,-1397 140.5,-1372 63.5,-1372"/>
<polygon fill="none" stroke="#000000" points="63.5,-1372 63.5,-1397 140.5,-1397 140.5,-1372 63.5,-1372"/>
<text text-anchor="start" x="71.5" y="-1381.8" font-family="Times,serif" font-weight="bold" font-size="14.00" fill="#000000">start_page</text>
<polygon fill="#bfffff" stroke="transparent" points="140.5,-1372 140.5,-1397 232.5,-1397 232.5,-1372 140.5,-1372"/>
<polygon fill="none" stroke="#000000" points="140.5,-1372 140.5,-1397 232.5,-1397 232.5,-1372 140.5,-1372"/>
<text text-anchor="start" x="145.5" y="-1380.8" font-family="Times,serif" font-size="14.00" fill="#000000">PositiveInteger</text>
<polygon fill="#ebffff" stroke="transparent" points="63.5,-1347 63.5,-1372 140.5,-1372 140.5,-1347 63.5,-1347"/>
<polygon fill="none" stroke="#000000" points="63.5,-1347 63.5,-1372 140.5,-1372 140.5,-1347 63.5,-1347"/>
<text text-anchor="start" x="74.5" y="-1356.8" font-family="Times,serif" font-weight="bold" font-size="14.00" fill="#000000">end_page</text>
<polygon fill="#ebffff" stroke="transparent" points="140.5,-1347 140.5,-1372 232.5,-1372 232.5,-1347 140.5,-1347"/>
<polygon fill="none" stroke="#000000" points="140.5,-1347 140.5,-1372 232.5,-1372 232.5,-1347 140.5,-1347"/>
<text text-anchor="start" x="145.5" y="-1355.8" font-family="Times,serif" font-size="14.00" fill="#000000">PositiveInteger</text>
<polygon fill="#bfffff" stroke="transparent" points="63.5,-1322 63.5,-1347 140.5,-1347 140.5,-1322 63.5,-1322"/>
<polygon fill="none" stroke="#000000" points="63.5,-1322 63.5,-1347 140.5,-1347 140.5,-1322 63.5,-1322"/>
<text text-anchor="start" x="68.5" y="-1331.8" font-family="Times,serif" font-weight="bold" font-size="14.00" fill="#000000">pubmed_id</text>
<polygon fill="#bfffff" stroke="transparent" points="140.5,-1322 140.5,-1347 232.5,-1347 232.5,-1322 140.5,-1322"/>
<polygon fill="none" stroke="#000000" points="140.5,-1322 140.5,-1347 232.5,-1347 232.5,-1322 140.5,-1322"/>
<text text-anchor="start" x="145.5" y="-1330.8" font-family="Times,serif" font-size="14.00" fill="#000000">PositiveInteger</text>
</g>
</g>
</svg>
