<?xml version="1.0" encoding="utf-8"?>
<!-- Generator: Adobe Illustrator 24.1.2, SVG Export Plug-In . SVG Version: 6.00 Build 0)  -->
<svg version="1.1" id="Layer_1" xmlns="http://www.w3.org/2000/svg" xmlns:xlink="http://www.w3.org/1999/xlink" x="0px" y="0px"
	 viewBox="0 0 807.3 254.3" style="enable-background:new 0 0 807.3 254.3;" xml:space="preserve">
<style type="text/css">
	.st0{fill:#DF990A;}
	.st1{fill:#45D83D;}
	.st2{fill:#3BAFDA;}
	.st3{fill:#CCF5FF;}
	.st4{fill:none;}
	.st5{fill:#FFE2B3;}
	.st6{fill:none;stroke:url(#SVGID_1_);stroke-width:10;stroke-miterlimit:10;}
	.st7{fill:url(#SVGID_2_);}
	.st8{fill:none;stroke:url(#SVGID_3_);stroke-width:10;stroke-miterlimit:10;}
	.st9{fill:url(#SVGID_4_);}
	.st10{fill:#666666;}
	.st11{fill:#D1FFCC;stroke:#45D83D;stroke-width:5;stroke-miterlimit:10;}
	.st12{fill:none;stroke:#45D83D;stroke-width:5;stroke-miterlimit:10;}
	.st13{fill:#97FF8F;stroke:#45D83D;stroke-width:5;stroke-miterlimit:10;}
</style>
<g>
	<path class="st0" d="M597.1,190.2c-1.2,0-2.4-0.2-3.4-0.7c-1-0.5-1.9-1.1-2.6-1.9c-0.7-0.8-1.3-1.7-1.7-2.8c-0.4-1-0.6-2.1-0.6-3.2
		c0-1.1,0.2-2.2,0.6-3.3s1-2,1.8-2.8c0.7-0.8,1.6-1.4,2.7-1.9c1-0.5,2.1-0.7,3.3-0.7c1.2,0,2.4,0.3,3.4,0.8c1,0.5,1.9,1.2,2.6,2
		c0.7,0.8,1.3,1.7,1.7,2.8c0.4,1,0.6,2.1,0.6,3.2c0,1.1-0.2,2.2-0.6,3.3c-0.4,1-1,1.9-1.7,2.7c-0.7,0.8-1.6,1.4-2.6,1.9
		C599.4,190,598.3,190.2,597.1,190.2z M592.2,181.6c0,0.7,0.1,1.4,0.3,2.1c0.2,0.7,0.5,1.3,1,1.8c0.4,0.5,0.9,1,1.6,1.3
		c0.6,0.3,1.3,0.5,2.1,0.5c0.8,0,1.5-0.2,2.1-0.5c0.6-0.3,1.1-0.8,1.6-1.3c0.4-0.5,0.7-1.2,1-1.8c0.2-0.7,0.3-1.4,0.3-2.1
		c0-0.7-0.1-1.4-0.3-2.1c-0.2-0.7-0.6-1.3-1-1.8c-0.4-0.5-0.9-0.9-1.6-1.3c-0.6-0.3-1.3-0.5-2.1-0.5c-0.8,0-1.5,0.2-2.1,0.5
		s-1.1,0.8-1.6,1.3s-0.7,1.1-0.9,1.8C592.3,180.2,592.2,180.9,592.2,181.6z"/>
	<path class="st0" d="M614.8,190.3c-1,0-1.8-0.2-2.6-0.6c-0.8-0.4-1.3-1-1.8-1.8v2.2h-2.8v-17.5h3.2v7.2c0.4-0.8,1-1.4,1.8-1.8
		c0.7-0.4,1.6-0.6,2.6-0.6c0.8,0,1.6,0.2,2.2,0.5c0.7,0.4,1.3,0.8,1.7,1.4s0.9,1.3,1.1,2.1s0.4,1.6,0.4,2.5c0,0.9-0.1,1.8-0.4,2.5
		c-0.3,0.8-0.7,1.5-1.2,2.1c-0.5,0.6-1.2,1-1.9,1.4C616.4,190.2,615.6,190.3,614.8,190.3z M613.9,187.6c0.5,0,1-0.1,1.4-0.3
		c0.4-0.2,0.8-0.5,1.1-0.8c0.3-0.3,0.5-0.7,0.7-1.2c0.2-0.4,0.3-0.9,0.3-1.4s-0.1-1-0.2-1.5s-0.4-0.9-0.7-1.2
		c-0.3-0.4-0.6-0.6-1-0.8c-0.4-0.2-0.8-0.3-1.3-0.3c-0.7,0-1.4,0.2-1.9,0.7c-0.6,0.5-1,1.1-1.3,1.7v3c0.1,0.3,0.3,0.6,0.5,0.9
		s0.5,0.5,0.7,0.7c0.3,0.2,0.6,0.3,0.9,0.4C613.3,187.6,613.6,187.6,613.9,187.6z"/>
	<path class="st0" d="M621.8,194.8c-0.6,0-1.2-0.1-1.7-0.3s-1-0.5-1.5-0.9l1.4-2.2c0.2,0.2,0.4,0.3,0.6,0.4c0.3,0.1,0.5,0.1,0.8,0.1
		c0.4,0,0.8-0.1,1.1-0.4c0.3-0.3,0.5-0.7,0.5-1.1v-12.9h3.2v12.7c0,0.7-0.1,1.3-0.3,1.9c-0.2,0.6-0.5,1.1-0.9,1.5
		c-0.4,0.4-0.9,0.7-1.4,0.9C623,194.7,622.5,194.8,621.8,194.8z M623,175.8v-3.2h3.2v3.2H623z"/>
	<path class="st0" d="M635,190.3c-1,0-1.9-0.2-2.7-0.5c-0.8-0.3-1.5-0.8-2.1-1.4s-1-1.3-1.3-2.1c-0.3-0.8-0.5-1.6-0.5-2.5
		c0-0.9,0.2-1.7,0.5-2.5c0.3-0.8,0.7-1.5,1.3-2.1c0.6-0.6,1.3-1.1,2.1-1.4c0.8-0.4,1.7-0.5,2.8-0.5c1,0,1.9,0.2,2.7,0.5
		c0.8,0.4,1.5,0.8,2.1,1.4c0.6,0.6,1,1.3,1.3,2.1c0.3,0.8,0.4,1.6,0.4,2.4c0,0.2,0,0.4,0,0.6c0,0.2,0,0.4-0.1,0.5h-9.7
		c0,0.5,0.2,0.9,0.4,1.3c0.2,0.4,0.4,0.7,0.7,1c0.3,0.3,0.6,0.5,1,0.6c0.4,0.1,0.8,0.2,1.2,0.2c0.6,0,1.2-0.2,1.8-0.5
		c0.6-0.3,1-0.7,1.2-1.2l2.8,0.8c-0.5,1-1.2,1.7-2.2,2.4C637.6,190,636.4,190.3,635,190.3z M638.2,182.8c-0.1-0.9-0.4-1.7-1-2.3
		c-0.6-0.6-1.4-0.9-2.2-0.9c-0.4,0-0.8,0.1-1.2,0.2c-0.4,0.2-0.7,0.4-1,0.6c-0.3,0.3-0.5,0.6-0.7,1s-0.3,0.8-0.3,1.3H638.2z"/>
	<path class="st0" d="M642.7,183.8c0-0.9,0.2-1.7,0.5-2.5c0.3-0.8,0.7-1.5,1.3-2.1c0.6-0.6,1.3-1.1,2.1-1.4c0.8-0.4,1.7-0.5,2.8-0.5
		c1.4,0,2.5,0.3,3.5,0.9c1,0.6,1.7,1.4,2.2,2.3l-3.1,1c-0.3-0.5-0.6-0.8-1.1-1.1c-0.4-0.2-0.9-0.4-1.5-0.4c-0.5,0-0.9,0.1-1.3,0.3
		c-0.4,0.2-0.7,0.4-1,0.8s-0.5,0.7-0.7,1.2c-0.2,0.5-0.3,1-0.3,1.5c0,0.6,0.1,1.1,0.3,1.5c0.2,0.5,0.4,0.9,0.7,1.2
		c0.3,0.3,0.6,0.6,1,0.8c0.4,0.2,0.8,0.3,1.3,0.3c0.6,0,1.1-0.1,1.6-0.4c0.5-0.3,0.8-0.6,1-1.1l3.1,1c-0.4,1-1.1,1.7-2.1,2.4
		s-2.2,0.9-3.6,0.9c-1,0-1.9-0.2-2.8-0.5c-0.8-0.4-1.5-0.8-2.1-1.4c-0.6-0.6-1-1.3-1.3-2.1C642.9,185.5,642.7,184.7,642.7,183.8z"/>
	<path class="st0" d="M664.6,189.5c-0.4,0.2-1,0.4-1.6,0.6c-0.6,0.2-1.3,0.3-2,0.3c-0.4,0-0.9-0.1-1.3-0.2c-0.4-0.1-0.7-0.3-1-0.5
		s-0.5-0.6-0.7-1c-0.2-0.4-0.3-0.9-0.3-1.4V180h-1.7v-2.5h1.7v-4.1h3.2v4.1h2.6v2.5H661v6.1c0,0.4,0.1,0.8,0.3,0.9
		c0.2,0.2,0.5,0.3,0.9,0.3s0.7-0.1,1-0.2c0.3-0.1,0.6-0.2,0.8-0.3L664.6,189.5z"/>
	<path class="st0" d="M671,190.3c-1.1,0-2.1-0.2-3.1-0.5s-1.9-0.8-2.6-1.4l1.2-2c0.8,0.5,1.5,1,2.2,1.2c0.7,0.3,1.5,0.4,2.2,0.4
		c0.6,0,1.1-0.1,1.5-0.4s0.6-0.6,0.6-1c0-0.4-0.2-0.8-0.6-1c-0.4-0.2-1.1-0.4-2.1-0.7c-0.8-0.2-1.5-0.4-2.1-0.6s-1-0.4-1.4-0.7
		c-0.4-0.3-0.6-0.6-0.8-0.9s-0.2-0.8-0.2-1.2c0-0.6,0.1-1.2,0.4-1.7c0.2-0.5,0.6-0.9,1-1.3c0.4-0.4,1-0.6,1.6-0.8
		c0.6-0.2,1.3-0.3,2-0.3c0.9,0,1.8,0.1,2.7,0.4c0.8,0.3,1.6,0.7,2.3,1.3l-1.3,1.9c-0.6-0.5-1.3-0.8-1.9-1.1
		c-0.6-0.2-1.2-0.3-1.8-0.3c-0.5,0-1,0.1-1.4,0.3c-0.4,0.2-0.6,0.6-0.6,1.1c0,0.2,0,0.4,0.1,0.6c0.1,0.1,0.2,0.3,0.4,0.4
		c0.2,0.1,0.4,0.2,0.8,0.3c0.3,0.1,0.7,0.2,1.2,0.3c0.9,0.2,1.6,0.4,2.2,0.7c0.6,0.2,1.1,0.5,1.5,0.8s0.7,0.6,0.9,1
		c0.2,0.4,0.3,0.8,0.3,1.4c0,1.2-0.5,2.2-1.4,2.9S672.6,190.3,671,190.3z"/>
	<path class="st0" d="M695.4,190.1l-1.3-1.4c-0.7,0.5-1.5,1-2.3,1.2c-0.8,0.3-1.7,0.4-2.5,0.4c-0.9,0-1.7-0.1-2.4-0.4
		s-1.3-0.6-1.8-1.1c-0.5-0.5-0.9-1-1.2-1.6c-0.3-0.6-0.4-1.3-0.4-1.9c0-0.5,0.1-1,0.2-1.5c0.2-0.4,0.4-0.9,0.7-1.2
		c0.3-0.4,0.6-0.7,1-1c0.4-0.3,0.7-0.6,1.1-0.9c-0.7-0.8-1.2-1.4-1.5-2c-0.3-0.6-0.4-1.1-0.4-1.7s0.1-1.2,0.4-1.7s0.6-0.9,1-1.3
		c0.4-0.4,0.9-0.6,1.5-0.8c0.6-0.2,1.2-0.3,1.9-0.3c0.6,0,1.2,0.1,1.7,0.2c0.5,0.2,1,0.4,1.4,0.7c0.4,0.3,0.8,0.7,1,1.2
		s0.4,1,0.4,1.6c0,0.9-0.3,1.7-0.8,2.4c-0.5,0.7-1.2,1.3-2.1,2l3.3,3.4c0.2-0.5,0.4-1.1,0.6-1.7c0.1-0.6,0.2-1.3,0.2-2h2.6
		c0,1.1-0.2,2.2-0.4,3.1c-0.3,0.9-0.6,1.8-1.1,2.5l3.5,3.7H695.4z M689.5,187.8c1,0,1.9-0.3,2.8-1l-3.9-4.2c-0.6,0.4-1,0.8-1.3,1.2
		c-0.3,0.4-0.5,0.9-0.5,1.4c0,0.3,0.1,0.7,0.2,1c0.1,0.3,0.3,0.6,0.6,0.8c0.3,0.2,0.6,0.4,0.9,0.5
		C688.7,187.8,689.1,187.8,689.5,187.8z M687.5,176.8c0,0.1,0,0.3,0.1,0.4c0,0.1,0.1,0.3,0.2,0.4c0.1,0.2,0.3,0.3,0.4,0.6
		c0.2,0.2,0.4,0.5,0.7,0.8c0.6-0.4,1.1-0.8,1.4-1.2s0.5-0.8,0.5-1.2c0-0.4-0.1-0.8-0.4-1c-0.3-0.3-0.7-0.4-1.1-0.4
		c-0.5,0-0.9,0.2-1.3,0.5C687.7,176,687.5,176.4,687.5,176.8z"/>
	<path class="st0" d="M714.3,180.3c-1,0-1.8,0.2-2.6,0.6c-0.8,0.4-1.3,0.9-1.7,1.6v7.6h-3.2v-12.6h3v2.7c0.2-0.4,0.5-0.8,0.8-1.2
		s0.6-0.6,1-0.9c0.4-0.3,0.7-0.5,1.1-0.6c0.4-0.1,0.7-0.2,1-0.2c0.2,0,0.3,0,0.4,0s0.2,0,0.3,0V180.3z"/>
	<path class="st0" d="M721.3,190.3c-1,0-1.9-0.2-2.7-0.5c-0.8-0.3-1.5-0.8-2.1-1.4c-0.6-0.6-1-1.3-1.3-2.1c-0.3-0.8-0.5-1.6-0.5-2.5
		c0-0.9,0.2-1.7,0.5-2.5s0.7-1.5,1.3-2.1s1.3-1.1,2.1-1.4c0.8-0.4,1.7-0.5,2.8-0.5c1,0,1.9,0.2,2.7,0.5c0.8,0.4,1.5,0.8,2.1,1.4
		c0.6,0.6,1,1.3,1.3,2.1c0.3,0.8,0.4,1.6,0.4,2.4c0,0.2,0,0.4,0,0.6c0,0.2,0,0.4-0.1,0.5h-9.7c0,0.5,0.2,0.9,0.4,1.3
		c0.2,0.4,0.4,0.7,0.7,1c0.3,0.3,0.6,0.5,1,0.6c0.4,0.1,0.8,0.2,1.2,0.2c0.6,0,1.2-0.2,1.8-0.5c0.6-0.3,1-0.7,1.2-1.2l2.8,0.8
		c-0.5,1-1.2,1.7-2.2,2.4C723.9,190,722.7,190.3,721.3,190.3z M724.6,182.8c-0.1-0.9-0.4-1.7-1-2.3c-0.6-0.6-1.4-0.9-2.2-0.9
		c-0.4,0-0.8,0.1-1.2,0.2c-0.4,0.2-0.7,0.4-1,0.6c-0.3,0.3-0.5,0.6-0.7,1c-0.2,0.4-0.3,0.8-0.3,1.3H724.6z"/>
	<path class="st0" d="M729.8,172.6h3.2v13.5c0,0.5,0.1,0.8,0.3,1.1c0.2,0.3,0.5,0.4,1,0.4c0.2,0,0.4,0,0.6-0.1
		c0.2-0.1,0.5-0.1,0.7-0.2l0.4,2.4c-0.4,0.2-0.9,0.4-1.5,0.5c-0.6,0.1-1.1,0.2-1.6,0.2c-1,0-1.8-0.3-2.3-0.8
		c-0.6-0.5-0.8-1.3-0.8-2.3V172.6z"/>
	<path class="st0" d="M740.9,190.3c-0.6,0-1.2-0.1-1.7-0.3c-0.5-0.2-1-0.5-1.4-0.8c-0.4-0.4-0.7-0.8-0.9-1.3c-0.2-0.5-0.3-1-0.3-1.6
		c0-0.6,0.1-1.1,0.4-1.6c0.3-0.5,0.6-0.9,1.1-1.3s1-0.6,1.7-0.8c0.7-0.2,1.4-0.3,2.2-0.3c0.6,0,1.1,0,1.6,0.1c0.5,0.1,1,0.2,1.4,0.4
		v-0.7c0-0.8-0.2-1.5-0.7-1.9s-1.2-0.7-2.1-0.7c-0.7,0-1.3,0.1-2,0.4c-0.6,0.2-1.3,0.6-2,1.1l-1-2c1.6-1.1,3.4-1.6,5.2-1.6
		c1.8,0,3.2,0.4,4.2,1.3c1,0.9,1.5,2.2,1.5,3.9v3.9c0,0.3,0.1,0.6,0.2,0.7c0.1,0.1,0.3,0.2,0.6,0.2v2.7c-0.5,0.1-1,0.2-1.4,0.2
		c-0.6,0-1.1-0.1-1.4-0.4c-0.3-0.3-0.5-0.6-0.6-1.1l-0.1-0.7c-0.6,0.7-1.2,1.3-2,1.7C742.7,190.2,741.8,190.3,740.9,190.3z
		 M741.8,188c0.5,0,1.1-0.1,1.5-0.3c0.5-0.2,0.9-0.4,1.1-0.8c0.4-0.3,0.5-0.6,0.5-0.9v-1.4c-0.4-0.1-0.8-0.3-1.2-0.3
		s-0.9-0.1-1.3-0.1c-0.8,0-1.5,0.2-2,0.6c-0.5,0.4-0.8,0.9-0.8,1.4c0,0.5,0.2,1,0.6,1.4C740.7,187.8,741.2,188,741.8,188z"/>
	<path class="st0" d="M758.7,189.5c-0.4,0.2-1,0.4-1.6,0.6c-0.6,0.2-1.3,0.3-2,0.3c-0.4,0-0.9-0.1-1.3-0.2c-0.4-0.1-0.7-0.3-1-0.5
		s-0.5-0.6-0.7-1c-0.2-0.4-0.3-0.9-0.3-1.4V180h-1.7v-2.5h1.7v-4.1h3.2v4.1h2.6v2.5h-2.6v6.1c0,0.4,0.1,0.8,0.3,0.9
		c0.2,0.2,0.5,0.3,0.9,0.3s0.7-0.1,1-0.2c0.3-0.1,0.6-0.2,0.8-0.3L758.7,189.5z"/>
	<path class="st0" d="M760.4,175.8v-3.2h3.2v3.2H760.4z M760.4,190.1v-12.6h3.2v12.6H760.4z"/>
	<path class="st0" d="M772.3,190.3c-1,0-1.9-0.2-2.8-0.5c-0.8-0.4-1.5-0.8-2.1-1.4c-0.6-0.6-1-1.3-1.3-2.1s-0.5-1.6-0.5-2.5
		c0-0.9,0.2-1.7,0.5-2.5s0.7-1.5,1.3-2.1c0.6-0.6,1.3-1.1,2.1-1.4c0.8-0.4,1.7-0.5,2.8-0.5c1,0,1.9,0.2,2.7,0.5
		c0.8,0.4,1.5,0.8,2.1,1.4c0.6,0.6,1,1.3,1.3,2.1c0.3,0.8,0.5,1.6,0.5,2.5c0,0.9-0.2,1.7-0.5,2.5c-0.3,0.8-0.7,1.5-1.3,2.1
		c-0.6,0.6-1.2,1.1-2.1,1.4S773.3,190.3,772.3,190.3z M769,183.8c0,0.6,0.1,1.1,0.3,1.5s0.4,0.9,0.7,1.2c0.3,0.3,0.6,0.6,1,0.8
		c0.4,0.2,0.8,0.3,1.3,0.3c0.5,0,0.9-0.1,1.3-0.3c0.4-0.2,0.7-0.4,1-0.8s0.5-0.7,0.7-1.2s0.3-1,0.3-1.5c0-0.5-0.1-1-0.3-1.5
		s-0.4-0.9-0.7-1.2s-0.6-0.6-1-0.8c-0.4-0.2-0.8-0.3-1.3-0.3c-0.5,0-0.9,0.1-1.3,0.3c-0.4,0.2-0.7,0.5-1,0.8
		c-0.3,0.3-0.5,0.7-0.7,1.2C769.1,182.8,769,183.3,769,183.8z"/>
	<path class="st0" d="M792.7,190.1h-3.2V183c0-1-0.2-1.7-0.5-2.2c-0.4-0.5-0.8-0.7-1.5-0.7c-0.3,0-0.6,0.1-1,0.2s-0.7,0.3-0.9,0.5
		c-0.3,0.2-0.6,0.5-0.8,0.8c-0.2,0.3-0.4,0.7-0.5,1.1v7.3H781v-12.6h2.9v2.3c0.5-0.8,1.1-1.4,2-1.9c0.9-0.4,1.9-0.7,3-0.7
		c0.8,0,1.4,0.1,1.9,0.4s0.9,0.7,1.2,1.1c0.3,0.5,0.5,1,0.6,1.6c0.1,0.6,0.2,1.2,0.2,1.8V190.1z"/>
	<path class="st0" d="M800.3,190.3c-1.1,0-2.1-0.2-3.1-0.5c-1-0.3-1.9-0.8-2.6-1.4l1.2-2c0.8,0.5,1.5,1,2.2,1.2
		c0.7,0.3,1.5,0.4,2.2,0.4c0.6,0,1.1-0.1,1.5-0.4s0.6-0.6,0.6-1c0-0.4-0.2-0.8-0.6-1c-0.4-0.2-1.1-0.4-2.1-0.7
		c-0.8-0.2-1.5-0.4-2.1-0.6c-0.6-0.2-1-0.4-1.4-0.7c-0.4-0.3-0.6-0.6-0.8-0.9c-0.2-0.3-0.2-0.8-0.2-1.2c0-0.6,0.1-1.2,0.4-1.7
		c0.2-0.5,0.6-0.9,1-1.3c0.4-0.4,1-0.6,1.6-0.8c0.6-0.2,1.3-0.3,2-0.3c0.9,0,1.8,0.1,2.7,0.4c0.8,0.3,1.6,0.7,2.3,1.3l-1.3,1.9
		c-0.6-0.5-1.3-0.8-1.9-1.1c-0.6-0.2-1.2-0.3-1.8-0.3c-0.5,0-1,0.1-1.4,0.3c-0.4,0.2-0.6,0.6-0.6,1.1c0,0.2,0,0.4,0.1,0.6
		c0.1,0.1,0.2,0.3,0.4,0.4c0.2,0.1,0.4,0.2,0.8,0.3c0.3,0.1,0.7,0.2,1.2,0.3c0.9,0.2,1.6,0.4,2.2,0.7c0.6,0.2,1.1,0.5,1.5,0.8
		c0.4,0.3,0.7,0.6,0.9,1c0.2,0.4,0.3,0.8,0.3,1.4c0,1.2-0.5,2.2-1.4,2.9S801.8,190.3,800.3,190.3z"/>
	<path class="st0" d="M601.8,210.3c0-1,0.2-2,0.5-3.1c0.4-1,0.9-1.9,1.6-2.7c0.7-0.8,1.5-1.5,2.5-2s2.2-0.8,3.4-0.8
		c1.5,0,2.8,0.3,3.9,1c1.1,0.7,1.9,1.6,2.4,2.7l-1.3,0.8c-0.3-0.6-0.6-1-1-1.4c-0.4-0.4-0.8-0.7-1.3-0.9c-0.4-0.2-0.9-0.4-1.4-0.5
		c-0.5-0.1-1-0.2-1.4-0.2c-1,0-1.9,0.2-2.7,0.6s-1.4,1-2,1.6c-0.5,0.7-0.9,1.4-1.2,2.3c-0.3,0.8-0.4,1.7-0.4,2.6
		c0,0.9,0.2,1.8,0.5,2.7c0.3,0.9,0.8,1.6,1.3,2.3c0.6,0.7,1.2,1.2,2,1.6c0.8,0.4,1.6,0.6,2.5,0.6c0.5,0,1-0.1,1.5-0.2s1-0.3,1.5-0.6
		c0.5-0.3,0.9-0.6,1.3-1c0.4-0.4,0.7-0.9,1-1.4l1.4,0.7c-0.3,0.6-0.7,1.2-1.2,1.7s-1,0.9-1.7,1.2s-1.3,0.6-1.9,0.8
		c-0.7,0.2-1.3,0.3-2,0.3c-1.2,0-2.2-0.3-3.2-0.8c-1-0.5-1.8-1.2-2.5-2s-1.3-1.8-1.6-2.8C602,212.4,601.8,211.4,601.8,210.3z"/>
	<path class="st0" d="M624.4,219.1c-0.9,0-1.7-0.2-2.5-0.5c-0.8-0.3-1.4-0.8-2-1.4c-0.6-0.6-1-1.3-1.3-2.1c-0.3-0.8-0.5-1.6-0.5-2.5
		c0-0.9,0.2-1.7,0.5-2.5c0.3-0.8,0.7-1.5,1.3-2.1c0.6-0.6,1.2-1.1,2-1.4c0.8-0.4,1.6-0.5,2.5-0.5c0.9,0,1.7,0.2,2.5,0.5
		c0.8,0.4,1.4,0.8,2,1.4c0.6,0.6,1,1.3,1.3,2.1c0.3,0.8,0.5,1.6,0.5,2.5c0,0.9-0.2,1.7-0.5,2.5c-0.3,0.8-0.7,1.5-1.3,2.1
		c-0.6,0.6-1.2,1.1-2,1.4C626.2,219,625.3,219.1,624.4,219.1z M619.9,212.7c0,0.7,0.1,1.4,0.4,2c0.2,0.6,0.6,1.1,1,1.6
		c0.4,0.5,0.9,0.8,1.4,1.1s1.1,0.4,1.8,0.4s1.2-0.1,1.8-0.4c0.6-0.3,1-0.6,1.5-1.1c0.4-0.5,0.7-1,1-1.6c0.2-0.6,0.4-1.3,0.4-2
		c0-0.7-0.1-1.3-0.4-2c-0.2-0.6-0.6-1.2-1-1.6c-0.4-0.5-0.9-0.8-1.5-1.1c-0.6-0.3-1.1-0.4-1.8-0.4s-1.2,0.1-1.8,0.4
		c-0.5,0.3-1,0.6-1.4,1.1c-0.4,0.5-0.7,1-1,1.6S619.9,212,619.9,212.7z"/>
	<path class="st0" d="M652,218.9h-1.6v-7c0-1.5-0.2-2.5-0.7-3.2c-0.5-0.7-1.2-1-2.1-1c-0.5,0-0.9,0.1-1.4,0.3s-0.8,0.4-1.2,0.7
		c-0.4,0.3-0.7,0.7-0.9,1.1c-0.3,0.4-0.5,0.9-0.6,1.5v7.6h-1.6v-7c0-1.5-0.2-2.6-0.7-3.2c-0.4-0.7-1.1-1-2.1-1c-0.9,0-1.8,0.3-2.5,1
		s-1.3,1.5-1.6,2.6v7.7h-1.6v-12.5h1.5v2.8c0.5-1,1.2-1.7,2-2.2s1.8-0.8,2.8-0.8c1.1,0,1.9,0.3,2.5,0.9s1,1.4,1.2,2.3
		c1.2-2.1,2.8-3.2,4.8-3.2c0.7,0,1.3,0.1,1.8,0.4c0.5,0.3,0.9,0.6,1.2,1.1c0.3,0.5,0.5,1,0.6,1.7s0.2,1.4,0.2,2.2V218.9z"/>
	<path class="st0" d="M661.8,219.1c-1.1,0-2-0.3-2.8-0.8c-0.8-0.5-1.5-1.2-2-2v7.7h-1.6v-17.6h1.5v2.4c0.5-0.8,1.2-1.4,2-1.9
		c0.8-0.5,1.7-0.7,2.7-0.7c0.9,0,1.7,0.2,2.4,0.5c0.7,0.4,1.3,0.8,1.9,1.4c0.5,0.6,0.9,1.3,1.2,2.1c0.3,0.8,0.4,1.6,0.4,2.4
		c0,0.9-0.1,1.7-0.4,2.5c-0.3,0.8-0.7,1.5-1.2,2.1s-1.1,1.1-1.8,1.4C663.4,219,662.7,219.1,661.8,219.1z M661.4,217.7
		c0.7,0,1.3-0.1,1.8-0.4c0.6-0.3,1-0.7,1.4-1.1c0.4-0.5,0.7-1,0.9-1.6c0.2-0.6,0.3-1.2,0.3-1.9c0-0.7-0.1-1.3-0.4-1.9
		c-0.2-0.6-0.6-1.1-1-1.6s-0.9-0.8-1.5-1.1c-0.6-0.3-1.2-0.4-1.8-0.4c-0.4,0-0.9,0.1-1.3,0.3s-0.9,0.4-1.3,0.7c-0.4,0.3-0.7,0.6-1,1
		c-0.3,0.4-0.5,0.8-0.5,1.2v3.8c0.2,0.4,0.4,0.9,0.7,1.2c0.3,0.4,0.6,0.7,1,1c0.4,0.3,0.8,0.5,1.2,0.7
		C660.5,217.6,660.9,217.7,661.4,217.7z"/>
	<path class="st0" d="M673.4,219.1c-0.6,0-1.1-0.1-1.6-0.3c-0.5-0.2-0.9-0.5-1.3-0.8c-0.4-0.4-0.7-0.8-0.9-1.2s-0.3-1-0.3-1.5
		c0-0.5,0.1-1,0.4-1.5c0.3-0.5,0.6-0.9,1.1-1.2s1-0.6,1.7-0.8c0.6-0.2,1.3-0.3,2.1-0.3c0.6,0,1.3,0.1,1.9,0.2
		c0.7,0.1,1.2,0.3,1.8,0.5V211c0-1.1-0.3-2-0.9-2.6c-0.6-0.6-1.5-1-2.6-1c-0.6,0-1.3,0.1-2,0.4c-0.7,0.3-1.4,0.6-2,1.1l-0.6-1.1
		c1.6-1.1,3.2-1.6,4.7-1.6c1.6,0,2.8,0.4,3.7,1.3c0.9,0.9,1.3,2.1,1.3,3.6v5.6c0,0.4,0.2,0.7,0.6,0.7v1.4c-0.3,0-0.5,0.1-0.6,0.1
		c-0.4,0-0.7-0.1-1-0.3c-0.2-0.2-0.4-0.5-0.4-0.9l0-1c-0.6,0.8-1.3,1.3-2.2,1.7C675.3,218.9,674.4,219.1,673.4,219.1z M673.8,217.9
		c0.8,0,1.6-0.2,2.3-0.5c0.7-0.3,1.3-0.7,1.6-1.3c0.1-0.1,0.3-0.3,0.3-0.5c0.1-0.2,0.1-0.3,0.1-0.5v-2c-0.5-0.2-1.1-0.4-1.7-0.5
		s-1.2-0.2-1.8-0.2c-1.2,0-2.1,0.2-2.8,0.7c-0.7,0.5-1.1,1.1-1.1,1.9c0,0.4,0.1,0.7,0.2,1.1c0.2,0.3,0.4,0.6,0.6,0.9
		c0.3,0.2,0.6,0.4,0.9,0.6C673,217.8,673.4,217.9,673.8,217.9z"/>
	<path class="st0" d="M689.6,207.8c-1.1,0-2.1,0.3-2.9,0.9c-0.8,0.6-1.4,1.4-1.7,2.4v7.8h-1.6v-12.5h1.5v3c0.5-1,1.1-1.7,1.9-2.3
		c0.8-0.5,1.6-0.8,2.5-0.8c0.1,0,0.2,0,0.3,0V207.8z"/>
	<path class="st0" d="M696.5,219.1c-0.9,0-1.7-0.2-2.5-0.5c-0.8-0.3-1.4-0.8-2-1.4c-0.6-0.6-1-1.3-1.3-2.1c-0.3-0.8-0.5-1.6-0.5-2.5
		c0-0.9,0.2-1.7,0.5-2.5c0.3-0.8,0.7-1.5,1.3-2s1.2-1,2-1.4c0.8-0.3,1.6-0.5,2.5-0.5c0.9,0,1.7,0.2,2.5,0.5c0.8,0.3,1.4,0.8,2,1.4
		c0.5,0.6,1,1.3,1.3,2c0.3,0.8,0.5,1.6,0.5,2.4c0,0.1,0,0.3,0,0.4s0,0.2,0,0.3H692c0,0.7,0.2,1.3,0.5,1.9c0.3,0.6,0.6,1.1,1,1.5
		s0.9,0.7,1.4,1c0.5,0.2,1.1,0.3,1.7,0.3c0.4,0,0.8-0.1,1.2-0.2c0.4-0.1,0.8-0.3,1.1-0.5c0.3-0.2,0.6-0.4,0.9-0.7
		c0.3-0.3,0.5-0.6,0.6-0.9l1.4,0.4c-0.2,0.5-0.5,0.9-0.8,1.3c-0.4,0.4-0.8,0.7-1.2,1s-1,0.5-1.5,0.6
		C697.7,219.1,697.1,219.1,696.5,219.1z M701.1,212c0-0.7-0.2-1.3-0.5-1.8c-0.3-0.6-0.6-1-1-1.4s-0.9-0.7-1.4-0.9
		c-0.5-0.2-1.1-0.3-1.7-0.3s-1.2,0.1-1.7,0.3c-0.5,0.2-1,0.5-1.4,0.9c-0.4,0.4-0.7,0.9-1,1.4c-0.2,0.6-0.4,1.2-0.4,1.8H701.1z"/>
	<path class="st0" d="M705.5,220.8l0.4-2h-0.6v-2.3h1.6v2.3l-0.6,2H705.5z"/>
	<path class="st0" d="M735.3,218.9h-1.6v-7c0-1.5-0.2-2.5-0.7-3.2c-0.5-0.7-1.2-1-2.1-1c-0.5,0-0.9,0.1-1.4,0.3s-0.8,0.4-1.2,0.7
		c-0.4,0.3-0.7,0.7-0.9,1.1c-0.3,0.4-0.5,0.9-0.6,1.5v7.6h-1.6v-7c0-1.5-0.2-2.6-0.7-3.2c-0.4-0.7-1.1-1-2.1-1c-0.9,0-1.8,0.3-2.5,1
		s-1.3,1.5-1.6,2.6v7.7h-1.6v-12.5h1.5v2.8c0.5-1,1.2-1.7,2-2.2s1.8-0.8,2.8-0.8c1.1,0,1.9,0.3,2.5,0.9s1,1.4,1.2,2.3
		c1.2-2.1,2.8-3.2,4.8-3.2c0.7,0,1.3,0.1,1.8,0.4c0.5,0.3,0.9,0.6,1.2,1.1c0.3,0.5,0.5,1,0.6,1.7s0.2,1.4,0.2,2.2V218.9z"/>
	<path class="st0" d="M744.2,219.1c-0.9,0-1.7-0.2-2.5-0.5c-0.8-0.3-1.4-0.8-2-1.4c-0.6-0.6-1-1.3-1.3-2.1c-0.3-0.8-0.5-1.6-0.5-2.5
		c0-0.9,0.2-1.7,0.5-2.5c0.3-0.8,0.7-1.5,1.3-2s1.2-1,2-1.4c0.8-0.3,1.6-0.5,2.5-0.5c0.9,0,1.7,0.2,2.5,0.5c0.8,0.3,1.4,0.8,2,1.4
		c0.5,0.6,1,1.3,1.3,2c0.3,0.8,0.5,1.6,0.5,2.4c0,0.1,0,0.3,0,0.4s0,0.2,0,0.3h-10.7c0,0.7,0.2,1.3,0.5,1.9c0.3,0.6,0.6,1.1,1,1.5
		s0.9,0.7,1.4,1c0.5,0.2,1.1,0.3,1.7,0.3c0.4,0,0.8-0.1,1.2-0.2c0.4-0.1,0.8-0.3,1.1-0.5c0.3-0.2,0.6-0.4,0.9-0.7
		c0.3-0.3,0.5-0.6,0.6-0.9l1.4,0.4c-0.2,0.5-0.5,0.9-0.8,1.3c-0.4,0.4-0.8,0.7-1.2,1s-1,0.5-1.5,0.6
		C745.4,219.1,744.8,219.1,744.2,219.1z M748.8,212c0-0.7-0.2-1.3-0.5-1.8c-0.3-0.6-0.6-1-1-1.4s-0.9-0.7-1.4-0.9
		c-0.5-0.2-1.1-0.3-1.7-0.3s-1.2,0.1-1.7,0.3c-0.5,0.2-1,0.5-1.4,0.9c-0.4,0.4-0.7,0.9-1,1.4c-0.2,0.6-0.4,1.2-0.4,1.8H748.8z"/>
	<path class="st0" d="M759.1,207.8c-1.1,0-2.1,0.3-2.9,0.9c-0.8,0.6-1.4,1.4-1.7,2.4v7.8h-1.6v-12.5h1.5v3c0.5-1,1.1-1.7,1.9-2.3
		c0.8-0.5,1.6-0.8,2.5-0.8c0.1,0,0.2,0,0.3,0V207.8z"/>
	<path class="st0" d="M765.7,219.1c-0.9,0-1.7-0.2-2.4-0.5c-0.7-0.4-1.3-0.8-1.8-1.4s-0.9-1.3-1.2-2c-0.3-0.8-0.4-1.6-0.4-2.4
		c0-0.9,0.1-1.7,0.4-2.5c0.3-0.8,0.7-1.5,1.2-2.1c0.5-0.6,1.1-1.1,1.8-1.4c0.7-0.4,1.5-0.5,2.4-0.5c1.1,0,2,0.3,2.8,0.8s1.5,1.2,2,2
		v-2.6h1.5V219c0,0.9-0.2,1.6-0.5,2.3c-0.3,0.7-0.8,1.2-1.3,1.7s-1.2,0.8-1.9,1c-0.7,0.2-1.5,0.3-2.4,0.3c-1.4,0-2.6-0.3-3.5-0.8
		c-0.9-0.5-1.6-1.2-2.1-2.1l1-0.8c0.5,0.8,1.2,1.4,2,1.8c0.8,0.4,1.7,0.6,2.6,0.6c0.6,0,1.2-0.1,1.7-0.3s1-0.4,1.4-0.7
		c0.4-0.3,0.7-0.7,1-1.2c0.2-0.5,0.4-1.1,0.4-1.8v-2.5c-0.5,0.8-1.1,1.4-2,1.9C767.5,218.8,766.6,219.1,765.7,219.1z M766.1,217.7
		c0.5,0,1-0.1,1.4-0.3s0.9-0.4,1.3-0.7c0.4-0.3,0.7-0.6,0.9-1s0.4-0.7,0.5-1.1v-3.9c-0.2-0.4-0.4-0.9-0.7-1.2s-0.6-0.7-1-1
		c-0.4-0.3-0.8-0.5-1.2-0.6c-0.4-0.2-0.9-0.2-1.3-0.2c-0.7,0-1.3,0.1-1.9,0.4c-0.6,0.3-1,0.7-1.4,1.2c-0.4,0.5-0.7,1-0.9,1.6
		c-0.2,0.6-0.3,1.2-0.3,1.8c0,0.7,0.1,1.3,0.4,1.9c0.2,0.6,0.6,1.1,1,1.6s0.9,0.8,1.5,1.1C764.9,217.6,765.5,217.7,766.1,217.7z"/>
	<path class="st0" d="M780.9,219.1c-0.9,0-1.7-0.2-2.5-0.5c-0.8-0.3-1.4-0.8-2-1.4c-0.6-0.6-1-1.3-1.3-2.1c-0.3-0.8-0.5-1.6-0.5-2.5
		c0-0.9,0.2-1.7,0.5-2.5c0.3-0.8,0.7-1.5,1.3-2s1.2-1,2-1.4c0.8-0.3,1.6-0.5,2.5-0.5c0.9,0,1.7,0.2,2.5,0.5c0.8,0.3,1.4,0.8,2,1.4
		c0.5,0.6,1,1.3,1.3,2c0.3,0.8,0.5,1.6,0.5,2.4c0,0.1,0,0.3,0,0.4s0,0.2,0,0.3h-10.7c0,0.7,0.2,1.3,0.5,1.9c0.3,0.6,0.6,1.1,1,1.5
		s0.9,0.7,1.4,1c0.5,0.2,1.1,0.3,1.7,0.3c0.4,0,0.8-0.1,1.2-0.2c0.4-0.1,0.8-0.3,1.1-0.5c0.3-0.2,0.6-0.4,0.9-0.7
		c0.3-0.3,0.5-0.6,0.6-0.9l1.4,0.4c-0.2,0.5-0.5,0.9-0.8,1.3c-0.4,0.4-0.8,0.7-1.2,1s-1,0.5-1.5,0.6
		C782.1,219.1,781.5,219.1,780.9,219.1z M785.5,212c0-0.7-0.2-1.3-0.5-1.8c-0.3-0.6-0.6-1-1-1.4s-0.9-0.7-1.4-0.9
		c-0.5-0.2-1.1-0.3-1.7-0.3s-1.2,0.1-1.7,0.3c-0.5,0.2-1,0.5-1.4,0.9c-0.4,0.4-0.7,0.9-1,1.4c-0.2,0.6-0.4,1.2-0.4,1.8H785.5z"/>
	<path class="st0" d="M789.9,220.8l0.4-2h-0.6v-2.3h1.6v2.3l-0.6,2H789.9z"/>
	<path class="st0" d="M629.6,247.7l-2-2.1c-0.7,0.7-1.4,1.3-2.3,1.7s-1.8,0.6-2.8,0.6c-0.8,0-1.5-0.1-2.1-0.3
		c-0.7-0.2-1.2-0.5-1.7-0.9s-0.9-0.9-1.2-1.5s-0.4-1.2-0.4-1.9c0-0.6,0.1-1.1,0.3-1.6c0.2-0.5,0.5-0.9,0.8-1.3
		c0.3-0.4,0.7-0.8,1.2-1.1c0.4-0.4,0.9-0.7,1.4-1c-0.4-0.5-0.8-0.9-1.1-1.2s-0.5-0.7-0.7-1c-0.2-0.3-0.3-0.6-0.4-0.9
		s-0.1-0.6-0.1-0.9c0-0.5,0.1-1,0.3-1.5s0.5-0.9,0.9-1.2s0.8-0.6,1.4-0.8c0.5-0.2,1.1-0.3,1.7-0.3c0.6,0,1.1,0.1,1.6,0.2
		c0.5,0.2,0.9,0.4,1.3,0.7c0.4,0.3,0.6,0.7,0.9,1.1s0.3,0.9,0.3,1.4c0,0.5-0.1,0.9-0.3,1.4s-0.5,0.8-0.8,1.2s-0.7,0.7-1.2,1.1
		c-0.4,0.3-0.9,0.7-1.4,1l4.8,5c0.3-0.6,0.6-1.3,0.8-2c0.2-0.7,0.3-1.5,0.3-2.2h1.4c0,1-0.1,1.9-0.4,2.8c-0.2,0.9-0.6,1.7-1.1,2.4
		l3.2,3.3H629.6z M622.6,246.6c0.8,0,1.6-0.2,2.3-0.5c0.7-0.3,1.3-0.8,1.8-1.4l-5.2-5.4c-0.8,0.6-1.6,1.2-2.1,1.9
		c-0.6,0.6-0.8,1.4-0.8,2.3c0,0.5,0.1,1,0.3,1.4c0.2,0.4,0.5,0.8,0.9,1c0.4,0.3,0.8,0.5,1.3,0.6
		C621.6,246.6,622.1,246.6,622.6,246.6z M619.8,234.1c0,0.2,0,0.4,0.1,0.6c0.1,0.2,0.2,0.4,0.3,0.7s0.4,0.5,0.6,0.9
		c0.3,0.3,0.6,0.7,1,1.2c0.9-0.6,1.7-1.2,2.3-1.7s0.9-1.1,0.9-1.8c0-0.6-0.2-1.1-0.7-1.5c-0.5-0.4-1.1-0.6-1.8-0.6
		c-0.4,0-0.8,0.1-1.1,0.2s-0.6,0.3-0.9,0.5c-0.2,0.2-0.4,0.5-0.6,0.8C619.9,233.5,619.8,233.8,619.8,234.1z"/>
	<path class="st0" d="M643,247.9c-0.6,0-1.1-0.1-1.6-0.3c-0.5-0.2-0.9-0.5-1.3-0.8c-0.4-0.4-0.7-0.8-0.9-1.2c-0.2-0.5-0.3-1-0.3-1.5
		c0-0.5,0.1-1,0.4-1.5c0.3-0.5,0.6-0.9,1.1-1.2s1-0.6,1.7-0.8c0.6-0.2,1.3-0.3,2.1-0.3c0.6,0,1.3,0.1,1.9,0.2
		c0.7,0.1,1.2,0.3,1.8,0.5v-1.1c0-1.1-0.3-2-0.9-2.6c-0.6-0.6-1.5-1-2.6-1c-0.6,0-1.3,0.1-2,0.4c-0.7,0.3-1.4,0.6-2,1.1l-0.6-1.1
		c1.6-1.1,3.2-1.6,4.7-1.6c1.6,0,2.8,0.4,3.7,1.3c0.9,0.9,1.3,2.1,1.3,3.6v5.6c0,0.4,0.2,0.7,0.6,0.7v1.4c-0.3,0-0.5,0.1-0.6,0.1
		c-0.4,0-0.7-0.1-1-0.3c-0.2-0.2-0.4-0.5-0.4-0.9l0-1c-0.6,0.8-1.3,1.3-2.2,1.7C644.9,247.7,644,247.9,643,247.9z M643.3,246.7
		c0.8,0,1.6-0.2,2.3-0.5c0.7-0.3,1.3-0.7,1.6-1.3c0.1-0.1,0.3-0.3,0.3-0.5c0.1-0.2,0.1-0.3,0.1-0.5v-2c-0.5-0.2-1.1-0.4-1.7-0.5
		s-1.2-0.2-1.8-0.2c-1.2,0-2.1,0.2-2.8,0.7c-0.7,0.5-1.1,1.1-1.1,1.9c0,0.4,0.1,0.7,0.2,1.1c0.2,0.3,0.4,0.6,0.6,0.9
		s0.6,0.4,0.9,0.6C642.5,246.6,642.9,246.7,643.3,246.7z"/>
	<path class="st0" d="M663.4,247.7h-1.6v-7c0-1.5-0.2-2.6-0.7-3.2c-0.4-0.7-1.1-1-2-1c-0.5,0-1,0.1-1.4,0.3
		c-0.5,0.2-0.9,0.4-1.3,0.7c-0.4,0.3-0.8,0.7-1.1,1.1c-0.3,0.4-0.6,0.9-0.7,1.4v7.7h-1.6v-12.5h1.5v2.8c0.5-0.9,1.2-1.6,2.2-2.2
		c1-0.6,2-0.8,3.1-0.8c0.7,0,1.3,0.1,1.8,0.4c0.5,0.3,0.9,0.6,1.2,1.1s0.5,1,0.6,1.7s0.2,1.4,0.2,2.2V247.7z"/>
	<path class="st0" d="M670,247.9c-0.6,0-1.1-0.1-1.6-0.3c-0.5-0.2-0.9-0.5-1.3-0.8c-0.4-0.4-0.7-0.8-0.9-1.2s-0.3-1-0.3-1.5
		c0-0.5,0.1-1,0.4-1.5c0.3-0.5,0.6-0.9,1.1-1.2s1-0.6,1.7-0.8c0.6-0.2,1.3-0.3,2.1-0.3c0.6,0,1.3,0.1,1.9,0.2
		c0.7,0.1,1.2,0.3,1.8,0.5v-1.1c0-1.1-0.3-2-0.9-2.6c-0.6-0.6-1.5-1-2.6-1c-0.6,0-1.3,0.1-2,0.4c-0.7,0.3-1.4,0.6-2,1.1l-0.6-1.1
		c1.6-1.1,3.2-1.6,4.7-1.6c1.6,0,2.8,0.4,3.7,1.3c0.9,0.9,1.3,2.1,1.3,3.6v5.6c0,0.4,0.2,0.7,0.6,0.7v1.4c-0.3,0-0.5,0.1-0.6,0.1
		c-0.4,0-0.7-0.1-1-0.3c-0.2-0.2-0.4-0.5-0.4-0.9l0-1c-0.6,0.8-1.3,1.3-2.2,1.7C672,247.7,671,247.9,670,247.9z M670.4,246.7
		c0.8,0,1.6-0.2,2.3-0.5c0.7-0.3,1.3-0.7,1.6-1.3c0.1-0.1,0.3-0.3,0.3-0.5c0.1-0.2,0.1-0.3,0.1-0.5v-2c-0.5-0.2-1.1-0.4-1.7-0.5
		s-1.2-0.2-1.8-0.2c-1.2,0-2.1,0.2-2.8,0.7c-0.7,0.5-1.1,1.1-1.1,1.9c0,0.4,0.1,0.7,0.2,1.1c0.2,0.3,0.4,0.6,0.6,0.9
		c0.3,0.2,0.6,0.4,0.9,0.6C669.6,246.6,670,246.7,670.4,246.7z"/>
	<path class="st0" d="M680,230.2h1.6v14.7c0,0.5,0.1,0.8,0.4,1.1c0.3,0.3,0.6,0.4,1.1,0.4c0.2,0,0.4,0,0.6-0.1s0.5-0.1,0.7-0.2
		l0.3,1.3c-0.3,0.1-0.7,0.2-1.1,0.3c-0.4,0.1-0.8,0.1-1.1,0.1c-0.8,0-1.3-0.2-1.8-0.6c-0.4-0.4-0.6-1-0.6-1.8V230.2z"/>
	<path class="st0" d="M686.9,251.5c0.1,0,0.3,0,0.4,0s0.2,0,0.3,0c0.3,0,0.5,0,0.7-0.1s0.3-0.3,0.5-0.5c0.2-0.3,0.3-0.7,0.5-1.2
		c0.2-0.5,0.5-1.2,0.9-2.1l-5.4-12.5h1.7l4.6,11l4.3-11h1.6l-6.5,16.1c-0.2,0.5-0.5,0.9-0.9,1.2c-0.4,0.3-1,0.5-1.7,0.5
		c-0.2,0-0.3,0-0.5,0c-0.1,0-0.3,0-0.5-0.1V251.5z"/>
	<path class="st0" d="M698.2,246.6l8.4-10.2h-8.3v-1.2h10v1.1l-8.4,10.2h8.4v1.2h-10.2V246.6z"/>
	<path class="st0" d="M716.1,247.9c-0.9,0-1.7-0.2-2.5-0.5c-0.8-0.3-1.4-0.8-2-1.4c-0.6-0.6-1-1.3-1.3-2.1c-0.3-0.8-0.5-1.6-0.5-2.5
		c0-0.9,0.2-1.7,0.5-2.5c0.3-0.8,0.7-1.5,1.3-2s1.2-1,2-1.4c0.8-0.3,1.6-0.5,2.5-0.5c0.9,0,1.7,0.2,2.5,0.5c0.8,0.3,1.4,0.8,2,1.4
		c0.5,0.6,1,1.3,1.3,2c0.3,0.8,0.5,1.6,0.5,2.4c0,0.1,0,0.3,0,0.4s0,0.2,0,0.3h-10.7c0,0.7,0.2,1.3,0.5,1.9c0.3,0.6,0.6,1.1,1,1.5
		s0.9,0.7,1.4,1c0.5,0.2,1.1,0.3,1.7,0.3c0.4,0,0.8-0.1,1.2-0.2c0.4-0.1,0.8-0.3,1.1-0.5c0.3-0.2,0.6-0.4,0.9-0.7
		c0.3-0.3,0.5-0.6,0.6-0.9l1.4,0.4c-0.2,0.5-0.5,0.9-0.8,1.3c-0.4,0.4-0.8,0.7-1.2,1s-1,0.5-1.5,0.6
		C717.3,247.9,716.7,247.9,716.1,247.9z M720.7,240.8c0-0.7-0.2-1.3-0.5-1.8c-0.3-0.6-0.6-1-1-1.4s-0.9-0.7-1.4-0.9
		c-0.5-0.2-1.1-0.3-1.7-0.3s-1.2,0.1-1.7,0.3c-0.5,0.2-1,0.5-1.4,0.9c-0.4,0.4-0.7,0.9-1,1.4c-0.2,0.6-0.4,1.2-0.4,1.8H720.7z"/>
	<path class="st0" d="M736,247.9c-0.9,0-1.7-0.2-2.4-0.5c-0.7-0.4-1.4-0.8-1.9-1.4s-0.9-1.3-1.2-2.1c-0.3-0.8-0.4-1.6-0.4-2.4
		c0-0.9,0.1-1.7,0.4-2.5s0.7-1.5,1.2-2.1s1.1-1.1,1.8-1.4c0.7-0.3,1.5-0.5,2.3-0.5c1.1,0,2,0.3,2.8,0.8c0.8,0.6,1.5,1.2,1.9,2v-7.6
		h1.6v15.4c0,0.4,0.2,0.7,0.6,0.7v1.4c-0.2,0-0.4,0.1-0.6,0.1c-0.4,0-0.7-0.1-1-0.4s-0.4-0.5-0.4-0.9v-1.2c-0.5,0.8-1.2,1.5-2,1.9
		C737.8,247.7,737,247.9,736,247.9z M736.4,246.5c0.4,0,0.8-0.1,1.3-0.2c0.5-0.2,0.9-0.4,1.3-0.7c0.4-0.3,0.7-0.6,1-1
		c0.3-0.4,0.5-0.8,0.5-1.2v-3.9c-0.2-0.4-0.4-0.8-0.7-1.2c-0.3-0.4-0.7-0.7-1-1c-0.4-0.3-0.8-0.5-1.3-0.7s-0.9-0.2-1.3-0.2
		c-0.7,0-1.3,0.1-1.8,0.4s-1,0.7-1.4,1.1s-0.7,1-0.9,1.6c-0.2,0.6-0.3,1.2-0.3,1.9c0,0.7,0.1,1.3,0.4,1.9s0.6,1.1,1,1.6
		s0.9,0.8,1.5,1.1C735.1,246.4,735.8,246.5,736.4,246.5z"/>
	<path class="st0" d="M749,247.9c-0.6,0-1.1-0.1-1.6-0.3c-0.5-0.2-0.9-0.5-1.3-0.8c-0.4-0.4-0.7-0.8-0.9-1.2s-0.3-1-0.3-1.5
		c0-0.5,0.1-1,0.4-1.5c0.3-0.5,0.6-0.9,1.1-1.2s1-0.6,1.7-0.8c0.6-0.2,1.3-0.3,2.1-0.3c0.6,0,1.3,0.1,1.9,0.2
		c0.7,0.1,1.2,0.3,1.8,0.5v-1.1c0-1.1-0.3-2-0.9-2.6c-0.6-0.6-1.5-1-2.6-1c-0.6,0-1.3,0.1-2,0.4c-0.7,0.3-1.4,0.6-2,1.1l-0.6-1.1
		c1.6-1.1,3.2-1.6,4.7-1.6c1.6,0,2.8,0.4,3.7,1.3c0.9,0.9,1.3,2.1,1.3,3.6v5.6c0,0.4,0.2,0.7,0.6,0.7v1.4c-0.3,0-0.5,0.1-0.6,0.1
		c-0.4,0-0.7-0.1-1-0.3c-0.2-0.2-0.4-0.5-0.4-0.9l0-1c-0.6,0.8-1.3,1.3-2.2,1.7C750.9,247.7,750,247.9,749,247.9z M749.4,246.7
		c0.8,0,1.6-0.2,2.3-0.5c0.7-0.3,1.3-0.7,1.6-1.3c0.1-0.1,0.3-0.3,0.3-0.5c0.1-0.2,0.1-0.3,0.1-0.5v-2c-0.5-0.2-1.1-0.4-1.7-0.5
		s-1.2-0.2-1.8-0.2c-1.2,0-2.1,0.2-2.8,0.7c-0.7,0.5-1.1,1.1-1.1,1.9c0,0.4,0.1,0.7,0.2,1.1c0.2,0.3,0.4,0.6,0.6,0.9
		c0.3,0.2,0.6,0.4,0.9,0.6C748.6,246.6,749,246.7,749.4,246.7z"/>
	<path class="st0" d="M764.8,247.1c-0.1,0-0.2,0.1-0.4,0.2c-0.2,0.1-0.4,0.2-0.6,0.2c-0.2,0.1-0.5,0.2-0.8,0.2s-0.6,0.1-1,0.1
		c-0.4,0-0.7,0-1-0.1c-0.3-0.1-0.6-0.2-0.8-0.4c-0.2-0.2-0.4-0.5-0.6-0.8c-0.1-0.3-0.2-0.7-0.2-1.1v-9h-1.7v-1.3h1.7V231h1.6v4.2
		h2.9v1.3H761v8.5c0,0.5,0.2,0.8,0.5,1c0.3,0.2,0.6,0.3,1,0.3c0.5,0,0.9-0.1,1.2-0.2c0.4-0.2,0.6-0.3,0.7-0.3L764.8,247.1z"/>
	<path class="st0" d="M770,247.9c-0.6,0-1.1-0.1-1.6-0.3c-0.5-0.2-0.9-0.5-1.3-0.8c-0.4-0.4-0.7-0.8-0.9-1.2c-0.2-0.5-0.3-1-0.3-1.5
		c0-0.5,0.1-1,0.4-1.5c0.3-0.5,0.6-0.9,1.1-1.2s1-0.6,1.7-0.8c0.6-0.2,1.3-0.3,2.1-0.3c0.6,0,1.3,0.1,1.9,0.2
		c0.7,0.1,1.2,0.3,1.8,0.5v-1.1c0-1.1-0.3-2-0.9-2.6c-0.6-0.6-1.5-1-2.6-1c-0.6,0-1.3,0.1-2,0.4c-0.7,0.3-1.4,0.6-2,1.1l-0.6-1.1
		c1.6-1.1,3.2-1.6,4.7-1.6c1.6,0,2.8,0.4,3.7,1.3c0.9,0.9,1.3,2.1,1.3,3.6v5.6c0,0.4,0.2,0.7,0.6,0.7v1.4c-0.3,0-0.5,0.1-0.6,0.1
		c-0.4,0-0.7-0.1-1-0.3c-0.2-0.2-0.4-0.5-0.4-0.9l0-1c-0.6,0.8-1.3,1.3-2.2,1.7C772,247.7,771,247.9,770,247.9z M770.4,246.7
		c0.8,0,1.6-0.2,2.3-0.5c0.7-0.3,1.3-0.7,1.6-1.3c0.1-0.1,0.3-0.3,0.3-0.5c0.1-0.2,0.1-0.3,0.1-0.5v-2c-0.5-0.2-1.1-0.4-1.7-0.5
		s-1.2-0.2-1.8-0.2c-1.2,0-2.1,0.2-2.8,0.7c-0.7,0.5-1.1,1.1-1.1,1.9c0,0.4,0.1,0.7,0.2,1.1c0.2,0.3,0.4,0.6,0.6,0.9
		s0.6,0.4,0.9,0.6C769.6,246.6,770,246.7,770.4,246.7z"/>
</g>
<g>
	<path class="st1" d="M352,177.5c-0.1-0.1-0.3-0.3-0.6-0.5c-0.3-0.2-0.7-0.4-1.1-0.6c-0.4-0.2-0.9-0.3-1.4-0.5
		c-0.5-0.1-1-0.2-1.5-0.2c-0.9,0-1.6,0.2-2,0.5s-0.7,0.8-0.7,1.4c0,0.4,0.1,0.6,0.3,0.9c0.2,0.2,0.4,0.4,0.7,0.6
		c0.3,0.2,0.7,0.3,1.2,0.5c0.5,0.1,1.1,0.3,1.7,0.5c0.8,0.2,1.6,0.5,2.3,0.7c0.7,0.3,1.3,0.6,1.7,1c0.5,0.4,0.8,0.8,1.1,1.4
		c0.3,0.5,0.4,1.2,0.4,2c0,0.9-0.2,1.7-0.5,2.3c-0.3,0.6-0.8,1.2-1.4,1.6c-0.6,0.4-1.3,0.7-2,0.9c-0.8,0.2-1.6,0.3-2.4,0.3
		c-1.3,0-2.5-0.2-3.8-0.6s-2.4-0.9-3.4-1.6l1.5-2.9c0.1,0.1,0.4,0.3,0.8,0.6c0.4,0.2,0.8,0.5,1.3,0.7c0.5,0.2,1.1,0.4,1.7,0.6
		c0.6,0.2,1.3,0.2,1.9,0.2c1.8,0,2.7-0.6,2.7-1.8c0-0.4-0.1-0.7-0.3-0.9c-0.2-0.3-0.5-0.5-0.9-0.7c-0.4-0.2-0.8-0.4-1.4-0.5
		s-1.2-0.3-1.8-0.5c-0.8-0.2-1.5-0.5-2.1-0.7c-0.6-0.3-1.1-0.6-1.5-0.9c-0.4-0.4-0.7-0.8-0.9-1.2c-0.2-0.5-0.3-1-0.3-1.7
		c0-0.9,0.2-1.6,0.5-2.3c0.3-0.7,0.8-1.2,1.3-1.7c0.6-0.4,1.2-0.8,2-1c0.8-0.2,1.6-0.3,2.4-0.3c1.2,0,2.3,0.2,3.3,0.6
		s1.9,0.8,2.6,1.3L352,177.5z"/>
	<path class="st1" d="M355.5,183.8c0-0.9,0.2-1.7,0.5-2.5c0.3-0.8,0.7-1.5,1.3-2.1s1.3-1.1,2.1-1.4c0.8-0.4,1.7-0.5,2.8-0.5
		c1.4,0,2.5,0.3,3.5,0.9c1,0.6,1.7,1.4,2.2,2.3l-3.1,1c-0.3-0.5-0.6-0.8-1.1-1.1s-0.9-0.4-1.5-0.4c-0.5,0-0.9,0.1-1.3,0.3
		c-0.4,0.2-0.7,0.4-1,0.8s-0.5,0.7-0.7,1.2c-0.2,0.5-0.3,1-0.3,1.5c0,0.6,0.1,1.1,0.3,1.5c0.2,0.5,0.4,0.9,0.7,1.2s0.6,0.6,1,0.8
		c0.4,0.2,0.8,0.3,1.3,0.3c0.6,0,1.1-0.1,1.6-0.4c0.5-0.3,0.8-0.6,1-1.1l3.1,1c-0.4,1-1.1,1.7-2.1,2.4c-1,0.6-2.2,0.9-3.6,0.9
		c-1,0-1.9-0.2-2.8-0.5c-0.8-0.4-1.5-0.8-2.1-1.4c-0.6-0.6-1-1.3-1.3-2.1C355.6,185.5,355.5,184.7,355.5,183.8z"/>
	<path class="st1" d="M381.5,190.1h-3.2V183c0-1-0.2-1.7-0.6-2.2s-0.9-0.7-1.6-0.7c-0.3,0-0.6,0.1-0.9,0.2c-0.3,0.1-0.6,0.3-0.9,0.5
		c-0.3,0.2-0.6,0.5-0.8,0.8c-0.2,0.3-0.4,0.7-0.5,1.1v7.3h-3.2v-17.5h3.2v7.3c0.5-0.8,1.1-1.4,1.9-1.9s1.7-0.7,2.6-0.7
		c0.8,0,1.5,0.1,2,0.4c0.5,0.3,0.9,0.7,1.2,1.1s0.5,1,0.6,1.6c0.1,0.6,0.2,1.2,0.2,1.8V190.1z"/>
	<path class="st1" d="M390.1,190.3c-1,0-1.9-0.2-2.7-0.5c-0.8-0.3-1.5-0.8-2.1-1.4c-0.6-0.6-1-1.3-1.3-2.1c-0.3-0.8-0.5-1.6-0.5-2.5
		c0-0.9,0.2-1.7,0.5-2.5s0.7-1.5,1.3-2.1s1.3-1.1,2.1-1.4c0.8-0.4,1.7-0.5,2.8-0.5c1,0,1.9,0.2,2.7,0.5c0.8,0.4,1.5,0.8,2.1,1.4
		s1,1.3,1.3,2.1c0.3,0.8,0.4,1.6,0.4,2.4c0,0.2,0,0.4,0,0.6c0,0.2,0,0.4-0.1,0.5h-9.7c0,0.5,0.2,0.9,0.4,1.3c0.2,0.4,0.4,0.7,0.7,1
		c0.3,0.3,0.6,0.5,1,0.6c0.4,0.1,0.8,0.2,1.2,0.2c0.6,0,1.2-0.2,1.8-0.5c0.6-0.3,1-0.7,1.2-1.2l2.8,0.8c-0.5,1-1.2,1.7-2.2,2.4
		C392.8,190,391.5,190.3,390.1,190.3z M393.4,182.8c-0.1-0.9-0.4-1.7-1-2.3c-0.6-0.6-1.4-0.9-2.2-0.9c-0.4,0-0.8,0.1-1.2,0.2
		c-0.4,0.2-0.7,0.4-1,0.6c-0.3,0.3-0.5,0.6-0.7,1c-0.2,0.4-0.3,0.8-0.3,1.3H393.4z"/>
	<path class="st1" d="M418.2,190.1H415V183c0-1-0.2-1.7-0.5-2.2c-0.3-0.5-0.8-0.7-1.4-0.7c-0.6,0-1.2,0.2-1.8,0.7
		c-0.6,0.5-1,1.1-1.2,1.9v7.3h-3.2V183c0-1-0.2-1.7-0.5-2.2c-0.3-0.5-0.8-0.7-1.4-0.7c-0.6,0-1.2,0.2-1.8,0.7
		c-0.6,0.5-1,1.1-1.2,1.9v7.3h-3.2v-12.6h2.9v2.3c0.5-0.8,1.1-1.4,1.9-1.9c0.8-0.4,1.7-0.7,2.8-0.7c1.1,0,1.9,0.3,2.4,0.8
		c0.6,0.5,0.9,1.1,1.1,1.9c0.5-0.9,1.2-1.5,1.9-2s1.7-0.7,2.7-0.7c0.8,0,1.4,0.1,1.9,0.4s0.9,0.7,1.2,1.1c0.3,0.5,0.5,1,0.6,1.6
		c0.1,0.6,0.2,1.2,0.2,1.8V190.1z"/>
	<path class="st1" d="M424.5,190.3c-0.6,0-1.2-0.1-1.7-0.3c-0.5-0.2-1-0.5-1.4-0.8c-0.4-0.4-0.7-0.8-0.9-1.3c-0.2-0.5-0.3-1-0.3-1.6
		c0-0.6,0.1-1.1,0.4-1.6s0.6-0.9,1.1-1.3s1-0.6,1.7-0.8s1.4-0.3,2.2-0.3c0.6,0,1.1,0,1.6,0.1c0.5,0.1,1,0.2,1.4,0.4v-0.7
		c0-0.8-0.2-1.5-0.7-1.9c-0.5-0.4-1.2-0.7-2.1-0.7c-0.7,0-1.3,0.1-2,0.4c-0.6,0.2-1.3,0.6-2,1.1l-1-2c1.6-1.1,3.4-1.6,5.2-1.6
		c1.8,0,3.2,0.4,4.2,1.3s1.5,2.2,1.5,3.9v3.9c0,0.3,0.1,0.6,0.2,0.7c0.1,0.1,0.3,0.2,0.6,0.2v2.7c-0.5,0.1-1,0.2-1.4,0.2
		c-0.6,0-1.1-0.1-1.4-0.4c-0.3-0.3-0.5-0.6-0.6-1.1l-0.1-0.7c-0.6,0.7-1.2,1.3-2,1.7S425.4,190.3,424.5,190.3z M425.4,188
		c0.5,0,1.1-0.1,1.5-0.3c0.5-0.2,0.9-0.4,1.1-0.8c0.4-0.3,0.5-0.6,0.5-0.9v-1.4c-0.4-0.1-0.8-0.3-1.2-0.3c-0.4-0.1-0.9-0.1-1.3-0.1
		c-0.8,0-1.5,0.2-2,0.6c-0.5,0.4-0.8,0.9-0.8,1.4c0,0.5,0.2,1,0.6,1.4C424.2,187.8,424.8,188,425.4,188z"/>
</g>
<g>
	<path class="st2" d="M13.5,150c-0.4,0-0.8,0-1.3-0.1l-2.1,0v-0.9l-0.1-0.1c-1.6-1.1-2.6-3-2.6-5V6.1c0-3.4,2.7-6.1,6.1-6.1h155.8
		c1.6,0,3.2,0.6,4.3,1.8c1.2,1.2,1.8,2.7,1.8,4.3v137.8c0,2.7-1.9,5.1-4.5,5.9l-0.1,0v0h-0.1c-0.5,0.1-0.9,0.2-1.3,0.2H13.5z"/>
	<g>
		<path class="st3" d="M128.5,144.8h41.3l0,0c0.3-0.2,0.5-0.5,0.5-0.9v-16.5h-41.9V144.8z"/>
		<rect x="82.7" y="127.4" class="st3" width="40.8" height="17.5"/>
		<rect x="37.3" y="127.4" class="st3" width="40.4" height="17.5"/>
		<path class="st3" d="M12.5,143.9c0,0.4,0.2,0.7,0.5,0.9l0,0h19.3v-17.5H12.5V143.9z"/>
		<rect x="128.5" y="104.3" class="st3" width="41.9" height="18.1"/>
		<rect x="82.7" y="104.3" class="st3" width="40.8" height="18.1"/>
		<rect x="37.3" y="104.3" class="st3" width="40.4" height="18.1"/>
		<rect x="12.5" y="104.3" class="st3" width="19.8" height="18.1"/>
		<rect x="128.5" y="80.2" class="st3" width="41.9" height="19.1"/>
		<rect x="82.7" y="80.2" class="st3" width="40.8" height="19.1"/>
		<rect x="37.3" y="80.2" class="st3" width="40.4" height="19.1"/>
		<rect x="12.5" y="80.2" class="st3" width="19.8" height="19.1"/>
		<rect x="128.5" y="54.6" class="st3" width="41.9" height="20.6"/>
		<rect x="82.7" y="54.6" class="st3" width="40.8" height="20.6"/>
		<rect x="37.3" y="54.6" class="st3" width="40.4" height="20.6"/>
		<rect x="12.5" y="54.6" class="st3" width="19.8" height="20.6"/>
		<rect x="128.5" y="29.4" class="st3" width="41.9" height="20.1"/>
		<rect x="82.7" y="29.4" class="st3" width="40.8" height="20.1"/>
		<rect x="37.3" y="29.4" class="st3" width="40.4" height="20.1"/>
		<rect x="12.5" y="29.4" class="st3" width="19.8" height="20.1"/>
		<path class="st3" d="M128.5,24.4h41.9V6.1c0-0.6-0.5-1.1-1.1-1.1h-40.8V24.4z"/>
		<rect x="82.7" y="5" class="st3" width="40.8" height="19.4"/>
		<rect x="37.3" y="5" class="st3" width="40.4" height="19.4"/>
	</g>
</g>
<g>
	<path class="st2" d="M37.5,173.1h2.9l6.5,17h-3.4l-1.6-4.2h-6l-1.6,4.2H31L37.5,173.1z M41.3,183.5l-2.4-6.7l-2.4,6.7H41.3z"/>
	<path class="st2" d="M60.1,190.1h-3.2V183c0-1-0.2-1.7-0.5-2.2c-0.4-0.5-0.8-0.7-1.5-0.7c-0.3,0-0.6,0.1-1,0.2s-0.7,0.3-0.9,0.5
		c-0.3,0.2-0.6,0.5-0.8,0.8c-0.2,0.3-0.4,0.7-0.5,1.1v7.3h-3.2v-12.6h2.9v2.3c0.5-0.8,1.1-1.4,2-1.9c0.9-0.4,1.9-0.7,3-0.7
		c0.8,0,1.4,0.1,1.9,0.4s0.9,0.7,1.2,1.1c0.3,0.5,0.5,1,0.6,1.6c0.1,0.6,0.2,1.2,0.2,1.8V190.1z"/>
	<path class="st2" d="M74.6,190.1h-3.2V183c0-1-0.2-1.7-0.5-2.2c-0.4-0.5-0.8-0.7-1.5-0.7c-0.3,0-0.6,0.1-1,0.2s-0.7,0.3-0.9,0.5
		c-0.3,0.2-0.6,0.5-0.8,0.8c-0.2,0.3-0.4,0.7-0.5,1.1v7.3h-3.2v-12.6h2.9v2.3c0.5-0.8,1.1-1.4,2-1.9c0.9-0.4,1.9-0.7,3-0.7
		c0.8,0,1.4,0.1,1.9,0.4s0.9,0.7,1.2,1.1c0.3,0.5,0.5,1,0.6,1.6c0.1,0.6,0.2,1.2,0.2,1.8V190.1z"/>
	<path class="st2" d="M83.2,190.3c-1,0-1.9-0.2-2.8-0.5c-0.8-0.4-1.5-0.8-2.1-1.4c-0.6-0.6-1-1.3-1.3-2.1c-0.3-0.8-0.5-1.6-0.5-2.5
		c0-0.9,0.2-1.7,0.5-2.5c0.3-0.8,0.7-1.5,1.3-2.1c0.6-0.6,1.3-1.1,2.1-1.4c0.8-0.4,1.7-0.5,2.8-0.5s1.9,0.2,2.7,0.5
		c0.8,0.4,1.5,0.8,2.1,1.4s1,1.3,1.3,2.1c0.3,0.8,0.5,1.6,0.5,2.5c0,0.9-0.2,1.7-0.5,2.5c-0.3,0.8-0.7,1.5-1.3,2.1
		c-0.6,0.6-1.2,1.1-2.1,1.4C85.2,190.2,84.3,190.3,83.2,190.3z M80,183.8c0,0.6,0.1,1.1,0.3,1.5s0.4,0.9,0.7,1.2
		c0.3,0.3,0.6,0.6,1,0.8c0.4,0.2,0.8,0.3,1.3,0.3c0.5,0,0.9-0.1,1.3-0.3c0.4-0.2,0.7-0.4,1-0.8s0.5-0.7,0.7-1.2s0.3-1,0.3-1.5
		c0-0.5-0.1-1-0.3-1.5s-0.4-0.9-0.7-1.2s-0.6-0.6-1-0.8c-0.4-0.2-0.8-0.3-1.3-0.3c-0.5,0-0.9,0.1-1.3,0.3c-0.4,0.2-0.7,0.5-1,0.8
		c-0.3,0.3-0.5,0.7-0.7,1.2C80,182.8,80,183.3,80,183.8z"/>
	<path class="st2" d="M99.3,189.5c-0.4,0.2-1,0.4-1.6,0.6c-0.6,0.2-1.3,0.3-2,0.3c-0.4,0-0.9-0.1-1.3-0.2c-0.4-0.1-0.7-0.3-1-0.5
		s-0.5-0.6-0.7-1c-0.2-0.4-0.3-0.9-0.3-1.4V180h-1.7v-2.5h1.7v-4.1h3.2v4.1h2.6v2.5h-2.6v6.1c0,0.4,0.1,0.8,0.3,0.9s0.5,0.3,0.9,0.3
		s0.7-0.1,1-0.2c0.3-0.1,0.6-0.2,0.8-0.3L99.3,189.5z"/>
	<path class="st2" d="M104.5,190.3c-0.6,0-1.2-0.1-1.7-0.3c-0.5-0.2-1-0.5-1.4-0.8c-0.4-0.4-0.7-0.8-0.9-1.3c-0.2-0.5-0.3-1-0.3-1.6
		c0-0.6,0.1-1.1,0.4-1.6c0.3-0.5,0.6-0.9,1.1-1.3c0.5-0.4,1-0.6,1.7-0.8c0.7-0.2,1.4-0.3,2.2-0.3c0.6,0,1.1,0,1.6,0.1
		c0.5,0.1,1,0.2,1.4,0.4v-0.7c0-0.8-0.2-1.5-0.7-1.9c-0.5-0.4-1.2-0.7-2.1-0.7c-0.7,0-1.3,0.1-2,0.4c-0.6,0.2-1.3,0.6-2,1.1l-1-2
		c1.6-1.1,3.4-1.6,5.2-1.6c1.8,0,3.2,0.4,4.2,1.3c1,0.9,1.5,2.2,1.5,3.9v3.9c0,0.3,0.1,0.6,0.2,0.7c0.1,0.1,0.3,0.2,0.6,0.2v2.7
		c-0.5,0.1-1,0.2-1.4,0.2c-0.6,0-1.1-0.1-1.4-0.4c-0.3-0.3-0.5-0.6-0.6-1.1l-0.1-0.7c-0.6,0.7-1.2,1.3-2,1.7
		C106.2,190.2,105.4,190.3,104.5,190.3z M105.4,188c0.5,0,1.1-0.1,1.5-0.3c0.5-0.2,0.9-0.4,1.1-0.8c0.4-0.3,0.5-0.6,0.5-0.9v-1.4
		c-0.4-0.1-0.8-0.3-1.2-0.3c-0.4-0.1-0.9-0.1-1.3-0.1c-0.8,0-1.5,0.2-2,0.6s-0.8,0.9-0.8,1.4c0,0.5,0.2,1,0.6,1.4
		C104.3,187.8,104.8,188,105.4,188z"/>
	<path class="st2" d="M122.2,189.5c-0.4,0.2-1,0.4-1.6,0.6c-0.6,0.2-1.3,0.3-2,0.3c-0.4,0-0.9-0.1-1.3-0.2c-0.4-0.1-0.7-0.3-1-0.5
		s-0.5-0.6-0.7-1c-0.2-0.4-0.3-0.9-0.3-1.4V180h-1.7v-2.5h1.7v-4.1h3.2v4.1h2.6v2.5h-2.6v6.1c0,0.4,0.1,0.8,0.3,0.9s0.5,0.3,0.9,0.3
		s0.7-0.1,1-0.2c0.3-0.1,0.6-0.2,0.8-0.3L122.2,189.5z"/>
	<path class="st2" d="M129.4,190.3c-1,0-1.9-0.2-2.7-0.5c-0.8-0.3-1.5-0.8-2.1-1.4c-0.6-0.6-1-1.3-1.3-2.1c-0.3-0.8-0.5-1.6-0.5-2.5
		c0-0.9,0.2-1.7,0.5-2.5c0.3-0.8,0.7-1.5,1.3-2.1c0.6-0.6,1.3-1.1,2.1-1.4c0.8-0.4,1.7-0.5,2.8-0.5s1.9,0.2,2.7,0.5
		c0.8,0.4,1.5,0.8,2.1,1.4s1,1.3,1.3,2.1c0.3,0.8,0.4,1.6,0.4,2.4c0,0.2,0,0.4,0,0.6c0,0.2,0,0.4-0.1,0.5h-9.7
		c0,0.5,0.2,0.9,0.4,1.3c0.2,0.4,0.4,0.7,0.7,1c0.3,0.3,0.6,0.5,1,0.6c0.4,0.1,0.8,0.2,1.2,0.2c0.6,0,1.2-0.2,1.8-0.5
		c0.6-0.3,1-0.7,1.2-1.2l2.8,0.8c-0.5,1-1.2,1.7-2.2,2.4C132.1,190,130.9,190.3,129.4,190.3z M132.7,182.8c-0.1-0.9-0.4-1.7-1-2.3
		c-0.6-0.6-1.4-0.9-2.2-0.9c-0.4,0-0.8,0.1-1.2,0.2c-0.4,0.2-0.7,0.4-1,0.6c-0.3,0.3-0.5,0.6-0.7,1c-0.2,0.4-0.3,0.8-0.3,1.3H132.7z
		"/>
	<path class="st2" d="M143.2,190.3c-0.9,0-1.7-0.2-2.4-0.5c-0.7-0.3-1.4-0.8-1.9-1.4c-0.5-0.6-0.9-1.3-1.2-2.1
		c-0.3-0.8-0.4-1.6-0.4-2.6s0.1-1.8,0.4-2.5c0.3-0.8,0.7-1.5,1.2-2.1c0.5-0.6,1.1-1.1,1.8-1.4c0.7-0.3,1.4-0.5,2.3-0.5
		c0.9,0,1.8,0.2,2.5,0.7c0.7,0.4,1.3,1,1.7,1.8v-7.2h3.2v13.8c0,0.3,0.1,0.6,0.2,0.7c0.1,0.1,0.3,0.2,0.6,0.2v2.7
		c-0.6,0.1-1,0.2-1.4,0.2c-0.6,0-1-0.1-1.4-0.4s-0.6-0.7-0.6-1.1l-0.1-0.8c-0.5,0.8-1.1,1.4-1.9,1.8
		C144.9,190.1,144.1,190.3,143.2,190.3z M144,187.6c0.3,0,0.6-0.1,0.9-0.2c0.3-0.1,0.6-0.3,0.9-0.4c0.3-0.2,0.5-0.4,0.7-0.7
		c0.2-0.3,0.4-0.5,0.5-0.8v-3c-0.1-0.4-0.3-0.7-0.5-1s-0.5-0.6-0.8-0.8c-0.3-0.2-0.6-0.4-0.9-0.5c-0.3-0.1-0.7-0.2-1-0.2
		c-0.5,0-0.9,0.1-1.3,0.3c-0.4,0.2-0.8,0.5-1,0.9c-0.3,0.4-0.5,0.8-0.7,1.2c-0.2,0.5-0.2,0.9-0.2,1.4c0,0.5,0.1,1,0.3,1.5
		c0.2,0.4,0.4,0.8,0.7,1.2c0.3,0.3,0.7,0.6,1.1,0.8C143.1,187.5,143.5,187.6,144,187.6z"/>
	<path class="st2" d="M19.8,219.1c-1.1,0-2.1-0.2-3.1-0.5c-1-0.3-1.9-0.8-2.6-1.4l1.2-2c0.8,0.5,1.5,1,2.2,1.2
		c0.7,0.3,1.5,0.4,2.2,0.4c0.6,0,1.1-0.1,1.5-0.4s0.6-0.6,0.6-1c0-0.4-0.2-0.8-0.6-1c-0.4-0.2-1.1-0.4-2.1-0.7
		c-0.8-0.2-1.5-0.4-2.1-0.6c-0.6-0.2-1-0.4-1.4-0.7c-0.4-0.3-0.6-0.6-0.8-0.9c-0.2-0.3-0.2-0.8-0.2-1.2c0-0.6,0.1-1.2,0.4-1.7
		c0.2-0.5,0.6-0.9,1-1.3c0.4-0.4,1-0.6,1.6-0.8c0.6-0.2,1.3-0.3,2-0.3c0.9,0,1.8,0.1,2.7,0.4c0.8,0.3,1.6,0.7,2.3,1.3l-1.3,1.9
		c-0.6-0.5-1.3-0.8-1.9-1.1c-0.6-0.2-1.2-0.3-1.8-0.3c-0.5,0-1,0.1-1.4,0.3c-0.4,0.2-0.6,0.6-0.6,1.1c0,0.2,0,0.4,0.1,0.6
		c0.1,0.1,0.2,0.3,0.4,0.4c0.2,0.1,0.4,0.2,0.8,0.3c0.3,0.1,0.7,0.2,1.2,0.3c0.9,0.2,1.6,0.4,2.2,0.7c0.6,0.2,1.1,0.5,1.5,0.8
		c0.4,0.3,0.7,0.6,0.9,1s0.3,0.8,0.3,1.4c0,1.2-0.5,2.2-1.4,2.9S21.4,219.1,19.8,219.1z"/>
	<path class="st2" d="M34.5,219.1c-1,0-1.9-0.2-2.6-0.7c-0.7-0.4-1.3-1-1.7-1.8v7.3H27v-17.7h2.8v2.2c0.5-0.7,1.1-1.3,1.8-1.7
		c0.7-0.4,1.6-0.6,2.5-0.6c0.8,0,1.6,0.2,2.4,0.5c0.7,0.3,1.3,0.8,1.9,1.4c0.5,0.6,0.9,1.3,1.2,2.1s0.4,1.6,0.4,2.5
		c0,0.9-0.1,1.8-0.4,2.6c-0.3,0.8-0.7,1.5-1.1,2.1c-0.5,0.6-1.1,1.1-1.7,1.4S35.3,219.1,34.5,219.1z M33.4,216.4
		c0.5,0,0.9-0.1,1.3-0.3c0.4-0.2,0.8-0.5,1-0.8c0.3-0.4,0.5-0.8,0.7-1.2c0.2-0.5,0.2-0.9,0.2-1.4c0-0.5-0.1-1-0.3-1.5
		s-0.4-0.9-0.7-1.2s-0.7-0.6-1.1-0.8c-0.4-0.2-0.9-0.3-1.4-0.3c-0.3,0-0.6,0.1-0.9,0.2c-0.3,0.1-0.6,0.3-0.9,0.4s-0.5,0.4-0.7,0.7
		c-0.2,0.3-0.4,0.5-0.5,0.8v3c0.3,0.7,0.7,1.3,1.3,1.8C32.1,216.2,32.8,216.4,33.4,216.4z"/>
	<path class="st2" d="M49.7,209.1c-1,0-1.8,0.2-2.6,0.6c-0.8,0.4-1.3,0.9-1.7,1.6v7.6h-3.2v-12.6h3v2.7c0.2-0.4,0.5-0.8,0.8-1.2
		c0.3-0.3,0.6-0.6,1-0.9s0.7-0.5,1.1-0.6c0.4-0.1,0.7-0.2,1-0.2c0.2,0,0.3,0,0.4,0c0.1,0,0.2,0,0.3,0V209.1z"/>
	<path class="st2" d="M56.7,219.1c-1,0-1.9-0.2-2.7-0.5c-0.8-0.3-1.5-0.8-2.1-1.4c-0.6-0.6-1-1.3-1.3-2.1c-0.3-0.8-0.5-1.6-0.5-2.5
		c0-0.9,0.2-1.7,0.5-2.5c0.3-0.8,0.7-1.5,1.3-2.1c0.6-0.6,1.3-1.1,2.1-1.4c0.8-0.4,1.7-0.5,2.8-0.5s1.9,0.2,2.7,0.5
		c0.8,0.4,1.5,0.8,2.1,1.4s1,1.3,1.3,2.1c0.3,0.8,0.4,1.6,0.4,2.4c0,0.2,0,0.4,0,0.6c0,0.2,0,0.4-0.1,0.5h-9.7
		c0,0.5,0.2,0.9,0.4,1.3c0.2,0.4,0.4,0.7,0.7,1c0.3,0.3,0.6,0.5,1,0.6c0.4,0.1,0.8,0.2,1.2,0.2c0.6,0,1.2-0.2,1.8-0.5
		c0.6-0.3,1-0.7,1.2-1.2l2.8,0.8c-0.5,1-1.2,1.7-2.2,2.4C59.3,218.8,58.1,219.1,56.7,219.1z M60,211.6c-0.1-0.9-0.4-1.7-1-2.3
		c-0.6-0.6-1.4-0.9-2.2-0.9c-0.4,0-0.8,0.1-1.2,0.2c-0.4,0.2-0.7,0.4-1,0.6c-0.3,0.3-0.5,0.6-0.7,1c-0.2,0.4-0.3,0.8-0.3,1.3H60z"/>
	<path class="st2" d="M68.7,219.1c-0.6,0-1.2-0.1-1.7-0.3c-0.5-0.2-1-0.5-1.4-0.8c-0.4-0.4-0.7-0.8-0.9-1.3c-0.2-0.5-0.3-1-0.3-1.6
		c0-0.6,0.1-1.1,0.4-1.6c0.3-0.5,0.6-0.9,1.1-1.3c0.5-0.4,1-0.6,1.7-0.8c0.7-0.2,1.4-0.3,2.2-0.3c0.6,0,1.1,0,1.6,0.1
		c0.5,0.1,1,0.2,1.4,0.4v-0.7c0-0.8-0.2-1.5-0.7-1.9c-0.5-0.4-1.2-0.7-2.1-0.7c-0.7,0-1.3,0.1-2,0.4c-0.6,0.2-1.3,0.6-2,1.1l-1-2
		c1.6-1.1,3.4-1.6,5.2-1.6c1.8,0,3.2,0.4,4.2,1.3c1,0.9,1.5,2.2,1.5,3.9v3.9c0,0.3,0.1,0.6,0.2,0.7c0.1,0.1,0.3,0.2,0.6,0.2v2.7
		c-0.5,0.1-1,0.2-1.4,0.2c-0.6,0-1.1-0.1-1.4-0.4c-0.3-0.3-0.5-0.6-0.6-1.1l-0.1-0.7c-0.6,0.7-1.2,1.3-2,1.7
		C70.4,219,69.6,219.1,68.7,219.1z M69.6,216.8c0.5,0,1.1-0.1,1.5-0.3c0.5-0.2,0.9-0.4,1.1-0.8c0.4-0.3,0.5-0.6,0.5-0.9v-1.4
		c-0.4-0.1-0.8-0.3-1.2-0.3c-0.4-0.1-0.9-0.1-1.3-0.1c-0.8,0-1.5,0.2-2,0.6s-0.8,0.9-0.8,1.4c0,0.5,0.2,1,0.6,1.4
		C68.5,216.6,69,216.8,69.6,216.8z"/>
	<path class="st2" d="M84.2,219.1c-0.9,0-1.7-0.2-2.4-0.5c-0.7-0.3-1.4-0.8-1.9-1.4c-0.5-0.6-0.9-1.3-1.2-2.1
		c-0.3-0.8-0.4-1.6-0.4-2.6s0.1-1.8,0.4-2.5c0.3-0.8,0.7-1.5,1.2-2.1c0.5-0.6,1.1-1.1,1.8-1.4c0.7-0.3,1.4-0.5,2.3-0.5
		c0.9,0,1.8,0.2,2.5,0.7c0.7,0.4,1.3,1,1.7,1.8v-7.2h3.2v13.8c0,0.3,0.1,0.6,0.2,0.7c0.1,0.1,0.3,0.2,0.6,0.2v2.7
		c-0.6,0.1-1,0.2-1.4,0.2c-0.6,0-1-0.1-1.4-0.4s-0.6-0.7-0.6-1.1l-0.1-0.8c-0.5,0.8-1.1,1.4-1.9,1.8
		C85.9,218.9,85.1,219.1,84.2,219.1z M85.1,216.4c0.3,0,0.6-0.1,0.9-0.2c0.3-0.1,0.6-0.3,0.9-0.4c0.3-0.2,0.5-0.4,0.7-0.7
		c0.2-0.3,0.4-0.5,0.5-0.8v-3c-0.1-0.4-0.3-0.7-0.5-1s-0.5-0.6-0.8-0.8c-0.3-0.2-0.6-0.4-0.9-0.5c-0.3-0.1-0.7-0.2-1-0.2
		c-0.5,0-0.9,0.1-1.3,0.3c-0.4,0.2-0.8,0.5-1,0.9c-0.3,0.4-0.5,0.8-0.7,1.2c-0.2,0.5-0.2,0.9-0.2,1.4c0,0.5,0.1,1,0.3,1.5
		c0.2,0.4,0.4,0.8,0.7,1.2c0.3,0.3,0.7,0.6,1.1,0.8C84.1,216.3,84.6,216.4,85.1,216.4z"/>
	<path class="st2" d="M99.3,219.1c-1.1,0-2.1-0.2-3.1-0.5c-1-0.3-1.9-0.8-2.6-1.4l1.2-2c0.8,0.5,1.5,1,2.2,1.2
		c0.7,0.3,1.5,0.4,2.2,0.4c0.6,0,1.1-0.1,1.5-0.4s0.6-0.6,0.6-1c0-0.4-0.2-0.8-0.6-1c-0.4-0.2-1.1-0.4-2.1-0.7
		c-0.8-0.2-1.5-0.4-2.1-0.6c-0.6-0.2-1-0.4-1.4-0.7c-0.4-0.3-0.6-0.6-0.8-0.9c-0.2-0.3-0.2-0.8-0.2-1.2c0-0.6,0.1-1.2,0.4-1.7
		c0.2-0.5,0.6-0.9,1-1.3c0.4-0.4,1-0.6,1.6-0.8c0.6-0.2,1.3-0.3,2-0.3c0.9,0,1.8,0.1,2.7,0.4c0.8,0.3,1.6,0.7,2.3,1.3l-1.3,1.9
		c-0.6-0.5-1.3-0.8-1.9-1.1c-0.6-0.2-1.2-0.3-1.8-0.3c-0.5,0-1,0.1-1.4,0.3c-0.4,0.2-0.6,0.6-0.6,1.1c0,0.2,0,0.4,0.1,0.6
		c0.1,0.1,0.2,0.3,0.4,0.4c0.2,0.1,0.4,0.2,0.8,0.3c0.3,0.1,0.7,0.2,1.2,0.3c0.9,0.2,1.6,0.4,2.2,0.7c0.6,0.2,1.1,0.5,1.5,0.8
		c0.4,0.3,0.7,0.6,0.9,1s0.3,0.8,0.3,1.4c0,1.2-0.5,2.2-1.4,2.9S100.8,219.1,99.3,219.1z"/>
	<path class="st2" d="M118.1,218.9h-3.2v-7.1c0-1-0.2-1.7-0.6-2.2s-0.9-0.7-1.6-0.7c-0.3,0-0.6,0.1-0.9,0.2
		c-0.3,0.1-0.6,0.3-0.9,0.5c-0.3,0.2-0.6,0.5-0.8,0.8c-0.2,0.3-0.4,0.7-0.5,1.1v7.3h-3.2v-17.5h3.2v7.3c0.5-0.8,1.1-1.4,1.9-1.9
		s1.7-0.7,2.6-0.7c0.8,0,1.5,0.1,2,0.4c0.5,0.3,0.9,0.7,1.2,1.1c0.3,0.5,0.5,1,0.6,1.6s0.2,1.2,0.2,1.8V218.9z"/>
	<path class="st2" d="M126.8,219.1c-1,0-1.9-0.2-2.7-0.5c-0.8-0.3-1.5-0.8-2.1-1.4c-0.6-0.6-1-1.3-1.3-2.1c-0.3-0.8-0.5-1.6-0.5-2.5
		c0-0.9,0.2-1.7,0.5-2.5c0.3-0.8,0.7-1.5,1.3-2.1c0.6-0.6,1.3-1.1,2.1-1.4c0.8-0.4,1.7-0.5,2.8-0.5s1.9,0.2,2.7,0.5
		c0.8,0.4,1.5,0.8,2.1,1.4s1,1.3,1.3,2.1c0.3,0.8,0.4,1.6,0.4,2.4c0,0.2,0,0.4,0,0.6c0,0.2,0,0.4-0.1,0.5h-9.7
		c0,0.5,0.2,0.9,0.4,1.3c0.2,0.4,0.4,0.7,0.7,1c0.3,0.3,0.6,0.5,1,0.6c0.4,0.1,0.8,0.2,1.2,0.2c0.6,0,1.2-0.2,1.8-0.5
		c0.6-0.3,1-0.7,1.2-1.2l2.8,0.8c-0.5,1-1.2,1.7-2.2,2.4C129.4,218.8,128.2,219.1,126.8,219.1z M130,211.6c-0.1-0.9-0.4-1.7-1-2.3
		c-0.6-0.6-1.4-0.9-2.2-0.9c-0.4,0-0.8,0.1-1.2,0.2c-0.4,0.2-0.7,0.4-1,0.6c-0.3,0.3-0.5,0.6-0.7,1c-0.2,0.4-0.3,0.8-0.3,1.3H130z"
		/>
	<path class="st2" d="M141.1,219.1c-1,0-1.9-0.2-2.7-0.5c-0.8-0.3-1.5-0.8-2.1-1.4c-0.6-0.6-1-1.3-1.3-2.1c-0.3-0.8-0.5-1.6-0.5-2.5
		c0-0.9,0.2-1.7,0.5-2.5c0.3-0.8,0.7-1.5,1.3-2.1c0.6-0.6,1.3-1.1,2.1-1.4c0.8-0.4,1.7-0.5,2.8-0.5s1.9,0.2,2.7,0.5
		c0.8,0.4,1.5,0.8,2.1,1.4s1,1.3,1.3,2.1c0.3,0.8,0.4,1.6,0.4,2.4c0,0.2,0,0.4,0,0.6c0,0.2,0,0.4-0.1,0.5h-9.7
		c0,0.5,0.2,0.9,0.4,1.3c0.2,0.4,0.4,0.7,0.7,1c0.3,0.3,0.6,0.5,1,0.6c0.4,0.1,0.8,0.2,1.2,0.2c0.6,0,1.2-0.2,1.8-0.5
		c0.6-0.3,1-0.7,1.2-1.2l2.8,0.8c-0.5,1-1.2,1.7-2.2,2.4C143.8,218.8,142.5,219.1,141.1,219.1z M144.4,211.6c-0.1-0.9-0.4-1.7-1-2.3
		c-0.6-0.6-1.4-0.9-2.2-0.9c-0.4,0-0.8,0.1-1.2,0.2c-0.4,0.2-0.7,0.4-1,0.6c-0.3,0.3-0.5,0.6-0.7,1c-0.2,0.4-0.3,0.8-0.3,1.3H144.4z
		"/>
	<path class="st2" d="M157.1,218.3c-0.4,0.2-1,0.4-1.6,0.6c-0.6,0.2-1.3,0.3-2,0.3c-0.4,0-0.9-0.1-1.3-0.2c-0.4-0.1-0.7-0.3-1-0.5
		s-0.5-0.6-0.7-1c-0.2-0.4-0.3-0.9-0.3-1.4v-7.2h-1.7v-2.5h1.7v-4.1h3.2v4.1h2.6v2.5h-2.6v6.1c0,0.4,0.1,0.8,0.3,0.9
		s0.5,0.3,0.9,0.3s0.7-0.1,1-0.2c0.3-0.1,0.6-0.2,0.8-0.3L157.1,218.3z"/>
	<path class="st2" d="M163.5,219.1c-1.1,0-2.1-0.2-3.1-0.5c-1-0.3-1.9-0.8-2.6-1.4l1.2-2c0.8,0.5,1.5,1,2.2,1.2
		c0.7,0.3,1.5,0.4,2.2,0.4c0.6,0,1.1-0.1,1.5-0.4s0.6-0.6,0.6-1c0-0.4-0.2-0.8-0.6-1c-0.4-0.2-1.1-0.4-2.1-0.7
		c-0.8-0.2-1.5-0.4-2.1-0.6c-0.6-0.2-1-0.4-1.4-0.7c-0.4-0.3-0.6-0.6-0.8-0.9c-0.2-0.3-0.2-0.8-0.2-1.2c0-0.6,0.1-1.2,0.4-1.7
		c0.2-0.5,0.6-0.9,1-1.3c0.4-0.4,1-0.6,1.6-0.8c0.6-0.2,1.3-0.3,2-0.3c0.9,0,1.8,0.1,2.7,0.4c0.8,0.3,1.6,0.7,2.3,1.3l-1.3,1.9
		c-0.6-0.5-1.3-0.8-1.9-1.1c-0.6-0.2-1.2-0.3-1.8-0.3c-0.5,0-1,0.1-1.4,0.3c-0.4,0.2-0.6,0.6-0.6,1.1c0,0.2,0,0.4,0.1,0.6
		c0.1,0.1,0.2,0.3,0.4,0.4c0.2,0.1,0.4,0.2,0.8,0.3c0.3,0.1,0.7,0.2,1.2,0.3c0.9,0.2,1.6,0.4,2.2,0.7c0.6,0.2,1.1,0.5,1.5,0.8
		c0.4,0.3,0.7,0.6,0.9,1s0.3,0.8,0.3,1.4c0,1.2-0.5,2.2-1.4,2.9S165.1,219.1,163.5,219.1z"/>
	<path class="st2" d="M3.6,230.7l6.1,15l6.1-15h1.8l-7.1,17H8.9l-7.1-17H3.6z"/>
	<path class="st2" d="M19.6,232.6v-2.4h1.6v2.4H19.6z M19.6,247.7v-12.5h1.6v12.5H19.6z"/>
	<path class="st2" d="M30.2,247.9c-0.9,0-1.7-0.2-2.5-0.5c-0.8-0.3-1.4-0.8-2-1.4c-0.6-0.6-1-1.3-1.3-2.1s-0.5-1.6-0.5-2.5
		c0-0.9,0.2-1.7,0.5-2.5c0.3-0.8,0.7-1.5,1.3-2c0.6-0.6,1.2-1,2-1.4c0.8-0.3,1.6-0.5,2.5-0.5c0.9,0,1.7,0.2,2.5,0.5
		c0.8,0.3,1.4,0.8,2,1.4c0.5,0.6,1,1.3,1.3,2c0.3,0.8,0.5,1.6,0.5,2.4c0,0.1,0,0.3,0,0.4s0,0.2,0,0.3H25.7c0,0.7,0.2,1.3,0.5,1.9
		c0.3,0.6,0.6,1.1,1,1.5s0.9,0.7,1.4,1c0.5,0.2,1.1,0.3,1.7,0.3c0.4,0,0.8-0.1,1.2-0.2c0.4-0.1,0.8-0.3,1.1-0.5
		c0.3-0.2,0.6-0.4,0.9-0.7s0.5-0.6,0.6-0.9l1.4,0.4c-0.2,0.5-0.5,0.9-0.8,1.3s-0.8,0.7-1.2,1s-1,0.5-1.5,0.6
		C31.4,247.9,30.8,247.9,30.2,247.9z M34.8,240.8c0-0.7-0.2-1.3-0.5-1.8c-0.3-0.6-0.6-1-1-1.4s-0.9-0.7-1.4-0.9
		c-0.5-0.2-1.1-0.3-1.7-0.3c-0.6,0-1.2,0.1-1.7,0.3c-0.5,0.2-1,0.5-1.4,0.9c-0.4,0.4-0.7,0.9-1,1.4c-0.2,0.6-0.4,1.2-0.4,1.8H34.8z"
		/>
	<path class="st2" d="M54.3,235.2h1.6l-5.4,12.5h-1.3l-2.7-6.4l-2.7,6.4h-1.3l-5.4-12.5h1.6l4.6,10.8l2.4-5.7l-2.1-5.1h1.4l1.6,4.1
		l1.6-4.1h1.4l-2.1,5.1l2.4,5.7L54.3,235.2z"/>
	<path class="st2" d="M75.5,247.7l-2-2.1c-0.7,0.7-1.4,1.3-2.3,1.7s-1.8,0.6-2.8,0.6c-0.8,0-1.5-0.1-2.1-0.3
		c-0.7-0.2-1.2-0.5-1.7-0.9c-0.5-0.4-0.9-0.9-1.2-1.5s-0.4-1.2-0.4-1.9c0-0.6,0.1-1.1,0.3-1.6c0.2-0.5,0.5-0.9,0.8-1.3
		c0.3-0.4,0.7-0.8,1.2-1.1c0.4-0.4,0.9-0.7,1.4-1c-0.4-0.5-0.8-0.9-1.1-1.2c-0.3-0.4-0.5-0.7-0.7-1c-0.2-0.3-0.3-0.6-0.4-0.9
		s-0.1-0.6-0.1-0.9c0-0.5,0.1-1,0.3-1.5c0.2-0.5,0.5-0.9,0.9-1.2s0.8-0.6,1.4-0.8c0.5-0.2,1.1-0.3,1.7-0.3c0.6,0,1.1,0.1,1.6,0.2
		s0.9,0.4,1.3,0.7c0.4,0.3,0.6,0.7,0.9,1.1c0.2,0.4,0.3,0.9,0.3,1.4c0,0.5-0.1,0.9-0.3,1.4c-0.2,0.4-0.5,0.8-0.8,1.2
		c-0.3,0.4-0.7,0.7-1.2,1.1c-0.4,0.3-0.9,0.7-1.4,1l4.8,5c0.3-0.6,0.6-1.3,0.8-2s0.3-1.5,0.3-2.2h1.4c0,1-0.1,1.9-0.4,2.8
		c-0.2,0.9-0.6,1.7-1.1,2.4l3.2,3.3H75.5z M68.5,246.6c0.8,0,1.6-0.2,2.3-0.5s1.3-0.8,1.8-1.4l-5.2-5.4c-0.8,0.6-1.6,1.2-2.1,1.9
		c-0.6,0.6-0.8,1.4-0.8,2.3c0,0.5,0.1,1,0.3,1.4c0.2,0.4,0.5,0.8,0.9,1c0.4,0.3,0.8,0.5,1.3,0.6C67.5,246.6,68,246.6,68.5,246.6z
		 M65.7,234.1c0,0.2,0,0.4,0.1,0.6c0.1,0.2,0.2,0.4,0.3,0.7s0.4,0.5,0.6,0.9s0.6,0.7,1,1.2c0.9-0.6,1.7-1.2,2.3-1.7
		c0.6-0.5,0.9-1.1,0.9-1.8c0-0.6-0.2-1.1-0.7-1.5c-0.5-0.4-1.1-0.6-1.8-0.6c-0.4,0-0.8,0.1-1.1,0.2s-0.6,0.3-0.9,0.5
		c-0.2,0.2-0.4,0.5-0.6,0.8C65.8,233.5,65.7,233.8,65.7,234.1z"/>
	<path class="st2" d="M91.1,247.9c-0.9,0-1.7-0.2-2.5-0.5c-0.8-0.3-1.4-0.8-2-1.4c-0.6-0.6-1-1.3-1.3-2.1s-0.5-1.6-0.5-2.5
		c0-0.9,0.2-1.7,0.5-2.5c0.3-0.8,0.7-1.5,1.3-2c0.6-0.6,1.2-1,2-1.4c0.8-0.3,1.6-0.5,2.5-0.5c0.9,0,1.7,0.2,2.5,0.5
		c0.8,0.3,1.4,0.8,2,1.4c0.5,0.6,1,1.3,1.3,2c0.3,0.8,0.5,1.6,0.5,2.4c0,0.1,0,0.3,0,0.4s0,0.2,0,0.3H86.5c0,0.7,0.2,1.3,0.5,1.9
		c0.3,0.6,0.6,1.1,1,1.5s0.9,0.7,1.4,1c0.5,0.2,1.1,0.3,1.7,0.3c0.4,0,0.8-0.1,1.2-0.2c0.4-0.1,0.8-0.3,1.1-0.5
		c0.3-0.2,0.6-0.4,0.9-0.7s0.5-0.6,0.6-0.9l1.4,0.4c-0.2,0.5-0.5,0.9-0.8,1.3s-0.8,0.7-1.2,1s-1,0.5-1.5,0.6
		C92.3,247.9,91.7,247.9,91.1,247.9z M95.7,240.8c0-0.7-0.2-1.3-0.5-1.8c-0.3-0.6-0.6-1-1-1.4s-0.9-0.7-1.4-0.9
		c-0.5-0.2-1.1-0.3-1.7-0.3c-0.6,0-1.2,0.1-1.7,0.3c-0.5,0.2-1,0.5-1.4,0.9c-0.4,0.4-0.7,0.9-1,1.4c-0.2,0.6-0.4,1.2-0.4,1.8H95.7z"
		/>
	<path class="st2" d="M104.9,247.9c-0.9,0-1.7-0.2-2.4-0.5c-0.7-0.4-1.4-0.8-1.9-1.4c-0.5-0.6-0.9-1.3-1.2-2.1
		c-0.3-0.8-0.4-1.6-0.4-2.4c0-0.9,0.1-1.7,0.4-2.5s0.7-1.5,1.2-2.1s1.1-1.1,1.8-1.4c0.7-0.3,1.5-0.5,2.3-0.5c1.1,0,2,0.3,2.8,0.8
		c0.8,0.6,1.5,1.2,1.9,2v-7.6h1.6v15.4c0,0.4,0.2,0.7,0.6,0.7v1.4c-0.2,0-0.4,0.1-0.6,0.1c-0.4,0-0.7-0.1-1-0.4s-0.4-0.5-0.4-0.9
		v-1.2c-0.5,0.8-1.2,1.5-2,1.9C106.7,247.7,105.8,247.9,104.9,247.9z M105.3,246.5c0.4,0,0.8-0.1,1.3-0.2c0.5-0.2,0.9-0.4,1.3-0.7
		c0.4-0.3,0.7-0.6,1-1s0.5-0.8,0.5-1.2v-3.9c-0.2-0.4-0.4-0.8-0.7-1.2c-0.3-0.4-0.7-0.7-1-1c-0.4-0.3-0.8-0.5-1.3-0.7
		c-0.4-0.2-0.9-0.2-1.3-0.2c-0.7,0-1.3,0.1-1.8,0.4s-1,0.7-1.4,1.1c-0.4,0.5-0.7,1-0.9,1.6c-0.2,0.6-0.3,1.2-0.3,1.9
		c0,0.7,0.1,1.3,0.4,1.9s0.6,1.1,1,1.6s0.9,0.8,1.5,1.1C104,246.4,104.6,246.5,105.3,246.5z"/>
	<path class="st2" d="M114.7,232.6v-2.4h1.6v2.4H114.7z M114.7,247.7v-12.5h1.6v12.5H114.7z"/>
	<path class="st2" d="M126,247.1c-0.1,0-0.2,0.1-0.4,0.2s-0.4,0.2-0.6,0.2c-0.2,0.1-0.5,0.2-0.8,0.2c-0.3,0.1-0.6,0.1-1,0.1
		c-0.4,0-0.7,0-1-0.1c-0.3-0.1-0.6-0.2-0.8-0.4c-0.2-0.2-0.4-0.5-0.6-0.8c-0.1-0.3-0.2-0.7-0.2-1.1v-9h-1.7v-1.3h1.7V231h1.6v4.2
		h2.9v1.3h-2.9v8.5c0,0.5,0.2,0.8,0.5,1c0.3,0.2,0.6,0.3,1,0.3c0.5,0,0.9-0.1,1.2-0.2s0.6-0.3,0.7-0.3L126,247.1z"/>
	<path class="st2" d="M139.2,247.9c-0.9,0-1.7-0.2-2.4-0.5c-0.7-0.4-1.4-0.8-1.9-1.4c-0.5-0.6-0.9-1.3-1.2-2.1
		c-0.3-0.8-0.4-1.6-0.4-2.4c0-0.9,0.1-1.7,0.4-2.5s0.7-1.5,1.2-2.1s1.1-1.1,1.8-1.4c0.7-0.3,1.5-0.5,2.3-0.5c1.1,0,2,0.3,2.8,0.8
		c0.8,0.6,1.5,1.2,1.9,2v-7.6h1.6v15.4c0,0.4,0.2,0.7,0.6,0.7v1.4c-0.2,0-0.4,0.1-0.6,0.1c-0.4,0-0.7-0.1-1-0.4s-0.4-0.5-0.4-0.9
		v-1.2c-0.5,0.8-1.2,1.5-2,1.9C141,247.7,140.2,247.9,139.2,247.9z M139.6,246.5c0.4,0,0.8-0.1,1.3-0.2c0.5-0.2,0.9-0.4,1.3-0.7
		c0.4-0.3,0.7-0.6,1-1s0.5-0.8,0.5-1.2v-3.9c-0.2-0.4-0.4-0.8-0.7-1.2c-0.3-0.4-0.7-0.7-1-1c-0.4-0.3-0.8-0.5-1.3-0.7
		c-0.4-0.2-0.9-0.2-1.3-0.2c-0.7,0-1.3,0.1-1.8,0.4s-1,0.7-1.4,1.1c-0.4,0.5-0.7,1-0.9,1.6c-0.2,0.6-0.3,1.2-0.3,1.9
		c0,0.7,0.1,1.3,0.4,1.9s0.6,1.1,1,1.6s0.9,0.8,1.5,1.1C138.3,246.4,139,246.5,139.6,246.5z"/>
	<path class="st2" d="M152.2,247.9c-0.6,0-1.1-0.1-1.6-0.3c-0.5-0.2-0.9-0.5-1.3-0.8c-0.4-0.4-0.7-0.8-0.9-1.2
		c-0.2-0.5-0.3-1-0.3-1.5c0-0.5,0.1-1,0.4-1.5c0.3-0.5,0.6-0.9,1.1-1.2s1-0.6,1.7-0.8c0.6-0.2,1.3-0.3,2.1-0.3
		c0.6,0,1.3,0.1,1.9,0.2c0.7,0.1,1.2,0.3,1.8,0.5v-1.1c0-1.1-0.3-2-0.9-2.6c-0.6-0.6-1.5-1-2.6-1c-0.6,0-1.3,0.1-2,0.4
		c-0.7,0.3-1.4,0.6-2,1.1l-0.6-1.1c1.6-1.1,3.2-1.6,4.7-1.6c1.6,0,2.8,0.4,3.7,1.3c0.9,0.9,1.3,2.1,1.3,3.6v5.6
		c0,0.4,0.2,0.7,0.6,0.7v1.4c-0.3,0-0.5,0.1-0.6,0.1c-0.4,0-0.7-0.1-1-0.3c-0.2-0.2-0.4-0.5-0.4-0.9l0-1c-0.6,0.8-1.3,1.3-2.2,1.7
		C154.1,247.7,153.2,247.9,152.2,247.9z M152.6,246.7c0.8,0,1.6-0.2,2.3-0.5c0.7-0.3,1.3-0.7,1.6-1.3c0.1-0.1,0.3-0.3,0.3-0.5
		c0.1-0.2,0.1-0.3,0.1-0.5v-2c-0.5-0.2-1.1-0.4-1.7-0.5s-1.2-0.2-1.8-0.2c-1.2,0-2.1,0.2-2.8,0.7c-0.7,0.5-1.1,1.1-1.1,1.9
		c0,0.4,0.1,0.7,0.2,1.1c0.2,0.3,0.4,0.6,0.6,0.9c0.3,0.2,0.6,0.4,0.9,0.6C151.8,246.6,152.2,246.7,152.6,246.7z"/>
	<path class="st2" d="M168,247.1c-0.1,0-0.2,0.1-0.4,0.2s-0.4,0.2-0.6,0.2c-0.2,0.1-0.5,0.2-0.8,0.2c-0.3,0.1-0.6,0.1-1,0.1
		c-0.4,0-0.7,0-1-0.1c-0.3-0.1-0.6-0.2-0.8-0.4c-0.2-0.2-0.4-0.5-0.6-0.8c-0.1-0.3-0.2-0.7-0.2-1.1v-9h-1.7v-1.3h1.7V231h1.6v4.2
		h2.9v1.3h-2.9v8.5c0,0.5,0.2,0.8,0.5,1c0.3,0.2,0.6,0.3,1,0.3c0.5,0,0.9-0.1,1.2-0.2s0.6-0.3,0.7-0.3L168,247.1z"/>
	<path class="st2" d="M173.2,247.9c-0.6,0-1.1-0.1-1.6-0.3c-0.5-0.2-0.9-0.5-1.3-0.8c-0.4-0.4-0.7-0.8-0.9-1.2
		c-0.2-0.5-0.3-1-0.3-1.5c0-0.5,0.1-1,0.4-1.5c0.3-0.5,0.6-0.9,1.1-1.2s1-0.6,1.7-0.8c0.6-0.2,1.3-0.3,2.1-0.3
		c0.6,0,1.3,0.1,1.9,0.2c0.7,0.1,1.2,0.3,1.8,0.5v-1.1c0-1.1-0.3-2-0.9-2.6c-0.6-0.6-1.5-1-2.6-1c-0.6,0-1.3,0.1-2,0.4
		c-0.7,0.3-1.4,0.6-2,1.1l-0.6-1.1c1.6-1.1,3.2-1.6,4.7-1.6c1.6,0,2.8,0.4,3.7,1.3c0.9,0.9,1.3,2.1,1.3,3.6v5.6
		c0,0.4,0.2,0.7,0.6,0.7v1.4c-0.3,0-0.5,0.1-0.6,0.1c-0.4,0-0.7-0.1-1-0.3c-0.2-0.2-0.4-0.5-0.4-0.9l0-1c-0.6,0.8-1.3,1.3-2.2,1.7
		C175.2,247.7,174.2,247.9,173.2,247.9z M173.6,246.7c0.8,0,1.6-0.2,2.3-0.5c0.7-0.3,1.3-0.7,1.6-1.3c0.1-0.1,0.3-0.3,0.3-0.5
		c0.1-0.2,0.1-0.3,0.1-0.5v-2c-0.5-0.2-1.1-0.4-1.7-0.5s-1.2-0.2-1.8-0.2c-1.2,0-2.1,0.2-2.8,0.7c-0.7,0.5-1.1,1.1-1.1,1.9
		c0,0.4,0.1,0.7,0.2,1.1c0.2,0.3,0.4,0.6,0.6,0.9c0.3,0.2,0.6,0.4,0.9,0.6C172.8,246.6,173.2,246.7,173.6,246.7z"/>
</g>
<g>
	<path class="st4" d="M526,272.4"/>
</g>
<g>
	<path class="st4" d="M503.5,52.1"/>
</g>
<g>
	<path class="st0" d="M644.6,13.4l0.1,0.7l76.9,9.2l0.3-0.6c2.9-5.4,8.6-8.9,14.6-8.9c9.1,0,16.6,7.4,16.6,16.6
		c0,6.4-3.8,12.3-9.6,15l-0.7,0.3l18.5,85l0.6,0.1c7.9,1.4,13.6,8.3,13.6,16.4c0,9.1-7.4,16.6-16.6,16.6c-8.9,0-16.2-7-16.6-16
		l0-0.8l-84-10.5l-0.2,0.8c-1.8,7.4-8.5,12.7-16,12.7c-9.1,0-16.6-7.4-16.6-16.6c0-7.5,5.3-14.3,12.5-16l0.8-0.2l-13.1-84.3
		l-0.6-0.1c-7.6-1.4-13.4-8.4-13.4-16.2c0-9.1,7.4-16.6,16.6-16.6C636.3,0,643.2,5.6,644.6,13.4z M639.4,16.6c0-6-5.1-11-11-11
		c-6,0-11,5.1-11,11s5.1,11,11,11C634.3,27.6,639.4,22.5,639.4,16.6z M747.6,30.4c0-6-5.1-11-11-11c-6,0-11,5.1-11,11s5.1,11,11,11
		C742.5,41.4,747.6,36.3,747.6,30.4z M689.7,74.8l0.6-0.5c2.6-1.9,5.9-2.9,9.4-2.9c1.3,0,3.2,0.1,4.6,0.7l0.7,0.3L725.4,43l-0.5-0.5
		c-3.2-3.3-4.9-7.6-4.9-12.1v-1.7l-75.4-8.8l-0.2,0.8c-0.3,1.7-1,3.2-2.1,4.8l-0.4,0.6L689.7,74.8z M651.8,120l33.1-24.9l-0.3-0.7
		c-1-2.3-1.4-4.4-1.4-6.6c0-3.1,0.8-6,2.4-8.5l0.4-0.6l-47.8-48.7l-0.6,0.4c-1.8,1.2-3.5,1.9-5.2,2.3l-0.9,0.2l13.1,84.3l0.7,0.1
		c2,0.3,4.1,1.2,5.9,2.4L651.8,120z M750.7,133.1l0.6-0.3c1.2-0.6,2.5-1.1,3.5-1.4l0.8-0.2l-18.4-84.2h-0.7c-1.9,0-3.8-0.4-5.5-1
		l-0.7-0.3l-20.4,29.3l0.6,0.5c3.7,3.1,5.7,7.7,5.7,12.5c0,2.5-0.5,4.9-1.6,6.9l-0.3,0.6L750.7,133.1z M710.8,87.8c0-6-5.1-11-11-11
		c-6,0-11,5.1-11,11c0,6,5.1,11,11,11C705.7,98.8,710.8,93.8,710.8,87.8z M743.4,141.4l0.3-0.7c0.5-1.4,1.4-2.6,2.3-3.8l0.4-0.6
		l-35.2-36.5l-0.7,0.5c-3.2,2.6-6.9,4-10.8,4c-4.3,0-8.1-1.5-11.1-4.4l-0.6-0.5l-32.4,24.3l0.4,0.7c1.2,2,2,3.9,2.3,5.8l0.1,0.7
		L743.4,141.4z M653.2,133.4c0-6-5.1-11-11-11c-6,0-11,5.1-11,11c0,6,5.1,11,11,11C648.1,144.4,653.2,139.4,653.2,133.4z
		 M770.1,147.2c0-6-5.1-11-11-11c-6,0-11,5.1-11,11c0,6,5.1,11,11,11C765,158.2,770.1,153.2,770.1,147.2z"/>
	<g>
		<path class="st5" d="M639.4,16.6c0-6-5.1-11-11-11c-6,0-11,5.1-11,11s5.1,11,11,11C634.3,27.6,639.4,22.5,639.4,16.6z"/>
		<path class="st5" d="M747.6,30.4c0-6-5.1-11-11-11c-6,0-11,5.1-11,11s5.1,11,11,11C742.5,41.4,747.6,36.3,747.6,30.4z"/>
		<circle class="st5" cx="699.8" cy="87.8" r="11"/>
		<path class="st5" d="M653.2,133.4c0-6-5.1-11-11-11c-6,0-11,5.1-11,11c0,6,5.1,11,11,11C648.1,144.4,653.2,139.4,653.2,133.4z"/>
		<path class="st5" d="M770.1,147.2c0-6-5.1-11-11-11c-6,0-11,5.1-11,11c0,6,5.1,11,11,11C765,158.2,770.1,153.2,770.1,147.2z"/>
	</g>
</g>
<g>
	<path class="st4" d="M357.9,254.3"/>
</g>
<g>
	<path class="st4" d="M230.3,157"/>
</g>
<g>
	<path class="st4" d="M641.1,157"/>
</g>
<g>
	<g>
		<linearGradient id="SVGID_1_" gradientUnits="userSpaceOnUse" x1="180.9593" y1="44.2132" x2="606.3329" y2="44.2132">
			<stop  offset="0" style="stop-color:#666666;stop-opacity:0.1"/>
			<stop  offset="1" style="stop-color:#666666"/>
		</linearGradient>
		<line class="st6" x1="181" y1="44.2" x2="582.2" y2="44.2"/>
		<g>
			<linearGradient id="SVGID_2_" gradientUnits="userSpaceOnUse" x1="180.9593" y1="44.2152" x2="606.3329" y2="44.2152">
				<stop  offset="0" style="stop-color:#666666;stop-opacity:0.1"/>
				<stop  offset="1" style="stop-color:#666666"/>
			</linearGradient>
			<path class="st7" d="M606.3,44.2c-11.4,4.2-25.5,11.4-34.2,19l6.9-19l-6.9-19C580.9,32.8,595,40,606.3,44.2z"/>
		</g>
	</g>
</g>
<g>
	<g>
		<linearGradient id="SVGID_3_" gradientUnits="userSpaceOnUse" x1="606.3329" y1="105.7869" x2="180.9593" y2="105.7869">
			<stop  offset="0" style="stop-color:#666666;stop-opacity:0.1"/>
			<stop  offset="1" style="stop-color:#666666"/>
		</linearGradient>
		<line class="st8" x1="606.3" y1="105.8" x2="205.1" y2="105.8"/>
		<g>
			<linearGradient id="SVGID_4_" gradientUnits="userSpaceOnUse" x1="606.3329" y1="105.785" x2="180.9593" y2="105.785">
				<stop  offset="0" style="stop-color:#666666;stop-opacity:0.1"/>
				<stop  offset="1" style="stop-color:#666666"/>
			</linearGradient>
			<path class="st9" d="M181,105.8c11.4-4.2,25.5-11.4,34.2-19l-6.9,19l6.9,19C206.4,117.2,192.3,110,181,105.8z"/>
		</g>
	</g>
</g>
<g>
	<path class="st10" d="M212.6,0.6l4.6,11.2l4.6-11.2h1.3l-5.3,12.8h-1.1l-5.3-12.8H212.6z"/>
	<path class="st10" d="M226,13.5c-0.4,0-0.9-0.1-1.2-0.2s-0.7-0.4-1-0.6c-0.3-0.3-0.5-0.6-0.7-0.9s-0.2-0.7-0.2-1.1
		c0-0.4,0.1-0.8,0.3-1.1c0.2-0.3,0.5-0.6,0.8-0.9c0.3-0.3,0.8-0.4,1.2-0.6c0.5-0.1,1-0.2,1.6-0.2c0.5,0,1,0,1.5,0.1
		c0.5,0.1,0.9,0.2,1.3,0.4V7.4c0-0.8-0.2-1.5-0.7-2c-0.5-0.5-1.1-0.7-1.9-0.7c-0.5,0-1,0.1-1.5,0.3s-1,0.5-1.5,0.8L223.5,5
		c1.2-0.8,2.4-1.2,3.5-1.2c1.2,0,2.1,0.3,2.8,1c0.7,0.7,1,1.6,1,2.7v4.2c0,0.3,0.1,0.5,0.4,0.5v1.1c-0.2,0-0.4,0.1-0.5,0.1
		c-0.3,0-0.6-0.1-0.7-0.2c-0.2-0.2-0.3-0.4-0.3-0.6l0-0.7c-0.4,0.6-1,1-1.6,1.3S226.8,13.5,226,13.5z M226.3,12.6
		c0.6,0,1.2-0.1,1.8-0.4c0.5-0.2,0.9-0.6,1.2-1c0.1-0.1,0.2-0.2,0.2-0.4c0.1-0.1,0.1-0.2,0.1-0.4V9.1c-0.4-0.2-0.8-0.3-1.3-0.4
		c-0.4-0.1-0.9-0.1-1.3-0.1c-0.9,0-1.6,0.2-2.1,0.5s-0.8,0.8-0.8,1.4c0,0.3,0.1,0.6,0.2,0.8c0.1,0.3,0.3,0.5,0.5,0.7
		s0.4,0.3,0.7,0.4S226,12.6,226.3,12.6z"/>
	<path class="st10" d="M233.5,0.2h1.2v11c0,0.3,0.1,0.6,0.3,0.8c0.2,0.2,0.5,0.3,0.8,0.3c0.1,0,0.3,0,0.5-0.1c0.2,0,0.3-0.1,0.5-0.1
		l0.2,1c-0.2,0.1-0.5,0.2-0.8,0.2c-0.3,0.1-0.6,0.1-0.9,0.1c-0.6,0-1-0.2-1.3-0.5c-0.3-0.3-0.5-0.8-0.5-1.3V0.2z"/>
	<path class="st10" d="M238.4,2V0.2h1.2V2H238.4z M238.4,13.4V4h1.2v9.4H238.4z"/>
	<path class="st10" d="M246.2,13.5c-0.6,0-1.2-0.1-1.8-0.4s-1-0.6-1.4-1.1c-0.4-0.4-0.7-1-0.9-1.5c-0.2-0.6-0.3-1.2-0.3-1.8
		c0-0.7,0.1-1.3,0.3-1.9c0.2-0.6,0.5-1.1,0.9-1.6c0.4-0.4,0.8-0.8,1.3-1.1c0.5-0.3,1.1-0.4,1.7-0.4c0.8,0,1.5,0.2,2.1,0.6
		s1.1,0.9,1.4,1.5V0.2h1.2v11.6c0,0.3,0.1,0.5,0.4,0.5v1.1c-0.2,0-0.3,0.1-0.4,0.1c-0.3,0-0.5-0.1-0.8-0.3c-0.2-0.2-0.3-0.4-0.3-0.7
		v-0.9c-0.4,0.6-0.9,1.1-1.5,1.5C247.5,13.4,246.8,13.5,246.2,13.5z M246.4,12.5c0.3,0,0.6-0.1,1-0.2c0.3-0.1,0.7-0.3,1-0.5
		c0.3-0.2,0.6-0.5,0.8-0.7c0.2-0.3,0.3-0.6,0.4-0.9V7.2c-0.1-0.3-0.3-0.6-0.5-0.9c-0.2-0.3-0.5-0.5-0.8-0.7
		c-0.3-0.2-0.6-0.4-0.9-0.5s-0.7-0.2-1-0.2c-0.5,0-1,0.1-1.4,0.3c-0.4,0.2-0.8,0.5-1.1,0.9c-0.3,0.4-0.5,0.8-0.7,1.2
		c-0.2,0.5-0.2,0.9-0.2,1.4c0,0.5,0.1,1,0.3,1.4c0.2,0.5,0.4,0.9,0.7,1.2c0.3,0.3,0.7,0.6,1.1,0.8C245.5,12.4,245.9,12.5,246.4,12.5
		z"/>
	<path class="st10" d="M255.9,13.5c-0.4,0-0.9-0.1-1.2-0.2s-0.7-0.4-1-0.6c-0.3-0.3-0.5-0.6-0.7-0.9c-0.2-0.4-0.2-0.7-0.2-1.1
		c0-0.4,0.1-0.8,0.3-1.1c0.2-0.3,0.5-0.6,0.8-0.9c0.3-0.3,0.8-0.4,1.2-0.6c0.5-0.1,1-0.2,1.6-0.2c0.5,0,1,0,1.5,0.1
		c0.5,0.1,0.9,0.2,1.3,0.4V7.4c0-0.8-0.2-1.5-0.7-2s-1.1-0.7-1.9-0.7c-0.5,0-1,0.1-1.5,0.3s-1,0.5-1.5,0.8L253.4,5
		c1.2-0.8,2.4-1.2,3.5-1.2c1.2,0,2.1,0.3,2.8,1c0.7,0.7,1,1.6,1,2.7v4.2c0,0.3,0.2,0.5,0.5,0.5v1.1c-0.2,0-0.4,0.1-0.5,0.1
		c-0.3,0-0.6-0.1-0.7-0.2c-0.2-0.2-0.3-0.4-0.3-0.6l0-0.7c-0.4,0.6-1,1-1.6,1.3C257.3,13.4,256.6,13.5,255.9,13.5z M256.1,12.6
		c0.6,0,1.2-0.1,1.8-0.4c0.5-0.2,0.9-0.6,1.2-1c0.1-0.1,0.2-0.2,0.2-0.4c0.1-0.1,0.1-0.2,0.1-0.4V9.1c-0.4-0.2-0.8-0.3-1.3-0.4
		c-0.4-0.1-0.9-0.1-1.3-0.1c-0.9,0-1.6,0.2-2.1,0.5c-0.5,0.4-0.8,0.8-0.8,1.4c0,0.3,0.1,0.6,0.2,0.8s0.3,0.5,0.5,0.7
		c0.2,0.2,0.4,0.3,0.7,0.4C255.5,12.5,255.8,12.6,256.1,12.6z"/>
	<path class="st10" d="M267.7,12.9c-0.1,0-0.2,0.1-0.3,0.1c-0.1,0.1-0.3,0.1-0.5,0.2s-0.4,0.1-0.6,0.2c-0.2,0-0.5,0.1-0.7,0.1
		c-0.3,0-0.5,0-0.8-0.1c-0.2-0.1-0.5-0.2-0.6-0.3c-0.2-0.1-0.3-0.3-0.4-0.6s-0.2-0.5-0.2-0.8V5h-1.3V4h1.3V0.8h1.2V4h2.2v1h-2.2v6.4
		c0,0.3,0.1,0.6,0.4,0.8c0.2,0.2,0.5,0.2,0.8,0.2c0.3,0,0.7-0.1,0.9-0.2c0.3-0.1,0.4-0.2,0.5-0.2L267.7,12.9z"/>
	<path class="st10" d="M273.1,13.5c-0.7,0-1.3-0.1-1.9-0.4c-0.6-0.3-1.1-0.6-1.5-1.1s-0.7-1-1-1.6c-0.2-0.6-0.4-1.2-0.4-1.9
		c0-0.7,0.1-1.3,0.4-1.9c0.2-0.6,0.6-1.1,1-1.5s0.9-0.8,1.5-1c0.6-0.3,1.2-0.4,1.9-0.4c0.7,0,1.3,0.1,1.9,0.4
		c0.6,0.3,1.1,0.6,1.5,1.1c0.4,0.4,0.7,1,1,1.5c0.2,0.6,0.3,1.2,0.3,1.8c0,0.1,0,0.2,0,0.3s0,0.2,0,0.2h-8c0,0.5,0.2,1,0.4,1.4
		c0.2,0.4,0.5,0.8,0.8,1.1c0.3,0.3,0.7,0.6,1.1,0.7c0.4,0.2,0.8,0.3,1.3,0.3c0.3,0,0.6,0,0.9-0.1c0.3-0.1,0.6-0.2,0.8-0.3
		s0.5-0.3,0.7-0.5s0.4-0.4,0.5-0.7l1.1,0.3c-0.1,0.3-0.3,0.7-0.6,0.9c-0.3,0.3-0.6,0.5-0.9,0.7c-0.3,0.2-0.7,0.4-1.2,0.5
		C274,13.5,273.5,13.5,273.1,13.5z M276.5,8.2c0-0.5-0.2-1-0.4-1.4s-0.5-0.8-0.8-1.1s-0.7-0.5-1.1-0.7c-0.4-0.2-0.8-0.3-1.3-0.3
		c-0.5,0-0.9,0.1-1.3,0.3c-0.4,0.2-0.8,0.4-1.1,0.7c-0.3,0.3-0.6,0.7-0.7,1.1c-0.2,0.4-0.3,0.9-0.3,1.4H276.5z"/>
	<path class="st10" d="M297.7,13.4l-1.5-1.5c-0.5,0.5-1.1,1-1.7,1.3c-0.7,0.3-1.4,0.5-2.1,0.5c-0.6,0-1.1-0.1-1.6-0.3
		c-0.5-0.2-0.9-0.4-1.3-0.7c-0.4-0.3-0.7-0.7-0.9-1.1s-0.3-0.9-0.3-1.4c0-0.4,0.1-0.8,0.2-1.2c0.1-0.4,0.3-0.7,0.6-1
		c0.3-0.3,0.5-0.6,0.9-0.9c0.3-0.3,0.7-0.5,1-0.8c-0.3-0.3-0.6-0.7-0.8-0.9c-0.2-0.3-0.4-0.5-0.5-0.8c-0.1-0.2-0.2-0.5-0.3-0.7
		c-0.1-0.2-0.1-0.4-0.1-0.7c0-0.4,0.1-0.8,0.2-1.1c0.2-0.3,0.4-0.6,0.7-0.9s0.6-0.5,1-0.6c0.4-0.1,0.8-0.2,1.3-0.2
		c0.4,0,0.8,0.1,1.2,0.2c0.4,0.1,0.7,0.3,0.9,0.5c0.3,0.2,0.5,0.5,0.6,0.8c0.2,0.3,0.2,0.7,0.2,1s-0.1,0.7-0.2,1
		c-0.1,0.3-0.4,0.6-0.6,0.9c-0.3,0.3-0.5,0.5-0.9,0.8c-0.3,0.3-0.7,0.5-1.1,0.8l3.6,3.7c0.2-0.5,0.4-1,0.6-1.5
		c0.1-0.5,0.2-1.1,0.2-1.7h1c0,0.7-0.1,1.4-0.3,2.1c-0.2,0.7-0.5,1.3-0.8,1.8l2.4,2.5H297.7z M292.5,12.5c0.6,0,1.2-0.1,1.7-0.4
		c0.5-0.3,1-0.6,1.4-1.1L291.7,7c-0.6,0.4-1.2,0.9-1.6,1.4s-0.6,1.1-0.6,1.7c0,0.4,0.1,0.7,0.3,1.1s0.4,0.6,0.7,0.8
		c0.3,0.2,0.6,0.4,1,0.5S292.1,12.5,292.5,12.5z M290.4,3.2c0,0.1,0,0.3,0.1,0.4c0,0.1,0.1,0.3,0.2,0.5c0.1,0.2,0.3,0.4,0.5,0.6
		c0.2,0.2,0.5,0.5,0.8,0.9c0.7-0.5,1.3-0.9,1.7-1.3c0.4-0.4,0.7-0.9,0.7-1.4c0-0.5-0.2-0.9-0.5-1.2c-0.3-0.3-0.8-0.4-1.3-0.4
		c-0.3,0-0.6,0-0.8,0.1c-0.3,0.1-0.5,0.2-0.7,0.4c-0.2,0.2-0.3,0.4-0.4,0.6C290.4,2.7,290.4,2.9,290.4,3.2z"/>
	<path class="st10" d="M217.4,35.1c-0.8,0-1.5-0.2-2.1-0.6c-0.6-0.4-1.1-0.9-1.5-1.5v5.8h-1.2V25.6h1.1v1.8c0.4-0.6,0.9-1.1,1.5-1.4
		c0.6-0.4,1.3-0.5,2-0.5c0.6,0,1.2,0.1,1.8,0.4c0.5,0.3,1,0.6,1.4,1.1c0.4,0.5,0.7,1,0.9,1.6c0.2,0.6,0.3,1.2,0.3,1.8
		c0,0.7-0.1,1.3-0.3,1.9c-0.2,0.6-0.5,1.1-0.9,1.5s-0.8,0.8-1.4,1.1C218.6,35,218,35.1,217.4,35.1z M217.1,34.1c0.5,0,1-0.1,1.4-0.3
		c0.4-0.2,0.8-0.5,1.1-0.9c0.3-0.4,0.5-0.8,0.7-1.2c0.2-0.4,0.2-0.9,0.2-1.4c0-0.5-0.1-1-0.3-1.4c-0.2-0.5-0.4-0.9-0.7-1.2
		c-0.3-0.3-0.7-0.6-1.1-0.8s-0.9-0.3-1.4-0.3c-0.3,0-0.6,0.1-1,0.2s-0.7,0.3-1,0.5s-0.5,0.5-0.8,0.7c-0.2,0.3-0.3,0.6-0.4,0.9v2.9
		c0.1,0.3,0.3,0.6,0.5,0.9c0.2,0.3,0.5,0.5,0.8,0.7c0.3,0.2,0.6,0.4,0.9,0.5C216.4,34,216.7,34.1,217.1,34.1z"/>
	<path class="st10" d="M226.1,35.1c-0.4,0-0.9-0.1-1.2-0.2s-0.7-0.4-1-0.6c-0.3-0.3-0.5-0.6-0.7-0.9s-0.2-0.7-0.2-1.1
		c0-0.4,0.1-0.8,0.3-1.1c0.2-0.3,0.5-0.6,0.8-0.9c0.3-0.3,0.8-0.4,1.2-0.6c0.5-0.1,1-0.2,1.6-0.2c0.5,0,1,0,1.5,0.1
		c0.5,0.1,0.9,0.2,1.3,0.4V29c0-0.8-0.2-1.5-0.7-2c-0.5-0.5-1.1-0.7-1.9-0.7c-0.5,0-1,0.1-1.5,0.3s-1,0.5-1.5,0.8l-0.4-0.8
		c1.2-0.8,2.4-1.2,3.5-1.2c1.2,0,2.1,0.3,2.8,1c0.7,0.7,1,1.6,1,2.7v4.2c0,0.3,0.1,0.5,0.4,0.5V35c-0.2,0-0.4,0.1-0.5,0.1
		c-0.3,0-0.6-0.1-0.7-0.2c-0.2-0.2-0.3-0.4-0.3-0.6l0-0.7c-0.4,0.6-1,1-1.6,1.3S226.8,35.1,226.1,35.1z M226.4,34.2
		c0.6,0,1.2-0.1,1.8-0.4c0.5-0.2,0.9-0.6,1.2-1c0.1-0.1,0.2-0.2,0.2-0.4c0.1-0.1,0.1-0.2,0.1-0.4v-1.5c-0.4-0.2-0.8-0.3-1.3-0.4
		c-0.4-0.1-0.9-0.1-1.3-0.1c-0.9,0-1.6,0.2-2.1,0.5s-0.8,0.8-0.8,1.4c0,0.3,0.1,0.6,0.2,0.8c0.1,0.3,0.3,0.5,0.5,0.7
		s0.4,0.3,0.7,0.4S226,34.2,226.4,34.2z"/>
	<path class="st10" d="M238.2,26.7c-0.8,0-1.5,0.3-2.2,0.7c-0.6,0.4-1,1-1.3,1.8V35h-1.2v-9.4h1.2v2.3c0.3-0.7,0.8-1.3,1.4-1.7
		c0.6-0.4,1.2-0.6,1.9-0.6c0.1,0,0.2,0,0.2,0V26.7z"/>
	<path class="st10" d="M243,35.1c-0.7,0-1.4-0.1-2.1-0.4c-0.7-0.2-1.3-0.6-1.8-1l0.6-0.8c0.5,0.4,1.1,0.8,1.6,1
		c0.5,0.2,1.1,0.3,1.8,0.3c0.8,0,1.4-0.2,1.8-0.5c0.5-0.3,0.7-0.7,0.7-1.3c0-0.3-0.1-0.5-0.2-0.7s-0.3-0.3-0.5-0.5
		c-0.2-0.1-0.5-0.2-0.9-0.4c-0.4-0.1-0.8-0.2-1.2-0.3c-0.5-0.1-1-0.3-1.4-0.4c-0.4-0.1-0.7-0.3-1-0.4c-0.3-0.2-0.5-0.4-0.6-0.6
		c-0.1-0.2-0.2-0.6-0.2-0.9c0-0.5,0.1-0.9,0.3-1.2c0.2-0.4,0.4-0.7,0.8-0.9c0.3-0.2,0.7-0.4,1.1-0.5c0.4-0.1,0.9-0.2,1.4-0.2
		c0.7,0,1.4,0.1,2,0.4s1.1,0.5,1.4,0.9l-0.6,0.7c-0.3-0.4-0.8-0.6-1.3-0.8s-1-0.3-1.6-0.3c-0.3,0-0.6,0-0.9,0.1
		c-0.3,0.1-0.5,0.2-0.7,0.3s-0.4,0.3-0.5,0.5c-0.1,0.2-0.2,0.5-0.2,0.8c0,0.3,0,0.5,0.1,0.6c0.1,0.2,0.2,0.3,0.4,0.4
		s0.4,0.2,0.7,0.3c0.3,0.1,0.7,0.2,1.1,0.3c0.6,0.1,1.1,0.3,1.6,0.4c0.5,0.1,0.8,0.3,1.1,0.5c0.3,0.2,0.5,0.4,0.7,0.7
		c0.2,0.3,0.2,0.6,0.2,1c0,0.9-0.3,1.5-1,2.1C245,34.9,244.1,35.1,243,35.1z"/>
	<path class="st10" d="M252.7,35.1c-0.7,0-1.3-0.1-1.9-0.4c-0.6-0.3-1.1-0.6-1.5-1.1s-0.7-1-1-1.6c-0.2-0.6-0.4-1.2-0.4-1.9
		c0-0.7,0.1-1.3,0.4-1.9c0.2-0.6,0.6-1.1,1-1.5s0.9-0.8,1.5-1c0.6-0.3,1.2-0.4,1.9-0.4c0.7,0,1.3,0.1,1.9,0.4
		c0.6,0.3,1.1,0.6,1.5,1.1c0.4,0.4,0.7,1,1,1.5c0.2,0.6,0.3,1.2,0.3,1.8c0,0.1,0,0.2,0,0.3s0,0.2,0,0.2h-8c0,0.5,0.2,1,0.4,1.4
		c0.2,0.4,0.5,0.8,0.8,1.1c0.3,0.3,0.7,0.6,1.1,0.7c0.4,0.2,0.8,0.3,1.3,0.3c0.3,0,0.6,0,0.9-0.1c0.3-0.1,0.6-0.2,0.8-0.3
		s0.5-0.3,0.7-0.5s0.4-0.4,0.5-0.7l1.1,0.3c-0.1,0.3-0.3,0.7-0.6,0.9c-0.3,0.3-0.6,0.5-0.9,0.7c-0.3,0.2-0.7,0.4-1.2,0.5
		C253.6,35.1,253.1,35.1,252.7,35.1z M256.1,29.8c0-0.5-0.2-1-0.4-1.4c-0.2-0.4-0.4-0.8-0.8-1.1c-0.3-0.3-0.7-0.5-1.1-0.7
		c-0.4-0.2-0.8-0.3-1.3-0.3s-0.9,0.1-1.3,0.3c-0.4,0.2-0.8,0.4-1.1,0.7s-0.6,0.7-0.7,1.1c-0.2,0.4-0.3,0.9-0.3,1.4H256.1z"/>
	<path class="st10" d="M267.6,35.1c-0.6,0-1.2-0.1-1.8-0.4c-0.6-0.3-1-0.6-1.4-1.1c-0.4-0.4-0.7-1-0.9-1.5c-0.2-0.6-0.3-1.2-0.3-1.8
		c0-0.7,0.1-1.3,0.3-1.9c0.2-0.6,0.5-1.1,0.9-1.6c0.4-0.4,0.8-0.8,1.4-1.1c0.5-0.3,1.1-0.4,1.7-0.4c0.8,0,1.5,0.2,2.1,0.6
		c0.6,0.4,1.1,0.9,1.4,1.5v-5.7h1.2v11.6c0,0.3,0.1,0.5,0.4,0.5V35c-0.2,0-0.3,0.1-0.4,0.1c-0.3,0-0.5-0.1-0.8-0.3
		c-0.2-0.2-0.3-0.4-0.3-0.7v-0.9c-0.4,0.6-0.9,1.1-1.5,1.5C269,35,268.3,35.1,267.6,35.1z M267.9,34.1c0.3,0,0.6-0.1,1-0.2
		c0.3-0.1,0.7-0.3,1-0.5c0.3-0.2,0.6-0.5,0.8-0.7c0.2-0.3,0.3-0.6,0.4-0.9v-2.9c-0.1-0.3-0.3-0.6-0.5-0.9c-0.2-0.3-0.5-0.5-0.8-0.7
		c-0.3-0.2-0.6-0.4-0.9-0.5s-0.7-0.2-1-0.2c-0.5,0-1,0.1-1.4,0.3c-0.4,0.2-0.8,0.5-1.1,0.9s-0.5,0.8-0.7,1.2
		c-0.2,0.5-0.2,0.9-0.2,1.4c0,0.5,0.1,1,0.3,1.4c0.2,0.5,0.4,0.9,0.7,1.2c0.3,0.3,0.7,0.6,1.1,0.8C266.9,34,267.4,34.1,267.9,34.1z"
		/>
	<path class="st10" d="M277.3,35.1c-0.4,0-0.9-0.1-1.2-0.2s-0.7-0.4-1-0.6c-0.3-0.3-0.5-0.6-0.7-0.9c-0.2-0.4-0.2-0.7-0.2-1.1
		c0-0.4,0.1-0.8,0.3-1.1c0.2-0.3,0.5-0.6,0.8-0.9c0.3-0.3,0.8-0.4,1.2-0.6c0.5-0.1,1-0.2,1.6-0.2c0.5,0,1,0,1.5,0.1s0.9,0.2,1.3,0.4
		V29c0-0.8-0.2-1.5-0.7-2s-1.1-0.7-1.9-0.7c-0.5,0-1,0.1-1.5,0.3s-1,0.5-1.5,0.8l-0.4-0.8c1.2-0.8,2.4-1.2,3.5-1.2
		c1.2,0,2.1,0.3,2.8,1c0.7,0.7,1,1.6,1,2.7v4.2c0,0.3,0.2,0.5,0.5,0.5V35c-0.2,0-0.4,0.1-0.5,0.1c-0.3,0-0.6-0.1-0.7-0.2
		c-0.2-0.2-0.3-0.4-0.3-0.6l0-0.7c-0.4,0.6-1,1-1.6,1.3C278.8,35,278.1,35.1,277.3,35.1z M277.6,34.2c0.6,0,1.2-0.1,1.8-0.4
		c0.5-0.2,0.9-0.6,1.2-1c0.1-0.1,0.2-0.2,0.2-0.4s0.1-0.2,0.1-0.4v-1.5c-0.4-0.2-0.8-0.3-1.3-0.4c-0.4-0.1-0.9-0.1-1.3-0.1
		c-0.9,0-1.6,0.2-2.1,0.5s-0.8,0.8-0.8,1.4c0,0.3,0.1,0.6,0.2,0.8c0.1,0.3,0.3,0.5,0.5,0.7c0.2,0.2,0.4,0.3,0.7,0.4
		C277,34.1,277.3,34.2,277.6,34.2z"/>
	<path class="st10" d="M289.2,34.5c-0.1,0-0.2,0.1-0.3,0.1c-0.1,0.1-0.3,0.1-0.5,0.2c-0.2,0.1-0.4,0.1-0.6,0.2
		c-0.2,0-0.5,0.1-0.7,0.1c-0.3,0-0.5,0-0.8-0.1s-0.5-0.2-0.6-0.3c-0.2-0.1-0.3-0.3-0.4-0.6c-0.1-0.2-0.2-0.5-0.2-0.8v-6.7h-1.3v-1
		h1.3v-3.2h1.2v3.2h2.2v1h-2.2v6.4c0,0.3,0.1,0.6,0.4,0.8s0.5,0.2,0.8,0.2c0.3,0,0.7-0.1,0.9-0.2c0.3-0.1,0.4-0.2,0.5-0.2
		L289.2,34.5z"/>
	<path class="st10" d="M293.1,35.1c-0.4,0-0.9-0.1-1.2-0.2s-0.7-0.4-1-0.6c-0.3-0.3-0.5-0.6-0.7-0.9c-0.2-0.4-0.2-0.7-0.2-1.1
		c0-0.4,0.1-0.8,0.3-1.1c0.2-0.3,0.5-0.6,0.8-0.9c0.3-0.3,0.8-0.4,1.2-0.6c0.5-0.1,1-0.2,1.6-0.2c0.5,0,1,0,1.5,0.1s0.9,0.2,1.3,0.4
		V29c0-0.8-0.2-1.5-0.7-2s-1.1-0.7-1.9-0.7c-0.5,0-1,0.1-1.5,0.3s-1,0.5-1.5,0.8l-0.4-0.8c1.2-0.8,2.4-1.2,3.5-1.2
		c1.2,0,2.1,0.3,2.8,1c0.7,0.7,1,1.6,1,2.7v4.2c0,0.3,0.2,0.5,0.5,0.5V35c-0.2,0-0.4,0.1-0.5,0.1c-0.3,0-0.6-0.1-0.7-0.2
		c-0.2-0.2-0.3-0.4-0.3-0.6l0-0.7c-0.4,0.6-1,1-1.6,1.3C294.5,35,293.8,35.1,293.1,35.1z M293.4,34.2c0.6,0,1.2-0.1,1.8-0.4
		c0.5-0.2,0.9-0.6,1.2-1c0.1-0.1,0.2-0.2,0.2-0.4s0.1-0.2,0.1-0.4v-1.5c-0.4-0.2-0.8-0.3-1.3-0.4c-0.4-0.1-0.9-0.1-1.3-0.1
		c-0.9,0-1.6,0.2-2.1,0.5s-0.8,0.8-0.8,1.4c0,0.3,0.1,0.6,0.2,0.8c0.1,0.3,0.3,0.5,0.5,0.7c0.2,0.2,0.4,0.3,0.7,0.4
		C292.8,34.1,293.1,34.2,293.4,34.2z"/>
</g>
<g>
	<path class="st10" d="M522.1,128.9v-12.8h5.3c0.6,0,1.1,0.1,1.5,0.4s0.9,0.5,1.2,0.9c0.3,0.4,0.6,0.8,0.8,1.3
		c0.2,0.5,0.3,1,0.3,1.5c0,0.5-0.1,1-0.3,1.5c-0.2,0.5-0.4,0.9-0.8,1.3c-0.3,0.4-0.7,0.7-1.2,0.9c-0.4,0.2-1,0.3-1.5,0.3h-4.1v4.7
		H522.1z M523.4,123.1h4.1c0.4,0,0.7-0.1,1-0.2c0.3-0.2,0.6-0.4,0.8-0.6c0.2-0.3,0.4-0.6,0.5-0.9c0.1-0.4,0.2-0.7,0.2-1.1
		c0-0.4-0.1-0.8-0.2-1.1c-0.1-0.4-0.3-0.7-0.6-0.9c-0.2-0.3-0.5-0.5-0.8-0.6c-0.3-0.2-0.7-0.2-1-0.2h-4V123.1z"/>
	<path class="st10" d="M537.8,120.6c-0.8,0-1.5,0.3-2.2,0.7c-0.6,0.4-1,1-1.3,1.8v5.8h-1.2v-9.4h1.2v2.3c0.3-0.7,0.8-1.3,1.4-1.7
		c0.6-0.4,1.2-0.6,1.9-0.6c0.1,0,0.2,0,0.2,0V120.6z"/>
	<path class="st10" d="M543,129.1c-0.7,0-1.3-0.1-1.9-0.4c-0.6-0.3-1.1-0.6-1.5-1.1c-0.4-0.5-0.7-1-1-1.6c-0.2-0.6-0.4-1.2-0.4-1.9
		c0-0.7,0.1-1.3,0.4-1.9c0.2-0.6,0.6-1.1,1-1.5c0.4-0.4,0.9-0.8,1.5-1c0.6-0.3,1.2-0.4,1.9-0.4c0.7,0,1.3,0.1,1.9,0.4
		c0.6,0.3,1.1,0.6,1.5,1.1c0.4,0.4,0.7,1,1,1.5c0.2,0.6,0.3,1.2,0.3,1.8c0,0.1,0,0.2,0,0.3c0,0.1,0,0.2,0,0.2h-8
		c0,0.5,0.2,1,0.4,1.4s0.5,0.8,0.8,1.1c0.3,0.3,0.7,0.6,1.1,0.7s0.8,0.3,1.3,0.3c0.3,0,0.6,0,0.9-0.1c0.3-0.1,0.6-0.2,0.8-0.3
		c0.3-0.1,0.5-0.3,0.7-0.5s0.4-0.4,0.5-0.7l1.1,0.3c-0.1,0.3-0.3,0.7-0.6,0.9s-0.6,0.5-0.9,0.7c-0.3,0.2-0.7,0.4-1.2,0.5
		C543.9,129,543.4,129.1,543,129.1z M546.4,123.7c0-0.5-0.2-1-0.4-1.4c-0.2-0.4-0.4-0.8-0.8-1.1c-0.3-0.3-0.7-0.5-1.1-0.7
		c-0.4-0.2-0.8-0.3-1.3-0.3s-0.9,0.1-1.3,0.3c-0.4,0.2-0.8,0.4-1.1,0.7s-0.6,0.7-0.7,1.1c-0.2,0.4-0.3,0.9-0.3,1.4H546.4z"/>
	<path class="st10" d="M553.9,128.4c-0.1,0-0.2,0.1-0.3,0.1s-0.3,0.1-0.5,0.2c-0.2,0.1-0.4,0.1-0.6,0.2c-0.2,0-0.5,0.1-0.7,0.1
		c-0.3,0-0.5,0-0.8-0.1c-0.2-0.1-0.5-0.2-0.6-0.3c-0.2-0.2-0.3-0.3-0.4-0.6c-0.1-0.2-0.2-0.5-0.2-0.8v-6.7h-1.3v-1h1.3v-3.2h1.2v3.2
		h2.2v1h-2.2v6.4c0,0.3,0.1,0.6,0.4,0.8c0.2,0.2,0.5,0.2,0.8,0.2c0.3,0,0.7-0.1,0.9-0.2c0.3-0.1,0.4-0.2,0.5-0.2L553.9,128.4z"/>
	<path class="st10" d="M560,128.4c-0.1,0-0.2,0.1-0.3,0.1c-0.1,0.1-0.3,0.1-0.5,0.2s-0.4,0.1-0.6,0.2c-0.2,0-0.5,0.1-0.7,0.1
		c-0.3,0-0.5,0-0.8-0.1s-0.5-0.2-0.6-0.3s-0.3-0.3-0.4-0.6c-0.1-0.2-0.2-0.5-0.2-0.8v-6.7h-1.3v-1h1.3v-3.2h1.2v3.2h2.2v1h-2.2v6.4
		c0,0.3,0.1,0.6,0.4,0.8c0.2,0.2,0.5,0.2,0.8,0.2c0.3,0,0.7-0.1,0.9-0.2c0.3-0.1,0.4-0.2,0.5-0.2L560,128.4z"/>
	<path class="st10" d="M562,131.8c0.1,0,0.2,0,0.3,0s0.2,0,0.3,0c0.2,0,0.4,0,0.5-0.1c0.1-0.1,0.2-0.2,0.4-0.4
		c0.1-0.2,0.3-0.5,0.4-0.9c0.2-0.4,0.4-0.9,0.6-1.5l-4.1-9.4h1.3l3.5,8.2l3.2-8.2h1.2l-4.9,12.1c-0.1,0.3-0.4,0.7-0.7,0.9
		c-0.3,0.3-0.7,0.4-1.3,0.4c-0.1,0-0.2,0-0.3,0c-0.1,0-0.2,0-0.4,0V131.8z"/>
	<path class="st10" d="M580.1,129.1c-0.8,0-1.5-0.2-2.1-0.6s-1.1-0.9-1.5-1.5v5.8h-1.2v-13.2h1.1v1.8c0.4-0.6,0.9-1.1,1.5-1.4
		c0.6-0.4,1.3-0.5,2-0.5c0.6,0,1.2,0.1,1.8,0.4c0.5,0.3,1,0.6,1.4,1.1c0.4,0.5,0.7,1,0.9,1.6c0.2,0.6,0.3,1.2,0.3,1.8
		c0,0.7-0.1,1.3-0.3,1.9c-0.2,0.6-0.5,1.1-0.9,1.5c-0.4,0.4-0.8,0.8-1.3,1.1S580.8,129.1,580.1,129.1z M579.8,128
		c0.5,0,1-0.1,1.4-0.3c0.4-0.2,0.8-0.5,1.1-0.9c0.3-0.4,0.5-0.8,0.7-1.2s0.2-0.9,0.2-1.4c0-0.5-0.1-1-0.3-1.4
		c-0.2-0.5-0.4-0.9-0.7-1.2c-0.3-0.3-0.7-0.6-1.1-0.8c-0.4-0.2-0.9-0.3-1.4-0.3c-0.3,0-0.6,0.1-1,0.2c-0.3,0.1-0.7,0.3-1,0.5
		c-0.3,0.2-0.5,0.5-0.8,0.7c-0.2,0.3-0.3,0.6-0.4,0.9v2.9c0.1,0.3,0.3,0.6,0.5,0.9c0.2,0.3,0.5,0.5,0.8,0.7c0.3,0.2,0.6,0.4,0.9,0.5
		S579.5,128,579.8,128z"/>
	<path class="st10" d="M591.1,120.6c-0.8,0-1.5,0.3-2.2,0.7s-1,1-1.3,1.8v5.8h-1.2v-9.4h1.2v2.3c0.3-0.7,0.8-1.3,1.4-1.7
		c0.6-0.4,1.2-0.6,1.9-0.6c0.1,0,0.2,0,0.2,0V120.6z"/>
	<path class="st10" d="M592.8,117.5v-1.8h1.2v1.8H592.8z M592.8,128.9v-9.4h1.2v9.4H592.8z"/>
	<path class="st10" d="M604.6,128.9h-1.2v-5.2c0-1.1-0.2-1.9-0.5-2.4s-0.8-0.8-1.5-0.8c-0.4,0-0.7,0.1-1.1,0.2
		c-0.4,0.1-0.7,0.3-1,0.6c-0.3,0.2-0.6,0.5-0.8,0.9s-0.4,0.7-0.5,1.1v5.7h-1.2v-9.4h1.1v2.1c0.4-0.7,0.9-1.2,1.6-1.7
		c0.7-0.4,1.5-0.6,2.3-0.6c0.5,0,1,0.1,1.3,0.3c0.4,0.2,0.6,0.5,0.9,0.8c0.2,0.3,0.4,0.8,0.5,1.3s0.1,1.1,0.1,1.7V128.9z"/>
	<path class="st10" d="M611.6,128.4c-0.1,0-0.2,0.1-0.3,0.1c-0.1,0.1-0.3,0.1-0.5,0.2c-0.2,0.1-0.4,0.1-0.6,0.2
		c-0.2,0-0.5,0.1-0.7,0.1c-0.3,0-0.5,0-0.8-0.1s-0.5-0.2-0.6-0.3s-0.3-0.3-0.4-0.6c-0.1-0.2-0.2-0.5-0.2-0.8v-6.7h-1.3v-1h1.3v-3.2
		h1.2v3.2h2.2v1h-2.2v6.4c0,0.3,0.1,0.6,0.4,0.8s0.5,0.2,0.8,0.2c0.3,0,0.7-0.1,0.9-0.2c0.3-0.1,0.4-0.2,0.5-0.2L611.6,128.4z"/>
	<path class="st10" d="M553,150.7c-0.6,0-1.2-0.1-1.8-0.4s-1-0.6-1.4-1.1c-0.4-0.4-0.7-1-0.9-1.5s-0.3-1.2-0.3-1.8
		c0-0.7,0.1-1.3,0.3-1.9c0.2-0.6,0.5-1.1,0.9-1.6s0.8-0.8,1.4-1.1c0.5-0.3,1.1-0.4,1.7-0.4c0.8,0,1.5,0.2,2.1,0.6
		c0.6,0.4,1.1,0.9,1.4,1.5v-5.7h1.2v11.6c0,0.3,0.1,0.5,0.4,0.5v1.1c-0.2,0-0.3,0.1-0.4,0.1c-0.3,0-0.5-0.1-0.8-0.3
		s-0.3-0.4-0.3-0.7v-0.9c-0.4,0.6-0.9,1.1-1.5,1.5S553.7,150.7,553,150.7z M553.3,149.6c0.3,0,0.6-0.1,1-0.2c0.3-0.1,0.7-0.3,1-0.5
		c0.3-0.2,0.6-0.5,0.8-0.7s0.3-0.6,0.4-0.9v-2.9c-0.1-0.3-0.3-0.6-0.5-0.9c-0.2-0.3-0.5-0.5-0.8-0.7c-0.3-0.2-0.6-0.4-0.9-0.5
		s-0.7-0.2-1-0.2c-0.5,0-1,0.1-1.4,0.3c-0.4,0.2-0.8,0.5-1.1,0.9s-0.5,0.8-0.7,1.2c-0.2,0.5-0.2,0.9-0.2,1.4c0,0.5,0.1,1,0.3,1.4
		c0.2,0.5,0.4,0.9,0.7,1.2c0.3,0.3,0.7,0.6,1.1,0.8C552.3,149.5,552.8,149.6,553.3,149.6z"/>
	<path class="st10" d="M562.7,150.7c-0.4,0-0.9-0.1-1.2-0.2c-0.4-0.2-0.7-0.4-1-0.6c-0.3-0.3-0.5-0.6-0.7-0.9
		c-0.2-0.4-0.2-0.7-0.2-1.1s0.1-0.8,0.3-1.1c0.2-0.3,0.5-0.6,0.8-0.9c0.3-0.3,0.8-0.4,1.2-0.6c0.5-0.1,1-0.2,1.6-0.2
		c0.5,0,1,0,1.5,0.1c0.5,0.1,0.9,0.2,1.3,0.4v-0.8c0-0.8-0.2-1.5-0.7-2c-0.5-0.5-1.1-0.7-1.9-0.7c-0.5,0-1,0.1-1.5,0.3
		c-0.5,0.2-1,0.5-1.5,0.8l-0.4-0.8c1.2-0.8,2.4-1.2,3.5-1.2c1.2,0,2.1,0.3,2.8,1s1,1.6,1,2.7v4.2c0,0.3,0.1,0.5,0.4,0.5v1.1
		c-0.2,0-0.4,0.1-0.5,0.1c-0.3,0-0.6-0.1-0.7-0.2c-0.2-0.2-0.3-0.4-0.3-0.6l0-0.7c-0.4,0.6-1,1-1.6,1.3S563.4,150.7,562.7,150.7z
		 M563,149.7c0.6,0,1.2-0.1,1.8-0.4c0.5-0.2,0.9-0.6,1.2-1c0.1-0.1,0.2-0.2,0.2-0.4c0.1-0.1,0.1-0.2,0.1-0.4v-1.5
		c-0.4-0.2-0.8-0.3-1.3-0.4c-0.4-0.1-0.9-0.1-1.3-0.1c-0.9,0-1.6,0.2-2.1,0.5c-0.5,0.4-0.8,0.8-0.8,1.4c0,0.3,0.1,0.6,0.2,0.8
		c0.1,0.3,0.3,0.5,0.5,0.7s0.4,0.3,0.7,0.4C562.4,149.7,562.7,149.7,563,149.7z"/>
	<path class="st10" d="M574.6,150c-0.1,0-0.2,0.1-0.3,0.1c-0.1,0.1-0.3,0.1-0.5,0.2c-0.2,0.1-0.4,0.1-0.6,0.2
		c-0.2,0-0.5,0.1-0.7,0.1c-0.3,0-0.5,0-0.8-0.1c-0.2-0.1-0.5-0.2-0.6-0.3c-0.2-0.1-0.3-0.3-0.4-0.6s-0.2-0.5-0.2-0.8v-6.7h-1.3v-1
		h1.3v-3.2h1.2v3.2h2.2v1h-2.2v6.4c0,0.3,0.1,0.6,0.4,0.8c0.2,0.2,0.5,0.2,0.8,0.2c0.3,0,0.7-0.1,0.9-0.2c0.3-0.1,0.4-0.2,0.5-0.2
		L574.6,150z"/>
	<path class="st10" d="M578.5,150.7c-0.4,0-0.9-0.1-1.2-0.2c-0.4-0.2-0.7-0.4-1-0.6c-0.3-0.3-0.5-0.6-0.7-0.9
		c-0.2-0.4-0.2-0.7-0.2-1.1s0.1-0.8,0.3-1.1c0.2-0.3,0.5-0.6,0.8-0.9c0.3-0.3,0.8-0.4,1.2-0.6c0.5-0.1,1-0.2,1.6-0.2
		c0.5,0,1,0,1.5,0.1s0.9,0.2,1.3,0.4v-0.8c0-0.8-0.2-1.5-0.7-2c-0.5-0.5-1.1-0.7-1.9-0.7c-0.5,0-1,0.1-1.5,0.3
		c-0.5,0.2-1,0.5-1.5,0.8l-0.4-0.8c1.2-0.8,2.4-1.2,3.5-1.2c1.2,0,2.1,0.3,2.8,1s1,1.6,1,2.7v4.2c0,0.3,0.2,0.5,0.5,0.5v1.1
		c-0.2,0-0.4,0.1-0.5,0.1c-0.3,0-0.6-0.1-0.7-0.2c-0.2-0.2-0.3-0.4-0.3-0.6l0-0.7c-0.4,0.6-1,1-1.6,1.3
		C579.9,150.5,579.2,150.7,578.5,150.7z M578.7,149.7c0.6,0,1.2-0.1,1.8-0.4c0.5-0.2,0.9-0.6,1.2-1c0.1-0.1,0.2-0.2,0.2-0.4
		c0.1-0.1,0.1-0.2,0.1-0.4v-1.5c-0.4-0.2-0.8-0.3-1.3-0.4s-0.9-0.1-1.3-0.1c-0.9,0-1.6,0.2-2.1,0.5c-0.5,0.4-0.8,0.8-0.8,1.4
		c0,0.3,0.1,0.6,0.2,0.8c0.1,0.3,0.3,0.5,0.5,0.7c0.2,0.2,0.4,0.3,0.7,0.4C578.1,149.7,578.4,149.7,578.7,149.7z"/>
</g>
<g>
	<g>
		<rect x="336.9" y="2.5" class="st11" width="99.6" height="55.6"/>
		<line class="st11" x1="336.9" y1="21" x2="436.5" y2="21"/>
		<line class="st11" x1="336.9" y1="39.6" x2="436.5" y2="39.6"/>
	</g>
	<g>
		<rect x="262.6" y="91.9" class="st11" width="99.6" height="55.6"/>
		<line class="st11" x1="262.6" y1="110.4" x2="362.2" y2="110.4"/>
		<line class="st11" x1="262.6" y1="129" x2="362.2" y2="129"/>
	</g>
	<g>
		<rect x="411.2" y="91.9" class="st11" width="99.6" height="55.6"/>
		<line class="st11" x1="411.2" y1="110.4" x2="510.9" y2="110.4"/>
		<line class="st11" x1="411.2" y1="129" x2="510.9" y2="129"/>
	</g>
	<polyline class="st12" points="461,91.9 461,75 312.4,75 312.4,91.9 	"/>
	<line class="st13" x1="386.7" y1="58.1" x2="386.7" y2="75"/>
</g>
<g>
</g>
<g>
</g>
<g>
</g>
<g>
</g>
<g>
</g>
<g>
</g>
<g>
</g>
</svg>
