<?xml version="1.0" encoding="utf-8"?>
<!-- Generator: Adobe Illustrator 24.1.2, SVG Export Plug-In . SVG Version: 6.00 Build 0)  -->
<svg version="1.1" id="Layer_1" xmlns="http://www.w3.org/2000/svg" xmlns:xlink="http://www.w3.org/1999/xlink" x="0px" y="0px"
	 viewBox="0 0 745.3 314.9" style="enable-background:new 0 0 745.3 314.9;" xml:space="preserve">
<style type="text/css">
	.st0{fill:#3BAFDA;}
	.st1{fill:#df990a;}
	.st2{fill:#333333;}
	.st3{fill:none;stroke:url(#SVGID_1_);stroke-width:8;stroke-miterlimit:10;}
	.st4{fill:url(#SVGID_2_);}
	.st5{fill:none;stroke:url(#SVGID_3_);stroke-width:8;stroke-miterlimit:10;}
	.st6{fill:url(#SVGID_4_);}
	.st7{fill:none;}
	.st8{fill:none;stroke:#333333;stroke-width:2;stroke-miterlimit:10;}
	.st9{fill:none;stroke:#333333;stroke-width:2;stroke-miterlimit:10;}
</style>
<g>
	<path class="st0" d="M169,70.2H13.6c-3.5,0-6.3,2.8-6.3,6.3v137.5c0,2.1,1.1,4,2.7,5.1v1h2.2c0.4,0.1,0.9,0.2,1.3,0.2H169
		c0.5,0,0.9-0.1,1.3-0.2h0.3v-0.1c2.7-0.7,4.6-3.1,4.6-6V76.5C175.3,73,172.5,70.2,169,70.2z M169.9,76.5v18.1h-41.4v-19H169
		C169.5,75.6,169.9,76,169.9,76.5z M169.5,214.7h-41v-17h41.4v16.3C169.9,214.2,169.7,214.5,169.5,214.7z M12.7,213.9v-16.3h19.4v17
		h-19C12.9,214.5,12.7,214.2,12.7,213.9z M77.4,150.6v18.6H37.5v-18.6H77.4z M37.5,145.2V125h39.9v20.2H37.5z M77.4,174.6v17.7H37.5
		v-17.7H77.4z M77.4,197.6v17H37.5v-17H77.4z M82.8,197.6h40.3v17H82.8V197.6z M82.8,192.3v-17.7h40.3v17.7H82.8z M82.8,169.2v-18.6
		h40.3v18.6L82.8,169.2L82.8,169.2z M82.8,145.2V125h40.3v20.2H82.8z M82.8,119.6V99.9h40.3v19.7H82.8z M82.8,94.5v-19h40.3v19H82.8
		z M77.4,94.5H37.5v-19h39.9L77.4,94.5L77.4,94.5z M77.4,99.9v19.7H37.5V99.9H77.4z M32.1,119.6H12.7V99.9h19.4
		C32.1,99.9,32.1,119.6,32.1,119.6z M32.1,125v20.2H12.7V125H32.1z M32.1,150.6v18.6H12.7v-18.6H32.1z M32.1,174.6v17.7H12.7v-17.7
		H32.1z M128.5,192.3v-17.7h41.4v17.7H128.5z M128.5,169.2v-18.6h41.4v18.6L128.5,169.2L128.5,169.2z M128.5,145.2V125h41.4v20.2
		H128.5z M128.5,119.6V99.9h41.4v19.7H128.5z"/>
</g>
<g>
	<path class="st0" d="M37.4,233.9h2.9l6.5,17h-3.4l-1.6-4.2h-6l-1.6,4.2h-3.4L37.4,233.9z M41.2,244.4l-2.4-6.7l-2.4,6.7H41.2z"/>
	<path class="st0" d="M60,251h-3.2v-7.1c0-1-0.2-1.7-0.5-2.2c-0.4-0.5-0.8-0.7-1.5-0.7c-0.3,0-0.6,0.1-1,0.2s-0.7,0.3-0.9,0.5
		c-0.3,0.2-0.6,0.5-0.8,0.8c-0.2,0.3-0.4,0.7-0.5,1.1v7.3h-3.2v-12.6h2.9v2.3c0.5-0.8,1.1-1.4,2-1.9c0.9-0.4,1.9-0.7,3-0.7
		c0.8,0,1.4,0.1,1.9,0.4s0.9,0.7,1.2,1.1c0.3,0.5,0.5,1,0.6,1.6c0.1,0.6,0.2,1.2,0.2,1.8V251z"/>
	<path class="st0" d="M74.5,251h-3.2v-7.1c0-1-0.2-1.7-0.5-2.2c-0.4-0.5-0.8-0.7-1.5-0.7c-0.3,0-0.6,0.1-1,0.2s-0.7,0.3-0.9,0.5
		c-0.3,0.2-0.6,0.5-0.8,0.8c-0.2,0.3-0.4,0.7-0.5,1.1v7.3h-3.2v-12.6h2.9v2.3c0.5-0.8,1.1-1.4,2-1.9c0.9-0.4,1.9-0.7,3-0.7
		c0.8,0,1.4,0.1,1.9,0.4s0.9,0.7,1.2,1.1c0.3,0.5,0.5,1,0.6,1.6c0.1,0.6,0.2,1.2,0.2,1.8V251z"/>
	<path class="st0" d="M83.1,251.2c-1,0-1.9-0.2-2.8-0.5c-0.8-0.4-1.5-0.8-2.1-1.4c-0.6-0.6-1-1.3-1.3-2.1c-0.3-0.8-0.5-1.6-0.5-2.5
		c0-0.9,0.2-1.7,0.5-2.5c0.3-0.8,0.7-1.5,1.3-2.1c0.6-0.6,1.3-1.1,2.1-1.4c0.8-0.4,1.7-0.5,2.8-0.5s1.9,0.2,2.7,0.5
		c0.8,0.4,1.5,0.8,2.1,1.4s1,1.3,1.3,2.1c0.3,0.8,0.5,1.6,0.5,2.5c0,0.9-0.2,1.7-0.5,2.5c-0.3,0.8-0.7,1.5-1.3,2.1
		c-0.6,0.6-1.2,1.1-2.1,1.4C85.1,251,84.1,251.2,83.1,251.2z M79.8,244.7c0,0.6,0.1,1.1,0.3,1.5s0.4,0.9,0.7,1.2
		c0.3,0.3,0.6,0.6,1,0.8c0.4,0.2,0.8,0.3,1.3,0.3c0.5,0,0.9-0.1,1.3-0.3c0.4-0.2,0.7-0.4,1-0.8s0.5-0.7,0.7-1.2s0.3-1,0.3-1.5
		c0-0.5-0.1-1-0.3-1.5s-0.4-0.9-0.7-1.2s-0.6-0.6-1-0.8c-0.4-0.2-0.8-0.3-1.3-0.3c-0.5,0-0.9,0.1-1.3,0.3c-0.4,0.2-0.7,0.5-1,0.8
		c-0.3,0.3-0.5,0.7-0.7,1.2C79.9,243.7,79.8,244.2,79.8,244.7z"/>
	<path class="st0" d="M99.2,250.3c-0.4,0.2-1,0.4-1.6,0.6c-0.6,0.2-1.3,0.3-2,0.3c-0.4,0-0.9-0.1-1.3-0.2c-0.4-0.1-0.7-0.3-1-0.5
		s-0.5-0.6-0.7-1c-0.2-0.4-0.3-0.9-0.3-1.4v-7.2h-1.7v-2.5h1.7v-4.1h3.2v4.1h2.6v2.5h-2.6v6.1c0,0.4,0.1,0.8,0.3,0.9
		s0.5,0.3,0.9,0.3s0.7-0.1,1-0.2c0.3-0.1,0.6-0.2,0.8-0.3L99.2,250.3z"/>
	<path class="st0" d="M104.3,251.2c-0.6,0-1.2-0.1-1.7-0.3c-0.5-0.2-1-0.5-1.4-0.8c-0.4-0.4-0.7-0.8-0.9-1.3c-0.2-0.5-0.3-1-0.3-1.6
		c0-0.6,0.1-1.1,0.4-1.6c0.3-0.5,0.6-0.9,1.1-1.3c0.5-0.4,1-0.6,1.7-0.8c0.7-0.2,1.4-0.3,2.2-0.3c0.6,0,1.1,0,1.6,0.1
		c0.5,0.1,1,0.2,1.4,0.4V243c0-0.8-0.2-1.5-0.7-1.9c-0.5-0.4-1.2-0.7-2.1-0.7c-0.7,0-1.3,0.1-2,0.4c-0.6,0.2-1.3,0.6-2,1.1l-1-2
		c1.6-1.1,3.4-1.6,5.2-1.6c1.8,0,3.2,0.4,4.2,1.3c1,0.9,1.5,2.2,1.5,3.9v3.9c0,0.3,0.1,0.6,0.2,0.7c0.1,0.1,0.3,0.2,0.6,0.2v2.7
		c-0.5,0.1-1,0.2-1.4,0.2c-0.6,0-1.1-0.1-1.4-0.4c-0.3-0.3-0.5-0.6-0.6-1.1l-0.1-0.7c-0.6,0.7-1.2,1.3-2,1.7
		C106.1,251,105.2,251.2,104.3,251.2z M105.2,248.9c0.5,0,1.1-0.1,1.5-0.3c0.5-0.2,0.9-0.4,1.1-0.8c0.4-0.3,0.5-0.6,0.5-0.9v-1.4
		c-0.4-0.1-0.8-0.3-1.2-0.3c-0.4-0.1-0.9-0.1-1.3-0.1c-0.8,0-1.5,0.2-2,0.6s-0.8,0.9-0.8,1.4c0,0.5,0.2,1,0.6,1.4
		C104.1,248.7,104.6,248.9,105.2,248.9z"/>
	<path class="st0" d="M122.1,250.3c-0.4,0.2-1,0.4-1.6,0.6c-0.6,0.2-1.3,0.3-2,0.3c-0.4,0-0.9-0.1-1.3-0.2c-0.4-0.1-0.7-0.3-1-0.5
		s-0.5-0.6-0.7-1c-0.2-0.4-0.3-0.9-0.3-1.4v-7.2h-1.7v-2.5h1.7v-4.1h3.2v4.1h2.6v2.5h-2.6v6.1c0,0.4,0.1,0.8,0.3,0.9
		s0.5,0.3,0.9,0.3s0.7-0.1,1-0.2c0.3-0.1,0.6-0.2,0.8-0.3L122.1,250.3z"/>
	<path class="st0" d="M129.3,251.2c-1,0-1.9-0.2-2.7-0.5c-0.8-0.3-1.5-0.8-2.1-1.4c-0.6-0.6-1-1.3-1.3-2.1c-0.3-0.8-0.5-1.6-0.5-2.5
		c0-0.9,0.2-1.7,0.5-2.5c0.3-0.8,0.7-1.5,1.3-2.1c0.6-0.6,1.3-1.1,2.1-1.4c0.8-0.4,1.7-0.5,2.8-0.5s1.9,0.2,2.7,0.5
		c0.8,0.4,1.5,0.8,2.1,1.4s1,1.3,1.3,2.1c0.3,0.8,0.4,1.6,0.4,2.4c0,0.2,0,0.4,0,0.6c0,0.2,0,0.4-0.1,0.5h-9.7
		c0,0.5,0.2,0.9,0.4,1.3c0.2,0.4,0.4,0.7,0.7,1c0.3,0.3,0.6,0.5,1,0.6c0.4,0.1,0.8,0.2,1.2,0.2c0.6,0,1.2-0.2,1.8-0.5
		c0.6-0.3,1-0.7,1.2-1.2l2.8,0.8c-0.5,1-1.2,1.7-2.2,2.4C131.9,250.9,130.7,251.2,129.3,251.2z M132.6,243.6c-0.1-0.9-0.4-1.7-1-2.3
		c-0.6-0.6-1.4-0.9-2.2-0.9c-0.4,0-0.8,0.1-1.2,0.2c-0.4,0.2-0.7,0.4-1,0.6c-0.3,0.3-0.5,0.6-0.7,1c-0.2,0.4-0.3,0.8-0.3,1.3H132.6z
		"/>
	<path class="st0" d="M143.1,251.2c-0.9,0-1.7-0.2-2.4-0.5c-0.7-0.3-1.4-0.8-1.9-1.4c-0.5-0.6-0.9-1.3-1.2-2.1
		c-0.3-0.8-0.4-1.6-0.4-2.6s0.1-1.8,0.4-2.5c0.3-0.8,0.7-1.5,1.2-2.1c0.5-0.6,1.1-1.1,1.8-1.4c0.7-0.3,1.4-0.5,2.3-0.5
		c0.9,0,1.8,0.2,2.5,0.7c0.7,0.4,1.3,1,1.7,1.8v-7.2h3.2v13.8c0,0.3,0.1,0.6,0.2,0.7c0.1,0.1,0.3,0.2,0.6,0.2v2.7
		c-0.6,0.1-1,0.2-1.4,0.2c-0.6,0-1-0.1-1.4-0.4s-0.6-0.7-0.6-1.1l-0.1-0.8c-0.5,0.8-1.1,1.4-1.9,1.8
		C144.8,251,143.9,251.2,143.1,251.2z M143.9,248.5c0.3,0,0.6-0.1,0.9-0.2c0.3-0.1,0.6-0.3,0.9-0.4c0.3-0.2,0.5-0.4,0.7-0.7
		c0.2-0.3,0.4-0.5,0.5-0.8v-3c-0.1-0.4-0.3-0.7-0.5-1s-0.5-0.6-0.8-0.8c-0.3-0.2-0.6-0.4-0.9-0.5c-0.3-0.1-0.7-0.2-1-0.2
		c-0.5,0-0.9,0.1-1.3,0.3c-0.4,0.2-0.8,0.5-1,0.9c-0.3,0.4-0.5,0.8-0.7,1.2c-0.2,0.5-0.2,0.9-0.2,1.4c0,0.5,0.1,1,0.3,1.5
		c0.2,0.4,0.4,0.8,0.7,1.2c0.3,0.3,0.7,0.6,1.1,0.8C142.9,248.4,143.4,248.5,143.9,248.5z"/>
	<path class="st0" d="M19.7,280c-1.1,0-2.1-0.2-3.1-0.5c-1-0.3-1.9-0.8-2.6-1.4l1.2-2c0.8,0.5,1.5,1,2.2,1.2
		c0.7,0.3,1.5,0.4,2.2,0.4c0.6,0,1.1-0.1,1.5-0.4s0.6-0.6,0.6-1c0-0.4-0.2-0.8-0.6-1c-0.4-0.2-1.1-0.4-2.1-0.7
		c-0.8-0.2-1.5-0.4-2.1-0.6c-0.6-0.2-1-0.4-1.4-0.7c-0.4-0.3-0.6-0.6-0.8-0.9c-0.2-0.3-0.2-0.8-0.2-1.2c0-0.6,0.1-1.2,0.4-1.7
		c0.2-0.5,0.6-0.9,1-1.3c0.4-0.4,1-0.6,1.6-0.8c0.6-0.2,1.3-0.3,2-0.3c0.9,0,1.8,0.1,2.7,0.4c0.8,0.3,1.6,0.7,2.3,1.3l-1.3,1.9
		c-0.6-0.5-1.3-0.8-1.9-1.1c-0.6-0.2-1.2-0.3-1.8-0.3c-0.5,0-1,0.1-1.4,0.3c-0.4,0.2-0.6,0.6-0.6,1.1c0,0.2,0,0.4,0.1,0.6
		c0.1,0.1,0.2,0.3,0.4,0.4c0.2,0.1,0.4,0.2,0.8,0.3c0.3,0.1,0.7,0.2,1.2,0.3c0.9,0.2,1.6,0.4,2.2,0.7c0.6,0.2,1.1,0.5,1.5,0.8
		c0.4,0.3,0.7,0.6,0.9,1s0.3,0.8,0.3,1.4c0,1.2-0.5,2.2-1.4,2.9S21.3,280,19.7,280z"/>
	<path class="st0" d="M34.4,280c-1,0-1.9-0.2-2.6-0.7c-0.7-0.4-1.3-1-1.7-1.8v7.3h-3.2v-17.7h2.8v2.2c0.5-0.7,1.1-1.3,1.8-1.7
		c0.7-0.4,1.6-0.6,2.5-0.6c0.8,0,1.6,0.2,2.4,0.5c0.7,0.3,1.3,0.8,1.9,1.4c0.5,0.6,0.9,1.3,1.2,2.1s0.4,1.6,0.4,2.5
		c0,0.9-0.1,1.8-0.4,2.6c-0.3,0.8-0.7,1.5-1.1,2.1c-0.5,0.6-1.1,1.1-1.7,1.4S35.2,280,34.4,280z M33.3,277.3c0.5,0,0.9-0.1,1.3-0.3
		c0.4-0.2,0.8-0.5,1-0.8c0.3-0.4,0.5-0.8,0.7-1.2c0.2-0.5,0.2-0.9,0.2-1.4c0-0.5-0.1-1-0.3-1.5s-0.4-0.9-0.7-1.2s-0.7-0.6-1.1-0.8
		c-0.4-0.2-0.9-0.3-1.4-0.3c-0.3,0-0.6,0.1-0.9,0.2c-0.3,0.1-0.6,0.3-0.9,0.4s-0.5,0.4-0.7,0.7c-0.2,0.3-0.4,0.5-0.5,0.8v3
		c0.3,0.7,0.7,1.3,1.3,1.8C32,277,32.6,277.3,33.3,277.3z"/>
	<path class="st0" d="M49.6,270c-1,0-1.8,0.2-2.6,0.6c-0.8,0.4-1.3,0.9-1.7,1.6v7.6h-3.2v-12.6h3v2.7c0.2-0.4,0.5-0.8,0.8-1.2
		c0.3-0.3,0.6-0.6,1-0.9s0.7-0.5,1.1-0.6c0.4-0.1,0.7-0.2,1-0.2c0.2,0,0.3,0,0.4,0c0.1,0,0.2,0,0.3,0V270z"/>
	<path class="st0" d="M56.6,280c-1,0-1.9-0.2-2.7-0.5c-0.8-0.3-1.5-0.8-2.1-1.4c-0.6-0.6-1-1.3-1.3-2.1c-0.3-0.8-0.5-1.6-0.5-2.5
		c0-0.9,0.2-1.7,0.5-2.5c0.3-0.8,0.7-1.5,1.3-2.1c0.6-0.6,1.3-1.1,2.1-1.4c0.8-0.4,1.7-0.5,2.8-0.5s1.9,0.2,2.7,0.5
		c0.8,0.4,1.5,0.8,2.1,1.4s1,1.3,1.3,2.1c0.3,0.8,0.4,1.6,0.4,2.4c0,0.2,0,0.4,0,0.6c0,0.2,0,0.4-0.1,0.5h-9.7
		c0,0.5,0.2,0.9,0.4,1.3c0.2,0.4,0.4,0.7,0.7,1c0.3,0.3,0.6,0.5,1,0.6c0.4,0.1,0.8,0.2,1.2,0.2c0.6,0,1.2-0.2,1.8-0.5
		c0.6-0.3,1-0.7,1.2-1.2l2.8,0.8c-0.5,1-1.2,1.7-2.2,2.4C59.2,279.7,58,280,56.6,280z M59.8,272.4c-0.1-0.9-0.4-1.7-1-2.3
		c-0.6-0.6-1.4-0.9-2.2-0.9c-0.4,0-0.8,0.1-1.2,0.2c-0.4,0.2-0.7,0.4-1,0.6c-0.3,0.3-0.5,0.6-0.7,1c-0.2,0.4-0.3,0.8-0.3,1.3H59.8z"
		/>
	<path class="st0" d="M68.6,280c-0.6,0-1.2-0.1-1.7-0.3c-0.5-0.2-1-0.5-1.4-0.8c-0.4-0.4-0.7-0.8-0.9-1.3c-0.2-0.5-0.3-1-0.3-1.6
		c0-0.6,0.1-1.1,0.4-1.6c0.3-0.5,0.6-0.9,1.1-1.3c0.5-0.4,1-0.6,1.7-0.8c0.7-0.2,1.4-0.3,2.2-0.3c0.6,0,1.1,0,1.6,0.1
		c0.5,0.1,1,0.2,1.4,0.4v-0.7c0-0.8-0.2-1.5-0.7-1.9c-0.5-0.4-1.2-0.7-2.1-0.7c-0.7,0-1.3,0.1-2,0.4c-0.6,0.2-1.3,0.6-2,1.1l-1-2
		c1.6-1.1,3.4-1.6,5.2-1.6c1.8,0,3.2,0.4,4.2,1.3c1,0.9,1.5,2.2,1.5,3.9v3.9c0,0.3,0.1,0.6,0.2,0.7c0.1,0.1,0.3,0.2,0.6,0.2v2.7
		c-0.5,0.1-1,0.2-1.4,0.2c-0.6,0-1.1-0.1-1.4-0.4c-0.3-0.3-0.5-0.6-0.6-1.1l-0.1-0.7c-0.6,0.7-1.2,1.3-2,1.7
		C70.3,279.8,69.5,280,68.6,280z M69.5,277.7c0.5,0,1.1-0.1,1.5-0.3c0.5-0.2,0.9-0.4,1.1-0.8c0.4-0.3,0.5-0.6,0.5-0.9v-1.4
		c-0.4-0.1-0.8-0.3-1.2-0.3c-0.4-0.1-0.9-0.1-1.3-0.1c-0.8,0-1.5,0.2-2,0.6s-0.8,0.9-0.8,1.4c0,0.5,0.2,1,0.6,1.4
		C68.3,277.5,68.9,277.7,69.5,277.7z"/>
	<path class="st0" d="M84.1,280c-0.9,0-1.7-0.2-2.4-0.5c-0.7-0.3-1.4-0.8-1.9-1.4c-0.5-0.6-0.9-1.3-1.2-2.1
		c-0.3-0.8-0.4-1.6-0.4-2.6s0.1-1.8,0.4-2.5c0.3-0.8,0.7-1.5,1.2-2.1c0.5-0.6,1.1-1.1,1.8-1.4c0.7-0.3,1.4-0.5,2.3-0.5
		c0.9,0,1.8,0.2,2.5,0.7c0.7,0.4,1.3,1,1.7,1.8v-7.2h3.2v13.8c0,0.3,0.1,0.6,0.2,0.7c0.1,0.1,0.3,0.2,0.6,0.2v2.7
		c-0.6,0.1-1,0.2-1.4,0.2c-0.6,0-1-0.1-1.4-0.4s-0.6-0.7-0.6-1.1l-0.1-0.8c-0.5,0.8-1.1,1.4-1.9,1.8C85.8,279.8,85,280,84.1,280z
		 M84.9,277.3c0.3,0,0.6-0.1,0.9-0.2c0.3-0.1,0.6-0.3,0.9-0.4c0.3-0.2,0.5-0.4,0.7-0.7c0.2-0.3,0.4-0.5,0.5-0.8v-3
		c-0.1-0.4-0.3-0.7-0.5-1s-0.5-0.6-0.8-0.8c-0.3-0.2-0.6-0.4-0.9-0.5c-0.3-0.1-0.7-0.2-1-0.2c-0.5,0-0.9,0.1-1.3,0.3
		c-0.4,0.2-0.8,0.5-1,0.9c-0.3,0.4-0.5,0.8-0.7,1.2c-0.2,0.5-0.2,0.9-0.2,1.4c0,0.5,0.1,1,0.3,1.5c0.2,0.4,0.4,0.8,0.7,1.2
		c0.3,0.3,0.7,0.6,1.1,0.8C84,277.2,84.4,277.3,84.9,277.3z"/>
	<path class="st0" d="M99.1,280c-1.1,0-2.1-0.2-3.1-0.5c-1-0.3-1.9-0.8-2.6-1.4l1.2-2c0.8,0.5,1.5,1,2.2,1.2
		c0.7,0.3,1.5,0.4,2.2,0.4c0.6,0,1.1-0.1,1.5-0.4s0.6-0.6,0.6-1c0-0.4-0.2-0.8-0.6-1c-0.4-0.2-1.1-0.4-2.1-0.7
		c-0.8-0.2-1.5-0.4-2.1-0.6c-0.6-0.2-1-0.4-1.4-0.7c-0.4-0.3-0.6-0.6-0.8-0.9c-0.2-0.3-0.2-0.8-0.2-1.2c0-0.6,0.1-1.2,0.4-1.7
		c0.2-0.5,0.6-0.9,1-1.3c0.4-0.4,1-0.6,1.6-0.8c0.6-0.2,1.3-0.3,2-0.3c0.9,0,1.8,0.1,2.7,0.4c0.8,0.3,1.6,0.7,2.3,1.3l-1.3,1.9
		c-0.6-0.5-1.3-0.8-1.9-1.1c-0.6-0.2-1.2-0.3-1.8-0.3c-0.5,0-1,0.1-1.4,0.3c-0.4,0.2-0.6,0.6-0.6,1.1c0,0.2,0,0.4,0.1,0.6
		c0.1,0.1,0.2,0.3,0.4,0.4c0.2,0.1,0.4,0.2,0.8,0.3c0.3,0.1,0.7,0.2,1.2,0.3c0.9,0.2,1.6,0.4,2.2,0.7c0.6,0.2,1.1,0.5,1.5,0.8
		c0.4,0.3,0.7,0.6,0.9,1s0.3,0.8,0.3,1.4c0,1.2-0.5,2.2-1.4,2.9S100.7,280,99.1,280z"/>
	<path class="st0" d="M118,279.8h-3.2v-7.1c0-1-0.2-1.7-0.6-2.2s-0.9-0.7-1.6-0.7c-0.3,0-0.6,0.1-0.9,0.2c-0.3,0.1-0.6,0.3-0.9,0.5
		c-0.3,0.2-0.6,0.5-0.8,0.8c-0.2,0.3-0.4,0.7-0.5,1.1v7.3h-3.2v-17.5h3.2v7.3c0.5-0.8,1.1-1.4,1.9-1.9s1.7-0.7,2.6-0.7
		c0.8,0,1.5,0.1,2,0.4c0.5,0.3,0.9,0.7,1.2,1.1c0.3,0.5,0.5,1,0.6,1.6s0.2,1.2,0.2,1.8V279.8z"/>
	<path class="st0" d="M126.6,280c-1,0-1.9-0.2-2.7-0.5c-0.8-0.3-1.5-0.8-2.1-1.4c-0.6-0.6-1-1.3-1.3-2.1c-0.3-0.8-0.5-1.6-0.5-2.5
		c0-0.9,0.2-1.7,0.5-2.5c0.3-0.8,0.7-1.5,1.3-2.1c0.6-0.6,1.3-1.1,2.1-1.4c0.8-0.4,1.7-0.5,2.8-0.5s1.9,0.2,2.7,0.5
		c0.8,0.4,1.5,0.8,2.1,1.4s1,1.3,1.3,2.1c0.3,0.8,0.4,1.6,0.4,2.4c0,0.2,0,0.4,0,0.6c0,0.2,0,0.4-0.1,0.5h-9.7
		c0,0.5,0.2,0.9,0.4,1.3c0.2,0.4,0.4,0.7,0.7,1c0.3,0.3,0.6,0.5,1,0.6c0.4,0.1,0.8,0.2,1.2,0.2c0.6,0,1.2-0.2,1.8-0.5
		c0.6-0.3,1-0.7,1.2-1.2l2.8,0.8c-0.5,1-1.2,1.7-2.2,2.4C129.3,279.7,128,280,126.6,280z M129.9,272.4c-0.1-0.9-0.4-1.7-1-2.3
		c-0.6-0.6-1.4-0.9-2.2-0.9c-0.4,0-0.8,0.1-1.2,0.2c-0.4,0.2-0.7,0.4-1,0.6c-0.3,0.3-0.5,0.6-0.7,1c-0.2,0.4-0.3,0.8-0.3,1.3H129.9z
		"/>
	<path class="st0" d="M141,280c-1,0-1.9-0.2-2.7-0.5c-0.8-0.3-1.5-0.8-2.1-1.4c-0.6-0.6-1-1.3-1.3-2.1c-0.3-0.8-0.5-1.6-0.5-2.5
		c0-0.9,0.2-1.7,0.5-2.5c0.3-0.8,0.7-1.5,1.3-2.1c0.6-0.6,1.3-1.1,2.1-1.4c0.8-0.4,1.7-0.5,2.8-0.5s1.9,0.2,2.7,0.5
		c0.8,0.4,1.5,0.8,2.1,1.4s1,1.3,1.3,2.1c0.3,0.8,0.4,1.6,0.4,2.4c0,0.2,0,0.4,0,0.6c0,0.2,0,0.4-0.1,0.5h-9.7
		c0,0.5,0.2,0.9,0.4,1.3c0.2,0.4,0.4,0.7,0.7,1c0.3,0.3,0.6,0.5,1,0.6c0.4,0.1,0.8,0.2,1.2,0.2c0.6,0,1.2-0.2,1.8-0.5
		c0.6-0.3,1-0.7,1.2-1.2l2.8,0.8c-0.5,1-1.2,1.7-2.2,2.4C143.6,279.7,142.4,280,141,280z M144.3,272.4c-0.1-0.9-0.4-1.7-1-2.3
		c-0.6-0.6-1.4-0.9-2.2-0.9c-0.4,0-0.8,0.1-1.2,0.2c-0.4,0.2-0.7,0.4-1,0.6c-0.3,0.3-0.5,0.6-0.7,1c-0.2,0.4-0.3,0.8-0.3,1.3H144.3z
		"/>
	<path class="st0" d="M157,279.1c-0.4,0.2-1,0.4-1.6,0.6c-0.6,0.2-1.3,0.3-2,0.3c-0.4,0-0.9-0.1-1.3-0.2c-0.4-0.1-0.7-0.3-1-0.5
		s-0.5-0.6-0.7-1c-0.2-0.4-0.3-0.9-0.3-1.4v-7.2h-1.7v-2.5h1.7v-4.1h3.2v4.1h2.6v2.5h-2.6v6.1c0,0.4,0.1,0.8,0.3,0.9
		s0.5,0.3,0.9,0.3s0.7-0.1,1-0.2c0.3-0.1,0.6-0.2,0.8-0.3L157,279.1z"/>
	<path class="st0" d="M163.4,280c-1.1,0-2.1-0.2-3.1-0.5c-1-0.3-1.9-0.8-2.6-1.4l1.2-2c0.8,0.5,1.5,1,2.2,1.2
		c0.7,0.3,1.5,0.4,2.2,0.4c0.6,0,1.1-0.1,1.5-0.4s0.6-0.6,0.6-1c0-0.4-0.2-0.8-0.6-1c-0.4-0.2-1.1-0.4-2.1-0.7
		c-0.8-0.2-1.5-0.4-2.1-0.6c-0.6-0.2-1-0.4-1.4-0.7c-0.4-0.3-0.6-0.6-0.8-0.9c-0.2-0.3-0.2-0.8-0.2-1.2c0-0.6,0.1-1.2,0.4-1.7
		c0.2-0.5,0.6-0.9,1-1.3c0.4-0.4,1-0.6,1.6-0.8c0.6-0.2,1.3-0.3,2-0.3c0.9,0,1.8,0.1,2.7,0.4c0.8,0.3,1.6,0.7,2.3,1.3l-1.3,1.9
		c-0.6-0.5-1.3-0.8-1.9-1.1c-0.6-0.2-1.2-0.3-1.8-0.3c-0.5,0-1,0.1-1.4,0.3c-0.4,0.2-0.6,0.6-0.6,1.1c0,0.2,0,0.4,0.1,0.6
		c0.1,0.1,0.2,0.3,0.4,0.4c0.2,0.1,0.4,0.2,0.8,0.3c0.3,0.1,0.7,0.2,1.2,0.3c0.9,0.2,1.6,0.4,2.2,0.7c0.6,0.2,1.1,0.5,1.5,0.8
		c0.4,0.3,0.7,0.6,0.9,1s0.3,0.8,0.3,1.4c0,1.2-0.5,2.2-1.4,2.9S165,280,163.4,280z"/>
	<path class="st0" d="M3.5,291.5l6.1,15l6.1-15h1.8l-7.1,17H8.8l-7.1-17H3.5z"/>
	<path class="st0" d="M19.5,293.4V291h1.6v2.4H19.5z M19.5,308.6v-12.5h1.6v12.5H19.5z"/>
	<path class="st0" d="M30.1,308.8c-0.9,0-1.7-0.2-2.5-0.5c-0.8-0.3-1.4-0.8-2-1.4c-0.6-0.6-1-1.3-1.3-2.1s-0.5-1.6-0.5-2.5
		c0-0.9,0.2-1.7,0.5-2.5c0.3-0.8,0.7-1.5,1.3-2c0.6-0.6,1.2-1,2-1.4c0.8-0.3,1.6-0.5,2.5-0.5c0.9,0,1.7,0.2,2.5,0.5
		c0.8,0.3,1.4,0.8,2,1.4c0.5,0.6,1,1.3,1.3,2c0.3,0.8,0.5,1.6,0.5,2.4c0,0.1,0,0.3,0,0.4s0,0.2,0,0.3H25.6c0,0.7,0.2,1.3,0.5,1.9
		c0.3,0.6,0.6,1.1,1,1.5s0.9,0.7,1.4,1c0.5,0.2,1.1,0.3,1.7,0.3c0.4,0,0.8-0.1,1.2-0.2c0.4-0.1,0.8-0.3,1.1-0.5
		c0.3-0.2,0.6-0.4,0.9-0.7s0.5-0.6,0.6-0.9l1.4,0.4c-0.2,0.5-0.5,0.9-0.8,1.3s-0.8,0.7-1.2,1s-1,0.5-1.5,0.6
		C31.3,308.7,30.7,308.8,30.1,308.8z M34.7,301.7c0-0.7-0.2-1.3-0.5-1.8c-0.3-0.6-0.6-1-1-1.4s-0.9-0.7-1.4-0.9
		c-0.5-0.2-1.1-0.3-1.7-0.3c-0.6,0-1.2,0.1-1.7,0.3c-0.5,0.2-1,0.5-1.4,0.9c-0.4,0.4-0.7,0.9-1,1.4c-0.2,0.6-0.4,1.2-0.4,1.8H34.7z"
		/>
	<path class="st0" d="M54.2,296.1h1.6l-5.4,12.5h-1.3l-2.7-6.4l-2.7,6.4h-1.3L37,296.1h1.6l4.6,10.8l2.4-5.7l-2.1-5.1h1.4l1.6,4.1
		l1.6-4.1h1.4l-2.1,5.1l2.4,5.7L54.2,296.1z"/>
	<path class="st0" d="M75.4,308.6l-2-2.1c-0.7,0.7-1.4,1.3-2.3,1.7s-1.8,0.6-2.8,0.6c-0.8,0-1.5-0.1-2.1-0.3
		c-0.7-0.2-1.2-0.5-1.7-0.9c-0.5-0.4-0.9-0.9-1.2-1.5s-0.4-1.2-0.4-1.9c0-0.6,0.1-1.1,0.3-1.6c0.2-0.5,0.5-0.9,0.8-1.3
		c0.3-0.4,0.7-0.8,1.2-1.1c0.4-0.4,0.9-0.7,1.4-1c-0.4-0.5-0.8-0.9-1.1-1.2c-0.3-0.4-0.5-0.7-0.7-1c-0.2-0.3-0.3-0.6-0.4-0.9
		s-0.1-0.6-0.1-0.9c0-0.5,0.1-1,0.3-1.5c0.2-0.5,0.5-0.9,0.9-1.2s0.8-0.6,1.4-0.8c0.5-0.2,1.1-0.3,1.7-0.3c0.6,0,1.1,0.1,1.6,0.2
		s0.9,0.4,1.3,0.7c0.4,0.3,0.6,0.7,0.9,1.1c0.2,0.4,0.3,0.9,0.3,1.4c0,0.5-0.1,0.9-0.3,1.4c-0.2,0.4-0.5,0.8-0.8,1.2
		c-0.3,0.4-0.7,0.7-1.2,1.1c-0.4,0.3-0.9,0.7-1.4,1l4.8,5c0.3-0.6,0.6-1.3,0.8-2s0.3-1.5,0.3-2.2h1.4c0,1-0.1,1.9-0.4,2.8
		c-0.2,0.9-0.6,1.7-1.1,2.4l3.2,3.3H75.4z M68.4,307.5c0.8,0,1.6-0.2,2.3-0.5s1.3-0.8,1.8-1.4l-5.2-5.4c-0.8,0.6-1.6,1.2-2.1,1.9
		c-0.6,0.6-0.8,1.4-0.8,2.3c0,0.5,0.1,1,0.3,1.4c0.2,0.4,0.5,0.8,0.9,1c0.4,0.3,0.8,0.5,1.3,0.6C67.4,307.4,67.9,307.5,68.4,307.5z
		 M65.6,295c0,0.2,0,0.4,0.1,0.6c0.1,0.2,0.2,0.4,0.3,0.7s0.4,0.5,0.6,0.9s0.6,0.7,1,1.2c0.9-0.6,1.7-1.2,2.3-1.7
		c0.6-0.5,0.9-1.1,0.9-1.8c0-0.6-0.2-1.1-0.7-1.5c-0.5-0.4-1.1-0.6-1.8-0.6c-0.4,0-0.8,0.1-1.1,0.2s-0.6,0.3-0.9,0.5
		c-0.2,0.2-0.4,0.5-0.6,0.8C65.6,294.4,65.6,294.7,65.6,295z"/>
	<path class="st0" d="M91,308.8c-0.9,0-1.7-0.2-2.5-0.5c-0.8-0.3-1.4-0.8-2-1.4c-0.6-0.6-1-1.3-1.3-2.1s-0.5-1.6-0.5-2.5
		c0-0.9,0.2-1.7,0.5-2.5c0.3-0.8,0.7-1.5,1.3-2c0.6-0.6,1.2-1,2-1.4c0.8-0.3,1.6-0.5,2.5-0.5c0.9,0,1.7,0.2,2.5,0.5
		c0.8,0.3,1.4,0.8,2,1.4c0.5,0.6,1,1.3,1.3,2c0.3,0.8,0.5,1.6,0.5,2.4c0,0.1,0,0.3,0,0.4s0,0.2,0,0.3H86.4c0,0.7,0.2,1.3,0.5,1.9
		c0.3,0.6,0.6,1.1,1,1.5s0.9,0.7,1.4,1c0.5,0.2,1.1,0.3,1.7,0.3c0.4,0,0.8-0.1,1.2-0.2c0.4-0.1,0.8-0.3,1.1-0.5
		c0.3-0.2,0.6-0.4,0.9-0.7s0.5-0.6,0.6-0.9l1.4,0.4c-0.2,0.5-0.5,0.9-0.8,1.3s-0.8,0.7-1.2,1s-1,0.5-1.5,0.6
		C92.2,308.7,91.6,308.8,91,308.8z M95.6,301.7c0-0.7-0.2-1.3-0.5-1.8c-0.3-0.6-0.6-1-1-1.4s-0.9-0.7-1.4-0.9
		c-0.5-0.2-1.1-0.3-1.7-0.3c-0.6,0-1.2,0.1-1.7,0.3c-0.5,0.2-1,0.5-1.4,0.9c-0.4,0.4-0.7,0.9-1,1.4c-0.2,0.6-0.4,1.2-0.4,1.8H95.6z"
		/>
	<path class="st0" d="M104.8,308.8c-0.9,0-1.7-0.2-2.4-0.5c-0.7-0.4-1.4-0.8-1.9-1.4c-0.5-0.6-0.9-1.3-1.2-2.1
		c-0.3-0.8-0.4-1.6-0.4-2.4c0-0.9,0.1-1.7,0.4-2.5s0.7-1.5,1.2-2.1s1.1-1.1,1.8-1.4c0.7-0.3,1.5-0.5,2.3-0.5c1.1,0,2,0.3,2.8,0.8
		c0.8,0.6,1.5,1.2,1.9,2V291h1.6v15.4c0,0.4,0.2,0.7,0.6,0.7v1.4c-0.2,0-0.4,0.1-0.6,0.1c-0.4,0-0.7-0.1-1-0.4s-0.4-0.5-0.4-0.9
		v-1.2c-0.5,0.8-1.2,1.5-2,1.9C106.6,308.6,105.7,308.8,104.8,308.8z M105.2,307.4c0.4,0,0.8-0.1,1.3-0.2c0.5-0.2,0.9-0.4,1.3-0.7
		c0.4-0.3,0.7-0.6,1-1s0.5-0.8,0.5-1.2v-3.9c-0.2-0.4-0.4-0.8-0.7-1.2c-0.3-0.4-0.7-0.7-1-1c-0.4-0.3-0.8-0.5-1.3-0.7
		c-0.4-0.2-0.9-0.2-1.3-0.2c-0.7,0-1.3,0.1-1.8,0.4s-1,0.7-1.4,1.1c-0.4,0.5-0.7,1-0.9,1.6c-0.2,0.6-0.3,1.2-0.3,1.9
		c0,0.7,0.1,1.3,0.4,1.9s0.6,1.1,1,1.6s0.9,0.8,1.5,1.1C103.9,307.2,104.5,307.4,105.2,307.4z"/>
	<path class="st0" d="M114.6,293.4V291h1.6v2.4H114.6z M114.6,308.6v-12.5h1.6v12.5H114.6z"/>
	<path class="st0" d="M125.8,308c-0.1,0-0.2,0.1-0.4,0.2s-0.4,0.2-0.6,0.2c-0.2,0.1-0.5,0.2-0.8,0.2c-0.3,0.1-0.6,0.1-1,0.1
		c-0.4,0-0.7,0-1-0.1c-0.3-0.1-0.6-0.2-0.8-0.4c-0.2-0.2-0.4-0.5-0.6-0.8c-0.1-0.3-0.2-0.7-0.2-1.1v-9h-1.7v-1.3h1.7v-4.2h1.6v4.2
		h2.9v1.3H122v8.5c0,0.5,0.2,0.8,0.5,1c0.3,0.2,0.6,0.3,1,0.3c0.5,0,0.9-0.1,1.2-0.2s0.6-0.3,0.7-0.3L125.8,308z"/>
	<path class="st0" d="M139.1,308.8c-0.9,0-1.7-0.2-2.4-0.5c-0.7-0.4-1.4-0.8-1.9-1.4c-0.5-0.6-0.9-1.3-1.2-2.1
		c-0.3-0.8-0.4-1.6-0.4-2.4c0-0.9,0.1-1.7,0.4-2.5s0.7-1.5,1.2-2.1s1.1-1.1,1.8-1.4c0.7-0.3,1.5-0.5,2.3-0.5c1.1,0,2,0.3,2.8,0.8
		c0.8,0.6,1.5,1.2,1.9,2V291h1.6v15.4c0,0.4,0.2,0.7,0.6,0.7v1.4c-0.2,0-0.4,0.1-0.6,0.1c-0.4,0-0.7-0.1-1-0.4s-0.4-0.5-0.4-0.9
		v-1.2c-0.5,0.8-1.2,1.5-2,1.9C140.9,308.6,140,308.8,139.1,308.8z M139.5,307.4c0.4,0,0.8-0.1,1.3-0.2c0.5-0.2,0.9-0.4,1.3-0.7
		c0.4-0.3,0.7-0.6,1-1s0.5-0.8,0.5-1.2v-3.9c-0.2-0.4-0.4-0.8-0.7-1.2c-0.3-0.4-0.7-0.7-1-1c-0.4-0.3-0.8-0.5-1.3-0.7
		c-0.4-0.2-0.9-0.2-1.3-0.2c-0.7,0-1.3,0.1-1.8,0.4s-1,0.7-1.4,1.1c-0.4,0.5-0.7,1-0.9,1.6c-0.2,0.6-0.3,1.2-0.3,1.9
		c0,0.7,0.1,1.3,0.4,1.9s0.6,1.1,1,1.6s0.9,0.8,1.5,1.1C138.2,307.2,138.8,307.4,139.5,307.4z"/>
	<path class="st0" d="M152.1,308.8c-0.6,0-1.1-0.1-1.6-0.3c-0.5-0.2-0.9-0.5-1.3-0.8c-0.4-0.4-0.7-0.8-0.9-1.2
		c-0.2-0.5-0.3-1-0.3-1.5c0-0.5,0.1-1,0.4-1.5c0.3-0.5,0.6-0.9,1.1-1.2s1-0.6,1.7-0.8c0.6-0.2,1.3-0.3,2.1-0.3
		c0.6,0,1.3,0.1,1.9,0.2c0.7,0.1,1.2,0.3,1.8,0.5v-1.1c0-1.1-0.3-2-0.9-2.6c-0.6-0.6-1.5-1-2.6-1c-0.6,0-1.3,0.1-2,0.4
		c-0.7,0.3-1.4,0.6-2,1.1l-0.6-1.1c1.6-1.1,3.2-1.6,4.7-1.6c1.6,0,2.8,0.4,3.7,1.3c0.9,0.9,1.3,2.1,1.3,3.6v5.6
		c0,0.4,0.2,0.7,0.6,0.7v1.4c-0.3,0-0.5,0.1-0.6,0.1c-0.4,0-0.7-0.1-1-0.3c-0.2-0.2-0.4-0.5-0.4-0.9l0-1c-0.6,0.8-1.3,1.3-2.2,1.7
		C154,308.6,153.1,308.8,152.1,308.8z M152.4,307.6c0.8,0,1.6-0.2,2.3-0.5c0.7-0.3,1.3-0.7,1.6-1.3c0.1-0.1,0.3-0.3,0.3-0.5
		c0.1-0.2,0.1-0.3,0.1-0.5v-2c-0.5-0.2-1.1-0.4-1.7-0.5s-1.2-0.2-1.8-0.2c-1.2,0-2.1,0.2-2.8,0.7c-0.7,0.5-1.1,1.1-1.1,1.9
		c0,0.4,0.1,0.7,0.2,1.1c0.2,0.3,0.4,0.6,0.6,0.9c0.3,0.2,0.6,0.4,0.9,0.6C151.6,307.5,152,307.6,152.4,307.6z"/>
	<path class="st0" d="M167.9,308c-0.1,0-0.2,0.1-0.4,0.2s-0.4,0.2-0.6,0.2c-0.2,0.1-0.5,0.2-0.8,0.2c-0.3,0.1-0.6,0.1-1,0.1
		c-0.4,0-0.7,0-1-0.1c-0.3-0.1-0.6-0.2-0.8-0.4c-0.2-0.2-0.4-0.5-0.6-0.8c-0.1-0.3-0.2-0.7-0.2-1.1v-9h-1.7v-1.3h1.7v-4.2h1.6v4.2
		h2.9v1.3h-2.9v8.5c0,0.5,0.2,0.8,0.5,1c0.3,0.2,0.6,0.3,1,0.3c0.5,0,0.9-0.1,1.2-0.2s0.6-0.3,0.7-0.3L167.9,308z"/>
	<path class="st0" d="M173.1,308.8c-0.6,0-1.1-0.1-1.6-0.3c-0.5-0.2-0.9-0.5-1.3-0.8c-0.4-0.4-0.7-0.8-0.9-1.2
		c-0.2-0.5-0.3-1-0.3-1.5c0-0.5,0.1-1,0.4-1.5c0.3-0.5,0.6-0.9,1.1-1.2s1-0.6,1.7-0.8c0.6-0.2,1.3-0.3,2.1-0.3
		c0.6,0,1.3,0.1,1.9,0.2c0.7,0.1,1.2,0.3,1.8,0.5v-1.1c0-1.1-0.3-2-0.9-2.6c-0.6-0.6-1.5-1-2.6-1c-0.6,0-1.3,0.1-2,0.4
		c-0.7,0.3-1.4,0.6-2,1.1l-0.6-1.1c1.6-1.1,3.2-1.6,4.7-1.6c1.6,0,2.8,0.4,3.7,1.3c0.9,0.9,1.3,2.1,1.3,3.6v5.6
		c0,0.4,0.2,0.7,0.6,0.7v1.4c-0.3,0-0.5,0.1-0.6,0.1c-0.4,0-0.7-0.1-1-0.3c-0.2-0.2-0.4-0.5-0.4-0.9l0-1c-0.6,0.8-1.3,1.3-2.2,1.7
		C175,308.6,174.1,308.8,173.1,308.8z M173.5,307.6c0.8,0,1.6-0.2,2.3-0.5c0.7-0.3,1.3-0.7,1.6-1.3c0.1-0.1,0.3-0.3,0.3-0.5
		c0.1-0.2,0.1-0.3,0.1-0.5v-2c-0.5-0.2-1.1-0.4-1.7-0.5s-1.2-0.2-1.8-0.2c-1.2,0-2.1,0.2-2.8,0.7c-0.7,0.5-1.1,1.1-1.1,1.9
		c0,0.4,0.1,0.7,0.2,1.1c0.2,0.3,0.4,0.6,0.6,0.9c0.3,0.2,0.6,0.4,0.9,0.6C172.7,307.5,173,307.6,173.5,307.6z"/>
</g>
<g>
	<path class="st1" d="M583.7,251.1c-1.2,0-2.4-0.2-3.4-0.7c-1-0.5-1.9-1.1-2.6-1.9c-0.7-0.8-1.3-1.7-1.7-2.8c-0.4-1-0.6-2.1-0.6-3.2
		c0-1.1,0.2-2.2,0.6-3.3s1-2,1.8-2.8s1.6-1.4,2.7-1.9c1-0.5,2.1-0.7,3.3-0.7c1.2,0,2.4,0.3,3.4,0.8c1,0.5,1.9,1.2,2.6,2
		c0.7,0.8,1.3,1.7,1.7,2.8c0.4,1,0.6,2.1,0.6,3.2c0,1.1-0.2,2.2-0.6,3.3c-0.4,1-1,1.9-1.7,2.7c-0.7,0.8-1.6,1.4-2.6,1.9
		C586.1,250.8,584.9,251.1,583.7,251.1z M578.8,242.4c0,0.7,0.1,1.4,0.3,2.1c0.2,0.7,0.5,1.3,1,1.8c0.4,0.5,0.9,1,1.6,1.3
		c0.6,0.3,1.3,0.5,2.1,0.5c0.8,0,1.5-0.2,2.1-0.5c0.6-0.3,1.1-0.8,1.6-1.3c0.4-0.5,0.7-1.2,1-1.8c0.2-0.7,0.3-1.4,0.3-2.1
		c0-0.7-0.1-1.4-0.3-2.1c-0.2-0.7-0.6-1.3-1-1.8c-0.4-0.5-0.9-0.9-1.6-1.3c-0.6-0.3-1.3-0.5-2.1-0.5c-0.8,0-1.5,0.2-2.1,0.5
		s-1.1,0.8-1.6,1.3s-0.7,1.1-0.9,1.8S578.8,241.7,578.8,242.4z"/>
	<path class="st1" d="M601.5,251.2c-1,0-1.8-0.2-2.6-0.6c-0.8-0.4-1.3-1-1.8-1.8v2.2h-2.8v-17.5h3.2v7.2c0.4-0.8,1-1.4,1.8-1.8
		c0.7-0.4,1.6-0.6,2.6-0.6c0.8,0,1.6,0.2,2.2,0.5c0.7,0.4,1.3,0.8,1.7,1.4c0.5,0.6,0.9,1.3,1.1,2.1c0.3,0.8,0.4,1.6,0.4,2.5
		c0,0.9-0.1,1.8-0.4,2.5c-0.3,0.8-0.7,1.5-1.2,2.1s-1.2,1-1.9,1.4S602.3,251.2,601.5,251.2z M600.6,248.5c0.5,0,1-0.1,1.4-0.3
		c0.4-0.2,0.8-0.5,1.1-0.8s0.5-0.7,0.7-1.2c0.2-0.4,0.3-0.9,0.3-1.4s-0.1-1-0.2-1.5c-0.2-0.5-0.4-0.9-0.7-1.2
		c-0.3-0.4-0.6-0.6-1-0.8c-0.4-0.2-0.8-0.3-1.3-0.3c-0.7,0-1.4,0.2-1.9,0.7c-0.6,0.5-1,1.1-1.3,1.7v3c0.1,0.3,0.3,0.6,0.5,0.9
		c0.2,0.3,0.5,0.5,0.7,0.7c0.3,0.2,0.6,0.3,0.9,0.4C600,248.4,600.3,248.5,600.6,248.5z"/>
	<path class="st1" d="M608.5,255.7c-0.6,0-1.2-0.1-1.7-0.3s-1-0.5-1.5-0.9l1.4-2.2c0.2,0.2,0.4,0.3,0.6,0.4s0.5,0.1,0.8,0.1
		c0.4,0,0.8-0.1,1.1-0.4s0.5-0.7,0.5-1.1v-12.9h3.2v12.7c0,0.7-0.1,1.3-0.3,1.9c-0.2,0.6-0.5,1.1-0.9,1.5s-0.9,0.7-1.4,0.9
		C609.7,255.6,609.1,255.7,608.5,255.7z M609.6,236.6v-3.2h3.2v3.2H609.6z"/>
	<path class="st1" d="M621.6,251.2c-1,0-1.9-0.2-2.7-0.5c-0.8-0.3-1.5-0.8-2.1-1.4c-0.6-0.6-1-1.3-1.3-2.1c-0.3-0.8-0.5-1.6-0.5-2.5
		c0-0.9,0.2-1.7,0.5-2.5s0.7-1.5,1.3-2.1s1.3-1.1,2.1-1.4c0.8-0.4,1.7-0.5,2.8-0.5c1,0,1.9,0.2,2.7,0.5c0.8,0.4,1.5,0.8,2.1,1.4
		c0.6,0.6,1,1.3,1.3,2.1c0.3,0.8,0.4,1.6,0.4,2.4c0,0.2,0,0.4,0,0.6c0,0.2,0,0.4-0.1,0.5h-9.7c0,0.5,0.2,0.9,0.4,1.3
		c0.2,0.4,0.4,0.7,0.7,1c0.3,0.3,0.6,0.5,1,0.6c0.4,0.1,0.8,0.2,1.2,0.2c0.6,0,1.2-0.2,1.8-0.5c0.6-0.3,1-0.7,1.2-1.2l2.8,0.8
		c-0.5,1-1.2,1.7-2.2,2.4C624.2,250.9,623,251.2,621.6,251.2z M624.9,243.6c-0.1-0.9-0.4-1.7-1-2.3c-0.6-0.6-1.4-0.9-2.2-0.9
		c-0.4,0-0.8,0.1-1.2,0.2c-0.4,0.2-0.7,0.4-1,0.6c-0.3,0.3-0.5,0.6-0.7,1c-0.2,0.4-0.3,0.8-0.3,1.3H624.9z"/>
	<path class="st1" d="M629.4,244.7c0-0.9,0.2-1.7,0.5-2.5c0.3-0.8,0.7-1.5,1.3-2.1s1.3-1.1,2.1-1.4c0.8-0.4,1.7-0.5,2.8-0.5
		c1.4,0,2.5,0.3,3.5,0.9c1,0.6,1.7,1.4,2.2,2.3l-3.1,1c-0.3-0.5-0.6-0.8-1.1-1.1c-0.4-0.2-0.9-0.4-1.5-0.4c-0.5,0-0.9,0.1-1.3,0.3
		c-0.4,0.2-0.7,0.4-1,0.8c-0.3,0.3-0.5,0.7-0.7,1.2c-0.2,0.5-0.3,1-0.3,1.5c0,0.6,0.1,1.1,0.3,1.5s0.4,0.9,0.7,1.2s0.6,0.6,1,0.8
		c0.4,0.2,0.8,0.3,1.3,0.3c0.6,0,1.1-0.1,1.6-0.4s0.8-0.6,1-1.1l3.1,1c-0.4,1-1.1,1.7-2.1,2.4c-1,0.6-2.2,0.9-3.6,0.9
		c-1,0-1.9-0.2-2.8-0.5c-0.8-0.4-1.5-0.8-2.1-1.4c-0.6-0.6-1-1.3-1.3-2.1C629.5,246.4,629.4,245.5,629.4,244.7z"/>
	<path class="st1" d="M651.2,250.3c-0.4,0.2-1,0.4-1.6,0.6c-0.6,0.2-1.3,0.3-2,0.3c-0.4,0-0.9-0.1-1.3-0.2c-0.4-0.1-0.7-0.3-1-0.5
		s-0.5-0.6-0.7-1c-0.2-0.4-0.3-0.9-0.3-1.4v-7.2h-1.7v-2.5h1.7v-4.1h3.2v4.1h2.6v2.5h-2.6v6.1c0,0.4,0.1,0.8,0.3,0.9
		c0.2,0.2,0.5,0.3,0.9,0.3s0.7-0.1,1-0.2c0.3-0.1,0.6-0.2,0.8-0.3L651.2,250.3z"/>
	<path class="st1" d="M663.6,251c-0.8,0-1.6-0.2-2.3-0.5c-0.7-0.3-1.3-0.8-1.8-1.4s-0.9-1.3-1.2-2c-0.3-0.8-0.4-1.6-0.4-2.4
		c0-0.9,0.1-1.8,0.4-2.5s0.7-1.5,1.2-2.1c0.5-0.6,1.1-1.1,1.8-1.4c0.7-0.3,1.5-0.5,2.4-0.5c1,0,1.8,0.2,2.6,0.7s1.3,1,1.8,1.8v-2.2
		h2.8v12c0,0.9-0.2,1.8-0.5,2.5c-0.4,0.7-0.8,1.4-1.5,1.9c-0.6,0.5-1.4,0.9-2.2,1.2c-0.9,0.3-1.8,0.4-2.8,0.4
		c-1.4,0-2.5-0.2-3.5-0.7c-0.9-0.5-1.7-1.1-2.4-1.9l1.8-1.7c0.5,0.6,1.1,1.1,1.8,1.4s1.5,0.5,2.3,0.5c0.5,0,1-0.1,1.4-0.2
		s0.9-0.3,1.2-0.6s0.6-0.7,0.8-1.1c0.2-0.4,0.3-1,0.3-1.6v-1.6c-0.4,0.7-1,1.3-1.8,1.7C665.3,250.8,664.5,251,663.6,251z
		 M664.7,248.5c0.4,0,0.7-0.1,1-0.2c0.3-0.1,0.6-0.3,0.9-0.5c0.3-0.2,0.5-0.4,0.7-0.7c0.2-0.3,0.4-0.5,0.5-0.8v-3
		c-0.3-0.7-0.7-1.3-1.4-1.8c-0.6-0.4-1.3-0.7-1.9-0.7c-0.5,0-0.9,0.1-1.3,0.3c-0.4,0.2-0.7,0.5-1,0.9c-0.3,0.4-0.5,0.8-0.7,1.2
		c-0.2,0.5-0.2,0.9-0.2,1.4c0,0.5,0.1,1,0.3,1.4s0.4,0.8,0.7,1.2c0.3,0.3,0.7,0.6,1.1,0.8C663.7,248.4,664.2,248.5,664.7,248.5z"/>
	<path class="st1" d="M681.4,241.2c-1,0-1.8,0.2-2.6,0.6c-0.8,0.4-1.3,0.9-1.7,1.6v7.6h-3.2v-12.6h3v2.7c0.2-0.4,0.5-0.8,0.8-1.2
		s0.6-0.6,1-0.9c0.4-0.3,0.7-0.5,1.1-0.6c0.4-0.1,0.7-0.2,1-0.2c0.2,0,0.3,0,0.4,0s0.2,0,0.3,0V241.2z"/>
	<path class="st1" d="M686.4,251.2c-0.6,0-1.2-0.1-1.7-0.3c-0.5-0.2-1-0.5-1.4-0.8c-0.4-0.4-0.7-0.8-0.9-1.3c-0.2-0.5-0.3-1-0.3-1.6
		c0-0.6,0.1-1.1,0.4-1.6s0.6-0.9,1.1-1.3c0.5-0.4,1-0.6,1.7-0.8s1.4-0.3,2.2-0.3c0.6,0,1.1,0,1.6,0.1c0.5,0.1,1,0.2,1.4,0.4V243
		c0-0.8-0.2-1.5-0.7-1.9c-0.5-0.4-1.2-0.7-2.1-0.7c-0.7,0-1.3,0.1-2,0.4s-1.3,0.6-2,1.1l-1-2c1.6-1.1,3.4-1.6,5.2-1.6
		c1.8,0,3.2,0.4,4.2,1.3s1.5,2.2,1.5,3.9v3.9c0,0.3,0.1,0.6,0.2,0.7c0.1,0.1,0.3,0.2,0.6,0.2v2.7c-0.5,0.1-1,0.2-1.4,0.2
		c-0.6,0-1.1-0.1-1.4-0.4c-0.3-0.3-0.5-0.6-0.6-1.1l-0.1-0.7c-0.6,0.7-1.2,1.3-2,1.7S687.4,251.2,686.4,251.2z M687.4,248.9
		c0.5,0,1.1-0.1,1.5-0.3c0.5-0.2,0.9-0.4,1.1-0.8c0.4-0.3,0.5-0.6,0.5-0.9v-1.4c-0.4-0.1-0.8-0.3-1.2-0.3c-0.4-0.1-0.9-0.1-1.3-0.1
		c-0.8,0-1.5,0.2-2,0.6c-0.5,0.4-0.8,0.9-0.8,1.4c0,0.5,0.2,1,0.6,1.4C686.2,248.7,686.7,248.9,687.4,248.9z"/>
	<path class="st1" d="M704.3,251.2c-1,0-1.9-0.2-2.6-0.7c-0.7-0.4-1.3-1-1.7-1.8v7.3h-3.2v-17.7h2.8v2.2c0.5-0.7,1.1-1.3,1.8-1.7
		c0.7-0.4,1.6-0.6,2.5-0.6c0.8,0,1.6,0.2,2.4,0.5c0.7,0.3,1.3,0.8,1.9,1.4c0.5,0.6,0.9,1.3,1.2,2.1s0.4,1.6,0.4,2.5
		c0,0.9-0.1,1.8-0.4,2.6c-0.3,0.8-0.7,1.5-1.1,2.1c-0.5,0.6-1.1,1.1-1.7,1.4S705.1,251.2,704.3,251.2z M703.2,248.5
		c0.5,0,0.9-0.1,1.3-0.3s0.8-0.5,1-0.8c0.3-0.4,0.5-0.8,0.7-1.2s0.2-0.9,0.2-1.4c0-0.5-0.1-1-0.3-1.5c-0.2-0.5-0.4-0.9-0.7-1.2
		c-0.3-0.3-0.7-0.6-1.1-0.8c-0.4-0.2-0.9-0.3-1.4-0.3c-0.3,0-0.6,0.1-0.9,0.2c-0.3,0.1-0.6,0.3-0.9,0.4c-0.3,0.2-0.5,0.4-0.7,0.7
		s-0.4,0.5-0.5,0.8v3c0.3,0.7,0.7,1.3,1.3,1.8C701.9,248.2,702.6,248.5,703.2,248.5z"/>
	<path class="st1" d="M723.7,251h-3.2v-7.1c0-1-0.2-1.7-0.6-2.2s-0.9-0.7-1.6-0.7c-0.3,0-0.6,0.1-0.9,0.2c-0.3,0.1-0.6,0.3-0.9,0.5
		c-0.3,0.2-0.6,0.5-0.8,0.8c-0.2,0.3-0.4,0.7-0.5,1.1v7.3H712v-17.5h3.2v7.3c0.5-0.8,1.1-1.4,1.9-1.9s1.7-0.7,2.6-0.7
		c0.8,0,1.5,0.1,2,0.4c0.5,0.3,0.9,0.7,1.2,1.1s0.5,1,0.6,1.6c0.1,0.6,0.2,1.2,0.2,1.8V251z"/>
	<path class="st1" d="M554.7,271.1c0-1,0.2-2,0.5-3.1c0.4-1,0.9-1.9,1.6-2.7c0.7-0.8,1.5-1.5,2.5-2c1-0.5,2.2-0.8,3.4-0.8
		c1.5,0,2.8,0.3,3.9,1c1.1,0.7,1.9,1.6,2.4,2.7l-1.3,0.8c-0.3-0.6-0.6-1-1-1.4c-0.4-0.4-0.8-0.7-1.3-0.9s-0.9-0.4-1.4-0.5
		c-0.5-0.1-1-0.2-1.4-0.2c-1,0-1.9,0.2-2.7,0.6c-0.8,0.4-1.4,1-2,1.6s-0.9,1.4-1.2,2.3c-0.3,0.8-0.4,1.7-0.4,2.6
		c0,0.9,0.2,1.8,0.5,2.7s0.8,1.6,1.3,2.3c0.6,0.7,1.2,1.2,2,1.6c0.8,0.4,1.6,0.6,2.5,0.6c0.5,0,1-0.1,1.5-0.2s1-0.3,1.5-0.6
		s0.9-0.6,1.3-1c0.4-0.4,0.7-0.9,1-1.4l1.4,0.7c-0.3,0.6-0.7,1.2-1.2,1.7s-1,0.9-1.7,1.2c-0.6,0.3-1.3,0.6-1.9,0.8s-1.3,0.3-2,0.3
		c-1.2,0-2.2-0.3-3.2-0.8c-1-0.5-1.8-1.2-2.5-2c-0.7-0.8-1.3-1.8-1.6-2.8C554.9,273.3,554.7,272.2,554.7,271.1z"/>
	<path class="st1" d="M577.3,280c-0.9,0-1.7-0.2-2.5-0.5c-0.8-0.3-1.4-0.8-2-1.4s-1-1.3-1.3-2.1c-0.3-0.8-0.5-1.6-0.5-2.5
		c0-0.9,0.2-1.7,0.5-2.5c0.3-0.8,0.7-1.5,1.3-2.1c0.6-0.6,1.2-1.1,2-1.4c0.8-0.4,1.6-0.5,2.5-0.5c0.9,0,1.7,0.2,2.5,0.5
		c0.8,0.4,1.4,0.8,2,1.4c0.6,0.6,1,1.3,1.3,2.1c0.3,0.8,0.5,1.6,0.5,2.5c0,0.9-0.2,1.7-0.5,2.5c-0.3,0.8-0.7,1.5-1.3,2.1
		s-1.2,1.1-2,1.4C579,279.8,578.2,280,577.3,280z M572.7,273.6c0,0.7,0.1,1.4,0.4,2c0.2,0.6,0.6,1.1,1,1.6s0.9,0.8,1.4,1.1
		c0.6,0.3,1.1,0.4,1.8,0.4s1.2-0.1,1.8-0.4c0.6-0.3,1-0.6,1.5-1.1s0.7-1,1-1.6c0.2-0.6,0.4-1.3,0.4-2c0-0.7-0.1-1.3-0.4-2
		c-0.2-0.6-0.6-1.2-1-1.6s-0.9-0.8-1.5-1.1c-0.6-0.3-1.1-0.4-1.8-0.4s-1.2,0.1-1.8,0.4c-0.5,0.3-1,0.6-1.4,1.1s-0.7,1-1,1.6
		C572.9,272.2,572.7,272.9,572.7,273.6z"/>
	<path class="st1" d="M604.8,279.8h-1.6v-7c0-1.5-0.2-2.5-0.7-3.2c-0.5-0.7-1.2-1-2.1-1c-0.5,0-0.9,0.1-1.4,0.3s-0.8,0.4-1.2,0.7
		c-0.4,0.3-0.7,0.7-0.9,1.1c-0.3,0.4-0.5,0.9-0.6,1.5v7.6h-1.6v-7c0-1.5-0.2-2.6-0.7-3.2c-0.4-0.7-1.1-1-2.1-1c-0.9,0-1.8,0.3-2.5,1
		c-0.7,0.7-1.3,1.5-1.6,2.6v7.7h-1.6v-12.5h1.5v2.8c0.5-1,1.2-1.7,2-2.2c0.8-0.5,1.8-0.8,2.8-0.8c1.1,0,1.9,0.3,2.5,0.9
		c0.6,0.6,1,1.4,1.2,2.3c1.2-2.1,2.8-3.2,4.8-3.2c0.7,0,1.3,0.1,1.8,0.4s0.9,0.6,1.2,1.1c0.3,0.5,0.5,1,0.6,1.7s0.2,1.4,0.2,2.2
		V279.8z"/>
	<path class="st1" d="M614.7,280c-1.1,0-2-0.3-2.8-0.8c-0.8-0.5-1.5-1.2-2-2v7.7h-1.6v-17.6h1.5v2.4c0.5-0.8,1.2-1.4,2-1.9
		c0.8-0.5,1.7-0.7,2.7-0.7c0.9,0,1.7,0.2,2.4,0.5c0.7,0.4,1.3,0.8,1.9,1.4c0.5,0.6,0.9,1.3,1.2,2.1c0.3,0.8,0.4,1.6,0.4,2.4
		c0,0.9-0.1,1.7-0.4,2.5c-0.3,0.8-0.7,1.5-1.2,2.1s-1.1,1.1-1.8,1.4C616.3,279.8,615.5,280,614.7,280z M614.2,278.6
		c0.7,0,1.3-0.1,1.8-0.4s1-0.7,1.4-1.1c0.4-0.5,0.7-1,0.9-1.6c0.2-0.6,0.3-1.2,0.3-1.9c0-0.7-0.1-1.3-0.4-1.9
		c-0.2-0.6-0.6-1.1-1-1.6c-0.4-0.5-0.9-0.8-1.5-1.1c-0.6-0.3-1.2-0.4-1.8-0.4c-0.4,0-0.9,0.1-1.3,0.3s-0.9,0.4-1.3,0.7
		c-0.4,0.3-0.7,0.6-1,1c-0.3,0.4-0.5,0.8-0.5,1.2v3.8c0.2,0.4,0.4,0.9,0.7,1.2c0.3,0.4,0.6,0.7,1,1c0.4,0.3,0.8,0.5,1.2,0.7
		C613.3,278.5,613.8,278.6,614.2,278.6z"/>
	<path class="st1" d="M626.2,280c-0.6,0-1.1-0.1-1.6-0.3c-0.5-0.2-0.9-0.5-1.3-0.8c-0.4-0.4-0.7-0.8-0.9-1.2c-0.2-0.5-0.3-1-0.3-1.5
		c0-0.5,0.1-1,0.4-1.5c0.3-0.5,0.6-0.9,1.1-1.2s1-0.6,1.7-0.8c0.6-0.2,1.3-0.3,2.1-0.3c0.6,0,1.3,0.1,1.9,0.2
		c0.7,0.1,1.2,0.3,1.8,0.5v-1.1c0-1.1-0.3-2-0.9-2.6c-0.6-0.6-1.5-1-2.6-1c-0.6,0-1.3,0.1-2,0.4c-0.7,0.3-1.4,0.6-2,1.1l-0.6-1.1
		c1.6-1.1,3.2-1.6,4.7-1.6c1.6,0,2.8,0.4,3.7,1.3c0.9,0.9,1.3,2.1,1.3,3.6v5.6c0,0.4,0.2,0.7,0.6,0.7v1.4c-0.3,0-0.5,0.1-0.6,0.1
		c-0.4,0-0.7-0.1-1-0.3c-0.2-0.2-0.4-0.5-0.4-0.9l0-1c-0.6,0.8-1.3,1.3-2.2,1.7C628.2,279.8,627.2,280,626.2,280z M626.6,278.8
		c0.8,0,1.6-0.2,2.3-0.5c0.7-0.3,1.3-0.7,1.6-1.3c0.1-0.1,0.3-0.3,0.3-0.5c0.1-0.2,0.1-0.3,0.1-0.5v-2c-0.5-0.2-1.1-0.4-1.7-0.5
		s-1.2-0.2-1.8-0.2c-1.2,0-2.1,0.2-2.8,0.7c-0.7,0.5-1.1,1.1-1.1,1.9c0,0.4,0.1,0.7,0.2,1.1c0.2,0.3,0.4,0.6,0.6,0.9
		s0.6,0.4,0.9,0.6C625.8,278.7,626.2,278.8,626.6,278.8z"/>
	<path class="st1" d="M642.4,268.7c-1.1,0-2.1,0.3-2.9,0.9c-0.8,0.6-1.4,1.4-1.7,2.4v7.8h-1.6v-12.5h1.5v3c0.5-1,1.1-1.7,1.9-2.3
		s1.6-0.8,2.5-0.8c0.1,0,0.2,0,0.3,0V268.7z"/>
	<path class="st1" d="M649.4,280c-0.9,0-1.7-0.2-2.5-0.5c-0.8-0.3-1.4-0.8-2-1.4c-0.6-0.6-1-1.3-1.3-2.1c-0.3-0.8-0.5-1.6-0.5-2.5
		c0-0.9,0.2-1.7,0.5-2.5c0.3-0.8,0.7-1.5,1.3-2c0.6-0.6,1.2-1,2-1.4c0.8-0.3,1.6-0.5,2.5-0.5c0.9,0,1.7,0.2,2.5,0.5
		c0.8,0.3,1.4,0.8,2,1.4s1,1.3,1.3,2c0.3,0.8,0.5,1.6,0.5,2.4c0,0.1,0,0.3,0,0.4s0,0.2,0,0.3h-10.7c0,0.7,0.2,1.3,0.5,1.9
		c0.3,0.6,0.6,1.1,1,1.5s0.9,0.7,1.4,1c0.5,0.2,1.1,0.3,1.7,0.3c0.4,0,0.8-0.1,1.2-0.2c0.4-0.1,0.8-0.3,1.1-0.5
		c0.3-0.2,0.6-0.4,0.9-0.7c0.3-0.3,0.5-0.6,0.6-0.9l1.4,0.4c-0.2,0.5-0.5,0.9-0.8,1.3c-0.4,0.4-0.8,0.7-1.2,1s-1,0.5-1.5,0.6
		C650.6,279.9,650,280,649.4,280z M654,272.9c0-0.7-0.2-1.3-0.5-1.8s-0.6-1-1-1.4s-0.9-0.7-1.4-0.9c-0.5-0.2-1.1-0.3-1.7-0.3
		c-0.6,0-1.2,0.1-1.7,0.3c-0.5,0.2-1,0.5-1.4,0.9s-0.7,0.9-1,1.4c-0.2,0.6-0.4,1.2-0.4,1.8H654z"/>
	<path class="st1" d="M658.3,281.7l0.4-2h-0.6v-2.3h1.6v2.3l-0.6,2H658.3z"/>
	<path class="st1" d="M688.2,279.8h-1.6v-7c0-1.5-0.2-2.5-0.7-3.2c-0.5-0.7-1.2-1-2.1-1c-0.5,0-0.9,0.1-1.4,0.3s-0.8,0.4-1.2,0.7
		c-0.4,0.3-0.7,0.7-0.9,1.1c-0.3,0.4-0.5,0.9-0.6,1.5v7.6h-1.6v-7c0-1.5-0.2-2.6-0.7-3.2c-0.4-0.7-1.1-1-2.1-1c-0.9,0-1.8,0.3-2.5,1
		c-0.7,0.7-1.3,1.5-1.6,2.6v7.7h-1.6v-12.5h1.5v2.8c0.5-1,1.2-1.7,2-2.2c0.8-0.5,1.8-0.8,2.8-0.8c1.1,0,1.9,0.3,2.5,0.9
		c0.6,0.6,1,1.4,1.2,2.3c1.2-2.1,2.8-3.2,4.8-3.2c0.7,0,1.3,0.1,1.8,0.4s0.9,0.6,1.2,1.1c0.3,0.5,0.5,1,0.6,1.7s0.2,1.4,0.2,2.2
		V279.8z"/>
	<path class="st1" d="M697,280c-0.9,0-1.7-0.2-2.5-0.5c-0.8-0.3-1.4-0.8-2-1.4c-0.6-0.6-1-1.3-1.3-2.1c-0.3-0.8-0.5-1.6-0.5-2.5
		c0-0.9,0.2-1.7,0.5-2.5c0.3-0.8,0.7-1.5,1.3-2c0.6-0.6,1.2-1,2-1.4c0.8-0.3,1.6-0.5,2.5-0.5c0.9,0,1.7,0.2,2.5,0.5
		c0.8,0.3,1.4,0.8,2,1.4s1,1.3,1.3,2c0.3,0.8,0.5,1.6,0.5,2.4c0,0.1,0,0.3,0,0.4s0,0.2,0,0.3h-10.7c0,0.7,0.2,1.3,0.5,1.9
		c0.3,0.6,0.6,1.1,1,1.5s0.9,0.7,1.4,1c0.5,0.2,1.1,0.3,1.7,0.3c0.4,0,0.8-0.1,1.2-0.2c0.4-0.1,0.8-0.3,1.1-0.5
		c0.3-0.2,0.6-0.4,0.9-0.7c0.3-0.3,0.5-0.6,0.6-0.9l1.4,0.4c-0.2,0.5-0.5,0.9-0.8,1.3c-0.4,0.4-0.8,0.7-1.2,1s-1,0.5-1.5,0.6
		C698.2,279.9,697.6,280,697,280z M701.6,272.9c0-0.7-0.2-1.3-0.5-1.8s-0.6-1-1-1.4s-0.9-0.7-1.4-0.9c-0.5-0.2-1.1-0.3-1.7-0.3
		c-0.6,0-1.2,0.1-1.7,0.3c-0.5,0.2-1,0.5-1.4,0.9s-0.7,0.9-1,1.4c-0.2,0.6-0.4,1.2-0.4,1.8H701.6z"/>
	<path class="st1" d="M712,268.7c-1.1,0-2.1,0.3-2.9,0.9c-0.8,0.6-1.4,1.4-1.7,2.4v7.8h-1.6v-12.5h1.5v3c0.5-1,1.1-1.7,1.9-2.3
		s1.6-0.8,2.5-0.8c0.1,0,0.2,0,0.3,0V268.7z"/>
	<path class="st1" d="M718.5,279.9c-0.9,0-1.7-0.2-2.4-0.5s-1.3-0.8-1.8-1.4c-0.5-0.6-0.9-1.3-1.2-2c-0.3-0.8-0.4-1.6-0.4-2.4
		c0-0.9,0.1-1.7,0.4-2.5c0.3-0.8,0.7-1.5,1.2-2.1c0.5-0.6,1.1-1.1,1.8-1.4c0.7-0.4,1.5-0.5,2.4-0.5c1.1,0,2,0.3,2.8,0.8
		c0.8,0.5,1.5,1.2,2,2v-2.6h1.5v12.6c0,0.9-0.2,1.6-0.5,2.3s-0.8,1.2-1.3,1.7c-0.6,0.4-1.2,0.8-1.9,1c-0.7,0.2-1.5,0.3-2.4,0.3
		c-1.4,0-2.6-0.3-3.5-0.8c-0.9-0.5-1.6-1.2-2.1-2.1l1-0.8c0.5,0.8,1.2,1.4,2,1.8c0.8,0.4,1.7,0.6,2.6,0.6c0.6,0,1.2-0.1,1.7-0.3
		c0.5-0.2,1-0.4,1.4-0.7s0.7-0.7,1-1.2c0.2-0.5,0.4-1.1,0.4-1.8v-2.5c-0.5,0.8-1.1,1.4-2,1.9C720.3,279.7,719.5,279.9,718.5,279.9z
		 M719,278.6c0.5,0,1-0.1,1.4-0.3c0.5-0.2,0.9-0.4,1.3-0.7s0.7-0.6,0.9-1c0.3-0.4,0.4-0.7,0.5-1.1v-3.9c-0.2-0.4-0.4-0.9-0.7-1.2
		c-0.3-0.4-0.6-0.7-1-1c-0.4-0.3-0.8-0.5-1.2-0.6s-0.9-0.2-1.3-0.2c-0.7,0-1.3,0.1-1.9,0.4s-1,0.7-1.4,1.2c-0.4,0.5-0.7,1-0.9,1.6
		c-0.2,0.6-0.3,1.2-0.3,1.8c0,0.7,0.1,1.3,0.4,1.9c0.2,0.6,0.6,1.1,1,1.6c0.4,0.5,0.9,0.8,1.5,1.1
		C717.7,278.4,718.3,278.6,719,278.6z"/>
	<path class="st1" d="M733.8,280c-0.9,0-1.7-0.2-2.5-0.5c-0.8-0.3-1.4-0.8-2-1.4c-0.6-0.6-1-1.3-1.3-2.1c-0.3-0.8-0.5-1.6-0.5-2.5
		c0-0.9,0.2-1.7,0.5-2.5c0.3-0.8,0.7-1.5,1.3-2c0.6-0.6,1.2-1,2-1.4c0.8-0.3,1.6-0.5,2.5-0.5c0.9,0,1.7,0.2,2.5,0.5
		c0.8,0.3,1.4,0.8,2,1.4s1,1.3,1.3,2c0.3,0.8,0.5,1.6,0.5,2.4c0,0.1,0,0.3,0,0.4s0,0.2,0,0.3h-10.7c0,0.7,0.2,1.3,0.5,1.9
		c0.3,0.6,0.6,1.1,1,1.5s0.9,0.7,1.4,1c0.5,0.2,1.1,0.3,1.7,0.3c0.4,0,0.8-0.1,1.2-0.2c0.4-0.1,0.8-0.3,1.1-0.5
		c0.3-0.2,0.6-0.4,0.9-0.7c0.3-0.3,0.5-0.6,0.6-0.9l1.4,0.4c-0.2,0.5-0.5,0.9-0.8,1.3c-0.4,0.4-0.8,0.7-1.2,1s-1,0.5-1.5,0.6
		C735,279.9,734.4,280,733.8,280z M738.4,272.9c0-0.7-0.2-1.3-0.5-1.8s-0.6-1-1-1.4s-0.9-0.7-1.4-0.9c-0.5-0.2-1.1-0.3-1.7-0.3
		c-0.6,0-1.2,0.1-1.7,0.3c-0.5,0.2-1,0.5-1.4,0.9s-0.7,0.9-1,1.4c-0.2,0.6-0.4,1.2-0.4,1.8H738.4z"/>
	<path class="st1" d="M742.7,281.7l0.4-2h-0.6v-2.3h1.6v2.3l-0.6,2H742.7z"/>
	<path class="st1" d="M582.4,308.6l-2-2.1c-0.7,0.7-1.4,1.3-2.3,1.7s-1.8,0.6-2.8,0.6c-0.8,0-1.5-0.1-2.1-0.3
		c-0.7-0.2-1.2-0.5-1.7-0.9c-0.5-0.4-0.9-0.9-1.2-1.5s-0.4-1.2-0.4-1.9c0-0.6,0.1-1.1,0.3-1.6c0.2-0.5,0.5-0.9,0.8-1.3
		c0.3-0.4,0.7-0.8,1.2-1.1c0.4-0.4,0.9-0.7,1.4-1c-0.4-0.5-0.8-0.9-1.1-1.2c-0.3-0.4-0.5-0.7-0.7-1c-0.2-0.3-0.3-0.6-0.4-0.9
		s-0.1-0.6-0.1-0.9c0-0.5,0.1-1,0.3-1.5c0.2-0.5,0.5-0.9,0.9-1.2s0.8-0.6,1.4-0.8c0.5-0.2,1.1-0.3,1.7-0.3c0.6,0,1.1,0.1,1.6,0.2
		c0.5,0.2,0.9,0.4,1.3,0.7s0.6,0.7,0.9,1.1c0.2,0.4,0.3,0.9,0.3,1.4c0,0.5-0.1,0.9-0.3,1.4c-0.2,0.4-0.5,0.8-0.8,1.2
		c-0.3,0.4-0.7,0.7-1.2,1.1s-0.9,0.7-1.4,1l4.8,5c0.3-0.6,0.6-1.3,0.8-2c0.2-0.7,0.3-1.5,0.3-2.2h1.4c0,1-0.1,1.9-0.4,2.8
		c-0.2,0.9-0.6,1.7-1.1,2.4l3.2,3.3H582.4z M575.5,307.5c0.8,0,1.6-0.2,2.3-0.5c0.7-0.3,1.3-0.8,1.8-1.4l-5.2-5.4
		c-0.8,0.6-1.6,1.2-2.1,1.9c-0.6,0.6-0.8,1.4-0.8,2.3c0,0.5,0.1,1,0.3,1.4c0.2,0.4,0.5,0.8,0.9,1c0.4,0.3,0.8,0.5,1.3,0.6
		C574.5,307.4,575,307.5,575.5,307.5z M572.6,295c0,0.2,0,0.4,0.1,0.6c0.1,0.2,0.2,0.4,0.3,0.7s0.4,0.5,0.6,0.9
		c0.3,0.3,0.6,0.7,1,1.2c0.9-0.6,1.7-1.2,2.3-1.7c0.6-0.5,0.9-1.1,0.9-1.8c0-0.6-0.2-1.1-0.7-1.5s-1.1-0.6-1.8-0.6
		c-0.4,0-0.8,0.1-1.1,0.2s-0.6,0.3-0.9,0.5c-0.2,0.2-0.4,0.5-0.6,0.8S572.6,294.7,572.6,295z"/>
	<path class="st1" d="M595.8,308.8c-0.6,0-1.1-0.1-1.6-0.3c-0.5-0.2-0.9-0.5-1.3-0.8c-0.4-0.4-0.7-0.8-0.9-1.2s-0.3-1-0.3-1.5
		c0-0.5,0.1-1,0.4-1.5c0.3-0.5,0.6-0.9,1.1-1.2s1-0.6,1.7-0.8c0.6-0.2,1.3-0.3,2.1-0.3c0.6,0,1.3,0.1,1.9,0.2
		c0.7,0.1,1.2,0.3,1.8,0.5v-1.1c0-1.1-0.3-2-0.9-2.6c-0.6-0.6-1.5-1-2.6-1c-0.6,0-1.3,0.1-2,0.4c-0.7,0.3-1.4,0.6-2,1.1l-0.6-1.1
		c1.6-1.1,3.2-1.6,4.7-1.6c1.6,0,2.8,0.4,3.7,1.3c0.9,0.9,1.3,2.1,1.3,3.6v5.6c0,0.4,0.2,0.7,0.6,0.7v1.4c-0.3,0-0.5,0.1-0.6,0.1
		c-0.4,0-0.7-0.1-1-0.3c-0.2-0.2-0.4-0.5-0.4-0.9l0-1c-0.6,0.8-1.3,1.3-2.2,1.7C597.8,308.6,596.8,308.8,595.8,308.8z M596.2,307.6
		c0.8,0,1.6-0.2,2.3-0.5c0.7-0.3,1.3-0.7,1.6-1.3c0.1-0.1,0.3-0.3,0.3-0.5c0.1-0.2,0.1-0.3,0.1-0.5v-2c-0.5-0.2-1.1-0.4-1.7-0.5
		s-1.2-0.2-1.8-0.2c-1.2,0-2.1,0.2-2.8,0.7c-0.7,0.5-1.1,1.1-1.1,1.9c0,0.4,0.1,0.7,0.2,1.1c0.2,0.3,0.4,0.6,0.6,0.9
		c0.3,0.2,0.6,0.4,0.9,0.6C595.4,307.5,595.8,307.6,596.2,307.6z"/>
	<path class="st1" d="M616.3,308.6h-1.6v-7c0-1.5-0.2-2.6-0.7-3.2c-0.4-0.7-1.1-1-2-1c-0.5,0-1,0.1-1.4,0.3s-0.9,0.4-1.3,0.7
		s-0.8,0.7-1.1,1.1c-0.3,0.4-0.6,0.9-0.7,1.4v7.7h-1.6v-12.5h1.5v2.8c0.5-0.9,1.2-1.6,2.2-2.2c1-0.6,2-0.8,3.1-0.8
		c0.7,0,1.3,0.1,1.8,0.4s0.9,0.6,1.2,1.1s0.5,1,0.6,1.7c0.1,0.7,0.2,1.4,0.2,2.2V308.6z"/>
	<path class="st1" d="M622.9,308.8c-0.6,0-1.1-0.1-1.6-0.3c-0.5-0.2-0.9-0.5-1.3-0.8c-0.4-0.4-0.7-0.8-0.9-1.2
		c-0.2-0.5-0.3-1-0.3-1.5c0-0.5,0.1-1,0.4-1.5c0.3-0.5,0.6-0.9,1.1-1.2s1-0.6,1.7-0.8c0.6-0.2,1.3-0.3,2.1-0.3
		c0.6,0,1.3,0.1,1.9,0.2c0.7,0.1,1.2,0.3,1.8,0.5v-1.1c0-1.1-0.3-2-0.9-2.6c-0.6-0.6-1.5-1-2.6-1c-0.6,0-1.3,0.1-2,0.4
		c-0.7,0.3-1.4,0.6-2,1.1l-0.6-1.1c1.6-1.1,3.2-1.6,4.7-1.6c1.6,0,2.8,0.4,3.7,1.3c0.9,0.9,1.3,2.1,1.3,3.6v5.6
		c0,0.4,0.2,0.7,0.6,0.7v1.4c-0.3,0-0.5,0.1-0.6,0.1c-0.4,0-0.7-0.1-1-0.3c-0.2-0.2-0.4-0.5-0.4-0.9l0-1c-0.6,0.8-1.3,1.3-2.2,1.7
		C624.8,308.6,623.9,308.8,622.9,308.8z M623.3,307.6c0.8,0,1.6-0.2,2.3-0.5c0.7-0.3,1.3-0.7,1.6-1.3c0.1-0.1,0.3-0.3,0.3-0.5
		c0.1-0.2,0.1-0.3,0.1-0.5v-2c-0.5-0.2-1.1-0.4-1.7-0.5s-1.2-0.2-1.8-0.2c-1.2,0-2.1,0.2-2.8,0.7c-0.7,0.5-1.1,1.1-1.1,1.9
		c0,0.4,0.1,0.7,0.2,1.1c0.2,0.3,0.4,0.6,0.6,0.9s0.6,0.4,0.9,0.6C622.5,307.5,622.8,307.6,623.3,307.6z"/>
	<path class="st1" d="M632.9,291h1.6v14.7c0,0.5,0.1,0.8,0.4,1.1c0.3,0.3,0.6,0.4,1.1,0.4c0.2,0,0.4,0,0.6-0.1
		c0.2,0,0.5-0.1,0.7-0.2l0.3,1.3c-0.3,0.1-0.7,0.2-1.1,0.3c-0.4,0.1-0.8,0.1-1.1,0.1c-0.8,0-1.3-0.2-1.8-0.6c-0.4-0.4-0.6-1-0.6-1.8
		V291z"/>
	<path class="st1" d="M639.8,312.4c0.1,0,0.3,0,0.4,0s0.2,0,0.3,0c0.3,0,0.5,0,0.7-0.1s0.3-0.3,0.5-0.5c0.2-0.3,0.3-0.7,0.5-1.2
		c0.2-0.5,0.5-1.2,0.9-2.1l-5.4-12.5h1.7l4.6,11l4.3-11h1.6l-6.5,16.1c-0.2,0.5-0.5,0.9-0.9,1.2s-1,0.5-1.7,0.5c-0.2,0-0.3,0-0.5,0
		c-0.1,0-0.3,0-0.5-0.1V312.4z"/>
	<path class="st1" d="M651,307.5l8.4-10.2h-8.3v-1.2h10v1.1l-8.4,10.2h8.4v1.2H651V307.5z"/>
	<path class="st1" d="M669,308.8c-0.9,0-1.7-0.2-2.5-0.5c-0.8-0.3-1.4-0.8-2-1.4c-0.6-0.6-1-1.3-1.3-2.1c-0.3-0.8-0.5-1.6-0.5-2.5
		c0-0.9,0.2-1.7,0.5-2.5c0.3-0.8,0.7-1.5,1.3-2c0.6-0.6,1.2-1,2-1.4c0.8-0.3,1.6-0.5,2.5-0.5c0.9,0,1.7,0.2,2.5,0.5
		c0.8,0.3,1.4,0.8,2,1.4s1,1.3,1.3,2c0.3,0.8,0.5,1.6,0.5,2.4c0,0.1,0,0.3,0,0.4s0,0.2,0,0.3h-10.7c0,0.7,0.2,1.3,0.5,1.9
		c0.3,0.6,0.6,1.1,1,1.5s0.9,0.7,1.4,1c0.5,0.2,1.1,0.3,1.7,0.3c0.4,0,0.8-0.1,1.2-0.2c0.4-0.1,0.8-0.3,1.1-0.5
		c0.3-0.2,0.6-0.4,0.9-0.7c0.3-0.3,0.5-0.6,0.6-0.9l1.4,0.4c-0.2,0.5-0.5,0.9-0.8,1.3c-0.4,0.4-0.8,0.7-1.2,1s-1,0.5-1.5,0.6
		C670.2,308.7,669.6,308.8,669,308.8z M673.6,301.7c0-0.7-0.2-1.3-0.5-1.8s-0.6-1-1-1.4s-0.9-0.7-1.4-0.9c-0.5-0.2-1.1-0.3-1.7-0.3
		c-0.6,0-1.2,0.1-1.7,0.3c-0.5,0.2-1,0.5-1.4,0.9s-0.7,0.9-1,1.4c-0.2,0.6-0.4,1.2-0.4,1.8H673.6z"/>
	<path class="st1" d="M688.9,308.8c-0.9,0-1.7-0.2-2.4-0.5c-0.7-0.4-1.4-0.8-1.9-1.4c-0.5-0.6-0.9-1.3-1.2-2.1
		c-0.3-0.8-0.4-1.6-0.4-2.4c0-0.9,0.1-1.7,0.4-2.5s0.7-1.5,1.2-2.1s1.1-1.1,1.8-1.4c0.7-0.3,1.5-0.5,2.3-0.5c1.1,0,2,0.3,2.8,0.8
		c0.8,0.6,1.5,1.2,1.9,2V291h1.6v15.4c0,0.4,0.2,0.7,0.6,0.7v1.4c-0.2,0-0.4,0.1-0.6,0.1c-0.4,0-0.7-0.1-1-0.4s-0.4-0.5-0.4-0.9
		v-1.2c-0.5,0.8-1.2,1.5-2,1.9C690.7,308.6,689.8,308.8,688.9,308.8z M689.3,307.4c0.4,0,0.8-0.1,1.3-0.2c0.5-0.2,0.9-0.4,1.3-0.7
		c0.4-0.3,0.7-0.6,1-1c0.3-0.4,0.5-0.8,0.5-1.2v-3.9c-0.2-0.4-0.4-0.8-0.7-1.2s-0.7-0.7-1-1c-0.4-0.3-0.8-0.5-1.3-0.7
		c-0.4-0.2-0.9-0.2-1.3-0.2c-0.7,0-1.3,0.1-1.8,0.4s-1,0.7-1.4,1.1c-0.4,0.5-0.7,1-0.9,1.6s-0.3,1.2-0.3,1.9c0,0.7,0.1,1.3,0.4,1.9
		s0.6,1.1,1,1.6s0.9,0.8,1.5,1.1C688,307.2,688.6,307.4,689.3,307.4z"/>
	<path class="st1" d="M701.8,308.8c-0.6,0-1.1-0.1-1.6-0.3c-0.5-0.2-0.9-0.5-1.3-0.8c-0.4-0.4-0.7-0.8-0.9-1.2
		c-0.2-0.5-0.3-1-0.3-1.5c0-0.5,0.1-1,0.4-1.5c0.3-0.5,0.6-0.9,1.1-1.2s1-0.6,1.7-0.8c0.6-0.2,1.3-0.3,2.1-0.3
		c0.6,0,1.3,0.1,1.9,0.2c0.7,0.1,1.2,0.3,1.8,0.5v-1.1c0-1.1-0.3-2-0.9-2.6c-0.6-0.6-1.5-1-2.6-1c-0.6,0-1.3,0.1-2,0.4
		c-0.7,0.3-1.4,0.6-2,1.1l-0.6-1.1c1.6-1.1,3.2-1.6,4.7-1.6c1.6,0,2.8,0.4,3.7,1.3c0.9,0.9,1.3,2.1,1.3,3.6v5.6
		c0,0.4,0.2,0.7,0.6,0.7v1.4c-0.3,0-0.5,0.1-0.6,0.1c-0.4,0-0.7-0.1-1-0.3c-0.2-0.2-0.4-0.5-0.4-0.9l0-1c-0.6,0.8-1.3,1.3-2.2,1.7
		C703.8,308.6,702.8,308.8,701.8,308.8z M702.2,307.6c0.8,0,1.6-0.2,2.3-0.5c0.7-0.3,1.3-0.7,1.6-1.3c0.1-0.1,0.3-0.3,0.3-0.5
		c0.1-0.2,0.1-0.3,0.1-0.5v-2c-0.5-0.2-1.1-0.4-1.7-0.5s-1.2-0.2-1.8-0.2c-1.2,0-2.1,0.2-2.8,0.7c-0.7,0.5-1.1,1.1-1.1,1.9
		c0,0.4,0.1,0.7,0.2,1.1c0.2,0.3,0.4,0.6,0.6,0.9s0.6,0.4,0.9,0.6C701.4,307.5,701.8,307.6,702.2,307.6z"/>
	<path class="st1" d="M717.7,308c-0.1,0-0.2,0.1-0.4,0.2c-0.2,0.1-0.4,0.2-0.6,0.2s-0.5,0.2-0.8,0.2c-0.3,0.1-0.6,0.1-1,0.1
		c-0.4,0-0.7,0-1-0.1s-0.6-0.2-0.8-0.4c-0.2-0.2-0.4-0.5-0.6-0.8c-0.1-0.3-0.2-0.7-0.2-1.1v-9h-1.7v-1.3h1.7v-4.2h1.6v4.2h2.9v1.3
		h-2.9v8.5c0,0.5,0.2,0.8,0.5,1c0.3,0.2,0.6,0.3,1,0.3c0.5,0,0.9-0.1,1.2-0.2c0.4-0.2,0.6-0.3,0.7-0.3L717.7,308z"/>
	<path class="st1" d="M722.9,308.8c-0.6,0-1.1-0.1-1.6-0.3c-0.5-0.2-0.9-0.5-1.3-0.8c-0.4-0.4-0.7-0.8-0.9-1.2s-0.3-1-0.3-1.5
		c0-0.5,0.1-1,0.4-1.5c0.3-0.5,0.6-0.9,1.1-1.2s1-0.6,1.7-0.8c0.6-0.2,1.3-0.3,2.1-0.3c0.6,0,1.3,0.1,1.9,0.2
		c0.7,0.1,1.2,0.3,1.8,0.5v-1.1c0-1.1-0.3-2-0.9-2.6c-0.6-0.6-1.5-1-2.6-1c-0.6,0-1.3,0.1-2,0.4c-0.7,0.3-1.4,0.6-2,1.1l-0.6-1.1
		c1.6-1.1,3.2-1.6,4.7-1.6c1.6,0,2.8,0.4,3.7,1.3c0.9,0.9,1.3,2.1,1.3,3.6v5.6c0,0.4,0.2,0.7,0.6,0.7v1.4c-0.3,0-0.5,0.1-0.6,0.1
		c-0.4,0-0.7-0.1-1-0.3c-0.2-0.2-0.4-0.5-0.4-0.9l0-1c-0.6,0.8-1.3,1.3-2.2,1.7C724.8,308.6,723.9,308.8,722.9,308.8z M723.2,307.6
		c0.8,0,1.6-0.2,2.3-0.5c0.7-0.3,1.3-0.7,1.6-1.3c0.1-0.1,0.3-0.3,0.3-0.5c0.1-0.2,0.1-0.3,0.1-0.5v-2c-0.5-0.2-1.1-0.4-1.7-0.5
		s-1.2-0.2-1.8-0.2c-1.2,0-2.1,0.2-2.8,0.7c-0.7,0.5-1.1,1.1-1.1,1.9c0,0.4,0.1,0.7,0.2,1.1c0.2,0.3,0.4,0.6,0.6,0.9
		c0.3,0.2,0.6,0.4,0.9,0.6C722.4,307.5,722.8,307.6,723.2,307.6z"/>
</g>
<g>
	<path class="st2" d="M343.1,238.4c-0.1-0.1-0.3-0.3-0.6-0.5c-0.3-0.2-0.7-0.4-1.1-0.6c-0.4-0.2-0.9-0.3-1.4-0.5
		c-0.5-0.1-1-0.2-1.5-0.2c-0.9,0-1.6,0.2-2,0.5s-0.7,0.8-0.7,1.4c0,0.4,0.1,0.6,0.3,0.9c0.2,0.2,0.4,0.4,0.7,0.6
		c0.3,0.2,0.7,0.3,1.2,0.5c0.5,0.1,1.1,0.3,1.7,0.5c0.8,0.2,1.6,0.5,2.3,0.7c0.7,0.3,1.3,0.6,1.7,1c0.5,0.4,0.8,0.8,1.1,1.4
		c0.3,0.5,0.4,1.2,0.4,2c0,0.9-0.2,1.7-0.5,2.3c-0.3,0.6-0.8,1.2-1.4,1.6c-0.6,0.4-1.3,0.7-2,0.9c-0.8,0.2-1.6,0.3-2.4,0.3
		c-1.3,0-2.5-0.2-3.8-0.6s-2.4-0.9-3.4-1.6l1.5-2.9c0.1,0.1,0.4,0.3,0.8,0.6c0.4,0.2,0.8,0.5,1.3,0.7c0.5,0.2,1.1,0.4,1.7,0.6
		c0.6,0.2,1.3,0.2,1.9,0.2c1.8,0,2.7-0.6,2.7-1.8c0-0.4-0.1-0.7-0.3-0.9c-0.2-0.3-0.5-0.5-0.9-0.7c-0.4-0.2-0.8-0.4-1.4-0.5
		s-1.2-0.3-1.8-0.5c-0.8-0.2-1.5-0.5-2.1-0.7c-0.6-0.3-1.1-0.6-1.5-0.9c-0.4-0.4-0.7-0.8-0.9-1.2c-0.2-0.5-0.3-1-0.3-1.7
		c0-0.9,0.2-1.6,0.5-2.3c0.3-0.7,0.8-1.2,1.3-1.7c0.6-0.4,1.2-0.8,2-1c0.8-0.2,1.6-0.3,2.4-0.3c1.2,0,2.3,0.2,3.3,0.6
		c1,0.4,1.9,0.8,2.6,1.3L343.1,238.4z"/>
	<path class="st2" d="M346.6,244.7c0-0.9,0.2-1.7,0.5-2.5c0.3-0.8,0.7-1.5,1.3-2.1s1.3-1.1,2.1-1.4c0.8-0.4,1.7-0.5,2.8-0.5
		c1.4,0,2.5,0.3,3.5,0.9c1,0.6,1.7,1.4,2.2,2.3l-3.1,1c-0.3-0.5-0.6-0.8-1.1-1.1s-0.9-0.4-1.5-0.4c-0.5,0-0.9,0.1-1.3,0.3
		c-0.4,0.2-0.7,0.4-1,0.8s-0.5,0.7-0.7,1.2c-0.2,0.5-0.3,1-0.3,1.5c0,0.6,0.1,1.1,0.3,1.5c0.2,0.5,0.4,0.9,0.7,1.2s0.6,0.6,1,0.8
		c0.4,0.2,0.8,0.3,1.3,0.3c0.6,0,1.1-0.1,1.6-0.4c0.5-0.3,0.8-0.6,1-1.1l3.1,1c-0.4,1-1.1,1.7-2.1,2.4c-1,0.6-2.2,0.9-3.6,0.9
		c-1,0-1.9-0.2-2.8-0.5c-0.8-0.4-1.5-0.8-2.1-1.4c-0.6-0.6-1-1.3-1.3-2.1C346.7,246.4,346.6,245.5,346.6,244.7z"/>
	<path class="st2" d="M372.6,251h-3.2v-7.1c0-1-0.2-1.7-0.6-2.2s-0.9-0.7-1.6-0.7c-0.3,0-0.6,0.1-0.9,0.2c-0.3,0.1-0.6,0.3-0.9,0.5
		c-0.3,0.2-0.6,0.5-0.8,0.8c-0.2,0.3-0.4,0.7-0.5,1.1v7.3h-3.2v-17.5h3.2v7.3c0.5-0.8,1.1-1.4,1.9-1.9s1.7-0.7,2.6-0.7
		c0.8,0,1.5,0.1,2,0.4c0.5,0.3,0.9,0.7,1.2,1.1s0.5,1,0.6,1.6c0.1,0.6,0.2,1.2,0.2,1.8V251z"/>
	<path class="st2" d="M381.2,251.2c-1,0-1.9-0.2-2.7-0.5c-0.8-0.3-1.5-0.8-2.1-1.4c-0.6-0.6-1-1.3-1.3-2.1c-0.3-0.8-0.5-1.6-0.5-2.5
		c0-0.9,0.2-1.7,0.5-2.5s0.7-1.5,1.3-2.1s1.3-1.1,2.1-1.4c0.8-0.4,1.7-0.5,2.8-0.5c1,0,1.9,0.2,2.7,0.5c0.8,0.4,1.5,0.8,2.1,1.4
		s1,1.3,1.3,2.1c0.3,0.8,0.4,1.6,0.4,2.4c0,0.2,0,0.4,0,0.6c0,0.2,0,0.4-0.1,0.5H378c0,0.5,0.2,0.9,0.4,1.3c0.2,0.4,0.4,0.7,0.7,1
		c0.3,0.3,0.6,0.5,1,0.6c0.4,0.1,0.8,0.2,1.2,0.2c0.6,0,1.2-0.2,1.8-0.5c0.6-0.3,1-0.7,1.2-1.2l2.8,0.8c-0.5,1-1.2,1.7-2.2,2.4
		C383.9,250.9,382.6,251.2,381.2,251.2z M384.5,243.6c-0.1-0.9-0.4-1.7-1-2.3c-0.6-0.6-1.4-0.9-2.2-0.9c-0.4,0-0.8,0.1-1.2,0.2
		c-0.4,0.2-0.7,0.4-1,0.6c-0.3,0.3-0.5,0.6-0.7,1c-0.2,0.4-0.3,0.8-0.3,1.3H384.5z"/>
	<path class="st2" d="M409.3,251h-3.2v-7.1c0-1-0.2-1.7-0.5-2.2c-0.3-0.5-0.8-0.7-1.4-0.7c-0.6,0-1.2,0.2-1.8,0.7
		c-0.6,0.5-1,1.1-1.2,1.9v7.3h-3.2v-7.1c0-1-0.2-1.7-0.5-2.2c-0.3-0.5-0.8-0.7-1.4-0.7c-0.6,0-1.2,0.2-1.8,0.7
		c-0.6,0.5-1,1.1-1.2,1.9v7.3h-3.2v-12.6h2.9v2.3c0.5-0.8,1.1-1.4,1.9-1.9c0.8-0.4,1.7-0.7,2.8-0.7c1.1,0,1.9,0.3,2.4,0.8
		c0.6,0.5,0.9,1.1,1.1,1.9c0.5-0.9,1.2-1.5,1.9-2s1.7-0.7,2.7-0.7c0.8,0,1.4,0.1,1.9,0.4s0.9,0.7,1.2,1.1c0.3,0.5,0.5,1,0.6,1.6
		c0.1,0.6,0.2,1.2,0.2,1.8V251z"/>
	<path class="st2" d="M415.6,251.2c-0.6,0-1.2-0.1-1.7-0.3c-0.5-0.2-1-0.5-1.4-0.8c-0.4-0.4-0.7-0.8-0.9-1.3c-0.2-0.5-0.3-1-0.3-1.6
		c0-0.6,0.1-1.1,0.4-1.6s0.6-0.9,1.1-1.3s1-0.6,1.7-0.8s1.4-0.3,2.2-0.3c0.6,0,1.1,0,1.6,0.1c0.5,0.1,1,0.2,1.4,0.4V243
		c0-0.8-0.2-1.5-0.7-1.9c-0.5-0.4-1.2-0.7-2.1-0.7c-0.7,0-1.3,0.1-2,0.4c-0.6,0.2-1.3,0.6-2,1.1l-1-2c1.6-1.1,3.4-1.6,5.2-1.6
		c1.8,0,3.2,0.4,4.2,1.3s1.5,2.2,1.5,3.9v3.9c0,0.3,0.1,0.6,0.2,0.7c0.1,0.1,0.3,0.2,0.6,0.2v2.7c-0.5,0.1-1,0.2-1.4,0.2
		c-0.6,0-1.1-0.1-1.4-0.4c-0.3-0.3-0.5-0.6-0.6-1.1l-0.1-0.7c-0.6,0.7-1.2,1.3-2,1.7S416.5,251.2,415.6,251.2z M416.5,248.9
		c0.5,0,1.1-0.1,1.5-0.3c0.5-0.2,0.9-0.4,1.1-0.8c0.4-0.3,0.5-0.6,0.5-0.9v-1.4c-0.4-0.1-0.8-0.3-1.2-0.3c-0.4-0.1-0.9-0.1-1.3-0.1
		c-0.8,0-1.5,0.2-2,0.6c-0.5,0.4-0.8,0.9-0.8,1.4c0,0.5,0.2,1,0.6,1.4C415.4,248.7,415.9,248.9,416.5,248.9z"/>
</g>
<g>
	<g>
		<linearGradient id="SVGID_1_" gradientUnits="userSpaceOnUse" x1="183.9302" y1="37.9674" x2="571.7079" y2="37.9674">
			<stop  offset="0" style="stop-color:#333333"/>
			<stop  offset="1" style="stop-color:#333333;stop-opacity:0.1"/>
		</linearGradient>
		<path class="st3" d="M201.2,58.9c93.7-74.4,282.5-72.3,367.7,12.8"/>
		<g>
			<linearGradient id="SVGID_2_" gradientUnits="userSpaceOnUse" x1="183.9302" y1="57.0209" x2="571.7079" y2="57.0209">
				<stop  offset="0" style="stop-color:#333333"/>
				<stop  offset="1" style="stop-color:#333333;stop-opacity:0.1"/>
			</linearGradient>
			<path class="st4" d="M186.8,71.8c9.1-3.5,21.3-6.5,30.6-6.6l-14.2-7.8l-5.9-15.1C196.1,51.5,191.4,63.2,186.8,71.8z"/>
		</g>
	</g>
</g>
<g>
	<g>
		<linearGradient id="SVGID_3_" gradientUnits="userSpaceOnUse" x1="571.7079" y1="251.5488" x2="183.9302" y2="251.5488">
			<stop  offset="0" style="stop-color:#333333"/>
			<stop  offset="1" style="stop-color:#333333;stop-opacity:0.1"/>
		</linearGradient>
		<path class="st5" d="M554.5,230.6c-93.7,74.4-282.5,72.3-367.7-12.8"/>
		<g>
			<linearGradient id="SVGID_4_" gradientUnits="userSpaceOnUse" x1="571.7079" y1="232.4953" x2="183.9302" y2="232.4953">
				<stop  offset="0" style="stop-color:#333333"/>
				<stop  offset="1" style="stop-color:#333333;stop-opacity:0.1"/>
			</linearGradient>
			<path class="st6" d="M568.9,217.8c-9.1,3.5-21.3,6.5-30.6,6.6l14.2,7.8l5.9,15.1C559.6,238,564.3,226.3,568.9,217.8z"/>
		</g>
	</g>
</g>
<g>
	<path class="st7" d="M186.8,244.7c89.8,89.8,294.9,87.3,382.1,0"/>
	<path d="M262.7,291.6l5.6-16.1l6.7,2.3c0.7,0.2,1.3,0.6,1.8,1.1c0.5,0.5,0.8,1.1,1.1,1.7c0.3,0.6,0.4,1.3,0.4,2
		c0,0.7-0.1,1.3-0.3,2c-0.2,0.7-0.6,1.3-1,1.8c-0.4,0.5-0.9,1-1.5,1.3c-0.6,0.3-1.2,0.5-1.9,0.6c-0.7,0.1-1.3,0-2-0.2l-5.2-1.8
		l-2.1,5.9L262.7,291.6z M266.9,284.8l5.1,1.8c0.5,0.2,0.9,0.2,1.4,0.1c0.5-0.1,0.9-0.2,1.3-0.5c0.4-0.2,0.7-0.6,1-1
		s0.5-0.8,0.7-1.3c0.2-0.5,0.3-1,0.2-1.5c0-0.5-0.1-1-0.3-1.4c-0.2-0.4-0.4-0.8-0.8-1.1c-0.3-0.3-0.7-0.6-1.2-0.7l-5-1.8
		L266.9,284.8z"/>
	<path d="M279.9,297.6c-0.6-0.2-1.1-0.4-1.5-0.8s-0.8-0.7-1-1.2c-0.3-0.4-0.4-0.9-0.5-1.4c-0.1-0.5,0-1,0.1-1.5
		c0.2-0.5,0.4-1,0.8-1.3c0.4-0.4,0.8-0.7,1.4-0.8c0.5-0.2,1.1-0.3,1.8-0.3c0.7,0,1.4,0.1,2.1,0.3c0.6,0.2,1.2,0.4,1.8,0.7
		s1.1,0.6,1.5,1l0.3-1.1c0.3-1.1,0.3-2-0.2-2.8s-1.2-1.4-2.2-1.7c-0.6-0.2-1.3-0.2-2-0.2s-1.5,0.2-2.3,0.5l-0.2-1.2
		c1.9-0.6,3.5-0.7,5-0.2c1.5,0.4,2.6,1.2,3.2,2.3c0.6,1.1,0.7,2.4,0.3,3.9l-1.6,5.4c-0.1,0.4,0,0.7,0.4,0.8l-0.4,1.4
		c-0.3,0-0.5-0.1-0.6-0.1c-0.4-0.1-0.7-0.3-0.8-0.6c-0.2-0.3-0.2-0.6-0.1-0.9l0.2-1c-0.8,0.6-1.6,0.9-2.6,1
		C281.8,297.9,280.8,297.9,279.9,297.6z M280.6,296.5c0.8,0.2,1.6,0.3,2.4,0.2c0.8-0.1,1.4-0.4,1.9-0.8c0.2-0.1,0.3-0.2,0.4-0.4
		c0.1-0.1,0.2-0.3,0.2-0.4l0.6-2c-0.5-0.4-1-0.7-1.5-0.9c-0.5-0.3-1.1-0.5-1.7-0.7c-1.1-0.3-2.1-0.4-2.9-0.1
		c-0.8,0.3-1.3,0.8-1.6,1.5c-0.1,0.4-0.1,0.7-0.1,1.1s0.2,0.7,0.4,1c0.2,0.3,0.4,0.6,0.7,0.8C279.8,296.2,280.2,296.4,280.6,296.5z"
		/>
	<path d="M298.6,291c-1.1-0.2-2.1-0.2-3,0.2c-0.9,0.4-1.7,1-2.3,1.9l-1.9,7.5l-1.6-0.4L293,288l1.5,0.4l-0.7,2.9
		c0.7-0.8,1.5-1.4,2.4-1.7c0.9-0.3,1.8-0.4,2.6-0.2c0.1,0,0.2,0.1,0.3,0.1L298.6,291z"/>
	<path d="M302.4,303.4c-1-0.2-1.8-0.6-2.7-1.1s-1.5-1.1-2-1.9l1-0.9c0.6,0.7,1.2,1.3,1.8,1.7s1.4,0.7,2.2,0.9c1,0.2,1.8,0.2,2.5-0.1
		s1.1-0.8,1.3-1.5c0.1-0.3,0.1-0.6,0-0.9c-0.1-0.3-0.3-0.5-0.6-0.8c-0.3-0.2-0.6-0.5-1-0.7c-0.4-0.2-0.9-0.5-1.5-0.8
		c-0.7-0.3-1.2-0.6-1.7-0.9c-0.5-0.3-0.9-0.6-1.1-0.9s-0.5-0.6-0.6-1c-0.1-0.4-0.1-0.8,0-1.3c0.1-0.6,0.4-1.1,0.7-1.5
		c0.3-0.4,0.8-0.7,1.2-0.9c0.5-0.2,1-0.3,1.6-0.4s1.2,0,1.8,0.2c0.9,0.2,1.8,0.5,2.5,1c0.7,0.5,1.2,1,1.6,1.6l-1,0.8
		c-0.3-0.6-0.8-1-1.4-1.4c-0.6-0.4-1.2-0.6-2-0.8c-0.4-0.1-0.8-0.1-1.2-0.1c-0.4,0-0.7,0.1-1,0.2c-0.3,0.1-0.6,0.3-0.8,0.6
		s-0.4,0.6-0.5,1c-0.1,0.3-0.1,0.6,0,0.8c0.1,0.2,0.2,0.4,0.4,0.6c0.2,0.2,0.5,0.4,0.9,0.6c0.4,0.2,0.8,0.4,1.3,0.7
		c0.7,0.4,1.4,0.7,1.9,1c0.6,0.3,1,0.6,1.3,1c0.3,0.3,0.6,0.7,0.7,1.1c0.1,0.4,0.1,0.9,0,1.4c-0.2,1.1-0.9,1.9-1.9,2.4
		C305.1,303.7,303.8,303.7,302.4,303.4z"/>
	<path d="M315.5,306c-0.9-0.2-1.7-0.5-2.4-0.9c-0.7-0.5-1.3-1.1-1.7-1.7s-0.8-1.4-0.9-2.3c-0.2-0.8-0.2-1.7,0-2.6
		c0.2-0.9,0.5-1.7,0.9-2.4c0.4-0.7,1-1.3,1.6-1.8s1.4-0.8,2.2-1c0.8-0.2,1.7-0.2,2.5-0.1c0.9,0.2,1.7,0.5,2.4,0.9
		c0.7,0.5,1.2,1,1.7,1.7c0.4,0.7,0.7,1.4,0.9,2.2c0.2,0.8,0.2,1.6,0,2.5c0,0.1,0,0.3-0.1,0.4c0,0.1,0,0.2-0.1,0.3l-10.5-1.9
		c-0.1,0.7,0,1.3,0.1,1.9c0.2,0.6,0.4,1.1,0.7,1.6s0.7,0.9,1.2,1.2c0.5,0.3,1,0.5,1.6,0.6c0.4,0.1,0.8,0.1,1.2,0s0.8-0.1,1.2-0.3
		c0.4-0.1,0.7-0.3,1-0.5c0.3-0.2,0.6-0.5,0.8-0.8l1.3,0.6c-0.3,0.4-0.6,0.8-1,1.1c-0.4,0.3-0.9,0.6-1.4,0.8c-0.5,0.2-1,0.3-1.6,0.4
		C316.7,306.1,316.1,306.1,315.5,306z M321.3,299.8c0.1-0.7,0-1.3-0.1-1.9s-0.4-1.1-0.7-1.6c-0.3-0.5-0.7-0.9-1.2-1.2
		c-0.5-0.3-1-0.5-1.6-0.6c-0.6-0.1-1.2-0.1-1.8,0c-0.6,0.1-1.1,0.3-1.6,0.7s-0.9,0.7-1.2,1.2c-0.3,0.5-0.6,1.1-0.8,1.7L321.3,299.8z
		"/>
	<path d="M342.7,309.5l-1.7-2.3c-0.7,0.6-1.6,1.1-2.5,1.4c-0.9,0.3-1.9,0.4-2.9,0.3c-0.7-0.1-1.4-0.3-2.1-0.6
		c-0.6-0.3-1.2-0.7-1.6-1.1s-0.8-1-1-1.6c-0.2-0.6-0.3-1.2-0.2-1.9c0.1-0.6,0.2-1.1,0.5-1.5c0.2-0.5,0.6-0.9,0.9-1.2s0.8-0.7,1.3-1
		c0.5-0.3,1-0.6,1.5-0.8c-0.4-0.5-0.7-1-0.9-1.4c-0.3-0.4-0.5-0.8-0.6-1.1c-0.1-0.3-0.2-0.6-0.3-0.9c0-0.3-0.1-0.6,0-0.9
		c0.1-0.5,0.2-1,0.5-1.4s0.6-0.8,1-1.1c0.4-0.3,0.9-0.5,1.4-0.6s1.1-0.2,1.7-0.1c0.6,0.1,1.1,0.2,1.5,0.4c0.5,0.2,0.9,0.5,1.2,0.8
		c0.3,0.3,0.6,0.7,0.7,1.2s0.2,0.9,0.2,1.4s-0.2,0.9-0.4,1.3c-0.2,0.4-0.6,0.7-0.9,1.1c-0.4,0.3-0.8,0.6-1.3,0.9
		c-0.5,0.3-1,0.6-1.5,0.8l4.2,5.5c0.4-0.6,0.7-1.2,1-1.9c0.3-0.7,0.4-1.4,0.5-2.2l1.4,0.2c-0.1,1-0.4,1.9-0.7,2.7s-0.8,1.6-1.3,2.3
		l2.8,3.6L342.7,309.5z M335.9,307.7c0.8,0.1,1.6,0,2.3-0.3c0.7-0.3,1.4-0.7,2-1.2l-4.5-6c-0.9,0.5-1.7,1-2.3,1.6s-1,1.3-1.1,2.2
		c-0.1,0.5,0,1,0.2,1.4c0.2,0.4,0.5,0.8,0.8,1.1c0.4,0.3,0.8,0.6,1.2,0.8C334.9,307.5,335.4,307.6,335.9,307.7z M334.5,294.9
		c0,0.2,0,0.4,0,0.6c0,0.2,0.1,0.4,0.2,0.7c0.1,0.3,0.3,0.6,0.5,0.9c0.2,0.4,0.5,0.8,0.9,1.3c1-0.5,1.8-1,2.4-1.5
		c0.6-0.5,1-1,1.1-1.7c0.1-0.6-0.1-1.2-0.5-1.6c-0.4-0.4-1-0.7-1.7-0.8c-0.4,0-0.8,0-1.1,0.1c-0.3,0.1-0.7,0.2-0.9,0.4
		c-0.3,0.2-0.5,0.4-0.7,0.7C334.6,294.3,334.5,294.6,334.5,294.9z"/>
	<path d="M356.6,310.5l-4.4-12.8l1.7,0.1l3.7,11.2l4.9-10.7l1.6,0.1l-5.8,12.2L356.6,310.5z"/>
	<path d="M368.8,311.3c-0.6,0-1.1-0.1-1.6-0.3c-0.5-0.2-0.9-0.5-1.3-0.9c-0.4-0.4-0.7-0.8-0.9-1.3c-0.2-0.5-0.3-1-0.3-1.5
		c0-0.5,0.1-1,0.4-1.5c0.3-0.5,0.6-0.9,1.1-1.2c0.5-0.3,1-0.6,1.7-0.7c0.6-0.2,1.3-0.3,2.1-0.2c0.6,0,1.3,0.1,1.9,0.2
		c0.7,0.1,1.2,0.3,1.7,0.5l0-1.1c0-1.1-0.3-2-0.9-2.6c-0.6-0.7-1.5-1-2.6-1c-0.6,0-1.3,0.1-2,0.3s-1.4,0.6-2.1,1.1l-0.6-1.1
		c1.6-1.1,3.2-1.6,4.7-1.5c1.6,0,2.8,0.5,3.7,1.4c0.9,0.9,1.3,2.1,1.3,3.7l-0.1,5.6c0,0.4,0.2,0.7,0.6,0.7l0,1.4
		c-0.3,0-0.5,0.1-0.6,0.1c-0.4,0-0.7-0.1-1-0.3c-0.2-0.2-0.3-0.5-0.4-0.9l0-1c-0.6,0.7-1.3,1.3-2.2,1.7
		C370.8,311.1,369.8,311.3,368.8,311.3z M369.2,310c0.8,0,1.6-0.1,2.3-0.4s1.3-0.7,1.6-1.2c0.1-0.1,0.3-0.3,0.3-0.5
		c0.1-0.2,0.1-0.3,0.1-0.5l0-2c-0.5-0.2-1.1-0.4-1.7-0.5c-0.6-0.1-1.2-0.2-1.8-0.2c-1.2,0-2.1,0.2-2.8,0.7c-0.7,0.5-1.1,1.1-1.1,1.9
		c0,0.4,0.1,0.7,0.2,1.1c0.1,0.3,0.3,0.6,0.6,0.9c0.3,0.3,0.6,0.5,0.9,0.6C368.4,309.9,368.8,310,369.2,310z"/>
	<path d="M378.9,293.6l1.6,0l0.1,14.7c0,0.5,0.1,0.8,0.4,1.1c0.3,0.3,0.6,0.4,1.1,0.4c0.2,0,0.4,0,0.6-0.1c0.2,0,0.5-0.1,0.7-0.2
		l0.3,1.3c-0.3,0.1-0.7,0.2-1.1,0.3s-0.8,0.1-1.1,0.1c-0.8,0-1.3-0.2-1.8-0.6s-0.7-1-0.7-1.8L378.9,293.6z"/>
	<path d="M385.4,295.9l-0.1-2.4l1.6,0l0.1,2.4L385.4,295.9z M385.7,311l-0.3-12.5l1.6,0l0.3,12.5L385.7,311z"/>
	<path d="M396.4,310.8c-0.9,0-1.7-0.1-2.4-0.4c-0.8-0.3-1.4-0.8-2-1.3c-0.6-0.6-1-1.2-1.3-2c-0.3-0.8-0.5-1.6-0.6-2.4
		c0-0.9,0.1-1.7,0.3-2.5c0.2-0.8,0.6-1.5,1.1-2.1c0.5-0.6,1-1.1,1.7-1.5c0.7-0.4,1.4-0.6,2.3-0.6c1.1-0.1,2,0.2,2.8,0.7
		c0.8,0.5,1.5,1.1,2,1.9l-0.4-7.6l1.6-0.1l0.8,15.4c0,0.4,0.2,0.7,0.6,0.6l0.1,1.4c-0.2,0.1-0.4,0.1-0.6,0.1c-0.4,0-0.7-0.1-1-0.3
		c-0.3-0.2-0.5-0.5-0.5-0.9l-0.1-1.2c-0.5,0.8-1.1,1.5-1.9,2.1C398.2,310.5,397.3,310.8,396.4,310.8z M396.7,309.4
		c0.4,0,0.8-0.1,1.3-0.3c0.4-0.2,0.9-0.4,1.2-0.7c0.4-0.3,0.7-0.6,1-1c0.3-0.4,0.4-0.8,0.4-1.2l-0.2-3.9c-0.2-0.4-0.4-0.8-0.8-1.2
		c-0.3-0.4-0.7-0.7-1.1-0.9s-0.8-0.5-1.3-0.6s-0.9-0.2-1.3-0.2c-0.7,0-1.3,0.2-1.8,0.5c-0.5,0.3-1,0.7-1.3,1.2s-0.6,1-0.8,1.7
		c-0.2,0.6-0.2,1.2-0.2,1.9c0,0.7,0.2,1.3,0.5,1.9c0.3,0.6,0.6,1.1,1.1,1.5c0.4,0.4,1,0.8,1.5,1
		C395.4,309.3,396.1,309.4,396.7,309.4z"/>
	<path d="M409.7,309.9c-0.6,0.1-1.1,0-1.7-0.1c-0.5-0.2-1-0.4-1.4-0.7c-0.4-0.3-0.7-0.7-1-1.1c-0.3-0.5-0.4-0.9-0.5-1.5
		c-0.1-0.5,0-1.1,0.2-1.5c0.2-0.5,0.5-0.9,1-1.3c0.4-0.4,1-0.7,1.6-0.9c0.6-0.2,1.3-0.4,2.1-0.5c0.6-0.1,1.3-0.1,2,0
		c0.7,0,1.3,0.2,1.8,0.3l-0.1-1.1c-0.1-1.1-0.5-1.9-1.2-2.5c-0.7-0.6-1.6-0.8-2.7-0.7c-0.6,0.1-1.3,0.3-1.9,0.6
		c-0.6,0.3-1.3,0.7-1.9,1.3l-0.7-1c1.5-1.2,3-1.9,4.5-2.1c1.6-0.1,2.8,0.2,3.8,1s1.5,2,1.7,3.5l0.5,5.6c0,0.4,0.3,0.7,0.7,0.6
		l0.1,1.4c-0.3,0.1-0.5,0.1-0.6,0.1c-0.4,0-0.7,0-1-0.2c-0.3-0.2-0.4-0.5-0.5-0.8l-0.1-1c-0.5,0.8-1.2,1.4-2,1.9
		C411.7,309.5,410.7,309.8,409.7,309.9z M410,308.6c0.8-0.1,1.6-0.3,2.3-0.7s1.2-0.9,1.5-1.4c0.1-0.2,0.2-0.3,0.3-0.5
		c0.1-0.2,0.1-0.3,0.1-0.5l-0.2-2c-0.6-0.2-1.1-0.3-1.7-0.3c-0.6-0.1-1.2-0.1-1.8,0c-1.1,0.1-2.1,0.4-2.7,1c-0.7,0.5-1,1.2-0.9,2
		c0,0.4,0.1,0.7,0.3,1.1c0.2,0.3,0.4,0.6,0.7,0.8c0.3,0.2,0.6,0.4,1,0.5C409.2,308.6,409.6,308.7,410,308.6z"/>
	<path d="M425.7,307.3c-0.1,0.1-0.2,0.1-0.4,0.2c-0.2,0.1-0.4,0.2-0.6,0.3s-0.5,0.2-0.8,0.3c-0.3,0.1-0.6,0.2-0.9,0.2
		c-0.3,0-0.7,0-1,0c-0.3-0.1-0.6-0.2-0.9-0.3c-0.3-0.2-0.5-0.4-0.7-0.7c-0.2-0.3-0.3-0.6-0.3-1l-1.1-8.9l-1.7,0.2l-0.2-1.3l1.7-0.2
		l-0.5-4.2l1.6-0.2l0.5,4.2l2.9-0.4l0.2,1.3l-2.9,0.4l1.1,8.4c0.1,0.5,0.3,0.8,0.6,1c0.3,0.2,0.7,0.2,1.1,0.2
		c0.5-0.1,0.9-0.2,1.2-0.4c0.3-0.2,0.5-0.3,0.6-0.4L425.7,307.3z"/>
	<path d="M433.2,307c-0.9,0.1-1.8,0.1-2.6-0.1c-0.8-0.2-1.5-0.6-2.2-1.1s-1.2-1.1-1.6-1.8c-0.4-0.7-0.7-1.5-0.9-2.4
		c-0.1-0.9-0.1-1.7,0.1-2.5c0.2-0.8,0.5-1.6,1-2.2c0.5-0.7,1-1.2,1.7-1.7c0.7-0.5,1.5-0.8,2.4-0.9c0.9-0.1,1.8-0.1,2.6,0.1
		c0.8,0.2,1.5,0.6,2.2,1.1s1.2,1.1,1.6,1.8c0.4,0.7,0.7,1.5,0.8,2.3c0,0.1,0,0.3,0.1,0.4c0,0.1,0,0.2,0,0.3l-10.6,1.7
		c0.2,0.7,0.4,1.2,0.8,1.8c0.3,0.5,0.8,1,1.2,1.3c0.5,0.3,1,0.6,1.6,0.7c0.6,0.1,1.1,0.2,1.7,0.1c0.4-0.1,0.8-0.2,1.2-0.4
		c0.4-0.2,0.7-0.4,1-0.6s0.6-0.5,0.8-0.8c0.2-0.3,0.4-0.7,0.5-1l1.5,0.2c-0.1,0.5-0.3,0.9-0.6,1.4c-0.3,0.4-0.6,0.8-1.1,1.2
		s-0.9,0.6-1.4,0.9C434.4,306.7,433.8,306.9,433.2,307z M436.6,299.2c-0.2-0.7-0.4-1.2-0.7-1.7c-0.3-0.5-0.8-0.9-1.2-1.3
		c-0.5-0.3-1-0.6-1.5-0.7s-1.1-0.2-1.7-0.1s-1.2,0.3-1.7,0.6c-0.5,0.3-0.9,0.7-1.3,1.1c-0.3,0.5-0.6,1-0.7,1.6
		c-0.2,0.6-0.2,1.2-0.2,1.9L436.6,299.2z"/>
	<path d="M453.5,303.2c-0.8,0.2-1.7,0.2-2.5,0c-0.8-0.2-1.5-0.5-2.2-1c-0.6-0.5-1.2-1-1.7-1.7c-0.5-0.7-0.8-1.5-1-2.3
		c-0.2-0.9-0.2-1.7-0.1-2.5c0.1-0.8,0.3-1.6,0.7-2.3c0.4-0.7,0.8-1.3,1.5-1.8c0.6-0.5,1.3-0.8,2.1-1c1-0.2,2-0.2,2.9,0.2
		s1.7,0.9,2.3,1.5l-1.7-7.4l1.6-0.4l3.4,15c0.1,0.4,0.3,0.6,0.7,0.5l0.3,1.4c-0.2,0.1-0.4,0.2-0.5,0.2c-0.4,0.1-0.7,0-1.1-0.1
		c-0.3-0.2-0.5-0.4-0.6-0.8l-0.3-1.2c-0.3,0.9-0.8,1.7-1.5,2.3C455.2,302.5,454.4,303,453.5,303.2z M453.5,301.7
		c0.4-0.1,0.8-0.3,1.2-0.5s0.8-0.6,1.1-0.9s0.6-0.8,0.8-1.2c0.2-0.4,0.3-0.9,0.2-1.3L456,294c-0.3-0.4-0.6-0.7-0.9-1
		c-0.4-0.3-0.8-0.5-1.2-0.7c-0.4-0.2-0.9-0.3-1.4-0.4c-0.5-0.1-0.9,0-1.3,0.1c-0.7,0.1-1.2,0.4-1.7,0.8c-0.5,0.4-0.8,0.9-1.1,1.4
		c-0.3,0.5-0.5,1.1-0.5,1.8s0,1.3,0.1,1.9c0.1,0.7,0.4,1.3,0.8,1.8c0.4,0.5,0.8,1,1.3,1.3c0.5,0.4,1.1,0.6,1.7,0.7
		C452.3,301.8,452.9,301.8,453.5,301.7z"/>
	<path d="M466.5,300c-0.6,0.2-1.1,0.2-1.7,0.1c-0.5-0.1-1-0.2-1.5-0.5c-0.5-0.2-0.8-0.6-1.2-1c-0.3-0.4-0.6-0.9-0.7-1.4
		c-0.1-0.5-0.2-1,0-1.6c0.1-0.5,0.4-1,0.7-1.4c0.4-0.4,0.8-0.8,1.4-1.2s1.2-0.6,2-0.8c0.6-0.2,1.3-0.3,1.9-0.3
		c0.7-0.1,1.3-0.1,1.8,0l-0.3-1.1c-0.3-1.1-0.8-1.8-1.6-2.3c-0.8-0.5-1.7-0.5-2.8-0.3c-0.6,0.2-1.2,0.5-1.8,0.9
		c-0.6,0.4-1.1,1-1.7,1.6l-0.8-0.9c1.3-1.5,2.6-2.4,4.1-2.8c1.5-0.4,2.8-0.3,3.9,0.3s1.8,1.7,2.3,3.2l1.5,5.4
		c0.1,0.4,0.4,0.6,0.8,0.5l0.4,1.4c-0.3,0.1-0.4,0.2-0.6,0.2c-0.4,0.1-0.7,0.1-1,0c-0.3-0.1-0.5-0.4-0.6-0.7l-0.3-0.9
		c-0.4,0.9-0.9,1.6-1.6,2.2C468.4,299.3,467.5,299.7,466.5,300z M466.6,298.7c0.8-0.2,1.5-0.6,2.1-1.1c0.6-0.5,1-1,1.2-1.7
		c0.1-0.2,0.2-0.4,0.2-0.5c0-0.2,0-0.3,0-0.5l-0.5-2c-0.6-0.1-1.2-0.1-1.8,0c-0.6,0-1.2,0.1-1.8,0.3c-1.1,0.3-2,0.8-2.5,1.4
		s-0.8,1.4-0.5,2.1c0.1,0.4,0.3,0.7,0.5,1c0.2,0.3,0.5,0.5,0.8,0.7c0.3,0.2,0.7,0.3,1.1,0.3C465.8,298.8,466.2,298.8,466.6,298.7z"
		/>
	<path d="M481.9,294.6c-0.1,0.1-0.2,0.2-0.3,0.3c-0.2,0.1-0.3,0.3-0.5,0.4c-0.2,0.1-0.4,0.3-0.7,0.4s-0.6,0.3-0.9,0.4
		c-0.3,0.1-0.7,0.2-1,0.2c-0.3,0-0.6-0.1-0.9-0.2c-0.3-0.1-0.5-0.3-0.8-0.6c-0.2-0.2-0.4-0.6-0.5-0.9l-2.7-8.5l-1.6,0.5l-0.4-1.2
		l1.6-0.5l-1.3-4l1.6-0.5l1.3,4l2.8-0.9l0.4,1.2l-2.7,0.9l2.5,8.1c0.2,0.4,0.4,0.7,0.8,0.8c0.3,0.1,0.7,0.1,1.1,0
		c0.4-0.1,0.8-0.3,1.1-0.6c0.3-0.2,0.5-0.4,0.5-0.5L481.9,294.6z"/>
	<path d="M487.4,293.6c-0.6,0.2-1.1,0.3-1.7,0.3c-0.5,0-1-0.1-1.5-0.3s-0.9-0.5-1.2-0.9c-0.4-0.4-0.6-0.8-0.8-1.3
		c-0.2-0.5-0.2-1-0.1-1.6c0.1-0.5,0.3-1,0.6-1.5c0.3-0.5,0.8-0.9,1.3-1.3c0.5-0.4,1.2-0.7,1.9-1c0.6-0.2,1.2-0.4,1.9-0.5
		c0.7-0.1,1.3-0.2,1.8-0.1l-0.4-1.1c-0.4-1-1-1.8-1.8-2.2c-0.8-0.4-1.7-0.4-2.8-0.1c-0.6,0.2-1.2,0.6-1.7,1c-0.5,0.5-1.1,1-1.6,1.7
		l-0.9-0.8c1.2-1.6,2.5-2.6,3.9-3.1c1.5-0.5,2.8-0.5,3.9,0c1.1,0.5,2,1.5,2.5,3l1.9,5.3c0.1,0.4,0.4,0.6,0.8,0.4l0.5,1.4
		c-0.2,0.1-0.4,0.2-0.6,0.3c-0.4,0.1-0.7,0.1-1,0c-0.3-0.1-0.5-0.3-0.6-0.7l-0.4-0.9c-0.3,0.9-0.8,1.7-1.5,2.4
		C489.2,292.7,488.4,293.3,487.4,293.6z M487.3,292.3c0.8-0.3,1.5-0.7,2-1.2s0.9-1.1,1.1-1.7c0.1-0.2,0.1-0.4,0.1-0.5
		c0-0.2,0-0.3-0.1-0.5l-0.7-1.9c-0.6,0-1.2,0-1.8,0.1c-0.6,0.1-1.2,0.2-1.7,0.4c-1.1,0.4-1.9,0.9-2.4,1.6c-0.5,0.7-0.6,1.4-0.4,2.1
		c0.1,0.4,0.3,0.7,0.6,0.9c0.3,0.3,0.5,0.5,0.9,0.6c0.3,0.1,0.7,0.2,1.1,0.2C486.6,292.5,487,292.4,487.3,292.3z"/>
</g>
<g>
	<path class="st7" d="M186.8,96.5c87.3-87.3,292.3-89.8,382.1,0"/>
	<path d="M293.4,40.4l-3.9-16.6l6.9-1.6c0.7-0.2,1.4-0.2,2.1,0c0.7,0.2,1.3,0.4,1.8,0.8c0.6,0.4,1,0.9,1.4,1.4
		c0.4,0.6,0.7,1.2,0.8,1.8c0.2,0.7,0.2,1.4,0.1,2.1s-0.3,1.3-0.6,1.9c-0.3,0.6-0.7,1.1-1.2,1.5c-0.5,0.4-1.1,0.7-1.8,0.9l-5.4,1.3
		L295,40L293.4,40.4z M293.2,32.4l5.3-1.2c0.5-0.1,0.9-0.3,1.2-0.6c0.3-0.3,0.6-0.7,0.8-1.1s0.3-0.9,0.4-1.4c0-0.5,0-1-0.1-1.5
		c-0.1-0.5-0.3-1-0.6-1.4c-0.3-0.4-0.6-0.8-1-1c-0.4-0.3-0.8-0.5-1.3-0.6c-0.5-0.1-0.9-0.1-1.4,0l-5.2,1.2L293.2,32.4z"/>
	<path d="M311.4,25.1c-1.1,0.2-2,0.7-2.6,1.5c-0.7,0.7-1.1,1.6-1.2,2.7l1.5,7.6l-1.6,0.3L305,24.9l1.5-0.3l0.6,2.9
		c0.3-1,0.7-1.9,1.4-2.6c0.7-0.7,1.4-1.1,2.3-1.3c0.1,0,0.2,0,0.3,0L311.4,25.1z"/>
	<path d="M320.3,35.1c-0.9,0.1-1.8,0.1-2.6-0.1s-1.5-0.6-2.2-1.1c-0.7-0.5-1.2-1.1-1.6-1.8c-0.4-0.7-0.7-1.5-0.9-2.4
		c-0.1-0.9-0.1-1.7,0.1-2.5c0.2-0.8,0.5-1.6,0.9-2.2s1-1.2,1.7-1.7c0.7-0.5,1.5-0.8,2.4-0.9c0.9-0.1,1.8-0.1,2.6,0.1
		c0.8,0.2,1.5,0.6,2.2,1.1s1.2,1.1,1.6,1.8c0.4,0.7,0.7,1.5,0.8,2.3c0,0.1,0,0.3,0.1,0.4c0,0.1,0,0.2,0,0.3L314.9,30
		c0.2,0.7,0.4,1.2,0.8,1.8c0.4,0.5,0.8,0.9,1.2,1.3s1,0.6,1.6,0.7c0.6,0.1,1.1,0.2,1.8,0.1c0.4-0.1,0.8-0.2,1.2-0.4
		c0.4-0.2,0.7-0.4,1-0.6c0.3-0.2,0.6-0.5,0.8-0.8c0.2-0.3,0.4-0.7,0.5-1l1.5,0.1c-0.1,0.5-0.3,0.9-0.6,1.4c-0.3,0.4-0.6,0.8-1,1.2
		s-0.9,0.6-1.4,0.9C321.5,34.8,320.9,35,320.3,35.1z M323.7,27.3c-0.2-0.7-0.4-1.2-0.8-1.7c-0.4-0.5-0.8-0.9-1.2-1.2s-1-0.6-1.5-0.7
		c-0.6-0.1-1.1-0.2-1.7-0.1c-0.6,0.1-1.1,0.3-1.6,0.6c-0.5,0.3-0.9,0.7-1.3,1.2c-0.3,0.5-0.6,1-0.7,1.6c-0.2,0.6-0.2,1.2-0.1,1.9
		L323.7,27.3z"/>
	<path d="M334.5,32.2c-0.1,0.1-0.2,0.1-0.4,0.2c-0.2,0.1-0.4,0.2-0.6,0.3s-0.5,0.2-0.8,0.3c-0.3,0.1-0.6,0.2-0.9,0.2
		c-0.3,0-0.7,0-1,0c-0.3-0.1-0.6-0.2-0.9-0.3c-0.3-0.2-0.5-0.4-0.7-0.7s-0.3-0.6-0.4-1l-1.2-8.9l-1.7,0.2l-0.2-1.3l1.7-0.2l-0.6-4.2
		l1.6-0.2l0.6,4.2l2.9-0.4l0.2,1.3l-2.9,0.4l1.1,8.4c0.1,0.5,0.3,0.8,0.6,0.9s0.7,0.2,1.1,0.2c0.5-0.1,0.9-0.2,1.2-0.4
		c0.3-0.2,0.5-0.3,0.6-0.4L334.5,32.2z"/>
	<path d="M342.4,31.3c-0.1,0.1-0.2,0.1-0.4,0.2c-0.2,0.1-0.4,0.2-0.6,0.3c-0.2,0.1-0.5,0.2-0.8,0.3s-0.6,0.2-0.9,0.2
		c-0.4,0-0.7,0-1,0c-0.3-0.1-0.6-0.2-0.9-0.3s-0.5-0.4-0.7-0.7c-0.2-0.3-0.3-0.6-0.3-1l-1-8.9l-1.7,0.2l-0.1-1.3l1.7-0.2l-0.5-4.2
		l1.6-0.2l0.5,4.2l2.9-0.3l0.1,1.3l-2.9,0.3l0.9,8.4c0.1,0.5,0.3,0.8,0.6,1c0.3,0.2,0.7,0.3,1,0.2c0.5-0.1,0.9-0.2,1.2-0.4
		s0.5-0.3,0.6-0.4L342.4,31.3z"/>
	<path d="M345.4,35.5c0.1,0,0.3,0,0.4,0s0.2,0,0.3,0c0.3,0,0.5-0.1,0.7-0.2c0.2-0.1,0.3-0.3,0.4-0.6s0.3-0.7,0.4-1.2
		s0.4-1.2,0.7-2.1l-6.4-12l1.7-0.1l5.5,10.6l3.4-11.3l1.6-0.1L348.9,35c-0.1,0.5-0.4,0.9-0.8,1.3s-0.9,0.6-1.6,0.6
		c-0.2,0-0.3,0-0.5,0c-0.1,0-0.3,0-0.5,0L345.4,35.5z"/>
	<path d="M369,30.5c-1.1,0-2-0.2-2.8-0.7c-0.8-0.5-1.5-1.2-2-2l0.2,7.7l-1.6,0l-0.5-17.6l1.5,0l0.1,2.4c0.5-0.8,1.1-1.5,1.9-2
		s1.7-0.8,2.6-0.8c0.9,0,1.7,0.1,2.4,0.5c0.7,0.3,1.4,0.8,1.9,1.4c0.5,0.6,1,1.3,1.3,2c0.3,0.8,0.5,1.6,0.5,2.4
		c0,0.9-0.1,1.7-0.3,2.5s-0.6,1.5-1.1,2.1s-1.1,1.1-1.8,1.5C370.6,30.3,369.9,30.5,369,30.5z M368.5,29.1c0.7,0,1.3-0.2,1.8-0.5
		c0.5-0.3,1-0.7,1.4-1.2c0.4-0.5,0.7-1,0.9-1.6c0.2-0.6,0.3-1.2,0.3-1.9c0-0.7-0.2-1.3-0.4-1.9c-0.3-0.6-0.6-1.1-1-1.6
		s-0.9-0.8-1.5-1.1c-0.6-0.3-1.2-0.4-1.8-0.4c-0.4,0-0.8,0.1-1.3,0.3s-0.9,0.4-1.3,0.7c-0.4,0.3-0.7,0.6-1,1
		c-0.3,0.4-0.4,0.8-0.5,1.2l0.1,3.8c0.2,0.4,0.5,0.9,0.8,1.2c0.3,0.4,0.7,0.7,1,1c0.4,0.3,0.8,0.5,1.2,0.6
		C367.6,29,368.1,29.1,368.5,29.1z"/>
	<path d="M383.6,19.1c-1.1,0-2.1,0.3-2.9,0.9s-1.4,1.4-1.7,2.4l0,7.8l-1.6,0l0-12.5l1.5,0l0,3c0.5-1,1.1-1.7,1.9-2.3
		c0.8-0.5,1.6-0.8,2.5-0.8c0.1,0,0.2,0,0.3,0L383.6,19.1z"/>
	<path d="M385.6,30.2l0.3-12.5l1.6,0l-0.3,12.5L385.6,30.2z M386,15.1l0.1-2.4l1.6,0l-0.1,2.4L386,15.1z"/>
	<path d="M401.3,30.8l-1.6-0.1l0.3-7c0.1-1.5-0.1-2.6-0.5-3.3s-1.1-1.1-2-1.1c-0.5,0-1,0-1.5,0.2c-0.5,0.2-0.9,0.4-1.4,0.7
		c-0.4,0.3-0.8,0.7-1.1,1.1c-0.3,0.4-0.6,0.9-0.8,1.4l-0.4,7.6l-1.6-0.1l0.6-12.5l1.5,0.1l-0.1,2.8c0.6-0.9,1.3-1.6,2.3-2.1
		s2-0.7,3.1-0.7c0.7,0,1.3,0.2,1.7,0.5c0.5,0.3,0.8,0.7,1.1,1.1c0.3,0.5,0.4,1.1,0.5,1.7c0.1,0.7,0.1,1.4,0.1,2.2L401.3,30.8z"/>
	<path d="M410.5,30.9c-0.1,0-0.2,0.1-0.4,0.2c-0.2,0.1-0.4,0.1-0.7,0.2c-0.2,0.1-0.5,0.1-0.8,0.2c-0.3,0-0.6,0-1,0
		c-0.4,0-0.7-0.1-1-0.2c-0.3-0.1-0.6-0.3-0.8-0.5c-0.2-0.2-0.4-0.5-0.5-0.8c-0.1-0.3-0.2-0.7-0.1-1.1l0.7-8.9l-1.7-0.1l0.1-1.3
		l1.7,0.1l0.3-4.2l1.6,0.1l-0.3,4.2l2.9,0.2l-0.1,1.3l-2.9-0.2l-0.7,8.5c0,0.5,0.1,0.8,0.4,1.1s0.6,0.4,1,0.4c0.5,0,0.9,0,1.2-0.1
		c0.4-0.1,0.6-0.2,0.7-0.3L410.5,30.9z"/>
	<path d="M423.5,33.2c-0.9-0.1-1.6-0.4-2.3-0.8c-0.7-0.5-1.3-1-1.7-1.7c-0.4-0.7-0.8-1.4-1-2.2c-0.2-0.8-0.2-1.6-0.1-2.5
		c0.1-0.9,0.4-1.7,0.7-2.4c0.4-0.7,0.9-1.4,1.4-1.9c0.6-0.5,1.2-0.9,2-1.2c0.7-0.3,1.5-0.3,2.3-0.2c1,0.1,1.9,0.5,2.7,1.2
		s1.3,1.4,1.6,2.2l1-7.6l1.6,0.2l-2,15.3c-0.1,0.4,0.1,0.7,0.5,0.7l-0.2,1.4c-0.2,0-0.4,0-0.6,0c-0.4,0-0.7-0.2-1-0.5
		c-0.3-0.3-0.4-0.6-0.3-0.9l0.2-1.2c-0.6,0.7-1.3,1.3-2.2,1.7C425.3,33.2,424.4,33.3,423.5,33.2z M424,31.8c0.4,0.1,0.8,0,1.3-0.1
		c0.5-0.1,0.9-0.3,1.4-0.5c0.4-0.2,0.8-0.5,1.1-0.8c0.3-0.3,0.5-0.7,0.7-1.1l0.5-3.8c-0.1-0.4-0.3-0.9-0.5-1.3
		c-0.3-0.4-0.6-0.8-0.9-1.1c-0.4-0.3-0.7-0.6-1.2-0.8c-0.4-0.2-0.9-0.4-1.3-0.4c-0.7-0.1-1.3,0-1.9,0.2s-1.1,0.5-1.5,1
		c-0.4,0.4-0.8,0.9-1.1,1.5c-0.3,0.6-0.5,1.2-0.5,1.8c-0.1,0.7,0,1.3,0.1,2c0.2,0.6,0.4,1.2,0.8,1.7c0.4,0.5,0.8,0.9,1.3,1.3
		C422.8,31.5,423.3,31.7,424,31.8z"/>
	<path d="M436.1,35c-0.6-0.1-1.1-0.3-1.6-0.6c-0.5-0.3-0.9-0.6-1.2-1c-0.3-0.4-0.5-0.9-0.7-1.4s-0.1-1-0.1-1.6
		c0.1-0.5,0.3-1,0.6-1.4c0.3-0.4,0.8-0.7,1.3-1c0.5-0.3,1.1-0.4,1.8-0.5c0.7-0.1,1.4,0,2.1,0.1c0.6,0.1,1.3,0.3,1.9,0.5
		c0.6,0.2,1.2,0.5,1.6,0.8l0.2-1.1c0.2-1.1,0-2-0.5-2.7s-1.3-1.2-2.4-1.4c-0.6-0.1-1.3-0.1-2,0c-0.7,0.1-1.4,0.4-2.2,0.7l-0.4-1.2
		c1.8-0.8,3.4-1.1,4.9-0.8c1.5,0.3,2.7,0.9,3.4,1.9s1,2.3,0.7,3.8l-0.9,5.6c-0.1,0.4,0.1,0.7,0.5,0.8L443,36c-0.3,0-0.5,0-0.6,0
		c-0.4-0.1-0.7-0.2-0.9-0.5c-0.2-0.2-0.3-0.5-0.2-0.9l0.1-1c-0.7,0.6-1.5,1.1-2.4,1.3C438,35.2,437.1,35.2,436.1,35z M436.7,33.9
		c0.8,0.1,1.6,0.1,2.4-0.1s1.4-0.5,1.8-1c0.2-0.1,0.3-0.3,0.4-0.4c0.1-0.2,0.2-0.3,0.2-0.4l0.3-2c-0.5-0.3-1-0.5-1.6-0.8
		c-0.6-0.2-1.1-0.4-1.7-0.5c-1.1-0.2-2.1-0.1-2.9,0.2c-0.8,0.4-1.3,0.9-1.4,1.7c-0.1,0.4,0,0.7,0,1.1s0.3,0.7,0.5,1
		c0.2,0.3,0.5,0.5,0.8,0.7C435.9,33.7,436.3,33.8,436.7,33.9z"/>
	<path d="M451.7,37.1c-0.1,0-0.3,0.1-0.5,0.1s-0.4,0.1-0.7,0.1c-0.3,0-0.5,0-0.8,0s-0.6,0-1-0.1c-0.3-0.1-0.7-0.2-1-0.3
		c-0.3-0.2-0.5-0.4-0.7-0.6c-0.2-0.2-0.3-0.5-0.4-0.9c-0.1-0.3-0.1-0.7,0-1.1l1.8-8.8l-1.7-0.3L447,24l1.7,0.3l0.8-4.1l1.6,0.3
		l-0.8,4.1l2.8,0.6l-0.3,1.3L450,26l-1.7,8.3c-0.1,0.5,0,0.8,0.3,1.1c0.2,0.3,0.6,0.4,0.9,0.5c0.5,0.1,0.9,0.1,1.2,0
		c0.4-0.1,0.6-0.1,0.7-0.2L451.7,37.1z"/>
	<path d="M456.4,39c-0.6-0.1-1.1-0.4-1.5-0.7c-0.4-0.3-0.8-0.7-1.1-1.1s-0.5-0.9-0.6-1.4s-0.1-1,0-1.6s0.4-1,0.7-1.4
		c0.4-0.4,0.8-0.7,1.3-0.9c0.5-0.2,1.1-0.3,1.8-0.4c0.7,0,1.4,0,2.1,0.2c0.6,0.1,1.2,0.4,1.9,0.6c0.6,0.3,1.1,0.5,1.6,0.9l0.3-1.1
		c0.3-1.1,0.2-2-0.3-2.8c-0.5-0.8-1.2-1.3-2.3-1.5c-0.6-0.1-1.3-0.2-2-0.1s-1.5,0.3-2.2,0.6l-0.3-1.2c1.8-0.7,3.5-0.9,5-0.5
		c1.5,0.4,2.6,1.1,3.3,2.1c0.7,1.1,0.8,2.3,0.5,3.9l-1.3,5.5c-0.1,0.4,0,0.7,0.4,0.8l-0.3,1.4c-0.3,0-0.5,0-0.6-0.1
		c-0.4-0.1-0.7-0.3-0.9-0.5c-0.2-0.3-0.2-0.6-0.2-0.9l0.2-1c-0.7,0.6-1.6,1-2.5,1.2S457.4,39.3,456.4,39z M457.1,37.9
		c0.8,0.2,1.6,0.2,2.4,0.1c0.8-0.1,1.4-0.4,1.9-0.9c0.2-0.1,0.3-0.2,0.4-0.4c0.1-0.1,0.2-0.3,0.2-0.4l0.5-2c-0.5-0.3-1-0.6-1.5-0.9
		s-1.1-0.4-1.7-0.6c-1.1-0.3-2.1-0.2-2.9,0.1c-0.8,0.3-1.3,0.8-1.5,1.6c-0.1,0.4-0.1,0.7,0,1.1c0.1,0.4,0.2,0.7,0.4,1
		c0.2,0.3,0.5,0.6,0.8,0.8S456.7,37.8,457.1,37.9z"/>
</g>
<g>
	<path class="st7" d="M502.8,146.8"/>
</g>
<g>
	<path class="st7" d="M578.4,146.8"/>
</g>
<g>
	<g>
		<rect x="326.3" y="70.2" class="st8" width="103.1" height="57.5"/>
		<line class="st9" x1="326.3" y1="89.4" x2="429.4" y2="89.4"/>
		<line class="st9" x1="326.3" y1="108.5" x2="429.4" y2="108.5"/>
	</g>
	<g>
		<rect x="249.4" y="162.7" class="st8" width="103.1" height="57.5"/>
		<line class="st9" x1="249.4" y1="181.9" x2="352.5" y2="181.9"/>
		<line class="st9" x1="249.4" y1="201" x2="352.5" y2="201"/>
	</g>
	<g>
		<rect x="403.2" y="162.7" class="st8" width="103.1" height="57.5"/>
		<line class="st9" x1="403.2" y1="181.9" x2="506.2" y2="181.9"/>
		<line class="st9" x1="403.2" y1="201" x2="506.2" y2="201"/>
	</g>
	<polyline class="st9" points="454.7,162.7 454.7,145.2 300.9,145.2 300.9,162.7 	"/>
	<line class="st9" x1="377.8" y1="127.7" x2="377.8" y2="145.2"/>
</g>
<path class="st1" d="M724.9,86c0-8.7-7.2-15.8-15.8-15.8c-8.5,0-15.5,6.8-15.8,15.3l-74.7,9.3c-1.7-7-8-12.2-15.3-12.2
	c-8.7,0-15.8,7.2-15.8,15.8c0,7.3,5.2,13.7,12,15.3l-11.7,75c-7.2,1.3-12.8,7.8-12.8,15.5c0,8.7,7.2,15.8,15.8,15.8
	c7.7,0,14.2-5.5,15.5-12.8l68.5-8.2c2.7,5,8,8.5,14,8.5c8.7,0,15.8-7.2,15.8-15.8c0-6.3-3.8-11.8-9.2-14.3l16.5-75.8
	C719.2,100.4,724.9,93.9,724.9,86z M709,76.9c5,0,9.2,4.2,9.2,9.2s-4.2,9.2-9.2,9.2s-9.2-4.2-9.2-9.2S704,76.9,709,76.9z
	 M599.5,191.2c-1.5-1-3.2-1.8-5-2.2l11.7-75c2-0.3,4-1.2,5.7-2.3l29,21.8c-0.8,2-1.3,4-1.3,6.3c0,3,0.8,5.8,2.3,8.2L599.5,191.2z
	 M646.2,139.9c0-5,4.2-9.2,9.2-9.2s9.2,4.2,9.2,9.2s-4.2,9.2-9.2,9.2S646.2,144.9,646.2,139.9z M665.7,127.9
	c-2.8-2.3-6.3-3.8-10.3-3.8c-4.2,0-7.8,1.5-10.7,4.2L616.5,107c1-1.7,1.8-3.5,2.2-5.5l75.7-9.3c0.5,1.3,1.3,2.5,2.2,3.7L665.7,127.9
	z M594,98.5c0-5,4.2-9.2,9.2-9.2s9.2,4.2,9.2,9.2s-4.2,9.2-9.2,9.2S594,103.5,594,98.5z M590.7,213.5c-5,0-9.2-4.2-9.2-9.2
	s4.2-9.2,9.2-9.2s9.2,4.2,9.2,9.2S595.7,213.5,590.7,213.5z M672.9,191.9v0.8l-66.8,7.8c-0.3-1.7-1-3.2-2-4.7l42.3-43.2
	c2.5,1.8,5.7,2.8,9,2.8c1.5,0,3.2-0.2,4.5-0.7l17.7,25.5C674.7,183.4,672.9,187.4,672.9,191.9z M688.7,201c-5,0-9.2-4.2-9.2-9.2
	s4.2-9.2,9.2-9.2s9.2,4.2,9.2,9.2S693.7,201,688.7,201z M688.7,176c-1.8,0-3.7,0.3-5.3,1l-17.7-25.3c3.3-2.8,5.5-7.2,5.5-12
	c0-2.3-0.5-4.7-1.5-6.7l32-33.2c1,0.5,2.2,1,3.3,1.3L688.7,176C688.9,176,688.7,176,688.7,176z"/>
<g>
</g>
<g>
</g>
<g>
</g>
<g>
</g>
<g>
</g>
<g>
</g>
<g>
</g>
</svg>
