<?xml version="1.0" standalone="no"?>
<!DOCTYPE svg PUBLIC "-//W3C//DTD SVG 20010904//EN"
 "http://www.w3.org/TR/2001/REC-SVG-20010904/DTD/svg10.dtd">
<svg version="1.0" xmlns="http://www.w3.org/2000/svg"
 width="700.000000pt" height="700.000000pt" viewBox="0 0 700.000000 700.000000"
 preserveAspectRatio="xMidYMid meet">
<metadata>
Created by potrace 1.11, written by Peter Selinger 2001-2013
</metadata>
<g transform="translate(0.000000,700.000000) scale(0.100000,-0.100000)"
fill="#000000" stroke="none">
<path d="M545 6553 c-254 -43 -457 -229 -525 -483 -20 -74 -20 -100 -20 -2565
1 -2735 -3 -2542 61 -2684 89 -196 287 -345 502 -377 42 -7 5832 -7 5874 0
206 30 404 175 492 358 22 46 46 106 53 133 11 41 13 528 13 2575 l0 2525 -31
85 c-78 220 -245 370 -471 426 -63 16 -289 17 -2972 18 -2251 1 -2920 -2
-2976 -11z m2516 -1763 c1 -32 1 -1249 0 -1272 -1 -17 -60 -18 -1094 -18
l-1092 0 0 653 0 652 40 5 c22 3 514 5 1092 5 l1053 0 1 -25z m3029 21 l35 -1
0 -655 0 -655 -1092 0 c-867 0 -1093 3 -1094 13 -1 16 -1 1268 0 1284 1 6 13
13 29 15 21 2 1960 1 2122 -1z m-3034 -2193 c5 -6 10 -1117 5 -1280 l-1 -27
-1090 1 c-600 0 -1091 3 -1091 7 -1 3 -2 299 -3 656 l-1 650 1087 0 c597 0
1090 -3 1094 -7z m3070 -638 c0 -355 -2 -650 -4 -657 -5 -17 -2182 -17 -2183
0 -1 15 -1 1232 0 1272 l1 31 1092 -1 1093 0 1 -645z"/>
</g>
</svg>
