<?xml version="1.0" encoding="UTF-8" standalone="no"?>
<!DOCTYPE svg PUBLIC "-//W3C//DTD SVG 1.1//EN"
 "http://www.w3.org/Graphics/SVG/1.1/DTD/svg11.dtd">
<!-- Generated by graphviz version 2.40.1 (20161225.0304)
 -->
<!-- Title: %3 Pages: 1 -->
<svg width="150pt" height="146pt"
 viewBox="0.00 0.00 150.00 146.00" xmlns="http://www.w3.org/2000/svg" xmlns:xlink="http://www.w3.org/1999/xlink">
<g id="graph0" class="graph" transform="scale(1 1) rotate(0) translate(4 142)">
<title>%3</title>
<polygon fill="#ffffff" stroke="transparent" points="-4,4 -4,-142 146,-142 146,4 -4,4"/>
<!-- Transaction -->
<g id="node1" class="node">
<title>Transaction</title>
<polygon fill="#ff8a5b" stroke="transparent" points="0,-104 0,-134 142,-134 142,-104 0,-104"/>
<polygon fill="none" stroke="#000000" points="0,-104 0,-134 142,-134 142,-104 0,-104"/>
<text text-anchor="start" x="24" y="-115.6" font-family="Times,serif" font-weight="bold" font-size="18.00" fill="#000000">Transaction</text>
<polygon fill="#bfffff" stroke="transparent" points="0,-79 0,-104 60,-104 60,-79 0,-79"/>
<polygon fill="none" stroke="#000000" points="0,-79 0,-104 60,-104 60,-79 0,-79"/>
<text text-anchor="start" x="7" y="-88.8" font-family="Times,serif" font-weight="bold" font-size="14.00" fill="#000000">amount</text>
<polygon fill="#bfffff" stroke="transparent" points="60,-79 60,-104 142,-104 142,-79 60,-79"/>
<polygon fill="none" stroke="#000000" points="60,-79 60,-104 142,-104 142,-79 60,-79"/>
<text text-anchor="start" x="65" y="-87.8" font-family="Times,serif" font-size="14.00" fill="#000000">PositiveFloat</text>
<polygon fill="#ebffff" stroke="transparent" points="0,-54 0,-79 60,-79 60,-54 0,-54"/>
<polygon fill="none" stroke="#000000" points="0,-54 0,-79 60,-79 60,-54 0,-54"/>
<text text-anchor="start" x="5" y="-63.8" font-family="Times,serif" font-weight="bold" font-size="14.00" fill="#000000">category</text>
<polygon fill="#ebffff" stroke="transparent" points="60,-54 60,-79 142,-79 142,-54 60,-54"/>
<polygon fill="none" stroke="#000000" points="60,-54 60,-79 142,-79 142,-54 60,-54"/>
<text text-anchor="start" x="84" y="-62.8" font-family="Times,serif" font-size="14.00" fill="#000000">String</text>
<polygon fill="#bfffff" stroke="transparent" points="0,-29 0,-54 60,-54 60,-29 0,-29"/>
<polygon fill="none" stroke="#000000" points="0,-29 0,-54 60,-54 60,-29 0,-29"/>
<text text-anchor="start" x="17.5" y="-38.8" font-family="Times,serif" font-weight="bold" font-size="14.00" fill="#000000">date</text>
<polygon fill="#bfffff" stroke="transparent" points="60,-29 60,-54 142,-54 142,-29 60,-29"/>
<polygon fill="none" stroke="#000000" points="60,-29 60,-54 142,-54 142,-29 60,-29"/>
<text text-anchor="start" x="88" y="-37.8" font-family="Times,serif" font-size="14.00" fill="#000000">Date</text>
<polygon fill="#ebffff" stroke="transparent" points="0,-4 0,-29 60,-29 60,-4 0,-4"/>
<polygon fill="none" stroke="#000000" points="0,-4 0,-29 60,-29 60,-4 0,-4"/>
<text text-anchor="start" x="13" y="-13.8" font-family="Times,serif" font-weight="bold" font-size="14.00" fill="#000000">payee</text>
<polygon fill="#ebffff" stroke="transparent" points="60,-4 60,-29 142,-29 142,-4 60,-4"/>
<polygon fill="none" stroke="#000000" points="60,-4 60,-29 142,-29 142,-4 60,-4"/>
<text text-anchor="start" x="84" y="-12.8" font-family="Times,serif" font-size="14.00" fill="#000000">String</text>
</g>
</g>
</svg>
