<?xml version="1.0" encoding="UTF-8" standalone="no"?>
<!DOCTYPE svg PUBLIC "-//W3C//DTD SVG 1.1//EN"
 "http://www.w3.org/Graphics/SVG/1.1/DTD/svg11.dtd">
<!-- Generated by graphviz version 2.40.1 (20161225.0304)
 -->
<!-- Title: %3 Pages: 1 -->
<svg width="1001pt" height="934pt"
 viewBox="0.00 0.00 1001.00 933.50" xmlns="http://www.w3.org/2000/svg" xmlns:xlink="http://www.w3.org/1999/xlink">
<g id="graph0" class="graph" transform="scale(1 1) rotate(0) translate(4 929.5)">
<title>%3</title>
<polygon fill="#ffffff" stroke="transparent" points="-4,4 -4,-929.5 997,-929.5 997,4 -4,4"/>
<!-- Compartment -->
<g id="node1" class="node">
<title>Compartment</title>
<polygon fill="#ff8a5b" stroke="transparent" points="348.5,-78.5 348.5,-108.5 656.5,-108.5 656.5,-78.5 348.5,-78.5"/>
<polygon fill="none" stroke="#000000" points="348.5,-78.5 348.5,-108.5 656.5,-108.5 656.5,-78.5 348.5,-78.5"/>
<text text-anchor="start" x="433" y="-90.1" font-family="Times,serif" font-weight="bold" font-size="18.00" fill="#000000">Compartment</text>
<polygon fill="#bfffff" stroke="transparent" points="348.5,-53.5 348.5,-78.5 518.5,-78.5 518.5,-53.5 348.5,-53.5"/>
<polygon fill="none" stroke="#000000" points="348.5,-53.5 348.5,-78.5 518.5,-78.5 518.5,-53.5 348.5,-53.5"/>
<text text-anchor="start" x="425.5" y="-63.3" font-family="Times,serif" font-weight="bold" font-size="14.00" fill="#000000">id</text>
<polygon fill="#bfffff" stroke="transparent" points="518.5,-53.5 518.5,-78.5 656.5,-78.5 656.5,-53.5 518.5,-53.5"/>
<polygon fill="none" stroke="#000000" points="518.5,-53.5 518.5,-78.5 656.5,-78.5 656.5,-53.5 518.5,-53.5"/>
<text text-anchor="start" x="564.5" y="-62.3" font-family="Times,serif" font-size="14.00" fill="#000000">String</text>
<polygon fill="#ebffff" stroke="transparent" points="348.5,-28.5 348.5,-53.5 518.5,-53.5 518.5,-28.5 348.5,-28.5"/>
<polygon fill="none" stroke="#000000" points="348.5,-28.5 348.5,-53.5 518.5,-53.5 518.5,-28.5 348.5,-28.5"/>
<text text-anchor="start" x="411.5" y="-38.3" font-family="Times,serif" font-weight="bold" font-size="14.00" fill="#000000">name</text>
<polygon fill="#ebffff" stroke="transparent" points="518.5,-28.5 518.5,-53.5 656.5,-53.5 656.5,-28.5 518.5,-28.5"/>
<polygon fill="none" stroke="#000000" points="518.5,-28.5 518.5,-53.5 656.5,-53.5 656.5,-28.5 518.5,-28.5"/>
<text text-anchor="start" x="564.5" y="-37.3" font-family="Times,serif" font-size="14.00" fill="#000000">String</text>
<polygon fill="#bfffff" stroke="transparent" points="348.5,-3.5 348.5,-28.5 518.5,-28.5 518.5,-3.5 348.5,-3.5"/>
<polygon fill="none" stroke="#000000" points="348.5,-3.5 348.5,-28.5 518.5,-28.5 518.5,-3.5 348.5,-3.5"/>
<text text-anchor="start" x="353.5" y="-13.3" font-family="Times,serif" font-weight="bold" font-size="14.00" fill="#000000">regulated_reactions</text>
<polygon fill="#bfffff" stroke="transparent" points="518.5,-3.5 518.5,-28.5 656.5,-28.5 656.5,-3.5 518.5,-3.5"/>
<polygon fill="none" stroke="#000000" points="518.5,-3.5 518.5,-28.5 656.5,-28.5 656.5,-3.5 518.5,-3.5"/>
<text text-anchor="start" x="523.5" y="-13.3" font-family="Times,serif" font-style="italic" font-size="14.00" fill="#000000">list of </text>
<text text-anchor="start" x="569.5" y="-13.3" font-family="Times,serif" font-size="14.00" fill="#000000"> Regulation</text>
</g>
<!-- Kinetics -->
<g id="node2" class="node">
<title>Kinetics</title>
<polygon fill="#ff8a5b" stroke="transparent" points="694.5,-703.5 694.5,-733.5 993.5,-733.5 993.5,-703.5 694.5,-703.5"/>
<polygon fill="none" stroke="#000000" points="694.5,-703.5 694.5,-733.5 993.5,-733.5 993.5,-703.5 694.5,-703.5"/>
<text text-anchor="start" x="802" y="-715.1" font-family="Times,serif" font-weight="bold" font-size="18.00" fill="#000000">Kinetics</text>
<polygon fill="#bfffff" stroke="transparent" points="694.5,-678.5 694.5,-703.5 869.5,-703.5 869.5,-678.5 694.5,-678.5"/>
<polygon fill="none" stroke="#000000" points="694.5,-678.5 694.5,-703.5 869.5,-703.5 869.5,-678.5 694.5,-678.5"/>
<text text-anchor="start" x="760.5" y="-688.3" font-family="Times,serif" font-weight="bold" font-size="14.00" fill="#000000">value</text>
<polygon fill="#bfffff" stroke="transparent" points="869.5,-678.5 869.5,-703.5 993.5,-703.5 993.5,-678.5 869.5,-678.5"/>
<polygon fill="none" stroke="#000000" points="869.5,-678.5 869.5,-703.5 993.5,-703.5 993.5,-678.5 869.5,-678.5"/>
<text text-anchor="start" x="908.5" y="-687.3" font-family="Times,serif" font-size="14.00" fill="#000000">Range</text>
<polygon fill="#ebffff" stroke="transparent" points="694.5,-653.5 694.5,-678.5 869.5,-678.5 869.5,-653.5 694.5,-653.5"/>
<polygon fill="none" stroke="#000000" points="694.5,-653.5 694.5,-678.5 869.5,-678.5 869.5,-653.5 694.5,-653.5"/>
<text text-anchor="start" x="745.5" y="-663.3" font-family="Times,serif" font-weight="bold" font-size="14.00" fill="#000000">molecule</text>
<polygon fill="#ebffff" stroke="transparent" points="869.5,-653.5 869.5,-678.5 993.5,-678.5 993.5,-653.5 869.5,-653.5"/>
<polygon fill="none" stroke="#000000" points="869.5,-653.5 869.5,-678.5 993.5,-678.5 993.5,-653.5 869.5,-653.5"/>
<text text-anchor="start" x="908.5" y="-662.3" font-family="Times,serif" font-size="14.00" fill="#000000">String</text>
<polygon fill="#bfffff" stroke="transparent" points="694.5,-628.5 694.5,-653.5 869.5,-653.5 869.5,-628.5 694.5,-628.5"/>
<polygon fill="none" stroke="#000000" points="694.5,-628.5 694.5,-653.5 869.5,-653.5 869.5,-628.5 694.5,-628.5"/>
<text text-anchor="start" x="744" y="-638.3" font-family="Times,serif" font-weight="bold" font-size="14.00" fill="#000000">organism</text>
<polygon fill="#bfffff" stroke="transparent" points="869.5,-628.5 869.5,-653.5 993.5,-653.5 993.5,-628.5 869.5,-628.5"/>
<polygon fill="none" stroke="#000000" points="869.5,-628.5 869.5,-653.5 993.5,-653.5 993.5,-628.5 869.5,-628.5"/>
<text text-anchor="start" x="908.5" y="-637.3" font-family="Times,serif" font-size="14.00" fill="#000000">String</text>
<polygon fill="#ebffff" stroke="transparent" points="694.5,-603.5 694.5,-628.5 869.5,-628.5 869.5,-603.5 694.5,-603.5"/>
<polygon fill="none" stroke="#000000" points="694.5,-603.5 694.5,-628.5 869.5,-628.5 869.5,-603.5 694.5,-603.5"/>
<text text-anchor="start" x="736.5" y="-613.3" font-family="Times,serif" font-weight="bold" font-size="14.00" fill="#000000">uniprot_ids</text>
<polygon fill="#ebffff" stroke="transparent" points="869.5,-603.5 869.5,-628.5 993.5,-628.5 993.5,-603.5 869.5,-603.5"/>
<polygon fill="none" stroke="#000000" points="869.5,-603.5 869.5,-628.5 993.5,-628.5 993.5,-603.5 869.5,-603.5"/>
<text text-anchor="start" x="917.5" y="-612.3" font-family="Times,serif" font-size="14.00" fill="#000000">List</text>
<polygon fill="#bfffff" stroke="transparent" points="694.5,-578.5 694.5,-603.5 869.5,-603.5 869.5,-578.5 694.5,-578.5"/>
<polygon fill="none" stroke="#000000" points="694.5,-578.5 694.5,-603.5 869.5,-603.5 869.5,-578.5 694.5,-578.5"/>
<text text-anchor="start" x="740" y="-588.3" font-family="Times,serif" font-weight="bold" font-size="14.00" fill="#000000">comments</text>
<polygon fill="#bfffff" stroke="transparent" points="869.5,-578.5 869.5,-603.5 993.5,-603.5 993.5,-578.5 869.5,-578.5"/>
<polygon fill="none" stroke="#000000" points="869.5,-578.5 869.5,-603.5 993.5,-603.5 993.5,-578.5 869.5,-578.5"/>
<text text-anchor="start" x="890.5" y="-587.3" font-family="Times,serif" font-size="14.00" fill="#000000">LongString</text>
<polygon fill="#ebffff" stroke="transparent" points="694.5,-553.5 694.5,-578.5 869.5,-578.5 869.5,-553.5 694.5,-553.5"/>
<polygon fill="none" stroke="#000000" points="694.5,-553.5 694.5,-578.5 869.5,-578.5 869.5,-553.5 694.5,-553.5"/>
<text text-anchor="start" x="734.5" y="-563.3" font-family="Times,serif" font-weight="bold" font-size="14.00" fill="#000000">pubmed_ids</text>
<polygon fill="#ebffff" stroke="transparent" points="869.5,-553.5 869.5,-578.5 993.5,-578.5 993.5,-553.5 869.5,-553.5"/>
<polygon fill="none" stroke="#000000" points="869.5,-553.5 869.5,-578.5 993.5,-578.5 993.5,-553.5 869.5,-553.5"/>
<text text-anchor="start" x="917.5" y="-562.3" font-family="Times,serif" font-size="14.00" fill="#000000">List</text>
<polygon fill="#bfffff" stroke="transparent" points="694.5,-528.5 694.5,-553.5 869.5,-553.5 869.5,-528.5 694.5,-528.5"/>
<polygon fill="none" stroke="#000000" points="694.5,-528.5 694.5,-553.5 869.5,-553.5 869.5,-528.5 694.5,-528.5"/>
<text text-anchor="start" x="757.5" y="-538.3" font-family="Times,serif" font-weight="bold" font-size="14.00" fill="#000000">image</text>
<polygon fill="#bfffff" stroke="transparent" points="869.5,-528.5 869.5,-553.5 993.5,-553.5 993.5,-528.5 869.5,-528.5"/>
<polygon fill="none" stroke="#000000" points="869.5,-528.5 869.5,-553.5 993.5,-553.5 993.5,-528.5 869.5,-528.5"/>
<text text-anchor="start" x="910" y="-537.3" font-family="Times,serif" font-size="14.00" fill="#000000">Enum</text>
<polygon fill="#ebffff" stroke="transparent" points="694.5,-503.5 694.5,-528.5 869.5,-528.5 869.5,-503.5 694.5,-503.5"/>
<polygon fill="none" stroke="#000000" points="694.5,-503.5 694.5,-528.5 869.5,-528.5 869.5,-503.5 694.5,-503.5"/>
<text text-anchor="start" x="699.5" y="-513.3" font-family="Times,serif" font-weight="bold" font-size="14.00" fill="#000000">k_cat_k_m_reactions</text>
<polygon fill="#ebffff" stroke="transparent" points="869.5,-503.5 869.5,-528.5 993.5,-528.5 993.5,-503.5 869.5,-503.5"/>
<polygon fill="none" stroke="#000000" points="869.5,-503.5 869.5,-528.5 993.5,-528.5 993.5,-503.5 869.5,-503.5"/>
<text text-anchor="start" x="874.5" y="-513.3" font-family="Times,serif" font-style="italic" font-size="14.00" fill="#000000">list of </text>
<text text-anchor="start" x="920.5" y="-513.3" font-family="Times,serif" font-size="14.00" fill="#000000"> Reaction</text>
<polygon fill="#bfffff" stroke="transparent" points="694.5,-478.5 694.5,-503.5 869.5,-503.5 869.5,-478.5 694.5,-478.5"/>
<polygon fill="none" stroke="#000000" points="694.5,-478.5 694.5,-503.5 869.5,-503.5 869.5,-478.5 694.5,-478.5"/>
<text text-anchor="start" x="719.5" y="-488.3" font-family="Times,serif" font-weight="bold" font-size="14.00" fill="#000000">k_cat_reactions</text>
<polygon fill="#bfffff" stroke="transparent" points="869.5,-478.5 869.5,-503.5 993.5,-503.5 993.5,-478.5 869.5,-478.5"/>
<polygon fill="none" stroke="#000000" points="869.5,-478.5 869.5,-503.5 993.5,-503.5 993.5,-478.5 869.5,-478.5"/>
<text text-anchor="start" x="874.5" y="-488.3" font-family="Times,serif" font-style="italic" font-size="14.00" fill="#000000">list of </text>
<text text-anchor="start" x="920.5" y="-488.3" font-family="Times,serif" font-size="14.00" fill="#000000"> Reaction</text>
<polygon fill="#ebffff" stroke="transparent" points="694.5,-453.5 694.5,-478.5 869.5,-478.5 869.5,-453.5 694.5,-453.5"/>
<polygon fill="none" stroke="#000000" points="694.5,-453.5 694.5,-478.5 869.5,-478.5 869.5,-453.5 694.5,-453.5"/>
<text text-anchor="start" x="729" y="-463.3" font-family="Times,serif" font-weight="bold" font-size="14.00" fill="#000000">k_i_reactions</text>
<polygon fill="#ebffff" stroke="transparent" points="869.5,-453.5 869.5,-478.5 993.5,-478.5 993.5,-453.5 869.5,-453.5"/>
<polygon fill="none" stroke="#000000" points="869.5,-453.5 869.5,-478.5 993.5,-478.5 993.5,-453.5 869.5,-453.5"/>
<text text-anchor="start" x="874.5" y="-463.3" font-family="Times,serif" font-style="italic" font-size="14.00" fill="#000000">list of </text>
<text text-anchor="start" x="920.5" y="-463.3" font-family="Times,serif" font-size="14.00" fill="#000000"> Reaction</text>
<polygon fill="#bfffff" stroke="transparent" points="694.5,-428.5 694.5,-453.5 869.5,-453.5 869.5,-428.5 694.5,-428.5"/>
<polygon fill="none" stroke="#000000" points="694.5,-428.5 694.5,-453.5 869.5,-453.5 869.5,-428.5 694.5,-428.5"/>
<text text-anchor="start" x="724.5" y="-438.3" font-family="Times,serif" font-weight="bold" font-size="14.00" fill="#000000">k_m_reactions</text>
<polygon fill="#bfffff" stroke="transparent" points="869.5,-428.5 869.5,-453.5 993.5,-453.5 993.5,-428.5 869.5,-428.5"/>
<polygon fill="none" stroke="#000000" points="869.5,-428.5 869.5,-453.5 993.5,-453.5 993.5,-428.5 869.5,-428.5"/>
<text text-anchor="start" x="874.5" y="-438.3" font-family="Times,serif" font-style="italic" font-size="14.00" fill="#000000">list of </text>
<text text-anchor="start" x="920.5" y="-438.3" font-family="Times,serif" font-size="14.00" fill="#000000"> Reaction</text>
</g>
<!-- Metabolite -->
<g id="node3" class="node">
<title>Metabolite</title>
<polygon fill="#ff8a5b" stroke="transparent" points="348.5,-235.5 348.5,-265.5 656.5,-265.5 656.5,-235.5 348.5,-235.5"/>
<polygon fill="none" stroke="#000000" points="348.5,-235.5 348.5,-265.5 656.5,-265.5 656.5,-235.5 348.5,-235.5"/>
<text text-anchor="start" x="447.5" y="-247.1" font-family="Times,serif" font-weight="bold" font-size="18.00" fill="#000000">Metabolite</text>
<polygon fill="#bfffff" stroke="transparent" points="348.5,-210.5 348.5,-235.5 518.5,-235.5 518.5,-210.5 348.5,-210.5"/>
<polygon fill="none" stroke="#000000" points="348.5,-210.5 348.5,-235.5 518.5,-235.5 518.5,-210.5 348.5,-210.5"/>
<text text-anchor="start" x="425.5" y="-220.3" font-family="Times,serif" font-weight="bold" font-size="14.00" fill="#000000">id</text>
<polygon fill="#bfffff" stroke="transparent" points="518.5,-210.5 518.5,-235.5 656.5,-235.5 656.5,-210.5 518.5,-210.5"/>
<polygon fill="none" stroke="#000000" points="518.5,-210.5 518.5,-235.5 656.5,-235.5 656.5,-210.5 518.5,-210.5"/>
<text text-anchor="start" x="564.5" y="-219.3" font-family="Times,serif" font-size="14.00" fill="#000000">String</text>
<polygon fill="#ebffff" stroke="transparent" points="348.5,-185.5 348.5,-210.5 518.5,-210.5 518.5,-185.5 348.5,-185.5"/>
<polygon fill="none" stroke="#000000" points="348.5,-185.5 348.5,-210.5 518.5,-210.5 518.5,-185.5 348.5,-185.5"/>
<text text-anchor="start" x="411.5" y="-195.3" font-family="Times,serif" font-weight="bold" font-size="14.00" fill="#000000">name</text>
<polygon fill="#ebffff" stroke="transparent" points="518.5,-185.5 518.5,-210.5 656.5,-210.5 656.5,-185.5 518.5,-185.5"/>
<polygon fill="none" stroke="#000000" points="518.5,-185.5 518.5,-210.5 656.5,-210.5 656.5,-185.5 518.5,-185.5"/>
<text text-anchor="start" x="564.5" y="-194.3" font-family="Times,serif" font-size="14.00" fill="#000000">String</text>
<polygon fill="#bfffff" stroke="transparent" points="348.5,-160.5 348.5,-185.5 518.5,-185.5 518.5,-160.5 348.5,-160.5"/>
<polygon fill="none" stroke="#000000" points="348.5,-160.5 348.5,-185.5 518.5,-185.5 518.5,-160.5 348.5,-160.5"/>
<text text-anchor="start" x="401.5" y="-170.3" font-family="Times,serif" font-weight="bold" font-size="14.00" fill="#000000">formula</text>
<polygon fill="#bfffff" stroke="transparent" points="518.5,-160.5 518.5,-185.5 656.5,-185.5 656.5,-160.5 518.5,-160.5"/>
<polygon fill="none" stroke="#000000" points="518.5,-160.5 518.5,-185.5 656.5,-185.5 656.5,-160.5 518.5,-160.5"/>
<text text-anchor="start" x="524" y="-169.3" font-family="Times,serif" font-size="14.00" fill="#000000">ChemicalFormula</text>
<polygon fill="#ebffff" stroke="transparent" points="348.5,-135.5 348.5,-160.5 518.5,-160.5 518.5,-135.5 348.5,-135.5"/>
<polygon fill="none" stroke="#000000" points="348.5,-135.5 348.5,-160.5 518.5,-160.5 518.5,-135.5 348.5,-135.5"/>
<text text-anchor="start" x="353.5" y="-145.3" font-family="Times,serif" font-weight="bold" font-size="14.00" fill="#000000">regulated_reactions</text>
<polygon fill="#ebffff" stroke="transparent" points="518.5,-135.5 518.5,-160.5 656.5,-160.5 656.5,-135.5 518.5,-135.5"/>
<polygon fill="none" stroke="#000000" points="518.5,-135.5 518.5,-160.5 656.5,-160.5 656.5,-135.5 518.5,-135.5"/>
<text text-anchor="start" x="523.5" y="-145.3" font-family="Times,serif" font-style="italic" font-size="14.00" fill="#000000">list of </text>
<text text-anchor="start" x="569.5" y="-145.3" font-family="Times,serif" font-size="14.00" fill="#000000"> Regulation</text>
</g>
<!-- Reaction -->
<g id="node4" class="node">
<title>Reaction</title>
<polygon fill="#ff8a5b" stroke="transparent" points="347.5,-891.5 347.5,-921.5 658.5,-921.5 658.5,-891.5 347.5,-891.5"/>
<polygon fill="none" stroke="#000000" points="347.5,-891.5 347.5,-921.5 658.5,-921.5 658.5,-891.5 347.5,-891.5"/>
<text text-anchor="start" x="458" y="-903.1" font-family="Times,serif" font-weight="bold" font-size="18.00" fill="#000000">Reaction</text>
<polygon fill="#bfffff" stroke="transparent" points="347.5,-866.5 347.5,-891.5 520.5,-891.5 520.5,-866.5 347.5,-866.5"/>
<polygon fill="none" stroke="#000000" points="347.5,-866.5 347.5,-891.5 520.5,-891.5 520.5,-866.5 347.5,-866.5"/>
<text text-anchor="start" x="426" y="-876.3" font-family="Times,serif" font-weight="bold" font-size="14.00" fill="#000000">id</text>
<polygon fill="#bfffff" stroke="transparent" points="520.5,-866.5 520.5,-891.5 658.5,-891.5 658.5,-866.5 520.5,-866.5"/>
<polygon fill="none" stroke="#000000" points="520.5,-866.5 520.5,-891.5 658.5,-891.5 658.5,-866.5 520.5,-866.5"/>
<text text-anchor="start" x="566.5" y="-875.3" font-family="Times,serif" font-size="14.00" fill="#000000">String</text>
<polygon fill="#ebffff" stroke="transparent" points="347.5,-841.5 347.5,-866.5 520.5,-866.5 520.5,-841.5 347.5,-841.5"/>
<polygon fill="none" stroke="#000000" points="347.5,-841.5 347.5,-866.5 520.5,-866.5 520.5,-841.5 347.5,-841.5"/>
<text text-anchor="start" x="385.5" y="-851.3" font-family="Times,serif" font-weight="bold" font-size="14.00" fill="#000000">id_i_a_f1260</text>
<polygon fill="#ebffff" stroke="transparent" points="520.5,-841.5 520.5,-866.5 658.5,-866.5 658.5,-841.5 520.5,-841.5"/>
<polygon fill="none" stroke="#000000" points="520.5,-841.5 520.5,-866.5 658.5,-866.5 658.5,-841.5 520.5,-841.5"/>
<text text-anchor="start" x="566.5" y="-850.3" font-family="Times,serif" font-size="14.00" fill="#000000">String</text>
<polygon fill="#bfffff" stroke="transparent" points="347.5,-816.5 347.5,-841.5 520.5,-841.5 520.5,-816.5 347.5,-816.5"/>
<polygon fill="none" stroke="#000000" points="347.5,-816.5 347.5,-841.5 520.5,-841.5 520.5,-816.5 347.5,-816.5"/>
<text text-anchor="start" x="412" y="-826.3" font-family="Times,serif" font-weight="bold" font-size="14.00" fill="#000000">name</text>
<polygon fill="#bfffff" stroke="transparent" points="520.5,-816.5 520.5,-841.5 658.5,-841.5 658.5,-816.5 520.5,-816.5"/>
<polygon fill="none" stroke="#000000" points="520.5,-816.5 520.5,-841.5 658.5,-841.5 658.5,-816.5 520.5,-816.5"/>
<text text-anchor="start" x="566.5" y="-825.3" font-family="Times,serif" font-size="14.00" fill="#000000">String</text>
<polygon fill="#ebffff" stroke="transparent" points="347.5,-791.5 347.5,-816.5 520.5,-816.5 520.5,-791.5 347.5,-791.5"/>
<polygon fill="none" stroke="#000000" points="347.5,-791.5 347.5,-816.5 520.5,-816.5 520.5,-791.5 347.5,-791.5"/>
<text text-anchor="start" x="398.5" y="-801.3" font-family="Times,serif" font-weight="bold" font-size="14.00" fill="#000000">equation</text>
<polygon fill="#ebffff" stroke="transparent" points="520.5,-791.5 520.5,-816.5 658.5,-816.5 658.5,-791.5 520.5,-791.5"/>
<polygon fill="none" stroke="#000000" points="520.5,-791.5 520.5,-816.5 658.5,-816.5 658.5,-791.5 520.5,-791.5"/>
<text text-anchor="start" x="525.5" y="-800.3" font-family="Times,serif" font-size="14.00" fill="#000000">ReactionEquation</text>
<polygon fill="#bfffff" stroke="transparent" points="347.5,-766.5 347.5,-791.5 520.5,-791.5 520.5,-766.5 347.5,-766.5"/>
<polygon fill="none" stroke="#000000" points="347.5,-766.5 347.5,-791.5 520.5,-791.5 520.5,-766.5 347.5,-766.5"/>
<text text-anchor="start" x="394.5" y="-776.3" font-family="Times,serif" font-weight="bold" font-size="14.00" fill="#000000">reversible</text>
<polygon fill="#bfffff" stroke="transparent" points="520.5,-766.5 520.5,-791.5 658.5,-791.5 658.5,-766.5 520.5,-766.5"/>
<polygon fill="none" stroke="#000000" points="520.5,-766.5 520.5,-791.5 658.5,-791.5 658.5,-766.5 520.5,-766.5"/>
<text text-anchor="start" x="560.5" y="-775.3" font-family="Times,serif" font-size="14.00" fill="#000000">Boolean</text>
<polygon fill="#ebffff" stroke="transparent" points="347.5,-741.5 347.5,-766.5 520.5,-766.5 520.5,-741.5 347.5,-741.5"/>
<polygon fill="none" stroke="#000000" points="347.5,-741.5 347.5,-766.5 520.5,-766.5 520.5,-741.5 347.5,-741.5"/>
<text text-anchor="start" x="391.5" y="-751.3" font-family="Times,serif" font-weight="bold" font-size="14.00" fill="#000000">subsystem</text>
<polygon fill="#ebffff" stroke="transparent" points="520.5,-741.5 520.5,-766.5 658.5,-766.5 658.5,-741.5 520.5,-741.5"/>
<polygon fill="none" stroke="#000000" points="520.5,-741.5 520.5,-766.5 658.5,-766.5 658.5,-741.5 520.5,-741.5"/>
<text text-anchor="start" x="566.5" y="-750.3" font-family="Times,serif" font-size="14.00" fill="#000000">String</text>
<polygon fill="#bfffff" stroke="transparent" points="347.5,-716.5 347.5,-741.5 520.5,-741.5 520.5,-716.5 347.5,-716.5"/>
<polygon fill="none" stroke="#000000" points="347.5,-716.5 347.5,-741.5 520.5,-741.5 520.5,-716.5 347.5,-716.5"/>
<text text-anchor="start" x="390" y="-726.3" font-family="Times,serif" font-weight="bold" font-size="14.00" fill="#000000">ec_number</text>
<polygon fill="#bfffff" stroke="transparent" points="520.5,-716.5 520.5,-741.5 658.5,-741.5 658.5,-716.5 520.5,-716.5"/>
<polygon fill="none" stroke="#000000" points="520.5,-716.5 520.5,-741.5 658.5,-741.5 658.5,-716.5 520.5,-716.5"/>
<text text-anchor="start" x="567" y="-725.3" font-family="Times,serif" font-size="14.00" fill="#000000">Regex</text>
<polygon fill="#ebffff" stroke="transparent" points="347.5,-691.5 347.5,-716.5 520.5,-716.5 520.5,-691.5 347.5,-691.5"/>
<polygon fill="none" stroke="#000000" points="347.5,-691.5 347.5,-716.5 520.5,-716.5 520.5,-691.5 347.5,-691.5"/>
<text text-anchor="start" x="394.5" y="-701.3" font-family="Times,serif" font-weight="bold" font-size="14.00" fill="#000000">gene_rule</text>
<polygon fill="#ebffff" stroke="transparent" points="520.5,-691.5 520.5,-716.5 658.5,-716.5 658.5,-691.5 520.5,-691.5"/>
<polygon fill="none" stroke="#000000" points="520.5,-691.5 520.5,-716.5 658.5,-716.5 658.5,-691.5 520.5,-691.5"/>
<text text-anchor="start" x="566.5" y="-700.3" font-family="Times,serif" font-size="14.00" fill="#000000">String</text>
<polygon fill="#bfffff" stroke="transparent" points="347.5,-666.5 347.5,-691.5 520.5,-691.5 520.5,-666.5 347.5,-666.5"/>
<polygon fill="none" stroke="#000000" points="347.5,-666.5 347.5,-691.5 520.5,-691.5 520.5,-666.5 347.5,-666.5"/>
<text text-anchor="start" x="396" y="-676.3" font-family="Times,serif" font-weight="bold" font-size="14.00" fill="#000000">obs_k_ms</text>
<polygon fill="#bfffff" stroke="transparent" points="520.5,-666.5 520.5,-691.5 658.5,-691.5 658.5,-666.5 520.5,-666.5"/>
<polygon fill="none" stroke="#000000" points="520.5,-666.5 520.5,-691.5 658.5,-691.5 658.5,-666.5 520.5,-666.5"/>
<text text-anchor="start" x="534.5" y="-676.3" font-family="Times,serif" font-style="italic" font-size="14.00" fill="#000000">list of </text>
<text text-anchor="start" x="580.5" y="-676.3" font-family="Times,serif" font-size="14.00" fill="#000000"> Kinetics</text>
<polygon fill="#ebffff" stroke="transparent" points="347.5,-641.5 347.5,-666.5 520.5,-666.5 520.5,-641.5 347.5,-641.5"/>
<polygon fill="none" stroke="#000000" points="347.5,-641.5 347.5,-666.5 520.5,-666.5 520.5,-641.5 347.5,-641.5"/>
<text text-anchor="start" x="369" y="-651.3" font-family="Times,serif" font-weight="bold" font-size="14.00" fill="#000000">obs_range_k_ms</text>
<polygon fill="#ebffff" stroke="transparent" points="520.5,-641.5 520.5,-666.5 658.5,-666.5 658.5,-641.5 520.5,-641.5"/>
<polygon fill="none" stroke="#000000" points="520.5,-641.5 520.5,-666.5 658.5,-666.5 658.5,-641.5 520.5,-641.5"/>
<text text-anchor="start" x="548.5" y="-650.3" font-family="Times,serif" font-size="14.00" fill="#000000">LongString</text>
<polygon fill="#bfffff" stroke="transparent" points="347.5,-616.5 347.5,-641.5 520.5,-641.5 520.5,-616.5 347.5,-616.5"/>
<polygon fill="none" stroke="#000000" points="347.5,-616.5 347.5,-641.5 520.5,-641.5 520.5,-616.5 347.5,-616.5"/>
<text text-anchor="start" x="371" y="-626.3" font-family="Times,serif" font-weight="bold" font-size="14.00" fill="#000000">est_range_k_ms</text>
<polygon fill="#bfffff" stroke="transparent" points="520.5,-616.5 520.5,-641.5 658.5,-641.5 658.5,-616.5 520.5,-616.5"/>
<polygon fill="none" stroke="#000000" points="520.5,-616.5 520.5,-641.5 658.5,-641.5 658.5,-616.5 520.5,-616.5"/>
<text text-anchor="start" x="548.5" y="-625.3" font-family="Times,serif" font-size="14.00" fill="#000000">LongString</text>
<polygon fill="#ebffff" stroke="transparent" points="347.5,-591.5 347.5,-616.5 520.5,-616.5 520.5,-591.5 347.5,-591.5"/>
<polygon fill="none" stroke="#000000" points="347.5,-591.5 347.5,-616.5 520.5,-616.5 520.5,-591.5 347.5,-591.5"/>
<text text-anchor="start" x="391" y="-601.3" font-family="Times,serif" font-weight="bold" font-size="14.00" fill="#000000">obs_k_cats</text>
<polygon fill="#ebffff" stroke="transparent" points="520.5,-591.5 520.5,-616.5 658.5,-616.5 658.5,-591.5 520.5,-591.5"/>
<polygon fill="none" stroke="#000000" points="520.5,-591.5 520.5,-616.5 658.5,-616.5 658.5,-591.5 520.5,-591.5"/>
<text text-anchor="start" x="534.5" y="-601.3" font-family="Times,serif" font-style="italic" font-size="14.00" fill="#000000">list of </text>
<text text-anchor="start" x="580.5" y="-601.3" font-family="Times,serif" font-size="14.00" fill="#000000"> Kinetics</text>
<polygon fill="#bfffff" stroke="transparent" points="347.5,-566.5 347.5,-591.5 520.5,-591.5 520.5,-566.5 347.5,-566.5"/>
<polygon fill="none" stroke="#000000" points="347.5,-566.5 347.5,-591.5 520.5,-591.5 520.5,-566.5 347.5,-566.5"/>
<text text-anchor="start" x="360.5" y="-576.3" font-family="Times,serif" font-weight="bold" font-size="14.00" fill="#000000">min_obs_for_k_cat</text>
<polygon fill="#bfffff" stroke="transparent" points="520.5,-566.5 520.5,-591.5 658.5,-591.5 658.5,-566.5 520.5,-566.5"/>
<polygon fill="none" stroke="#000000" points="520.5,-566.5 520.5,-591.5 658.5,-591.5 658.5,-566.5 520.5,-566.5"/>
<text text-anchor="start" x="571" y="-575.3" font-family="Times,serif" font-size="14.00" fill="#000000">Float</text>
<polygon fill="#ebffff" stroke="transparent" points="347.5,-541.5 347.5,-566.5 520.5,-566.5 520.5,-541.5 347.5,-541.5"/>
<polygon fill="none" stroke="#000000" points="347.5,-541.5 347.5,-566.5 520.5,-566.5 520.5,-541.5 347.5,-541.5"/>
<text text-anchor="start" x="360" y="-551.3" font-family="Times,serif" font-weight="bold" font-size="14.00" fill="#000000">max_obs_for_k_cat</text>
<polygon fill="#ebffff" stroke="transparent" points="520.5,-541.5 520.5,-566.5 658.5,-566.5 658.5,-541.5 520.5,-541.5"/>
<polygon fill="none" stroke="#000000" points="520.5,-541.5 520.5,-566.5 658.5,-566.5 658.5,-541.5 520.5,-541.5"/>
<text text-anchor="start" x="571" y="-550.3" font-family="Times,serif" font-size="14.00" fill="#000000">Float</text>
<polygon fill="#bfffff" stroke="transparent" points="347.5,-516.5 347.5,-541.5 520.5,-541.5 520.5,-516.5 347.5,-516.5"/>
<polygon fill="none" stroke="#000000" points="347.5,-516.5 347.5,-541.5 520.5,-541.5 520.5,-516.5 347.5,-516.5"/>
<text text-anchor="start" x="353.5" y="-526.3" font-family="Times,serif" font-weight="bold" font-size="14.00" fill="#000000">min_obs_back_k_cat</text>
<polygon fill="#bfffff" stroke="transparent" points="520.5,-516.5 520.5,-541.5 658.5,-541.5 658.5,-516.5 520.5,-516.5"/>
<polygon fill="none" stroke="#000000" points="520.5,-516.5 520.5,-541.5 658.5,-541.5 658.5,-516.5 520.5,-516.5"/>
<text text-anchor="start" x="571" y="-525.3" font-family="Times,serif" font-size="14.00" fill="#000000">Float</text>
<polygon fill="#ebffff" stroke="transparent" points="347.5,-491.5 347.5,-516.5 520.5,-516.5 520.5,-491.5 347.5,-491.5"/>
<polygon fill="none" stroke="#000000" points="347.5,-491.5 347.5,-516.5 520.5,-516.5 520.5,-491.5 347.5,-491.5"/>
<text text-anchor="start" x="352.5" y="-501.3" font-family="Times,serif" font-weight="bold" font-size="14.00" fill="#000000">max_obs_back_k_cat</text>
<polygon fill="#ebffff" stroke="transparent" points="520.5,-491.5 520.5,-516.5 658.5,-516.5 658.5,-491.5 520.5,-491.5"/>
<polygon fill="none" stroke="#000000" points="520.5,-491.5 520.5,-516.5 658.5,-516.5 658.5,-491.5 520.5,-491.5"/>
<text text-anchor="start" x="571" y="-500.3" font-family="Times,serif" font-size="14.00" fill="#000000">Float</text>
<polygon fill="#bfffff" stroke="transparent" points="347.5,-466.5 347.5,-491.5 520.5,-491.5 520.5,-466.5 347.5,-466.5"/>
<polygon fill="none" stroke="#000000" points="347.5,-466.5 347.5,-491.5 520.5,-491.5 520.5,-466.5 347.5,-466.5"/>
<text text-anchor="start" x="362.5" y="-476.3" font-family="Times,serif" font-weight="bold" font-size="14.00" fill="#000000">min_est_for_k_cat</text>
<polygon fill="#bfffff" stroke="transparent" points="520.5,-466.5 520.5,-491.5 658.5,-491.5 658.5,-466.5 520.5,-466.5"/>
<polygon fill="none" stroke="#000000" points="520.5,-466.5 520.5,-491.5 658.5,-491.5 658.5,-466.5 520.5,-466.5"/>
<text text-anchor="start" x="571" y="-475.3" font-family="Times,serif" font-size="14.00" fill="#000000">Float</text>
<polygon fill="#ebffff" stroke="transparent" points="347.5,-441.5 347.5,-466.5 520.5,-466.5 520.5,-441.5 347.5,-441.5"/>
<polygon fill="none" stroke="#000000" points="347.5,-441.5 347.5,-466.5 520.5,-466.5 520.5,-441.5 347.5,-441.5"/>
<text text-anchor="start" x="361.5" y="-451.3" font-family="Times,serif" font-weight="bold" font-size="14.00" fill="#000000">max_est_for_k_cat</text>
<polygon fill="#ebffff" stroke="transparent" points="520.5,-441.5 520.5,-466.5 658.5,-466.5 658.5,-441.5 520.5,-441.5"/>
<polygon fill="none" stroke="#000000" points="520.5,-441.5 520.5,-466.5 658.5,-466.5 658.5,-441.5 520.5,-441.5"/>
<text text-anchor="start" x="571" y="-450.3" font-family="Times,serif" font-size="14.00" fill="#000000">Float</text>
<polygon fill="#bfffff" stroke="transparent" points="347.5,-416.5 347.5,-441.5 520.5,-441.5 520.5,-416.5 347.5,-416.5"/>
<polygon fill="none" stroke="#000000" points="347.5,-416.5 347.5,-441.5 520.5,-441.5 520.5,-416.5 347.5,-416.5"/>
<text text-anchor="start" x="355.5" y="-426.3" font-family="Times,serif" font-weight="bold" font-size="14.00" fill="#000000">min_est_back_k_cat</text>
<polygon fill="#bfffff" stroke="transparent" points="520.5,-416.5 520.5,-441.5 658.5,-441.5 658.5,-416.5 520.5,-416.5"/>
<polygon fill="none" stroke="#000000" points="520.5,-416.5 520.5,-441.5 658.5,-441.5 658.5,-416.5 520.5,-416.5"/>
<text text-anchor="start" x="571" y="-425.3" font-family="Times,serif" font-size="14.00" fill="#000000">Float</text>
<polygon fill="#ebffff" stroke="transparent" points="347.5,-391.5 347.5,-416.5 520.5,-416.5 520.5,-391.5 347.5,-391.5"/>
<polygon fill="none" stroke="#000000" points="347.5,-391.5 347.5,-416.5 520.5,-416.5 520.5,-391.5 347.5,-391.5"/>
<text text-anchor="start" x="354.5" y="-401.3" font-family="Times,serif" font-weight="bold" font-size="14.00" fill="#000000">max_est_back_k_cat</text>
<polygon fill="#ebffff" stroke="transparent" points="520.5,-391.5 520.5,-416.5 658.5,-416.5 658.5,-391.5 520.5,-391.5"/>
<polygon fill="none" stroke="#000000" points="520.5,-391.5 520.5,-416.5 658.5,-416.5 658.5,-391.5 520.5,-391.5"/>
<text text-anchor="start" x="571" y="-400.3" font-family="Times,serif" font-size="14.00" fill="#000000">Float</text>
<polygon fill="#bfffff" stroke="transparent" points="347.5,-366.5 347.5,-391.5 520.5,-391.5 520.5,-366.5 347.5,-366.5"/>
<polygon fill="none" stroke="#000000" points="347.5,-366.5 347.5,-391.5 520.5,-391.5 520.5,-366.5 347.5,-366.5"/>
<text text-anchor="start" x="371" y="-376.3" font-family="Times,serif" font-weight="bold" font-size="14.00" fill="#000000">obs_k_cat_k_ms</text>
<polygon fill="#bfffff" stroke="transparent" points="520.5,-366.5 520.5,-391.5 658.5,-391.5 658.5,-366.5 520.5,-366.5"/>
<polygon fill="none" stroke="#000000" points="520.5,-366.5 520.5,-391.5 658.5,-391.5 658.5,-366.5 520.5,-366.5"/>
<text text-anchor="start" x="534.5" y="-376.3" font-family="Times,serif" font-style="italic" font-size="14.00" fill="#000000">list of </text>
<text text-anchor="start" x="580.5" y="-376.3" font-family="Times,serif" font-size="14.00" fill="#000000"> Kinetics</text>
<polygon fill="#ebffff" stroke="transparent" points="347.5,-341.5 347.5,-366.5 520.5,-366.5 520.5,-341.5 347.5,-341.5"/>
<polygon fill="none" stroke="#000000" points="347.5,-341.5 347.5,-366.5 520.5,-366.5 520.5,-341.5 347.5,-341.5"/>
<text text-anchor="start" x="400.5" y="-351.3" font-family="Times,serif" font-weight="bold" font-size="14.00" fill="#000000">obs_k_is</text>
<polygon fill="#ebffff" stroke="transparent" points="520.5,-341.5 520.5,-366.5 658.5,-366.5 658.5,-341.5 520.5,-341.5"/>
<polygon fill="none" stroke="#000000" points="520.5,-341.5 520.5,-366.5 658.5,-366.5 658.5,-341.5 520.5,-341.5"/>
<text text-anchor="start" x="534.5" y="-351.3" font-family="Times,serif" font-style="italic" font-size="14.00" fill="#000000">list of </text>
<text text-anchor="start" x="580.5" y="-351.3" font-family="Times,serif" font-size="14.00" fill="#000000"> Kinetics</text>
<polygon fill="#bfffff" stroke="transparent" points="347.5,-316.5 347.5,-341.5 520.5,-341.5 520.5,-316.5 347.5,-316.5"/>
<polygon fill="none" stroke="#000000" points="347.5,-316.5 347.5,-341.5 520.5,-341.5 520.5,-316.5 347.5,-316.5"/>
<text text-anchor="start" x="354" y="-326.3" font-family="Times,serif" font-weight="bold" font-size="14.00" fill="#000000">coupled_to_biomass</text>
<polygon fill="#bfffff" stroke="transparent" points="520.5,-316.5 520.5,-341.5 658.5,-341.5 658.5,-316.5 520.5,-316.5"/>
<polygon fill="none" stroke="#000000" points="520.5,-316.5 520.5,-341.5 658.5,-341.5 658.5,-316.5 520.5,-316.5"/>
<text text-anchor="start" x="560.5" y="-325.3" font-family="Times,serif" font-size="14.00" fill="#000000">Boolean</text>
<polygon fill="#ebffff" stroke="transparent" points="347.5,-291.5 347.5,-316.5 520.5,-316.5 520.5,-291.5 347.5,-291.5"/>
<polygon fill="none" stroke="#000000" points="347.5,-291.5 347.5,-316.5 520.5,-316.5 520.5,-291.5 347.5,-291.5"/>
<text text-anchor="start" x="388" y="-301.3" font-family="Times,serif" font-weight="bold" font-size="14.00" fill="#000000">regulations</text>
<polygon fill="#ebffff" stroke="transparent" points="520.5,-291.5 520.5,-316.5 658.5,-316.5 658.5,-291.5 520.5,-291.5"/>
<polygon fill="none" stroke="#000000" points="520.5,-291.5 520.5,-316.5 658.5,-316.5 658.5,-291.5 520.5,-291.5"/>
<text text-anchor="start" x="525.5" y="-301.3" font-family="Times,serif" font-style="italic" font-size="14.00" fill="#000000">list of </text>
<text text-anchor="start" x="571.5" y="-301.3" font-family="Times,serif" font-size="14.00" fill="#000000"> Regulation</text>
</g>
<!-- Reaction&#45;&gt;Kinetics -->
<g id="edge1" class="edge">
<title>Reaction:8&#45;&gt;Kinetics:10</title>
<path fill="none" stroke="#000000" d="M658,-679.5C761.7811,-679.5 598.9081,-456.5587 684.4608,-441.3185"/>
<polygon fill="#000000" stroke="#000000" points="684.8175,-444.8012 694.5,-440.5 684.2486,-437.8243 684.8175,-444.8012"/>
<text text-anchor="middle" x="688" y="-429.3" font-family="Times,serif" font-size="14.00" fill="#000000">N</text>
<text text-anchor="middle" x="664.5" y="-668.3" font-family="Times,serif" font-size="14.00" fill="#000000">N</text>
</g>
<!-- Reaction&#45;&gt;Kinetics -->
<g id="edge2" class="edge">
<title>Reaction:11&#45;&gt;Kinetics:8</title>
<path fill="none" stroke="#000000" d="M658,-603.5C706.654,-603.5 651.769,-507.4666 684.245,-492.4613"/>
<polygon fill="#000000" stroke="#000000" points="685.3355,-495.8163 694.5,-490.5 684.0205,-488.9409 685.3355,-495.8163"/>
<text text-anchor="middle" x="688" y="-479.3" font-family="Times,serif" font-size="14.00" fill="#000000">N</text>
<text text-anchor="middle" x="664.5" y="-592.3" font-family="Times,serif" font-size="14.00" fill="#000000">N</text>
</g>
<!-- Reaction&#45;&gt;Kinetics -->
<g id="edge3" class="edge">
<title>Reaction:20&#45;&gt;Kinetics:7</title>
<path fill="none" stroke="#000000" d="M658,-378.5C717.0745,-378.5 642.082,-498.9102 684.3982,-513.9614"/>
<polygon fill="#000000" stroke="#000000" points="684.087,-517.4543 694.5,-515.5 685.141,-510.5341 684.087,-517.4543"/>
<text text-anchor="middle" x="688" y="-504.3" font-family="Times,serif" font-size="14.00" fill="#000000">N</text>
<text text-anchor="middle" x="664.5" y="-367.3" font-family="Times,serif" font-size="14.00" fill="#000000">N</text>
</g>
<!-- Reaction&#45;&gt;Kinetics -->
<g id="edge4" class="edge">
<title>Reaction:21&#45;&gt;Kinetics:9</title>
<path fill="none" stroke="#000000" d="M658,-353.5C706.2643,-353.5 652.0673,-448.6836 684.322,-463.556"/>
<polygon fill="#000000" stroke="#000000" points="684.0209,-467.0617 694.5,-465.5 685.3342,-460.186 684.0209,-467.0617"/>
<text text-anchor="middle" x="688" y="-454.3" font-family="Times,serif" font-size="14.00" fill="#000000">N</text>
<text text-anchor="middle" x="664.5" y="-342.3" font-family="Times,serif" font-size="14.00" fill="#000000">N</text>
</g>
<!-- Reference -->
<g id="node5" class="node">
<title>Reference</title>
<polygon fill="#ff8a5b" stroke="transparent" points="47.5,-466.5 47.5,-496.5 264.5,-496.5 264.5,-466.5 47.5,-466.5"/>
<polygon fill="none" stroke="#000000" points="47.5,-466.5 47.5,-496.5 264.5,-496.5 264.5,-466.5 47.5,-466.5"/>
<text text-anchor="start" x="105" y="-478.1" font-family="Times,serif" font-weight="bold" font-size="18.00" fill="#000000">Reference</text>
<polygon fill="#bfffff" stroke="transparent" points="47.5,-441.5 47.5,-466.5 144.5,-466.5 144.5,-441.5 47.5,-441.5"/>
<polygon fill="none" stroke="#000000" points="47.5,-441.5 47.5,-466.5 144.5,-466.5 144.5,-441.5 47.5,-441.5"/>
<text text-anchor="start" x="88" y="-451.3" font-family="Times,serif" font-weight="bold" font-size="14.00" fill="#000000">id</text>
<polygon fill="#bfffff" stroke="transparent" points="144.5,-441.5 144.5,-466.5 264.5,-466.5 264.5,-441.5 144.5,-441.5"/>
<polygon fill="none" stroke="#000000" points="144.5,-441.5 144.5,-466.5 264.5,-466.5 264.5,-441.5 144.5,-441.5"/>
<text text-anchor="start" x="181.5" y="-450.3" font-family="Times,serif" font-size="14.00" fill="#000000">String</text>
<polygon fill="#ebffff" stroke="transparent" points="47.5,-416.5 47.5,-441.5 144.5,-441.5 144.5,-416.5 47.5,-416.5"/>
<polygon fill="none" stroke="#000000" points="47.5,-416.5 47.5,-441.5 144.5,-441.5 144.5,-416.5 47.5,-416.5"/>
<text text-anchor="start" x="79" y="-426.3" font-family="Times,serif" font-weight="bold" font-size="14.00" fill="#000000">title</text>
<polygon fill="#ebffff" stroke="transparent" points="144.5,-416.5 144.5,-441.5 264.5,-441.5 264.5,-416.5 144.5,-416.5"/>
<polygon fill="none" stroke="#000000" points="144.5,-416.5 144.5,-441.5 264.5,-441.5 264.5,-416.5 144.5,-416.5"/>
<text text-anchor="start" x="163.5" y="-425.3" font-family="Times,serif" font-size="14.00" fill="#000000">LongString</text>
<polygon fill="#bfffff" stroke="transparent" points="47.5,-391.5 47.5,-416.5 144.5,-416.5 144.5,-391.5 47.5,-391.5"/>
<polygon fill="none" stroke="#000000" points="47.5,-391.5 47.5,-416.5 144.5,-416.5 144.5,-391.5 47.5,-391.5"/>
<text text-anchor="start" x="64.5" y="-401.3" font-family="Times,serif" font-weight="bold" font-size="14.00" fill="#000000">authors</text>
<polygon fill="#bfffff" stroke="transparent" points="144.5,-391.5 144.5,-416.5 264.5,-416.5 264.5,-391.5 144.5,-391.5"/>
<polygon fill="none" stroke="#000000" points="144.5,-391.5 144.5,-416.5 264.5,-416.5 264.5,-391.5 144.5,-391.5"/>
<text text-anchor="start" x="163.5" y="-400.3" font-family="Times,serif" font-size="14.00" fill="#000000">LongString</text>
<polygon fill="#ebffff" stroke="transparent" points="47.5,-366.5 47.5,-391.5 144.5,-391.5 144.5,-366.5 47.5,-366.5"/>
<polygon fill="none" stroke="#000000" points="47.5,-366.5 47.5,-391.5 144.5,-391.5 144.5,-366.5 47.5,-366.5"/>
<text text-anchor="start" x="67" y="-376.3" font-family="Times,serif" font-weight="bold" font-size="14.00" fill="#000000">journal</text>
<polygon fill="#ebffff" stroke="transparent" points="144.5,-366.5 144.5,-391.5 264.5,-391.5 264.5,-366.5 144.5,-366.5"/>
<polygon fill="none" stroke="#000000" points="144.5,-366.5 144.5,-391.5 264.5,-391.5 264.5,-366.5 144.5,-366.5"/>
<text text-anchor="start" x="181.5" y="-375.3" font-family="Times,serif" font-size="14.00" fill="#000000">String</text>
<polygon fill="#bfffff" stroke="transparent" points="47.5,-341.5 47.5,-366.5 144.5,-366.5 144.5,-341.5 47.5,-341.5"/>
<polygon fill="none" stroke="#000000" points="47.5,-341.5 47.5,-366.5 144.5,-366.5 144.5,-341.5 47.5,-341.5"/>
<text text-anchor="start" x="67" y="-351.3" font-family="Times,serif" font-weight="bold" font-size="14.00" fill="#000000">volume</text>
<polygon fill="#bfffff" stroke="transparent" points="144.5,-341.5 144.5,-366.5 264.5,-366.5 264.5,-341.5 144.5,-341.5"/>
<polygon fill="none" stroke="#000000" points="144.5,-341.5 144.5,-366.5 264.5,-366.5 264.5,-341.5 144.5,-341.5"/>
<text text-anchor="start" x="149.5" y="-350.3" font-family="Times,serif" font-size="14.00" fill="#000000">PositiveInteger</text>
<polygon fill="#ebffff" stroke="transparent" points="47.5,-316.5 47.5,-341.5 144.5,-341.5 144.5,-316.5 47.5,-316.5"/>
<polygon fill="none" stroke="#000000" points="47.5,-316.5 47.5,-341.5 144.5,-341.5 144.5,-316.5 47.5,-316.5"/>
<text text-anchor="start" x="75" y="-326.3" font-family="Times,serif" font-weight="bold" font-size="14.00" fill="#000000">issue</text>
<polygon fill="#ebffff" stroke="transparent" points="144.5,-316.5 144.5,-341.5 264.5,-341.5 264.5,-316.5 144.5,-316.5"/>
<polygon fill="none" stroke="#000000" points="144.5,-316.5 144.5,-341.5 264.5,-341.5 264.5,-316.5 144.5,-316.5"/>
<text text-anchor="start" x="149.5" y="-325.3" font-family="Times,serif" font-size="14.00" fill="#000000">PositiveInteger</text>
<polygon fill="#bfffff" stroke="transparent" points="47.5,-291.5 47.5,-316.5 144.5,-316.5 144.5,-291.5 47.5,-291.5"/>
<polygon fill="none" stroke="#000000" points="47.5,-291.5 47.5,-316.5 144.5,-316.5 144.5,-291.5 47.5,-291.5"/>
<text text-anchor="start" x="54" y="-301.3" font-family="Times,serif" font-weight="bold" font-size="14.00" fill="#000000">start_page</text>
<polygon fill="#bfffff" stroke="transparent" points="144.5,-291.5 144.5,-316.5 264.5,-316.5 264.5,-291.5 144.5,-291.5"/>
<polygon fill="none" stroke="#000000" points="144.5,-291.5 144.5,-316.5 264.5,-316.5 264.5,-291.5 144.5,-291.5"/>
<text text-anchor="start" x="149.5" y="-300.3" font-family="Times,serif" font-size="14.00" fill="#000000">PositiveInteger</text>
<polygon fill="#ebffff" stroke="transparent" points="47.5,-266.5 47.5,-291.5 144.5,-291.5 144.5,-266.5 47.5,-266.5"/>
<polygon fill="none" stroke="#000000" points="47.5,-266.5 47.5,-291.5 144.5,-291.5 144.5,-266.5 47.5,-266.5"/>
<text text-anchor="start" x="58.5" y="-276.3" font-family="Times,serif" font-weight="bold" font-size="14.00" fill="#000000">end_page</text>
<polygon fill="#ebffff" stroke="transparent" points="144.5,-266.5 144.5,-291.5 264.5,-291.5 264.5,-266.5 144.5,-266.5"/>
<polygon fill="none" stroke="#000000" points="144.5,-266.5 144.5,-291.5 264.5,-291.5 264.5,-266.5 144.5,-266.5"/>
<text text-anchor="start" x="149.5" y="-275.3" font-family="Times,serif" font-size="14.00" fill="#000000">PositiveInteger</text>
<polygon fill="#bfffff" stroke="transparent" points="47.5,-241.5 47.5,-266.5 144.5,-266.5 144.5,-241.5 47.5,-241.5"/>
<polygon fill="none" stroke="#000000" points="47.5,-241.5 47.5,-266.5 144.5,-266.5 144.5,-241.5 47.5,-241.5"/>
<text text-anchor="start" x="52.5" y="-251.3" font-family="Times,serif" font-weight="bold" font-size="14.00" fill="#000000">pubmed_id</text>
<polygon fill="#bfffff" stroke="transparent" points="144.5,-241.5 144.5,-266.5 264.5,-266.5 264.5,-241.5 144.5,-241.5"/>
<polygon fill="none" stroke="#000000" points="144.5,-241.5 144.5,-266.5 264.5,-266.5 264.5,-241.5 144.5,-241.5"/>
<text text-anchor="start" x="149.5" y="-250.3" font-family="Times,serif" font-size="14.00" fill="#000000">PositiveInteger</text>
</g>
<!-- Regulation -->
<g id="node6" class="node">
<title>Regulation</title>
<polygon fill="#ff8a5b" stroke="transparent" points=".5,-185.5 .5,-215.5 311.5,-215.5 311.5,-185.5 .5,-185.5"/>
<polygon fill="none" stroke="#000000" points=".5,-185.5 .5,-215.5 311.5,-215.5 311.5,-185.5 .5,-185.5"/>
<text text-anchor="start" x="100.5" y="-197.1" font-family="Times,serif" font-weight="bold" font-size="18.00" fill="#000000">Regulation</text>
<polygon fill="#bfffff" stroke="transparent" points=".5,-160.5 .5,-185.5 201.5,-185.5 201.5,-160.5 .5,-160.5"/>
<polygon fill="none" stroke="#000000" points=".5,-160.5 .5,-185.5 201.5,-185.5 201.5,-160.5 .5,-160.5"/>
<text text-anchor="start" x="67.5" y="-170.3" font-family="Times,serif" font-weight="bold" font-size="14.00" fill="#000000">reaction</text>
<polygon fill="#bfffff" stroke="transparent" points="201.5,-160.5 201.5,-185.5 311.5,-185.5 311.5,-160.5 201.5,-160.5"/>
<polygon fill="none" stroke="#000000" points="201.5,-160.5 201.5,-185.5 311.5,-185.5 311.5,-160.5 201.5,-160.5"/>
<text text-anchor="start" x="224.5" y="-169.3" font-family="Times,serif" font-size="14.00" fill="#000000">Reaction</text>
<polygon fill="#ebffff" stroke="transparent" points=".5,-135.5 .5,-160.5 201.5,-160.5 201.5,-135.5 .5,-135.5"/>
<polygon fill="none" stroke="#000000" points=".5,-135.5 .5,-160.5 201.5,-160.5 201.5,-135.5 .5,-135.5"/>
<text text-anchor="start" x="63" y="-145.3" font-family="Times,serif" font-weight="bold" font-size="14.00" fill="#000000">regulator</text>
<polygon fill="#ebffff" stroke="transparent" points="201.5,-135.5 201.5,-160.5 311.5,-160.5 311.5,-135.5 201.5,-135.5"/>
<polygon fill="none" stroke="#000000" points="201.5,-135.5 201.5,-160.5 311.5,-160.5 311.5,-135.5 201.5,-135.5"/>
<text text-anchor="start" x="217.5" y="-144.3" font-family="Times,serif" font-size="14.00" fill="#000000">Metabolite</text>
<polygon fill="#bfffff" stroke="transparent" points=".5,-110.5 .5,-135.5 201.5,-135.5 201.5,-110.5 .5,-110.5"/>
<polygon fill="none" stroke="#000000" points=".5,-110.5 .5,-135.5 201.5,-135.5 201.5,-110.5 .5,-110.5"/>
<text text-anchor="start" x="5.5" y="-120.3" font-family="Times,serif" font-weight="bold" font-size="14.00" fill="#000000">regulator_compartment</text>
<polygon fill="#bfffff" stroke="transparent" points="201.5,-110.5 201.5,-135.5 311.5,-135.5 311.5,-110.5 201.5,-110.5"/>
<polygon fill="none" stroke="#000000" points="201.5,-110.5 201.5,-135.5 311.5,-135.5 311.5,-110.5 201.5,-110.5"/>
<text text-anchor="start" x="206.5" y="-119.3" font-family="Times,serif" font-size="14.00" fill="#000000">Compartment</text>
<polygon fill="#ebffff" stroke="transparent" points=".5,-85.5 .5,-110.5 201.5,-110.5 201.5,-85.5 .5,-85.5"/>
<polygon fill="none" stroke="#000000" points=".5,-85.5 .5,-110.5 201.5,-110.5 201.5,-85.5 .5,-85.5"/>
<text text-anchor="start" x="84" y="-95.3" font-family="Times,serif" font-weight="bold" font-size="14.00" fill="#000000">type</text>
<polygon fill="#ebffff" stroke="transparent" points="201.5,-85.5 201.5,-110.5 311.5,-110.5 311.5,-85.5 201.5,-85.5"/>
<polygon fill="none" stroke="#000000" points="201.5,-85.5 201.5,-110.5 311.5,-110.5 311.5,-85.5 201.5,-85.5"/>
<text text-anchor="start" x="235" y="-94.3" font-family="Times,serif" font-size="14.00" fill="#000000">Enum</text>
</g>
<!-- Regulation&#45;&gt;Compartment -->
<g id="edge7" class="edge">
<title>Regulation:2&#45;&gt;Compartment:2</title>
<path fill="none" stroke="#000000" d="M311,-122.5C357.4547,-122.5 307.3026,-31.5657 338.6625,-17.3572"/>
<polygon fill="#000000" stroke="#000000" points="339.3229,-20.7944 348.5,-15.5 338.0243,-13.9159 339.3229,-20.7944"/>
<text text-anchor="middle" x="342" y="-4.3" font-family="Times,serif" font-size="14.00" fill="#000000">N</text>
<text text-anchor="middle" x="316" y="-111.3" font-family="Times,serif" font-size="14.00" fill="#000000">1</text>
</g>
<!-- Regulation&#45;&gt;Metabolite -->
<g id="edge6" class="edge">
<title>Regulation:1&#45;&gt;Metabolite:3</title>
<path fill="none" stroke="#000000" d="M311,-147.5C323.6302,-147.5 329.0819,-147.5 338.235,-147.5"/>
<polygon fill="#000000" stroke="#000000" points="338.5,-151.0001 348.5,-147.5 338.5,-144.0001 338.5,-151.0001"/>
<text text-anchor="middle" x="342" y="-136.3" font-family="Times,serif" font-size="14.00" fill="#000000">N</text>
<text text-anchor="middle" x="316" y="-136.3" font-family="Times,serif" font-size="14.00" fill="#000000">1</text>
</g>
<!-- Regulation&#45;&gt;Reaction -->
<g id="edge5" class="edge">
<title>Regulation:0&#45;&gt;Reaction:23</title>
<path fill="none" stroke="#000000" d="M311,-173.5C367.0268,-173.5 297.9481,-286.8076 337.3593,-301.8563"/>
<polygon fill="#000000" stroke="#000000" points="337.0688,-305.3548 347.5,-303.5 338.1889,-298.445 337.0688,-305.3548"/>
<text text-anchor="middle" x="341" y="-292.3" font-family="Times,serif" font-size="14.00" fill="#000000">N</text>
<text text-anchor="middle" x="316" y="-162.3" font-family="Times,serif" font-size="14.00" fill="#000000">1</text>
</g>
</g>
</svg>
