<?xml version="1.0" encoding="UTF-8" standalone="no"?>
<!DOCTYPE svg PUBLIC "-//W3C//DTD SVG 1.1//EN"
 "http://www.w3.org/Graphics/SVG/1.1/DTD/svg11.dtd">
<!-- Generated by graphviz version 2.40.1 (20161225.0304)
 -->
<!-- Title: %3 Pages: 1 -->
<svg width="792pt" height="934pt"
 viewBox="0.00 0.00 792.00 933.50" xmlns="http://www.w3.org/2000/svg" xmlns:xlink="http://www.w3.org/1999/xlink">
<g id="graph0" class="graph" transform="scale(1 1) rotate(0) translate(4 929.5)">
<title>%3</title>
<polygon fill="#ffffff" stroke="transparent" points="-4,4 -4,-929.5 788,-929.5 788,4 -4,4"/>
<!-- Compartment -->
<g id="node1" class="node">
<title>Compartment</title>
<polygon fill="#ff8a5b" stroke="transparent" points="278,-78.5 278,-108.5 512,-108.5 512,-78.5 278,-78.5"/>
<polygon fill="none" stroke="#000000" points="278,-78.5 278,-108.5 512,-108.5 512,-78.5 278,-78.5"/>
<text text-anchor="start" x="340.5" y="-90.1" font-family="Times,serif" font-weight="bold" font-size="18.00" fill="#000000">Compartment</text>
<polygon fill="#bfffff" stroke="transparent" points="278,-53.5 278,-78.5 403,-78.5 403,-53.5 278,-53.5"/>
<polygon fill="none" stroke="#000000" points="278,-53.5 278,-78.5 403,-78.5 403,-53.5 278,-53.5"/>
<text text-anchor="start" x="334.5" y="-63.3" font-family="Times,serif" font-weight="bold" font-size="14.00" fill="#000000">id</text>
<polygon fill="#bfffff" stroke="transparent" points="403,-53.5 403,-78.5 512,-78.5 512,-53.5 403,-53.5"/>
<polygon fill="none" stroke="#000000" points="403,-53.5 403,-78.5 512,-78.5 512,-53.5 403,-53.5"/>
<text text-anchor="start" x="440.5" y="-62.3" font-family="Times,serif" font-size="14.00" fill="#000000">String</text>
<polygon fill="#ebffff" stroke="transparent" points="278,-28.5 278,-53.5 403,-53.5 403,-28.5 278,-28.5"/>
<polygon fill="none" stroke="#000000" points="278,-28.5 278,-53.5 403,-53.5 403,-28.5 278,-28.5"/>
<text text-anchor="start" x="324" y="-38.3" font-family="Times,serif" font-weight="bold" font-size="14.00" fill="#000000">name</text>
<polygon fill="#ebffff" stroke="transparent" points="403,-28.5 403,-53.5 512,-53.5 512,-28.5 403,-28.5"/>
<polygon fill="none" stroke="#000000" points="403,-28.5 403,-53.5 512,-53.5 512,-28.5 403,-28.5"/>
<text text-anchor="start" x="440.5" y="-37.3" font-family="Times,serif" font-size="14.00" fill="#000000">String</text>
<polygon fill="#bfffff" stroke="transparent" points="278,-3.5 278,-28.5 403,-28.5 403,-3.5 278,-3.5"/>
<polygon fill="none" stroke="#000000" points="278,-3.5 278,-28.5 403,-28.5 403,-3.5 278,-3.5"/>
<text text-anchor="start" x="283" y="-13.3" font-family="Times,serif" font-weight="bold" font-size="14.00" fill="#000000">regulated_reactions</text>
<polygon fill="#bfffff" stroke="transparent" points="403,-3.5 403,-28.5 512,-28.5 512,-3.5 403,-3.5"/>
<polygon fill="none" stroke="#000000" points="403,-3.5 403,-28.5 512,-28.5 512,-3.5 403,-3.5"/>
<text text-anchor="start" x="408" y="-13.3" font-family="Times,serif" font-style="italic" font-size="14.00" fill="#000000">list of </text>
<text text-anchor="start" x="443" y="-13.3" font-family="Times,serif" font-size="14.00" fill="#000000"> Regulation</text>
</g>
<!-- Kinetics -->
<g id="node2" class="node">
<title>Kinetics</title>
<polygon fill="#ff8a5b" stroke="transparent" points="553.5,-703.5 553.5,-733.5 784.5,-733.5 784.5,-703.5 553.5,-703.5"/>
<polygon fill="none" stroke="#000000" points="553.5,-703.5 553.5,-733.5 784.5,-733.5 784.5,-703.5 553.5,-703.5"/>
<text text-anchor="start" x="637" y="-715.1" font-family="Times,serif" font-weight="bold" font-size="18.00" fill="#000000">Kinetics</text>
<polygon fill="#bfffff" stroke="transparent" points="553.5,-678.5 553.5,-703.5 687.5,-703.5 687.5,-678.5 553.5,-678.5"/>
<polygon fill="none" stroke="#000000" points="553.5,-678.5 553.5,-703.5 687.5,-703.5 687.5,-678.5 553.5,-678.5"/>
<text text-anchor="start" x="605" y="-688.3" font-family="Times,serif" font-weight="bold" font-size="14.00" fill="#000000">value</text>
<polygon fill="#bfffff" stroke="transparent" points="687.5,-678.5 687.5,-703.5 784.5,-703.5 784.5,-678.5 687.5,-678.5"/>
<polygon fill="none" stroke="#000000" points="687.5,-678.5 687.5,-703.5 784.5,-703.5 784.5,-678.5 687.5,-678.5"/>
<text text-anchor="start" x="718.5" y="-687.3" font-family="Times,serif" font-size="14.00" fill="#000000">Range</text>
<polygon fill="#ebffff" stroke="transparent" points="553.5,-653.5 553.5,-678.5 687.5,-678.5 687.5,-653.5 553.5,-653.5"/>
<polygon fill="none" stroke="#000000" points="553.5,-653.5 553.5,-678.5 687.5,-678.5 687.5,-653.5 553.5,-653.5"/>
<text text-anchor="start" x="594.5" y="-663.3" font-family="Times,serif" font-weight="bold" font-size="14.00" fill="#000000">molecule</text>
<polygon fill="#ebffff" stroke="transparent" points="687.5,-653.5 687.5,-678.5 784.5,-678.5 784.5,-653.5 687.5,-653.5"/>
<polygon fill="none" stroke="#000000" points="687.5,-653.5 687.5,-678.5 784.5,-678.5 784.5,-653.5 687.5,-653.5"/>
<text text-anchor="start" x="719" y="-662.3" font-family="Times,serif" font-size="14.00" fill="#000000">String</text>
<polygon fill="#bfffff" stroke="transparent" points="553.5,-628.5 553.5,-653.5 687.5,-653.5 687.5,-628.5 553.5,-628.5"/>
<polygon fill="none" stroke="#000000" points="553.5,-628.5 553.5,-653.5 687.5,-653.5 687.5,-628.5 553.5,-628.5"/>
<text text-anchor="start" x="593" y="-638.3" font-family="Times,serif" font-weight="bold" font-size="14.00" fill="#000000">organism</text>
<polygon fill="#bfffff" stroke="transparent" points="687.5,-628.5 687.5,-653.5 784.5,-653.5 784.5,-628.5 687.5,-628.5"/>
<polygon fill="none" stroke="#000000" points="687.5,-628.5 687.5,-653.5 784.5,-653.5 784.5,-628.5 687.5,-628.5"/>
<text text-anchor="start" x="719" y="-637.3" font-family="Times,serif" font-size="14.00" fill="#000000">String</text>
<polygon fill="#ebffff" stroke="transparent" points="553.5,-603.5 553.5,-628.5 687.5,-628.5 687.5,-603.5 553.5,-603.5"/>
<polygon fill="none" stroke="#000000" points="553.5,-603.5 553.5,-628.5 687.5,-628.5 687.5,-603.5 553.5,-603.5"/>
<text text-anchor="start" x="587" y="-613.3" font-family="Times,serif" font-weight="bold" font-size="14.00" fill="#000000">uniprot_ids</text>
<polygon fill="#ebffff" stroke="transparent" points="687.5,-603.5 687.5,-628.5 784.5,-628.5 784.5,-603.5 687.5,-603.5"/>
<polygon fill="none" stroke="#000000" points="687.5,-603.5 687.5,-628.5 784.5,-628.5 784.5,-603.5 687.5,-603.5"/>
<text text-anchor="start" x="725" y="-612.3" font-family="Times,serif" font-size="14.00" fill="#000000">List</text>
<polygon fill="#bfffff" stroke="transparent" points="553.5,-578.5 553.5,-603.5 687.5,-603.5 687.5,-578.5 553.5,-578.5"/>
<polygon fill="none" stroke="#000000" points="553.5,-578.5 553.5,-603.5 687.5,-603.5 687.5,-578.5 553.5,-578.5"/>
<text text-anchor="start" x="590" y="-588.3" font-family="Times,serif" font-weight="bold" font-size="14.00" fill="#000000">comments</text>
<polygon fill="#bfffff" stroke="transparent" points="687.5,-578.5 687.5,-603.5 784.5,-603.5 784.5,-578.5 687.5,-578.5"/>
<polygon fill="none" stroke="#000000" points="687.5,-578.5 687.5,-603.5 784.5,-603.5 784.5,-578.5 687.5,-578.5"/>
<text text-anchor="start" x="705" y="-587.3" font-family="Times,serif" font-size="14.00" fill="#000000">LongString</text>
<polygon fill="#ebffff" stroke="transparent" points="553.5,-553.5 553.5,-578.5 687.5,-578.5 687.5,-553.5 553.5,-553.5"/>
<polygon fill="none" stroke="#000000" points="553.5,-553.5 553.5,-578.5 687.5,-578.5 687.5,-553.5 553.5,-553.5"/>
<text text-anchor="start" x="584.5" y="-563.3" font-family="Times,serif" font-weight="bold" font-size="14.00" fill="#000000">pubmed_ids</text>
<polygon fill="#ebffff" stroke="transparent" points="687.5,-553.5 687.5,-578.5 784.5,-578.5 784.5,-553.5 687.5,-553.5"/>
<polygon fill="none" stroke="#000000" points="687.5,-553.5 687.5,-578.5 784.5,-578.5 784.5,-553.5 687.5,-553.5"/>
<text text-anchor="start" x="725" y="-562.3" font-family="Times,serif" font-size="14.00" fill="#000000">List</text>
<polygon fill="#bfffff" stroke="transparent" points="553.5,-528.5 553.5,-553.5 687.5,-553.5 687.5,-528.5 553.5,-528.5"/>
<polygon fill="none" stroke="#000000" points="553.5,-528.5 553.5,-553.5 687.5,-553.5 687.5,-528.5 553.5,-528.5"/>
<text text-anchor="start" x="602.5" y="-538.3" font-family="Times,serif" font-weight="bold" font-size="14.00" fill="#000000">image</text>
<polygon fill="#bfffff" stroke="transparent" points="687.5,-528.5 687.5,-553.5 784.5,-553.5 784.5,-528.5 687.5,-528.5"/>
<polygon fill="none" stroke="#000000" points="687.5,-528.5 687.5,-553.5 784.5,-553.5 784.5,-528.5 687.5,-528.5"/>
<text text-anchor="start" x="719" y="-537.3" font-family="Times,serif" font-size="14.00" fill="#000000">Enum</text>
<polygon fill="#ebffff" stroke="transparent" points="553.5,-503.5 553.5,-528.5 687.5,-528.5 687.5,-503.5 553.5,-503.5"/>
<polygon fill="none" stroke="#000000" points="553.5,-503.5 553.5,-528.5 687.5,-528.5 687.5,-503.5 553.5,-503.5"/>
<text text-anchor="start" x="558.5" y="-513.3" font-family="Times,serif" font-weight="bold" font-size="14.00" fill="#000000">k_cat_k_m_reactions</text>
<polygon fill="#ebffff" stroke="transparent" points="687.5,-503.5 687.5,-528.5 784.5,-528.5 784.5,-503.5 687.5,-503.5"/>
<polygon fill="none" stroke="#000000" points="687.5,-503.5 687.5,-528.5 784.5,-528.5 784.5,-503.5 687.5,-503.5"/>
<text text-anchor="start" x="692.5" y="-513.3" font-family="Times,serif" font-style="italic" font-size="14.00" fill="#000000">list of </text>
<text text-anchor="start" x="727.5" y="-513.3" font-family="Times,serif" font-size="14.00" fill="#000000"> Reaction</text>
<polygon fill="#bfffff" stroke="transparent" points="553.5,-478.5 553.5,-503.5 687.5,-503.5 687.5,-478.5 553.5,-478.5"/>
<polygon fill="none" stroke="#000000" points="553.5,-478.5 553.5,-503.5 687.5,-503.5 687.5,-478.5 553.5,-478.5"/>
<text text-anchor="start" x="575" y="-488.3" font-family="Times,serif" font-weight="bold" font-size="14.00" fill="#000000">k_cat_reactions</text>
<polygon fill="#bfffff" stroke="transparent" points="687.5,-478.5 687.5,-503.5 784.5,-503.5 784.5,-478.5 687.5,-478.5"/>
<polygon fill="none" stroke="#000000" points="687.5,-478.5 687.5,-503.5 784.5,-503.5 784.5,-478.5 687.5,-478.5"/>
<text text-anchor="start" x="692.5" y="-488.3" font-family="Times,serif" font-style="italic" font-size="14.00" fill="#000000">list of </text>
<text text-anchor="start" x="727.5" y="-488.3" font-family="Times,serif" font-size="14.00" fill="#000000"> Reaction</text>
<polygon fill="#ebffff" stroke="transparent" points="553.5,-453.5 553.5,-478.5 687.5,-478.5 687.5,-453.5 553.5,-453.5"/>
<polygon fill="none" stroke="#000000" points="553.5,-453.5 553.5,-478.5 687.5,-478.5 687.5,-453.5 553.5,-453.5"/>
<text text-anchor="start" x="581.5" y="-463.3" font-family="Times,serif" font-weight="bold" font-size="14.00" fill="#000000">k_i_reactions</text>
<polygon fill="#ebffff" stroke="transparent" points="687.5,-453.5 687.5,-478.5 784.5,-478.5 784.5,-453.5 687.5,-453.5"/>
<polygon fill="none" stroke="#000000" points="687.5,-453.5 687.5,-478.5 784.5,-478.5 784.5,-453.5 687.5,-453.5"/>
<text text-anchor="start" x="692.5" y="-463.3" font-family="Times,serif" font-style="italic" font-size="14.00" fill="#000000">list of </text>
<text text-anchor="start" x="727.5" y="-463.3" font-family="Times,serif" font-size="14.00" fill="#000000"> Reaction</text>
<polygon fill="#bfffff" stroke="transparent" points="553.5,-428.5 553.5,-453.5 687.5,-453.5 687.5,-428.5 553.5,-428.5"/>
<polygon fill="none" stroke="#000000" points="553.5,-428.5 553.5,-453.5 687.5,-453.5 687.5,-428.5 553.5,-428.5"/>
<text text-anchor="start" x="577.5" y="-438.3" font-family="Times,serif" font-weight="bold" font-size="14.00" fill="#000000">k_m_reactions</text>
<polygon fill="#bfffff" stroke="transparent" points="687.5,-428.5 687.5,-453.5 784.5,-453.5 784.5,-428.5 687.5,-428.5"/>
<polygon fill="none" stroke="#000000" points="687.5,-428.5 687.5,-453.5 784.5,-453.5 784.5,-428.5 687.5,-428.5"/>
<text text-anchor="start" x="692.5" y="-438.3" font-family="Times,serif" font-style="italic" font-size="14.00" fill="#000000">list of </text>
<text text-anchor="start" x="727.5" y="-438.3" font-family="Times,serif" font-size="14.00" fill="#000000"> Reaction</text>
</g>
<!-- Metabolite -->
<g id="node3" class="node">
<title>Metabolite</title>
<polygon fill="#ff8a5b" stroke="transparent" points="278,-235.5 278,-265.5 513,-265.5 513,-235.5 278,-235.5"/>
<polygon fill="none" stroke="#000000" points="278,-235.5 278,-265.5 513,-265.5 513,-235.5 278,-235.5"/>
<text text-anchor="start" x="353" y="-247.1" font-family="Times,serif" font-weight="bold" font-size="18.00" fill="#000000">Metabolite</text>
<polygon fill="#bfffff" stroke="transparent" points="278,-210.5 278,-235.5 403,-235.5 403,-210.5 278,-210.5"/>
<polygon fill="none" stroke="#000000" points="278,-210.5 278,-235.5 403,-235.5 403,-210.5 278,-210.5"/>
<text text-anchor="start" x="334.5" y="-220.3" font-family="Times,serif" font-weight="bold" font-size="14.00" fill="#000000">id</text>
<polygon fill="#bfffff" stroke="transparent" points="403,-210.5 403,-235.5 513,-235.5 513,-210.5 403,-210.5"/>
<polygon fill="none" stroke="#000000" points="403,-210.5 403,-235.5 513,-235.5 513,-210.5 403,-210.5"/>
<text text-anchor="start" x="441" y="-219.3" font-family="Times,serif" font-size="14.00" fill="#000000">String</text>
<polygon fill="#ebffff" stroke="transparent" points="278,-185.5 278,-210.5 403,-210.5 403,-185.5 278,-185.5"/>
<polygon fill="none" stroke="#000000" points="278,-185.5 278,-210.5 403,-210.5 403,-185.5 278,-185.5"/>
<text text-anchor="start" x="324" y="-195.3" font-family="Times,serif" font-weight="bold" font-size="14.00" fill="#000000">name</text>
<polygon fill="#ebffff" stroke="transparent" points="403,-185.5 403,-210.5 513,-210.5 513,-185.5 403,-185.5"/>
<polygon fill="none" stroke="#000000" points="403,-185.5 403,-210.5 513,-210.5 513,-185.5 403,-185.5"/>
<text text-anchor="start" x="441" y="-194.3" font-family="Times,serif" font-size="14.00" fill="#000000">String</text>
<polygon fill="#bfffff" stroke="transparent" points="278,-160.5 278,-185.5 403,-185.5 403,-160.5 278,-160.5"/>
<polygon fill="none" stroke="#000000" points="278,-160.5 278,-185.5 403,-185.5 403,-160.5 278,-160.5"/>
<text text-anchor="start" x="316.5" y="-170.3" font-family="Times,serif" font-weight="bold" font-size="14.00" fill="#000000">formula</text>
<polygon fill="#bfffff" stroke="transparent" points="403,-160.5 403,-185.5 513,-185.5 513,-160.5 403,-160.5"/>
<polygon fill="none" stroke="#000000" points="403,-160.5 403,-185.5 513,-185.5 513,-160.5 403,-160.5"/>
<text text-anchor="start" x="408" y="-169.3" font-family="Times,serif" font-size="14.00" fill="#000000">ChemicalFormula</text>
<polygon fill="#ebffff" stroke="transparent" points="278,-135.5 278,-160.5 403,-160.5 403,-135.5 278,-135.5"/>
<polygon fill="none" stroke="#000000" points="278,-135.5 278,-160.5 403,-160.5 403,-135.5 278,-135.5"/>
<text text-anchor="start" x="283" y="-145.3" font-family="Times,serif" font-weight="bold" font-size="14.00" fill="#000000">regulated_reactions</text>
<polygon fill="#ebffff" stroke="transparent" points="403,-135.5 403,-160.5 513,-160.5 513,-135.5 403,-135.5"/>
<polygon fill="none" stroke="#000000" points="403,-135.5 403,-160.5 513,-160.5 513,-135.5 403,-135.5"/>
<text text-anchor="start" x="408.5" y="-145.3" font-family="Times,serif" font-style="italic" font-size="14.00" fill="#000000">list of </text>
<text text-anchor="start" x="443.5" y="-145.3" font-family="Times,serif" font-size="14.00" fill="#000000"> Regulation</text>
</g>
<!-- Reaction -->
<g id="node4" class="node">
<title>Reaction</title>
<polygon fill="#ff8a5b" stroke="transparent" points="273,-891.5 273,-921.5 517,-921.5 517,-891.5 273,-891.5"/>
<polygon fill="none" stroke="#000000" points="273,-891.5 273,-921.5 517,-921.5 517,-891.5 273,-891.5"/>
<text text-anchor="start" x="360.5" y="-903.1" font-family="Times,serif" font-weight="bold" font-size="18.00" fill="#000000">Reaction</text>
<polygon fill="#bfffff" stroke="transparent" points="273,-866.5 273,-891.5 408,-891.5 408,-866.5 273,-866.5"/>
<polygon fill="none" stroke="#000000" points="273,-866.5 273,-891.5 408,-891.5 408,-866.5 273,-866.5"/>
<text text-anchor="start" x="334.5" y="-876.3" font-family="Times,serif" font-weight="bold" font-size="14.00" fill="#000000">id</text>
<polygon fill="#bfffff" stroke="transparent" points="408,-866.5 408,-891.5 517,-891.5 517,-866.5 408,-866.5"/>
<polygon fill="none" stroke="#000000" points="408,-866.5 408,-891.5 517,-891.5 517,-866.5 408,-866.5"/>
<text text-anchor="start" x="445.5" y="-875.3" font-family="Times,serif" font-size="14.00" fill="#000000">String</text>
<polygon fill="#ebffff" stroke="transparent" points="273,-841.5 273,-866.5 408,-866.5 408,-841.5 273,-841.5"/>
<polygon fill="none" stroke="#000000" points="273,-841.5 273,-866.5 408,-866.5 408,-841.5 273,-841.5"/>
<text text-anchor="start" x="303.5" y="-851.3" font-family="Times,serif" font-weight="bold" font-size="14.00" fill="#000000">id_i_a_f1260</text>
<polygon fill="#ebffff" stroke="transparent" points="408,-841.5 408,-866.5 517,-866.5 517,-841.5 408,-841.5"/>
<polygon fill="none" stroke="#000000" points="408,-841.5 408,-866.5 517,-866.5 517,-841.5 408,-841.5"/>
<text text-anchor="start" x="445.5" y="-850.3" font-family="Times,serif" font-size="14.00" fill="#000000">String</text>
<polygon fill="#bfffff" stroke="transparent" points="273,-816.5 273,-841.5 408,-841.5 408,-816.5 273,-816.5"/>
<polygon fill="none" stroke="#000000" points="273,-816.5 273,-841.5 408,-841.5 408,-816.5 273,-816.5"/>
<text text-anchor="start" x="324" y="-826.3" font-family="Times,serif" font-weight="bold" font-size="14.00" fill="#000000">name</text>
<polygon fill="#bfffff" stroke="transparent" points="408,-816.5 408,-841.5 517,-841.5 517,-816.5 408,-816.5"/>
<polygon fill="none" stroke="#000000" points="408,-816.5 408,-841.5 517,-841.5 517,-816.5 408,-816.5"/>
<text text-anchor="start" x="445.5" y="-825.3" font-family="Times,serif" font-size="14.00" fill="#000000">String</text>
<polygon fill="#ebffff" stroke="transparent" points="273,-791.5 273,-816.5 408,-816.5 408,-791.5 273,-791.5"/>
<polygon fill="none" stroke="#000000" points="273,-791.5 273,-816.5 408,-816.5 408,-791.5 273,-791.5"/>
<text text-anchor="start" x="315" y="-801.3" font-family="Times,serif" font-weight="bold" font-size="14.00" fill="#000000">equation</text>
<polygon fill="#ebffff" stroke="transparent" points="408,-791.5 408,-816.5 517,-816.5 517,-791.5 408,-791.5"/>
<polygon fill="none" stroke="#000000" points="408,-791.5 408,-816.5 517,-816.5 517,-791.5 408,-791.5"/>
<text text-anchor="start" x="414" y="-800.3" font-family="Times,serif" font-size="14.00" fill="#000000">ReactionEquation</text>
<polygon fill="#bfffff" stroke="transparent" points="273,-766.5 273,-791.5 408,-791.5 408,-766.5 273,-766.5"/>
<polygon fill="none" stroke="#000000" points="273,-766.5 273,-791.5 408,-791.5 408,-766.5 273,-766.5"/>
<text text-anchor="start" x="311.5" y="-776.3" font-family="Times,serif" font-weight="bold" font-size="14.00" fill="#000000">reversible</text>
<polygon fill="#bfffff" stroke="transparent" points="408,-766.5 408,-791.5 517,-791.5 517,-766.5 408,-766.5"/>
<polygon fill="none" stroke="#000000" points="408,-766.5 408,-791.5 517,-791.5 517,-766.5 408,-766.5"/>
<text text-anchor="start" x="439.5" y="-775.3" font-family="Times,serif" font-size="14.00" fill="#000000">Boolean</text>
<polygon fill="#ebffff" stroke="transparent" points="273,-741.5 273,-766.5 408,-766.5 408,-741.5 273,-741.5"/>
<polygon fill="none" stroke="#000000" points="273,-741.5 273,-766.5 408,-766.5 408,-741.5 273,-741.5"/>
<text text-anchor="start" x="310" y="-751.3" font-family="Times,serif" font-weight="bold" font-size="14.00" fill="#000000">subsystem</text>
<polygon fill="#ebffff" stroke="transparent" points="408,-741.5 408,-766.5 517,-766.5 517,-741.5 408,-741.5"/>
<polygon fill="none" stroke="#000000" points="408,-741.5 408,-766.5 517,-766.5 517,-741.5 408,-741.5"/>
<text text-anchor="start" x="445.5" y="-750.3" font-family="Times,serif" font-size="14.00" fill="#000000">String</text>
<polygon fill="#bfffff" stroke="transparent" points="273,-716.5 273,-741.5 408,-741.5 408,-716.5 273,-716.5"/>
<polygon fill="none" stroke="#000000" points="273,-716.5 273,-741.5 408,-741.5 408,-716.5 273,-716.5"/>
<text text-anchor="start" x="307.5" y="-726.3" font-family="Times,serif" font-weight="bold" font-size="14.00" fill="#000000">ec_number</text>
<polygon fill="#bfffff" stroke="transparent" points="408,-716.5 408,-741.5 517,-741.5 517,-716.5 408,-716.5"/>
<polygon fill="none" stroke="#000000" points="408,-716.5 408,-741.5 517,-741.5 517,-716.5 408,-716.5"/>
<text text-anchor="start" x="445" y="-725.3" font-family="Times,serif" font-size="14.00" fill="#000000">Regex</text>
<polygon fill="#ebffff" stroke="transparent" points="273,-691.5 273,-716.5 408,-716.5 408,-691.5 273,-691.5"/>
<polygon fill="none" stroke="#000000" points="273,-691.5 273,-716.5 408,-716.5 408,-691.5 273,-691.5"/>
<text text-anchor="start" x="312" y="-701.3" font-family="Times,serif" font-weight="bold" font-size="14.00" fill="#000000">gene_rule</text>
<polygon fill="#ebffff" stroke="transparent" points="408,-691.5 408,-716.5 517,-716.5 517,-691.5 408,-691.5"/>
<polygon fill="none" stroke="#000000" points="408,-691.5 408,-716.5 517,-716.5 517,-691.5 408,-691.5"/>
<text text-anchor="start" x="445.5" y="-700.3" font-family="Times,serif" font-size="14.00" fill="#000000">String</text>
<polygon fill="#bfffff" stroke="transparent" points="273,-666.5 273,-691.5 408,-691.5 408,-666.5 273,-666.5"/>
<polygon fill="none" stroke="#000000" points="273,-666.5 273,-691.5 408,-691.5 408,-666.5 273,-666.5"/>
<text text-anchor="start" x="311.5" y="-676.3" font-family="Times,serif" font-weight="bold" font-size="14.00" fill="#000000">obs_k_ms</text>
<polygon fill="#bfffff" stroke="transparent" points="408,-666.5 408,-691.5 517,-691.5 517,-666.5 408,-666.5"/>
<polygon fill="none" stroke="#000000" points="408,-666.5 408,-691.5 517,-691.5 517,-666.5 408,-666.5"/>
<text text-anchor="start" x="420.5" y="-676.3" font-family="Times,serif" font-style="italic" font-size="14.00" fill="#000000">list of </text>
<text text-anchor="start" x="455.5" y="-676.3" font-family="Times,serif" font-size="14.00" fill="#000000"> Kinetics</text>
<polygon fill="#ebffff" stroke="transparent" points="273,-641.5 273,-666.5 408,-666.5 408,-641.5 273,-641.5"/>
<polygon fill="none" stroke="#000000" points="273,-641.5 273,-666.5 408,-666.5 408,-641.5 273,-641.5"/>
<text text-anchor="start" x="291.5" y="-651.3" font-family="Times,serif" font-weight="bold" font-size="14.00" fill="#000000">obs_range_k_ms</text>
<polygon fill="#ebffff" stroke="transparent" points="408,-641.5 408,-666.5 517,-666.5 517,-641.5 408,-641.5"/>
<polygon fill="none" stroke="#000000" points="408,-641.5 408,-666.5 517,-666.5 517,-641.5 408,-641.5"/>
<text text-anchor="start" x="431.5" y="-650.3" font-family="Times,serif" font-size="14.00" fill="#000000">LongString</text>
<polygon fill="#bfffff" stroke="transparent" points="273,-616.5 273,-641.5 408,-641.5 408,-616.5 273,-616.5"/>
<polygon fill="none" stroke="#000000" points="273,-616.5 273,-641.5 408,-641.5 408,-616.5 273,-616.5"/>
<text text-anchor="start" x="293.5" y="-626.3" font-family="Times,serif" font-weight="bold" font-size="14.00" fill="#000000">est_range_k_ms</text>
<polygon fill="#bfffff" stroke="transparent" points="408,-616.5 408,-641.5 517,-641.5 517,-616.5 408,-616.5"/>
<polygon fill="none" stroke="#000000" points="408,-616.5 408,-641.5 517,-641.5 517,-616.5 408,-616.5"/>
<text text-anchor="start" x="431.5" y="-625.3" font-family="Times,serif" font-size="14.00" fill="#000000">LongString</text>
<polygon fill="#ebffff" stroke="transparent" points="273,-591.5 273,-616.5 408,-616.5 408,-591.5 273,-591.5"/>
<polygon fill="none" stroke="#000000" points="273,-591.5 273,-616.5 408,-616.5 408,-591.5 273,-591.5"/>
<text text-anchor="start" x="308.5" y="-601.3" font-family="Times,serif" font-weight="bold" font-size="14.00" fill="#000000">obs_k_cats</text>
<polygon fill="#ebffff" stroke="transparent" points="408,-591.5 408,-616.5 517,-616.5 517,-591.5 408,-591.5"/>
<polygon fill="none" stroke="#000000" points="408,-591.5 408,-616.5 517,-616.5 517,-591.5 408,-591.5"/>
<text text-anchor="start" x="420.5" y="-601.3" font-family="Times,serif" font-style="italic" font-size="14.00" fill="#000000">list of </text>
<text text-anchor="start" x="455.5" y="-601.3" font-family="Times,serif" font-size="14.00" fill="#000000"> Kinetics</text>
<polygon fill="#bfffff" stroke="transparent" points="273,-566.5 273,-591.5 408,-591.5 408,-566.5 273,-566.5"/>
<polygon fill="none" stroke="#000000" points="273,-566.5 273,-591.5 408,-591.5 408,-566.5 273,-566.5"/>
<text text-anchor="start" x="284.5" y="-576.3" font-family="Times,serif" font-weight="bold" font-size="14.00" fill="#000000">min_obs_for_k_cat</text>
<polygon fill="#bfffff" stroke="transparent" points="408,-566.5 408,-591.5 517,-591.5 517,-566.5 408,-566.5"/>
<polygon fill="none" stroke="#000000" points="408,-566.5 408,-591.5 517,-591.5 517,-566.5 408,-566.5"/>
<text text-anchor="start" x="448.5" y="-575.3" font-family="Times,serif" font-size="14.00" fill="#000000">Float</text>
<polygon fill="#ebffff" stroke="transparent" points="273,-541.5 273,-566.5 408,-566.5 408,-541.5 273,-541.5"/>
<polygon fill="none" stroke="#000000" points="273,-541.5 273,-566.5 408,-566.5 408,-541.5 273,-541.5"/>
<text text-anchor="start" x="283" y="-551.3" font-family="Times,serif" font-weight="bold" font-size="14.00" fill="#000000">max_obs_for_k_cat</text>
<polygon fill="#ebffff" stroke="transparent" points="408,-541.5 408,-566.5 517,-566.5 517,-541.5 408,-541.5"/>
<polygon fill="none" stroke="#000000" points="408,-541.5 408,-566.5 517,-566.5 517,-541.5 408,-541.5"/>
<text text-anchor="start" x="448.5" y="-550.3" font-family="Times,serif" font-size="14.00" fill="#000000">Float</text>
<polygon fill="#bfffff" stroke="transparent" points="273,-516.5 273,-541.5 408,-541.5 408,-516.5 273,-516.5"/>
<polygon fill="none" stroke="#000000" points="273,-516.5 273,-541.5 408,-541.5 408,-516.5 273,-516.5"/>
<text text-anchor="start" x="279" y="-526.3" font-family="Times,serif" font-weight="bold" font-size="14.00" fill="#000000">min_obs_back_k_cat</text>
<polygon fill="#bfffff" stroke="transparent" points="408,-516.5 408,-541.5 517,-541.5 517,-516.5 408,-516.5"/>
<polygon fill="none" stroke="#000000" points="408,-516.5 408,-541.5 517,-541.5 517,-516.5 408,-516.5"/>
<text text-anchor="start" x="448.5" y="-525.3" font-family="Times,serif" font-size="14.00" fill="#000000">Float</text>
<polygon fill="#ebffff" stroke="transparent" points="273,-491.5 273,-516.5 408,-516.5 408,-491.5 273,-491.5"/>
<polygon fill="none" stroke="#000000" points="273,-491.5 273,-516.5 408,-516.5 408,-491.5 273,-491.5"/>
<text text-anchor="start" x="278" y="-501.3" font-family="Times,serif" font-weight="bold" font-size="14.00" fill="#000000">max_obs_back_k_cat</text>
<polygon fill="#ebffff" stroke="transparent" points="408,-491.5 408,-516.5 517,-516.5 517,-491.5 408,-491.5"/>
<polygon fill="none" stroke="#000000" points="408,-491.5 408,-516.5 517,-516.5 517,-491.5 408,-491.5"/>
<text text-anchor="start" x="448.5" y="-500.3" font-family="Times,serif" font-size="14.00" fill="#000000">Float</text>
<polygon fill="#bfffff" stroke="transparent" points="273,-466.5 273,-491.5 408,-491.5 408,-466.5 273,-466.5"/>
<polygon fill="none" stroke="#000000" points="273,-466.5 273,-491.5 408,-491.5 408,-466.5 273,-466.5"/>
<text text-anchor="start" x="286" y="-476.3" font-family="Times,serif" font-weight="bold" font-size="14.00" fill="#000000">min_est_for_k_cat</text>
<polygon fill="#bfffff" stroke="transparent" points="408,-466.5 408,-491.5 517,-491.5 517,-466.5 408,-466.5"/>
<polygon fill="none" stroke="#000000" points="408,-466.5 408,-491.5 517,-491.5 517,-466.5 408,-466.5"/>
<text text-anchor="start" x="448.5" y="-475.3" font-family="Times,serif" font-size="14.00" fill="#000000">Float</text>
<polygon fill="#ebffff" stroke="transparent" points="273,-441.5 273,-466.5 408,-466.5 408,-441.5 273,-441.5"/>
<polygon fill="none" stroke="#000000" points="273,-441.5 273,-466.5 408,-466.5 408,-441.5 273,-441.5"/>
<text text-anchor="start" x="285" y="-451.3" font-family="Times,serif" font-weight="bold" font-size="14.00" fill="#000000">max_est_for_k_cat</text>
<polygon fill="#ebffff" stroke="transparent" points="408,-441.5 408,-466.5 517,-466.5 517,-441.5 408,-441.5"/>
<polygon fill="none" stroke="#000000" points="408,-441.5 408,-466.5 517,-466.5 517,-441.5 408,-441.5"/>
<text text-anchor="start" x="448.5" y="-450.3" font-family="Times,serif" font-size="14.00" fill="#000000">Float</text>
<polygon fill="#bfffff" stroke="transparent" points="273,-416.5 273,-441.5 408,-441.5 408,-416.5 273,-416.5"/>
<polygon fill="none" stroke="#000000" points="273,-416.5 273,-441.5 408,-441.5 408,-416.5 273,-416.5"/>
<text text-anchor="start" x="281" y="-426.3" font-family="Times,serif" font-weight="bold" font-size="14.00" fill="#000000">min_est_back_k_cat</text>
<polygon fill="#bfffff" stroke="transparent" points="408,-416.5 408,-441.5 517,-441.5 517,-416.5 408,-416.5"/>
<polygon fill="none" stroke="#000000" points="408,-416.5 408,-441.5 517,-441.5 517,-416.5 408,-416.5"/>
<text text-anchor="start" x="448.5" y="-425.3" font-family="Times,serif" font-size="14.00" fill="#000000">Float</text>
<polygon fill="#ebffff" stroke="transparent" points="273,-391.5 273,-416.5 408,-416.5 408,-391.5 273,-391.5"/>
<polygon fill="none" stroke="#000000" points="273,-391.5 273,-416.5 408,-416.5 408,-391.5 273,-391.5"/>
<text text-anchor="start" x="280" y="-401.3" font-family="Times,serif" font-weight="bold" font-size="14.00" fill="#000000">max_est_back_k_cat</text>
<polygon fill="#ebffff" stroke="transparent" points="408,-391.5 408,-416.5 517,-416.5 517,-391.5 408,-391.5"/>
<polygon fill="none" stroke="#000000" points="408,-391.5 408,-416.5 517,-416.5 517,-391.5 408,-391.5"/>
<text text-anchor="start" x="448.5" y="-400.3" font-family="Times,serif" font-size="14.00" fill="#000000">Float</text>
<polygon fill="#bfffff" stroke="transparent" points="273,-366.5 273,-391.5 408,-391.5 408,-366.5 273,-366.5"/>
<polygon fill="none" stroke="#000000" points="273,-366.5 273,-391.5 408,-391.5 408,-366.5 273,-366.5"/>
<text text-anchor="start" x="292" y="-376.3" font-family="Times,serif" font-weight="bold" font-size="14.00" fill="#000000">obs_k_cat_k_ms</text>
<polygon fill="#bfffff" stroke="transparent" points="408,-366.5 408,-391.5 517,-391.5 517,-366.5 408,-366.5"/>
<polygon fill="none" stroke="#000000" points="408,-366.5 408,-391.5 517,-391.5 517,-366.5 408,-366.5"/>
<text text-anchor="start" x="420.5" y="-376.3" font-family="Times,serif" font-style="italic" font-size="14.00" fill="#000000">list of </text>
<text text-anchor="start" x="455.5" y="-376.3" font-family="Times,serif" font-size="14.00" fill="#000000"> Kinetics</text>
<polygon fill="#ebffff" stroke="transparent" points="273,-341.5 273,-366.5 408,-366.5 408,-341.5 273,-341.5"/>
<polygon fill="none" stroke="#000000" points="273,-341.5 273,-366.5 408,-366.5 408,-341.5 273,-341.5"/>
<text text-anchor="start" x="315.5" y="-351.3" font-family="Times,serif" font-weight="bold" font-size="14.00" fill="#000000">obs_k_is</text>
<polygon fill="#ebffff" stroke="transparent" points="408,-341.5 408,-366.5 517,-366.5 517,-341.5 408,-341.5"/>
<polygon fill="none" stroke="#000000" points="408,-341.5 408,-366.5 517,-366.5 517,-341.5 408,-341.5"/>
<text text-anchor="start" x="420.5" y="-351.3" font-family="Times,serif" font-style="italic" font-size="14.00" fill="#000000">list of </text>
<text text-anchor="start" x="455.5" y="-351.3" font-family="Times,serif" font-size="14.00" fill="#000000"> Kinetics</text>
<polygon fill="#bfffff" stroke="transparent" points="273,-316.5 273,-341.5 408,-341.5 408,-316.5 273,-316.5"/>
<polygon fill="none" stroke="#000000" points="273,-316.5 273,-341.5 408,-341.5 408,-316.5 273,-316.5"/>
<text text-anchor="start" x="281.5" y="-326.3" font-family="Times,serif" font-weight="bold" font-size="14.00" fill="#000000">coupled_to_biomass</text>
<polygon fill="#bfffff" stroke="transparent" points="408,-316.5 408,-341.5 517,-341.5 517,-316.5 408,-316.5"/>
<polygon fill="none" stroke="#000000" points="408,-316.5 408,-341.5 517,-341.5 517,-316.5 408,-316.5"/>
<text text-anchor="start" x="439.5" y="-325.3" font-family="Times,serif" font-size="14.00" fill="#000000">Boolean</text>
<polygon fill="#ebffff" stroke="transparent" points="273,-291.5 273,-316.5 408,-316.5 408,-291.5 273,-291.5"/>
<polygon fill="none" stroke="#000000" points="273,-291.5 273,-316.5 408,-316.5 408,-291.5 273,-291.5"/>
<text text-anchor="start" x="308" y="-301.3" font-family="Times,serif" font-weight="bold" font-size="14.00" fill="#000000">regulations</text>
<polygon fill="#ebffff" stroke="transparent" points="408,-291.5 408,-316.5 517,-316.5 517,-291.5 408,-291.5"/>
<polygon fill="none" stroke="#000000" points="408,-291.5 408,-316.5 517,-316.5 517,-291.5 408,-291.5"/>
<text text-anchor="start" x="413" y="-301.3" font-family="Times,serif" font-style="italic" font-size="14.00" fill="#000000">list of </text>
<text text-anchor="start" x="448" y="-301.3" font-family="Times,serif" font-size="14.00" fill="#000000"> Regulation</text>
</g>
<!-- Reaction&#45;&gt;Kinetics -->
<g id="edge1" class="edge">
<title>Reaction:8&#45;&gt;Kinetics:10</title>
<path fill="none" stroke="#000000" d="M517,-679.5C620.7811,-679.5 457.9081,-456.5587 543.4608,-441.3185"/>
<polygon fill="#000000" stroke="#000000" points="543.8175,-444.8012 553.5,-440.5 543.2486,-437.8243 543.8175,-444.8012"/>
<text text-anchor="middle" x="548.5" y="-429.3" font-family="Times,serif" font-size="14.00" fill="#000000">N</text>
<text text-anchor="middle" x="522" y="-668.3" font-family="Times,serif" font-size="14.00" fill="#000000">N</text>
</g>
<!-- Reaction&#45;&gt;Kinetics -->
<g id="edge2" class="edge">
<title>Reaction:11&#45;&gt;Kinetics:8</title>
<path fill="none" stroke="#000000" d="M517,-603.5C565.654,-603.5 510.769,-507.4666 543.245,-492.4613"/>
<polygon fill="#000000" stroke="#000000" points="544.3355,-495.8163 553.5,-490.5 543.0205,-488.9409 544.3355,-495.8163"/>
<text text-anchor="middle" x="548.5" y="-479.3" font-family="Times,serif" font-size="14.00" fill="#000000">N</text>
<text text-anchor="middle" x="522" y="-592.3" font-family="Times,serif" font-size="14.00" fill="#000000">N</text>
</g>
<!-- Reaction&#45;&gt;Kinetics -->
<g id="edge3" class="edge">
<title>Reaction:20&#45;&gt;Kinetics:7</title>
<path fill="none" stroke="#000000" d="M517,-378.5C576.0745,-378.5 501.082,-498.9102 543.3982,-513.9614"/>
<polygon fill="#000000" stroke="#000000" points="543.087,-517.4543 553.5,-515.5 544.141,-510.5341 543.087,-517.4543"/>
<text text-anchor="middle" x="548.5" y="-504.3" font-family="Times,serif" font-size="14.00" fill="#000000">N</text>
<text text-anchor="middle" x="522" y="-367.3" font-family="Times,serif" font-size="14.00" fill="#000000">N</text>
</g>
<!-- Reaction&#45;&gt;Kinetics -->
<g id="edge4" class="edge">
<title>Reaction:21&#45;&gt;Kinetics:9</title>
<path fill="none" stroke="#000000" d="M517,-353.5C565.2643,-353.5 511.0673,-448.6836 543.322,-463.556"/>
<polygon fill="#000000" stroke="#000000" points="543.0209,-467.0617 553.5,-465.5 544.3342,-460.186 543.0209,-467.0617"/>
<text text-anchor="middle" x="548.5" y="-454.3" font-family="Times,serif" font-size="14.00" fill="#000000">N</text>
<text text-anchor="middle" x="522" y="-342.3" font-family="Times,serif" font-size="14.00" fill="#000000">N</text>
</g>
<!-- Reference -->
<g id="node5" class="node">
<title>Reference</title>
<polygon fill="#ff8a5b" stroke="transparent" points="34.5,-466.5 34.5,-496.5 203.5,-496.5 203.5,-466.5 34.5,-466.5"/>
<polygon fill="none" stroke="#000000" points="34.5,-466.5 34.5,-496.5 203.5,-496.5 203.5,-466.5 34.5,-466.5"/>
<text text-anchor="start" x="79.5" y="-478.1" font-family="Times,serif" font-weight="bold" font-size="18.00" fill="#000000">Reference</text>
<polygon fill="#bfffff" stroke="transparent" points="34.5,-441.5 34.5,-466.5 111.5,-466.5 111.5,-441.5 34.5,-441.5"/>
<polygon fill="none" stroke="#000000" points="34.5,-441.5 34.5,-466.5 111.5,-466.5 111.5,-441.5 34.5,-441.5"/>
<text text-anchor="start" x="67" y="-451.3" font-family="Times,serif" font-weight="bold" font-size="14.00" fill="#000000">id</text>
<polygon fill="#bfffff" stroke="transparent" points="111.5,-441.5 111.5,-466.5 203.5,-466.5 203.5,-441.5 111.5,-441.5"/>
<polygon fill="none" stroke="#000000" points="111.5,-441.5 111.5,-466.5 203.5,-466.5 203.5,-441.5 111.5,-441.5"/>
<text text-anchor="start" x="140.5" y="-450.3" font-family="Times,serif" font-size="14.00" fill="#000000">String</text>
<polygon fill="#ebffff" stroke="transparent" points="34.5,-416.5 34.5,-441.5 111.5,-441.5 111.5,-416.5 34.5,-416.5"/>
<polygon fill="none" stroke="#000000" points="34.5,-416.5 34.5,-441.5 111.5,-441.5 111.5,-416.5 34.5,-416.5"/>
<text text-anchor="start" x="61.5" y="-426.3" font-family="Times,serif" font-weight="bold" font-size="14.00" fill="#000000">title</text>
<polygon fill="#ebffff" stroke="transparent" points="111.5,-416.5 111.5,-441.5 203.5,-441.5 203.5,-416.5 111.5,-416.5"/>
<polygon fill="none" stroke="#000000" points="111.5,-416.5 111.5,-441.5 203.5,-441.5 203.5,-416.5 111.5,-416.5"/>
<text text-anchor="start" x="126.5" y="-425.3" font-family="Times,serif" font-size="14.00" fill="#000000">LongString</text>
<polygon fill="#bfffff" stroke="transparent" points="34.5,-391.5 34.5,-416.5 111.5,-416.5 111.5,-391.5 34.5,-391.5"/>
<polygon fill="none" stroke="#000000" points="34.5,-391.5 34.5,-416.5 111.5,-416.5 111.5,-391.5 34.5,-391.5"/>
<text text-anchor="start" x="50.5" y="-401.3" font-family="Times,serif" font-weight="bold" font-size="14.00" fill="#000000">authors</text>
<polygon fill="#bfffff" stroke="transparent" points="111.5,-391.5 111.5,-416.5 203.5,-416.5 203.5,-391.5 111.5,-391.5"/>
<polygon fill="none" stroke="#000000" points="111.5,-391.5 111.5,-416.5 203.5,-416.5 203.5,-391.5 111.5,-391.5"/>
<text text-anchor="start" x="126.5" y="-400.3" font-family="Times,serif" font-size="14.00" fill="#000000">LongString</text>
<polygon fill="#ebffff" stroke="transparent" points="34.5,-366.5 34.5,-391.5 111.5,-391.5 111.5,-366.5 34.5,-366.5"/>
<polygon fill="none" stroke="#000000" points="34.5,-366.5 34.5,-391.5 111.5,-391.5 111.5,-366.5 34.5,-366.5"/>
<text text-anchor="start" x="51.5" y="-376.3" font-family="Times,serif" font-weight="bold" font-size="14.00" fill="#000000">journal</text>
<polygon fill="#ebffff" stroke="transparent" points="111.5,-366.5 111.5,-391.5 203.5,-391.5 203.5,-366.5 111.5,-366.5"/>
<polygon fill="none" stroke="#000000" points="111.5,-366.5 111.5,-391.5 203.5,-391.5 203.5,-366.5 111.5,-366.5"/>
<text text-anchor="start" x="140.5" y="-375.3" font-family="Times,serif" font-size="14.00" fill="#000000">String</text>
<polygon fill="#bfffff" stroke="transparent" points="34.5,-341.5 34.5,-366.5 111.5,-366.5 111.5,-341.5 34.5,-341.5"/>
<polygon fill="none" stroke="#000000" points="34.5,-341.5 34.5,-366.5 111.5,-366.5 111.5,-341.5 34.5,-341.5"/>
<text text-anchor="start" x="51.5" y="-351.3" font-family="Times,serif" font-weight="bold" font-size="14.00" fill="#000000">volume</text>
<polygon fill="#bfffff" stroke="transparent" points="111.5,-341.5 111.5,-366.5 203.5,-366.5 203.5,-341.5 111.5,-341.5"/>
<polygon fill="none" stroke="#000000" points="111.5,-341.5 111.5,-366.5 203.5,-366.5 203.5,-341.5 111.5,-341.5"/>
<text text-anchor="start" x="116.5" y="-350.3" font-family="Times,serif" font-size="14.00" fill="#000000">PositiveInteger</text>
<polygon fill="#ebffff" stroke="transparent" points="34.5,-316.5 34.5,-341.5 111.5,-341.5 111.5,-316.5 34.5,-316.5"/>
<polygon fill="none" stroke="#000000" points="34.5,-316.5 34.5,-341.5 111.5,-341.5 111.5,-316.5 34.5,-316.5"/>
<text text-anchor="start" x="59" y="-326.3" font-family="Times,serif" font-weight="bold" font-size="14.00" fill="#000000">issue</text>
<polygon fill="#ebffff" stroke="transparent" points="111.5,-316.5 111.5,-341.5 203.5,-341.5 203.5,-316.5 111.5,-316.5"/>
<polygon fill="none" stroke="#000000" points="111.5,-316.5 111.5,-341.5 203.5,-341.5 203.5,-316.5 111.5,-316.5"/>
<text text-anchor="start" x="116.5" y="-325.3" font-family="Times,serif" font-size="14.00" fill="#000000">PositiveInteger</text>
<polygon fill="#bfffff" stroke="transparent" points="34.5,-291.5 34.5,-316.5 111.5,-316.5 111.5,-291.5 34.5,-291.5"/>
<polygon fill="none" stroke="#000000" points="34.5,-291.5 34.5,-316.5 111.5,-316.5 111.5,-291.5 34.5,-291.5"/>
<text text-anchor="start" x="42.5" y="-301.3" font-family="Times,serif" font-weight="bold" font-size="14.00" fill="#000000">start_page</text>
<polygon fill="#bfffff" stroke="transparent" points="111.5,-291.5 111.5,-316.5 203.5,-316.5 203.5,-291.5 111.5,-291.5"/>
<polygon fill="none" stroke="#000000" points="111.5,-291.5 111.5,-316.5 203.5,-316.5 203.5,-291.5 111.5,-291.5"/>
<text text-anchor="start" x="116.5" y="-300.3" font-family="Times,serif" font-size="14.00" fill="#000000">PositiveInteger</text>
<polygon fill="#ebffff" stroke="transparent" points="34.5,-266.5 34.5,-291.5 111.5,-291.5 111.5,-266.5 34.5,-266.5"/>
<polygon fill="none" stroke="#000000" points="34.5,-266.5 34.5,-291.5 111.5,-291.5 111.5,-266.5 34.5,-266.5"/>
<text text-anchor="start" x="45.5" y="-276.3" font-family="Times,serif" font-weight="bold" font-size="14.00" fill="#000000">end_page</text>
<polygon fill="#ebffff" stroke="transparent" points="111.5,-266.5 111.5,-291.5 203.5,-291.5 203.5,-266.5 111.5,-266.5"/>
<polygon fill="none" stroke="#000000" points="111.5,-266.5 111.5,-291.5 203.5,-291.5 203.5,-266.5 111.5,-266.5"/>
<text text-anchor="start" x="116.5" y="-275.3" font-family="Times,serif" font-size="14.00" fill="#000000">PositiveInteger</text>
<polygon fill="#bfffff" stroke="transparent" points="34.5,-241.5 34.5,-266.5 111.5,-266.5 111.5,-241.5 34.5,-241.5"/>
<polygon fill="none" stroke="#000000" points="34.5,-241.5 34.5,-266.5 111.5,-266.5 111.5,-241.5 34.5,-241.5"/>
<text text-anchor="start" x="39.5" y="-251.3" font-family="Times,serif" font-weight="bold" font-size="14.00" fill="#000000">pubmed_id</text>
<polygon fill="#bfffff" stroke="transparent" points="111.5,-241.5 111.5,-266.5 203.5,-266.5 203.5,-241.5 111.5,-241.5"/>
<polygon fill="none" stroke="#000000" points="111.5,-241.5 111.5,-266.5 203.5,-266.5 203.5,-241.5 111.5,-241.5"/>
<text text-anchor="start" x="116.5" y="-250.3" font-family="Times,serif" font-size="14.00" fill="#000000">PositiveInteger</text>
</g>
<!-- Regulation -->
<g id="node6" class="node">
<title>Regulation</title>
<polygon fill="#ff8a5b" stroke="transparent" points=".5,-185.5 .5,-215.5 237.5,-215.5 237.5,-185.5 .5,-185.5"/>
<polygon fill="none" stroke="#000000" points=".5,-185.5 .5,-215.5 237.5,-215.5 237.5,-185.5 .5,-185.5"/>
<text text-anchor="start" x="76.5" y="-197.1" font-family="Times,serif" font-weight="bold" font-size="18.00" fill="#000000">Regulation</text>
<polygon fill="#bfffff" stroke="transparent" points=".5,-160.5 .5,-185.5 151.5,-185.5 151.5,-160.5 .5,-160.5"/>
<polygon fill="none" stroke="#000000" points=".5,-160.5 .5,-185.5 151.5,-185.5 151.5,-160.5 .5,-160.5"/>
<text text-anchor="start" x="52" y="-170.3" font-family="Times,serif" font-weight="bold" font-size="14.00" fill="#000000">reaction</text>
<polygon fill="#bfffff" stroke="transparent" points="151.5,-160.5 151.5,-185.5 237.5,-185.5 237.5,-160.5 151.5,-160.5"/>
<polygon fill="none" stroke="#000000" points="151.5,-160.5 151.5,-185.5 237.5,-185.5 237.5,-160.5 151.5,-160.5"/>
<text text-anchor="start" x="170" y="-169.3" font-family="Times,serif" font-size="14.00" fill="#000000">Reaction</text>
<polygon fill="#ebffff" stroke="transparent" points=".5,-135.5 .5,-160.5 151.5,-160.5 151.5,-135.5 .5,-135.5"/>
<polygon fill="none" stroke="#000000" points=".5,-135.5 .5,-160.5 151.5,-160.5 151.5,-135.5 .5,-135.5"/>
<text text-anchor="start" x="48.5" y="-145.3" font-family="Times,serif" font-weight="bold" font-size="14.00" fill="#000000">regulator</text>
<polygon fill="#ebffff" stroke="transparent" points="151.5,-135.5 151.5,-160.5 237.5,-160.5 237.5,-135.5 151.5,-135.5"/>
<polygon fill="none" stroke="#000000" points="151.5,-135.5 151.5,-160.5 237.5,-160.5 237.5,-135.5 151.5,-135.5"/>
<text text-anchor="start" x="164.5" y="-144.3" font-family="Times,serif" font-size="14.00" fill="#000000">Metabolite</text>
<polygon fill="#bfffff" stroke="transparent" points=".5,-110.5 .5,-135.5 151.5,-135.5 151.5,-110.5 .5,-110.5"/>
<polygon fill="none" stroke="#000000" points=".5,-110.5 .5,-135.5 151.5,-135.5 151.5,-110.5 .5,-110.5"/>
<text text-anchor="start" x="5.5" y="-120.3" font-family="Times,serif" font-weight="bold" font-size="14.00" fill="#000000">regulator_compartment</text>
<polygon fill="#bfffff" stroke="transparent" points="151.5,-110.5 151.5,-135.5 237.5,-135.5 237.5,-110.5 151.5,-110.5"/>
<polygon fill="none" stroke="#000000" points="151.5,-110.5 151.5,-135.5 237.5,-135.5 237.5,-110.5 151.5,-110.5"/>
<text text-anchor="start" x="156.5" y="-119.3" font-family="Times,serif" font-size="14.00" fill="#000000">Compartment</text>
<polygon fill="#ebffff" stroke="transparent" points=".5,-85.5 .5,-110.5 151.5,-110.5 151.5,-85.5 .5,-85.5"/>
<polygon fill="none" stroke="#000000" points=".5,-85.5 .5,-110.5 151.5,-110.5 151.5,-85.5 .5,-85.5"/>
<text text-anchor="start" x="63.5" y="-95.3" font-family="Times,serif" font-weight="bold" font-size="14.00" fill="#000000">type</text>
<polygon fill="#ebffff" stroke="transparent" points="151.5,-85.5 151.5,-110.5 237.5,-110.5 237.5,-85.5 151.5,-85.5"/>
<polygon fill="none" stroke="#000000" points="151.5,-85.5 151.5,-110.5 237.5,-110.5 237.5,-85.5 151.5,-85.5"/>
<text text-anchor="start" x="177.5" y="-94.3" font-family="Times,serif" font-size="14.00" fill="#000000">Enum</text>
</g>
<!-- Regulation&#45;&gt;Compartment -->
<g id="edge7" class="edge">
<title>Regulation:2&#45;&gt;Compartment:2</title>
<path fill="none" stroke="#000000" d="M237,-122.5C283.9485,-122.5 235.899,-31.5657 268.0041,-17.3572"/>
<polygon fill="#000000" stroke="#000000" points="268.8076,-20.7679 278,-15.5 267.5289,-13.8857 268.8076,-20.7679"/>
<text text-anchor="middle" x="273" y="-4.3" font-family="Times,serif" font-size="14.00" fill="#000000">N</text>
<text text-anchor="middle" x="240.5" y="-111.3" font-family="Times,serif" font-size="14.00" fill="#000000">1</text>
</g>
<!-- Regulation&#45;&gt;Metabolite -->
<g id="edge6" class="edge">
<title>Regulation:1&#45;&gt;Metabolite:3</title>
<path fill="none" stroke="#000000" d="M237,-147.5C251.2361,-147.5 257.1308,-147.5 267.7175,-147.5"/>
<polygon fill="#000000" stroke="#000000" points="268,-151.0001 278,-147.5 268,-144.0001 268,-151.0001"/>
<text text-anchor="middle" x="273" y="-136.3" font-family="Times,serif" font-size="14.00" fill="#000000">N</text>
<text text-anchor="middle" x="240.5" y="-136.3" font-family="Times,serif" font-size="14.00" fill="#000000">1</text>
</g>
<!-- Regulation&#45;&gt;Reaction -->
<g id="edge5" class="edge">
<title>Regulation:0&#45;&gt;Reaction:23</title>
<path fill="none" stroke="#000000" d="M237,-173.5C292.971,-173.5 223.5569,-286.8076 262.8753,-301.8563"/>
<polygon fill="#000000" stroke="#000000" points="262.5683,-305.3522 273,-303.5 263.6901,-298.4427 262.5683,-305.3522"/>
<text text-anchor="middle" x="268" y="-292.3" font-family="Times,serif" font-size="14.00" fill="#000000">N</text>
<text text-anchor="middle" x="240.5" y="-162.3" font-family="Times,serif" font-size="14.00" fill="#000000">1</text>
</g>
</g>
</svg>
