<?xml version="1.0" encoding="UTF-8" standalone="no"?>
<!DOCTYPE svg PUBLIC "-//W3C//DTD SVG 1.1//EN"
 "http://www.w3.org/Graphics/SVG/1.1/DTD/svg11.dtd">
<!-- Generated by graphviz version 2.40.1 (20161225.0304)
 -->
<!-- Title: %3 Pages: 1 -->
<svg width="279pt" height="177pt"
 viewBox="0.00 0.00 278.96 177.00" xmlns="http://www.w3.org/2000/svg" xmlns:xlink="http://www.w3.org/1999/xlink">
<g id="graph0" class="graph" transform="scale(1 1) rotate(0) translate(4 173)">
<title>%3</title>
<polygon fill="#ffffff" stroke="transparent" points="-4,4 -4,-173 274.9565,-173 274.9565,4 -4,4"/>
<!-- Compartment -->
<g id="node1" class="node">
<title>Compartment</title>
<polygon fill="#b3d2ff" stroke="#1565f9" points="58.9565,-106 4.9565,-106 4.9565,-93 58.9565,-93 58.9565,-106"/>
<text text-anchor="middle" x="31.9565" y="-97.6" font-family="arial" font-size="8.00" fill="#1565f9">Compartment</text>
</g>
<!-- Compartment&#45;&gt;Compartment -->
<g id="edge1" class="edge">
<title>Compartment&#45;&gt;Compartment</title>
<path fill="none" stroke="#000000" d="M59.0293,-96.0805C63.155,-96.6024 65.9565,-97.7422 65.9565,-99.5 65.9565,-100.3789 65.2561,-101.1033 64.04,-101.6732"/>
<polygon fill="#000000" stroke="#000000" points="63.4591,-100.0143 59.0293,-102.9195 64.3039,-103.4109 63.4591,-100.0143"/>
</g>
<!-- Parameter -->
<g id="node2" class="node">
<title>Parameter</title>
<polygon fill="#b3d2ff" stroke="#1565f9" points="46.4565,-127 3.4565,-127 3.4565,-114 46.4565,-114 46.4565,-127"/>
<text text-anchor="middle" x="24.9565" y="-118.6" font-family="arial" font-size="8.00" fill="#1565f9">Parameter</text>
</g>
<!-- Compartment&#45;&gt;Parameter -->
<g id="edge2" class="edge">
<title>Compartment&#45;&gt;Parameter</title>
<path fill="none" stroke="#000000" d="M29.7417,-106.1445C29.4292,-107.0818 29.1009,-108.0667 28.7689,-109.0629"/>
<polygon fill="#000000" stroke="#000000" points="27.054,-108.6737 27.133,-113.9706 30.3744,-109.7806 27.054,-108.6737"/>
</g>
<!-- Evidence -->
<g id="node3" class="node">
<title>Evidence</title>
<polygon fill="#b3d2ff" stroke="#1565f9" points="128.9565,-148 90.9565,-148 90.9565,-135 128.9565,-135 128.9565,-148"/>
<text text-anchor="middle" x="109.9565" y="-139.6" font-family="arial" font-size="8.00" fill="#1565f9">Evidence</text>
</g>
<!-- Compartment&#45;&gt;Evidence -->
<g id="edge3" class="edge">
<title>Compartment&#45;&gt;Evidence</title>
<path fill="none" stroke="#000000" d="M46.9888,-106.0216C52.1301,-108.3855 57.8661,-111.173 62.9565,-114 72.2248,-119.1472 73.8341,-121.5984 82.9565,-127 85.961,-128.779 89.1994,-130.5988 92.3543,-132.3216"/>
<polygon fill="#000000" stroke="#000000" points="91.9656,-134.0997 97.1978,-134.929 93.6247,-131.0179 91.9656,-134.0997"/>
</g>
<!-- Model -->
<g id="node4" class="node">
<title>Model</title>
<polygon fill="#ffb3b3" stroke="#fa1515" points="194.9565,-169 168.9565,-169 168.9565,-156 194.9565,-156 194.9565,-169"/>
<text text-anchor="middle" x="181.9565" y="-160.6" font-family="arial" font-size="8.00" fill="#fa1515">Model</text>
</g>
<!-- Compartment&#45;&gt;Model -->
<g id="edge4" class="edge">
<title>Compartment&#45;&gt;Model</title>
<path fill="none" stroke="#000000" d="M40.455,-106.1974C43.482,-108.6219 46.8977,-111.4026 49.9565,-114 67.2309,-128.6688 67.467,-138.317 87.9565,-148 101.0727,-154.1985 140.4676,-158.7191 163.8882,-160.9449"/>
<polygon fill="#000000" stroke="#000000" points="163.7696,-162.6914 168.9098,-161.4103 164.0926,-159.2063 163.7696,-162.6914"/>
</g>
<!-- Parameter&#45;&gt;Evidence -->
<g id="edge5" class="edge">
<title>Parameter&#45;&gt;Evidence</title>
<path fill="none" stroke="#000000" d="M46.8461,-125.908C58.7253,-128.8429 73.4391,-132.478 85.6705,-135.4999"/>
<polygon fill="#000000" stroke="#000000" points="85.4712,-137.2532 90.745,-136.7536 86.3107,-133.8554 85.4712,-137.2532"/>
</g>
<!-- Parameter&#45;&gt;Model -->
<g id="edge6" class="edge">
<title>Parameter&#45;&gt;Model</title>
<path fill="none" stroke="#000000" d="M29.663,-127.2249C34.6361,-133.7445 43.1126,-143.3155 52.9565,-148 72.0976,-157.1087 132.765,-160.6604 163.5931,-161.9035"/>
<polygon fill="#000000" stroke="#000000" points="163.5666,-163.6536 168.6301,-162.0967 163.7008,-160.1562 163.5666,-163.6536"/>
</g>
<!-- Evidence&#45;&gt;Model -->
<!-- RateLaw -->
<g id="node5" class="node">
<title>RateLaw</title>
<polygon fill="#b3d2ff" stroke="#1565f9" points="137.9565,-13 101.9565,-13 101.9565,0 137.9565,0 137.9565,-13"/>
<text text-anchor="middle" x="119.9565" y="-4.6" font-family="arial" font-size="8.00" fill="#1565f9">Rate law</text>
</g>
<!-- RateLaw&#45;&gt;Evidence -->
<g id="edge9" class="edge">
<title>RateLaw&#45;&gt;Evidence</title>
<path fill="none" stroke="#000000" d="M111.5489,-13.077C102.0678,-21.3013 87.9565,-36.3403 87.9565,-53 87.9565,-53 87.9565,-53 87.9565,-99.5 87.9565,-111.1681 94.7016,-122.7917 100.7221,-130.8427"/>
<polygon fill="#000000" stroke="#000000" points="99.4733,-132.0851 103.9449,-134.9255 102.2206,-129.9166 99.4733,-132.0851"/>
</g>
<!-- RateLaw&#45;&gt;Model -->
<g id="edge10" class="edge">
<title>RateLaw&#45;&gt;Model</title>
<path fill="none" stroke="#000000" d="M138.1706,-8.2316C178.332,-12.5533 270.9565,-25.5013 270.9565,-53 270.9565,-53 270.9565,-53 270.9565,-120.5 270.9565,-136.1521 262.2626,-139.7577 248.9565,-148 240.9337,-152.9697 217.1374,-157.3468 200.1903,-159.9582"/>
<polygon fill="#000000" stroke="#000000" points="199.8607,-158.238 195.1758,-160.7107 200.3801,-161.6993 199.8607,-158.238"/>
</g>
<!-- Reaction -->
<g id="node6" class="node">
<title>Reaction</title>
<polygon fill="#b3d2ff" stroke="#1565f9" points="170.4565,-34 133.4565,-34 133.4565,-21 170.4565,-21 170.4565,-34"/>
<text text-anchor="middle" x="151.9565" y="-25.6" font-family="arial" font-size="8.00" fill="#1565f9">Reaction</text>
</g>
<!-- RateLaw&#45;&gt;Reaction -->
<g id="edge7" class="edge">
<title>RateLaw&#45;&gt;Reaction</title>
<path fill="none" stroke="#000000" d="M130.0815,-13.1445C132.4619,-14.7066 135.0437,-16.401 137.5712,-18.0597"/>
<polygon fill="#000000" stroke="#000000" points="136.8665,-19.6903 142.0069,-20.9706 138.7868,-16.7642 136.8665,-19.6903"/>
</g>
<!-- RateLawExpression -->
<g id="node7" class="node">
<title>RateLawExpression</title>
<polygon fill="#b3d2ff" stroke="#1565f9" points="65.4565,-64 20.4565,-64 20.4565,-42 65.4565,-42 65.4565,-64"/>
<text text-anchor="middle" x="42.9565" y="-55.6" font-family="arial" font-size="8.00" fill="#1565f9">Rate law</text>
<text text-anchor="middle" x="42.9565" y="-46.6" font-family="arial" font-size="8.00" fill="#1565f9">expression</text>
</g>
<!-- RateLaw&#45;&gt;RateLawExpression -->
<g id="edge8" class="edge">
<title>RateLaw&#45;&gt;RateLawExpression</title>
<path fill="none" stroke="#000000" d="M101.7611,-12.3854C95.6043,-14.6984 88.8102,-17.6163 82.9565,-21 74.54,-25.8651 66.0181,-32.4099 59.0152,-38.313"/>
<polygon fill="#000000" stroke="#000000" points="57.5136,-37.2965 54.8658,-41.8848 59.797,-39.9491 57.5136,-37.2965"/>
</g>
<!-- Reaction&#45;&gt;Evidence -->
<g id="edge16" class="edge">
<title>Reaction&#45;&gt;Evidence</title>
<path fill="none" stroke="#000000" d="M150.5182,-34.2354C148.9439,-41.5659 146.3276,-53.6285 143.9565,-64 141.8183,-73.3529 142.2822,-76.0006 138.9565,-85 132.8702,-101.4698 123.134,-119.3127 116.644,-130.4471"/>
<polygon fill="#000000" stroke="#000000" points="115.118,-129.5896 114.0815,-134.7847 118.1315,-131.3699 115.118,-129.5896"/>
</g>
<!-- Reaction&#45;&gt;Model -->
<g id="edge17" class="edge">
<title>Reaction&#45;&gt;Model</title>
<path fill="none" stroke="#000000" d="M170.5496,-32.5199C200.4637,-41.1514 255.9565,-59.6974 255.9565,-78.5 255.9565,-78.5 255.9565,-78.5 255.9565,-120.5 255.9565,-146.0739 222.1148,-156.2663 200.2026,-160.1854"/>
<polygon fill="#000000" stroke="#000000" points="199.8353,-158.4722 195.1862,-161.0117 200.4042,-161.9257 199.8353,-158.4722"/>
</g>
<!-- Submodel -->
<g id="node9" class="node">
<title>Submodel</title>
<polygon fill="#b3d2ff" stroke="#1565f9" points="244.4565,-127 203.4565,-127 203.4565,-114 244.4565,-114 244.4565,-127"/>
<text text-anchor="middle" x="223.9565" y="-118.6" font-family="arial" font-size="8.00" fill="#1565f9">Submodel</text>
</g>
<!-- Reaction&#45;&gt;Submodel -->
<g id="edge14" class="edge">
<title>Reaction&#45;&gt;Submodel</title>
<path fill="none" stroke="#000000" d="M157.1346,-34.1883C169.485,-50.141 200.7545,-90.5307 215.7239,-109.8662"/>
<polygon fill="#000000" stroke="#000000" points="214.3807,-110.9899 218.8254,-113.8723 217.1482,-108.8473 214.3807,-110.9899"/>
</g>
<!-- SpeciesCoefficient -->
<g id="node10" class="node">
<title>SpeciesCoefficient</title>
<polygon fill="#b3d2ff" stroke="#1565f9" points="140.4565,-64 99.4565,-64 99.4565,-42 140.4565,-42 140.4565,-64"/>
<text text-anchor="middle" x="119.9565" y="-55.6" font-family="arial" font-size="8.00" fill="#1565f9">Species</text>
<text text-anchor="middle" x="119.9565" y="-46.6" font-family="arial" font-size="8.00" fill="#1565f9">coefficient</text>
</g>
<!-- Reaction&#45;&gt;SpeciesCoefficient -->
<g id="edge15" class="edge">
<title>Reaction&#45;&gt;SpeciesCoefficient</title>
<path fill="none" stroke="#000000" d="M143.5489,-34.1998C141.7897,-35.6017 139.8711,-37.1305 137.9128,-38.691"/>
<polygon fill="#000000" stroke="#000000" points="136.6955,-37.4234 133.8758,-41.908 138.8768,-40.1606 136.6955,-37.4234"/>
</g>
<!-- RateLawExpression&#45;&gt;Compartment -->
<g id="edge13" class="edge">
<title>RateLawExpression&#45;&gt;Compartment</title>
<path fill="none" stroke="#000000" d="M40.2937,-64.2564C38.6115,-71.3674 36.4417,-80.5397 34.7374,-87.7444"/>
<polygon fill="#000000" stroke="#000000" points="32.9887,-87.5351 33.5406,-92.8037 36.3947,-88.3408 32.9887,-87.5351"/>
</g>
<!-- RateLawExpression&#45;&gt;Parameter -->
<g id="edge12" class="edge">
<title>RateLawExpression&#45;&gt;Parameter</title>
<path fill="none" stroke="#000000" d="M26.1642,-64.2027C17.1501,-71.2703 6.9001,-81.2703 1.9565,-93 -.2875,-98.3242 -.8345,-100.9411 1.9565,-106 2.823,-107.5706 3.939,-108.9944 5.2114,-110.2803"/>
<polygon fill="#000000" stroke="#000000" points="4.4324,-111.9059 9.4045,-113.7339 6.6576,-109.2042 4.4324,-111.9059"/>
</g>
<!-- Species -->
<g id="node8" class="node">
<title>Species</title>
<polygon fill="#b3d2ff" stroke="#1565f9" points="134.9565,-85 100.9565,-85 100.9565,-72 134.9565,-72 134.9565,-85"/>
<text text-anchor="middle" x="117.9565" y="-76.6" font-family="arial" font-size="8.00" fill="#1565f9">Species</text>
</g>
<!-- RateLawExpression&#45;&gt;Species -->
<g id="edge11" class="edge">
<title>RateLawExpression&#45;&gt;Species</title>
<path fill="none" stroke="#000000" d="M65.459,-60.6508C75.1592,-63.9489 86.4623,-67.792 96.0905,-71.0656"/>
<polygon fill="#000000" stroke="#000000" points="95.6582,-72.7669 100.9554,-72.7196 96.7849,-69.4532 95.6582,-72.7669"/>
</g>
<!-- Species&#45;&gt;Compartment -->
<g id="edge19" class="edge">
<title>Species&#45;&gt;Compartment</title>
<path fill="none" stroke="#000000" d="M100.5531,-82.7497C89.9808,-85.3313 76.1626,-88.7055 63.7011,-91.7484"/>
<polygon fill="#000000" stroke="#000000" points="63.2632,-90.0538 58.8211,-92.9401 64.0935,-93.4539 63.2632,-90.0538"/>
</g>
<!-- Species&#45;&gt;Evidence -->
<g id="edge20" class="edge">
<title>Species&#45;&gt;Evidence</title>
<path fill="none" stroke="#000000" d="M116.9737,-85.0348C115.918,-92.1508 114.2219,-103.8713 112.9565,-114 112.3232,-119.0694 111.6982,-124.6741 111.1839,-129.4939"/>
<polygon fill="#000000" stroke="#000000" points="109.4178,-129.5572 110.6373,-134.7123 112.8988,-129.9219 109.4178,-129.5572"/>
</g>
<!-- Species&#45;&gt;Model -->
<g id="edge21" class="edge">
<title>Species&#45;&gt;Model</title>
<path fill="none" stroke="#000000" d="M135.2323,-82.4541C151.0285,-87.0862 173.478,-96.4656 183.9565,-114 190.6565,-125.2116 188.511,-140.6241 185.7746,-151.0418"/>
<polygon fill="#000000" stroke="#000000" points="184.0528,-150.6956 184.3335,-155.9856 187.4129,-151.6752 184.0528,-150.6956"/>
</g>
<!-- SpeciesType -->
<g id="node11" class="node">
<title>SpeciesType</title>
<polygon fill="#b3d2ff" stroke="#1565f9" points="180.9565,-127 128.9565,-127 128.9565,-114 180.9565,-114 180.9565,-127"/>
<text text-anchor="middle" x="154.9565" y="-118.6" font-family="arial" font-size="8.00" fill="#1565f9">Species type</text>
</g>
<!-- Species&#45;&gt;SpeciesType -->
<g id="edge18" class="edge">
<title>Species&#45;&gt;SpeciesType</title>
<path fill="none" stroke="#000000" d="M120.2934,-85.4496C122.5616,-91.4174 126.4681,-99.9843 131.9565,-106 133.6188,-107.822 135.5607,-109.5043 137.5988,-111.028"/>
<polygon fill="#000000" stroke="#000000" points="136.7403,-112.5606 141.8585,-113.9269 138.7094,-109.667 136.7403,-112.5606"/>
</g>
<!-- Submodel&#45;&gt;Evidence -->
<g id="edge25" class="edge">
<title>Submodel&#45;&gt;Evidence</title>
<path fill="none" stroke="#000000" d="M203.312,-124.3029C183.9106,-127.8769 154.8646,-133.2275 134.3327,-137.0097"/>
<polygon fill="#000000" stroke="#000000" points="133.9074,-135.3085 129.3072,-137.9354 134.5415,-138.7506 133.9074,-135.3085"/>
</g>
<!-- Submodel&#45;&gt;Model -->
<g id="edge26" class="edge">
<title>Submodel&#45;&gt;Model</title>
<path fill="none" stroke="#000000" d="M217.348,-127.3295C211.9116,-132.9238 203.9857,-141.0252 196.9565,-148 195.5906,-149.3553 194.1457,-150.7725 192.7133,-152.1676"/>
<polygon fill="#000000" stroke="#000000" points="191.3877,-151.0152 189.014,-155.7511 193.8229,-153.5292 191.3877,-151.0152"/>
</g>
<!-- SpeciesCoefficient&#45;&gt;Species -->
<g id="edge22" class="edge">
<title>SpeciesCoefficient&#45;&gt;Species</title>
<path fill="none" stroke="#000000" d="M119.0735,-64.2589C119.0107,-65.0594 118.9473,-65.8679 118.8842,-66.6715"/>
<polygon fill="#000000" stroke="#000000" points="117.131,-66.6453 118.4846,-71.7668 120.6203,-66.919 117.131,-66.6453"/>
</g>
<!-- SpeciesType&#45;&gt;Evidence -->
<g id="edge23" class="edge">
<title>SpeciesType&#45;&gt;Evidence</title>
<path fill="none" stroke="#000000" d="M140.7182,-127.1445C136.8687,-128.941 132.6445,-130.9123 128.5927,-132.8031"/>
<polygon fill="#000000" stroke="#000000" points="127.739,-131.2703 123.9481,-134.9706 129.2191,-134.4419 127.739,-131.2703"/>
</g>
<!-- SpeciesType&#45;&gt;Model -->
<g id="edge24" class="edge">
<title>SpeciesType&#45;&gt;Model</title>
<path fill="none" stroke="#000000" d="M159.1753,-127.0625C163.3513,-133.5585 169.8238,-143.6268 174.8041,-151.374"/>
<polygon fill="#000000" stroke="#000000" points="173.5024,-152.5854 177.6783,-155.845 176.4465,-150.6927 173.5024,-152.5854"/>
</g>
</g>
</svg>
