<?xml version="1.0" encoding="UTF-8" standalone="no"?>
<!DOCTYPE svg PUBLIC "-//W3C//DTD SVG 1.1//EN"
 "http://www.w3.org/Graphics/SVG/1.1/DTD/svg11.dtd">
<!-- Generated by graphviz version 2.40.1 (20161225.0304)
 -->
<!-- Title: %3 Pages: 1 -->
<svg width="259pt" height="176pt"
 viewBox="0.00 0.00 259.00 176.00" xmlns="http://www.w3.org/2000/svg" xmlns:xlink="http://www.w3.org/1999/xlink">
<g id="graph0" class="graph" transform="scale(1 1) rotate(0) translate(4 172)">
<title>%3</title>
<polygon fill="#ffffff" stroke="transparent" points="-4,4 -4,-172 255,-172 255,4 -4,4"/>
<!-- Compartment -->
<g id="node1" class="node">
<title>Compartment</title>
<polygon fill="none" stroke="#000000" points="53,-102 7,-102 7,-88 53,-88 53,-102"/>
<text text-anchor="middle" x="30" y="-93.1" font-family="Times,serif" font-size="8.00" fill="#000000">Compartment</text>
</g>
<!-- Compartment&#45;&gt;Compartment -->
<g id="edge1" class="edge">
<title>Compartment&#45;&gt;Compartment</title>
<path fill="none" stroke="#000000" d="M53.1445,-91.1328C57.1875,-91.6484 60,-92.9375 60,-95 60,-96.0313 59.2969,-96.8691 58.0884,-97.5137"/>
<polygon fill="#000000" stroke="#000000" points="57.5049,-95.8589 53.1445,-98.8672 58.4292,-99.2347 57.5049,-95.8589"/>
</g>
<!-- Parameter -->
<g id="node2" class="node">
<title>Parameter</title>
<polygon fill="none" stroke="#000000" points="41,-124 5,-124 5,-110 41,-110 41,-124"/>
<text text-anchor="middle" x="23" y="-115.1" font-family="Times,serif" font-size="8.00" fill="#000000">Parameter</text>
</g>
<!-- Compartment&#45;&gt;Parameter -->
<g id="edge2" class="edge">
<title>Compartment&#45;&gt;Parameter</title>
<path fill="none" stroke="#000000" d="M27.6301,-102.4482C27.3921,-103.1961 27.1464,-103.9686 26.8979,-104.7496"/>
<polygon fill="#000000" stroke="#000000" points="25.1212,-104.562 25.2727,-109.8572 28.4564,-105.6232 25.1212,-104.562"/>
</g>
<!-- Evidence -->
<g id="node3" class="node">
<title>Evidence</title>
<polygon fill="none" stroke="#000000" points="122,-146 86,-146 86,-132 122,-132 122,-146"/>
<text text-anchor="middle" x="104" y="-137.1" font-family="Times,serif" font-size="8.00" fill="#000000">Evidence</text>
</g>
<!-- Compartment&#45;&gt;Evidence -->
<g id="edge3" class="edge">
<title>Compartment&#45;&gt;Evidence</title>
<path fill="none" stroke="#000000" d="M43.3424,-102.055C47.7475,-104.4785 52.6355,-107.2703 57,-110 66.1992,-115.7535 67.8008,-118.2465 77,-124 79.8642,-125.7914 82.9538,-127.6095 85.9845,-129.3327"/>
<polygon fill="#000000" stroke="#000000" points="85.4393,-131.0327 90.6576,-131.945 87.1471,-127.9777 85.4393,-131.0327"/>
</g>
<!-- Model -->
<g id="node4" class="node">
<title>Model</title>
<polygon fill="none" stroke="#000000" points="187,-168 151,-168 151,-154 187,-154 187,-168"/>
<text text-anchor="middle" x="169" y="-159.1" font-family="Times,serif" font-size="8.00" fill="#000000">Model</text>
</g>
<!-- Compartment&#45;&gt;Model -->
<g id="edge4" class="edge">
<title>Compartment&#45;&gt;Model</title>
<path fill="none" stroke="#000000" d="M36.8477,-102.0337C49.8858,-115.3587 77.4725,-143.2066 83,-146 93.707,-151.4109 124.059,-155.8659 145.6648,-158.4779"/>
<polygon fill="#000000" stroke="#000000" points="145.5071,-160.2214 150.6779,-159.0702 145.9178,-156.7456 145.5071,-160.2214"/>
</g>
<!-- Parameter&#45;&gt;Evidence -->
<g id="edge5" class="edge">
<title>Parameter&#45;&gt;Evidence</title>
<path fill="none" stroke="#000000" d="M41.3802,-121.9921C53.1653,-125.193 68.555,-129.373 81.1284,-132.788"/>
<polygon fill="#000000" stroke="#000000" points="80.6877,-134.4816 85.9716,-134.1034 81.6051,-131.104 80.6877,-134.4816"/>
</g>
<!-- Parameter&#45;&gt;Model -->
<g id="edge6" class="edge">
<title>Parameter&#45;&gt;Model</title>
<path fill="none" stroke="#000000" d="M26.7244,-124.0574C30.7461,-130.9059 37.8281,-140.9787 47,-146 63.4562,-155.0092 114.8587,-158.7189 145.4403,-160.1588"/>
<polygon fill="#000000" stroke="#000000" points="145.4548,-161.9111 150.528,-160.3865 145.6113,-158.4146 145.4548,-161.9111"/>
</g>
<!-- Evidence&#45;&gt;Model -->
<!-- RateLaw -->
<g id="node5" class="node">
<title>RateLaw</title>
<polygon fill="none" stroke="#000000" points="144,-14 108,-14 108,0 144,0 144,-14"/>
<text text-anchor="middle" x="126" y="-5.1" font-family="Times,serif" font-size="8.00" fill="#000000">Rate law</text>
</g>
<!-- RateLaw&#45;&gt;Evidence -->
<g id="edge9" class="edge">
<title>RateLaw&#45;&gt;Evidence</title>
<path fill="none" stroke="#000000" d="M111.1036,-14.1818C98.3389,-21.495 82,-34.1473 82,-51 82,-51 82,-51 82,-95 82,-106.9621 88.5855,-119.0057 94.5503,-127.461"/>
<polygon fill="#000000" stroke="#000000" points="93.3653,-128.7998 97.7545,-131.7658 96.1729,-126.71 93.3653,-128.7998"/>
</g>
<!-- RateLaw&#45;&gt;Model -->
<g id="edge10" class="edge">
<title>RateLaw&#45;&gt;Model</title>
<path fill="none" stroke="#000000" d="M144.1761,-9.5242C178.8445,-14.8513 251,-28.6261 251,-51 251,-51 251,-51 251,-117 251,-143.8482 216.4467,-154.3807 192.1999,-158.4666"/>
<polygon fill="#000000" stroke="#000000" points="191.8702,-156.7467 187.1985,-159.2441 192.408,-160.2052 191.8702,-156.7467"/>
</g>
<!-- Reaction -->
<g id="node6" class="node">
<title>Reaction</title>
<polygon fill="none" stroke="#000000" points="188,-36 152,-36 152,-22 188,-22 188,-36"/>
<text text-anchor="middle" x="170" y="-27.1" font-family="Times,serif" font-size="8.00" fill="#000000">Reaction</text>
</g>
<!-- RateLaw&#45;&gt;Reaction -->
<g id="edge7" class="edge">
<title>RateLaw&#45;&gt;Reaction</title>
<path fill="none" stroke="#000000" d="M140.4072,-14.2036C143.7845,-15.8922 147.4338,-17.7169 150.9781,-19.489"/>
<polygon fill="#000000" stroke="#000000" points="150.4559,-21.1845 155.7107,-21.8553 152.0212,-18.054 150.4559,-21.1845"/>
</g>
<!-- RateLawExpression -->
<g id="node7" class="node">
<title>RateLawExpression</title>
<polygon fill="none" stroke="#000000" points="68,-58 0,-58 0,-44 68,-44 68,-58"/>
<text text-anchor="middle" x="34" y="-49.1" font-family="Times,serif" font-size="8.00" fill="#000000">Rate law expression</text>
</g>
<!-- RateLaw&#45;&gt;RateLawExpression -->
<g id="edge8" class="edge">
<title>RateLaw&#45;&gt;RateLawExpression</title>
<path fill="none" stroke="#000000" d="M107.8304,-11.185C98.3835,-13.7001 86.7959,-17.3258 77,-22 66.3033,-27.104 55.2387,-34.6259 47.0124,-40.7301"/>
<polygon fill="#000000" stroke="#000000" points="45.6863,-39.5388 42.7545,-43.951 47.7979,-42.3301 45.6863,-39.5388"/>
</g>
<!-- Reaction&#45;&gt;Evidence -->
<g id="edge16" class="edge">
<title>Reaction&#45;&gt;Evidence</title>
<path fill="none" stroke="#000000" d="M168.8148,-36.4576C167.6525,-42.5053 165.5302,-51.1235 162,-58 148.4321,-84.4288 136.5726,-85.344 120,-110 116.3653,-115.4076 112.8135,-121.7098 109.9833,-127.0551"/>
<polygon fill="#000000" stroke="#000000" points="108.3531,-126.3976 107.6054,-131.642 111.4604,-128.0085 108.3531,-126.3976"/>
</g>
<!-- Reaction&#45;&gt;Model -->
<g id="edge17" class="edge">
<title>Reaction&#45;&gt;Model</title>
<path fill="none" stroke="#000000" d="M188.0348,-32.8218C207.5762,-38.145 236,-49.8644 236,-73 236,-73 236,-73 236,-117 236,-138.3697 211.8918,-149.9343 192.5981,-155.7677"/>
<polygon fill="#000000" stroke="#000000" points="191.6427,-154.2192 187.308,-157.2644 192.5956,-157.5871 191.6427,-154.2192"/>
</g>
<!-- Submodel -->
<g id="node9" class="node">
<title>Submodel</title>
<polygon fill="none" stroke="#000000" points="225,-124 189,-124 189,-110 225,-110 225,-124"/>
<text text-anchor="middle" x="207" y="-115.1" font-family="Times,serif" font-size="8.00" fill="#000000">Submodel</text>
</g>
<!-- Reaction&#45;&gt;Submodel -->
<g id="edge14" class="edge">
<title>Reaction&#45;&gt;Submodel</title>
<path fill="none" stroke="#000000" d="M173.0279,-36.2014C179.4013,-51.36 194.2535,-86.6841 202.0383,-105.1993"/>
<polygon fill="#000000" stroke="#000000" points="200.4825,-106.0142 204.0337,-109.945 203.7089,-104.6576 200.4825,-106.0142"/>
</g>
<!-- SpeciesCoefficient -->
<g id="node10" class="node">
<title>SpeciesCoefficient</title>
<polygon fill="none" stroke="#000000" points="158.5,-58 93.5,-58 93.5,-44 158.5,-44 158.5,-58"/>
<text text-anchor="middle" x="126" y="-49.1" font-family="Times,serif" font-size="8.00" fill="#000000">Species coefficient</text>
</g>
<!-- Reaction&#45;&gt;SpeciesCoefficient -->
<g id="edge15" class="edge">
<title>Reaction&#45;&gt;SpeciesCoefficient</title>
<path fill="none" stroke="#000000" d="M155.5928,-36.2036C152.2155,-37.8922 148.5662,-39.7169 145.0219,-41.489"/>
<polygon fill="#000000" stroke="#000000" points="143.9788,-40.054 140.2893,-43.8553 145.5441,-43.1845 143.9788,-40.054"/>
</g>
<!-- RateLawExpression&#45;&gt;Compartment -->
<g id="edge13" class="edge">
<title>RateLawExpression&#45;&gt;Compartment</title>
<path fill="none" stroke="#000000" d="M33.3395,-58.2657C32.7337,-64.9293 31.8245,-74.9305 31.1077,-82.8157"/>
<polygon fill="#000000" stroke="#000000" points="29.3582,-82.7316 30.6482,-87.8695 32.8438,-83.0485 29.3582,-82.7316"/>
</g>
<!-- RateLawExpression&#45;&gt;Parameter -->
<g id="edge12" class="edge">
<title>RateLawExpression&#45;&gt;Parameter</title>
<path fill="none" stroke="#000000" d="M25.5339,-58.224C18.247,-65.0451 8.2549,-75.9963 4,-88 1.9212,-93.8647 1.2865,-96.4006 4,-102 4.7331,-103.5128 5.701,-104.9191 6.8124,-106.2151"/>
<polygon fill="#000000" stroke="#000000" points="5.6755,-107.5502 10.4858,-109.7692 8.1092,-105.0348 5.6755,-107.5502"/>
</g>
<!-- Species -->
<g id="node8" class="node">
<title>Species</title>
<polygon fill="none" stroke="#000000" points="136,-80 100,-80 100,-66 136,-66 136,-80"/>
<text text-anchor="middle" x="118" y="-71.1" font-family="Times,serif" font-size="8.00" fill="#000000">Species</text>
</g>
<!-- RateLawExpression&#45;&gt;Species -->
<g id="edge11" class="edge">
<title>RateLawExpression&#45;&gt;Species</title>
<path fill="none" stroke="#000000" d="M61.0405,-58.082C71.9216,-60.9318 84.3436,-64.1852 94.8044,-66.925"/>
<polygon fill="#000000" stroke="#000000" points="94.4865,-68.6507 99.7668,-68.2246 95.3733,-65.2649 94.4865,-68.6507"/>
</g>
<!-- Species&#45;&gt;Compartment -->
<g id="edge19" class="edge">
<title>Species&#45;&gt;Compartment</title>
<path fill="none" stroke="#000000" d="M99.7663,-77.5584C87.75,-80.5625 71.7751,-84.5562 58.144,-87.964"/>
<polygon fill="#000000" stroke="#000000" points="57.6659,-86.2796 53.2397,-89.1901 58.5149,-89.6751 57.6659,-86.2796"/>
</g>
<!-- Species&#45;&gt;Evidence -->
<g id="edge20" class="edge">
<title>Species&#45;&gt;Evidence</title>
<path fill="none" stroke="#000000" d="M115.4006,-80.2702C112.8632,-87.6591 109.0885,-99.483 107,-110 105.9285,-115.396 105.2261,-121.4374 104.7725,-126.6036"/>
<polygon fill="#000000" stroke="#000000" points="103.0119,-126.6742 104.3722,-131.794 106.5015,-126.9433 103.0119,-126.6742"/>
</g>
<!-- Species&#45;&gt;Model -->
<g id="edge21" class="edge">
<title>Species&#45;&gt;Model</title>
<path fill="none" stroke="#000000" d="M135.2053,-80.032C147.3629,-86.0236 162.7372,-95.9184 170,-110 176.2224,-122.0642 174.6349,-137.9653 172.3592,-148.7835"/>
<polygon fill="#000000" stroke="#000000" points="170.5899,-148.6617 171.1441,-153.9301 173.9962,-149.466 170.5899,-148.6617"/>
</g>
<!-- SpeciesType -->
<g id="node11" class="node">
<title>SpeciesType</title>
<polygon fill="none" stroke="#000000" points="166.5,-124 123.5,-124 123.5,-110 166.5,-110 166.5,-124"/>
<text text-anchor="middle" x="145" y="-115.1" font-family="Times,serif" font-size="8.00" fill="#000000">Species type</text>
</g>
<!-- Species&#45;&gt;SpeciesType -->
<g id="edge18" class="edge">
<title>Species&#45;&gt;SpeciesType</title>
<path fill="none" stroke="#000000" d="M122.4585,-80.2657C126.6261,-87.0574 132.9214,-97.3164 137.8009,-105.2682"/>
<polygon fill="#000000" stroke="#000000" points="136.5178,-106.5232 140.6245,-109.8695 139.5009,-104.6926 136.5178,-106.5232"/>
</g>
<!-- Submodel&#45;&gt;Evidence -->
<g id="edge25" class="edge">
<title>Submodel&#45;&gt;Evidence</title>
<path fill="none" stroke="#000000" d="M188.5857,-120.9332C171.4488,-124.5935 145.8361,-130.0641 127.2866,-134.0262"/>
<polygon fill="#000000" stroke="#000000" points="126.7791,-132.345 122.2549,-135.1009 127.5102,-135.7678 126.7791,-132.345"/>
</g>
<!-- Submodel&#45;&gt;Model -->
<g id="edge26" class="edge">
<title>Submodel&#45;&gt;Model</title>
<path fill="none" stroke="#000000" d="M201.1993,-124.2505C196.4096,-130.1781 189.3859,-138.7356 183,-146 181.8711,-147.2842 180.6733,-148.6142 179.4722,-149.9276"/>
<polygon fill="#000000" stroke="#000000" points="178.0395,-148.899 175.9244,-153.7559 180.6067,-151.2781 178.0395,-148.899"/>
</g>
<!-- SpeciesCoefficient&#45;&gt;Species -->
<g id="edge22" class="edge">
<title>SpeciesCoefficient&#45;&gt;Species</title>
<path fill="none" stroke="#000000" d="M123.2916,-58.4482C123.0196,-59.1961 122.7387,-59.9686 122.4547,-60.7496"/>
<polygon fill="#000000" stroke="#000000" points="120.6615,-60.5602 120.5974,-65.8572 123.9508,-61.7563 120.6615,-60.5602"/>
</g>
<!-- SpeciesType&#45;&gt;Evidence -->
<g id="edge23" class="edge">
<title>SpeciesType&#45;&gt;Evidence</title>
<path fill="none" stroke="#000000" d="M131.5751,-124.2036C128.4281,-125.8922 125.0276,-127.7169 121.725,-129.489"/>
<polygon fill="#000000" stroke="#000000" points="120.8934,-127.9492 117.3151,-131.8553 122.5483,-131.0332 120.8934,-127.9492"/>
</g>
<!-- SpeciesType&#45;&gt;Model -->
<g id="edge24" class="edge">
<title>SpeciesType&#45;&gt;Model</title>
<path fill="none" stroke="#000000" d="M148.9631,-124.2657C152.6677,-131.0574 158.2635,-141.3164 162.6008,-149.2682"/>
<polygon fill="#000000" stroke="#000000" points="161.18,-150.318 165.1106,-153.8695 164.2526,-148.642 161.18,-150.318"/>
</g>
</g>
</svg>
