<?xml version="1.0" encoding="UTF-8" standalone="no"?>
<svg
   xmlns:dc="http://purl.org/dc/elements/1.1/"
   xmlns:cc="http://creativecommons.org/ns#"
   xmlns:rdf="http://www.w3.org/1999/02/22-rdf-syntax-ns#"
   xmlns:svg="http://www.w3.org/2000/svg"
   xmlns="http://www.w3.org/2000/svg"
   xmlns:sodipodi="http://sodipodi.sourceforge.net/DTD/sodipodi-0.dtd"
   xmlns:inkscape="http://www.inkscape.org/namespaces/inkscape"
   id="bold"
   enable-background="new 0 0 24 24"
   height="63.999809"
   viewBox="0 0 5.1452937 2.9999911"
   width="109.76627"
   version="1.1"
   sodipodi:docname="agreement.svg"
   inkscape:version="0.92.3 (2405546, 2018-03-11)">
  <metadata
     id="metadata11834">
    <rdf:RDF>
      <cc:Work
         rdf:about="">
        <dc:format>image/svg+xml</dc:format>
        <dc:type
           rdf:resource="http://purl.org/dc/dcmitype/StillImage" />
        <dc:title></dc:title>
      </cc:Work>
    </rdf:RDF>
  </metadata>
  <defs
     id="defs11832" />
  <sodipodi:namedview
     pagecolor="#ffffff"
     bordercolor="#666666"
     borderopacity="1"
     objecttolerance="10"
     gridtolerance="10"
     guidetolerance="10"
     inkscape:pageopacity="0"
     inkscape:pageshadow="2"
     inkscape:window-width="1920"
     inkscape:window-height="910"
     id="namedview11830"
     showgrid="false"
     fit-margin-top="0"
     fit-margin-left="0"
     fit-margin-right="0"
     fit-margin-bottom="0"
     inkscape:zoom="5.6568542"
     inkscape:cx="56.343036"
     inkscape:cy="49.934728"
     inkscape:window-x="0"
     inkscape:window-y="0"
     inkscape:window-maximized="1"
     inkscape:current-layer="bold" />
  <path
     style="fill:#ffc306;fill-opacity:0.4;stroke:#ffc306;stroke-width:1.000054;stroke-miterlimit:4;stroke-dasharray:none;stroke-opacity:1"
     d="M 66.224609 0.50585938 C 64.525137 0.56252604 62.836951 0.98232394 61.273438 1.7753906 L 48.900391 7.984375 L 46.318359 9.2519531 C 43.689841 10.566086 41.830542 13.105401 41.332031 16.005859 C 40.878847 18.906275 41.831316 21.897728 43.916016 23.982422 C 45.683461 25.749675 48.039883 26.65625 50.396484 26.65625 C 51.801391 26.65625 53.252149 26.338096 54.566406 25.658203 L 56.060547 24.888672 L 62.542969 21.625 L 66.826172 19.472656 L 75.412109 28.060547 C 79.6268 32.365891 80.625022 38.801655 77.951172 44.058594 L 78.8125 44.375 C 81.441018 45.281667 84.38678 44.829144 86.607422 43.152344 L 86.607422 15.052734 L 86.607422 13.376953 L 86.607422 8.6640625 C 86.607422 8.3468358 86.606812 8.0295992 86.697266 7.7578125 L 81.802734 5.71875 C 81.757294 5.71875 81.711974 5.6738281 81.621094 5.6738281 L 71.244141 1.4121094 C 69.635308 0.75504269 67.924082 0.44919271 66.224609 0.50585938 z "
     transform="scale(0.046875)"
     id="path11817" />
  <path
     d="m 2.3325965,1.5787442 0.7498921,0.737146 v 0.0021 c -0.019119,0.06798 -0.055233,0.129585 -0.1062171,0.18057 -0.091346,0.08923 -0.2124339,0.133833 -0.3313969,0.12746 l -0.798752,-0.798734 c -0.019119,0.017 -0.027616,0.04036 -0.027616,0.06373 0,0.02761 0.012746,0.05735 0.040363,0.07435 l 0.7583895,0.743519 c -0.021243,0.05098 -0.050985,0.09772 -0.091346,0.138083 -0.087098,0.0871 -0.2018123,0.129584 -0.3165268,0.129584 -0.1104656,0 -0.2209313,-0.04036 -0.3059048,-0.123212 L 1.436125,2.4306052 c -0.1019683,-0.09348 -0.2209314,-0.159326 -0.3526404,-0.199687 0.00213,-0.0064 0.00213,-0.01274 0.00213,-0.01912 V 0.42735117 l 0.5459554,-0.22518 c 0.1572012,-0.06585 0.3335214,-0.0531 0.4779766,0.0255 l -0.03399,0.017 c -0.1826933,0.09134 -0.3122781,0.265543 -0.3483918,0.473727 -0.031865,0.201813 0.036114,0.40999803 0.180569,0.55657703 0.1062169,0.106218 0.2485478,0.172072 0.3993759,0.184819 -0.010622,0.01487 -0.01487,0.02974 -0.01487,0.04461 0,0.02974 0.012746,0.05735 0.040363,0.07435 z"
     id="path11819"
     style="fill:#ffc306;fill-opacity:0.4;stroke:#ffc306;stroke-width:0.04687753;stroke-miterlimit:4;stroke-dasharray:none;stroke-opacity:1"
     inkscape:connector-curvature="0" />
  <path
     d="m 3.4521237,1.9972402 c -0.016995,0.03398 -0.038238,0.06372 -0.065855,0.09135 -0.082848,0.08285 -0.1805689,0.129585 -0.2825372,0.138081 l -0.7668867,-0.76476 h 0.025491 c 0.1019683,0 0.2039366,-0.02549 0.2931589,-0.0701 l 0.067979,-0.03611 0.3653865,-0.184817 0.2952833,0.295283 c 0,0 0,0 0.00213,0.0021 0.1402065,0.142331 0.1635742,0.361139 0.065855,0.528962 z"
     id="path11821"
     style="fill:#ffc306;fill-opacity:0.4;stroke:#ffc306;stroke-width:0.04687753;stroke-miterlimit:4;stroke-dasharray:none;stroke-opacity:1"
     inkscape:connector-curvature="0" />
  <path
     d="M 0.7138493,2.3711232 H 0.18276427 c -0.08794767,0 -0.15932551,-0.07138 -0.15932551,-0.159325 V 0.40610817 c 0,-0.08794 0.07137784,-0.159325 0.15932551,-0.159325 H 0.7138493 c 0.0879477,0 0.15932551,0.07138 0.15932551,0.159325 V 2.2117982 c 0,0.08794 -0.0713778,0.159325 -0.15932551,0.159325 z"
     id="path11823"
     style="fill:#ffc306;fill-opacity:0.4;stroke:#ffc306;stroke-width:0.04687753;stroke-miterlimit:4;stroke-dasharray:none;stroke-opacity:1"
     inkscape:connector-curvature="0" />
  <path
     d="M 4.9625296,2.3711232 H 4.4314445 c -0.087948,0 -0.1593254,-0.07138 -0.1593254,-0.159325 V 0.40610817 c 0,-0.08794 0.071378,-0.159325 0.1593254,-0.159325 h 0.5310851 c 0.087948,0 0.1593255,0.07138 0.1593255,0.159325 V 2.2117982 c 0,0.08794 -0.071378,0.159325 -0.1593255,0.159325 z"
     id="path11825"
     style="fill:#ffc306;fill-opacity:0.4;stroke:#ffc306;stroke-width:0.04687753;stroke-miterlimit:4;stroke-dasharray:none;stroke-opacity:1"
     inkscape:connector-curvature="0" />
</svg>
