<?xml version="1.0" encoding="UTF-8" standalone="no"?>
<!-- Generator: Adobe Illustrator 23.0.1, SVG Export Plug-In . SVG Version: 6.00 Build 0)  -->

<svg
   xmlns:dc="http://purl.org/dc/elements/1.1/"
   xmlns:cc="http://creativecommons.org/ns#"
   xmlns:rdf="http://www.w3.org/1999/02/22-rdf-syntax-ns#"
   xmlns:svg="http://www.w3.org/2000/svg"
   xmlns="http://www.w3.org/2000/svg"
   xmlns:sodipodi="http://sodipodi.sourceforge.net/DTD/sodipodi-0.dtd"
   xmlns:inkscape="http://www.inkscape.org/namespaces/inkscape"
   version="1.1"
   id="Layer_1"
   x="0px"
   y="0px"
   viewBox="0 0 76.230768 63.999997"
   xml:space="preserve"
   sodipodi:docname="api.svg"
   width="76.230766"
   height="63.999996"
   inkscape:version="0.92.3 (2405546, 2018-03-11)"><metadata
   id="metadata13280"><rdf:RDF><cc:Work
       rdf:about=""><dc:format>image/svg+xml</dc:format><dc:type
         rdf:resource="http://purl.org/dc/dcmitype/StillImage" /><dc:title></dc:title></cc:Work></rdf:RDF></metadata><defs
   id="defs13278">
		
		
	
		
		
	</defs><sodipodi:namedview
   pagecolor="#ffffff"
   bordercolor="#666666"
   borderopacity="1"
   objecttolerance="10"
   gridtolerance="10"
   guidetolerance="10"
   inkscape:pageopacity="0"
   inkscape:pageshadow="2"
   inkscape:window-width="1920"
   inkscape:window-height="910"
   id="namedview13276"
   showgrid="false"
   fit-margin-top="0"
   fit-margin-left="0"
   fit-margin-right="0"
   fit-margin-bottom="0"
   inkscape:zoom="0.6776427"
   inkscape:cx="183.03329"
   inkscape:cy="16.774219"
   inkscape:window-x="0"
   inkscape:window-y="0"
   inkscape:window-maximized="1"
   inkscape:current-layer="g13273" />
<style
   type="text/css"
   id="style13149">
	.st0{fill:#FFFFFF;}
	.st1{fill:#2C282C;}
	.st2{fill:#173647;}
	.st3{fill:#50E4EA;}
	.st4{fill:#FCDC00;}
	.st5{fill:#85EA2D;}
	.st6{fill:#F4CF14;}
	.st7{fill:none;}
	.st8{fill:#04AADB;}
	.st9{fill:#07CED6;}
	.st10{fill:#63DB2A;}
	.st11{fill:#FF730B;}
	.st12{fill:#17D1FC;}
	.st13{fill:#00AADB;}
	.st14{fill:#758491;}
</style>
<g
   id="g13273"
   transform="translate(-19.876,-11.594224)">
	
	<path
   style="fill:#ffc306;fill-opacity:1;stroke-width:1.25161338"
   inkscape:connector-curvature="0"
   id="path13181"
   d="m 34.802742,23.3516 c -0.192749,2.142763 0.07134,4.358118 -0.07134,6.524661 -0.168968,2.167795 -0.43431,4.310557 -0.867369,6.453319 -0.602026,3.057691 -2.504478,5.369421 -5.12786,7.295654 5.105331,3.323034 5.682325,8.474675 6.019009,13.700161 0.168968,2.817382 0.09637,5.658544 0.385497,8.450894 0.216529,2.166542 1.058865,2.721007 3.299253,2.792349 0.914929,0.02378 1.852388,0 2.913756,0 v 6.693629 c -6.621035,1.131458 -12.086831,-0.745962 -13.43607,-6.355693 -0.43431,-2.046388 -0.723432,-4.141589 -0.818555,-6.260571 -0.145187,-2.239136 0.09512,-4.478272 -0.07259,-6.717409 C 26.544596,49.788179 25.749822,47.71801 19.876,47.428888 v -7.632339 c 0.433058,-0.09637 0.842336,-0.168968 1.275394,-0.216529 3.226659,-0.168968 4.598428,-1.156491 5.296828,-4.334337 0.337936,-1.781046 0.530684,-3.587124 0.602026,-5.416983 0.241561,-3.49075 0.145187,-7.054093 0.745962,-10.521062 0.842335,-4.983925 3.925059,-7.392029 9.054171,-7.681152 1.444362,-0.07259 2.913756,0 4.574647,0 v 6.838816 c -0.6984,0.04881 -1.300426,0.143935 -1.926233,0.143935 -4.165369,-0.145187 -4.38315,1.275394 -4.696053,4.742363 z m 8.017835,15.842923 h -0.09637 c -2.408104,-0.120155 -4.478273,1.757265 -4.59968,4.165369 -0.120154,2.431885 1.757266,4.503305 4.16537,4.622209 h 0.289123 c 2.384323,0.145187 4.429459,-1.685924 4.574647,-4.068995 v -0.24031 c 0.04881,-2.431885 -1.901201,-4.42946 -4.333086,-4.478273 z m 15.096961,0 c -2.335511,-0.07259 -4.286776,1.757265 -4.358118,4.068995 0,0.145187 0,0.265342 0.02503,0.409278 0,2.624633 1.781046,4.310556 4.478273,4.310556 2.648414,0 4.310557,-1.733484 4.310557,-4.454492 -0.02503,-2.624633 -1.783549,-4.358118 -4.455744,-4.334337 z m 15.458677,0 c -2.455665,-0.04881 -4.503305,1.902452 -4.574647,4.358118 0,2.455665 1.973794,4.42946 4.42946,4.42946 h 0.04881 c 2.215356,0.385497 4.454492,-1.757266 4.599679,-4.333086 0.118903,-2.384323 -2.047639,-4.454492 -4.503305,-4.454492 z m 21.212344,0.360465 c -2.793601,-0.120155 -4.190402,-1.058865 -4.88755,-3.708531 -0.43431,-1.684672 -0.6984,-3.443188 -0.794775,-5.176673 C 88.713486,27.443125 88.737266,24.192685 88.520737,20.966025 88.015086,13.309906 82.477948,10.637711 74.43508,11.960667 v 6.646067 c 1.275394,0 2.262917,0 3.25044,0.02378 1.709704,0.02378 3.01013,0.674619 3.177847,2.577072 0.168967,1.733484 0.168967,3.490749 0.337935,5.249266 0.337936,3.492002 0.529433,7.030313 1.131459,10.473501 0.530684,2.841163 2.480697,4.960144 4.911331,6.693629 -4.260492,2.864943 -5.513357,6.957719 -5.729887,11.557398 -0.120154,3.154066 -0.192748,6.331912 -0.360464,9.51101 -0.145187,2.888724 -1.155239,3.827434 -4.068995,3.900028 -0.818556,0.02378 -1.61333,0.09637 -2.528259,0.145187 v 6.813783 c 1.709703,0 3.27422,0.09637 4.838737,0 4.86377,-0.289122 7.801306,-2.648414 8.765049,-7.368248 0.409277,-2.600853 0.649587,-5.224234 0.722181,-7.848868 0.167716,-2.408104 0.145187,-4.839989 0.385497,-7.223061 0.360464,-3.732311 2.070168,-5.273047 5.802479,-5.513357 0.361717,-0.04881 0.698401,-0.120155 1.036336,-0.240309 v -7.633591 c -0.627058,-0.07259 -1.061368,-0.143935 -1.518207,-0.168966 z"
   class="st2" />
	
</g>
</svg>