<?xml version="1.0" encoding="UTF-8" standalone="no"?>
<svg
   xmlns:dc="http://purl.org/dc/elements/1.1/"
   xmlns:cc="http://creativecommons.org/ns#"
   xmlns:rdf="http://www.w3.org/1999/02/22-rdf-syntax-ns#"
   xmlns:svg="http://www.w3.org/2000/svg"
   xmlns="http://www.w3.org/2000/svg"
   xmlns:sodipodi="http://sodipodi.sourceforge.net/DTD/sodipodi-0.dtd"
   xmlns:inkscape="http://www.inkscape.org/namespaces/inkscape"
   id="Capa_1"
   enable-background="new 0 0 512 512"
   height="64"
   viewBox="0 0 64 64"
   width="64"
   version="1.1"
   sodipodi:docname="balance.svg"
   inkscape:version="0.92.3 (2405546, 2018-03-11)">
  <metadata
     id="metadata4838">
    <rdf:RDF>
      <cc:Work
         rdf:about="">
        <dc:format>image/svg+xml</dc:format>
        <dc:type
           rdf:resource="http://purl.org/dc/dcmitype/StillImage" />
        <dc:title></dc:title>
      </cc:Work>
    </rdf:RDF>
  </metadata>
  <defs
     id="defs4836" />
  <sodipodi:namedview
     pagecolor="#ffffff"
     bordercolor="#666666"
     borderopacity="1"
     objecttolerance="10"
     gridtolerance="10"
     guidetolerance="10"
     inkscape:pageopacity="0"
     inkscape:pageshadow="2"
     inkscape:window-width="1920"
     inkscape:window-height="910"
     id="namedview4834"
     showgrid="false"
     fit-margin-top="0"
     fit-margin-left="0"
     fit-margin-right="0"
     fit-margin-bottom="0"
     inkscape:zoom="0.70507813"
     inkscape:cx="14.442738"
     inkscape:cy="111.20599"
     inkscape:window-x="0"
     inkscape:window-y="0"
     inkscape:window-maximized="1"
     inkscape:current-layer="Capa_1" />
  <g
     id="g4831"
     style="fill:#ffc306;fill-opacity:1"
     transform="scale(0.125)">
    <path
       d="m 391,496 c 0,-24.853 -20.147,-45 -45,-45 H 166 c -24.853,0 -45,20.147 -45,45 v 16 h 270 z"
       id="path4827"
       style="fill:#ffc306;fill-opacity:1"
       inkscape:connector-curvature="0" />
    <path
       d="M 482,121 V 91 H 298.237 C 293.705,78.292 283.708,68.295 271,63.763 V 0 H 241 V 63.763 C 228.292,68.295 218.295,78.292 213.763,91 H 30 v 30 H 67.504 L 0,286 c 0,41.353 33.647,75 75,75 h 30 c 41.353,0 75,-33.647 75,-75 L 112.191,121 h 101.573 c 4.532,12.708 14.529,22.705 27.237,27.237 v 214.407 c -29.315,5.999 -52.505,29.03 -58.482,58.356 h 146.964 c -5.977,-29.326 -29.167,-52.357 -58.482,-58.356 V 148.237 C 283.709,143.705 293.706,133.708 298.238,121 H 399.505 L 332,286 c 0,41.353 33.647,75 75,75 h 30 c 41.353,0 75,-33.647 75,-75 L 444.191,121 Z M 142.496,271 H 37.504 L 90,144.994 Z m 332,0 H 369.504 L 422,144.994 Z"
       id="path4829"
       style="fill:#ffc306;fill-opacity:1"
       inkscape:connector-curvature="0" />
  </g>
</svg>
