<?xml version="1.0" encoding="UTF-8" standalone="no"?>
<svg
   xmlns:dc="http://purl.org/dc/elements/1.1/"
   xmlns:cc="http://creativecommons.org/ns#"
   xmlns:rdf="http://www.w3.org/1999/02/22-rdf-syntax-ns#"
   xmlns:svg="http://www.w3.org/2000/svg"
   xmlns="http://www.w3.org/2000/svg"
   xmlns:sodipodi="http://sodipodi.sourceforge.net/DTD/sodipodi-0.dtd"
   xmlns:inkscape="http://www.inkscape.org/namespaces/inkscape"
   viewBox="0 0 10.383043 8"
   width="83.064346"
   height="64"
   version="1.1"
   id="svg7026"
   sodipodi:docname="book.svg"
   inkscape:version="0.92.3 (2405546, 2018-03-11)">
  <metadata
     id="metadata7032">
    <rdf:RDF>
      <cc:Work
         rdf:about="">
        <dc:format>image/svg+xml</dc:format>
        <dc:type
           rdf:resource="http://purl.org/dc/dcmitype/StillImage" />
        <dc:title />
      </cc:Work>
    </rdf:RDF>
  </metadata>
  <defs
     id="defs7030" />
  <sodipodi:namedview
     pagecolor="#ffffff"
     bordercolor="#666666"
     borderopacity="1"
     objecttolerance="10"
     gridtolerance="10"
     guidetolerance="10"
     inkscape:pageopacity="0"
     inkscape:pageshadow="2"
     inkscape:window-width="1920"
     inkscape:window-height="910"
     id="namedview7028"
     showgrid="false"
     fit-margin-top="0"
     fit-margin-left="0"
     fit-margin-right="0"
     fit-margin-bottom="0"
     inkscape:zoom="7.375"
     inkscape:cx="73.165095"
     inkscape:cy="30.71629"
     inkscape:window-x="0"
     inkscape:window-y="0"
     inkscape:window-maximized="1"
     inkscape:current-layer="svg7026" />
  <path
     style="fill:#ffc306;fill-opacity:1;stroke-width:1.38440573"
     d="M 6.921875 0 C 6.1572886 0 5.5371094 0.62017945 5.5371094 1.3847656 L 5.5371094 53.992188 C 5.5371095 54.756772 6.1572892 55.376953 6.921875 55.376953 L 23.242188 55.376953 C 29.03846 55.378227 34.722406 56.979723 39.666016 60.005859 C 39.02799 60.953719 37.872299 61.412018 36.757812 61.160156 C 28.076078 59.156926 19.196961 58.144986 10.287109 58.144531 L 2.7695312 58.144531 L 2.7695312 8.3066406 C 2.7695312 6.4607671 0 6.4607671 0 8.3066406 L 0 59.529297 C 8.8365545e-08 60.293881 0.62017945 60.914063 1.3847656 60.914062 L 10.287109 60.914062 C 18.986337 60.915427 27.656201 61.903963 36.132812 63.859375 C 38.11869 64.317839 40.1947 63.642198 41.53125 62.103516 C 42.867447 63.642728 44.945735 64.318479 46.931641 63.859375 C 55.408309 61.904292 64.078134 60.91576 72.777344 60.914062 L 81.679688 60.914062 C 82.444248 60.914064 83.064453 60.293886 83.064453 59.529297 L 83.064453 8.3066406 C 83.064453 7.5420534 82.444256 6.9218738 81.679688 6.921875 C 80.915127 6.9218782 80.294922 7.5420568 80.294922 8.3066406 L 80.294922 58.144531 L 72.777344 58.144531 C 63.868428 58.14535 54.989452 59.157287 46.308594 61.160156 C 45.193854 61.415301 44.036348 60.956282 43.400391 60.005859 C 48.343198 56.980214 54.026934 55.378736 59.822266 55.376953 L 76.142578 55.376953 C 76.907162 55.376953 77.527344 54.756777 77.527344 53.992188 L 77.527344 38.300781 L 77.527344 1.3847656 C 77.527344 0.62017945 76.907165 8.8365553e-08 76.142578 0 L 53.4375 0 C 48.390183 0.0037480347 43.778993 2.8616699 41.53125 7.3808594 C 39.283507 2.8616699 34.67427 0.0037480347 29.626953 0 L 6.921875 0 z M 32.755859 3.2441406 C 34.073794 3.6548213 35.281086 4.3174951 36.320312 5.1757812 C 35.281086 4.3176284 34.073795 3.6547453 32.755859 3.2441406 z M 50.308594 3.2441406 C 48.990659 3.6547404 47.783367 4.3176259 46.744141 5.1757812 C 47.783367 4.3174951 48.990659 3.6548213 50.308594 3.2441406 z M 13.84375 9.6914062 L 29.626953 9.6914062 A 13.261223 13.261223 0 0 1 36.996094 11.923828 L 37.001953 11.923828 A 1.3845781 1.3845781 0 1 1 35.464844 14.226562 A 10.488259 10.488259 0 0 0 29.626953 12.458984 L 13.84375 12.458984 A 1.3844058 1.3844058 0 0 1 13.84375 9.6914062 z M 53.4375 9.6914062 L 69.220703 9.6914062 A 1.3844058 1.3844058 0 0 1 69.220703 12.458984 L 53.4375 12.458984 A 10.49518 10.49518 0 0 0 47.599609 14.226562 A 1.3845781 1.3845781 0 0 1 46.0625 11.923828 A 13.263991 13.263991 0 0 1 53.4375 9.6914062 z M 13.84375 16.613281 L 29.626953 16.613281 A 13.261223 13.261223 0 0 1 36.996094 18.845703 L 37.001953 18.845703 A 1.3851255 1.3851255 0 1 1 35.464844 21.150391 A 10.488259 10.488259 0 0 0 29.626953 19.380859 L 13.84375 19.380859 A 1.3844058 1.3844058 0 0 1 13.84375 16.613281 z M 53.4375 16.613281 L 69.220703 16.613281 A 1.3844058 1.3844058 0 0 1 69.220703 19.380859 L 53.4375 19.380859 A 10.49518 10.49518 0 0 0 47.599609 21.150391 A 1.3851255 1.3851255 0 0 1 46.0625 18.845703 A 13.263991 13.263991 0 0 1 53.4375 16.613281 z M 13.84375 23.535156 L 29.626953 23.535156 A 13.261223 13.261223 0 0 1 36.996094 25.767578 L 37.001953 25.767578 A 1.3851255 1.3851255 0 1 1 35.464844 28.072266 A 10.488259 10.488259 0 0 0 29.626953 26.302734 L 13.84375 26.302734 A 1.3844058 1.3844058 0 0 1 13.84375 23.535156 z M 53.4375 23.535156 L 69.220703 23.535156 A 1.3844058 1.3844058 0 0 1 69.220703 26.302734 L 53.4375 26.302734 A 10.49518 10.49518 0 0 0 47.599609 28.072266 A 1.3851255 1.3851255 0 0 1 46.0625 25.767578 A 13.263991 13.263991 0 0 1 53.4375 23.535156 z M 13.84375 30.457031 L 29.626953 30.457031 A 13.261223 13.261223 0 0 1 36.996094 32.689453 L 37.001953 32.689453 A 1.3851255 1.3851255 0 1 1 35.464844 34.994141 A 10.488259 10.488259 0 0 0 29.626953 33.226562 L 13.84375 33.226562 A 1.3847655 1.3847655 0 0 1 13.84375 30.457031 z M 53.4375 30.457031 L 69.220703 30.457031 A 1.3847655 1.3847655 0 0 1 69.220703 33.226562 L 53.4375 33.226562 A 10.49518 10.49518 0 0 0 47.599609 34.994141 A 1.3851255 1.3851255 0 0 1 46.0625 32.689453 A 13.263991 13.263991 0 0 1 53.4375 30.457031 z M 13.84375 37.378906 L 29.626953 37.378906 A 13.261223 13.261223 0 0 1 36.996094 39.611328 L 37.001953 39.611328 A 1.3851255 1.3851255 0 1 1 35.464844 41.916016 A 10.488259 10.488259 0 0 0 29.626953 40.148438 L 13.84375 40.148438 A 1.384766 1.384766 0 0 1 13.84375 37.378906 z M 53.4375 37.378906 L 69.220703 37.378906 A 1.384766 1.384766 0 0 1 69.220703 40.148438 L 53.4375 40.148438 A 10.49518 10.49518 0 0 0 47.599609 41.916016 A 1.3851255 1.3851255 0 0 1 46.0625 39.611328 A 13.263991 13.263991 0 0 1 53.4375 37.378906 z M 13.84375 44.300781 L 29.626953 44.300781 A 13.261223 13.261223 0 0 1 37.001953 46.533203 A 1.3851255 1.3851255 0 1 1 35.464844 48.837891 A 10.488259 10.488259 0 0 0 29.626953 47.070312 L 13.84375 47.070312 A 1.3847655 1.3847655 0 0 1 13.84375 44.300781 z M 53.4375 44.300781 L 69.220703 44.300781 A 1.3847655 1.3847655 0 0 1 69.220703 47.070312 L 53.4375 47.070312 A 10.49518 10.49518 0 0 0 47.599609 48.837891 A 1.3851255 1.3851255 0 0 1 46.0625 46.533203 A 13.263991 13.263991 0 0 1 53.4375 44.300781 z "
     transform="scale(0.125)"
     id="path6997-8" />
</svg>
