<?xml version="1.0" encoding="UTF-8" standalone="no"?>
<svg
   xmlns:dc="http://purl.org/dc/elements/1.1/"
   xmlns:cc="http://creativecommons.org/ns#"
   xmlns:rdf="http://www.w3.org/1999/02/22-rdf-syntax-ns#"
   xmlns:svg="http://www.w3.org/2000/svg"
   xmlns="http://www.w3.org/2000/svg"
   xmlns:sodipodi="http://sodipodi.sourceforge.net/DTD/sodipodi-0.dtd"
   xmlns:inkscape="http://www.inkscape.org/namespaces/inkscape"
   viewBox="0 0 10.383043 8"
   width="83.064346"
   height="64"
   version="1.1"
   id="svg7026"
   sodipodi:docname="book.svg"
   inkscape:version="0.92.3 (2405546, 2018-03-11)">
  <metadata
     id="metadata7032">
    <rdf:RDF>
      <cc:Work
         rdf:about="">
        <dc:format>image/svg+xml</dc:format>
        <dc:type
           rdf:resource="http://purl.org/dc/dcmitype/StillImage" />
        <dc:title></dc:title>
      </cc:Work>
    </rdf:RDF>
  </metadata>
  <defs
     id="defs7030" />
  <sodipodi:namedview
     pagecolor="#ffffff"
     bordercolor="#666666"
     borderopacity="1"
     objecttolerance="10"
     gridtolerance="10"
     guidetolerance="10"
     inkscape:pageopacity="0"
     inkscape:pageshadow="2"
     inkscape:window-width="1920"
     inkscape:window-height="910"
     id="namedview7028"
     showgrid="false"
     fit-margin-top="0"
     fit-margin-left="0"
     fit-margin-right="0"
     fit-margin-bottom="0"
     inkscape:zoom="5.2149125"
     inkscape:cx="89.134716"
     inkscape:cy="34.949976"
     inkscape:window-x="0"
     inkscape:window-y="0"
     inkscape:window-maximized="1"
     inkscape:current-layer="svg7026" />
  <path
     d="M 9.3447389,5.5376231 V 6.5759274 H 7.4776947 C 6.7370886,6.5752248 6.0089786,6.766748 5.3645723,7.1317663 V 2.4227101 c 0,-0.2307342 -0.3461014,-0.2307342 -0.3461014,0 V 7.1315932 C 4.3740601,6.7666057 3.6459431,6.5751403 2.9053485,6.5759274 H 1.0383043 V 0.34610146 h 2.6649811 c 0.7264969,4.8454e-4 1.3151857,0.58955369 1.3151855,1.31605074 0,0.2307342 0.3461014,0.2307342 0.3461014,0 -2e-7,-0.72649705 0.5886886,-1.31557312 1.3151855,-1.31605074 H 9.3447389 V 4.8454202 c -3.0955142,-3.1362446 0.5101541,-7.5081019 0,0.6922029 z"
     id="path6997-8"
     inkscape:connector-curvature="0"
     style="fill:#ffc306;fill-opacity:0.40000001;stroke-width:0.17305072"
     sodipodi:nodetypes="ccccsscccccsscccc" />
  <g
     id="Outline"
     transform="matrix(0.17305072,0,0,0.17305072,-0.34610144,-1.9035579)"
     style="fill:#ffc306;fill-opacity:1">
    <g
       id="g7023"
       style="fill:#ffc306;fill-opacity:1">
      <path
         d="m 61,16 a 1,1 0 0 0 -1,1 V 53 H 54.57 A 85.082,85.082 0 0 0 35.45,55.178 1.992,1.992 0 0 1 33.35,54.344 22.732,22.732 0 0 1 45.211,51 H 57 a 1,1 0 0 0 1,-1 v -7 a 1,1 0 0 0 -2,0 v 6 H 45.211 A 24.728,24.728 0 0 0 33,52.212 V 25 a 1,1 0 0 0 -2,0 V 52.211 A 24.724,24.724 0 0 0 18.789,49 H 8 V 13 h 15.4 a 7.605,7.605 0 0 1 7.6,7.605 1,1 0 1 0 2,0 A 7.605,7.605 0 0 1 40.6,13 H 56 v 26 a 1,1 0 0 0 2,0 V 12 A 1,1 0 0 0 57,11 H 40.6 A 9.613,9.613 0 0 0 32,16.332 9.613,9.613 0 0 0 23.4,11 H 7 a 1,1 0 0 0 -1,1 v 38 a 1,1 0 0 0 1,1 h 11.789 a 22.732,22.732 0 0 1 11.863,3.344 2,2 0 0 1 -2.1,0.834 A 85.069,85.069 0 0 0 9.43,53 H 4 V 17 a 1,1 0 0 0 -2,0 v 37 a 1,1 0 0 0 1,1 H 9.43 A 83.117,83.117 0 0 1 28.1,57.127 3.98,3.98 0 0 0 32,55.859 3.978,3.978 0 0 0 35.9,57.127 83.145,83.145 0 0 1 54.57,55 H 61 a 1,1 0 0 0 1,-1 V 17 a 1,1 0 0 0 -1,-1 z"
         id="path6997"
         inkscape:connector-curvature="0"
         style="fill:#ffc306;fill-opacity:1" />
      <path
         d="M 28.723,19.613 A 9.579,9.579 0 0 0 23.4,18 H 12 a 1,1 0 0 0 0,2 h 11.4 a 7.576,7.576 0 0 1 4.218,1.277 1.0001245,1.0001245 0 1 0 1.11,-1.664 z"
         id="path6999"
         inkscape:connector-curvature="0"
         style="fill:#ffc306;fill-opacity:1" />
      <path
         d="M 52,18 H 40.6 a 9.581,9.581 0 0 0 -5.328,1.613 1.0001245,1.0001245 0 0 0 1.11,1.664 A 7.581,7.581 0 0 1 40.6,20 H 52 a 1,1 0 0 0 0,-2 z"
         id="path7001"
         inkscape:connector-curvature="0"
         style="fill:#ffc306;fill-opacity:1" />
      <path
         d="M 28.723,24.613 A 9.579,9.579 0 0 0 23.4,23 H 12 a 1,1 0 0 0 0,2 h 11.4 a 7.576,7.576 0 0 1 4.218,1.277 1.0001245,1.0001245 0 1 0 1.11,-1.664 z"
         id="path7003"
         inkscape:connector-curvature="0"
         style="fill:#ffc306;fill-opacity:1" />
      <path
         d="M 52,23 H 40.6 a 9.581,9.581 0 0 0 -5.328,1.613 1.0001245,1.0001245 0 0 0 1.11,1.664 A 7.581,7.581 0 0 1 40.6,25 H 52 a 1,1 0 0 0 0,-2 z"
         id="path7005"
         inkscape:connector-curvature="0"
         style="fill:#ffc306;fill-opacity:1" />
      <path
         d="M 28.723,29.613 A 9.579,9.579 0 0 0 23.4,28 H 12 a 1,1 0 0 0 0,2 h 11.4 a 7.576,7.576 0 0 1 4.218,1.277 1.0001245,1.0001245 0 1 0 1.11,-1.664 z"
         id="path7007"
         inkscape:connector-curvature="0"
         style="fill:#ffc306;fill-opacity:1" />
      <path
         d="M 52,28 H 40.6 a 9.581,9.581 0 0 0 -5.328,1.613 1.0001245,1.0001245 0 0 0 1.11,1.664 A 7.581,7.581 0 0 1 40.6,30 H 52 a 1,1 0 0 0 0,-2 z"
         id="path7009"
         inkscape:connector-curvature="0"
         style="fill:#ffc306;fill-opacity:1" />
      <path
         d="M 28.723,34.613 A 9.579,9.579 0 0 0 23.4,33 H 12 a 1,1 0 0 0 0,2 h 11.4 a 7.576,7.576 0 0 1 4.218,1.277 1.0001245,1.0001245 0 1 0 1.11,-1.664 z"
         id="path7011"
         inkscape:connector-curvature="0"
         style="fill:#ffc306;fill-opacity:1" />
      <path
         d="M 52,33 H 40.6 a 9.581,9.581 0 0 0 -5.328,1.613 1.0001245,1.0001245 0 0 0 1.11,1.664 A 7.581,7.581 0 0 1 40.6,35 H 52 a 1,1 0 0 0 0,-2 z"
         id="path7013"
         inkscape:connector-curvature="0"
         style="fill:#ffc306;fill-opacity:1" />
      <path
         d="M 28.723,39.613 A 9.579,9.579 0 0 0 23.4,38 H 12 a 1,1 0 0 0 0,2 h 11.4 a 7.576,7.576 0 0 1 4.218,1.277 1.0001245,1.0001245 0 1 0 1.11,-1.664 z"
         id="path7015"
         inkscape:connector-curvature="0"
         style="fill:#ffc306;fill-opacity:1" />
      <path
         d="M 52,38 H 40.6 a 9.581,9.581 0 0 0 -5.328,1.613 1.0001245,1.0001245 0 0 0 1.11,1.664 A 7.581,7.581 0 0 1 40.6,40 H 52 a 1,1 0 0 0 0,-2 z"
         id="path7017"
         inkscape:connector-curvature="0"
         style="fill:#ffc306;fill-opacity:1" />
      <path
         d="M 23.4,43 H 12 a 1,1 0 0 0 0,2 h 11.4 a 7.576,7.576 0 0 1 4.218,1.277 1.0001245,1.0001245 0 1 0 1.11,-1.664 A 9.579,9.579 0 0 0 23.4,43 Z"
         id="path7019"
         inkscape:connector-curvature="0"
         style="fill:#ffc306;fill-opacity:1" />
      <path
         d="M 52,43 H 40.6 a 9.581,9.581 0 0 0 -5.328,1.613 1.0001245,1.0001245 0 0 0 1.11,1.664 A 7.581,7.581 0 0 1 40.6,45 H 52 a 1,1 0 0 0 0,-2 z"
         id="path7021"
         inkscape:connector-curvature="0"
         style="fill:#ffc306;fill-opacity:1" />
    </g>
  </g>
</svg>
