<?xml version="1.0" encoding="UTF-8" standalone="no"?>
<!-- Generator: Adobe Illustrator 19.0.0, SVG Export Plug-In . SVG Version: 6.00 Build 0)  -->

<svg
   xmlns:dc="http://purl.org/dc/elements/1.1/"
   xmlns:cc="http://creativecommons.org/ns#"
   xmlns:rdf="http://www.w3.org/1999/02/22-rdf-syntax-ns#"
   xmlns:svg="http://www.w3.org/2000/svg"
   xmlns="http://www.w3.org/2000/svg"
   xmlns:sodipodi="http://sodipodi.sourceforge.net/DTD/sodipodi-0.dtd"
   xmlns:inkscape="http://www.inkscape.org/namespaces/inkscape"
   version="1.1"
   id="Layer_1"
   x="0px"
   y="0px"
   viewBox="0 0 86.857102 64"
   xml:space="preserve"
   sodipodi:docname="browser.svg"
   width="86.857101"
   height="64"
   inkscape:version="0.92.3 (2405546, 2018-03-11)"><metadata
   id="metadata12972"><rdf:RDF><cc:Work
       rdf:about=""><dc:format>image/svg+xml</dc:format><dc:type
         rdf:resource="http://purl.org/dc/dcmitype/StillImage" /><dc:title></dc:title></cc:Work></rdf:RDF></metadata><defs
   id="defs12970">
	
	

	
	
	
</defs><sodipodi:namedview
   pagecolor="#ffffff"
   bordercolor="#666666"
   borderopacity="1"
   objecttolerance="10"
   gridtolerance="10"
   guidetolerance="10"
   inkscape:pageopacity="0"
   inkscape:pageshadow="2"
   inkscape:window-width="1920"
   inkscape:window-height="910"
   id="namedview12968"
   showgrid="false"
   fit-margin-top="0"
   fit-margin-left="0"
   fit-margin-right="0"
   fit-margin-bottom="0"
   inkscape:zoom="4.0438107"
   inkscape:cx="134.10781"
   inkscape:cy="23.707638"
   inkscape:window-x="0"
   inkscape:window-y="0"
   inkscape:window-maximized="1"
   inkscape:current-layer="Layer_1" />

<path
   style="fill:#ffc306;fill-opacity:0.4;stroke:#ffc306;stroke-width:1.00006068;stroke-miterlimit:4;stroke-dasharray:none;stroke-opacity:1"
   d="M 0.5 12.712891 L 0.5 62.802734 C 0.5 63.20068 0.82418999 63.5 1.1972656 63.5 L 85.636719 63.5 C 86.034663 63.5 86.332031 63.175811 86.332031 62.802734 L 86.332031 12.712891 L 0.5 12.712891 z M 8.2109375 21.791016 L 10.498047 21.791016 L 12.041016 26.566406 L 13.582031 21.791016 L 15.720703 21.791016 L 17.263672 26.566406 L 18.804688 21.791016 L 21.09375 21.791016 L 18.408203 29.699219 L 16.119141 29.699219 L 14.677734 25.396484 L 13.160156 29.673828 L 10.871094 29.673828 L 8.2109375 21.791016 z M 21.441406 21.791016 L 23.730469 21.791016 L 25.271484 26.566406 L 26.814453 21.791016 L 28.953125 21.791016 L 30.496094 26.566406 L 32.037109 21.791016 L 34.326172 21.791016 L 31.638672 29.699219 L 29.351562 29.699219 L 27.908203 25.396484 L 26.416016 29.673828 L 24.128906 29.673828 L 21.441406 21.791016 z M 34.699219 21.791016 L 36.986328 21.791016 L 38.529297 26.566406 L 40.070312 21.791016 L 42.208984 21.791016 L 43.751953 26.566406 L 45.294922 21.791016 L 47.582031 21.791016 L 44.896484 29.699219 L 42.607422 29.699219 L 41.166016 25.396484 L 39.673828 29.673828 L 37.384766 29.673828 L 34.699219 21.791016 z M 55.765625 33.207031 L 76.806641 37.882812 L 69.992188 42.857422 L 77.453125 50.34375 L 72.902344 54.894531 L 65.439453 47.408203 L 60.441406 54.248047 L 55.765625 33.207031 z "
   id="path12907" />
<path
   style="fill:#ffc306;fill-opacity:1;stroke:#ffc306;stroke-width:1.00006068;stroke-miterlimit:4;stroke-dasharray:none;stroke-opacity:1"
   d="m 4.8774509,0.50003034 c -2.4125558,0 -4.37732317,1.96476436 -4.37732317,4.37731916 V 13.38328 H 86.35707 V 4.8773495 c 0,-2.4125548 -1.964764,-4.37731916 -4.377328,-4.37731916 z M 68.300302,3.8076741 a 3.1835787,3.1835787 0 0 1 3.183776,3.1837767 3.1835787,3.1835787 0 0 1 -3.183776,3.1837672 3.1835787,3.1835787 0 0 1 -3.183767,-3.1837672 3.1835787,3.1835787 0 0 1 3.183767,-3.1837767 z m 9.152984,0 A 3.1835787,3.1835787 0 0 1 80.636581,6.9914508 3.1835787,3.1835787 0 0 1 77.453286,10.175218 3.1835787,3.1835787 0 0 1 74.26952,6.9914508 3.1835787,3.1835787 0 0 1 77.453286,3.8076741 Z"
   id="path12909"
   inkscape:connector-curvature="0" />
<path
   style="fill:#ffffff;stroke-width:0.24871707"
   d="M 51.437286,10.050668 H 9.3294867 c -1.7161479,0 -3.1089637,-1.3928158 -3.1089637,-3.1089627 v 0 c 0,-1.7161469 1.3928158,-3.1089627 3.1089637,-3.1089627 H 51.437286 c 1.716147,0 3.108963,1.3928158 3.108963,3.1089627 v 0 c 0,1.7161469 -1.392816,3.1089627 -3.108963,3.1089627 z"
   id="path12911"
   inkscape:connector-curvature="0" />

<g
   id="g12925"
   style="fill:#ffc306;fill-opacity:1"
   transform="matrix(0.24871708,0,0,0.24871708,-19.372465,-30.813547)">
	<path
   style="fill:#ffc306;fill-opacity:1"
   d="m 116.3,156.4 h -2.5 l -3,-8.7 h 2.5 l 1.7,5.3 1.7,-5.3 h 2.4 l 1.7,5.3 1.7,-5.3 h 2.5 l -3,8.7 h -2.5 l -1.6,-4.8 z"
   id="path12919"
   inkscape:connector-curvature="0" />
	<path
   style="fill:#ffc306;fill-opacity:1"
   d="m 131,156.4 h -2.5 l -3,-8.7 h 2.5 l 1.7,5.3 1.7,-5.3 h 2.4 l 1.7,5.3 1.7,-5.3 h 2.5 l -3,8.7 h -2.5 l -1.6,-4.8 z"
   id="path12921"
   inkscape:connector-curvature="0" />
	<path
   style="fill:#ffc306;fill-opacity:1"
   d="m 145.6,156.4 h -2.5 l -3,-8.7 h 2.5 l 1.7,5.3 1.7,-5.3 h 2.4 l 1.7,5.3 1.7,-5.3 h 2.5 l -3,8.7 h -2.5 l -1.6,-4.8 z"
   id="path12923"
   inkscape:connector-curvature="0" />
</g>


<g
   id="g12937"
   transform="matrix(0.24871708,0,0,0.24871708,-19.372465,-30.813547)">
</g>
<g
   id="g12939"
   transform="matrix(0.24871708,0,0,0.24871708,-19.372465,-30.813547)">
</g>
<g
   id="g12941"
   transform="matrix(0.24871708,0,0,0.24871708,-19.372465,-30.813547)">
</g>
<g
   id="g12943"
   transform="matrix(0.24871708,0,0,0.24871708,-19.372465,-30.813547)">
</g>
<g
   id="g12945"
   transform="matrix(0.24871708,0,0,0.24871708,-19.372465,-30.813547)">
</g>
<g
   id="g12947"
   transform="matrix(0.24871708,0,0,0.24871708,-19.372465,-30.813547)">
</g>
<g
   id="g12949"
   transform="matrix(0.24871708,0,0,0.24871708,-19.372465,-30.813547)">
</g>
<g
   id="g12951"
   transform="matrix(0.24871708,0,0,0.24871708,-19.372465,-30.813547)">
</g>
<g
   id="g12953"
   transform="matrix(0.24871708,0,0,0.24871708,-19.372465,-30.813547)">
</g>
<g
   id="g12955"
   transform="matrix(0.24871708,0,0,0.24871708,-19.372465,-30.813547)">
</g>
<g
   id="g12957"
   transform="matrix(0.24871708,0,0,0.24871708,-19.372465,-30.813547)">
</g>
<g
   id="g12959"
   transform="matrix(0.24871708,0,0,0.24871708,-19.372465,-30.813547)">
</g>
<g
   id="g12961"
   transform="matrix(0.24871708,0,0,0.24871708,-19.372465,-30.813547)">
</g>
<g
   id="g12963"
   transform="matrix(0.24871708,0,0,0.24871708,-19.372465,-30.813547)">
</g>
<g
   id="g12965"
   transform="matrix(0.24871708,0,0,0.24871708,-19.372465,-30.813547)">
</g>
</svg>