<?xml version="1.0" encoding="UTF-8" standalone="no"?>
<svg
   xmlns:dc="http://purl.org/dc/elements/1.1/"
   xmlns:cc="http://creativecommons.org/ns#"
   xmlns:rdf="http://www.w3.org/1999/02/22-rdf-syntax-ns#"
   xmlns:svg="http://www.w3.org/2000/svg"
   xmlns="http://www.w3.org/2000/svg"
   xmlns:sodipodi="http://sodipodi.sourceforge.net/DTD/sodipodi-0.dtd"
   xmlns:inkscape="http://www.inkscape.org/namespaces/inkscape"
   aria-hidden="true"
   focusable="false"
   data-prefix="fas"
   data-icon="bug"
   class="svg-inline--fa fa-bug fa-w-16"
   role="img"
   viewBox="0 0 63.99992 63.999996"
   version="1.1"
   id="svg24453"
   sodipodi:docname="bug.svg"
   width="63.99992"
   height="63.999996"
   inkscape:version="0.92.3 (2405546, 2018-03-11)">
  <metadata
     id="metadata24459">
    <rdf:RDF>
      <cc:Work
         rdf:about="">
        <dc:format>image/svg+xml</dc:format>
        <dc:type
           rdf:resource="http://purl.org/dc/dcmitype/StillImage" />
        <dc:title></dc:title>
      </cc:Work>
    </rdf:RDF>
  </metadata>
  <defs
     id="defs24457" />
  <sodipodi:namedview
     pagecolor="#ffffff"
     bordercolor="#666666"
     borderopacity="1"
     objecttolerance="10"
     gridtolerance="10"
     guidetolerance="10"
     inkscape:pageopacity="0"
     inkscape:pageshadow="2"
     inkscape:window-width="1920"
     inkscape:window-height="910"
     id="namedview24455"
     showgrid="false"
     fit-margin-top="0"
     fit-margin-left="0"
     fit-margin-right="0"
     fit-margin-bottom="0"
     inkscape:zoom="1.4101562"
     inkscape:cx="255.9994"
     inkscape:cy="256.00038"
     inkscape:window-x="0"
     inkscape:window-y="0"
     inkscape:window-maximized="1"
     inkscape:current-layer="svg24453" />
  <path
     d="m 63.998378,36.11247 c -0.05975,2.17875 -1.902124,3.8875 -4.081622,3.8875 h -6.91687 v 1.99999 c 0,2.733 -0.61025,5.323 -1.699999,7.64312 l 7.528494,7.5285 c 1.561999,1.56212 1.561999,4.09475 0,5.65687 -1.562248,1.56212 -4.094872,1.562 -5.656995,0 l -6.841995,-6.842 c -3.093748,2.50913 -7.03562,4.0135 -11.329492,4.0135 V 29.49997 c 0,-0.82837 -0.671625,-1.5 -1.499999,-1.5 h -2.999998 c -0.828374,0 -1.499999,0.67163 -1.499999,1.5 v 30.49998 c -4.293872,0 -8.235744,-1.50437 -11.329491,-4.0135 l -6.841995,6.842 c -1.5622493,1.56212 -4.0948724,1.562 -5.6569963,0 -1.5619988,-1.56212 -1.5619988,-4.09475 0,-5.65687 l 7.5284943,-7.5285 C 11.610166,47.32296 10.999916,44.73296 10.999916,41.99996 V 39.99997 H 4.0831715 c -2.1794984,0 -4.02187205,-1.70875 -4.081622,-3.8875 -0.06212496,-2.2605 1.7518737,-4.1125 3.9983721,-4.1125 H 10.999916 V 24.65685 L 5.1714207,18.82836 c -1.5619988,-1.56213 -1.5619988,-4.09475 0,-5.65687 1.5622489,-1.56213 4.094747,-1.56213 5.6569963,0 l 6.82837,6.82849 h 28.686104 l 6.82837,-6.82837 c 1.562248,-1.56212 4.094747,-1.56212 5.656995,0 1.561999,1.56212 1.561999,4.09475 0,5.65687 l -5.82837,5.82837 v 7.34312 h 6.999995 c 2.246498,0 4.060497,1.852 3.998497,4.1125 z M 32.124901,0 c -7.731994,0 -13.99999,6.26799 -13.99999,13.99998 h 27.99998 C 46.124891,6.26799 39.856895,0 32.124901,0 Z"
     id="path24451"
     style="fill:#ffc306;fill-opacity:1;stroke-width:0.12499991"
     inkscape:connector-curvature="0" />
</svg>
