<?xml version="1.0" encoding="UTF-8" standalone="no"?>
<svg
   xmlns:dc="http://purl.org/dc/elements/1.1/"
   xmlns:cc="http://creativecommons.org/ns#"
   xmlns:rdf="http://www.w3.org/1999/02/22-rdf-syntax-ns#"
   xmlns:svg="http://www.w3.org/2000/svg"
   xmlns="http://www.w3.org/2000/svg"
   xmlns:sodipodi="http://sodipodi.sourceforge.net/DTD/sodipodi-0.dtd"
   xmlns:inkscape="http://www.inkscape.org/namespaces/inkscape"
   aria-hidden="true"
   focusable="false"
   data-prefix="fas"
   data-icon="hand-sparkles"
   class="svg-inline--fa fa-hand-sparkles fa-w-20"
   role="img"
   viewBox="0 0 80 64"
   version="1.1"
   id="svg24507"
   sodipodi:docname="clean.svg"
   width="80"
   height="64"
   inkscape:version="0.92.3 (2405546, 2018-03-11)">
  <metadata
     id="metadata24513">
    <rdf:RDF>
      <cc:Work
         rdf:about="">
        <dc:format>image/svg+xml</dc:format>
        <dc:type
           rdf:resource="http://purl.org/dc/dcmitype/StillImage" />
        <dc:title></dc:title>
      </cc:Work>
    </rdf:RDF>
  </metadata>
  <defs
     id="defs24511" />
  <sodipodi:namedview
     pagecolor="#ffffff"
     bordercolor="#666666"
     borderopacity="1"
     objecttolerance="10"
     gridtolerance="10"
     guidetolerance="10"
     inkscape:pageopacity="0"
     inkscape:pageshadow="2"
     inkscape:window-width="1920"
     inkscape:window-height="910"
     id="namedview24509"
     showgrid="false"
     fit-margin-top="0"
     fit-margin-left="0"
     fit-margin-right="0"
     fit-margin-bottom="0"
     inkscape:zoom="1.4101562"
     inkscape:cx="320"
     inkscape:cy="256"
     inkscape:window-x="0"
     inkscape:window-y="0"
     inkscape:window-maximized="1"
     inkscape:current-layer="svg24507" />
  <path
     d="m 13.3325,21.33 h 0.01125 l 6.19375,-2.58125 a 0.915,0.915 0 0 0 0.46,-0.75 v 0 a 0.91125,0.91125 0 0 0 -0.46,-0.75 L 13.34125,14.665 H 13.3325 L 10.75,8.46 a 0.8325,0.8325 0 0 0 -1.49,0 L 6.6725,14.66375 H 6.66625 L 0.4625,17.25 A 0.91125,0.91125 0 0 0 0,18 v 0 a 0.915,0.915 0 0 0 0.46,0.75 l 6.19875,2.575 H 6.6675 L 9.25,27.5325 a 0.83125,0.83125 0 0 0 1.49,0 L 13.32625,21.33 Z m 45.59,37.09625 -0.125,-0.0525 -0.125,-0.0625 a 4.83375,4.83375 0 0 1 0,-8.6425 l 0.125,-0.0612 0.125,-0.0538 L 63.60875,47.6 65.5625,42.915 65.61375,42.79 65.6725,42.67125 c 0.48125,-0.9675 1.3225,-1.70375 2.29375,-2.1675 0,-0.16625 0.03125,-0.33625 0.03375,-0.5 V 18 a 4,4 0 0 0 -8,0 v 9 a 1,1 0 0 1 -1,1 H 57 A 1,1 0 0 1 56,27 V 8 a 4,4 0 0 0 -8,0 v 19 a 1,1 0 0 1 -1,1 H 45 A 1,1 0 0 1 44,27 V 4 a 4,4 0 0 0 -8,0 v 23 a 1,1 0 0 1 -1,1 H 33 A 1,1 0 0 1 32,27 V 8 A 4,4 0 0 0 24,8 V 38.125 L 21.05125,34.06375 A 5.001895,5.001895 0 0 0 12.9625,39.95 l 15.7,21.57625 A 6.00875,6.00875 0 0 0 33.51125,64 H 58.2125 c 2.405,0 4.45625,-1.46625 5.405,-3.59875 L 63.60875,60.38 Z M 43.72375,42.44 40,43.99125 l -1.5525,3.7225 a 0.5,0.5 0 0 1 -0.89375,0 L 36,43.99125 32.27625,42.44 a 0.5,0.5 0 0 1 0,-0.895 L 36,39.9925 37.5525,36.27 a 0.5,0.5 0 0 1 0.89375,0 L 40,39.9925 43.72375,41.545 a 0.5,0.5 0 0 1 0,0.895 z M 80,53.98875 a 0.91,0.91 0 0 0 -0.46,-0.75 L 73.34375,50.655 H 73.335 L 70.75,44.45375 a 0.8325,0.8325 0 0 0 -1.49,0 L 66.6725,50.6575 H 66.6663 L 60.4625,53.25 a 0.91,0.91 0 0 0 -0.46,0.75 v 0 a 0.91125,0.91125 0 0 0 0.46,0.74375 l 6.19625,2.58375 h 0.0088 l 2.5825,6.19875 a 0.83125,0.83125 0 0 0 1.49,0 l 2.58625,-6.2025 v 0 h 0.01125 l 6.19375,-2.5825 a 0.91125,0.91125 0 0 0 0.46,-0.74375 v 0 z"
     id="path24505"
     style="fill:#ffc306;fill-opacity:1;stroke-width:0.125"
     inkscape:connector-curvature="0" />
</svg>
