<?xml version="1.0" encoding="UTF-8" standalone="no"?>
<svg
   xmlns:dc="http://purl.org/dc/elements/1.1/"
   xmlns:cc="http://creativecommons.org/ns#"
   xmlns:rdf="http://www.w3.org/1999/02/22-rdf-syntax-ns#"
   xmlns:svg="http://www.w3.org/2000/svg"
   xmlns="http://www.w3.org/2000/svg"
   xmlns:sodipodi="http://sodipodi.sourceforge.net/DTD/sodipodi-0.dtd"
   xmlns:inkscape="http://www.inkscape.org/namespaces/inkscape"
   id="Layer_1"
   enable-background="new 0 0 512 512"
   height="64"
   viewBox="0 0 68.26667 64"
   width="68.26667"
   version="1.1"
   sodipodi:docname="computer.svg"
   inkscape:version="0.92.3 (2405546, 2018-03-11)">
  <metadata
     id="metadata23476">
    <rdf:RDF>
      <cc:Work
         rdf:about="">
        <dc:format>image/svg+xml</dc:format>
        <dc:type
           rdf:resource="http://purl.org/dc/dcmitype/StillImage" />
        <dc:title></dc:title>
      </cc:Work>
    </rdf:RDF>
  </metadata>
  <defs
     id="defs23474" />
  <sodipodi:namedview
     pagecolor="#ffffff"
     bordercolor="#666666"
     borderopacity="1"
     objecttolerance="10"
     gridtolerance="10"
     guidetolerance="10"
     inkscape:pageopacity="0"
     inkscape:pageshadow="2"
     inkscape:window-width="1920"
     inkscape:window-height="910"
     id="namedview23472"
     showgrid="false"
     fit-margin-top="0"
     fit-margin-left="0"
     fit-margin-right="0"
     fit-margin-bottom="0"
     inkscape:zoom="3.9885242"
     inkscape:cx="110.11115"
     inkscape:cy="35.703518"
     inkscape:window-x="0"
     inkscape:window-y="0"
     inkscape:window-maximized="1"
     inkscape:current-layer="Layer_1" />
  <path
     inkscape:connector-curvature="0"
     id="path23461"
     d="M 62.133333,0 H 6.1333333 C 2.7514667,0 0,2.75147 0,6.13333 V 45.06667 C 0,48.44853 2.7514667,51.2 6.1333333,51.2 H 27.733333 v 8.53333 H 19.2 c -1.178133,0 -2.133333,0.9552 -2.133333,2.13334 C 17.066667,63.0448 18.021867,64 19.2,64 H 29.866667 38.4 49.066667 C 50.2448,64 51.2,63.0448 51.2,61.86667 c 0,-1.17814 -0.9552,-2.13334 -2.133333,-2.13334 H 40.533333 V 51.2 h 21.6 c 3.381867,0 6.133334,-2.75147 6.133334,-6.13333 V 6.13333 C 68.266667,2.75147 65.5152,0 62.133333,0 Z M 36.266667,59.73333 H 32 V 51.2 h 4.266667 z M 64,45.06667 c 0,1.02933 -0.837333,1.86666 -1.866667,1.86666 H 38.4 29.866667 6.1333333 C 5.104,46.93333 4.2666667,46.096 4.2666667,45.06667 V 6.13333 C 4.2666667,5.104 5.104,4.26667 6.1333333,4.26667 H 62.133333 C 63.162667,4.26667 64,5.104 64,6.13333 Z"
     style="fill:#ffc306;fill-opacity:1;stroke-width:0.13333334" />
  <g
     id="g18519"
     style="fill:#ffc306;fill-opacity:1"
     transform="matrix(0.06814395,0,0,0.06814395,18.142177,8.80577)">
    <g
       id="g18517"
       style="fill:#ffc306;fill-opacity:1">
      <g
         id="g18515"
         style="fill:#ffc306;fill-opacity:1">
        <path
           d="m 347.878,151.357 c -4,-4.003 -11.083,-4.003 -15.083,0 L 129.909,354.414 c -2.427,2.429 -3.531,5.87 -2.99,9.258 0.552,3.388 2.698,6.307 5.76,7.84 l 16.656,8.34 v 28.049 l -51.031,14.602 -51.51,-51.554 14.59,-51.075 h 28.025 l 8.333,16.67 c 1.531,3.065 4.448,5.213 7.833,5.765 0.573,0.094 1.146,0.135 1.708,0.135 2.802,0 5.531,-1.105 7.542,-3.128 L 317.711,136.26 c 2,-2.002 3.125,-4.712 3.125,-7.548 0,-2.836 -1.125,-5.546 -3.125,-7.548 L 278.482,81.901 c -2,-2.002 -4.708,-3.128 -7.542,-3.128 h -0.021 c -2.844,0.01 -5.563,1.147 -7.552,3.159 L 45.763,301.682 c -0.105,0.107 -0.1,0.27 -0.201,0.379 -1.095,1.183 -2.009,2.549 -2.487,4.208 L 24.554,371.126 0.409,455.73 c -1.063,3.722 -0.021,7.736 2.719,10.478 2.031,2.033 4.75,3.128 7.542,3.128 0.979,0 1.958,-0.136 2.927,-0.407 l 84.531,-24.166 64.802,-18.537 c 0.195,-0.056 0.329,-0.203 0.52,-0.27 0.673,-0.232 1.262,-0.61 1.881,-0.976 0.608,-0.361 1.216,-0.682 1.73,-1.146 0.138,-0.122 0.319,-0.167 0.452,-0.298 L 387.076,205.747 c 2.01,-1.991 3.146,-4.712 3.156,-7.558 0.01,-2.836 -1.115,-5.557 -3.125,-7.569 z"
           id="path18511"
           style="fill:#ffc306;fill-opacity:1"
           inkscape:connector-curvature="0" />
        <path
           d="m 456.836,76.168 -64,-64.054 c -16.125,-16.139 -44.177,-16.17 -60.365,0.031 l -39.073,39.461 c -4.135,4.181 -4.125,10.905 0.031,15.065 l 108.896,108.988 c 2.083,2.085 4.813,3.128 7.542,3.128 2.719,0 5.427,-1.032 7.51,-3.096 l 39.458,-39.137 c 8.063,-8.069 12.5,-18.787 12.5,-30.192 0,-11.405 -4.436,-22.125 -12.499,-30.194 z"
           id="path18513"
           style="fill:#ffc306;fill-opacity:1"
           inkscape:connector-curvature="0" />
      </g>
    </g>
  </g>
</svg>
