<?xml version="1.0" encoding="UTF-8" standalone="no"?>
<!-- Generator: Adobe Illustrator 19.0.0, SVG Export Plug-In . SVG Version: 6.00 Build 0)  -->

<svg
   xmlns:dc="http://purl.org/dc/elements/1.1/"
   xmlns:cc="http://creativecommons.org/ns#"
   xmlns:rdf="http://www.w3.org/1999/02/22-rdf-syntax-ns#"
   xmlns:svg="http://www.w3.org/2000/svg"
   xmlns="http://www.w3.org/2000/svg"
   xmlns:sodipodi="http://sodipodi.sourceforge.net/DTD/sodipodi-0.dtd"
   xmlns:inkscape="http://www.inkscape.org/namespaces/inkscape"
   version="1.1"
   id="Capa_1"
   x="0px"
   y="0px"
   viewBox="0 0 52.125457 64"
   xml:space="preserve"
   sodipodi:docname="data-funnel.svg"
   width="52.125458"
   height="64"
   inkscape:version="0.92.3 (2405546, 2018-03-11)"><metadata
   id="metadata14699"><rdf:RDF><cc:Work
       rdf:about=""><dc:format>image/svg+xml</dc:format><dc:type
         rdf:resource="http://purl.org/dc/dcmitype/StillImage" /><dc:title /></cc:Work></rdf:RDF></metadata><defs
   id="defs14697">
	
	

		
		
		
	
				
			
				
			
			
			
			
			
			
		
				
			</defs><sodipodi:namedview
   pagecolor="#ffffff"
   bordercolor="#666666"
   borderopacity="1"
   objecttolerance="10"
   gridtolerance="10"
   guidetolerance="10"
   inkscape:pageopacity="0"
   inkscape:pageshadow="2"
   inkscape:window-width="1920"
   inkscape:window-height="910"
   id="namedview14695"
   showgrid="false"
   fit-margin-top="0"
   fit-margin-left="0"
   fit-margin-right="0"
   fit-margin-bottom="0"
   inkscape:zoom="4.1676008"
   inkscape:cx="1.4656388"
   inkscape:cy="22.612746"
   inkscape:window-x="0"
   inkscape:window-y="0"
   inkscape:window-maximized="1"
   inkscape:current-layer="g14658" />
<polygon
   style="fill:#ffc306;fill-opacity:1.0;stroke:#ffc306;stroke-width:7.74079227;stroke-miterlimit:4;stroke-dasharray:none;stroke-opacity:1"
   id="polygon14624"
   points="204.2,490 285.8,462 285.8,345.3 204.2,345.3 "
   transform="matrix(0.12918332,0,0,0.12918332,-5.5871847,0)" /><polygon
   points="437.9,161 285.8,325.5 204.2,325.5 52.1,161 "
   id="polygon14626"
   style="fill:#ffc306;fill-opacity:1.0;stroke:#ffc306;stroke-width:7.74079227;stroke-miterlimit:4;stroke-dasharray:none;stroke-opacity:1"
   transform="matrix(0.12918332,0,0,0.12918332,-5.5871847,0)" /><g
   id="g14658"
   style="fill:#ffc306;fill-opacity:1"
   transform="matrix(0.12918332,0,0,0.12918332,-5.5871847,0)">
			
			
			
			
			<path
   style="fill:#ffc306;fill-opacity:1"
   d="m 129.82617,79.908203 c -11.43956,0.932886 -16.99958,13.70582 -18.16992,23.728517 -1.39976,12.39482 1.46881,28.13913 13.65625,34.25781 9.07636,3.93611 18.09003,-4.14258 20.94727,-12.37695 5.31823,-13.84136 4.27684,-32.216011 -7.41016,-42.544924 -2.55069,-1.990009 -5.76524,-3.20399 -9.02344,-3.064453 z m 0.61133,13.203125 c 5.95557,4.316821 5.55843,13.252422 5.41602,19.697262 -0.72148,4.30451 -1.03474,11.14598 -5.88477,12.64844 -5.92881,-4.65223 -5.41077,-13.84808 -5.13672,-20.47851 0.73534,-3.93771 1.25357,-10.309312 5.60547,-11.867192 z"
   id="path14644"
   inkscape:connector-curvature="0" /><path
   style="fill:#ffc306;fill-opacity:1"
   d="m 193.42578,79.908203 c -11.43969,0.932464 -16.99858,13.706335 -18.16992,23.728517 -1.39872,12.39496 1.46903,28.13613 13.6543,34.25781 9.07711,3.93636 18.09257,-4.14077 20.94922,-12.37695 5.31897,-13.84103 4.27728,-32.216576 -7.41016,-42.544924 -2.55056,-1.990849 -5.76492,-3.204382 -9.02344,-3.064453 z m 0.61133,13.203125 c 5.88537,4.256034 5.55803,13.110612 5.44141,19.736332 -0.69524,4.2877 -1.03468,11.1701 -5.91016,12.60937 -6.11092,-4.89104 -5.47855,-14.55132 -5.03906,-21.30078 0.78101,-3.75469 1.36403,-9.639439 5.50781,-11.044922 z"
   id="path14646"
   inkscape:connector-curvature="0" /><path
   style="fill:#ffc306;fill-opacity:1"
   d="m 319.42578,79.908203 c -11.43969,0.932464 -16.99858,13.706335 -18.16992,23.728517 -1.39872,12.39496 1.46903,28.13613 13.6543,34.25781 9.07711,3.93636 18.09257,-4.14077 20.94922,-12.37695 5.31897,-13.84103 4.27728,-32.216576 -7.41016,-42.544924 -2.55056,-1.990849 -5.76492,-3.204382 -9.02344,-3.064453 z m 0.61133,13.203125 c 5.88537,4.256034 5.55803,13.110612 5.44141,19.736332 -0.69524,4.2877 -1.03468,11.1701 -5.91016,12.60937 -6.11198,-4.88896 -5.47506,-14.55844 -5.03906,-21.30078 0.78101,-3.75469 1.36403,-9.639439 5.50781,-11.044922 z"
   id="path14648"
   inkscape:connector-curvature="0" /><path
   style="fill:#ffc306;fill-opacity:1"
   d="m 363.50391,80.402344 c -6.53044,-0.266677 -8.09267,10.007173 -1.7793,11.693359 3.06851,0.598407 6.58053,-0.51318 4.97461,4.304688 0.43278,12.639789 -0.7923,25.506499 0.47266,38.035159 2.09243,5.92898 11.92605,4.00015 11.42773,-2.33594 -0.24544,-15.84194 0.46301,-31.78876 -0.30273,-47.574219 -2.11488,-6.291835 -10.00701,-3.545936 -14.79297,-4.123047 z"
   id="path14650"
   inkscape:connector-curvature="0" /><path
   style="fill:#ffc306;fill-opacity:1"
   d="m 251.9043,80.402344 c -6.53061,-0.266226 -8.09352,10.006976 -1.7793,11.693359 3.06857,0.598513 6.5805,-0.513297 4.97461,4.304688 0.43275,12.638339 -0.79225,25.504449 0.47266,38.031249 2.1092,5.93937 11.84418,3.98899 11.42773,-2.33203 -0.24706,-15.84448 0.46604,-31.7942 -0.30469,-47.582032 -2.12465,-6.282565 -10.00413,-3.537547 -14.79101,-4.115234 z"
   id="path14654"
   inkscape:connector-curvature="0" />
		<path
   style="fill:#ffc306;fill-opacity:1;stroke-width:1"
   d="M 180.76298,0.20478287 C 169.32329,1.1372469 163.7644,13.911119 162.59306,23.933301 c -1.39872,12.394961 1.46903,28.136131 13.6543,34.257811 9.07711,3.93636 18.09257,-4.14077 20.94922,-12.37695 5.31897,-13.841031 4.27728,-32.216577 -7.41016,-42.5449262 -2.55056,-1.9908489 -5.76492,-3.20438193 -9.02344,-3.06445293 z m 0.61134,13.20312613 c 5.88536,4.256034 5.55802,13.110612 5.4414,19.736332 -0.69524,4.287701 -1.03468,11.170101 -5.91016,12.609371 -6.11092,-4.89104 -5.47854,-14.551321 -5.03906,-21.300781 0.78101,-3.75469 1.36404,-9.639439 5.50782,-11.044922 z"
   id="path14646-7"
   inkscape:connector-curvature="0" /><path
   style="fill:#ffc306;fill-opacity:1;stroke-width:1"
   d="M 240.22735,0.20478287 C 228.78766,1.1372459 223.22877,13.911119 222.05743,23.933301 c -1.39872,12.39496 1.46903,28.13613 13.6543,34.25781 9.07711,3.93636 18.09257,-4.14077 20.94922,-12.37695 5.31897,-13.84103 4.27728,-32.216576 -7.41016,-42.5449242 -2.55056,-1.9908499 -5.76492,-3.20438393 -9.02344,-3.06445393 z m 0.61133,13.20312613 c 5.88537,4.256034 5.55803,13.110612 5.44141,19.736332 -0.69524,4.2877 -1.03468,11.1701 -5.91016,12.60937 -6.11092,-4.89104 -5.47855,-14.55132 -5.03906,-21.30078 0.78101,-3.75469 1.36403,-9.639439 5.50781,-11.044922 z"
   id="path14646-9"
   inkscape:connector-curvature="0" /><path
   style="fill:#ffc306;fill-opacity:1;stroke-width:1"
   d="m 117.11872,0.30981187 c -6.53061,-0.266226 -8.09352,10.00697613 -1.7793,11.69335913 3.06857,0.598513 6.5805,-0.513297 4.97461,4.304688 0.43275,12.63834 -0.79225,25.50445 0.47266,38.03125 2.10919,5.93937 11.84418,3.98899 11.42773,-2.33203 -0.24707,-15.84448 0.46604,-31.794201 -0.30469,-47.5820332 -2.12465,-6.2825659 -10.00413,-3.53754793 -14.79101,-4.11523393 z"
   id="path14654-4"
   inkscape:connector-curvature="0" /></g>
<g
   id="g14664"
   style="fill:#ffc306;fill-opacity:1"
   transform="matrix(0.12918332,0,0,0.12918332,-5.5871847,0)">
</g>
<g
   id="g14666"
   style="fill:#ffc306;fill-opacity:1"
   transform="matrix(0.12918332,0,0,0.12918332,-5.5871847,0)">
</g>
<g
   id="g14668"
   style="fill:#ffc306;fill-opacity:1"
   transform="matrix(0.12918332,0,0,0.12918332,-5.5871847,0)">
</g>
<g
   id="g14670"
   style="fill:#ffc306;fill-opacity:1"
   transform="matrix(0.12918332,0,0,0.12918332,-5.5871847,0)">
</g>
<g
   id="g14672"
   style="fill:#ffc306;fill-opacity:1"
   transform="matrix(0.12918332,0,0,0.12918332,-5.5871847,0)">
</g>
<g
   id="g14674"
   style="fill:#ffc306;fill-opacity:1"
   transform="matrix(0.12918332,0,0,0.12918332,-5.5871847,0)">
</g>
<g
   id="g14676"
   style="fill:#ffc306;fill-opacity:1"
   transform="matrix(0.12918332,0,0,0.12918332,-5.5871847,0)">
</g>
<g
   id="g14678"
   style="fill:#ffc306;fill-opacity:1"
   transform="matrix(0.12918332,0,0,0.12918332,-5.5871847,0)">
</g>
<g
   id="g14680"
   style="fill:#ffc306;fill-opacity:1"
   transform="matrix(0.12918332,0,0,0.12918332,-5.5871847,0)">
</g>
<g
   id="g14682"
   style="fill:#ffc306;fill-opacity:1"
   transform="matrix(0.12918332,0,0,0.12918332,-5.5871847,0)">
</g>
<g
   id="g14684"
   style="fill:#ffc306;fill-opacity:1"
   transform="matrix(0.12918332,0,0,0.12918332,-5.5871847,0)">
</g>
<g
   id="g14686"
   style="fill:#ffc306;fill-opacity:1"
   transform="matrix(0.12918332,0,0,0.12918332,-5.5871847,0)">
</g>
<g
   id="g14688"
   style="fill:#ffc306;fill-opacity:1"
   transform="matrix(0.12918332,0,0,0.12918332,-5.5871847,0)">
</g>
<g
   id="g14690"
   style="fill:#ffc306;fill-opacity:1"
   transform="matrix(0.12918332,0,0,0.12918332,-5.5871847,0)">
</g>
<g
   id="g14692"
   style="fill:#ffc306;fill-opacity:1"
   transform="matrix(0.12918332,0,0,0.12918332,-5.5871847,0)">
</g>
<path
   style="fill:#ffc306;fill-opacity:1;stroke-width:0.12918332"
   d="m 40.809795,0.02645461 c -1.477817,0.1204587 -2.195933,1.77062989 -2.347251,3.06532859 -0.180691,1.6012221 0.189775,3.6347187 1.763908,4.4255374 1.172611,0.508512 2.337258,-0.5349182 2.70629,-1.5988953 0.687122,-1.7880302 0.552553,-4.1618442 -0.957269,-5.49609449 -0.32949,-0.2571845 -0.744732,-0.4139527 -1.165678,-0.3958762 z m 0.07897,1.70562349 c 0.760291,0.5498086 0.718004,1.6936724 0.702939,2.5496049 -0.08981,0.5538993 -0.133659,1.4429906 -0.76349,1.6289203 -0.789429,-0.6318408 -0.707737,-1.8797878 -0.650963,-2.7517055 0.100894,-0.4850433 0.17621,-1.2452547 0.711518,-1.4268197 z"
   id="path14646-0"
   inkscape:connector-curvature="0" /><path
   style="fill:#ffc306;fill-opacity:1;stroke-width:0.12918332"
   d="m 32.588024,0.04002241 c -0.843646,-0.034392 -1.045548,1.29273439 -0.229856,1.51058689 0.396408,0.077318 0.850091,-0.066309 0.642636,0.5560939 0.0559,1.6326626 -0.102345,3.2947494 0.06106,4.913003 0.272474,0.7672674 1.530071,0.5153114 1.476272,-0.3012594 -0.03192,-2.0468425 0.0602,-4.1072803 -0.03936,-6.14680479 -0.27447,-0.8116026 -1.292367,-0.456992 -1.910752,-0.5316196 z"
   id="path14654-41"
   inkscape:connector-curvature="0" /></svg>