<?xml version="1.0" encoding="UTF-8" standalone="no"?>
<!-- Generator: Adobe Illustrator 19.0.0, SVG Export Plug-In . SVG Version: 6.00 Build 0)  -->

<svg
   xmlns:dc="http://purl.org/dc/elements/1.1/"
   xmlns:cc="http://creativecommons.org/ns#"
   xmlns:rdf="http://www.w3.org/1999/02/22-rdf-syntax-ns#"
   xmlns:svg="http://www.w3.org/2000/svg"
   xmlns="http://www.w3.org/2000/svg"
   xmlns:sodipodi="http://sodipodi.sourceforge.net/DTD/sodipodi-0.dtd"
   xmlns:inkscape="http://www.inkscape.org/namespaces/inkscape"
   version="1.1"
   id="Capa_1"
   x="0px"
   y="0px"
   viewBox="0 0 52.125457 64"
   xml:space="preserve"
   sodipodi:docname="data-funnel.svg"
   width="52.125458"
   height="64"
   inkscape:version="0.92.3 (2405546, 2018-03-11)"><metadata
   id="metadata14699"><rdf:RDF><cc:Work
       rdf:about=""><dc:format>image/svg+xml</dc:format><dc:type
         rdf:resource="http://purl.org/dc/dcmitype/StillImage" /><dc:title></dc:title></cc:Work></rdf:RDF></metadata><defs
   id="defs14697">
	
	

		
		
		
	</defs><sodipodi:namedview
   pagecolor="#ffffff"
   bordercolor="#666666"
   borderopacity="1"
   objecttolerance="10"
   gridtolerance="10"
   guidetolerance="10"
   inkscape:pageopacity="0"
   inkscape:pageshadow="2"
   inkscape:window-width="1920"
   inkscape:window-height="910"
   id="namedview14695"
   showgrid="false"
   fit-margin-top="0"
   fit-margin-left="0"
   fit-margin-right="0"
   fit-margin-bottom="0"
   inkscape:zoom="8.3352016"
   inkscape:cx="45.907714"
   inkscape:cy="27.571016"
   inkscape:window-x="0"
   inkscape:window-y="0"
   inkscape:window-maximized="1"
   inkscape:current-layer="Capa_1" />
<polygon
   style="fill:#ffc306;fill-opacity:0.4;stroke:#ffc306;stroke-width:7.74079227;stroke-miterlimit:4;stroke-dasharray:none;stroke-opacity:1"
   id="polygon14624"
   points="204.2,490 285.8,462 285.8,345.3 204.2,345.3 "
   transform="matrix(0.12918332,0,0,0.12918332,-5.5871847,0)" /><polygon
   points="437.9,161 285.8,325.5 204.2,325.5 52.1,161 "
   id="polygon14626"
   style="fill:#ffc306;fill-opacity:0.4;stroke:#ffc306;stroke-width:7.74079227;stroke-miterlimit:4;stroke-dasharray:none;stroke-opacity:1"
   transform="matrix(0.12918332,0,0,0.12918332,-5.5871847,0)" /><g
   id="g14642"
   style="fill:#ffc306;fill-opacity:1"
   transform="matrix(0.12918332,0,0,0.12918332,-5.5871847,0)">
			<path
   d="m 177.4,0 c -9.4,0 -17,12.3 -17,27.5 0,15.2 7.6,27.5 17,27.5 9.4,0 17,-12.3 17,-27.5 0,-15.2 -7.6,-27.5 -17,-27.5 z m 0,45.7 c -4.3,0 -7.7,-8.2 -7.7,-18.2 0,-10.1 3.5,-18.2 7.7,-18.2 4.2,0 7.7,8.2 7.7,18.2 0.1,10 -3.4,18.2 -7.7,18.2 z"
   id="path14628"
   style="fill:#ffc306;fill-opacity:1"
   inkscape:connector-curvature="0" />
			<path
   d="m 241.1,0 c -9.4,0 -17,12.3 -17,27.5 0,15.2 7.6,27.5 17,27.5 9.4,0 17,-12.3 17,-27.5 0,-15.2 -7.6,-27.5 -17,-27.5 z m 0,45.7 c -4.3,0 -7.7,-8.2 -7.7,-18.2 0,-10.1 3.5,-18.2 7.7,-18.2 4.3,0 7.7,8.2 7.7,18.2 0,10 -3.4,18.2 -7.7,18.2 z"
   id="path14630"
   style="fill:#ffc306;fill-opacity:1"
   inkscape:connector-curvature="0" />
			<path
   d="m 367.1,0 c -9.4,0 -17,12.3 -17,27.5 0,15.2 7.6,27.5 17,27.5 9.4,0 17,-12.3 17,-27.5 0,-15.2 -7.6,-27.5 -17,-27.5 z m 0,45.7 c -4.3,0 -7.7,-8.2 -7.7,-18.2 0,-10.1 3.5,-18.2 7.7,-18.2 4.2,0 7.7,8.2 7.7,18.2 0,10 -3.4,18.2 -7.7,18.2 z"
   id="path14632"
   style="fill:#ffc306;fill-opacity:1"
   inkscape:connector-curvature="0" />
			<g
   id="g14636"
   style="fill:#ffc306;fill-opacity:1">
				<path
   d="m 118.9,54.3 c -2.2,0 -4,-1.8 -4,-4 V 8.6 h -5.1 c -2.2,0 -4,-1.8 -4,-4 0,-2.2 1.8,-4 4,-4 h 9 c 2.2,0 4,1.8 4,4 v 45.7 c 0.1,2.2 -1.7,4 -3.9,4 z"
   id="path14634"
   style="fill:#ffc306;fill-opacity:1"
   inkscape:connector-curvature="0" />
			</g>
			<g
   id="g14640"
   style="fill:#ffc306;fill-opacity:1">
				<path
   d="m 308.2,54.3 c -2.2,0 -4,-1.8 -4,-4 V 8.6 h -5.1 c -2.2,0 -4,-1.8 -4,-4 0,-2.2 1.8,-4 4,-4 h 9 c 2.2,0 4,1.8 4,4 v 45.7 c 0.1,2.2 -1.7,4 -3.9,4 z"
   id="path14638"
   style="fill:#ffc306;fill-opacity:1"
   inkscape:connector-curvature="0" />
			</g>
		</g><g
   id="g14658"
   style="fill:#ffc306;fill-opacity:1"
   transform="matrix(0.12918332,0,0,0.12918332,-5.5871847,0)">
			<path
   d="m 130.3,81.9 c -9.4,0 -17,12.3 -17,27.5 0,15.2 7.6,27.5 17,27.5 9.4,0 17,-12.3 17,-27.5 0,-15.3 -7.6,-27.5 -17,-27.5 z m 0,45.6 c -4.3,0 -7.7,-8.2 -7.7,-18.2 0,-10.1 3.5,-18.2 7.7,-18.2 4.2,0 7.7,8.2 7.7,18.2 0,10.1 -3.4,18.2 -7.7,18.2 z"
   id="path14644"
   style="fill:#ffc306;fill-opacity:1"
   inkscape:connector-curvature="0" />
			<path
   d="m 193.9,81.9 c -9.4,0 -17,12.3 -17,27.5 0,15.2 7.6,27.5 17,27.5 9.4,0 17,-12.3 17,-27.5 0,-15.3 -7.6,-27.5 -17,-27.5 z m 0,45.6 c -4.3,0 -7.7,-8.2 -7.7,-18.2 0,-10.1 3.5,-18.2 7.7,-18.2 4.2,0 7.7,8.2 7.7,18.2 0.1,10.1 -3.4,18.2 -7.7,18.2 z"
   id="path14646"
   style="fill:#ffc306;fill-opacity:1"
   inkscape:connector-curvature="0" />
			<path
   d="m 319.9,81.9 c -9.4,0 -17,12.3 -17,27.5 0,15.2 7.6,27.5 17,27.5 9.4,0 17,-12.3 17,-27.5 0,-15.3 -7.6,-27.5 -17,-27.5 z m 0,45.6 c -4.3,0 -7.7,-8.2 -7.7,-18.2 0,-10.1 3.5,-18.2 7.7,-18.2 4.2,0 7.7,8.2 7.7,18.2 0.1,10.1 -3.4,18.2 -7.7,18.2 z"
   id="path14648"
   style="fill:#ffc306;fill-opacity:1"
   inkscape:connector-curvature="0" />
			<g
   id="g14652"
   style="fill:#ffc306;fill-opacity:1">
				<path
   d="m 372.7,136.1 c -2.2,0 -4,-1.8 -4,-4 V 90.4 h -5.1 c -2.2,0 -4,-1.8 -4,-4 0,-2.2 1.8,-4 4,-4 h 9 c 2.2,0 4,1.8 4,4 v 45.7 c 0.1,2.2 -1.7,4 -3.9,4 z"
   id="path14650"
   style="fill:#ffc306;fill-opacity:1"
   inkscape:connector-curvature="0" />
			</g>
			<g
   id="g14656"
   style="fill:#ffc306;fill-opacity:1">
				<path
   d="m 261.1,136.1 c -2.2,0 -4,-1.8 -4,-4 V 90.4 H 252 c -2.2,0 -4,-1.8 -4,-4 0,-2.2 1.8,-4 4,-4 h 9 c 2.2,0 4,1.8 4,4 v 45.7 c 0,2.2 -1.7,4 -3.9,4 z"
   id="path14654"
   style="fill:#ffc306;fill-opacity:1"
   inkscape:connector-curvature="0" />
			</g>
		</g>
<g
   id="g14664"
   style="fill:#ffc306;fill-opacity:1"
   transform="matrix(0.12918332,0,0,0.12918332,-5.5871847,0)">
</g>
<g
   id="g14666"
   style="fill:#ffc306;fill-opacity:1"
   transform="matrix(0.12918332,0,0,0.12918332,-5.5871847,0)">
</g>
<g
   id="g14668"
   style="fill:#ffc306;fill-opacity:1"
   transform="matrix(0.12918332,0,0,0.12918332,-5.5871847,0)">
</g>
<g
   id="g14670"
   style="fill:#ffc306;fill-opacity:1"
   transform="matrix(0.12918332,0,0,0.12918332,-5.5871847,0)">
</g>
<g
   id="g14672"
   style="fill:#ffc306;fill-opacity:1"
   transform="matrix(0.12918332,0,0,0.12918332,-5.5871847,0)">
</g>
<g
   id="g14674"
   style="fill:#ffc306;fill-opacity:1"
   transform="matrix(0.12918332,0,0,0.12918332,-5.5871847,0)">
</g>
<g
   id="g14676"
   style="fill:#ffc306;fill-opacity:1"
   transform="matrix(0.12918332,0,0,0.12918332,-5.5871847,0)">
</g>
<g
   id="g14678"
   style="fill:#ffc306;fill-opacity:1"
   transform="matrix(0.12918332,0,0,0.12918332,-5.5871847,0)">
</g>
<g
   id="g14680"
   style="fill:#ffc306;fill-opacity:1"
   transform="matrix(0.12918332,0,0,0.12918332,-5.5871847,0)">
</g>
<g
   id="g14682"
   style="fill:#ffc306;fill-opacity:1"
   transform="matrix(0.12918332,0,0,0.12918332,-5.5871847,0)">
</g>
<g
   id="g14684"
   style="fill:#ffc306;fill-opacity:1"
   transform="matrix(0.12918332,0,0,0.12918332,-5.5871847,0)">
</g>
<g
   id="g14686"
   style="fill:#ffc306;fill-opacity:1"
   transform="matrix(0.12918332,0,0,0.12918332,-5.5871847,0)">
</g>
<g
   id="g14688"
   style="fill:#ffc306;fill-opacity:1"
   transform="matrix(0.12918332,0,0,0.12918332,-5.5871847,0)">
</g>
<g
   id="g14690"
   style="fill:#ffc306;fill-opacity:1"
   transform="matrix(0.12918332,0,0,0.12918332,-5.5871847,0)">
</g>
<g
   id="g14692"
   style="fill:#ffc306;fill-opacity:1"
   transform="matrix(0.12918332,0,0,0.12918332,-5.5871847,0)">
</g>
</svg>