<?xml version="1.0" encoding="UTF-8" standalone="no"?>
<!-- Generator: Adobe Illustrator 19.0.0, SVG Export Plug-In . SVG Version: 6.00 Build 0)  -->

<svg
   xmlns:dc="http://purl.org/dc/elements/1.1/"
   xmlns:cc="http://creativecommons.org/ns#"
   xmlns:rdf="http://www.w3.org/1999/02/22-rdf-syntax-ns#"
   xmlns:svg="http://www.w3.org/2000/svg"
   xmlns="http://www.w3.org/2000/svg"
   xmlns:sodipodi="http://sodipodi.sourceforge.net/DTD/sodipodi-0.dtd"
   xmlns:inkscape="http://www.inkscape.org/namespaces/inkscape"
   version="1.1"
   id="Capa_1"
   x="0px"
   y="0px"
   viewBox="0 0 90.152115 63.999989"
   xml:space="preserve"
   sodipodi:docname="docker.svg"
   width="90.152115"
   height="63.999989"
   inkscape:version="0.92.3 (2405546, 2018-03-11)"><metadata
   id="metadata12788"><rdf:RDF><cc:Work
       rdf:about=""><dc:format>image/svg+xml</dc:format><dc:type
         rdf:resource="http://purl.org/dc/dcmitype/StillImage" /><dc:title></dc:title></cc:Work></rdf:RDF></metadata><defs
   id="defs12786">
	
	
	
	
	
	
	
	
	
	
</defs><sodipodi:namedview
   pagecolor="#ffffff"
   bordercolor="#666666"
   borderopacity="1"
   objecttolerance="10"
   gridtolerance="10"
   guidetolerance="10"
   inkscape:pageopacity="0"
   inkscape:pageshadow="2"
   inkscape:window-width="1920"
   inkscape:window-height="910"
   id="namedview12784"
   showgrid="false"
   fit-margin-top="0"
   fit-margin-left="0"
   fit-margin-right="0"
   fit-margin-bottom="0"
   inkscape:zoom="0.49856552"
   inkscape:cx="-289.61095"
   inkscape:cy="252.14725"
   inkscape:window-x="0"
   inkscape:window-y="0"
   inkscape:window-maximized="1"
   inkscape:current-layer="Capa_1" />

<path
   inkscape:connector-curvature="0"
   id="path12731"
   d="m 90.152113,29.527226 c -4.30635,5.24509 -12.74431,4.83551 -12.74431,4.83551 -5.20391,22.41927 -36.631276,33.82966 -58.451451,28.22425 C -2.861656,56.983546 0.13972901,30.959856 0.13972901,30.959856 H 63.996823 c 5.26971,0 5.67121,-1.60146 5.67121,-1.60146 -4.67081,-11.07686 2.53606,-17.0156 2.53606,-17.0156 5.6054,1.00257 7.00513,10.60956 7.00513,10.60956 4.60068,-0.82546 8.29572,0.15642 10.55597,1.10126 0.22636,1.79709 0.35816,3.62294 0.38692,5.47361 z"
   style="fill:#ffc306;fill-opacity:1;stroke-width:0.19700588" /><rect
   id="rect12733"
   height="8.1402836"
   width="8.9420967"
   style="fill:#ffc306;fill-opacity:0.4;stroke-width:0.19700588"
   y="20.817596"
   x="6.9450989" /><rect
   id="rect12735"
   height="8.1402836"
   width="8.9420967"
   style="fill:#ffc306;fill-opacity:0.4;stroke-width:0.19700588"
   y="20.817596"
   x="18.182514" /><rect
   id="rect12737"
   height="8.1402836"
   width="8.9420967"
   style="fill:#ffc306;fill-opacity:0.4;stroke-width:0.19700588"
   y="20.817596"
   x="51.890614" /><rect
   id="rect12739"
   height="8.1402836"
   width="8.9420967"
   style="fill:#ffc306;fill-opacity:0.4;stroke-width:0.19700588"
   y="20.817596"
   x="40.65517" /><rect
   id="rect12741"
   height="8.1402836"
   width="8.9420967"
   style="fill:#ffc306;fill-opacity:0.4;stroke-width:0.19700588"
   y="0"
   x="40.65517" /><rect
   id="rect12743"
   height="8.1402836"
   width="8.9420967"
   style="fill:#ffc306;fill-opacity:0.4;stroke-width:0.19700588"
   y="20.817596"
   x="29.417759" /><rect
   id="rect12745"
   height="8.1402836"
   width="8.9420967"
   style="fill:#ffc306;fill-opacity:0.4;stroke-width:0.19700588"
   y="10.407806"
   x="18.182514" /><rect
   id="rect12747"
   height="8.1402836"
   width="8.9420967"
   style="fill:#ffc306;fill-opacity:0.4;stroke-width:0.19700588"
   y="10.407806"
   x="40.65517" /><rect
   id="rect12749"
   height="8.1402836"
   width="8.9420967"
   style="fill:#ffc306;fill-opacity:0.4;stroke-width:0.19700588"
   y="10.407806"
   x="29.417759" />
<g
   id="g12753"
   transform="matrix(0.19700589,0,0,0.19700589,-10.706627,-20.047924)">
</g>
<g
   id="g12755"
   transform="matrix(0.19700589,0,0,0.19700589,-10.706627,-20.047924)">
</g>
<g
   id="g12757"
   transform="matrix(0.19700589,0,0,0.19700589,-10.706627,-20.047924)">
</g>
<g
   id="g12759"
   transform="matrix(0.19700589,0,0,0.19700589,-10.706627,-20.047924)">
</g>
<g
   id="g12761"
   transform="matrix(0.19700589,0,0,0.19700589,-10.706627,-20.047924)">
</g>
<g
   id="g12763"
   transform="matrix(0.19700589,0,0,0.19700589,-10.706627,-20.047924)">
</g>
<g
   id="g12765"
   transform="matrix(0.19700589,0,0,0.19700589,-10.706627,-20.047924)">
</g>
<g
   id="g12767"
   transform="matrix(0.19700589,0,0,0.19700589,-10.706627,-20.047924)">
</g>
<g
   id="g12769"
   transform="matrix(0.19700589,0,0,0.19700589,-10.706627,-20.047924)">
</g>
<g
   id="g12771"
   transform="matrix(0.19700589,0,0,0.19700589,-10.706627,-20.047924)">
</g>
<g
   id="g12773"
   transform="matrix(0.19700589,0,0,0.19700589,-10.706627,-20.047924)">
</g>
<g
   id="g12775"
   transform="matrix(0.19700589,0,0,0.19700589,-10.706627,-20.047924)">
</g>
<g
   id="g12777"
   transform="matrix(0.19700589,0,0,0.19700589,-10.706627,-20.047924)">
</g>
<g
   id="g12779"
   transform="matrix(0.19700589,0,0,0.19700589,-10.706627,-20.047924)">
</g>
<g
   id="g12781"
   transform="matrix(0.19700589,0,0,0.19700589,-10.706627,-20.047924)">
</g>
</svg>