<?xml version="1.0" encoding="UTF-8" standalone="no"?>
<!-- Generator: Adobe Illustrator 19.0.0, SVG Export Plug-In . SVG Version: 6.00 Build 0)  -->

<svg
   xmlns:dc="http://purl.org/dc/elements/1.1/"
   xmlns:cc="http://creativecommons.org/ns#"
   xmlns:rdf="http://www.w3.org/1999/02/22-rdf-syntax-ns#"
   xmlns:svg="http://www.w3.org/2000/svg"
   xmlns="http://www.w3.org/2000/svg"
   xmlns:sodipodi="http://sodipodi.sourceforge.net/DTD/sodipodi-0.dtd"
   xmlns:inkscape="http://www.inkscape.org/namespaces/inkscape"
   version="1.1"
   id="Capa_1"
   x="0px"
   y="0px"
   viewBox="0 0 50.500015 63.999999"
   xml:space="preserve"
   sodipodi:docname="document.svg"
   width="50.500015"
   height="64"
   inkscape:version="0.92.3 (2405546, 2018-03-11)"><metadata
   id="metadata16276"><rdf:RDF><cc:Work
       rdf:about=""><dc:format>image/svg+xml</dc:format><dc:type
         rdf:resource="http://purl.org/dc/dcmitype/StillImage" /><dc:title></dc:title></cc:Work></rdf:RDF></metadata><defs
   id="defs16274" /><sodipodi:namedview
   pagecolor="#ffffff"
   bordercolor="#666666"
   borderopacity="1"
   objecttolerance="10"
   gridtolerance="10"
   guidetolerance="10"
   inkscape:pageopacity="0"
   inkscape:pageshadow="2"
   inkscape:window-width="1920"
   inkscape:window-height="910"
   id="namedview16272"
   showgrid="false"
   fit-margin-top="0"
   fit-margin-left="0"
   fit-margin-right="0"
   fit-margin-bottom="0"
   inkscape:zoom="1.5108806"
   inkscape:cx="188.66669"
   inkscape:cy="239.86669"
   inkscape:window-x="0"
   inkscape:window-y="0"
   inkscape:window-maximized="1"
   inkscape:current-layer="Capa_1" />
<g
   id="g16215"
   style="fill:#ffc306;fill-opacity:0.4;stroke:#ffc306;stroke-width:7.58543825;stroke-miterlimit:4;stroke-dasharray:none;stroke-opacity:1"
   transform="matrix(0.13183578,0,0,0.13183578,-6.2499759,0.50001608)">
	<g
   id="g16213"
   style="fill:#ffc306;fill-opacity:0.4;stroke:#ffc306;stroke-width:7.58543825;stroke-miterlimit:4;stroke-dasharray:none;stroke-opacity:1">
		<path
   d="M 421.649,90.317 336.316,4.983 C 333.105,1.811 328.78,0.023 324.267,0 h -256 C 58.841,0 51.2,7.641 51.2,17.067 V 460.8 c 0,9.426 7.641,17.067 17.067,17.067 H 409.6 c 9.426,0 17.067,-7.641 17.067,-17.067 V 102.4 c -0.024,-4.53 -1.826,-8.869 -5.018,-12.083 z m -80.316,-32.051 27.068,27.068 h -27.068 z m 51.2,385.467 H 85.333 V 34.133 H 307.2 V 102.4 c 0,9.426 7.641,17.067 17.067,17.067 h 68.267 v 324.266 z"
   id="path16211"
   style="fill:#ffc306;fill-opacity:0.4;stroke:#ffc306;stroke-width:7.58543825;stroke-miterlimit:4;stroke-dasharray:none;stroke-opacity:1"
   inkscape:connector-curvature="0" />
	</g>
</g>
<g
   id="g16221"
   style="fill:#ffc306;fill-opacity:0.4;stroke:#ffc306;stroke-width:7.58543825;stroke-miterlimit:4;stroke-dasharray:none;stroke-opacity:1"
   transform="matrix(0.13183578,0,0,0.13183578,-6.2499759,0.50001608)">
	<g
   id="g16219"
   style="fill:#ffc306;fill-opacity:0.4;stroke:#ffc306;stroke-width:7.58543825;stroke-miterlimit:4;stroke-dasharray:none;stroke-opacity:1">
		<path
   d="m 341.333,153.6 h -204.8 c -9.426,0 -17.067,7.641 -17.067,17.067 0,9.426 7.641,17.067 17.067,17.067 h 204.8 c 9.426,0 17.067,-7.641 17.067,-17.067 0,-9.426 -7.641,-17.067 -17.067,-17.067 z"
   id="path16217"
   style="fill:#ffc306;fill-opacity:0.4;stroke:#ffc306;stroke-width:7.58543825;stroke-miterlimit:4;stroke-dasharray:none;stroke-opacity:1"
   inkscape:connector-curvature="0" />
	</g>
</g>
<g
   id="g16227"
   style="fill:#ffc306;fill-opacity:0.4;stroke:#ffc306;stroke-width:7.58543825;stroke-miterlimit:4;stroke-dasharray:none;stroke-opacity:1"
   transform="matrix(0.13183578,0,0,0.13183578,-6.2499759,0.50001608)">
	<g
   id="g16225"
   style="fill:#ffc306;fill-opacity:0.4;stroke:#ffc306;stroke-width:7.58543825;stroke-miterlimit:4;stroke-dasharray:none;stroke-opacity:1">
		<path
   d="m 341.333,221.867 h -204.8 c -9.426,0 -17.067,7.641 -17.067,17.067 0,9.426 7.642,17.066 17.067,17.066 h 204.8 c 9.426,0 17.067,-7.641 17.067,-17.067 0,-9.426 -7.641,-17.066 -17.067,-17.066 z"
   id="path16223"
   style="fill:#ffc306;fill-opacity:0.4;stroke:#ffc306;stroke-width:7.58543825;stroke-miterlimit:4;stroke-dasharray:none;stroke-opacity:1"
   inkscape:connector-curvature="0" />
	</g>
</g>
<g
   id="g16233"
   style="fill:#ffc306;fill-opacity:0.4;stroke:#ffc306;stroke-width:7.58543825;stroke-miterlimit:4;stroke-dasharray:none;stroke-opacity:1"
   transform="matrix(0.13183578,0,0,0.13183578,-6.2499759,0.50001608)">
	<g
   id="g16231"
   style="fill:#ffc306;fill-opacity:0.4;stroke:#ffc306;stroke-width:7.58543825;stroke-miterlimit:4;stroke-dasharray:none;stroke-opacity:1">
		<path
   d="m 341.333,290.133 h -204.8 c -9.426,0 -17.067,7.641 -17.067,17.067 0,9.426 7.641,17.067 17.067,17.067 h 204.8 c 9.426,0 17.067,-7.641 17.067,-17.067 0,-9.426 -7.641,-17.067 -17.067,-17.067 z"
   id="path16229"
   style="fill:#ffc306;fill-opacity:0.4;stroke:#ffc306;stroke-width:7.58543825;stroke-miterlimit:4;stroke-dasharray:none;stroke-opacity:1"
   inkscape:connector-curvature="0" />
	</g>
</g>
<g
   id="g16239"
   style="fill:#ffc306;fill-opacity:0.4;stroke:#ffc306;stroke-width:7.58543825;stroke-miterlimit:4;stroke-dasharray:none;stroke-opacity:1"
   transform="matrix(0.13183578,0,0,0.13183578,-6.2499759,0.50001608)">
	<g
   id="g16237"
   style="fill:#ffc306;fill-opacity:0.4;stroke:#ffc306;stroke-width:7.58543825;stroke-miterlimit:4;stroke-dasharray:none;stroke-opacity:1">
		<path
   d="m 341.333,358.4 h -204.8 c -9.426,0 -17.067,7.641 -17.067,17.067 0,9.426 7.641,17.067 17.067,17.067 h 204.8 c 9.426,0 17.067,-7.641 17.067,-17.067 0,-9.426 -7.641,-17.067 -17.067,-17.067 z"
   id="path16235"
   style="fill:#ffc306;fill-opacity:0.4;stroke:#ffc306;stroke-width:7.58543825;stroke-miterlimit:4;stroke-dasharray:none;stroke-opacity:1"
   inkscape:connector-curvature="0" />
	</g>
</g>
<g
   id="g16241"
   style="fill:#ffc306;fill-opacity:0.4;stroke:#ffc306;stroke-width:7.58543825;stroke-miterlimit:4;stroke-dasharray:none;stroke-opacity:1"
   transform="matrix(0.13183578,0,0,0.13183578,-6.2499759,0.50001608)">
</g>
<g
   id="g16243"
   style="fill:#ffc306;fill-opacity:0.4;stroke:#ffc306;stroke-width:7.58543825;stroke-miterlimit:4;stroke-dasharray:none;stroke-opacity:1"
   transform="matrix(0.13183578,0,0,0.13183578,-6.2499759,0.50001608)">
</g>
<g
   id="g16245"
   style="fill:#ffc306;fill-opacity:0.4;stroke:#ffc306;stroke-width:7.58543825;stroke-miterlimit:4;stroke-dasharray:none;stroke-opacity:1"
   transform="matrix(0.13183578,0,0,0.13183578,-6.2499759,0.50001608)">
</g>
<g
   id="g16247"
   style="fill:#ffc306;fill-opacity:0.4;stroke:#ffc306;stroke-width:7.58543825;stroke-miterlimit:4;stroke-dasharray:none;stroke-opacity:1"
   transform="matrix(0.13183578,0,0,0.13183578,-6.2499759,0.50001608)">
</g>
<g
   id="g16249"
   style="fill:#ffc306;fill-opacity:0.4;stroke:#ffc306;stroke-width:7.58543825;stroke-miterlimit:4;stroke-dasharray:none;stroke-opacity:1"
   transform="matrix(0.13183578,0,0,0.13183578,-6.2499759,0.50001608)">
</g>
<g
   id="g16251"
   style="fill:#ffc306;fill-opacity:0.4;stroke:#ffc306;stroke-width:7.58543825;stroke-miterlimit:4;stroke-dasharray:none;stroke-opacity:1"
   transform="matrix(0.13183578,0,0,0.13183578,-6.2499759,0.50001608)">
</g>
<g
   id="g16253"
   style="fill:#ffc306;fill-opacity:0.4;stroke:#ffc306;stroke-width:7.58543825;stroke-miterlimit:4;stroke-dasharray:none;stroke-opacity:1"
   transform="matrix(0.13183578,0,0,0.13183578,-6.2499759,0.50001608)">
</g>
<g
   id="g16255"
   style="fill:#ffc306;fill-opacity:0.4;stroke:#ffc306;stroke-width:7.58543825;stroke-miterlimit:4;stroke-dasharray:none;stroke-opacity:1"
   transform="matrix(0.13183578,0,0,0.13183578,-6.2499759,0.50001608)">
</g>
<g
   id="g16257"
   style="fill:#ffc306;fill-opacity:0.4;stroke:#ffc306;stroke-width:7.58543825;stroke-miterlimit:4;stroke-dasharray:none;stroke-opacity:1"
   transform="matrix(0.13183578,0,0,0.13183578,-6.2499759,0.50001608)">
</g>
<g
   id="g16259"
   style="fill:#ffc306;fill-opacity:0.4;stroke:#ffc306;stroke-width:7.58543825;stroke-miterlimit:4;stroke-dasharray:none;stroke-opacity:1"
   transform="matrix(0.13183578,0,0,0.13183578,-6.2499759,0.50001608)">
</g>
<g
   id="g16261"
   style="fill:#ffc306;fill-opacity:0.4;stroke:#ffc306;stroke-width:7.58543825;stroke-miterlimit:4;stroke-dasharray:none;stroke-opacity:1"
   transform="matrix(0.13183578,0,0,0.13183578,-6.2499759,0.50001608)">
</g>
<g
   id="g16263"
   style="fill:#ffc306;fill-opacity:0.4;stroke:#ffc306;stroke-width:7.58543825;stroke-miterlimit:4;stroke-dasharray:none;stroke-opacity:1"
   transform="matrix(0.13183578,0,0,0.13183578,-6.2499759,0.50001608)">
</g>
<g
   id="g16265"
   style="fill:#ffc306;fill-opacity:0.4;stroke:#ffc306;stroke-width:7.58543825;stroke-miterlimit:4;stroke-dasharray:none;stroke-opacity:1"
   transform="matrix(0.13183578,0,0,0.13183578,-6.2499759,0.50001608)">
</g>
<g
   id="g16267"
   style="fill:#ffc306;fill-opacity:0.4;stroke:#ffc306;stroke-width:7.58543825;stroke-miterlimit:4;stroke-dasharray:none;stroke-opacity:1"
   transform="matrix(0.13183578,0,0,0.13183578,-6.2499759,0.50001608)">
</g>
<g
   id="g16269"
   style="fill:#ffc306;fill-opacity:0.4;stroke:#ffc306;stroke-width:7.58543825;stroke-miterlimit:4;stroke-dasharray:none;stroke-opacity:1"
   transform="matrix(0.13183578,0,0,0.13183578,-6.2499759,0.50001608)">
</g>
</svg>