<?xml version="1.0" encoding="UTF-8" standalone="no"?>
<!-- Generator: Adobe Illustrator 22.0.1, SVG Export Plug-In . SVG Version: 6.00 Build 0)  -->

<svg
   xmlns:dc="http://purl.org/dc/elements/1.1/"
   xmlns:cc="http://creativecommons.org/ns#"
   xmlns:rdf="http://www.w3.org/1999/02/22-rdf-syntax-ns#"
   xmlns:svg="http://www.w3.org/2000/svg"
   xmlns="http://www.w3.org/2000/svg"
   xmlns:sodipodi="http://sodipodi.sourceforge.net/DTD/sodipodi-0.dtd"
   xmlns:inkscape="http://www.inkscape.org/namespaces/inkscape"
   version="1.1"
   id="Ebene_1"
   x="0px"
   y="0px"
   viewBox="0 0 74.602409 64"
   xml:space="preserve"
   sodipodi:docname="manual.svg"
   width="74.602409"
   height="64"
   inkscape:version="0.92.3 (2405546, 2018-03-11)"><metadata
   id="metadata12572"><rdf:RDF><cc:Work
       rdf:about=""><dc:format>image/svg+xml</dc:format><dc:type
         rdf:resource="http://purl.org/dc/dcmitype/StillImage" /><dc:title></dc:title></cc:Work></rdf:RDF></metadata><defs
   id="defs12570" /><sodipodi:namedview
   pagecolor="#ffffff"
   bordercolor="#666666"
   borderopacity="1"
   objecttolerance="10"
   gridtolerance="10"
   guidetolerance="10"
   inkscape:pageopacity="0"
   inkscape:pageshadow="2"
   inkscape:window-width="1920"
   inkscape:window-height="910"
   id="namedview12568"
   showgrid="false"
   fit-margin-top="0"
   fit-margin-left="0"
   fit-margin-right="0"
   fit-margin-bottom="0"
   inkscape:zoom="16.988235"
   inkscape:cx="19.35"
   inkscape:cy="16.649998"
   inkscape:window-x="0"
   inkscape:window-y="0"
   inkscape:window-maximized="1"
   inkscape:current-layer="Ebene_1" />
<style
   type="text/css"
   id="style12557">
	.st0{fill:#868686;}
</style>
<g
   id="g12565"
   style="fill:#ffc306;fill-opacity:1"
   transform="matrix(1.9277108,0,0,1.9277108,-3.6626505,-9.0602408)">
	<path
   class="st0"
   d="m 3.7,4.8 c -1,0 -1.8,0.8 -1.8,1.8 v 26.1 c 0,1 0.8,1.8 1.8,1.8 h 7.9 c 3.3,0 6.6,1.4 7.8,2.7 0.4,0.5 1,0.7 1.7,0.7 h 0.2 c 0.6,0 1.2,-0.3 1.7,-0.7 1.2,-1.3 4.6,-2.7 7.9,-2.7 h 7.9 c 1,0 1.8,-0.8 1.8,-1.8 V 6.5 c 0,-1 -0.8,-1.8 -1.8,-1.8 h -7.9 c -3.9,0 -7.4,1.1 -9.3,3 L 21.3,8 21,7.7 c -1.9,-1.9 -5.4,-3 -9.3,-3 h -8 z M 22.5,34.2 V 11.1 c 0,-1.8 3.5,-3.9 8.4,-3.9 h 7.3 V 32 h -7.3 c -3,0 -5.7,0.6 -7.7,1.8 z m -2.4,0 -0.8,-0.4 C 17.3,32.6 14.6,32 11.6,32 H 4.3 V 7.2 h 7.3 c 5,0 8.4,2.1 8.4,3.9 v 23.1 z"
   id="path12559"
   style="fill:#ffc306;fill-opacity:1"
   inkscape:connector-curvature="0" />
	<g
   id="g12563"
   style="fill:#ffc306;fill-opacity:1">
		<path
   class="st0"
   d="m 32.2,14.8 c 0,0.5 -0.1,0.8 -0.3,1 -0.2,0.2 -0.6,0.3 -1.1,0.3 -0.6,0 -0.9,-0.1 -1.1,-0.3 -0.2,-0.2 -0.3,-0.5 -0.3,-1 0,-0.5 0.1,-0.8 0.3,-1 0.2,-0.2 0.6,-0.3 1.1,-0.3 0.5,0 0.9,0.1 1.1,0.3 0.2,0.2 0.3,0.5 0.3,1 z M 32,26.4 c 0,0.1 0,0.1 -0.1,0.2 -0.1,0.1 -0.1,0.1 -0.2,0.1 -0.1,0 -0.2,0.1 -0.4,0.1 -0.2,0 -0.4,0 -0.6,0 -0.2,0 -0.4,0 -0.6,0 -0.2,0 -0.3,0 -0.4,-0.1 -0.1,-0.1 -0.2,-0.1 -0.2,-0.1 0,0 -0.1,-0.1 -0.1,-0.2 v -8.7 c 0,-0.1 0,-0.1 0.1,-0.2 0.1,-0.1 0.1,-0.1 0.2,-0.1 0.1,0 0.2,-0.1 0.4,-0.1 0.2,0 0.4,0 0.6,0 0.2,0 0.4,0 0.6,0 0.2,0 0.3,0 0.4,0.1 0.1,0.1 0.2,0.1 0.2,0.1 0,0 0.1,0.1 0.1,0.2 z"
   id="path12561"
   style="fill:#ffc306;fill-opacity:1"
   inkscape:connector-curvature="0" />
	</g>
</g>
</svg>