<?xml version="1.0" encoding="UTF-8" standalone="no"?>
<!-- Generator: Adobe Illustrator 19.0.0, SVG Export Plug-In . SVG Version: 6.00 Build 0)  -->

<svg
   xmlns:dc="http://purl.org/dc/elements/1.1/"
   xmlns:cc="http://creativecommons.org/ns#"
   xmlns:rdf="http://www.w3.org/1999/02/22-rdf-syntax-ns#"
   xmlns:svg="http://www.w3.org/2000/svg"
   xmlns="http://www.w3.org/2000/svg"
   xmlns:sodipodi="http://sodipodi.sourceforge.net/DTD/sodipodi-0.dtd"
   xmlns:inkscape="http://www.inkscape.org/namespaces/inkscape"
   version="1.1"
   id="Capa_1"
   x="0px"
   y="0px"
   viewBox="0 0 64 64"
   xml:space="preserve"
   sodipodi:docname="markup.svg"
   width="64"
   height="64"
   inkscape:version="0.92.3 (2405546, 2018-03-11)"><metadata
   id="metadata16759"><rdf:RDF><cc:Work
       rdf:about=""><dc:format>image/svg+xml</dc:format><dc:type
         rdf:resource="http://purl.org/dc/dcmitype/StillImage" /><dc:title></dc:title></cc:Work></rdf:RDF></metadata><defs
   id="defs16757" /><sodipodi:namedview
   pagecolor="#ffffff"
   bordercolor="#666666"
   borderopacity="1"
   objecttolerance="10"
   gridtolerance="10"
   guidetolerance="10"
   inkscape:pageopacity="0"
   inkscape:pageshadow="2"
   inkscape:window-width="1920"
   inkscape:window-height="910"
   id="namedview16755"
   showgrid="false"
   fit-margin-top="0"
   fit-margin-left="0"
   fit-margin-right="0"
   fit-margin-bottom="0"
   inkscape:zoom="0.4609375"
   inkscape:cx="253.83051"
   inkscape:cy="256.00025"
   inkscape:window-x="0"
   inkscape:window-y="0"
   inkscape:window-maximized="1"
   inkscape:current-layer="Capa_1" />
<g
   transform="matrix(0.12499994,0,0,0.12499994,0.12499994,0.12499994)"
   id="g16722"
   style="fill:#ffc306;fill-opacity:1;stroke:none">
	<g
   id="g16720"
   style="fill:#ffc306;fill-opacity:1;stroke:none">
		<g
   id="g16718"
   style="fill:#ffc306;fill-opacity:1;stroke:none">
			<path
   d="m 436.016,73.984 c -99.979,-99.979 -262.075,-99.979 -362.033,0.002 -99.978,99.978 -99.978,262.073 0.004,362.031 99.954,99.978 262.05,99.978 362.029,-0.002 99.979,-99.956 99.979,-262.051 0,-362.031 z m -30.168,331.86 c -83.318,83.318 -218.396,83.318 -301.691,0.004 -83.318,-83.299 -83.318,-218.377 -0.002,-301.693 83.297,-83.317 218.375,-83.317 301.691,0 83.316,83.317 83.316,218.394 0.002,301.689 z"
   id="path16712"
   style="fill:#ffc306;fill-opacity:1;stroke:none"
   inkscape:connector-curvature="0" />
			<path
   d="m 254.996,84.338 c -11.782,0 -21.333,9.551 -21.333,21.333 v 213.333 c 0,11.782 9.551,21.333 21.333,21.333 11.782,0 21.333,-9.551 21.333,-21.333 V 105.671 c 0,-11.782 -9.551,-21.333 -21.333,-21.333 z"
   id="path16714"
   style="fill:#ffc306;fill-opacity:1;stroke:none"
   inkscape:connector-curvature="0" />
			<path
   d="m 254.996,383.004 c -11.776,0 -21.333,9.557 -21.333,21.333 0,11.776 9.557,21.333 21.333,21.333 11.776,0 21.333,-9.557 21.333,-21.333 0,-11.776 -9.557,-21.333 -21.333,-21.333 z"
   id="path16716"
   style="fill:#ffc306;fill-opacity:1;stroke:none"
   inkscape:connector-curvature="0" />
		</g>
	</g>
</g>
<g
   id="g16724"
   style="fill:#ffc306;fill-opacity:1;stroke:none"
   transform="scale(0.12499994)">
</g>
<g
   id="g16726"
   style="fill:#ffc306;fill-opacity:1;stroke:none"
   transform="scale(0.12499994)">
</g>
<g
   id="g16728"
   style="fill:#ffc306;fill-opacity:1;stroke:none"
   transform="scale(0.12499994)">
</g>
<g
   id="g16730"
   style="fill:#ffc306;fill-opacity:1;stroke:none"
   transform="scale(0.12499994)">
</g>
<g
   id="g16732"
   style="fill:#ffc306;fill-opacity:1;stroke:none"
   transform="scale(0.12499994)">
</g>
<g
   id="g16734"
   style="fill:#ffc306;fill-opacity:1;stroke:none"
   transform="scale(0.12499994)">
</g>
<g
   id="g16736"
   style="fill:#ffc306;fill-opacity:1;stroke:none"
   transform="scale(0.12499994)">
</g>
<g
   id="g16738"
   style="fill:#ffc306;fill-opacity:1;stroke:none"
   transform="scale(0.12499994)">
</g>
<g
   id="g16740"
   style="fill:#ffc306;fill-opacity:1;stroke:none"
   transform="scale(0.12499994)">
</g>
<g
   id="g16742"
   style="fill:#ffc306;fill-opacity:1;stroke:none"
   transform="scale(0.12499994)">
</g>
<g
   id="g16744"
   style="fill:#ffc306;fill-opacity:1;stroke:none"
   transform="scale(0.12499994)">
</g>
<g
   id="g16746"
   style="fill:#ffc306;fill-opacity:1;stroke:none"
   transform="scale(0.12499994)">
</g>
<g
   id="g16748"
   style="fill:#ffc306;fill-opacity:1;stroke:none"
   transform="scale(0.12499994)">
</g>
<g
   id="g16750"
   style="fill:#ffc306;fill-opacity:1;stroke:none"
   transform="scale(0.12499994)">
</g>
<g
   id="g16752"
   style="fill:#ffc306;fill-opacity:1;stroke:none"
   transform="scale(0.12499994)">
</g>
</svg>