<?xml version="1.0" encoding="UTF-8" standalone="no"?>
<!-- Generator: Adobe Illustrator 19.0.0, SVG Export Plug-In . SVG Version: 6.00 Build 0)  -->

<svg
   xmlns:dc="http://purl.org/dc/elements/1.1/"
   xmlns:cc="http://creativecommons.org/ns#"
   xmlns:rdf="http://www.w3.org/1999/02/22-rdf-syntax-ns#"
   xmlns:svg="http://www.w3.org/2000/svg"
   xmlns="http://www.w3.org/2000/svg"
   xmlns:sodipodi="http://sodipodi.sourceforge.net/DTD/sodipodi-0.dtd"
   xmlns:inkscape="http://www.inkscape.org/namespaces/inkscape"
   version="1.1"
   id="Capa_1"
   x="0px"
   y="0px"
   viewBox="0 0 7.9999061 64"
   xml:space="preserve"
   sodipodi:docname="markup.svg"
   width="7.9999061"
   height="64"
   inkscape:version="0.92.3 (2405546, 2018-03-11)"><metadata
   id="metadata16759"><rdf:RDF><cc:Work
       rdf:about=""><dc:format>image/svg+xml</dc:format><dc:type
         rdf:resource="http://purl.org/dc/dcmitype/StillImage" /><dc:title></dc:title></cc:Work></rdf:RDF></metadata><defs
   id="defs16757">
	

		
	
			
			
			
		</defs><sodipodi:namedview
   pagecolor="#ffffff"
   bordercolor="#666666"
   borderopacity="1"
   objecttolerance="10"
   gridtolerance="10"
   guidetolerance="10"
   inkscape:pageopacity="0"
   inkscape:pageshadow="2"
   inkscape:window-width="1920"
   inkscape:window-height="910"
   id="namedview16755"
   showgrid="false"
   fit-margin-top="0"
   fit-margin-left="0"
   fit-margin-right="0"
   fit-margin-bottom="0"
   inkscape:zoom="3.6875"
   inkscape:cx="135.28128"
   inkscape:cy="40.205044"
   inkscape:window-x="0"
   inkscape:window-y="0"
   inkscape:window-maximized="1"
   inkscape:current-layer="Capa_1" />
<path
   inkscape:connector-curvature="0"
   style="fill:#ffc306;fill-opacity:1;stroke:none;stroke-width:0.18750073"
   id="path16714"
   d="M 3.999954,0 C 1.790819,0 0,1.7908189 0,3.9999536 V 44.000048 c 0,2.209133 1.790819,3.999953 3.999954,3.999953 2.209133,0 3.999952,-1.79082 3.999952,-3.999953 V 3.9999536 C 7.999906,1.7908189 6.209087,0 3.999954,0 Z" /><path
   inkscape:connector-curvature="0"
   style="fill:#ffc306;fill-opacity:1;stroke:none;stroke-width:0.18750073"
   id="path16716"
   d="M 3.999954,56.000094 C 1.791944,56.000094 0,57.792038 0,60.000048 0,62.208056 1.791944,64 3.999954,64 c 2.208008,0 3.999952,-1.791944 3.999952,-3.999952 0,-2.20801 -1.791944,-3.999954 -3.999952,-3.999954 z" />
<g
   id="g16724"
   style="fill:#ffc306;fill-opacity:1;stroke:none"
   transform="matrix(0.18750073,0,0,0.18750073,-43.999485,-16.000938)">
</g>
<g
   id="g16726"
   style="fill:#ffc306;fill-opacity:1;stroke:none"
   transform="matrix(0.18750073,0,0,0.18750073,-43.999485,-16.000938)">
</g>
<g
   id="g16728"
   style="fill:#ffc306;fill-opacity:1;stroke:none"
   transform="matrix(0.18750073,0,0,0.18750073,-43.999485,-16.000938)">
</g>
<g
   id="g16730"
   style="fill:#ffc306;fill-opacity:1;stroke:none"
   transform="matrix(0.18750073,0,0,0.18750073,-43.999485,-16.000938)">
</g>
<g
   id="g16732"
   style="fill:#ffc306;fill-opacity:1;stroke:none"
   transform="matrix(0.18750073,0,0,0.18750073,-43.999485,-16.000938)">
</g>
<g
   id="g16734"
   style="fill:#ffc306;fill-opacity:1;stroke:none"
   transform="matrix(0.18750073,0,0,0.18750073,-43.999485,-16.000938)">
</g>
<g
   id="g16736"
   style="fill:#ffc306;fill-opacity:1;stroke:none"
   transform="matrix(0.18750073,0,0,0.18750073,-43.999485,-16.000938)">
</g>
<g
   id="g16738"
   style="fill:#ffc306;fill-opacity:1;stroke:none"
   transform="matrix(0.18750073,0,0,0.18750073,-43.999485,-16.000938)">
</g>
<g
   id="g16740"
   style="fill:#ffc306;fill-opacity:1;stroke:none"
   transform="matrix(0.18750073,0,0,0.18750073,-43.999485,-16.000938)">
</g>
<g
   id="g16742"
   style="fill:#ffc306;fill-opacity:1;stroke:none"
   transform="matrix(0.18750073,0,0,0.18750073,-43.999485,-16.000938)">
</g>
<g
   id="g16744"
   style="fill:#ffc306;fill-opacity:1;stroke:none"
   transform="matrix(0.18750073,0,0,0.18750073,-43.999485,-16.000938)">
</g>
<g
   id="g16746"
   style="fill:#ffc306;fill-opacity:1;stroke:none"
   transform="matrix(0.18750073,0,0,0.18750073,-43.999485,-16.000938)">
</g>
<g
   id="g16748"
   style="fill:#ffc306;fill-opacity:1;stroke:none"
   transform="matrix(0.18750073,0,0,0.18750073,-43.999485,-16.000938)">
</g>
<g
   id="g16750"
   style="fill:#ffc306;fill-opacity:1;stroke:none"
   transform="matrix(0.18750073,0,0,0.18750073,-43.999485,-16.000938)">
</g>
<g
   id="g16752"
   style="fill:#ffc306;fill-opacity:1;stroke:none"
   transform="matrix(0.18750073,0,0,0.18750073,-43.999485,-16.000938)">
</g>
</svg>