<?xml version="1.0" encoding="UTF-8" standalone="no"?>
<!-- Generator: Adobe Illustrator 19.0.0, SVG Export Plug-In . SVG Version: 6.00 Build 0)  -->

<svg
   xmlns:dc="http://purl.org/dc/elements/1.1/"
   xmlns:cc="http://creativecommons.org/ns#"
   xmlns:rdf="http://www.w3.org/1999/02/22-rdf-syntax-ns#"
   xmlns:svg="http://www.w3.org/2000/svg"
   xmlns="http://www.w3.org/2000/svg"
   xmlns:sodipodi="http://sodipodi.sourceforge.net/DTD/sodipodi-0.dtd"
   xmlns:inkscape="http://www.inkscape.org/namespaces/inkscape"
   version="1.1"
   id="Capa_1"
   x="0px"
   y="0px"
   viewBox="0 0 125.81999 64"
   xml:space="preserve"
   sodipodi:docname="merge.svg"
   width="125.81999"
   height="64"
   inkscape:version="0.92.3 (2405546, 2018-03-11)"><metadata
   id="metadata17858"><rdf:RDF><cc:Work
       rdf:about=""><dc:format>image/svg+xml</dc:format><dc:type
         rdf:resource="http://purl.org/dc/dcmitype/StillImage" /><dc:title></dc:title></cc:Work></rdf:RDF></metadata><defs
   id="defs17856" /><sodipodi:namedview
   pagecolor="#ffffff"
   bordercolor="#666666"
   borderopacity="1"
   objecttolerance="10"
   gridtolerance="10"
   guidetolerance="10"
   inkscape:pageopacity="0"
   inkscape:pageshadow="2"
   inkscape:window-width="1920"
   inkscape:window-height="910"
   id="namedview17854"
   showgrid="false"
   fit-margin-top="0"
   fit-margin-left="0"
   fit-margin-right="0"
   fit-margin-bottom="0"
   inkscape:zoom="0.46892386"
   inkscape:cx="249.50745"
   inkscape:cy="128.00001"
   inkscape:window-x="0"
   inkscape:window-y="0"
   inkscape:window-maximized="1"
   inkscape:current-layer="Capa_1" />
<g
   id="g17821"
   style="fill:#ffc306;fill-opacity:1;stroke:none;stroke-opacity:1"
   transform="matrix(0,0.24999999,-0.24999999,0,125.81999,-30.909999)">
	<g
   id="g17819"
   style="fill:#ffc306;fill-opacity:1;stroke:none;stroke-opacity:1">
		<g
   id="g17817"
   style="fill:#ffc306;fill-opacity:1;stroke:none;stroke-opacity:1">
			<rect
   x="123.64"
   y="471.28"
   width="32"
   height="32"
   id="rect17807"
   style="fill:#ffc306;fill-opacity:1;stroke:none;stroke-opacity:1" />
			<rect
   x="123.64"
   y="407.28"
   width="32"
   height="32"
   id="rect17809"
   style="fill:#ffc306;fill-opacity:1;stroke:none;stroke-opacity:1" />
			<rect
   x="347.64001"
   y="471.28"
   width="32"
   height="32"
   id="rect17811"
   style="fill:#ffc306;fill-opacity:1;stroke:none;stroke-opacity:1" />
			<rect
   x="347.64001"
   y="407.28"
   width="32"
   height="32"
   id="rect17813"
   style="fill:#ffc306;fill-opacity:1;stroke:none;stroke-opacity:1" />
			<polygon
   points="252.168,0 177.448,75.488 200.2,98 235.64,62.192 235.64,208.928 123.64,304.928 123.64,375.28 155.64,375.28 155.64,319.648 251.64,237.36 347.64,319.648 347.64,375.28 379.64,375.28 379.64,304.928 267.64,208.928 267.64,61.12 304.152,98 326.904,75.488 "
   id="polygon17815"
   style="fill:#ffc306;fill-opacity:1;stroke:none;stroke-opacity:1" />
		</g>
	</g>
</g>
<g
   id="g17823"
   style="fill:#ffc306;fill-opacity:1;stroke:none;stroke-opacity:1"
   transform="matrix(0,0.24999999,-0.24999999,0,125.81999,94.909991)">
</g>
<g
   id="g17825"
   style="fill:#ffc306;fill-opacity:1;stroke:none;stroke-opacity:1"
   transform="matrix(0,0.24999999,-0.24999999,0,125.81999,94.909991)">
</g>
<g
   id="g17827"
   style="fill:#ffc306;fill-opacity:1;stroke:none;stroke-opacity:1"
   transform="matrix(0,0.24999999,-0.24999999,0,125.81999,94.909991)">
</g>
<g
   id="g17829"
   style="fill:#ffc306;fill-opacity:1;stroke:none;stroke-opacity:1"
   transform="matrix(0,0.24999999,-0.24999999,0,125.81999,94.909991)">
</g>
<g
   id="g17831"
   style="fill:#ffc306;fill-opacity:1;stroke:none;stroke-opacity:1"
   transform="matrix(0,0.24999999,-0.24999999,0,125.81999,94.909991)">
</g>
<g
   id="g17833"
   style="fill:#ffc306;fill-opacity:1;stroke:none;stroke-opacity:1"
   transform="matrix(0,0.24999999,-0.24999999,0,125.81999,94.909991)">
</g>
<g
   id="g17835"
   style="fill:#ffc306;fill-opacity:1;stroke:none;stroke-opacity:1"
   transform="matrix(0,0.24999999,-0.24999999,0,125.81999,94.909991)">
</g>
<g
   id="g17837"
   style="fill:#ffc306;fill-opacity:1;stroke:none;stroke-opacity:1"
   transform="matrix(0,0.24999999,-0.24999999,0,125.81999,94.909991)">
</g>
<g
   id="g17839"
   style="fill:#ffc306;fill-opacity:1;stroke:none;stroke-opacity:1"
   transform="matrix(0,0.24999999,-0.24999999,0,125.81999,94.909991)">
</g>
<g
   id="g17841"
   style="fill:#ffc306;fill-opacity:1;stroke:none;stroke-opacity:1"
   transform="matrix(0,0.24999999,-0.24999999,0,125.81999,94.909991)">
</g>
<g
   id="g17843"
   style="fill:#ffc306;fill-opacity:1;stroke:none;stroke-opacity:1"
   transform="matrix(0,0.24999999,-0.24999999,0,125.81999,94.909991)">
</g>
<g
   id="g17845"
   style="fill:#ffc306;fill-opacity:1;stroke:none;stroke-opacity:1"
   transform="matrix(0,0.24999999,-0.24999999,0,125.81999,94.909991)">
</g>
<g
   id="g17847"
   style="fill:#ffc306;fill-opacity:1;stroke:none;stroke-opacity:1"
   transform="matrix(0,0.24999999,-0.24999999,0,125.81999,94.909991)">
</g>
<g
   id="g17849"
   style="fill:#ffc306;fill-opacity:1;stroke:none;stroke-opacity:1"
   transform="matrix(0,0.24999999,-0.24999999,0,125.81999,94.909991)">
</g>
<g
   id="g17851"
   style="fill:#ffc306;fill-opacity:1;stroke:none;stroke-opacity:1"
   transform="matrix(0,0.24999999,-0.24999999,0,125.81999,94.909991)">
</g>
</svg>