<?xml version="1.0" encoding="UTF-8" standalone="no"?>
<!-- Generator: Adobe Illustrator 19.0.0, SVG Export Plug-In . SVG Version: 6.00 Build 0)  -->

<svg
   xmlns:dc="http://purl.org/dc/elements/1.1/"
   xmlns:cc="http://creativecommons.org/ns#"
   xmlns:rdf="http://www.w3.org/1999/02/22-rdf-syntax-ns#"
   xmlns:svg="http://www.w3.org/2000/svg"
   xmlns="http://www.w3.org/2000/svg"
   xmlns:sodipodi="http://sodipodi.sourceforge.net/DTD/sodipodi-0.dtd"
   xmlns:inkscape="http://www.inkscape.org/namespaces/inkscape"
   version="1.1"
   id="Capa_1"
   x="0px"
   y="0px"
   viewBox="0 0 64.000191 64"
   xml:space="preserve"
   sodipodi:docname="pencil.svg"
   width="64.000191"
   height="64"
   inkscape:version="0.92.3 (2405546, 2018-03-11)"><metadata
   id="metadata18556"><rdf:RDF><cc:Work
       rdf:about=""><dc:format>image/svg+xml</dc:format><dc:type
         rdf:resource="http://purl.org/dc/dcmitype/StillImage" /><dc:title></dc:title></cc:Work></rdf:RDF></metadata><defs
   id="defs18554" /><sodipodi:namedview
   pagecolor="#ffffff"
   bordercolor="#666666"
   borderopacity="1"
   objecttolerance="10"
   gridtolerance="10"
   guidetolerance="10"
   inkscape:pageopacity="0"
   inkscape:pageshadow="2"
   inkscape:window-width="1920"
   inkscape:window-height="910"
   id="namedview18552"
   showgrid="false"
   fit-margin-top="0"
   fit-margin-left="0"
   fit-margin-right="0"
   fit-margin-bottom="0"
   inkscape:zoom="1.5383435"
   inkscape:cx="234.6684"
   inkscape:cy="234.668"
   inkscape:window-x="0"
   inkscape:window-y="0"
   inkscape:window-maximized="1"
   inkscape:current-layer="Capa_1" />
<g
   id="g18519"
   style="fill:#ffc306;fill-opacity:1"
   transform="matrix(0.13636344,0,0,0.13636344,5.5322288e-5,-2.7272688e-4)">
	<g
   id="g18517"
   style="fill:#ffc306;fill-opacity:1">
		<g
   id="g18515"
   style="fill:#ffc306;fill-opacity:1">
			<path
   d="m 347.878,151.357 c -4,-4.003 -11.083,-4.003 -15.083,0 L 129.909,354.414 c -2.427,2.429 -3.531,5.87 -2.99,9.258 0.552,3.388 2.698,6.307 5.76,7.84 l 16.656,8.34 v 28.049 l -51.031,14.602 -51.51,-51.554 14.59,-51.075 h 28.025 l 8.333,16.67 c 1.531,3.065 4.448,5.213 7.833,5.765 0.573,0.094 1.146,0.135 1.708,0.135 2.802,0 5.531,-1.105 7.542,-3.128 L 317.711,136.26 c 2,-2.002 3.125,-4.712 3.125,-7.548 0,-2.836 -1.125,-5.546 -3.125,-7.548 L 278.482,81.901 c -2,-2.002 -4.708,-3.128 -7.542,-3.128 h -0.021 c -2.844,0.01 -5.563,1.147 -7.552,3.159 L 45.763,301.682 c -0.105,0.107 -0.1,0.27 -0.201,0.379 -1.095,1.183 -2.009,2.549 -2.487,4.208 L 24.554,371.126 0.409,455.73 c -1.063,3.722 -0.021,7.736 2.719,10.478 2.031,2.033 4.75,3.128 7.542,3.128 0.979,0 1.958,-0.136 2.927,-0.407 l 84.531,-24.166 64.802,-18.537 c 0.195,-0.056 0.329,-0.203 0.52,-0.27 0.673,-0.232 1.262,-0.61 1.881,-0.976 0.608,-0.361 1.216,-0.682 1.73,-1.146 0.138,-0.122 0.319,-0.167 0.452,-0.298 L 387.076,205.747 c 2.01,-1.991 3.146,-4.712 3.156,-7.558 0.01,-2.836 -1.115,-5.557 -3.125,-7.569 z"
   id="path18511"
   style="fill:#ffc306;fill-opacity:1"
   inkscape:connector-curvature="0" />
			<path
   d="m 456.836,76.168 -64,-64.054 c -16.125,-16.139 -44.177,-16.17 -60.365,0.031 l -39.073,39.461 c -4.135,4.181 -4.125,10.905 0.031,15.065 l 108.896,108.988 c 2.083,2.085 4.813,3.128 7.542,3.128 2.719,0 5.427,-1.032 7.51,-3.096 l 39.458,-39.137 c 8.063,-8.069 12.5,-18.787 12.5,-30.192 0,-11.405 -4.436,-22.125 -12.499,-30.194 z"
   id="path18513"
   style="fill:#ffc306;fill-opacity:1"
   inkscape:connector-curvature="0" />
		</g>
	</g>
</g>
<g
   id="g18521"
   transform="translate(4.0569736e-4,-405.336)">
</g>
<g
   id="g18523"
   transform="translate(4.0569736e-4,-405.336)">
</g>
<g
   id="g18525"
   transform="translate(4.0569736e-4,-405.336)">
</g>
<g
   id="g18527"
   transform="translate(4.0569736e-4,-405.336)">
</g>
<g
   id="g18529"
   transform="translate(4.0569736e-4,-405.336)">
</g>
<g
   id="g18531"
   transform="translate(4.0569736e-4,-405.336)">
</g>
<g
   id="g18533"
   transform="translate(4.0569736e-4,-405.336)">
</g>
<g
   id="g18535"
   transform="translate(4.0569736e-4,-405.336)">
</g>
<g
   id="g18537"
   transform="translate(4.0569736e-4,-405.336)">
</g>
<g
   id="g18539"
   transform="translate(4.0569736e-4,-405.336)">
</g>
<g
   id="g18541"
   transform="translate(4.0569736e-4,-405.336)">
</g>
<g
   id="g18543"
   transform="translate(4.0569736e-4,-405.336)">
</g>
<g
   id="g18545"
   transform="translate(4.0569736e-4,-405.336)">
</g>
<g
   id="g18547"
   transform="translate(4.0569736e-4,-405.336)">
</g>
<g
   id="g18549"
   transform="translate(4.0569736e-4,-405.336)">
</g>
</svg>