<?xml version="1.0" encoding="UTF-8" standalone="no"?>
<!-- Generator: Adobe Illustrator 19.0.0, SVG Export Plug-In . SVG Version: 6.00 Build 0)  -->

<svg
   xmlns:dc="http://purl.org/dc/elements/1.1/"
   xmlns:cc="http://creativecommons.org/ns#"
   xmlns:rdf="http://www.w3.org/1999/02/22-rdf-syntax-ns#"
   xmlns:svg="http://www.w3.org/2000/svg"
   xmlns="http://www.w3.org/2000/svg"
   xmlns:sodipodi="http://sodipodi.sourceforge.net/DTD/sodipodi-0.dtd"
   xmlns:inkscape="http://www.inkscape.org/namespaces/inkscape"
   version="1.1"
   id="Capa_1"
   x="0px"
   y="0px"
   viewBox="0 0 64 64"
   xml:space="preserve"
   sodipodi:docname="question.svg"
   width="64"
   height="64"
   inkscape:version="0.92.3 (2405546, 2018-03-11)"><metadata
   id="metadata12282"><rdf:RDF><cc:Work
       rdf:about=""><dc:format>image/svg+xml</dc:format><dc:type
         rdf:resource="http://purl.org/dc/dcmitype/StillImage" /><dc:title></dc:title></cc:Work></rdf:RDF></metadata><defs
   id="defs12280" /><sodipodi:namedview
   pagecolor="#ffffff"
   bordercolor="#666666"
   borderopacity="1"
   objecttolerance="10"
   gridtolerance="10"
   guidetolerance="10"
   inkscape:pageopacity="0"
   inkscape:pageshadow="2"
   inkscape:window-width="1920"
   inkscape:window-height="910"
   id="namedview12278"
   showgrid="false"
   fit-margin-top="0"
   fit-margin-left="0"
   fit-margin-right="0"
   fit-margin-bottom="0"
   inkscape:zoom="0.70507813"
   inkscape:cx="-95.747635"
   inkscape:cy="228.20565"
   inkscape:window-x="0"
   inkscape:window-y="0"
   inkscape:window-maximized="1"
   inkscape:current-layer="Capa_1" />
<g
   id="g12245"
   style="fill:#ffc306;fill-opacity:1"
   transform="scale(0.125)">
	<g
   id="g12243"
   style="fill:#ffc306;fill-opacity:1">
		<g
   id="g12241"
   style="fill:#ffc306;fill-opacity:1">
			<circle
   cx="256"
   cy="378.5"
   r="25"
   id="circle12235"
   style="fill:#ffc306;fill-opacity:1" />
			<path
   d="M 256,0 C 114.516,0 0,114.497 0,256 0,397.484 114.497,512 256,512 397.484,512 512,397.503 512,256 512,114.516 397.503,0 256,0 Z m 0,472 C 136.623,472 40,375.393 40,256 40,136.623 136.607,40 256,40 c 119.377,0 216,96.607 216,216 0,119.377 -96.607,216 -216,216 z"
   id="path12237"
   style="fill:#ffc306;fill-opacity:1"
   inkscape:connector-curvature="0" />
			<path
   d="m 256,128.5 c -44.112,0 -80,35.888 -80,80 0,11.046 8.954,20 20,20 11.046,0 20,-8.954 20,-20 0,-22.056 17.944,-40 40,-40 22.056,0 40,17.944 40,40 0,22.056 -17.944,40 -40,40 -11.046,0 -20,8.954 -20,20 v 50 c 0,11.046 8.954,20 20,20 11.046,0 20,-8.954 20,-20 v -32.531 c 34.466,-8.903 60,-40.26 60,-77.469 0,-44.112 -35.888,-80 -80,-80 z"
   id="path12239"
   style="fill:#ffc306;fill-opacity:1"
   inkscape:connector-curvature="0" />
		</g>
	</g>
</g>
<g
   id="g12247"
   transform="translate(0,-448)">
</g>
<g
   id="g12249"
   transform="translate(0,-448)">
</g>
<g
   id="g12251"
   transform="translate(0,-448)">
</g>
<g
   id="g12253"
   transform="translate(0,-448)">
</g>
<g
   id="g12255"
   transform="translate(0,-448)">
</g>
<g
   id="g12257"
   transform="translate(0,-448)">
</g>
<g
   id="g12259"
   transform="translate(0,-448)">
</g>
<g
   id="g12261"
   transform="translate(0,-448)">
</g>
<g
   id="g12263"
   transform="translate(0,-448)">
</g>
<g
   id="g12265"
   transform="translate(0,-448)">
</g>
<g
   id="g12267"
   transform="translate(0,-448)">
</g>
<g
   id="g12269"
   transform="translate(0,-448)">
</g>
<g
   id="g12271"
   transform="translate(0,-448)">
</g>
<g
   id="g12273"
   transform="translate(0,-448)">
</g>
<g
   id="g12275"
   transform="translate(0,-448)">
</g>
</svg>