<?xml version="1.0" encoding="UTF-8" standalone="no"?>
<svg
   xmlns:dc="http://purl.org/dc/elements/1.1/"
   xmlns:cc="http://creativecommons.org/ns#"
   xmlns:rdf="http://www.w3.org/1999/02/22-rdf-syntax-ns#"
   xmlns:svg="http://www.w3.org/2000/svg"
   xmlns="http://www.w3.org/2000/svg"
   xmlns:sodipodi="http://sodipodi.sourceforge.net/DTD/sodipodi-0.dtd"
   xmlns:inkscape="http://www.inkscape.org/namespaces/inkscape"
   id="Capa_1"
   enable-background="new 0 0 512 512"
   height="64"
   viewBox="0 0 53.75 64"
   width="53.75"
   version="1.1"
   sodipodi:docname="reader.svg"
   inkscape:version="0.92.3 (2405546, 2018-03-11)">
  <metadata
     id="metadata1513">
    <rdf:RDF>
      <cc:Work
         rdf:about="">
        <dc:format>image/svg+xml</dc:format>
        <dc:type
           rdf:resource="http://purl.org/dc/dcmitype/StillImage" />
        <dc:title></dc:title>
      </cc:Work>
    </rdf:RDF>
  </metadata>
  <defs
     id="defs1511" />
  <sodipodi:namedview
     pagecolor="#ffffff"
     bordercolor="#666666"
     borderopacity="1"
     objecttolerance="10"
     gridtolerance="10"
     guidetolerance="10"
     inkscape:pageopacity="0"
     inkscape:pageshadow="2"
     inkscape:window-width="1920"
     inkscape:window-height="910"
     id="namedview1509"
     showgrid="false"
     fit-margin-top="0"
     fit-margin-left="0"
     fit-margin-right="0"
     fit-margin-bottom="0"
     inkscape:zoom="0.4609375"
     inkscape:cx="215"
     inkscape:cy="256"
     inkscape:window-x="0"
     inkscape:window-y="0"
     inkscape:window-maximized="1"
     inkscape:current-layer="Capa_1" />
  <g
     id="g1506"
     transform="matrix(0.125,0,0,0.125,-5.125,0)"
     style="fill:#ffc306;fill-opacity:1">
    <circle
       cx="256"
       cy="85"
       r="85"
       id="circle1494"
       style="fill:#ffc306;fill-opacity:1" />
    <path
       d="M 318.459,181.515 C 300.462,193.202 279.011,200 256,200 c -23.011,0 -44.462,-6.798 -62.459,-18.485 -19.895,7.603 -38.341,18.82 -54.38,33.216 L 256,258.546 372.839,214.731 C 356.8,200.335 338.354,189.117 318.459,181.515 Z"
       id="path1496"
       inkscape:connector-curvature="0"
       style="fill:#ffc306;fill-opacity:1" />
    <path
       d="m 436,310 h -10 c -8.284,0 -15,6.716 -15,15 v 40 c 0,8.284 6.716,15 15,15 h 10 c 19.33,0 35,-15.67 35,-35 0,-19.33 -15.67,-35 -35,-35 z"
       id="path1498"
       inkscape:connector-curvature="0"
       style="fill:#ffc306;fill-opacity:1" />
    <path
       d="M 87.456,234.276 C 83.412,237.079 81,241.685 81,246.605 V 280 h 5 c 24.813,0 45,20.187 45,45 v 40 c 0,24.813 -20.187,45 -45,45 h -5 v 31.605 c 0,6.253 3.879,11.85 9.733,14.045 L 241,512 V 284.96 l -139.733,-52.4 c -4.607,-1.729 -9.768,-1.088 -13.811,1.716 z"
       id="path1500"
       inkscape:connector-curvature="0"
       style="fill:#ffc306;fill-opacity:1" />
    <path
       d="m 381,365 v -40 c 0,-24.813 20.187,-45 45,-45 h 5 v -33.395 c 0,-4.92 -2.412,-9.526 -6.456,-12.329 -4.044,-2.804 -9.206,-3.445 -13.811,-1.716 L 271,284.96 V 512 L 421.267,455.65 C 427.121,453.455 431,447.858 431,441.605 V 410 h -5 c -24.813,0 -45,-20.187 -45,-45 z"
       id="path1502"
       inkscape:connector-curvature="0"
       style="fill:#ffc306;fill-opacity:1" />
    <path
       d="m 101,365 v -40 c 0,-8.284 -6.716,-15 -15,-15 H 76 c -19.33,0 -35,15.67 -35,35 0,19.33 15.67,35 35,35 h 10 c 8.284,0 15,-6.716 15,-15 z"
       id="path1504"
       inkscape:connector-curvature="0"
       style="fill:#ffc306;fill-opacity:1" />
  </g>
</svg>
