<?xml version="1.0" encoding="UTF-8" standalone="no"?>
<svg
   xmlns:dc="http://purl.org/dc/elements/1.1/"
   xmlns:cc="http://creativecommons.org/ns#"
   xmlns:rdf="http://www.w3.org/1999/02/22-rdf-syntax-ns#"
   xmlns:svg="http://www.w3.org/2000/svg"
   xmlns="http://www.w3.org/2000/svg"
   xmlns:sodipodi="http://sodipodi.sourceforge.net/DTD/sodipodi-0.dtd"
   xmlns:inkscape="http://www.inkscape.org/namespaces/inkscape"
   height="48pt"
   version="1.1"
   viewBox="-1 0 47.058689 48.077125"
   width="47.058689pt"
   id="svg18467"
   sodipodi:docname="search.svg"
   inkscape:version="0.92.3 (2405546, 2018-03-11)">
  <metadata
     id="metadata18473">
    <rdf:RDF>
      <cc:Work
         rdf:about="">
        <dc:format>image/svg+xml</dc:format>
        <dc:type
           rdf:resource="http://purl.org/dc/dcmitype/StillImage" />
        <dc:title></dc:title>
      </cc:Work>
    </rdf:RDF>
  </metadata>
  <defs
     id="defs18471" />
  <sodipodi:namedview
     pagecolor="#ffffff"
     bordercolor="#666666"
     borderopacity="1"
     objecttolerance="10"
     gridtolerance="10"
     guidetolerance="10"
     inkscape:pageopacity="0"
     inkscape:pageshadow="2"
     inkscape:window-width="1920"
     inkscape:window-height="910"
     id="namedview18469"
     showgrid="false"
     fit-margin-top="0"
     fit-margin-left="0"
     fit-margin-right="0"
     fit-margin-bottom="0"
     inkscape:zoom="3.9816176"
     inkscape:cx="89.044478"
     inkscape:cy="90.667068"
     inkscape:window-x="0"
     inkscape:window-y="0"
     inkscape:window-maximized="1"
     inkscape:current-layer="svg18467" />
  <g
     id="surface1"
     style="fill:#ffc306;fill-opacity:1"
     transform="matrix(0.35294029,0,0,0.35294029,-1.1478493,1.3642046e-5)">
    <path
       d="M 93.148438,80.832031 C 109.5,57.742188 104.03125,25.769531 80.941406,9.421875 57.851562,-6.925781 25.878906,-1.460938 9.53125,21.632812 -6.816406,44.722656 -1.351562,76.691406 21.742188,93.039062 38.222656,104.70703 60.011719,105.60547 77.394531,95.339844 l 37.769529,37.542966 c 4.07813,4.29297 10.86328,4.46485 15.15625,0.38672 4.29297,-4.07422 4.46485,-10.85937 0.39063,-15.15234 -0.12891,-0.13672 -0.25391,-0.26172 -0.39063,-0.39063 z m -41.839844,3.5 C 33.0625,84.335938 18.269531,69.554688 18.257812,51.308594 18.253906,33.0625 33.035156,18.269531 51.285156,18.261719 c 18.222656,-0.0078 33.007813,14.75 33.042969,32.972656 0.03125,18.25 -14.742187,33.066406 -32.996094,33.097656 -0.0078,0 -0.01172,0 -0.02344,0 z m 0,0"
       style="fill:#ffc306;fill-opacity:1;fill-rule:nonzero;stroke:none"
       id="path18464"
       inkscape:connector-curvature="0" />
  </g>
</svg>
