<?xml version="1.0" encoding="UTF-8" standalone="no"?>
<!-- Generator: Adobe Illustrator 16.0.0, SVG Export Plug-In . SVG Version: 6.00 Build 0)  -->

<svg
   xmlns:dc="http://purl.org/dc/elements/1.1/"
   xmlns:cc="http://creativecommons.org/ns#"
   xmlns:rdf="http://www.w3.org/1999/02/22-rdf-syntax-ns#"
   xmlns:svg="http://www.w3.org/2000/svg"
   xmlns="http://www.w3.org/2000/svg"
   xmlns:sodipodi="http://sodipodi.sourceforge.net/DTD/sodipodi-0.dtd"
   xmlns:inkscape="http://www.inkscape.org/namespaces/inkscape"
   version="1.1"
   id="Capa_1"
   x="0px"
   y="0px"
   width="71.529175"
   height="63.999996"
   viewBox="0 0 71.529174 63.999997"
   xml:space="preserve"
   sodipodi:docname="spreadsheet.svg"
   inkscape:version="0.92.3 (2405546, 2018-03-11)"><metadata
   id="metadata570"><rdf:RDF><cc:Work
       rdf:about=""><dc:format>image/svg+xml</dc:format><dc:type
         rdf:resource="http://purl.org/dc/dcmitype/StillImage" /><dc:title></dc:title></cc:Work></rdf:RDF></metadata><defs
   id="defs568" /><sodipodi:namedview
   pagecolor="#ffffff"
   bordercolor="#666666"
   borderopacity="1"
   objecttolerance="10"
   gridtolerance="10"
   guidetolerance="10"
   inkscape:pageopacity="0"
   inkscape:pageshadow="2"
   inkscape:window-width="1920"
   inkscape:window-height="910"
   id="namedview566"
   showgrid="false"
   inkscape:zoom="8.4593294"
   inkscape:cx="61.646727"
   inkscape:cy="25.758466"
   inkscape:window-x="0"
   inkscape:window-y="0"
   inkscape:window-maximized="1"
   inkscape:current-layer="g533"
   fit-margin-top="0"
   fit-margin-left="0"
   fit-margin-right="0"
   fit-margin-bottom="0" />
<g
   id="g533"
   transform="translate(0.57235557,-28.494623)">
	<path
   d="M 67.820773,28.994653 H 2.5625245 c -1.4536502,0 -2.6348598,1.182969 -2.6348598,2.634865 v 57.730554 c 0,0.891974 0.44817599,1.678622 1.1290586,2.156156 v 0.415312 h 0.944997 c 0.1812863,0.0397 0.3678315,0.06306 0.5608042,0.06306 H 67.822381 c 0.192534,0 0.379079,-0.02326 0.559489,-0.06306 h 0.129573 v -0.0396 c 1.118103,-0.305744 1.945358,-1.319398 1.945358,-2.531723 V 31.630239 c 1.46e-4,-1.452627 -1.182085,-2.635596 -2.636028,-2.635596 z m 0.377327,2.635596 v 7.593135 H 50.816818 v -7.970175 h 17.00381 c 0.209042,1.5e-4 0.377472,0.169455 0.377472,0.37704 z M 68.016667,89.672834 H 50.816818 v -7.152848 h 17.381136 v 6.840086 c 1.46e-4,0.133812 -0.07508,0.247029 -0.181287,0.312762 z M 2.185636,89.360072 v -6.840086 h 8.157446 v 7.152848 H 2.3669223 C 2.2607216,89.607061 2.185636,89.493884 2.185636,89.360072 Z M 29.355354,62.753791 v 7.831391 H 12.601345 V 62.753791 Z M 12.601345,60.494946 v -8.471233 h 16.753864 v 8.471233 z M 29.355354,72.844029 V 80.26099 H 12.601345 v -7.416961 z m 0,9.675957 v 7.152848 H 12.601345 v -7.152848 z m 2.25914,0 h 16.943478 v 7.152848 H 31.614494 Z m 0,-2.258845 v -7.417844 h 16.943478 v 7.417844 z m 0,-9.675959 v -7.831391 h 16.943478 v 7.831391 z m 0,-10.090236 v -8.471233 h 16.943478 v 8.471233 z m 0,-10.730079 v -8.283078 h 16.943478 v 8.283078 z m 0,-10.542215 v -7.970175 h 16.943478 v 7.970175 z m -2.25914,0 H 12.601345 v -7.970175 h 16.753864 v 7.970175 z m 0,2.259137 v 8.283078 H 12.601345 V 41.481789 Z M 10.343082,49.764867 H 2.185636 v -8.283078 h 8.157446 z m 0,2.258846 v 8.471233 H 2.185636 v -8.471233 z m 0,10.730078 v 7.831391 H 2.185636 v -7.831391 z m 0,10.090238 V 80.26099 H 2.185636 v -7.416961 z m 40.473736,7.417112 v -7.417844 h 17.381136 v 7.417844 z m 0,-9.675959 v -7.831391 h 17.381136 v 7.831391 z m 0,-10.090236 v -8.471233 h 17.381136 v 8.471233 z m 0,-10.730079 v -8.283078 h 17.381136 v 8.283078 z"
   id="path531"
   style="fill:#ffc306;fill-opacity:0.4;stroke:#ffc306;stroke-width:1.00004053;stroke-miterlimit:4;stroke-dasharray:none;stroke-opacity:1"
   inkscape:connector-curvature="0" />
</g>
<g
   id="g535"
   transform="translate(0.57235557,-28.494623)">
</g>
<g
   id="g537"
   transform="translate(0.57235557,-28.494623)">
</g>
<g
   id="g539"
   transform="translate(0.57235557,-28.494623)">
</g>
<g
   id="g541"
   transform="translate(0.57235557,-28.494623)">
</g>
<g
   id="g543"
   transform="translate(0.57235557,-28.494623)">
</g>
<g
   id="g545"
   transform="translate(0.57235557,-28.494623)">
</g>
<g
   id="g547"
   transform="translate(0.57235557,-28.494623)">
</g>
<g
   id="g549"
   transform="translate(0.57235557,-28.494623)">
</g>
<g
   id="g551"
   transform="translate(0.57235557,-28.494623)">
</g>
<g
   id="g553"
   transform="translate(0.57235557,-28.494623)">
</g>
<g
   id="g555"
   transform="translate(0.57235557,-28.494623)">
</g>
<g
   id="g557"
   transform="translate(0.57235557,-28.494623)">
</g>
<g
   id="g559"
   transform="translate(0.57235557,-28.494623)">
</g>
<g
   id="g561"
   transform="translate(0.57235557,-28.494623)">
</g>
<g
   id="g563"
   transform="translate(0.57235557,-28.494623)">
</g>
</svg>