<?xml version="1.0" encoding="UTF-8" standalone="no"?>
<svg
   xmlns:dc="http://purl.org/dc/elements/1.1/"
   xmlns:cc="http://creativecommons.org/ns#"
   xmlns:rdf="http://www.w3.org/1999/02/22-rdf-syntax-ns#"
   xmlns:svg="http://www.w3.org/2000/svg"
   xmlns="http://www.w3.org/2000/svg"
   xmlns:sodipodi="http://sodipodi.sourceforge.net/DTD/sodipodi-0.dtd"
   xmlns:inkscape="http://www.inkscape.org/namespaces/inkscape"
   height="48pt"
   viewBox="0 -110 84.279381 48"
   width="84.279381pt"
   version="1.1"
   id="svg1623"
   sodipodi:docname="steps.svg"
   inkscape:version="0.92.3 (2405546, 2018-03-11)">
  <metadata
     id="metadata1629">
    <rdf:RDF>
      <cc:Work
         rdf:about="">
        <dc:format>image/svg+xml</dc:format>
        <dc:type
           rdf:resource="http://purl.org/dc/dcmitype/StillImage" />
        <dc:title></dc:title>
      </cc:Work>
    </rdf:RDF>
  </metadata>
  <defs
     id="defs1627" />
  <sodipodi:namedview
     pagecolor="#ffffff"
     bordercolor="#666666"
     borderopacity="1"
     objecttolerance="10"
     gridtolerance="10"
     guidetolerance="10"
     inkscape:pageopacity="0"
     inkscape:pageshadow="2"
     inkscape:window-width="1920"
     inkscape:window-height="910"
     id="namedview1625"
     showgrid="false"
     fit-margin-top="0"
     fit-margin-left="0"
     fit-margin-right="0"
     fit-margin-bottom="0"
     inkscape:zoom="0.52880859"
     inkscape:cx="-154.23663"
     inkscape:cy="91.261985"
     inkscape:window-x="0"
     inkscape:window-y="0"
     inkscape:window-maximized="1"
     inkscape:current-layer="svg1623" />
  <path
     d="m 40.713516,-99.7795 c -1.974012,1.9155 -4.211012,4.08691 -5.345908,6.63512 -0.340147,0.76324 -0.270703,1.64737 0.185185,2.34888 0.455244,0.70152 1.234561,1.12461 2.070462,1.12461 h 8.581486 c 1.363805,0 2.469123,-1.10596 2.469123,-2.46912 0,-1.3638 -1.105318,-2.46912 -2.469123,-2.46912 h -3.694038 c 0.539477,-0.55684 1.102103,-1.10339 1.642223,-1.62679 2.426042,-2.35467 4.521581,-4.38848 4.521581,-6.93412 0,-3.76606 -3.063898,-6.82996 -6.82931,-6.82996 -2.752043,0 -5.220522,1.63773 -6.28919,4.17308 -0.529832,1.25642 0.05916,2.70446 1.31558,3.23429 1.257066,0.53048 2.705104,-0.0592 3.234293,-1.31558 0.29578,-0.70087 0.978004,-1.15354 1.739317,-1.15354 1.026229,0 1.864702,0.8224 1.890422,1.84348 -0.189685,0.6893 -1.891708,2.34117 -3.022103,3.43877 z m 0,0"
     id="path1601"
     style="fill:#ffb606;fill-opacity:1;stroke-width:0.16460817"
     inkscape:connector-curvature="0" />
  <path
     d="m 4.3222504,-100.45337 1.0455191,-1.04616 v 6.87046 H 3.6413128 c -1.3638043,0 -2.4691225,1.10532 -2.4691225,2.46913 0,1.3638 1.1053182,2.46912 2.4691225,2.46912 h 8.3898732 c 1.363161,0 2.469122,-1.10532 2.469122,-2.46912 0,-1.36381 -1.105961,-2.46913 -2.469122,-2.46913 h -1.725171 v -12.83557 c 0,-0.99858 -0.6018491,-1.89943 -1.5245551,-2.28073 -0.9227058,-0.38258 -1.984943,-0.17039 -2.6909576,0.53562 l -5.2616744,5.26618 c -0.96385786,0.9645 -0.9632149,2.52828 0.001929,3.49213 0.964501,0.96322 2.5276356,0.96322 3.4914935,-0.002 z m 0,0"
     id="path1603"
     style="fill:#ffb606;fill-opacity:1;stroke-width:0.16460817"
     inkscape:connector-curvature="0" />
  <path
     d="m 76.792925,-85.79102 c -1.999732,0 -3.879866,0.77931 -5.293824,2.19392 -1.413959,1.4146 -2.192632,3.29537 -2.192632,5.29511 0,4.12935 3.358392,7.48903 7.486456,7.48967 1.999732,0 3.879866,-0.77932 5.293825,-2.19392 1.413958,-1.4146 2.192632,-3.29538 2.192632,-5.29511 0,-4.12999 -3.358393,-7.48967 -7.486457,-7.48967 z m 0,0"
     id="path1605"
     style="fill:#ffb606;fill-opacity:1;stroke-width:0.16460817"
     inkscape:connector-curvature="0" />
  <path
     d="m 41.950649,-70.81232 c 1.999732,0 3.879866,-0.77932 5.293824,-2.19392 1.413959,-1.4146 2.19199,-3.29474 2.19199,-5.29511 0,-4.12935 -3.358393,-7.48903 -7.485814,-7.48903 -6.43e-4,0 0,0 -6.43e-4,0 -1.999732,0 -3.879866,0.77867 -5.293824,2.19392 -1.413316,1.41396 -2.19199,3.29473 -2.19199,5.29511 0,4.12935 3.358393,7.48903 7.486457,7.48903 z m 0,0"
     id="path1607"
     style="fill:#ffb606;fill-opacity:1;stroke-width:0.16460817"
     inkscape:connector-curvature="0" />
  <path
     d="m 22.604045,-78.08273 c 0,-1.28729 -1.042947,-2.33023 -2.328948,-2.33023 -1.286644,0 -2.328948,1.04294 -2.328948,2.33023 0,1.28664 1.042304,2.33023 2.328948,2.33023 1.286001,0 2.328948,-1.04359 2.328948,-2.33023 z m 0,0"
     id="path1609"
     style="fill:#ffb606;fill-opacity:1;stroke-width:0.16460817"
     inkscape:connector-curvature="0" />
  <path
     d="m 31.57519,-78.08273 c 0,-1.28729 -1.042304,-2.33023 -2.328305,-2.33023 -1.286644,0 -2.328948,1.04294 -2.328948,2.33023 0,1.28664 1.042304,2.33023 2.328948,2.33023 1.286001,0 2.328305,-1.04359 2.328305,-2.33023 z m 0,0"
     id="path1611"
     style="fill:#ffb606;fill-opacity:1;stroke-width:0.16460817"
     inkscape:connector-curvature="0" />
  <path
     d="m 56.949925,-78.08273 c 0,-1.28729 -1.042304,-2.33023 -2.328948,-2.33023 -1.286001,0 -2.328949,1.04294 -2.328949,2.33023 0,1.28664 1.042948,2.33023 2.328949,2.33023 1.286644,0 2.328948,-1.04359 2.328948,-2.33023 z m 0,0"
     id="path1613"
     style="fill:#ffb606;fill-opacity:1;stroke-width:0.16460817"
     inkscape:connector-curvature="0" />
  <path
     d="m 65.921713,-78.08273 c 0,-1.28729 -1.042304,-2.33023 -2.328948,-2.33023 -1.286001,0 -2.328948,1.04294 -2.328948,2.33023 0,1.28664 1.042947,2.33023 2.328948,2.33023 1.286644,0 2.328948,-1.04359 2.328948,-2.33023 z m 0,0"
     id="path1615"
     style="fill:#ffb606;fill-opacity:1;stroke-width:0.16460817"
     inkscape:connector-curvature="0" />
  <path
     d="M 48.315712,-66.93824 H 36.037615 c -1.363804,0 -2.469122,1.10532 -2.469122,2.46912 0,1.3638 1.105318,2.46912 2.469122,2.46912 h 12.278097 c 1.363805,0 2.469123,-1.10532 2.469123,-2.46912 0,-1.3638 -1.105318,-2.46912 -2.469123,-2.46912 z m 0,0"
     id="path1617"
     style="fill:#ffb606;fill-opacity:1;stroke-width:0.16460817"
     inkscape:connector-curvature="0" />
  <path
     d="m 12.719196,-85.47145 -6.84217,6.8621 -1.6615136,-1.66215 c -0.9638581,-0.96515 -2.5269927,-0.96515 -3.49149349,-10e-4 -0.9651441,0.96386 -0.9651441,2.52699 -0.001286,3.49149 l 3.40983249,3.41176 c 0.4629605,0.46361 1.0911721,0.72402 1.7463898,0.72402 h 0.00129 c 0.6552177,0 1.2840724,-0.26105 1.7470329,-0.7253 l 8.5885599,-8.61364 c 0.963215,-0.96579 0.960643,-2.52892 -0.0051,-3.49149 -0.965144,-0.96322 -2.528922,-0.96064 -3.491494,0.005 z m 0,0"
     id="path1619"
     style="fill:#ffb606;fill-opacity:1;stroke-width:0.16460817"
     inkscape:connector-curvature="0" />
  <path
     d="m 76.720909,-89.61623 c 3.722331,0 6.721929,-2.96938 6.828667,-6.76051 0.02701,-0.96836 -0.108667,-3.4272 -1.955365,-5.32662 -0.302853,-0.31185 -0.690582,-0.64364 -1.176048,-0.9465 l 2.473623,-3.33203 c 0.556196,-0.74909 0.643001,-1.74831 0.223765,-2.58164 -0.419237,-0.83333 -1.273142,-1.35931 -2.206135,-1.35931 h -7.402867 c -1.363804,0 -2.469122,1.10532 -2.469122,2.46913 0,1.3638 1.105318,2.46912 2.469122,2.46912 h 2.494843 l -1.669873,2.24857 c -0.556196,0.7491 -0.643001,1.74768 -0.223121,2.58165 0.419236,0.83333 1.272498,1.3593 2.205492,1.3593 0.809538,0 1.395311,0.18004 1.73996,0.53434 0.436597,0.44945 0.574199,1.22105 0.55941,1.74574 -0.03086,1.09953 -0.862264,1.96051 -1.892351,1.96051 -0.760669,0 -1.442893,-0.45267 -1.738674,-1.1529 -0.529189,-1.25706 -1.97787,-1.84605 -3.234293,-1.31622 -1.256423,0.52983 -1.845412,1.97787 -1.315579,3.23429 1.068667,2.53535 3.537147,4.17308 6.288546,4.17308 z m 0,0"
     id="path1621"
     style="fill:#ffb606;fill-opacity:1;stroke-width:0.16460817"
     inkscape:connector-curvature="0" />
</svg>
