<?xml version="1.0" encoding="UTF-8" standalone="no"?>
<!-- Generator: Adobe Illustrator 19.0.0, SVG Export Plug-In . SVG Version: 6.00 Build 0)  -->

<svg
   xmlns:dc="http://purl.org/dc/elements/1.1/"
   xmlns:cc="http://creativecommons.org/ns#"
   xmlns:rdf="http://www.w3.org/1999/02/22-rdf-syntax-ns#"
   xmlns:svg="http://www.w3.org/2000/svg"
   xmlns="http://www.w3.org/2000/svg"
   xmlns:sodipodi="http://sodipodi.sourceforge.net/DTD/sodipodi-0.dtd"
   xmlns:inkscape="http://www.inkscape.org/namespaces/inkscape"
   version="1.1"
   id="Capa_1"
   x="0px"
   y="0px"
   viewBox="0 0 73.846153 64"
   xml:space="preserve"
   sodipodi:docname="terminal.svg"
   width="73.846153"
   height="64"
   inkscape:version="0.92.3 (2405546, 2018-03-11)"><metadata
   id="metadata12148"><rdf:RDF><cc:Work
       rdf:about=""><dc:format>image/svg+xml</dc:format><dc:type
         rdf:resource="http://purl.org/dc/dcmitype/StillImage" /><dc:title></dc:title></cc:Work></rdf:RDF></metadata><defs
   id="defs12146" /><sodipodi:namedview
   pagecolor="#ffffff"
   bordercolor="#666666"
   borderopacity="1"
   objecttolerance="10"
   gridtolerance="10"
   guidetolerance="10"
   inkscape:pageopacity="0"
   inkscape:pageshadow="2"
   inkscape:window-width="1920"
   inkscape:window-height="910"
   id="namedview12144"
   showgrid="false"
   fit-margin-top="0"
   fit-margin-left="0"
   fit-margin-right="0"
   fit-margin-bottom="0"
   inkscape:zoom="0.75208333"
   inkscape:cx="-88.975502"
   inkscape:cy="161.37031"
   inkscape:window-x="0"
   inkscape:window-y="0"
   inkscape:window-maximized="1"
   inkscape:current-layer="Capa_1" />
<g
   id="g12099"
   style="fill:#ffc306;fill-opacity:1"
   transform="matrix(0.15384615,0,0,0.15384615,0,-4.9230768)">
	<g
   id="g12097"
   style="fill:#ffc306;fill-opacity:1">
		<path
   d="M 0,32 V 448 H 480 V 32 Z M 448,416 H 32 V 64 h 416 z"
   id="path12095"
   style="fill:#ffc306;fill-opacity:1"
   inkscape:connector-curvature="0" />
	</g>
</g>
<g
   id="g12105"
   style="fill:#ffc306;fill-opacity:1"
   transform="matrix(0.15384615,0,0,0.15384615,0,-4.9230768)">
	<g
   id="g12103"
   style="fill:#ffc306;fill-opacity:1">
		<rect
   x="208"
   y="288"
   width="128"
   height="32"
   id="rect12101"
   style="fill:#ffc306;fill-opacity:1" />
	</g>
</g>
<g
   id="g12111"
   style="fill:#ffc306;fill-opacity:1"
   transform="matrix(0.15384615,0,0,0.15384615,0,-4.9230768)">
	<g
   id="g12109"
   style="fill:#ffc306;fill-opacity:1">
		<polygon
   points="214.56,224 123.36,132.64 102.24,153.76 172.64,224 102.24,294.24 123.36,315.36 "
   id="polygon12107"
   style="fill:#ffc306;fill-opacity:1" />
	</g>
</g>
<g
   id="g12113"
   transform="matrix(0.15384615,0,0,0.15384615,0,-4.9230768)">
</g>
<g
   id="g12115"
   transform="matrix(0.15384615,0,0,0.15384615,0,-4.9230768)">
</g>
<g
   id="g12117"
   transform="matrix(0.15384615,0,0,0.15384615,0,-4.9230768)">
</g>
<g
   id="g12119"
   transform="matrix(0.15384615,0,0,0.15384615,0,-4.9230768)">
</g>
<g
   id="g12121"
   transform="matrix(0.15384615,0,0,0.15384615,0,-4.9230768)">
</g>
<g
   id="g12123"
   transform="matrix(0.15384615,0,0,0.15384615,0,-4.9230768)">
</g>
<g
   id="g12125"
   transform="matrix(0.15384615,0,0,0.15384615,0,-4.9230768)">
</g>
<g
   id="g12127"
   transform="matrix(0.15384615,0,0,0.15384615,0,-4.9230768)">
</g>
<g
   id="g12129"
   transform="matrix(0.15384615,0,0,0.15384615,0,-4.9230768)">
</g>
<g
   id="g12131"
   transform="matrix(0.15384615,0,0,0.15384615,0,-4.9230768)">
</g>
<g
   id="g12133"
   transform="matrix(0.15384615,0,0,0.15384615,0,-4.9230768)">
</g>
<g
   id="g12135"
   transform="matrix(0.15384615,0,0,0.15384615,0,-4.9230768)">
</g>
<g
   id="g12137"
   transform="matrix(0.15384615,0,0,0.15384615,0,-4.9230768)">
</g>
<g
   id="g12139"
   transform="matrix(0.15384615,0,0,0.15384615,0,-4.9230768)">
</g>
<g
   id="g12141"
   transform="matrix(0.15384615,0,0,0.15384615,0,-4.9230768)">
</g>
</svg>