<svg xmlns="http://www.w3.org/2000/svg" viewBox="0 0 526 526">
    <style>
        .fill-accent{fill:#ffc306}.fill-accent-lighter{fill:#ffc306}
    </style>
    <path class="fill-accent-lighter" d="M131.5 368.2c0 9.906-2.28 19.199-6.487 27.44-9.994 20.163-30.859 33.927-54.88 33.927-33.927 0-61.366-27.44-61.366-61.367s27.44-61.367 61.366-61.367c12.361 0 23.758 3.595 33.314 9.819 16.92 10.958 28.053 29.894 28.053 51.548zm178.051 47.778c9.293 10.696 14.816 24.635 14.816 39.889 0 33.927-27.44 61.366-61.367 61.366s-61.367-27.44-61.367-61.366a61.224 61.224 0 013.42-20.164c4.207-12.36 12.273-22.793 22.793-30.157C237.752 398.533 249.85 394.5 263 394.5c18.673 0 35.417 8.328 46.551 21.478zm146.316-214.345c33.927 0 61.366 27.44 61.366 61.367s-27.44 61.367-61.366 61.367c-16.482 0-31.385-6.4-42.343-17.095C401.776 296.226 394.5 280.446 394.5 263c0-2.805.175-5.523.614-8.24 1.753-13.677 8.065-25.862 17.358-35.155 11.133-11.134 26.387-17.972 43.395-17.972zM323.753 244.94c-3.945 29.983-29.631 53.127-60.753 53.127-33.927 0-61.367-27.44-61.367-61.367 0-9.906 2.28-19.199 6.488-27.44 9.994-20.163 30.858-33.927 54.879-33.927 33.927 0 61.367 27.44 61.367 61.367 0 2.805-.176 5.523-.614 8.24zM263 8.767c33.927 0 61.367 27.44 61.367 61.366 0 17.008-6.838 32.262-17.972 43.395C295.261 124.662 280.007 131.5 263 131.5c-12.361 0-23.758-3.594-33.313-9.819-11.134-7.188-19.813-17.884-24.372-30.595a61.204 61.204 0 01-3.682-20.953c0-33.927 27.44-61.366 61.367-61.366zM127.818 119.314a61.204 61.204 0 013.682 20.953c0 9.906-2.28 19.199-6.487 27.44-5.26 10.52-13.413 19.286-23.495 25.247-9.117 5.523-19.9 8.68-31.385 8.68-33.927 0-61.366-27.44-61.366-61.367S36.207 78.9 70.133 78.9c26.563 0 49.094 16.832 57.685 40.414z"/>
    <path class="fill-accent" d="M100.501 305.08c-9.205-4.445-19.48-7.013-30.368-7.013C31.463 298.067 0 329.53 0 368.2s31.464 70.133 70.133 70.133c24.266 0 45.683-12.396 58.281-31.183l66.25 33.165c-1.14 5.005-1.797 10.204-1.797 15.552C192.867 494.537 224.33 526 263 526s70.133-31.464 70.133-70.133a69.67 69.67 0 00-12.054-39.257l93.093-97.337c11.678 8.662 26.072 13.86 41.695 13.86C494.537 333.133 526 301.67 526 263s-31.464-70.133-70.133-70.133c-16.184 0-31.052 5.558-42.94 14.798l-94.592-94.593c9.24-11.887 14.798-26.755 14.798-42.939C333.133 31.463 301.67 0 263 0s-70.133 31.464-70.133 70.133c0 5.33.648 10.512 1.788 15.509l-62.173 22.653C120.83 85.668 97.284 70.133 70.133 70.133 31.463 70.133 0 101.597 0 140.267S31.464 210.4 70.133 210.4a69.545 69.545 0 0028.054-5.9l32.27 54.31-29.956 46.27zM70.133 420.8c-29.009 0-52.6-23.591-52.6-52.6s23.591-52.6 52.6-52.6 52.6 23.591 52.6 52.6-23.59 52.6-52.6 52.6zm66.092-29.36c2.569-7.285 4.042-15.087 4.042-23.24 0-21.505-9.749-40.756-25.03-53.626l25.214-38.941 76.016 127.914c-6.4 5.699-11.757 12.519-15.728 20.19l-64.514-32.297zM263 140.267c16.183 0 31.052-5.558 42.94-14.798l94.6 94.6a69.82 69.82 0 00-12.36 24.89l-55.073-7.575c-.009-.228.026-.456.026-.684 0-38.67-31.463-70.133-70.133-70.133-24.266 0-45.692 12.396-58.28 31.183l-10.46-5.225 38.381-59.272c9.196 4.445 19.47 7.014 30.359 7.014zm8.767 246.071V306.22c28.491-3.577 51.67-24.284 58.93-51.478l55.071 7.574c0 .228-.035.456-.035.684 0 16.744 5.91 32.112 15.736 44.184l-92.05 96.25c-10.318-9.144-23.301-15.29-37.652-17.096zM263 184.1c29.009 0 52.6 23.591 52.6 52.6s-23.591 52.6-52.6 52.6-52.6-23.591-52.6-52.6 23.591-52.6 52.6-52.6zm-66.092 29.36c-2.569 7.285-4.041 15.087-4.041 23.24 0 35.698 26.826 65.189 61.366 69.528v80.119a69.559 69.559 0 00-23.301 7.224l-79.847-134.367 33.585-51.864 12.238 6.12zM263 508.467c-29.009 0-52.6-23.591-52.6-52.6s23.591-52.6 52.6-52.6 52.6 23.59 52.6 52.6-23.591 52.6-52.6 52.6zM455.867 210.4c29.009 0 52.6 23.591 52.6 52.6s-23.591 52.6-52.6 52.6-52.6-23.591-52.6-52.6 23.59-52.6 52.6-52.6zM263 17.533c29.009 0 52.6 23.591 52.6 52.6s-23.591 52.6-52.6 52.6-52.6-23.59-52.6-52.6 23.591-52.6 52.6-52.6zm-62.34 84.572a70.61 70.61 0 0017.244 21.654l-39.415 60.876-42.255-21.128c2.56-7.285 4.033-15.087 4.033-23.24 0-5.33-.65-10.512-1.789-15.509l62.182-22.653zM17.533 140.267c0-29.01 23.591-52.6 52.6-52.6s52.6 23.59 52.6 52.6-23.59 52.6-52.6 52.6-52.6-23.591-52.6-52.6zm95.688 55.22c5.874-4.593 11.029-10.063 15.193-16.27l40.476 20.233-27.8 42.93-27.869-46.892z"/>
</svg>