<?xml version="1.0" encoding="UTF-8" standalone="no"?>
<!-- Created with Inkscape (http://www.inkscape.org/) -->

<svg
   xmlns:dc="http://purl.org/dc/elements/1.1/"
   xmlns:cc="http://creativecommons.org/ns#"
   xmlns:rdf="http://www.w3.org/1999/02/22-rdf-syntax-ns#"
   xmlns:svg="http://www.w3.org/2000/svg"
   xmlns="http://www.w3.org/2000/svg"
   xmlns:sodipodi="http://sodipodi.sourceforge.net/DTD/sodipodi-0.dtd"
   xmlns:inkscape="http://www.inkscape.org/namespaces/inkscape"
   width="64.000061"
   height="64.000023"
   viewBox="0 0 16.933349 16.933339"
   version="1.1"
   id="svg8"
   inkscape:version="0.92.3 (2405546, 2018-03-11)"
   sodipodi:docname="use-cases.svg">
  <defs
     id="defs2" />
  <sodipodi:namedview
     id="base"
     pagecolor="#ffffff"
     bordercolor="#666666"
     borderopacity="1.0"
     inkscape:pageopacity="0.0"
     inkscape:pageshadow="2"
     inkscape:zoom="3.959798"
     inkscape:cx="23.549427"
     inkscape:cy="33.419964"
     inkscape:document-units="mm"
     inkscape:current-layer="layer1"
     showgrid="false"
     units="px"
     fit-margin-top="0"
     fit-margin-left="0"
     fit-margin-right="0"
     fit-margin-bottom="0"
     inkscape:window-width="1920"
     inkscape:window-height="910"
     inkscape:window-x="0"
     inkscape:window-y="0"
     inkscape:window-maximized="1" />
  <metadata
     id="metadata5">
    <rdf:RDF>
      <cc:Work
         rdf:about="">
        <dc:format>image/svg+xml</dc:format>
        <dc:type
           rdf:resource="http://purl.org/dc/dcmitype/StillImage" />
        <dc:title></dc:title>
      </cc:Work>
    </rdf:RDF>
  </metadata>
  <g
     inkscape:label="Layer 1"
     inkscape:groupmode="layer"
     id="layer1"
     transform="translate(5.4661632e-5,-280.01719)">
    <g
       id="g6225"
       transform="matrix(0.0144694,0,0,0.0144694,-0.67769483,280.01764)" />
    <g
       id="g6227"
       transform="matrix(0.0144694,0,0,0.0144694,-0.67769483,280.01764)" />
    <g
       id="g6229"
       transform="matrix(0.0144694,0,0,0.0144694,-0.67769483,280.01764)" />
    <g
       id="g6231"
       transform="matrix(0.0144694,0,0,0.0144694,-0.67769483,280.01764)" />
    <g
       id="g6233"
       transform="matrix(0.0144694,0,0,0.0144694,-0.67769483,280.01764)" />
    <g
       id="g6235"
       transform="matrix(0.0144694,0,0,0.0144694,-0.67769483,280.01764)" />
    <g
       id="g6237"
       transform="matrix(0.0144694,0,0,0.0144694,-0.67769483,280.01764)" />
    <g
       id="g6239"
       transform="matrix(0.0144694,0,0,0.0144694,-0.67769483,280.01764)" />
    <g
       id="g6241"
       transform="matrix(0.0144694,0,0,0.0144694,-0.67769483,280.01764)" />
    <g
       id="g6243"
       transform="matrix(0.0144694,0,0,0.0144694,-0.67769483,280.01764)" />
    <g
       id="g6245"
       transform="matrix(0.0144694,0,0,0.0144694,-0.67769483,280.01764)" />
    <g
       id="g6247"
       transform="matrix(0.0144694,0,0,0.0144694,-0.67769483,280.01764)" />
    <g
       id="g6249"
       transform="matrix(0.0144694,0,0,0.0144694,-0.67769483,280.01764)" />
    <g
       id="g6251"
       transform="matrix(0.0144694,0,0,0.0144694,-0.67769483,280.01764)" />
    <g
       id="g6253"
       transform="matrix(0.0144694,0,0,0.0144694,-0.67769483,280.01764)" />
    <path
       inkscape:connector-curvature="0"
       class="home-scene-feature-icon fill-accent-lighter stroke-accent"
       d="m 9.4934761,287.67695 c -0.01706,0.14727 0.09767,0.27595 0.246495,0.27595 l 0.5007419,10e-4 c 0.125573,0 0.230992,-0.0915 0.248045,-0.21549 0.01085,-0.076 0.0279,-0.17208 0.05271,-0.2806 h 4.84154 c 0.0248,0.10693 0.04496,0.20464 0.05426,0.2806 0.01706,0.12402 0.122473,0.21705 0.248045,0.21549 l 0.500742,-10e-4 c 0.148828,0 0.265099,-0.12868 0.246496,-0.27595 -0.07131,-0.58756 -0.396873,-1.99987 -1.843289,-3.21994 -0.27285,0.19224 -0.575156,0.37516 -0.906916,0.5488 0.09612,0.0713 0.176732,0.14572 0.263548,0.22014 h -1.978163 c 0.33021,-0.2806 0.728634,-0.5519 1.220073,-0.79685 2.668041,-1.32549 3.15793,-3.39202 3.247847,-4.13461 0.01706,-0.14727 -0.09767,-0.27595 -0.246495,-0.27595 l -0.502293,-10e-4 c -0.125573,0 -0.230992,0.0915 -0.248045,0.21549 -0.01085,0.076 -0.02791,0.17208 -0.05271,0.2806 h -4.843089 c -0.0248,-0.10852 -0.04186,-0.20308 -0.05271,-0.2806 -0.01706,-0.12402 -0.122472,-0.21704 -0.248046,-0.21549 l -0.5007409,10e-4 c -0.148828,0 -0.265098,0.12868 -0.2480449,0.27595 0.08061,0.66508 0.4852385,2.38589 2.4789038,3.69123 -1.9921163,1.30534 -2.3982898,3.02616 -2.4789049,3.69123 z m 3.4710869,-4.25553 c -0.389122,-0.21239 -0.719332,-0.44028 -0.996833,-0.67593 h 1.992116 c -0.275951,0.23565 -0.606162,0.46509 -0.995283,0.67593 z m 2.032422,-1.91615 c -0.08991,0.16123 -0.198436,0.32711 -0.325558,0.49609 H 11.25925 c -0.128674,-0.16898 -0.237194,-0.33486 -0.32556,-0.49609 z m -4.064845,4.96091 c 0.08991,-0.16123 0.198436,-0.32711 0.32556,-0.4961 h 3.401324 c 0.128673,0.16899 0.238744,0.33487 0.32866,0.4961 z"
       id="path1577"
       style="fill:#ffc306;fill-opacity:1;stroke-width:0.01550284" />
    <path
       inkscape:connector-curvature="0"
       style="fill:#ffc306;fill-opacity:1;stroke-width:0.01550294"
       d="m 3.4726499,292.48568 a 0.49609482,0.49609329 0 1 0 0.496216,0.49609 0.49709182,0.49709028 0 0 0 -0.496216,-0.49609 z M 6.79295,290.99741 c -0.1686261,-0.3023 -0.6280213,-0.78677 -1.8026139,-0.64919 -0.3333747,-0.79452 -0.8412179,-1.33518 -1.5176862,-1.33518 -0.6764682,0 -1.1842815,0.54066 -1.5176862,1.33518 -1.17459252,-0.13564 -1.63395888,0.34689 -1.80258389,0.64919 -0.25392163,0.4554 -0.23260551,1.13365 0.38957227,1.98437 -0.62217778,0.85072 -0.6434939,1.52898 -0.38957227,1.98438 0.45161455,0.81196 1.57582199,0.6763 1.80258389,0.64918 0.3334047,0.79453 0.8412169,1.33519 1.5176862,1.33519 0.6764683,0 1.1843115,-0.54066 1.5176862,-1.33519 0.2267909,0.0271 1.3509983,0.16278 1.8026129,-0.64918 0.2539226,-0.45541 0.2326066,-1.13367 -0.3896023,-1.98438 0.6222089,-0.85072 0.6435249,-1.52897 0.3896033,-1.98437 z m -5.81100944,3.47266 c -0.0620144,-0.11241 -0.001929,-0.3837 0.23260434,-0.74802 0.1066071,0.10082 0.2190401,0.1996 0.3392183,0.29649 0.025189,0.21317 0.062014,0.42052 0.1046463,0.62206 -0.3818215,0.0136 -0.6183023,-0.0678 -0.67646894,-0.17053 z m 0.57182264,-2.52505 c -0.1201792,0.0969 -0.2326055,0.19573 -0.3392183,0.29649 -0.23454255,-0.36432 -0.29461662,-0.63563 -0.23260434,-0.74802 0.05235,-0.0949 0.25392164,-0.17828 0.58732624,-0.17828 0.027128,0 0.060075,0.005 0.089143,0.005 -0.044571,0.20736 -0.079457,0.4147 -0.1046463,0.62399 z m 1.9188867,-1.93979 c 0.1473078,0 0.3450318,0.20929 0.525284,0.57747 -0.1744397,0.0582 -0.3488772,0.12403 -0.525284,0.19961 -0.1763779,-0.0755 -0.3508154,-0.14147 -0.5252851,-0.19961 0.1802832,-0.36818 0.3779762,-0.57747 0.5252851,-0.57747 z m 0,5.95312 c -0.14731,0 -0.3450019,-0.2093 -0.5252851,-0.5775 0.1744697,-0.0582 0.3489083,-0.12402 0.5252851,-0.19959 0.1764068,0.0755 0.3508454,0.14145 0.525284,0.19959 -0.1802522,0.3682 -0.3779762,0.5775 -0.525284,0.5775 z m 0,-1.73633 a 1.2402371,1.2402333 0 1 1 1.240237,-1.24024 1.2402407,1.2402368 0 0 1 -1.240237,1.24024 z m 2.4907094,0.24805 c -0.056196,0.10275 -0.2946178,0.18409 -0.6764682,0.17053 0.042664,-0.20155 0.079478,-0.40889 0.1046784,-0.62206 0.1201781,-0.0969 0.2326044,-0.19572 0.3391882,-0.29649 0.2345416,0.36432 0.2946157,0.63561 0.2326045,0.74802 z m -0.2326056,-2.22855 c -0.1065856,-0.10071 -0.2190101,-0.1996 -0.3391881,-0.2965 -0.025189,-0.20928 -0.060075,-0.41663 -0.1046785,-0.62398 0.029068,0 0.062046,-0.005 0.089175,-0.005 0.3333747,0 0.534973,0.0833 0.5872963,0.17828 0.062014,0.1124 0.00193,0.3837 -0.2326055,0.74802 z"
       id="path2174" />
    <path
       style="fill:#ffc306;fill-opacity:1;stroke-width:0.01550293"
       d="m 1.8603555,280.01719 c -0.206189,0 -0.3720703,0.16589 -0.3720703,0.37207 v 0.24805 c 0,0.2062 0.1658813,0.37207 0.3720703,0.37207 h 0.1240234 v 2.34094 l -1.81716483,2.92231 c -0.45423535,0.73019 0.0698714,1.68206 0.93183683,1.68206 h 4.7472186 c 0.8635135,0 1.3855195,-0.95343 0.931283,-1.68206 l -1.8166111,-2.92231 v -2.34094 h 0.1240234 c 0.2061891,0 0.3720704,-0.16587 0.3720704,-0.37207 v -0.24805 c 0,-0.20618 -0.1658813,-0.37207 -0.3720704,-0.37207 z m 1.11455,0.99219 H 3.967093 v 2.48047 c 0,0.10693 0.033885,0.20508 0.089695,0.2857 l 0.7408185,1.19206 h 0.00664 c 0,0 0.8526065,1.6108 0.9141191,1.70089 0.066148,0.10179 0.026666,0.18825 -0.1046449,0.18825 H 1.3697985 c -0.089432,0 -0.068874,-0.0983 -0.032113,-0.1816 0.025018,-0.049 0.8000619,-1.70754 0.8000619,-1.70754 h 0.00664 l 0.7408184,-1.19206 c 0.057364,-0.0806 0.089696,-0.18028 0.089696,-0.2857 z"
       id="path2799"
       inkscape:connector-curvature="0" />
    <path
       inkscape:connector-curvature="0"
       style="clip-rule:evenodd;fill:#ffc306;fill-opacity:1;fill-rule:evenodd;stroke-width:0.01858832"
       d="m 12.964593,289.01303 c -0.233024,0 -0.422197,0.18917 -0.422197,0.42223 v 0.61979 c -0.234772,0.0339 -0.461067,0.0963 -0.675556,0.18077 l -0.309069,-0.53709 c -0.118185,-0.20098 -0.37489,-0.27025 -0.577559,-0.15375 -0.202704,0.11655 -0.271984,0.37497 -0.15536,0.57595 l 0.310741,0.5387 c -0.182427,0.14523 -0.347917,0.31073 -0.493149,0.49315 l -0.538727,-0.31073 c -0.2009593,-0.1165 -0.459373,-0.0473 -0.575942,0.15537 -0.11651,0.20266 -0.04723,0.45939 0.153745,0.57758 l 0.537073,0.31068 c -0.08445,0.21287 -0.146941,0.43914 -0.180754,0.67391 H 9.418031 c -0.2330607,0 -0.4221977,0.18918 -0.4221977,0.4222 0,0.23305 0.189137,0.42223 0.4221977,0.42223 h 0.61979 c 0.03381,0.23483 0.09631,0.46111 0.180753,0.67388 l -0.537073,0.31075 c -0.200977,0.11823 -0.270256,0.37485 -0.153744,0.57755 0.116567,0.20261 0.3749827,0.27173 0.575942,0.15531 l 0.538726,-0.31073 c 0.145231,0.18239 0.310723,0.34803 0.49315,0.49312 l -0.310742,0.53865 c -0.116624,0.20107 -0.04732,0.45953 0.155361,0.57592 0.202669,0.11662 0.459374,0.0474 0.577559,-0.15371 l 0.30905,-0.537 c 0.21449,0.0844 0.440784,0.14694 0.675555,0.18075 v 0.61983 c 0,0.23304 0.189173,0.42218 0.422197,0.42218 0.233042,0 0.422234,-0.18914 0.422234,-0.42218 v -0.61983 c 0.234827,-0.0337 0.461121,-0.0963 0.675519,-0.18075 l 0.309106,0.537 c 0.118034,0.20107 0.374851,0.27033 0.577558,0.15371 0.20263,-0.1164 0.271724,-0.37485 0.155304,-0.57592 l -0.310703,-0.53865 c 0.18237,-0.14511 0.348011,-0.31075 0.493094,-0.49312 l 0.538651,0.31073 c 0.201071,0.11642 0.459541,0.0473 0.575942,-0.15531 0.116623,-0.2027 0.04738,-0.45932 -0.153726,-0.57755 l -0.536998,-0.31075 c 0.08445,-0.21277 0.14694,-0.43905 0.180752,-0.67388 h 0.619847 c 0.233024,0 0.422159,-0.1892 0.422159,-0.42223 0,-0.23302 -0.189135,-0.4222 -0.422159,-0.4222 h -0.619847 c -0.03379,-0.23477 -0.09631,-0.46104 -0.180752,-0.67391 l 0.536998,-0.31068 c 0.201088,-0.11819 0.270349,-0.37492 0.153726,-0.57758 -0.11642,-0.2027 -0.374871,-0.27187 -0.575942,-0.15537 l -0.538651,0.31073 c -0.145102,-0.18242 -0.310742,-0.34792 -0.493094,-0.49315 l 0.310703,-0.5387 c 0.11642,-0.20098 0.04733,-0.4594 -0.155304,-0.57595 -0.202707,-0.1165 -0.459542,-0.0473 -0.577558,0.15375 l -0.309106,0.53709 c -0.214398,-0.0844 -0.440692,-0.14696 -0.675519,-0.18077 v -0.61979 c 3.7e-5,-0.23306 -0.189154,-0.42223 -0.422196,-0.42223 z m -1.097753,4.89761 c 0,-0.46604 0.378347,-0.84439 0.844411,-0.84439 0.466122,0 0.844413,0.37835 0.844413,0.84439 0,0.46607 -0.378291,0.84442 -0.844413,0.84442 -0.466064,-2e-5 -0.844411,-0.37835 -0.844411,-0.84442 z m 1.688824,-1.60438 c 0,-0.32589 0.2652,-0.59109 0.591127,-0.59109 0.325854,0 0.591054,0.26521 0.591054,0.59109 0,0.32596 -0.2652,0.59108 -0.591054,0.59108 -0.325947,2e-5 -0.591127,-0.26512 -0.591127,-0.59108 z m -1.351019,-0.84442 c 0,-0.23305 0.189136,-0.42219 0.422197,-0.42219 0.233042,0 0.422196,0.18914 0.422196,0.42219 0,0.23303 -0.189172,0.42222 -0.422196,0.42222 -0.233061,0 -0.422197,-0.18917 -0.422197,-0.42222 z"
       id="path3405" />
    <path
       style="fill:#ffc306;fill-opacity:0.4;stroke:none;stroke-width:0.28348213px;stroke-linecap:butt;stroke-linejoin:miter;stroke-opacity:1"
       d="m 2.1377465,284.96747 h 2.6664984 c 0,0 0.8524049,1.61084 0.9139174,1.70094 0.066148,0.10178 0.026997,0.18833 -0.1043153,0.18833 -0.1961595,0 -4.2441457,0 -4.2441457,0 -0.089432,0 -0.068968,-0.0985 -0.032207,-0.18176 0.025018,-0.049 0.8002479,-1.70751 0.8002479,-1.70751 z"
       id="path3989"
       inkscape:connector-curvature="0"
       sodipodi:nodetypes="cccccccc" />
  </g>
</svg>
