<?xml version="1.0" encoding="UTF-8" standalone="no"?>
<!-- Generator: Adobe Illustrator 16.0.0, SVG Export Plug-In . SVG Version: 6.00 Build 0)  -->

<svg
   xmlns:dc="http://purl.org/dc/elements/1.1/"
   xmlns:cc="http://creativecommons.org/ns#"
   xmlns:rdf="http://www.w3.org/1999/02/22-rdf-syntax-ns#"
   xmlns:svg="http://www.w3.org/2000/svg"
   xmlns="http://www.w3.org/2000/svg"
   xmlns:sodipodi="http://sodipodi.sourceforge.net/DTD/sodipodi-0.dtd"
   xmlns:inkscape="http://www.inkscape.org/namespaces/inkscape"
   version="1.1"
   id="Capa_1"
   x="0px"
   y="0px"
   width="79.117592"
   height="64"
   viewBox="0 0 79.117593 64.000001"
   xml:space="preserve"
   sodipodi:docname="writer.svg"
   inkscape:version="0.92.3 (2405546, 2018-03-11)"><metadata
   id="metadata2139"><rdf:RDF><cc:Work
       rdf:about=""><dc:format>image/svg+xml</dc:format><dc:type
         rdf:resource="http://purl.org/dc/dcmitype/StillImage" /><dc:title></dc:title></cc:Work></rdf:RDF></metadata><defs
   id="defs2137" /><sodipodi:namedview
   pagecolor="#ffffff"
   bordercolor="#666666"
   borderopacity="1"
   objecttolerance="10"
   gridtolerance="10"
   guidetolerance="10"
   inkscape:pageopacity="0"
   inkscape:pageshadow="2"
   inkscape:window-width="1920"
   inkscape:window-height="910"
   id="namedview2135"
   showgrid="false"
   fit-margin-top="0"
   fit-margin-left="0"
   fit-margin-right="0"
   fit-margin-bottom="0"
   inkscape:zoom="0.92669843"
   inkscape:cx="389.55499"
   inkscape:cy="315.12001"
   inkscape:window-x="0"
   inkscape:window-y="0"
   inkscape:window-maximized="1"
   inkscape:current-layer="Capa_1" />
<g
   id="g2102"
   style="fill:#ffc306;fill-opacity:1"
   transform="matrix(0.10154862,0,0,0.10154862,0,-7.5587713)">
	<g
   id="g2100"
   style="fill:#ffc306;fill-opacity:1">
		<path
   d="M 662.914,632.351 H 530.07 254.474 c -11.49,0 -20.806,9.315 -20.806,20.806 v 12.805 c 0,11.49 9.315,20.81 20.806,20.81 h 275.598 132.844 68.82 v -54.418 z"
   id="path2092"
   style="fill:#ffc306;fill-opacity:1"
   inkscape:connector-curvature="0" />
		<circle
   cx="211.187"
   cy="189.625"
   r="115.19"
   id="circle2094"
   style="fill:#ffc306;fill-opacity:1" />
		<path
   d="m 492.234,472.147 -263.969,-0.146 -6.25,-0.02 v -30.632 l -0.217,-25.64 c 0,-61.245 -49.651,-110.898 -110.899,-110.898 -2.075,0 -4.136,0.07 -6.184,0.182 l -0.156,-0.182 C 46.813,304.813 0,351.625 0,409.372 V 704.675 H 222.015 V 578.876 l -2.937,-0.231 c -0.209,-0.019 -0.261,0.002 -0.391,0.002 -15.021,0 -29.417,-6.324 -39.562,-17.399 L 89.013,462.885 c -2.873,-3.135 -2.66,-8.003 0.476,-10.874 3.133,-2.873 8.003,-2.659 10.874,0.476 l 90.111,98.362 c 7.322,7.993 17.648,12.881 28.521,13.039 0.723,0.01 10.594,0.152 10.594,0.152 h 262.645 c 25.375,0 45.947,-20.571 45.947,-45.947 10e-4,-25.376 -20.572,-45.946 -45.947,-45.946 z"
   id="path2096"
   style="fill:#ffc306;fill-opacity:1"
   inkscape:connector-curvature="0" />
		<path
   d="m 765.197,309.111 c -10.744,-3.681 -22.439,2.049 -26.123,12.794 l -87.209,254.59 H 339.803 c -11.356,0 -20.567,9.206 -20.567,20.564 0,11.358 9.211,20.566 20.567,20.566 H 666.31 c 6.994,0 13.168,-3.503 16.879,-8.841 1.283,-1.694 2.33,-3.607 3.059,-5.729 L 778,335.225 c 3.67,-10.739 -2.053,-22.435 -12.803,-26.114 z"
   id="path2098"
   style="fill:#ffc306;fill-opacity:1"
   inkscape:connector-curvature="0" />
	</g>
</g>
<g
   id="g2104"
   style="fill:#ffc306;fill-opacity:1"
   transform="matrix(0.10154862,0,0,0.10154862,0,-7.5587713)">
</g>
<g
   id="g2106"
   style="fill:#ffc306;fill-opacity:1"
   transform="matrix(0.10154862,0,0,0.10154862,0,-7.5587713)">
</g>
<g
   id="g2108"
   style="fill:#ffc306;fill-opacity:1"
   transform="matrix(0.10154862,0,0,0.10154862,0,-7.5587713)">
</g>
<g
   id="g2110"
   style="fill:#ffc306;fill-opacity:1"
   transform="matrix(0.10154862,0,0,0.10154862,0,-7.5587713)">
</g>
<g
   id="g2112"
   style="fill:#ffc306;fill-opacity:1"
   transform="matrix(0.10154862,0,0,0.10154862,0,-7.5587713)">
</g>
<g
   id="g2114"
   style="fill:#ffc306;fill-opacity:1"
   transform="matrix(0.10154862,0,0,0.10154862,0,-7.5587713)">
</g>
<g
   id="g2116"
   style="fill:#ffc306;fill-opacity:1"
   transform="matrix(0.10154862,0,0,0.10154862,0,-7.5587713)">
</g>
<g
   id="g2118"
   style="fill:#ffc306;fill-opacity:1"
   transform="matrix(0.10154862,0,0,0.10154862,0,-7.5587713)">
</g>
<g
   id="g2120"
   style="fill:#ffc306;fill-opacity:1"
   transform="matrix(0.10154862,0,0,0.10154862,0,-7.5587713)">
</g>
<g
   id="g2122"
   style="fill:#ffc306;fill-opacity:1"
   transform="matrix(0.10154862,0,0,0.10154862,0,-7.5587713)">
</g>
<g
   id="g2124"
   style="fill:#ffc306;fill-opacity:1"
   transform="matrix(0.10154862,0,0,0.10154862,0,-7.5587713)">
</g>
<g
   id="g2126"
   style="fill:#ffc306;fill-opacity:1"
   transform="matrix(0.10154862,0,0,0.10154862,0,-7.5587713)">
</g>
<g
   id="g2128"
   style="fill:#ffc306;fill-opacity:1"
   transform="matrix(0.10154862,0,0,0.10154862,0,-7.5587713)">
</g>
<g
   id="g2130"
   style="fill:#ffc306;fill-opacity:1"
   transform="matrix(0.10154862,0,0,0.10154862,0,-7.5587713)">
</g>
<g
   id="g2132"
   style="fill:#ffc306;fill-opacity:1"
   transform="matrix(0.10154862,0,0,0.10154862,0,-7.5587713)">
</g>
</svg>