<?xml version="1.0" encoding="UTF-8" standalone="no"?>
<!DOCTYPE svg PUBLIC "-//W3C//DTD SVG 1.1//EN"
 "http://www.w3.org/Graphics/SVG/1.1/DTD/svg11.dtd">
<!-- Generated by graphviz version 2.40.1 (20161225.0304)
 -->
<!-- Title: %3 Pages: 1 -->
<svg width="370pt" height="402pt"
 viewBox="0.00 0.00 370.00 402.00" xmlns="http://www.w3.org/2000/svg" xmlns:xlink="http://www.w3.org/1999/xlink">
<g id="graph0" class="graph" transform="scale(1 1) rotate(0) translate(4 398)">
<title>%3</title>
<polygon fill="#ffffff" stroke="transparent" points="-4,4 -4,-398 366,-398 366,4 -4,4"/>
<!-- Compound -->
<g id="node1" class="node">
<title>Compound</title>
<polygon fill="#ff8a5b" stroke="transparent" points="4.5,-359.5 4.5,-389.5 135.5,-389.5 135.5,-359.5 4.5,-359.5"/>
<polygon fill="none" stroke="#000000" points="4.5,-359.5 4.5,-389.5 135.5,-389.5 135.5,-359.5 4.5,-359.5"/>
<text text-anchor="start" x="27.5" y="-371.1" font-family="Times,serif" font-weight="bold" font-size="18.00" fill="#000000">Compound</text>
<polygon fill="#bfffff" stroke="transparent" points="4.5,-334.5 4.5,-359.5 79.5,-359.5 79.5,-334.5 4.5,-334.5"/>
<polygon fill="none" stroke="#000000" points="4.5,-334.5 4.5,-359.5 79.5,-359.5 79.5,-334.5 4.5,-334.5"/>
<text text-anchor="start" x="23.5" y="-344.3" font-family="Times,serif" font-weight="bold" font-size="14.00" fill="#000000">model</text>
<polygon fill="#bfffff" stroke="transparent" points="79.5,-334.5 79.5,-359.5 135.5,-359.5 135.5,-334.5 79.5,-334.5"/>
<polygon fill="none" stroke="#000000" points="79.5,-334.5 79.5,-359.5 135.5,-359.5 135.5,-334.5 79.5,-334.5"/>
<text text-anchor="start" x="89" y="-343.3" font-family="Times,serif" font-size="14.00" fill="#000000">Model</text>
<polygon fill="#ebffff" stroke="transparent" points="4.5,-309.5 4.5,-334.5 79.5,-334.5 79.5,-309.5 4.5,-309.5"/>
<polygon fill="none" stroke="#000000" points="4.5,-309.5 4.5,-334.5 79.5,-334.5 79.5,-309.5 4.5,-309.5"/>
<text text-anchor="start" x="36" y="-319.3" font-family="Times,serif" font-weight="bold" font-size="14.00" fill="#000000">id</text>
<polygon fill="#ebffff" stroke="transparent" points="79.5,-309.5 79.5,-334.5 135.5,-334.5 135.5,-309.5 79.5,-309.5"/>
<polygon fill="none" stroke="#000000" points="79.5,-309.5 79.5,-334.5 135.5,-334.5 135.5,-309.5 79.5,-309.5"/>
<text text-anchor="start" x="95" y="-318.3" font-family="Times,serif" font-size="14.00" fill="#000000">Slug</text>
<polygon fill="#bfffff" stroke="transparent" points="4.5,-284.5 4.5,-309.5 79.5,-309.5 79.5,-284.5 4.5,-284.5"/>
<polygon fill="none" stroke="#000000" points="4.5,-284.5 4.5,-309.5 79.5,-309.5 79.5,-284.5 4.5,-284.5"/>
<text text-anchor="start" x="25.5" y="-294.3" font-family="Times,serif" font-weight="bold" font-size="14.00" fill="#000000">name</text>
<polygon fill="#bfffff" stroke="transparent" points="79.5,-284.5 79.5,-309.5 135.5,-309.5 135.5,-284.5 79.5,-284.5"/>
<polygon fill="none" stroke="#000000" points="79.5,-284.5 79.5,-309.5 135.5,-309.5 135.5,-284.5 79.5,-284.5"/>
<text text-anchor="start" x="90.5" y="-293.3" font-family="Times,serif" font-size="14.00" fill="#000000">String</text>
<polygon fill="#ebffff" stroke="transparent" points="4.5,-259.5 4.5,-284.5 79.5,-284.5 79.5,-259.5 4.5,-259.5"/>
<polygon fill="none" stroke="#000000" points="4.5,-259.5 4.5,-284.5 79.5,-284.5 79.5,-259.5 4.5,-259.5"/>
<text text-anchor="start" x="12.5" y="-269.3" font-family="Times,serif" font-weight="bold" font-size="14.00" fill="#000000">identifiers</text>
<polygon fill="#ebffff" stroke="transparent" points="79.5,-259.5 79.5,-284.5 135.5,-284.5 135.5,-259.5 79.5,-259.5"/>
<polygon fill="none" stroke="#000000" points="79.5,-259.5 79.5,-284.5 135.5,-284.5 135.5,-259.5 79.5,-259.5"/>
<text text-anchor="start" x="90.5" y="-268.3" font-family="Times,serif" font-size="14.00" fill="#000000">String</text>
<polygon fill="#bfffff" stroke="transparent" points="4.5,-234.5 4.5,-259.5 79.5,-259.5 79.5,-234.5 4.5,-234.5"/>
<polygon fill="none" stroke="#000000" points="4.5,-234.5 4.5,-259.5 79.5,-259.5 79.5,-234.5 4.5,-234.5"/>
<text text-anchor="start" x="9.5" y="-244.3" font-family="Times,serif" font-weight="bold" font-size="14.00" fill="#000000">is_constant</text>
<polygon fill="#bfffff" stroke="transparent" points="79.5,-234.5 79.5,-259.5 135.5,-259.5 135.5,-234.5 79.5,-234.5"/>
<polygon fill="none" stroke="#000000" points="79.5,-234.5 79.5,-259.5 135.5,-259.5 135.5,-234.5 79.5,-234.5"/>
<text text-anchor="start" x="84.5" y="-243.3" font-family="Times,serif" font-size="14.00" fill="#000000">Boolean</text>
</g>
<!-- Model -->
<g id="node2" class="node">
<title>Model</title>
<polygon fill="#ff8a5b" stroke="transparent" points="175.5,-332.5 175.5,-362.5 362.5,-362.5 362.5,-332.5 175.5,-332.5"/>
<polygon fill="none" stroke="#000000" points="175.5,-332.5 175.5,-362.5 362.5,-362.5 362.5,-332.5 175.5,-332.5"/>
<text text-anchor="start" x="244" y="-344.1" font-family="Times,serif" font-weight="bold" font-size="18.00" fill="#000000">Model</text>
<polygon fill="#bfffff" stroke="transparent" points="175.5,-307.5 175.5,-332.5 252.5,-332.5 252.5,-307.5 175.5,-307.5"/>
<polygon fill="none" stroke="#000000" points="175.5,-307.5 175.5,-332.5 252.5,-332.5 252.5,-307.5 175.5,-307.5"/>
<text text-anchor="start" x="208" y="-317.3" font-family="Times,serif" font-weight="bold" font-size="14.00" fill="#000000">id</text>
<polygon fill="#bfffff" stroke="transparent" points="252.5,-307.5 252.5,-332.5 362.5,-332.5 362.5,-307.5 252.5,-307.5"/>
<polygon fill="none" stroke="#000000" points="252.5,-307.5 252.5,-332.5 362.5,-332.5 362.5,-307.5 252.5,-307.5"/>
<text text-anchor="start" x="295" y="-316.3" font-family="Times,serif" font-size="14.00" fill="#000000">Slug</text>
<polygon fill="#ebffff" stroke="transparent" points="175.5,-282.5 175.5,-307.5 252.5,-307.5 252.5,-282.5 175.5,-282.5"/>
<polygon fill="none" stroke="#000000" points="175.5,-282.5 175.5,-307.5 252.5,-307.5 252.5,-282.5 175.5,-282.5"/>
<text text-anchor="start" x="197.5" y="-292.3" font-family="Times,serif" font-weight="bold" font-size="14.00" fill="#000000">name</text>
<polygon fill="#ebffff" stroke="transparent" points="252.5,-282.5 252.5,-307.5 362.5,-307.5 362.5,-282.5 252.5,-282.5"/>
<polygon fill="none" stroke="#000000" points="252.5,-282.5 252.5,-307.5 362.5,-307.5 362.5,-282.5 252.5,-282.5"/>
<text text-anchor="start" x="290.5" y="-291.3" font-family="Times,serif" font-size="14.00" fill="#000000">String</text>
<polygon fill="#bfffff" stroke="transparent" points="175.5,-257.5 175.5,-282.5 252.5,-282.5 252.5,-257.5 175.5,-257.5"/>
<polygon fill="none" stroke="#000000" points="175.5,-257.5 175.5,-282.5 252.5,-282.5 252.5,-257.5 175.5,-257.5"/>
<text text-anchor="start" x="180.5" y="-267.3" font-family="Times,serif" font-weight="bold" font-size="14.00" fill="#000000">compounds</text>
<polygon fill="#bfffff" stroke="transparent" points="252.5,-257.5 252.5,-282.5 362.5,-282.5 362.5,-257.5 252.5,-257.5"/>
<polygon fill="none" stroke="#000000" points="252.5,-257.5 252.5,-282.5 362.5,-282.5 362.5,-257.5 252.5,-257.5"/>
<text text-anchor="start" x="257.5" y="-267.3" font-family="Times,serif" font-style="italic" font-size="14.00" fill="#000000">list of </text>
<text text-anchor="start" x="292.5" y="-267.3" font-family="Times,serif" font-size="14.00" fill="#000000"> Compound</text>
<polygon fill="#ebffff" stroke="transparent" points="175.5,-232.5 175.5,-257.5 252.5,-257.5 252.5,-232.5 175.5,-232.5"/>
<polygon fill="none" stroke="#000000" points="175.5,-232.5 175.5,-257.5 252.5,-257.5 252.5,-232.5 175.5,-232.5"/>
<text text-anchor="start" x="187.5" y="-242.3" font-family="Times,serif" font-weight="bold" font-size="14.00" fill="#000000">reactions</text>
<polygon fill="#ebffff" stroke="transparent" points="252.5,-232.5 252.5,-257.5 362.5,-257.5 362.5,-232.5 252.5,-232.5"/>
<polygon fill="none" stroke="#000000" points="252.5,-232.5 252.5,-257.5 362.5,-257.5 362.5,-232.5 252.5,-232.5"/>
<text text-anchor="start" x="264" y="-242.3" font-family="Times,serif" font-style="italic" font-size="14.00" fill="#000000">list of </text>
<text text-anchor="start" x="299" y="-242.3" font-family="Times,serif" font-size="14.00" fill="#000000"> Reaction</text>
</g>
<!-- Compound&#45;&gt;Model -->
<g id="edge1" class="edge">
<title>Compound:0&#45;&gt;Model:2</title>
<path fill="none" stroke="#000000" d="M135.5,-347.5C170.3503,-347.5 143.684,-285.0855 165.5581,-271.9199"/>
<polygon fill="#000000" stroke="#000000" points="166.6115,-275.2658 175.5,-269.5 164.9559,-268.4644 166.6115,-275.2658"/>
<text text-anchor="middle" x="170.5" y="-258.3" font-family="Times,serif" font-size="14.00" fill="#000000">N</text>
<text text-anchor="middle" x="139" y="-336.3" font-family="Times,serif" font-size="14.00" fill="#000000">1</text>
</g>
<!-- Reaction -->
<g id="node3" class="node">
<title>Reaction</title>
<polygon fill="#ff8a5b" stroke="transparent" points=".5,-178.5 .5,-208.5 139.5,-208.5 139.5,-178.5 .5,-178.5"/>
<polygon fill="none" stroke="#000000" points=".5,-178.5 .5,-208.5 139.5,-208.5 139.5,-178.5 .5,-178.5"/>
<text text-anchor="start" x="35.5" y="-190.1" font-family="Times,serif" font-weight="bold" font-size="18.00" fill="#000000">Reaction</text>
<polygon fill="#bfffff" stroke="transparent" points=".5,-153.5 .5,-178.5 83.5,-178.5 83.5,-153.5 .5,-153.5"/>
<polygon fill="none" stroke="#000000" points=".5,-153.5 .5,-178.5 83.5,-178.5 83.5,-153.5 .5,-153.5"/>
<text text-anchor="start" x="23.5" y="-163.3" font-family="Times,serif" font-weight="bold" font-size="14.00" fill="#000000">model</text>
<polygon fill="#bfffff" stroke="transparent" points="83.5,-153.5 83.5,-178.5 139.5,-178.5 139.5,-153.5 83.5,-153.5"/>
<polygon fill="none" stroke="#000000" points="83.5,-153.5 83.5,-178.5 139.5,-178.5 139.5,-153.5 83.5,-153.5"/>
<text text-anchor="start" x="93" y="-162.3" font-family="Times,serif" font-size="14.00" fill="#000000">Model</text>
<polygon fill="#ebffff" stroke="transparent" points=".5,-128.5 .5,-153.5 83.5,-153.5 83.5,-128.5 .5,-128.5"/>
<polygon fill="none" stroke="#000000" points=".5,-128.5 .5,-153.5 83.5,-153.5 83.5,-128.5 .5,-128.5"/>
<text text-anchor="start" x="36" y="-138.3" font-family="Times,serif" font-weight="bold" font-size="14.00" fill="#000000">id</text>
<polygon fill="#ebffff" stroke="transparent" points="83.5,-128.5 83.5,-153.5 139.5,-153.5 139.5,-128.5 83.5,-128.5"/>
<polygon fill="none" stroke="#000000" points="83.5,-128.5 83.5,-153.5 139.5,-153.5 139.5,-128.5 83.5,-128.5"/>
<text text-anchor="start" x="99" y="-137.3" font-family="Times,serif" font-size="14.00" fill="#000000">Slug</text>
<polygon fill="#bfffff" stroke="transparent" points=".5,-103.5 .5,-128.5 83.5,-128.5 83.5,-103.5 .5,-103.5"/>
<polygon fill="none" stroke="#000000" points=".5,-103.5 .5,-128.5 83.5,-128.5 83.5,-103.5 .5,-103.5"/>
<text text-anchor="start" x="25.5" y="-113.3" font-family="Times,serif" font-weight="bold" font-size="14.00" fill="#000000">name</text>
<polygon fill="#bfffff" stroke="transparent" points="83.5,-103.5 83.5,-128.5 139.5,-128.5 139.5,-103.5 83.5,-103.5"/>
<polygon fill="none" stroke="#000000" points="83.5,-103.5 83.5,-128.5 139.5,-128.5 139.5,-103.5 83.5,-103.5"/>
<text text-anchor="start" x="94.5" y="-112.3" font-family="Times,serif" font-size="14.00" fill="#000000">String</text>
<polygon fill="#ebffff" stroke="transparent" points=".5,-78.5 .5,-103.5 83.5,-103.5 83.5,-78.5 .5,-78.5"/>
<polygon fill="none" stroke="#000000" points=".5,-78.5 .5,-103.5 83.5,-103.5 83.5,-78.5 .5,-78.5"/>
<text text-anchor="start" x="12.5" y="-88.3" font-family="Times,serif" font-weight="bold" font-size="14.00" fill="#000000">identifiers</text>
<polygon fill="#ebffff" stroke="transparent" points="83.5,-78.5 83.5,-103.5 139.5,-103.5 139.5,-78.5 83.5,-78.5"/>
<polygon fill="none" stroke="#000000" points="83.5,-78.5 83.5,-103.5 139.5,-103.5 139.5,-78.5 83.5,-78.5"/>
<text text-anchor="start" x="94.5" y="-87.3" font-family="Times,serif" font-size="14.00" fill="#000000">String</text>
<polygon fill="#bfffff" stroke="transparent" points=".5,-53.5 .5,-78.5 83.5,-78.5 83.5,-53.5 .5,-53.5"/>
<polygon fill="none" stroke="#000000" points=".5,-53.5 .5,-78.5 83.5,-78.5 83.5,-53.5 .5,-53.5"/>
<text text-anchor="start" x="16.5" y="-63.3" font-family="Times,serif" font-weight="bold" font-size="14.00" fill="#000000">equation</text>
<polygon fill="#bfffff" stroke="transparent" points="83.5,-53.5 83.5,-78.5 139.5,-78.5 139.5,-53.5 83.5,-53.5"/>
<polygon fill="none" stroke="#000000" points="83.5,-53.5 83.5,-78.5 139.5,-78.5 139.5,-53.5 83.5,-53.5"/>
<text text-anchor="start" x="94.5" y="-62.3" font-family="Times,serif" font-size="14.00" fill="#000000">String</text>
<polygon fill="#ebffff" stroke="transparent" points=".5,-28.5 .5,-53.5 83.5,-53.5 83.5,-28.5 .5,-28.5"/>
<polygon fill="none" stroke="#000000" points=".5,-28.5 .5,-53.5 83.5,-53.5 83.5,-28.5 .5,-28.5"/>
<text text-anchor="start" x="5.5" y="-38.3" font-family="Times,serif" font-weight="bold" font-size="14.00" fill="#000000">is_reversible</text>
<polygon fill="#ebffff" stroke="transparent" points="83.5,-28.5 83.5,-53.5 139.5,-53.5 139.5,-28.5 83.5,-28.5"/>
<polygon fill="none" stroke="#000000" points="83.5,-28.5 83.5,-53.5 139.5,-53.5 139.5,-28.5 83.5,-28.5"/>
<text text-anchor="start" x="88.5" y="-37.3" font-family="Times,serif" font-size="14.00" fill="#000000">Boolean</text>
<polygon fill="#bfffff" stroke="transparent" points=".5,-3.5 .5,-28.5 83.5,-28.5 83.5,-3.5 .5,-3.5"/>
<polygon fill="none" stroke="#000000" points=".5,-3.5 .5,-28.5 83.5,-28.5 83.5,-3.5 .5,-3.5"/>
<text text-anchor="start" x="28.5" y="-13.3" font-family="Times,serif" font-weight="bold" font-size="14.00" fill="#000000">gene</text>
<polygon fill="#bfffff" stroke="transparent" points="83.5,-3.5 83.5,-28.5 139.5,-28.5 139.5,-3.5 83.5,-3.5"/>
<polygon fill="none" stroke="#000000" points="83.5,-3.5 83.5,-28.5 139.5,-28.5 139.5,-3.5 83.5,-3.5"/>
<text text-anchor="start" x="94.5" y="-12.3" font-family="Times,serif" font-size="14.00" fill="#000000">String</text>
</g>
<!-- Reaction&#45;&gt;Model -->
<g id="edge2" class="edge">
<title>Reaction:0&#45;&gt;Model:3</title>
<path fill="none" stroke="#000000" d="M139,-166.5C173.0882,-166.5 145.0492,-228.3706 165.5471,-241.9048"/>
<polygon fill="#000000" stroke="#000000" points="164.9404,-245.3636 175.5,-244.5 166.7067,-238.59 164.9404,-245.3636"/>
<text text-anchor="middle" x="170.5" y="-233.3" font-family="Times,serif" font-size="14.00" fill="#000000">N</text>
<text text-anchor="middle" x="142.5" y="-155.3" font-family="Times,serif" font-size="14.00" fill="#000000">1</text>
</g>
</g>
</svg>
